<svg width="518" height="230" fill="none" xmlns="http://www.w3.org/2000/svg"><g style="mix-blend-mode:hard-light" filter="url(#filter0_f_702_3291)"><ellipse cx="259" cy="115" rx="226.2" ry="82.2" fill="#33E9C6" fill-opacity=".1"/></g><g style="mix-blend-mode:hard-light" filter="url(#filter1_f_702_3291)"><path fill-rule="evenodd" clip-rule="evenodd" d="M453.406 110.249l-7.47 2.573c-5.278 1.818-11.632 4.606-19.102 8.433l-.03.015.147.079c4.943 2.653 11.383 5.694 19.371 9.127l6.306 2.709-2.621 6.344c-3.842 9.297-10.447 16.041-19.627 19.807-8.309 3.409-17.276 5.073-26.823 5.073-15.067 0-27.627-3.168-36.226-10.883-8.576-7.694-12.459-18.442-12.459-31.164 0-12.793 3.879-23.685 12.256-31.827 8.597-8.357 21.243-11.832 36.429-11.832 21.668 0 38.047 7.612 46.354 24.46l3.495 7.086zm-34.627 10.522l-1.3-2.51c-1.025-1.981-2.646-3.543-5.285-4.674l-.019-.008-.018-.008c-3.079-1.341-6.15-1.981-9.264-1.981-4.896 0-7.234 1.281-8.442 2.592l-.023.026-.024.025c-1.658 1.763-2.568 3.933-2.568 6.991 0 3.439 1.003 5.742 2.7 7.497 1.446 1.387 4.258 2.706 9.779 2.706 4.556 0 7.415-.75 9.111-1.67 1.492-.866 2.782-2.279 3.735-4.766l1.618-4.22zm-1.946 15.057c-3.098 1.706-7.271 2.56-12.518 2.56-6.574 0-11.474-1.581-14.698-4.741-3.161-3.225-4.741-7.365-4.741-12.423 0-4.678 1.485-8.598 4.456-11.759 2.972-3.224 7.492-4.836 13.561-4.836 4.109 0 8.123.854 12.043 2.561 3.982 1.706 6.889 4.329 8.723 7.868l.001.002c4.892-2.506 9.384-4.612 13.474-6.317a110.949 110.949 0 016.535-2.502 35.955 35.955 0 00-3.753-6.056c-7.458-9.68-19.577-14.521-36.359-14.521-14.288 0-24.814 3.287-31.578 9.862-6.764 6.575-10.147 15.52-10.147 26.836 0 11.253 3.383 19.914 10.147 25.983 6.764 6.069 17.29 9.103 31.578 9.103 8.724 0 16.784-1.517 24.181-4.551 5.224-2.144 9.391-5.438 12.503-9.883a31.49 31.49 0 002.939-5.226c.134-.302.266-.607.394-.917-5.151-2.214-9.713-4.286-13.685-6.217a176.307 176.307 0 01-6.229-3.171c-.619 1.616-1.388 3.048-2.306 4.297a14.484 14.484 0 01-4.521 4.048z" fill="#00A8A8"/></g><g style="mix-blend-mode:hard-light" filter="url(#filter2_f_702_3291)"><path fill-rule="evenodd" clip-rule="evenodd" d="M327.196 163.46l-1.587-4.759a352.74 352.74 0 00-3.088-8.801h-20.455l-4.741 13.56h-38.887l2.685-6.96h3.67l-.06-1.485a739.69 739.69 0 01-.247-7.235l25.873-67.085h44.436l32.149 82.765h-39.748zm-30.07-20.52h30.25c2.023 5.436 3.635 9.957 4.836 13.56h24.561l-26.742-68.845h-34.896L268.583 156.5h23.802l4.741-13.56zm11.422-30.973l.631-1.679.027-.073c1.192-3.17 2.223-5.885 3.093-8.146l2.275 6.164a1278.17 1278.17 0 017.397 19.914h-19.44c.906-2.451 1.765-4.771 2.578-6.961 1.257-3.385 2.403-6.458 3.439-9.219z" fill="#00A8A8"/></g><g style="mix-blend-mode:hard-light" filter="url(#filter3_f_702_3291)"><path fill-rule="evenodd" clip-rule="evenodd" d="M272.047 80.695l-.3 7.248c-.438 10.575-.658 21.953-.658 34.135 0 9.449.132 18.414.396 26.896l-2.903 7.526h3.177l.288 6.96h-36.5v-25.793h-20.975v25.793h-36.499l.299-7.247c.502-12.182.753-23.56.753-34.135 0-10.576-.251-21.954-.753-34.136l-.299-7.247h36.499v25.793h20.975V80.695h36.5zm-29.539 32.753h-34.897V87.655h-22.284c.096 2.35.184 4.67.262 6.96.331 9.671.496 18.825.496 27.463 0 8.637-.165 17.791-.496 27.462a1023.03 1023.03 0 01-.262 6.96h22.284v-25.793h34.897V156.5h22.284a715.31 715.31 0 01-.253-6.96 870.77 870.77 0 01-.411-27.462c0-9.643.137-18.797.411-27.463.074-2.356.159-4.676.253-6.96h-22.284v25.793z" fill="#00A8A8"/></g><g style="mix-blend-mode:hard-light" filter="url(#filter4_f_702_3291)"><path fill-rule="evenodd" clip-rule="evenodd" d="M79.819 153.179l-.013-.011c-8.56-7.926-12.473-18.807-12.473-31.659 0-12.734 3.885-23.532 12.354-31.448l.012-.01.012-.012c8.672-8.03 21.435-11.336 36.781-11.336 15.385 0 28.169 3.296 36.793 11.347 8.534 7.91 12.46 18.712 12.46 31.459 0 12.879-3.86 23.778-12.38 31.66-8.628 7.983-21.443 11.24-36.873 11.24-15.278 0-27.993-3.272-36.66-11.218l-.013-.012zm47.285-24.318c1.075-.96 2.246-2.915 2.246-7.352 0-4.296-1.162-6.213-2.277-7.191-1.196-1.05-4.162-2.349-10.581-2.349-6.337 0-9.282 1.292-10.487 2.349-1.115.978-2.277 2.895-2.277 7.191 0 4.388 1.178 6.321 2.277 7.285 1.205 1.057 4.15 2.349 10.487 2.349 6.394 0 9.392-1.257 10.612-2.282zm-42.57 19.199c6.828 6.259 17.481 9.388 31.958 9.388 14.666 0 25.382-3.129 32.146-9.388 6.765-6.258 10.147-15.109 10.147-26.551 0-11.253-3.414-20.041-10.242-26.362-6.764-6.322-17.448-9.483-32.051-9.483-14.541 0-25.224 3.16-32.052 9.483-6.764 6.321-10.147 15.109-10.147 26.362 0 11.379 3.414 20.229 10.242 26.551zm47.13-13.939c-3.098 2.655-8.155 3.982-15.172 3.982-6.954 0-11.98-1.359-15.078-4.077-3.098-2.719-4.646-6.891-4.646-12.517 0-5.564 1.548-9.704 4.646-12.423 3.098-2.718 8.124-4.077 15.078-4.077 7.017 0 12.074 1.359 15.172 4.077 3.098 2.719 4.647 6.859 4.647 12.423 0 5.689-1.549 9.893-4.647 12.612z" fill="#00A8A8"/></g><g style="mix-blend-mode:hard-light" filter="url(#filter5_f_702_3291)"><path fill-rule="evenodd" clip-rule="evenodd" d="M456.402 111.482l-9.769 3.365c-4.27 1.471-9.3 3.606-15.119 6.457 4.296 2.16 9.503 4.561 15.653 7.204l8.247 3.543-3.428 8.296c-4.051 9.804-11.064 16.979-20.793 20.971-8.59 3.523-17.836 5.232-27.636 5.232-15.306 0-28.492-3.208-37.656-11.43-9.133-8.194-13.171-19.584-13.171-32.758 0-13.247 4.032-24.739 12.905-33.363 9.162-8.905 22.46-12.437 37.922-12.437 22.189 0 39.493 7.843 48.275 25.654l4.57 9.266zm-39.967 9.42l-.857-1.656c-.778-1.501-2.002-2.737-4.227-3.69l-.025-.011-.024-.01c-2.82-1.228-5.601-1.804-8.409-1.804-4.535 0-6.201 1.18-6.867 1.903l-.031.033-.03.033c-1.254 1.333-1.987 2.964-1.987 5.524 0 2.932.821 4.674 2.068 5.978.916.861 3.105 2.084 8.269 2.084 4.328 0 6.787-.714 8.062-1.396 1.003-.59 1.988-1.588 2.784-3.665l1.274-3.323zm.398 14.926c-3.098 1.706-7.271 2.56-12.518 2.56-6.574 0-11.474-1.581-14.698-4.741-3.161-3.225-4.741-7.365-4.741-12.423 0-4.678 1.485-8.598 4.457-11.759 2.971-3.224 7.491-4.836 13.56-4.836 4.109 0 8.124.854 12.043 2.561 3.982 1.706 6.889 4.329 8.723 7.868l.001.002c4.116-2.109 7.949-3.934 11.497-5.476 3.047-1.323 5.884-2.437 8.512-3.343-1.436-2.911-3.169-5.513-5.199-7.807-7.538-8.513-19.176-12.77-34.913-12.77-14.288 0-24.814 3.287-31.578 9.862-6.764 6.575-10.146 15.52-10.146 26.836 0 11.253 3.382 19.914 10.146 25.983 6.764 6.069 17.29 9.103 31.578 9.103 8.724 0 16.784-1.517 24.181-4.551 4.51-1.851 8.234-4.56 11.169-8.127 1.683-2.045 3.108-4.372 4.273-6.982.135-.302.266-.607.394-.916v-.001a347.518 347.518 0 01-11.752-5.288 189.331 189.331 0 01-8.162-4.1c-.619 1.616-1.388 3.048-2.305 4.297a14.486 14.486 0 01-4.522 4.048z" fill="#00A8A8"/></g><g style="mix-blend-mode:hard-light" filter="url(#filter6_f_702_3291)"><path fill-rule="evenodd" clip-rule="evenodd" d="M325.651 165.602l-2.074-6.224a323.523 323.523 0 00-2.559-7.336h-17.433l-4.741 13.56h-43.528l3.511-9.102h5.965l-.06-1.485a749.05 749.05 0 01-.39-12.816l24.547-63.646h22.701l.882-2.291.846 2.291h22.942l33.812 87.049h-44.421zm-30.517-77.947L268.582 156.5h23.802l4.742-13.56h30.25c2.023 5.436 3.635 9.957 4.836 13.56h24.56l-26.741-68.845h-34.897zm12.275 27.354a2034.48 2034.48 0 011.769-4.721l.027-.073c1.192-3.17 2.223-5.885 3.093-8.146l2.276 6.164a1297.579 1297.579 0 014.063 10.811 1283.01 1283.01 0 013.333 9.103h-19.439a4396.627 4396.627 0 014.878-13.138z" fill="#00A8A8"/></g><g style="mix-blend-mode:hard-light" filter="url(#filter7_f_702_3291)"><path fill-rule="evenodd" clip-rule="evenodd" d="M274.279 78.553l-.392 9.479c-.437 10.542-.656 21.889-.656 34.046 0 7.549.084 14.787.253 21.713l-4.901 12.709h5.319l.377 9.102h-40.873v-25.793h-16.692v25.793h-40.872l.391-9.477c.501-12.157.75-23.505.75-34.047 0-10.543-.249-21.89-.75-34.048l-.391-9.477h40.872v25.793h16.692V78.553h40.873zm-31.771 34.895h-34.897V87.655h-22.284c.127 3.084.238 6.118.334 9.102.283 8.883.425 17.323.425 25.321 0 7.997-.142 16.437-.425 25.32-.096 2.984-.207 6.018-.334 9.102h22.284v-25.793h34.897V156.5h22.285c-.124-2.973-.23-6.007-.318-9.102a881.986 881.986 0 01-.346-25.32c0-8.852.115-17.292.346-25.32.088-3.096.194-6.13.318-9.103h-22.285v25.793z" fill="#00A8A8"/></g><g style="mix-blend-mode:hard-light" filter="url(#filter8_f_702_3291)"><path fill-rule="evenodd" clip-rule="evenodd" d="M78.368 154.755l-.017-.016c-9.092-8.419-13.16-19.924-13.16-33.23 0-13.189 4.04-24.607 13.034-33.013l.016-.014.015-.014c9.24-8.556 22.642-11.906 38.236-11.906 15.625 0 29.056 3.337 38.251 11.92 9.06 8.398 13.144 19.82 13.144 33.027 0 13.322-4.008 24.85-13.067 33.232-9.202 8.514-22.662 11.809-38.328 11.809-15.524 0-28.874-3.316-38.108-11.78l-.016-.015zm70.176-59.608c-6.765-6.322-17.449-9.483-32.052-9.483-14.54 0-25.224 3.16-32.052 9.483-6.764 6.321-10.147 15.109-10.147 26.362 0 11.379 3.414 20.229 10.242 26.551 6.828 6.259 17.48 9.388 31.957 9.388 14.666 0 25.382-3.129 32.146-9.388 6.765-6.258 10.147-15.109 10.147-26.551 0-11.253-3.414-20.041-10.241-26.362zM116.492 129c6.149 0 8.538-1.213 9.21-1.759.484-.444 1.507-1.744 1.507-5.733 0-3.906-1.044-5.139-1.548-5.581-.611-.536-2.934-1.817-9.169-1.817-6.147 0-8.452 1.271-9.074 1.817-.505.442-1.548 1.675-1.548 5.581 0 4.007 1.064 5.251 1.548 5.675.622.546 2.927 1.817 9.074 1.817zm15.172 5.12c-3.097 2.655-8.155 3.982-15.172 3.982-6.954 0-11.98-1.359-15.078-4.077-3.097-2.719-4.646-6.891-4.646-12.517 0-5.564 1.549-9.704 4.646-12.423 3.098-2.718 8.124-4.077 15.078-4.077 7.017 0 12.075 1.359 15.172 4.077 3.098 2.719 4.647 6.859 4.647 12.423 0 5.689-1.549 9.893-4.647 12.612z" fill="#00A8A8"/></g><g style="mix-blend-mode:hard-light" filter="url(#filter9_ddi_702_3291)"><path fill-rule="evenodd" clip-rule="evenodd" d="M453.406 110.249l-7.47 2.573c-5.278 1.818-11.632 4.606-19.102 8.433l-.03.015.147.079c4.943 2.653 11.383 5.694 19.371 9.127l6.306 2.709-2.621 6.344c-3.842 9.297-10.447 16.041-19.627 19.807-8.309 3.409-17.276 5.073-26.823 5.073-15.067 0-27.627-3.168-36.226-10.883-8.576-7.694-12.459-18.442-12.459-31.164 0-12.793 3.879-23.685 12.256-31.827 8.597-8.357 21.243-11.832 36.429-11.832 21.668 0 38.047 7.612 46.354 24.46l3.495 7.086zm-34.627 10.522l-1.3-2.51c-1.025-1.981-2.646-3.543-5.285-4.674l-.019-.008-.018-.008c-3.079-1.341-6.15-1.981-9.264-1.981-4.896 0-7.234 1.281-8.442 2.592l-.023.026-.024.025c-1.658 1.763-2.568 3.933-2.568 6.991 0 3.439 1.003 5.742 2.7 7.497 1.446 1.387 4.258 2.706 9.779 2.706 4.556 0 7.415-.75 9.111-1.67 1.492-.866 2.782-2.279 3.735-4.766l1.618-4.22zm-1.946 15.057c-3.098 1.706-7.271 2.56-12.518 2.56-6.574 0-11.474-1.581-14.698-4.741-3.161-3.225-4.741-7.365-4.741-12.423 0-4.678 1.485-8.598 4.456-11.759 2.972-3.224 7.492-4.836 13.561-4.836 4.109 0 8.123.854 12.043 2.561 3.982 1.706 6.889 4.329 8.723 7.868l.001.002c4.892-2.506 9.384-4.612 13.474-6.317a110.949 110.949 0 016.535-2.502 35.955 35.955 0 00-3.753-6.056c-7.458-9.68-19.577-14.521-36.359-14.521-14.288 0-24.814 3.287-31.578 9.862-6.764 6.575-10.147 15.52-10.147 26.836 0 11.253 3.383 19.914 10.147 25.983 6.764 6.069 17.29 9.103 31.578 9.103 8.724 0 16.784-1.517 24.181-4.551 5.224-2.144 9.391-5.438 12.503-9.883a31.49 31.49 0 002.939-5.226c.134-.302.266-.607.394-.917-5.151-2.214-9.713-4.286-13.685-6.217a176.307 176.307 0 01-6.229-3.171c-.619 1.616-1.388 3.048-2.306 4.297a14.484 14.484 0 01-4.521 4.048z" fill="#33E9C6" fill-opacity=".2"/></g><g style="mix-blend-mode:hard-light" filter="url(#filter10_ddi_702_3291)"><path fill-rule="evenodd" clip-rule="evenodd" d="M327.196 163.46l-1.587-4.759a352.74 352.74 0 00-3.088-8.801h-20.455l-4.741 13.56h-38.887l2.685-6.96h3.67l-.06-1.485a739.69 739.69 0 01-.247-7.235l25.873-67.085h44.436l32.149 82.765h-39.748zm-30.07-20.52h30.25c2.023 5.436 3.635 9.957 4.836 13.56h24.561l-26.742-68.845h-34.896L268.583 156.5h23.802l4.741-13.56zm11.422-30.973l.631-1.679.027-.073c1.192-3.17 2.223-5.885 3.093-8.146l2.275 6.164a1278.17 1278.17 0 017.397 19.914h-19.44c.906-2.451 1.765-4.771 2.578-6.961 1.257-3.385 2.403-6.458 3.439-9.219z" fill="#33E9C6" fill-opacity=".2"/></g><g style="mix-blend-mode:hard-light" filter="url(#filter11_ddi_702_3291)"><path fill-rule="evenodd" clip-rule="evenodd" d="M272.047 80.695l-.3 7.248c-.438 10.575-.658 21.953-.658 34.135 0 9.449.132 18.414.396 26.896l-2.903 7.526h3.177l.288 6.96h-36.5v-25.793h-20.975v25.793h-36.499l.299-7.247c.502-12.182.753-23.56.753-34.135 0-10.576-.251-21.954-.753-34.136l-.299-7.247h36.499v25.793h20.975V80.695h36.5zm-29.539 32.753h-34.897V87.655h-22.284c.096 2.35.184 4.67.262 6.96.331 9.671.496 18.825.496 27.463 0 8.637-.165 17.791-.496 27.462a1023.03 1023.03 0 01-.262 6.96h22.284v-25.793h34.897V156.5h22.284a715.31 715.31 0 01-.253-6.96 870.77 870.77 0 01-.411-27.462c0-9.643.137-18.797.411-27.463.074-2.356.159-4.676.253-6.96h-22.284v25.793z" fill="#33E9C6" fill-opacity=".2"/></g><g style="mix-blend-mode:hard-light" filter="url(#filter12_ddi_702_3291)"><path fill-rule="evenodd" clip-rule="evenodd" d="M79.819 153.179l-.013-.011c-8.56-7.926-12.473-18.807-12.473-31.659 0-12.734 3.885-23.532 12.354-31.448l.012-.01.012-.012c8.672-8.03 21.435-11.336 36.781-11.336 15.385 0 28.169 3.296 36.793 11.347 8.534 7.91 12.46 18.712 12.46 31.459 0 12.879-3.86 23.778-12.38 31.66-8.628 7.983-21.443 11.24-36.873 11.24-15.278 0-27.993-3.272-36.66-11.218l-.013-.012zm47.285-24.318c1.075-.96 2.246-2.915 2.246-7.352 0-4.296-1.162-6.213-2.277-7.191-1.196-1.05-4.162-2.349-10.581-2.349-6.337 0-9.282 1.292-10.487 2.349-1.115.978-2.277 2.895-2.277 7.191 0 4.388 1.178 6.321 2.277 7.285 1.205 1.057 4.15 2.349 10.487 2.349 6.394 0 9.392-1.257 10.612-2.282zm-42.57 19.199c6.828 6.259 17.481 9.388 31.958 9.388 14.666 0 25.382-3.129 32.146-9.388 6.765-6.258 10.147-15.109 10.147-26.551 0-11.253-3.414-20.041-10.242-26.362-6.764-6.322-17.448-9.483-32.051-9.483-14.541 0-25.224 3.16-32.052 9.483-6.764 6.321-10.147 15.109-10.147 26.362 0 11.379 3.414 20.229 10.242 26.551zm47.13-13.939c-3.098 2.655-8.155 3.982-15.172 3.982-6.954 0-11.98-1.359-15.078-4.077-3.098-2.719-4.646-6.891-4.646-12.517 0-5.564 1.548-9.704 4.646-12.423 3.098-2.718 8.124-4.077 15.078-4.077 7.017 0 12.074 1.359 15.172 4.077 3.098 2.719 4.647 6.859 4.647 12.423 0 5.689-1.549 9.893-4.647 12.612z" fill="#33E9C6" fill-opacity=".2"/></g><g filter="url(#filter13_f_702_3291)"><path fill-rule="evenodd" clip-rule="evenodd" d="M449.66 108.708l-4.597 1.583c-5.436 1.873-11.911 4.719-19.45 8.581l-3.796 1.945-1.961-3.787c-1.336-2.58-3.452-4.551-6.608-5.903l-.011-.005-.012-.005c-3.402-1.482-6.836-2.204-10.332-2.204-5.347 0-8.525 1.408-10.411 3.455l-.014.016-.015.015c-2.163 2.301-3.294 5.144-3.294 8.825 0 4.065 1.226 7.072 3.486 9.393 2.125 2.064 5.734 3.488 11.67 3.488 4.827 0 8.19-.793 10.421-2.013 2.108-1.214 3.778-3.151 4.924-6.142l1.741-4.541 4.284 2.299c5.036 2.703 11.552 5.778 19.58 9.227l3.88 1.668-1.613 3.903c-3.58 8.664-9.674 14.868-18.169 18.353-7.958 3.265-16.576 4.873-25.807 4.873-14.766 0-26.544-3.117-34.438-10.199-7.879-7.069-11.569-17.014-11.569-29.171 0-12.225 3.688-22.368 11.444-29.908 7.893-7.67 19.723-11.074 34.563-11.074 21.018 0 36.24 7.323 43.954 22.967l2.15 4.361zm-32.828 27.12c-3.098 1.706-7.27 2.56-12.517 2.56-6.575 0-11.474-1.581-14.698-4.741-3.161-3.225-4.742-7.365-4.742-12.423 0-4.678 1.486-8.598 4.457-11.759 2.971-3.224 7.492-4.836 13.561-4.836 4.109 0 8.123.854 12.043 2.561 3.982 1.707 6.89 4.33 8.724 7.87 5.906-3.026 11.228-5.468 15.965-7.326a104.783 104.783 0 014.043-1.493 36.971 36.971 0 00-2.147-3.787c-7.264-11.193-19.919-16.79-37.965-16.79-14.287 0-24.813 3.287-31.577 9.862-6.765 6.575-10.147 15.52-10.147 26.836 0 11.253 3.382 19.914 10.147 25.983 6.764 6.069 17.29 9.103 31.577 9.103 8.724 0 16.785-1.517 24.181-4.551 6.085-2.497 10.736-6.554 13.954-12.173a32.645 32.645 0 001.488-2.936c.135-.302.266-.607.394-.916l.001-.001-.001-.001c-6.224-2.674-11.587-5.142-16.091-7.405a162.278 162.278 0 01-3.822-1.982 18.616 18.616 0 01-1.961 3.809c-1.298 1.911-2.92 3.423-4.867 4.536z" fill="#33E9E9"/></g><g filter="url(#filter14_f_702_3291)"><path fill-rule="evenodd" clip-rule="evenodd" d="M329.125 160.783l-.976-2.929c-.971-2.911-2.222-6.453-3.756-10.631h-24.227l-4.742 13.56H262.34l1.652-4.283h.801a340.89 340.89 0 01-.06-1.485l-.016-.396 27.479-71.247h40.766l30.069 77.411h-33.906zm-31.999-17.843h30.25c2.023 5.436 3.635 9.957 4.836 13.56h24.56l-26.741-68.845h-34.897L268.583 156.5h23.801l4.742-13.56zm12.855-34.782a2750.948 2750.948 0 00-5.865 15.705c-.512 1.381-1.04 2.808-1.585 4.284h19.44a1269.943 1269.943 0 00-7.397-19.914l-2.276-6.164c-.675 1.756-1.448 3.786-2.317 6.089zm2.289 6.083a3155.585 3155.585 0 00-3.586 9.622h7.165a1249.413 1249.413 0 00-3.579-9.622z" fill="#33E9E9"/></g><g filter="url(#filter15_f_702_3291)"><path fill-rule="evenodd" clip-rule="evenodd" d="M269.257 83.372l-.185 4.46c-.44 10.617-.66 22.032-.66 34.246 0 11.835.207 22.921.62 33.257l-.449 1.165h.496l.178 4.283h-31.032V134.99h-26.33v25.793h-31.032l.184-4.459c.504-12.215.755-23.629.755-34.246 0-10.618-.251-22.032-.755-34.246l-.184-4.46h31.032v25.793h26.33V83.372h31.032zm-26.749 30.076h-34.897V87.655h-22.284c.059 1.439.115 2.867.167 4.283.394 10.663.592 20.709.592 30.14 0 9.43-.198 19.477-.592 30.139a997.781 997.781 0 01-.167 4.283h22.284v-25.793h34.897V156.5h22.284a762.775 762.775 0 01-.164-4.283c-.333-9.452-.499-19.498-.499-30.139 0-10.642.166-20.688.499-30.14.051-1.441.106-2.869.164-4.283h-22.284v25.793z" fill="#33E9E9"/></g><g filter="url(#filter16_f_702_3291)"><path fill-rule="evenodd" clip-rule="evenodd" d="M81.632 151.211l-.008-.008c-7.893-7.308-11.614-17.408-11.614-29.694 0-12.164 3.691-22.19 11.505-29.492l.007-.007.007-.006c7.963-7.374 19.927-10.624 34.962-10.624 15.084 0 27.06 3.244 34.969 10.63 7.879 7.299 11.608 17.326 11.608 29.499 0 12.327-3.677 22.438-11.521 29.695-7.911 7.32-19.919 10.528-35.056 10.528-14.969 0-26.89-3.218-34.85-10.514l-.009-.007zm66.911-56.065c-6.764-6.321-17.448-9.482-32.052-9.482-14.54 0-25.224 3.16-32.051 9.483-6.765 6.321-10.147 15.109-10.147 26.362 0 11.379 3.414 20.229 10.241 26.551 6.828 6.259 17.48 9.388 31.957 9.388 14.667 0 25.383-3.129 32.147-9.388 6.764-6.258 10.147-15.109 10.147-26.551 0-11.253-3.414-20.041-10.242-26.362zm-19.686 35.739c-1.936 1.646-5.721 2.935-12.366 2.935-6.574 0-10.319-1.318-12.252-3.014-1.868-1.639-3.188-4.433-3.188-9.297 0-4.784 1.311-7.556 3.188-9.203 1.933-1.696 5.678-3.014 12.252-3.014 6.65 0 10.42 1.322 12.348 3.014 1.877 1.647 3.188 4.419 3.188 9.203 0 4.928-1.322 7.743-3.17 9.376zm2.807 3.236c-3.098 2.655-8.155 3.982-15.173 3.982-6.954 0-11.979-1.359-15.077-4.077-3.098-2.719-4.647-6.891-4.647-12.517 0-5.564 1.55-9.704 4.647-12.423 3.098-2.718 8.123-4.077 15.077-4.077 7.018 0 12.075 1.359 15.173 4.077 3.098 2.719 4.646 6.859 4.646 12.423 0 5.689-1.548 9.893-4.646 12.612z" fill="#33E9E9"/></g><g filter="url(#filter17_f_702_3291)"><path fill-rule="evenodd" clip-rule="evenodd" d="M446.664 107.475l-2.298.791c-5.563 1.916-12.136 4.809-19.73 8.7l-1.897.973-.981-1.894c-1.585-3.06-4.097-5.357-7.666-6.887l-.012-.005c-3.66-1.594-7.384-2.382-11.188-2.382-5.707 0-9.556 1.51-11.985 4.146l-.007.008-.007.007c-2.567 2.731-3.876 6.112-3.876 10.292 0 4.562 1.404 8.135 4.113 10.907 2.674 2.612 6.927 4.115 13.185 4.115 5.038 0 8.805-.823 11.469-2.286 2.602-1.492 4.575-3.851 5.876-7.244l.87-2.27 2.142 1.15c5.11 2.741 11.687 5.844 19.747 9.307l1.94.834-.806 1.952c-3.371 8.156-9.057 13.929-17.003 17.189-7.677 3.15-16.016 4.712-24.994 4.712-14.527 0-25.679-3.076-33.008-9.651-7.321-6.569-10.858-15.872-10.858-27.577 0-11.77 3.535-21.315 10.796-28.372 7.328-7.123 18.507-10.468 33.07-10.468 20.498 0 34.794 7.09 42.033 21.772l1.075 2.181zm-29.832 28.353c-3.098 1.706-7.27 2.56-12.517 2.56-6.575 0-11.474-1.581-14.698-4.741-3.161-3.225-4.742-7.365-4.742-12.423 0-4.678 1.486-8.598 4.457-11.759 2.971-3.224 7.492-4.836 13.56-4.836 4.11 0 8.124.854 12.044 2.561 3.981 1.706 6.889 4.329 8.722 7.868l.002.002c6.757-3.462 12.75-6.16 17.977-8.093.691-.255 1.368-.497 2.031-.726a38.14 38.14 0 00-1.012-1.915c-7.042-12.442-20.075-18.662-39.1-18.662-14.287 0-24.813 3.287-31.577 9.862-6.765 6.575-10.147 15.52-10.147 26.836 0 11.253 3.382 19.914 10.147 25.983 6.764 6.069 17.29 9.103 31.577 9.103 8.724 0 16.785-1.517 24.181-4.551 6.75-2.77 11.736-7.46 14.959-14.073a36.041 36.041 0 00.877-1.952l.001-.001c-7.132-3.065-13.134-5.859-18.007-8.383a150.81 150.81 0 01-1.907-1.005 20.19 20.19 0 01-.872 1.962c-1.434 2.806-3.42 4.933-5.956 6.383z" fill="#fff"/></g><g filter="url(#filter18_f_702_3291)"><path fill-rule="evenodd" clip-rule="evenodd" d="M330.668 158.642l-.488-1.465c-1.087-3.26-2.518-7.291-4.294-12.096h-27.241l-4.741 13.561h-28.443l28.204-73.129h37.831l28.406 73.129h-29.234zm-33.543-15.702h30.25c2.023 5.436 3.636 9.957 4.837 13.56h24.56l-26.741-68.845h-34.897L268.582 156.5h23.802l4.741-13.56zm15.443-33.955l-.302-.818a2893.392 2893.392 0 00-6.66 17.838h13.308c-2.068-5.67-4.182-11.34-6.342-17.01l-.004-.01zm8.625 17.02l.777 2.142h-19.439l.792-2.142a2562.689 2562.689 0 017.814-20.898 671.02 671.02 0 011.161-3.038l2.276 6.164a1266.647 1266.647 0 016.619 17.772z" fill="#fff"/></g><g filter="url(#filter19_f_702_3291)"><path fill-rule="evenodd" clip-rule="evenodd" d="M267.024 85.513l-.092 2.23c-.441 10.651-.662 22.096-.662 34.335s.221 23.683.662 34.333l.092 2.231h-26.658v-25.793h-30.613v25.793h-26.658l.092-2.23c.504-12.239.756-23.684.756-34.334 0-10.651-.252-22.095-.756-34.335l-.092-2.23h26.658v25.794h30.613V85.513h26.658zm-24.516 27.935h-34.897V87.655h-22.284l.086 2.142c.448 11.461.672 22.221.672 32.281 0 10.059-.224 20.819-.672 32.28l-.086 2.142h22.284v-25.793h34.897V156.5h22.284c-.029-.71-.058-1.424-.085-2.142-.386-10.071-.579-20.832-.579-32.28 0-11.449.193-22.21.579-32.281.027-.718.056-1.431.085-2.142h-22.284v25.793z" fill="#fff"/></g><g filter="url(#filter20_f_702_3291)"><path fill-rule="evenodd" clip-rule="evenodd" d="M83.087 149.639l-.008-.007c-7.36-6.815-10.928-16.291-10.928-28.123 0-11.709 3.537-21.115 10.826-27.927l.007-.007c7.396-6.847 18.719-10.053 33.507-10.053 14.844 0 26.175 3.202 33.511 10.057 7.353 6.81 10.924 16.217 10.924 27.93 0 11.884-3.529 21.365-10.834 28.123-7.337 6.79-18.699 9.958-33.601 9.958-14.723 0-26.01-3.173-33.404-9.951zm65.456-54.493c-6.764-6.321-17.448-9.482-32.052-9.482-14.54 0-25.224 3.16-32.051 9.483-6.765 6.321-10.147 15.109-10.147 26.362 0 11.379 3.414 20.229 10.241 26.551 6.828 6.259 17.48 9.388 31.957 9.388 14.667 0 25.383-3.129 32.147-9.388 6.764-6.258 10.146-15.109 10.146-26.551 0-11.253-3.413-20.041-10.241-26.362zm-18.283 37.357c-2.515 2.15-6.935 3.459-13.769 3.459-6.764 0-11.149-1.339-13.665-3.546-2.482-2.179-3.917-5.662-3.917-10.907 0-5.174 1.43-8.63 3.917-10.813 2.516-2.207 6.901-3.546 13.665-3.546 6.834 0 11.248 1.341 13.76 3.546 2.488 2.183 3.918 5.639 3.918 10.813 0 5.31-1.436 8.819-3.909 10.994zm1.404 1.618c-3.098 2.655-8.155 3.982-15.173 3.982-6.954 0-11.98-1.359-15.077-4.077-3.098-2.719-4.647-6.891-4.647-12.517 0-5.564 1.549-9.704 4.647-12.423 3.097-2.718 8.123-4.077 15.077-4.077 7.018 0 12.075 1.359 15.173 4.077 3.097 2.719 4.646 6.859 4.646 12.423 0 5.689-1.549 9.893-4.646 12.612z" fill="#fff"/></g><defs><filter id="filter0_f_702_3291" x=".675" y=".675" width="516.65" height="228.65" filterUnits="userSpaceOnUse" color-interpolation-filters="sRGB"><feFlood flood-opacity="0" result="BackgroundImageFix"/><feBlend in="SourceGraphic" in2="BackgroundImageFix" result="shape"/><feGaussianBlur stdDeviation="16.063" result="effect1_foregroundBlur_702_3291"/></filter><filter id="filter1_f_702_3291" x="322.747" y="46.578" width="162.783" height="149.955" filterUnits="userSpaceOnUse" color-interpolation-filters="sRGB"><feFlood flood-opacity="0" result="BackgroundImageFix"/><feBlend in="SourceGraphic" in2="BackgroundImageFix" result="shape"/><feGaussianBlur stdDeviation="16.063" result="effect1_foregroundBlur_702_3291"/></filter><filter id="filter2_f_702_3291" x="226.313" y="48.57" width="172.755" height="147.016" filterUnits="userSpaceOnUse" color-interpolation-filters="sRGB"><feFlood flood-opacity="0" result="BackgroundImageFix"/><feBlend in="SourceGraphic" in2="BackgroundImageFix" result="shape"/><feGaussianBlur stdDeviation="16.063" result="effect1_foregroundBlur_702_3291"/></filter><filter id="filter3_f_702_3291" x="145.948" y="48.57" width="158.224" height="147.016" filterUnits="userSpaceOnUse" color-interpolation-filters="sRGB"><feFlood flood-opacity="0" result="BackgroundImageFix"/><feBlend in="SourceGraphic" in2="BackgroundImageFix" result="shape"/><feGaussianBlur stdDeviation="16.063" result="effect1_foregroundBlur_702_3291"/></filter><filter id="filter4_f_702_3291" x="35.208" y="46.578" width="162.662" height="149.955" filterUnits="userSpaceOnUse" color-interpolation-filters="sRGB"><feFlood flood-opacity="0" result="BackgroundImageFix"/><feBlend in="SourceGraphic" in2="BackgroundImageFix" result="shape"/><feGaussianBlur stdDeviation="16.063" result="effect1_foregroundBlur_702_3291"/></filter><filter id="filter5_f_702_3291" x="342.022" y="65.853" width="125.088" height="111.405" filterUnits="userSpaceOnUse" color-interpolation-filters="sRGB"><feFlood flood-opacity="0" result="BackgroundImageFix"/><feBlend in="SourceGraphic" in2="BackgroundImageFix" result="shape"/><feGaussianBlur stdDeviation="5.354" result="effect1_foregroundBlur_702_3291"/></filter><filter id="filter6_f_702_3291" x="244.608" y="65.553" width="136.173" height="110.757" filterUnits="userSpaceOnUse" color-interpolation-filters="sRGB"><feFlood flood-opacity="0" result="BackgroundImageFix"/><feBlend in="SourceGraphic" in2="BackgroundImageFix" result="shape"/><feGaussianBlur stdDeviation="5.354" result="effect1_foregroundBlur_702_3291"/></filter><filter id="filter7_f_702_3291" x="165.133" y="67.845" width="119.854" height="108.466" filterUnits="userSpaceOnUse" color-interpolation-filters="sRGB"><feFlood flood-opacity="0" result="BackgroundImageFix"/><feBlend in="SourceGraphic" in2="BackgroundImageFix" result="shape"/><feGaussianBlur stdDeviation="5.354" result="effect1_foregroundBlur_702_3291"/></filter><filter id="filter8_f_702_3291" x="54.483" y="65.853" width="124.112" height="111.405" filterUnits="userSpaceOnUse" color-interpolation-filters="sRGB"><feFlood flood-opacity="0" result="BackgroundImageFix"/><feBlend in="SourceGraphic" in2="BackgroundImageFix" result="shape"/><feGaussianBlur stdDeviation="5.354" result="effect1_foregroundBlur_702_3291"/></filter><filter id="filter9_ddi_702_3291" x="340.951" y="75.491" width="126.375" height="113.547" filterUnits="userSpaceOnUse" color-interpolation-filters="sRGB"><feFlood flood-opacity="0" result="BackgroundImageFix"/><feColorMatrix in="SourceAlpha" values="0 0 0 0 0 0 0 0 0 0 0 0 0 0 0 0 0 0 127 0" result="hardAlpha"/><feOffset dy="6.96"/><feGaussianBlur stdDeviation="2.677"/><feColorMatrix values="0 0 0 0 0 0 0 0 0 0.3 0 0 0 0 0.275 0 0 0 0.7 0"/><feBlend mode="multiply" in2="BackgroundImageFix" result="effect1_dropShadow_702_3291"/><feColorMatrix in="SourceAlpha" values="0 0 0 0 0 0 0 0 0 0 0 0 0 0 0 0 0 0 127 0" result="hardAlpha"/><feOffset dy="10.708"/><feGaussianBlur stdDeviation="6.96"/><feColorMatrix values="0 0 0 0 0 0 0 0 0 0.6 0 0 0 0 0.6 0 0 0 1 0"/><feBlend mode="color-dodge" in2="effect1_dropShadow_702_3291" result="effect2_dropShadow_702_3291"/><feBlend in="SourceGraphic" in2="effect2_dropShadow_702_3291" result="shape"/><feColorMatrix in="SourceAlpha" values="0 0 0 0 0 0 0 0 0 0 0 0 0 0 0 0 0 0 127 0" result="hardAlpha"/><feOffset dx="-.696" dy="1.392"/><feGaussianBlur stdDeviation=".348"/><feComposite in2="hardAlpha" operator="arithmetic" k2="-1" k3="1"/><feColorMatrix values="0 0 0 0 1 0 0 0 0 1 0 0 0 0 1 0 0 0 0.5 0"/><feBlend in2="shape" result="effect3_innerShadow_702_3291"/></filter><filter id="filter10_ddi_702_3291" x="244.518" y="77.482" width="136.347" height="110.607" filterUnits="userSpaceOnUse" color-interpolation-filters="sRGB"><feFlood flood-opacity="0" result="BackgroundImageFix"/><feColorMatrix in="SourceAlpha" values="0 0 0 0 0 0 0 0 0 0 0 0 0 0 0 0 0 0 127 0" result="hardAlpha"/><feOffset dy="6.96"/><feGaussianBlur stdDeviation="2.677"/><feColorMatrix values="0 0 0 0 0 0 0 0 0 0.3 0 0 0 0 0.275 0 0 0 0.7 0"/><feBlend mode="multiply" in2="BackgroundImageFix" result="effect1_dropShadow_702_3291"/><feColorMatrix in="SourceAlpha" values="0 0 0 0 0 0 0 0 0 0 0 0 0 0 0 0 0 0 127 0" result="hardAlpha"/><feOffset dy="10.708"/><feGaussianBlur stdDeviation="6.96"/><feColorMatrix values="0 0 0 0 0 0 0 0 0 0.6 0 0 0 0 0.6 0 0 0 1 0"/><feBlend mode="color-dodge" in2="effect1_dropShadow_702_3291" result="effect2_dropShadow_702_3291"/><feBlend in="SourceGraphic" in2="effect2_dropShadow_702_3291" result="shape"/><feColorMatrix in="SourceAlpha" values="0 0 0 0 0 0 0 0 0 0 0 0 0 0 0 0 0 0 127 0" result="hardAlpha"/><feOffset dx="-.696" dy="1.392"/><feGaussianBlur stdDeviation=".348"/><feComposite in2="hardAlpha" operator="arithmetic" k2="-1" k3="1"/><feColorMatrix values="0 0 0 0 1 0 0 0 0 1 0 0 0 0 1 0 0 0 0.5 0"/><feBlend in2="shape" result="effect3_innerShadow_702_3291"/></filter><filter id="filter11_ddi_702_3291" x="164.152" y="77.482" width="121.815" height="110.607" filterUnits="userSpaceOnUse" color-interpolation-filters="sRGB"><feFlood flood-opacity="0" result="BackgroundImageFix"/><feColorMatrix in="SourceAlpha" values="0 0 0 0 0 0 0 0 0 0 0 0 0 0 0 0 0 0 127 0" result="hardAlpha"/><feOffset dy="6.96"/><feGaussianBlur stdDeviation="2.677"/><feColorMatrix values="0 0 0 0 0 0 0 0 0 0.3 0 0 0 0 0.275 0 0 0 0.7 0"/><feBlend mode="multiply" in2="BackgroundImageFix" result="effect1_dropShadow_702_3291"/><feColorMatrix in="SourceAlpha" values="0 0 0 0 0 0 0 0 0 0 0 0 0 0 0 0 0 0 127 0" result="hardAlpha"/><feOffset dy="10.708"/><feGaussianBlur stdDeviation="6.96"/><feColorMatrix values="0 0 0 0 0 0 0 0 0 0.6 0 0 0 0 0.6 0 0 0 1 0"/><feBlend mode="color-dodge" in2="effect1_dropShadow_702_3291" result="effect2_dropShadow_702_3291"/><feBlend in="SourceGraphic" in2="effect2_dropShadow_702_3291" result="shape"/><feColorMatrix in="SourceAlpha" values="0 0 0 0 0 0 0 0 0 0 0 0 0 0 0 0 0 0 127 0" result="hardAlpha"/><feOffset dx="-.696" dy="1.392"/><feGaussianBlur stdDeviation=".348"/><feComposite in2="hardAlpha" operator="arithmetic" k2="-1" k3="1"/><feColorMatrix values="0 0 0 0 1 0 0 0 0 1 0 0 0 0 1 0 0 0 0.5 0"/><feBlend in2="shape" result="effect3_innerShadow_702_3291"/></filter><filter id="filter12_ddi_702_3291" x="53.412" y="75.491" width="126.254" height="113.547" filterUnits="userSpaceOnUse" color-interpolation-filters="sRGB"><feFlood flood-opacity="0" result="BackgroundImageFix"/><feColorMatrix in="SourceAlpha" values="0 0 0 0 0 0 0 0 0 0 0 0 0 0 0 0 0 0 127 0" result="hardAlpha"/><feOffset dy="6.96"/><feGaussianBlur stdDeviation="2.677"/><feColorMatrix values="0 0 0 0 0 0 0 0 0 0.3 0 0 0 0 0.275 0 0 0 0.7 0"/><feBlend mode="multiply" in2="BackgroundImageFix" result="effect1_dropShadow_702_3291"/><feColorMatrix in="SourceAlpha" values="0 0 0 0 0 0 0 0 0 0 0 0 0 0 0 0 0 0 127 0" result="hardAlpha"/><feOffset dy="10.708"/><feGaussianBlur stdDeviation="6.96"/><feColorMatrix values="0 0 0 0 0 0 0 0 0 0.6 0 0 0 0 0.6 0 0 0 1 0"/><feBlend mode="color-dodge" in2="effect1_dropShadow_702_3291" result="effect2_dropShadow_702_3291"/><feBlend in="SourceGraphic" in2="effect2_dropShadow_702_3291" result="shape"/><feColorMatrix in="SourceAlpha" values="0 0 0 0 0 0 0 0 0 0 0 0 0 0 0 0 0 0 127 0" result="hardAlpha"/><feOffset dx="-.696" dy="1.392"/><feGaussianBlur stdDeviation=".348"/><feComposite in2="hardAlpha" operator="arithmetic" k2="-1" k3="1"/><feColorMatrix values="0 0 0 0 1 0 0 0 0 1 0 0 0 0 1 0 0 0 0.5 0"/><feBlend in2="shape" result="effect3_innerShadow_702_3291"/></filter><filter id="filter13_f_702_3291" x="356.478" y="80.31" width="94.253" height="82.493" filterUnits="userSpaceOnUse" color-interpolation-filters="sRGB"><feFlood flood-opacity="0" result="BackgroundImageFix"/><feBlend in="SourceGraphic" in2="BackgroundImageFix" result="shape"/><feGaussianBlur stdDeviation=".535" result="effect1_foregroundBlur_702_3291"/></filter><filter id="filter14_f_702_3291" x="261.269" y="82.301" width="102.833" height="79.553" filterUnits="userSpaceOnUse" color-interpolation-filters="sRGB"><feFlood flood-opacity="0" result="BackgroundImageFix"/><feBlend in="SourceGraphic" in2="BackgroundImageFix" result="shape"/><feGaussianBlur stdDeviation=".535" result="effect1_foregroundBlur_702_3291"/></filter><filter id="filter15_f_702_3291" x="179.792" y="82.301" width="90.535" height="79.553" filterUnits="userSpaceOnUse" color-interpolation-filters="sRGB"><feFlood flood-opacity="0" result="BackgroundImageFix"/><feBlend in="SourceGraphic" in2="BackgroundImageFix" result="shape"/><feGaussianBlur stdDeviation=".535" result="effect1_foregroundBlur_702_3291"/></filter><filter id="filter16_f_702_3291" x="68.939" y="80.31" width="95.2" height="82.493" filterUnits="userSpaceOnUse" color-interpolation-filters="sRGB"><feFlood flood-opacity="0" result="BackgroundImageFix"/><feBlend in="SourceGraphic" in2="BackgroundImageFix" result="shape"/><feGaussianBlur stdDeviation=".535" result="effect1_foregroundBlur_702_3291"/></filter><filter id="filter17_f_702_3291" x="358.977" y="82.808" width="88.401" height="77.496" filterUnits="userSpaceOnUse" color-interpolation-filters="sRGB"><feFlood flood-opacity="0" result="BackgroundImageFix"/><feBlend in="SourceGraphic" in2="BackgroundImageFix" result="shape"/><feGaussianBlur stdDeviation=".357" result="effect1_foregroundBlur_702_3291"/></filter><filter id="filter18_f_702_3291" x="264.747" y="84.8" width="95.868" height="74.556" filterUnits="userSpaceOnUse" color-interpolation-filters="sRGB"><feFlood flood-opacity="0" result="BackgroundImageFix"/><feBlend in="SourceGraphic" in2="BackgroundImageFix" result="shape"/><feGaussianBlur stdDeviation=".357" result="effect1_foregroundBlur_702_3291"/></filter><filter id="filter19_f_702_3291" x="182.381" y="84.8" width="85.358" height="74.556" filterUnits="userSpaceOnUse" color-interpolation-filters="sRGB"><feFlood flood-opacity="0" result="BackgroundImageFix"/><feBlend in="SourceGraphic" in2="BackgroundImageFix" result="shape"/><feGaussianBlur stdDeviation=".357" result="effect1_foregroundBlur_702_3291"/></filter><filter id="filter20_f_702_3291" x="71.438" y="82.808" width="90.202" height="77.496" filterUnits="userSpaceOnUse" color-interpolation-filters="sRGB"><feFlood flood-opacity="0" result="BackgroundImageFix"/><feBlend in="SourceGraphic" in2="BackgroundImageFix" result="shape"/><feGaussianBlur stdDeviation=".357" result="effect1_foregroundBlur_702_3291"/></filter></defs></svg>