<svg width="808" height="225" fill="none" xmlns="http://www.w3.org/2000/svg"><g style="mix-blend-mode:hard-light" filter="url(#filter0_f_702_3273)"><ellipse cx="404.325" cy="112.54" rx="358.995" ry="67.524" fill="#FB37FF" fill-opacity=".2"/></g><g style="mix-blend-mode:hard-light" filter="url(#filter1_f_702_3273)"><path fill-rule="evenodd" clip-rule="evenodd" d="M709.23 115.26l-.001.08c-.05 3.025-.076 7.726-.076 14.141 0 7.712.052 13.185.151 16.502l.296 9.913h-37.973l.035-3.991c-6.228 2.952-13.92 3.914-21.88 3.914h-4.209v.077h-38.778l.413-10.023c.41-9.939.614-19.21.614-27.817 0-3.86-.041-7.853-.123-11.98.955.028 1.913.057 2.874.088V89.841h-3.381l-.397-9.626h38.778v13.68h4.209c7.712 0 14.809.954 20.606 3.543.488.214.971.438 1.446.674l-.043-3.964v-.01l-.001-.01-.167-18.11h37.991l-.311 9.927c-.046 1.499-.073 3.963-.073 7.472v21.843zm-27.698-9.211c.011 1.532.02 2.966.027 4.303v.054c.009 1.761.013 3.352.013 4.774 0 2.757-.015 6.125-.043 10.104a3557.52 3557.52 0 01-.113 12.203l-.077 8.783h18.343c-.068-2.287-.114-5.496-.137-9.626-.013-2.14-.019-4.528-.019-7.163 0-6.425.026-11.192.078-14.301V93.416c0-3.523.026-6.114.078-7.772h-18.343l.077 8.394.014 1.232c.045 4.011.079 7.604.102 10.779zm-6.567 7.654a13.937 13.937 0 00-3.036-4.016c-1.464-1.356-3.276-2.504-5.436-3.446-4.042-1.813-9.612-2.72-16.711-2.72h-13.835v-13.68h-19.121c.136 3.278.249 6.487.34 9.627.188 6.49.282 12.686.282 18.588 0 5.901-.094 12.097-.282 18.588-.091 3.14-.204 6.348-.34 9.626h19.121v-.078h13.835c10.312 0 17.488-1.813 21.53-5.441a17.348 17.348 0 002.849-3.328l.009-.014c2.136-3.261 3.205-7.303 3.205-12.125 0-3.873-.58-7.241-1.738-10.104a19.08 19.08 0 00-.672-1.477zm-20.131 16.633c-1.813.311-4.534.467-8.161.467h-10.726v-12.281h10.726c3.524 0 6.192.181 8.006.544 1.865.311 3.186.907 3.964 1.788.777.881 1.166 2.176 1.166 3.886s-.363 2.979-1.089 3.809c-.725.829-2.02 1.424-3.886 1.787z" fill="#FF26C2"/></g><g style="mix-blend-mode:hard-light" filter="url(#filter2_f_702_3273)"><path fill-rule="evenodd" clip-rule="evenodd" d="M617.445 116.014l-7.178-.229a973.546 973.546 0 00-13.774-.343v40.454h-38.684v-40.454c-4.51.08-9.074.194-13.692.343l-9.936.32V93.16l3.329-3.319h-3.329v-9.626H620.2v9.626h-3.373c.232 5.645.4 11.086.502 16.323.065 3.367.104 6.651.116 9.85zm-59.636-10.2c3.235-.056 6.444-.095 9.627-.117v40.573h19.431v-40.573a907.763 907.763 0 0114.08.206c3.172.07 6.38.157 9.626.261V89.841h-66.766v16.323a948.303 948.303 0 0114.002-.35z" fill="#FF26C2"/></g><g style="mix-blend-mode:hard-light" filter="url(#filter3_f_702_3273)"><path fill-rule="evenodd" clip-rule="evenodd" d="M522.063 118.831a36.217 36.217 0 00-8.725-4.895l24.172-24.095h-25.183c-2.644 3.758-6.223 8.054-10.737 12.887a261.08 261.08 0 01-7.295 7.477c-1.036 0-1.814-.026-2.332-.077V89.841H472.61c.135 3.278.248 6.487.339 9.627.188 6.49.282 12.686.282 18.588 0 5.901-.094 12.097-.282 18.588-.091 3.14-.204 6.348-.339 9.626h19.353v-19.198c3.946 0 7.155.213 9.627.64.384.066.751.138 1.099.215 2.643.518 4.845 1.71 6.607 3.575 1.088 1.192 1.917 2.591 2.487 4.197.622 1.607 1.192 3.602 1.71 5.985.518 2.176.933 3.705 1.244 4.586h22.851c-.777-1.451-1.813-3.964-3.109-7.539a106.22 106.22 0 00-.76-2.087c-1.317-3.501-2.67-6.51-4.059-9.028-1.606-3.057-3.938-5.83-6.995-8.317-.199-.158-.4-.314-.602-.468zm21.48 16.656c-1.656-4.687-3.446-8.868-5.409-12.44-2.251-4.251-5.393-7.924-9.205-11.06l14.878-14.83V89.84h7.339l9.657-9.626h-53.472l-2.876 4.086a77.594 77.594 0 01-2.865 3.796v-7.882h-39.012l.413 10.023c.41 9.939.614 19.21.614 27.818 0 4.857-.065 9.926-.195 15.207l5.052 13.007h-5.487l-.397 9.626h39.012V137.6c.276.124.473.275.647.449.159.187.325.449.474.869l.046.129.049.127c.385.995.829 2.476 1.281 4.555l.02.093.022.092c.518 2.179 1.033 4.15 1.53 5.56l2.267 6.422h45.74l-7.592-14.172c-.418-.78-1.251-2.705-2.531-6.237z" fill="#FF26C2"/></g><g style="mix-blend-mode:hard-light" filter="url(#filter4_f_702_3273)"><path fill-rule="evenodd" clip-rule="evenodd" d="M441.393 155.896l-2.194-6.582a238.202 238.202 0 00-1.567-4.533h-11.227l-3.886 11.115h-40.372l29.189-75.681h18.606l2.251-5.853 2.161 5.853h18.778l19.946 51.353a750.171 750.171 0 01-.468 14.702h6.179l3.739 9.626h-41.135zm-23.452-66.055l-21.763 56.429h19.509l3.886-11.115h24.794c1.659 4.456 2.98 8.161 3.964 11.115h20.131l-21.918-56.429h-28.603zm18.458 23.563c-.833-2.232-1.674-4.464-2.525-6.696l-1.865-5.053a978.015 978.015 0 00-2.535 6.677l-.022.061c-.58 1.54-1.205 3.21-1.876 5.011l-.726 1.947c-.877 2.358-1.826 4.917-2.847 7.679h15.934a1032.267 1032.267 0 00-3.538-9.626z" fill="#FF26C2"/></g><g style="mix-blend-mode:hard-light" filter="url(#filter5_f_702_3273)"><path fill-rule="evenodd" clip-rule="evenodd" d="M402.66 116.101l-9.933-.316a973.546 973.546 0 00-13.774-.343v40.454h-38.684v-40.454c-4.51.08-9.074.194-13.692.343l-7.067.228c.008-3.357.037-6.64.086-9.849.088-5.671.239-11.111.455-16.323h-3.41v-9.626h86.019V116.1zm-62.391-10.287c3.235-.056 6.444-.095 9.627-.117v40.573h19.431v-40.573a907.763 907.763 0 0114.08.206c3.172.07 6.38.157 9.626.261V89.841h-66.766v16.323a948.303 948.303 0 0114.002-.35z" fill="#FF26C2"/></g><g style="mix-blend-mode:hard-light" filter="url(#filter6_f_702_3273)"><path fill-rule="evenodd" clip-rule="evenodd" d="M329.225 106.073c-.984.028-1.97.059-2.958.091V89.841h3.419l.399-9.626h-37.926v21.141h-9.35V80.215h-37.923l.413 10.023c.184 4.463.327 8.791.428 12.985 1.997 4.068 2.995 8.856 2.995 14.366l-.002.467c-.054 5.415-1.046 10.111-2.976 14.088-.102 4.425-.25 9.002-.445 13.729l-.413 10.023h37.923v-21.141h9.35v21.141h37.926l-.416-10.024c-.356-8.607-.536-17.878-.536-27.816 0-4.109.031-8.103.092-11.983zm-27.439 19.056v21.141h18.265a601.014 601.014 0 01-.319-9.626 735.94 735.94 0 01-.225-18.588c0-6.464.075-12.66.225-18.588.083-3.292.19-6.5.319-9.627h-18.265v21.142h-28.603V89.841h-18.266c.135 3.278.248 6.487.34 9.627.188 6.49.282 12.686.282 18.588 0 5.901-.094 12.097-.282 18.588-.092 3.14-.205 6.348-.34 9.626h18.266v-21.141h28.603z" fill="#FF26C2"/></g><g style="mix-blend-mode:hard-light" filter="url(#filter7_f_702_3273)"><path fill-rule="evenodd" clip-rule="evenodd" d="M181.34 146.432l-.018-.016c-7.991-7.399-11.48-17.462-11.48-28.827 0-11.27 3.467-21.255 11.37-28.64l.016-.016.017-.015c8.147-7.544 19.779-10.335 32.811-10.335 13.051 0 24.712 2.777 32.827 10.35a34.13 34.13 0 018.417 12.112c.154 5.749.234 11.264.238 16.544v.467c0 5.186-.072 10.6-.218 16.24-1.857 4.546-4.61 8.637-8.377 12.122-8.122 7.515-19.809 10.256-32.887 10.256-12.973 0-24.557-2.763-32.698-10.226l-.018-.016zm58.987-50.45c-5.544-5.182-14.301-7.773-26.271-7.773-11.918 0-20.675 2.59-26.271 7.772-5.545 5.182-8.317 12.385-8.317 21.608 0 9.327 2.798 16.582 8.394 21.763 5.597 5.13 14.328 7.695 26.194 7.695 12.022 0 20.805-2.565 26.349-7.695 5.544-5.13 8.317-12.384 8.317-21.763 0-9.223-2.799-16.426-8.395-21.608zm-20.15 24.663a1.73 1.73 0 00.139-.302c.152-.413.358-1.265.358-2.754 0-1.413-.2-2.213-.342-2.593a1.493 1.493 0 00-.143-.3.263.263 0 00-.032-.04l-.002-.003c-.054-.036-.373-.241-1.175-.456-1.035-.278-2.626-.506-4.924-.506-2.266 0-3.832.226-4.851.502-.805.218-1.119.424-1.168.458a.29.29 0 00-.036.045c-.02.03-.076.119-.144.3-.142.38-.342 1.18-.342 2.593 0 1.452.204 2.277.351 2.674.07.189.127.28.147.31a.186.186 0 00.025.032c.051.036.366.242 1.167.458 1.019.276 2.585.502 4.851.502 2.313 0 3.922-.224 4.979-.501.664-.174 1.006-.342 1.142-.419zm6.315 7.282c-2.539 2.176-6.684 3.264-12.436 3.264-5.7 0-9.819-1.114-12.358-3.342-2.539-2.228-3.809-5.648-3.809-10.26 0-4.56 1.27-7.954 3.809-10.182 2.539-2.228 6.658-3.342 12.358-3.342 5.752 0 9.897 1.114 12.436 3.342 2.539 2.228 3.809 5.622 3.809 10.182 0 4.664-1.27 8.11-3.809 10.338z" fill="#FF26C2"/></g><g style="mix-blend-mode:hard-light" filter="url(#filter8_f_702_3273)"><path fill-rule="evenodd" clip-rule="evenodd" d="M164.59 111.987l31.875-31.772h-53.473l-2.876 4.086a77.594 77.594 0 01-2.865 3.796v-7.882H98.239l.414 10.023c.41 9.939.613 19.21.613 27.818 0 8.607-.204 17.878-.613 27.817l-.414 10.023h39.012V137.6c.276.124.473.275.647.449.159.187.325.449.474.869l.046.129.049.127c.385.995.829 2.476 1.281 4.555l.02.093.022.092c.519 2.179 1.033 4.15 1.53 5.56l2.267 6.422h45.74l-7.592-14.172c-.418-.78-1.251-2.705-2.531-6.237-1.656-4.686-3.446-8.867-5.409-12.439-2.25-4.252-5.393-7.924-9.205-11.061zm-6.866 6.844a36.217 36.217 0 00-8.725-4.895l24.173-24.095h-25.184c-2.644 3.758-6.223 8.054-10.737 12.887a259.715 259.715 0 01-7.295 7.477c-1.036 0-1.813-.026-2.332-.077V89.841h-19.353c.135 3.278.248 6.487.339 9.627.188 6.49.283 12.686.283 18.588 0 5.901-.095 12.097-.283 18.588-.091 3.14-.204 6.348-.339 9.626h19.353v-19.198c3.946 0 7.155.213 9.627.64.384.066.751.138 1.1.215 2.642.518 4.844 1.71 6.606 3.575 1.088 1.192 1.917 2.591 2.487 4.197.622 1.607 1.192 3.602 1.71 5.985.519 2.176.933 3.705 1.244 4.586h22.851c-.777-1.451-1.813-3.964-3.109-7.539a106.22 106.22 0 00-.76-2.087c-1.316-3.501-2.669-6.51-4.059-9.028-1.606-3.057-3.938-5.83-6.995-8.317-.199-.158-.4-.314-.602-.468z" fill="#FF26C2"/></g><g style="mix-blend-mode:hard-light" filter="url(#filter9_f_702_3273)"><path fill-rule="evenodd" clip-rule="evenodd" d="M712.193 115.285l-.002.104c-.05 2.999-.076 7.68-.076 14.092 0 7.709.053 13.144.15 16.413l.387 12.964h-44.013l.023-2.592c-5.872 1.905-12.43 2.514-18.879 2.514h-1.247v.078h-44.827l.54-13.107c.409-9.904.612-19.134.612-27.695 0-3.883-.042-7.903-.126-12.062 1.933.051 3.879.107 5.839.17V89.841h-6.346l-.519-12.588h44.827v13.68h1.247c6.783 0 13.319.714 19.041 2.704l-.19-20.581h44.036l-.405 12.981c-.046 1.45-.072 3.876-.072 7.38v21.868zm-45.699-9.044c-4.042-1.813-9.612-2.72-16.711-2.72h-13.836v-13.68h-19.12c.178 4.316.318 8.512.419 12.588.135 5.42.203 10.629.203 15.627 0 4.997-.068 10.206-.203 15.626a766.495 766.495 0 01-.419 12.588h19.12v-.078h13.836c8.427 0 14.761-1.211 19-3.634a14.683 14.683 0 002.53-1.807c1.099-1 2.048-2.11 2.848-3.328l.009-.014c2.137-3.261 3.205-7.303 3.205-12.125 0-3.873-.579-7.241-1.738-10.104a18.704 18.704 0 00-.671-1.477c-1.258-2.515-3.262-4.586-6.012-6.211a22.532 22.532 0 00-2.46-1.251zm15.065 4.111l.001.054c.008 1.761.012 3.352.012 4.774 0 2.757-.014 6.125-.043 10.104a4161.618 4161.618 0 01-.112 12.203l-.078 8.783h18.343c-.083-2.807-.133-7.003-.149-12.588-.004-1.323-.006-2.723-.006-4.201 0-6.425.026-11.192.078-14.301V93.416c0-3.523.026-6.114.077-7.772h-18.343l.078 8.394c.016 1.45.032 2.849.045 4.194l.032 3.202c.031 3.342.053 6.314.065 8.918zm-28.974 8.412a38.39 38.39 0 00-1.48-.12 61.522 61.522 0 00-2.569-.104 92.046 92.046 0 00-1.862-.018h-10.727v12.281h10.727c.649 0 1.27-.005 1.862-.015a78.59 78.59 0 002.429-.077 48.943 48.943 0 001.793-.119 25.68 25.68 0 002.077-.256c1.865-.363 3.161-.958 3.886-1.787.726-.83 1.088-2.099 1.088-3.809s-.388-3.005-1.166-3.886c-.777-.881-2.098-1.477-3.964-1.788a21.025 21.025 0 00-2.094-.302z" fill="#FF26C2"/></g><g style="mix-blend-mode:hard-light" filter="url(#filter10_f_702_3273)"><path fill-rule="evenodd" clip-rule="evenodd" d="M617.449 118.977l-7.275-.232a997.864 997.864 0 00-10.718-.283v40.396h-44.608v-40.396a937.01 937.01 0 00-10.634.283l-12.994.419V96.112l6.291-6.27h-6.291v-12.59h91.942v12.59h-6.334c.232 5.644.4 11.085.502 16.322.08 4.088.119 8.052.119 11.892v.921zm-61.053-13.137c3.715-.071 7.395-.118 11.041-.143v40.573h19.431v-40.573c3.653.025 7.359.073 11.118.145l1.47.029c3.656.075 7.363.173 11.118.293V89.841h-66.766v16.323c3.713-.12 7.393-.218 11.04-.293l1.548-.031z" fill="#FF26C2"/></g><g style="mix-blend-mode:hard-light" filter="url(#filter11_f_702_3273)"><path fill-rule="evenodd" clip-rule="evenodd" d="M524.333 120.751a32.686 32.686 0 00-1.668-1.452 36.133 36.133 0 00-9.327-5.363l24.173-24.095h-25.183c-2.037 2.895-4.629 6.11-7.776 9.642-2.916 3.274-6.309 6.822-10.178 10.645a5.627 5.627 0 00-.078.077c-1.037 0-1.814-.026-2.332-.077V89.841H472.61c.178 4.316.318 8.512.419 12.588.135 5.42.203 10.629.203 15.627 0 4.997-.068 10.206-.203 15.626a766.495 766.495 0 01-.419 12.588h19.354v-19.198c4.56 0 8.135.285 10.726.855a13.49 13.49 0 011.862.502 11.772 11.772 0 014.745 3.073c1.088 1.192 1.917 2.591 2.487 4.197.622 1.607 1.192 3.602 1.71 5.985.518 2.176.933 3.705 1.243 4.586h22.852c-.777-1.451-1.814-3.964-3.109-7.539a96.927 96.927 0 00-1.932-5.049c-.944-2.267-1.907-4.289-2.887-6.066-1.301-2.475-3.077-4.764-5.328-6.865zm16.409.891c-1.948-3.674-4.492-6.925-7.49-9.782l10.556-10.522V89.841h11.534l12.629-12.588h-62.177l-1.242 1.764v-1.764h-45.06l.541 13.107c.408 9.904.611 19.135.611 27.696a581.6 581.6 0 01-.056 7.941l7.875 20.273h-8.452l-.519 12.588h45.06v-3.624l1.279 3.624h52.782l-9.928-18.532c-.308-.575-1.078-2.32-2.353-5.836-1.688-4.776-3.534-9.103-5.59-12.848z" fill="#FF26C2"/></g><g style="mix-blend-mode:hard-light" filter="url(#filter12_f_702_3273)"><path fill-rule="evenodd" clip-rule="evenodd" d="M439.259 158.858l-2.869-8.607c-.258-.774-.543-1.609-.855-2.508h-7.027l-3.887 11.115h-46.79l31.473-81.605h18.604l4.342-11.29 4.168 11.29h18.741l18.045 46.456a707.29 707.29 0 01-.594 22.561h9.357l4.89 12.588h-47.598zm-21.318-69.017l-21.763 56.429h19.509l3.886-11.115h24.795l.172.463c1.578 4.251 2.842 7.801 3.792 10.652h20.131l-21.919-56.429h-28.603zm14.069 11.814l-.298.774c-.647 1.69-1.393 3.657-2.237 5.903l-.023.06-.769 2.05a2837.499 2837.499 0 00-3.41 9.157l-1.098 2.968-.171.463h15.934l-.168-.463a1031.824 1031.824 0 00-5.895-15.859l-1.865-5.053z" fill="#FF26C2"/></g><g style="mix-blend-mode:hard-light" filter="url(#filter13_f_702_3273)"><path fill-rule="evenodd" clip-rule="evenodd" d="M405.621 119.159l-12.988-.414a997.864 997.864 0 00-10.718-.283v40.396h-44.608v-40.396a937.01 937.01 0 00-10.634.283l-7.165.231-.001-.92c0-4.071.03-8.035.089-11.892.088-5.671.24-11.111.455-16.323h-6.372V77.253h91.942v41.906zm-66.766-13.319c3.715-.071 7.395-.118 11.041-.143v40.573h19.431v-40.573c3.653.025 7.359.073 11.118.145l1.47.029c3.656.075 7.362.173 11.118.293V89.841h-66.766v16.323c3.713-.12 7.393-.218 11.04-.293l1.548-.031z" fill="#FF26C2"/></g><g style="mix-blend-mode:hard-light" filter="url(#filter14_f_702_3273)"><path fill-rule="evenodd" clip-rule="evenodd" d="M332.19 105.991c-1.965.051-3.939.109-5.923.173V89.841h6.384l.521-12.588h-43.974v21.141h-3.426V77.253H241.8l.54 13.107c.113 2.737.21 5.423.292 8.058 4.061 4.924 6.091 11.314 6.091 19.171l-.002.467c-.078 7.796-2.1 14.102-6.067 18.918-.086 2.865-.191 5.79-.314 8.777l-.54 13.107h43.972v-21.141h3.426v21.141h43.974l-.543-13.109c-.354-8.561-.533-17.79-.533-27.693 0-4.14.031-8.161.094-12.065zm-30.404 19.138v21.141h18.266a611.015 611.015 0 01-.387-12.588 748.33 748.33 0 01-.157-15.626c0-5.396.052-10.604.157-15.627.09-4.335.219-8.53.387-12.588h-18.266v21.142h-28.603V89.841h-18.265c.178 4.316.318 8.512.419 12.588.135 5.42.203 10.629.203 15.627 0 4.997-.068 10.206-.203 15.626a766.495 766.495 0 01-.419 12.588h18.265v-21.141h28.603z" fill="#FF26C2"/></g><g style="mix-blend-mode:hard-light" filter="url(#filter15_f_702_3273)"><path fill-rule="evenodd" clip-rule="evenodd" d="M179.334 148.611l-.023-.022c-8.728-8.081-12.43-19.008-12.43-31 0-11.9 3.681-22.741 12.309-30.805l.022-.02.021-.02c8.933-8.27 21.449-11.123 34.824-11.123 13.385 0 25.94 2.835 34.846 11.144a37.155 37.155 0 016.183 7.428c.296 8.252.447 16.051.453 23.396v.467c0 7.263-.142 14.972-.427 23.127a36.54 36.54 0 01-6.157 7.409c-8.915 8.249-21.495 11.043-34.898 11.043-13.314 0-25.775-2.823-34.7-11.003l-.023-.021zm60.994-52.63c-5.544-5.181-14.301-7.772-26.271-7.772-11.918 0-20.675 2.59-26.271 7.772-5.545 5.182-8.317 12.385-8.317 21.608 0 9.327 2.798 16.582 8.394 21.763 5.597 5.13 14.328 7.695 26.194 7.695 12.022 0 20.805-2.565 26.349-7.695 5.544-5.13 8.317-12.384 8.317-21.763 0-9.223-2.799-16.426-8.395-21.608zm-21.562 22.062l-.007.003.007-.003zm-1.076.287c-.794.148-1.974.273-3.633.273-1.646 0-2.798-.131-3.554-.279a10.095 10.095 0 01-.004-1.391c.756-.149 1.909-.28 3.558-.28 1.685 0 2.864.134 3.637.285a11.21 11.21 0 01-.004 1.392zm.972-1.124l-.007-.003a.106.106 0 01.007.003zm-9.119-.009l.007-.003-.007.003zm0 .862l.006.003-.006-.003zm16.95 9.868c-2.539 2.176-6.684 3.264-12.436 3.264-5.7 0-9.819-1.114-12.358-3.342-2.539-2.228-3.809-5.648-3.809-10.26 0-4.56 1.27-7.954 3.809-10.182 2.539-2.228 6.658-3.342 12.358-3.342 5.752 0 9.897 1.114 12.436 3.342 2.539 2.228 3.809 5.622 3.809 10.182 0 4.664-1.27 8.11-3.809 10.338z" fill="#FF26C2"/></g><g style="mix-blend-mode:hard-light" filter="url(#filter16_f_702_3273)"><path fill-rule="evenodd" clip-rule="evenodd" d="M168.914 111.86l34.718-34.607h-62.177l-1.242 1.764v-1.764h-45.06l.54 13.107c.41 9.904.612 19.135.612 27.696s-.203 17.791-.611 27.695l-.54 13.107h45.059v-3.624l1.279 3.624h52.782l-9.928-18.532c-.308-.575-1.077-2.32-2.353-5.836-1.687-4.776-3.534-9.103-5.59-12.848-1.948-3.674-4.492-6.925-7.489-9.782zm-8.92 8.891a32.659 32.659 0 00-1.667-1.452c-2.798-2.228-5.908-4.016-9.327-5.363l24.172-24.095h-25.183c-2.037 2.895-4.629 6.11-7.776 9.642-2.916 3.274-6.308 6.822-10.177 10.645l-.079.077c-1.037 0-1.814-.026-2.332-.077V89.841h-19.354c.178 4.316.318 8.512.42 12.588.135 5.42.202 10.629.202 15.627 0 4.997-.067 10.206-.202 15.626a777.989 777.989 0 01-.42 12.588h19.354v-19.198c4.56 0 8.135.285 10.726.855a13.49 13.49 0 011.862.502 11.772 11.772 0 014.745 3.073c1.088 1.192 1.917 2.591 2.487 4.197.622 1.607 1.192 3.602 1.71 5.985.518 2.176.933 3.705 1.244 4.586h22.851c-.777-1.451-1.814-3.964-3.109-7.539a96.927 96.927 0 00-1.932-5.049c-.944-2.267-1.906-4.289-2.887-6.066-1.301-2.475-3.077-4.764-5.328-6.865z" fill="#FF26C2"/></g><g style="mix-blend-mode:hard-light" filter="url(#filter17_ddi_702_3273)"><path fill-rule="evenodd" clip-rule="evenodd" d="M709.23 115.26l-.001.08c-.05 3.025-.076 7.726-.076 14.141 0 7.712.052 13.185.151 16.502l.296 9.913h-37.973l.035-3.991c-6.228 2.952-13.92 3.914-21.88 3.914h-4.209v.077h-38.778l.413-10.023c.41-9.939.614-19.21.614-27.817 0-3.86-.041-7.853-.123-11.98.955.028 1.913.057 2.874.088V89.841h-3.381l-.397-9.626h38.778v13.68h4.209c7.712 0 14.809.954 20.606 3.543.488.214.971.438 1.446.674l-.043-3.964v-.01l-.001-.01-.167-18.11h37.991l-.311 9.927c-.046 1.499-.073 3.963-.073 7.472v21.843zm-27.698-9.211c.011 1.532.02 2.966.027 4.303v.054c.009 1.761.013 3.352.013 4.774 0 2.757-.015 6.125-.043 10.104a3557.52 3557.52 0 01-.113 12.203l-.077 8.783h18.343c-.068-2.287-.114-5.496-.137-9.626-.013-2.14-.019-4.528-.019-7.163 0-6.425.026-11.192.078-14.301V93.416c0-3.523.026-6.114.078-7.772h-18.343l.077 8.394.014 1.232c.045 4.011.079 7.604.102 10.779zm-6.567 7.654a13.937 13.937 0 00-3.036-4.016c-1.464-1.356-3.276-2.504-5.436-3.446-4.042-1.813-9.612-2.72-16.711-2.72h-13.835v-13.68h-19.121c.136 3.278.249 6.487.34 9.627.188 6.49.282 12.686.282 18.588 0 5.901-.094 12.097-.282 18.588-.091 3.14-.204 6.348-.34 9.626h19.121v-.078h13.835c10.312 0 17.488-1.813 21.53-5.441a17.348 17.348 0 002.849-3.328l.009-.014c2.136-3.261 3.205-7.303 3.205-12.125 0-3.873-.58-7.241-1.738-10.104a19.08 19.08 0 00-.672-1.477zm-20.131 16.633c-1.813.311-4.534.467-8.161.467h-10.726v-12.281h10.726c3.524 0 6.192.181 8.006.544 1.865.311 3.186.907 3.964 1.788.777.881 1.166 2.176 1.166 3.886s-.363 2.979-1.089 3.809c-.725.829-2.02 1.424-3.886 1.787z" fill="#FF26C2"/></g><g style="mix-blend-mode:hard-light" filter="url(#filter18_ddi_702_3273)"><path fill-rule="evenodd" clip-rule="evenodd" d="M617.445 116.014l-7.178-.229a973.546 973.546 0 00-13.774-.343v40.454h-38.684v-40.454c-4.51.08-9.074.194-13.692.343l-9.936.32V93.16l3.329-3.319h-3.329v-9.626H620.2v9.626h-3.373c.232 5.645.4 11.086.502 16.323.065 3.367.104 6.651.116 9.85zm-59.636-10.2c3.235-.056 6.444-.095 9.627-.117v40.573h19.431v-40.573a907.763 907.763 0 0114.08.206c3.172.07 6.38.157 9.626.261V89.841h-66.766v16.323a948.303 948.303 0 0114.002-.35z" fill="#FF26C2"/></g><g style="mix-blend-mode:hard-light" filter="url(#filter19_ddi_702_3273)"><path fill-rule="evenodd" clip-rule="evenodd" d="M522.063 118.831a36.217 36.217 0 00-8.725-4.895l24.172-24.095h-25.183c-2.644 3.758-6.223 8.054-10.737 12.887a261.08 261.08 0 01-7.295 7.477c-1.036 0-1.814-.026-2.332-.077V89.841H472.61c.135 3.278.248 6.487.339 9.627.188 6.49.282 12.686.282 18.588 0 5.901-.094 12.097-.282 18.588-.091 3.14-.204 6.348-.339 9.626h19.353v-19.198c3.946 0 7.155.213 9.627.64.384.066.751.138 1.099.215 2.643.518 4.845 1.71 6.607 3.575 1.088 1.192 1.917 2.591 2.487 4.197.622 1.607 1.192 3.602 1.71 5.985.518 2.176.933 3.705 1.244 4.586h22.851c-.777-1.451-1.813-3.964-3.109-7.539a106.22 106.22 0 00-.76-2.087c-1.317-3.501-2.67-6.51-4.059-9.028-1.606-3.057-3.938-5.83-6.995-8.317-.199-.158-.4-.314-.602-.468zm21.48 16.656c-1.656-4.687-3.446-8.868-5.409-12.44-2.251-4.251-5.393-7.924-9.205-11.06l14.878-14.83V89.84h7.339l9.657-9.626h-53.472l-2.876 4.086a77.594 77.594 0 01-2.865 3.796v-7.882h-39.012l.413 10.023c.41 9.939.614 19.21.614 27.818 0 4.857-.065 9.926-.195 15.207l5.052 13.007h-5.487l-.397 9.626h39.012V137.6c.276.124.473.275.647.449.159.187.325.449.474.869l.046.129.049.127c.385.995.829 2.476 1.281 4.555l.02.093.022.092c.518 2.179 1.033 4.15 1.53 5.56l2.267 6.422h45.74l-7.592-14.172c-.418-.78-1.251-2.705-2.531-6.237z" fill="#FF26C2"/></g><g style="mix-blend-mode:hard-light" filter="url(#filter20_ddi_702_3273)"><path fill-rule="evenodd" clip-rule="evenodd" d="M441.393 155.896l-2.194-6.582a238.202 238.202 0 00-1.567-4.533h-11.227l-3.886 11.115h-40.372l29.189-75.681h18.606l2.251-5.853 2.161 5.853h18.778l19.946 51.353a750.171 750.171 0 01-.468 14.702h6.179l3.739 9.626h-41.135zm-23.452-66.055l-21.763 56.429h19.509l3.886-11.115h24.794c1.659 4.456 2.98 8.161 3.964 11.115h20.131l-21.918-56.429h-28.603zm18.458 23.563c-.833-2.232-1.674-4.464-2.525-6.696l-1.865-5.053a978.015 978.015 0 00-2.535 6.677l-.022.061c-.58 1.54-1.205 3.21-1.876 5.011l-.726 1.947c-.877 2.358-1.826 4.917-2.847 7.679h15.934a1032.267 1032.267 0 00-3.538-9.626z" fill="#FF26C2"/></g><g style="mix-blend-mode:hard-light" filter="url(#filter21_ddi_702_3273)"><path fill-rule="evenodd" clip-rule="evenodd" d="M402.66 116.101l-9.933-.316a973.546 973.546 0 00-13.774-.343v40.454h-38.684v-40.454c-4.51.08-9.074.194-13.692.343l-7.067.228c.008-3.357.037-6.64.086-9.849.088-5.671.239-11.111.455-16.323h-3.41v-9.626h86.019V116.1zm-62.391-10.287c3.235-.056 6.444-.095 9.627-.117v40.573h19.431v-40.573a907.763 907.763 0 0114.08.206c3.172.07 6.38.157 9.626.261V89.841h-66.766v16.323a948.303 948.303 0 0114.002-.35z" fill="#FF26C2"/></g><g style="mix-blend-mode:hard-light" filter="url(#filter22_ddi_702_3273)"><path fill-rule="evenodd" clip-rule="evenodd" d="M329.225 106.073c-.984.028-1.97.059-2.958.091V89.841h3.419l.399-9.626h-37.926v21.141h-9.35V80.215h-37.923l.413 10.023c.184 4.463.327 8.791.428 12.985 1.997 4.068 2.995 8.856 2.995 14.366l-.002.467c-.054 5.415-1.046 10.111-2.976 14.088-.102 4.425-.25 9.002-.445 13.729l-.413 10.023h37.923v-21.141h9.35v21.141h37.926l-.416-10.024c-.356-8.607-.536-17.878-.536-27.816 0-4.109.031-8.103.092-11.983zm-27.439 19.056v21.141h18.265a601.014 601.014 0 01-.319-9.626 735.94 735.94 0 01-.225-18.588c0-6.464.075-12.66.225-18.588.083-3.292.19-6.5.319-9.627h-18.265v21.142h-28.603V89.841h-18.266c.135 3.278.248 6.487.34 9.627.188 6.49.282 12.686.282 18.588 0 5.901-.094 12.097-.282 18.588-.092 3.14-.205 6.348-.34 9.626h18.266v-21.141h28.603z" fill="#FF26C2"/></g><g style="mix-blend-mode:hard-light" filter="url(#filter23_ddi_702_3273)"><path fill-rule="evenodd" clip-rule="evenodd" d="M181.34 146.432l-.018-.016c-7.991-7.399-11.48-17.462-11.48-28.827 0-11.27 3.467-21.255 11.37-28.64l.016-.016.017-.015c8.147-7.544 19.779-10.335 32.811-10.335 13.051 0 24.712 2.777 32.827 10.35a34.13 34.13 0 018.417 12.112c.154 5.749.234 11.264.238 16.544v.467c0 5.186-.072 10.6-.218 16.24-1.857 4.546-4.61 8.637-8.377 12.122-8.122 7.515-19.809 10.256-32.887 10.256-12.973 0-24.557-2.763-32.698-10.226l-.018-.016zm58.987-50.45c-5.544-5.182-14.301-7.773-26.271-7.773-11.918 0-20.675 2.59-26.271 7.772-5.545 5.182-8.317 12.385-8.317 21.608 0 9.327 2.798 16.582 8.394 21.763 5.597 5.13 14.328 7.695 26.194 7.695 12.022 0 20.805-2.565 26.349-7.695 5.544-5.13 8.317-12.384 8.317-21.763 0-9.223-2.799-16.426-8.395-21.608zm-20.15 24.663a1.73 1.73 0 00.139-.302c.152-.413.358-1.265.358-2.754 0-1.413-.2-2.213-.342-2.593a1.493 1.493 0 00-.143-.3.263.263 0 00-.032-.04l-.002-.003c-.054-.036-.373-.241-1.175-.456-1.035-.278-2.626-.506-4.924-.506-2.266 0-3.832.226-4.851.502-.805.218-1.119.424-1.168.458a.29.29 0 00-.036.045c-.02.03-.076.119-.144.3-.142.38-.342 1.18-.342 2.593 0 1.452.204 2.277.351 2.674.07.189.127.28.147.31a.186.186 0 00.025.032c.051.036.366.242 1.167.458 1.019.276 2.585.502 4.851.502 2.313 0 3.922-.224 4.979-.501.664-.174 1.006-.342 1.142-.419zm6.315 7.282c-2.539 2.176-6.684 3.264-12.436 3.264-5.7 0-9.819-1.114-12.358-3.342-2.539-2.228-3.809-5.648-3.809-10.26 0-4.56 1.27-7.954 3.809-10.182 2.539-2.228 6.658-3.342 12.358-3.342 5.752 0 9.897 1.114 12.436 3.342 2.539 2.228 3.809 5.622 3.809 10.182 0 4.664-1.27 8.11-3.809 10.338z" fill="#FF26C2"/></g><g style="mix-blend-mode:hard-light" filter="url(#filter24_ddi_702_3273)"><path fill-rule="evenodd" clip-rule="evenodd" d="M164.59 111.987l31.875-31.772h-53.473l-2.876 4.086a77.594 77.594 0 01-2.865 3.796v-7.882H98.239l.414 10.023c.41 9.939.613 19.21.613 27.818 0 8.607-.204 17.878-.613 27.817l-.414 10.023h39.012V137.6c.276.124.473.275.647.449.159.187.325.449.474.869l.046.129.049.127c.385.995.829 2.476 1.281 4.555l.02.093.022.092c.519 2.179 1.033 4.15 1.53 5.56l2.267 6.422h45.74l-7.592-14.172c-.418-.78-1.251-2.705-2.531-6.237-1.656-4.686-3.446-8.867-5.409-12.439-2.25-4.252-5.393-7.924-9.205-11.061zm-6.866 6.844a36.217 36.217 0 00-8.725-4.895l24.173-24.095h-25.184c-2.644 3.758-6.223 8.054-10.737 12.887a259.715 259.715 0 01-7.295 7.477c-1.036 0-1.813-.026-2.332-.077V89.841h-19.353c.135 3.278.248 6.487.339 9.627.188 6.49.283 12.686.283 18.588 0 5.901-.095 12.097-.283 18.588-.091 3.14-.204 6.348-.339 9.626h19.353v-19.198c3.946 0 7.155.213 9.627.64.384.066.751.138 1.1.215 2.642.518 4.844 1.71 6.606 3.575 1.088 1.192 1.917 2.591 2.487 4.197.622 1.607 1.192 3.602 1.71 5.985.519 2.176.933 3.705 1.244 4.586h22.851c-.777-1.451-1.813-3.964-3.109-7.539a106.22 106.22 0 00-.76-2.087c-1.316-3.501-2.669-6.51-4.059-9.028-1.606-3.057-3.938-5.83-6.995-8.317-.199-.158-.4-.314-.602-.468z" fill="#FF26C2"/></g><g filter="url(#filter25_f_702_3273)"><path fill-rule="evenodd" clip-rule="evenodd" d="M705.528 115.229l-.001.049c-.051 3.058-.077 7.784-.077 14.203 0 7.715.052 13.236.153 16.612l.182 6.101h-30.423l.064-7.177-.126.115-.016.014-.015.014c-5.756 5.166-14.866 6.956-25.487 6.956h-7.911v.078h-31.218l.255-6.168c.411-9.983.616-19.306.616-27.97 0-8.665-.205-17.988-.616-27.97l-.255-6.169h31.218v13.68h7.911c7.475 0 13.985.936 19.108 3.227 2.514 1.099 4.78 2.488 6.71 4.196-.025-3.225-.061-6.863-.107-10.914v-.013l-.133-14.373h30.434l-.191 6.109c-.049 1.56-.075 4.073-.075 7.588v21.812zm-30.563-1.526c-1.606-3.213-4.43-5.7-8.472-7.462-4.042-1.813-9.612-2.72-16.711-2.72h-13.835v-13.68h-19.12c.082 2 .156 3.975.222 5.924.266 7.846.399 15.276.399 22.291 0 7.014-.133 14.444-.399 22.29-.066 1.949-.14 3.924-.222 5.924h19.12v-.078h13.835c10.312 0 17.488-1.813 21.53-5.441a17.36 17.36 0 004.207-5.814c1.237-2.766 1.856-5.983 1.856-9.653 0-3.86-.576-7.219-1.727-10.076a18.882 18.882 0 00-.683-1.505zm6.606.43l.001 1.047c0 2.757-.014 6.125-.043 10.104a3326.41 3326.41 0 01-.113 12.203l-.077 8.783h18.343a326.265 326.265 0 01-.108-5.924c-.032-2.971-.047-6.593-.047-10.865 0-6.425.025-11.192.077-14.301V93.416c0-.647.001-1.263.003-1.848.008-2.596.033-4.57.075-5.924h-18.343l.077 8.394c.097 8.498.149 15.197.155 20.095zm-29.299 10.555c-1.291-.146-3.126-.242-5.599-.242h-4.802v.433h4.802c2.416 0 4.259-.074 5.599-.191zm-5.599 6.115c3.627 0 6.348-.156 8.161-.467 1.866-.363 3.161-.958 3.887-1.787.725-.83 1.088-2.099 1.088-3.809s-.389-3.005-1.166-3.886c-.777-.881-2.099-1.477-3.964-1.788-1.814-.363-4.482-.544-8.006-.544h-10.726v12.281h10.726z" fill="#FF26C2"/></g><g filter="url(#filter26_f_702_3273)"><path fill-rule="evenodd" clip-rule="evenodd" d="M616.498 112.279l-6.113-.195a964.34 964.34 0 00-17.593-.402v40.512h-31.28v-40.513c-5.751.078-11.589.212-17.513.403l-6.115.198V83.917h78.614v28.362zm-54.986-6.522c1.985-.027 3.96-.047 5.924-.06v40.573h19.432v-40.573c1.959.013 3.934.033 5.924.06a963.33 963.33 0 0117.782.407V89.841h-66.766v16.322c1.984-.064 3.958-.121 5.924-.172 3.965-.104 7.892-.182 11.78-.234z" fill="#FF26C2"/></g><g filter="url(#filter27_f_702_3273)"><path fill-rule="evenodd" clip-rule="evenodd" d="M526.379 114.684l.024.02c3.574 2.907 6.446 6.265 8.472 10.101 1.847 3.356 3.566 7.354 5.183 11.932 1.286 3.548 2.196 5.698 2.752 6.736l4.672 8.721h-36.936l-1.395-3.952c-.426-1.207-.902-3.008-1.42-5.186l-.014-.056-.012-.057c-.478-2.197-.97-3.875-1.446-5.105l-.03-.079-.028-.079c-.314-.885-.736-1.578-1.247-2.147-.864-.901-1.93-1.504-3.404-1.793l-.067-.013-.066-.015c-.927-.204-2.097-.374-3.53-.497v18.979h-31.45l.244-5.924h1.781l-1.619-4.168c.31-8.512.465-16.527.465-24.046 0-8.665-.205-17.988-.617-27.97l-.254-6.169h31.45V98.01c4.079-4.408 7.264-8.264 9.596-11.578l1.77-2.515h42.592l-5.943 5.924h-2.094v2.088l-20.557 20.49c1.067.7 2.102 1.448 3.104 2.246l.024.019zm-7.431 2.024a37.035 37.035 0 00-5.61-2.772l24.173-24.095h-25.183c-3.331 4.733-8.145 10.319-14.441 16.757a289.642 289.642 0 01-3.592 3.607c-1.036 0-1.813-.026-2.332-.077V89.841H472.61c.082 2 .156 3.975.223 5.924.266 7.846.399 15.276.399 22.291 0 7.014-.133 14.444-.399 22.29a896.19 896.19 0 01-.223 5.924h19.353v-19.198c2.205 0 4.18.066 5.924.2 1.864.142 3.464.36 4.803.655 2.642.518 4.844 1.71 6.606 3.575 1.088 1.192 1.917 2.591 2.487 4.197.622 1.607 1.192 3.602 1.71 5.985.519 2.176.933 3.705 1.244 4.586h22.851c-.654-1.222-1.492-3.196-2.514-5.924-.192-.512-.39-1.05-.595-1.615-1.554-4.405-3.161-8.11-4.819-11.115-1.606-3.057-3.938-5.83-6.995-8.317a35.627 35.627 0 00-3.717-2.591z" fill="#FF26C2"/></g><g filter="url(#filter28_f_702_3273)"><path fill-rule="evenodd" clip-rule="evenodd" d="M444.062 152.194l-1.35-4.051a285.95 285.95 0 00-2.477-7.064h-16.458l-3.886 11.115h-32.347l26.332-68.277h36.722l22.209 57.177a789.806 789.806 0 01-.197 5.176h2.208l2.301 5.924h-33.057zm-24.489-17.039h24.795c1.658 4.456 2.979 8.161 3.964 11.115h20.131l-21.919-56.429h-28.603l-21.763 56.429h19.509l3.886-11.115zm9.246-25.076l.633-1.686.023-.061a983.805 983.805 0 012.534-6.677l1.866 5.053a1055.48 1055.48 0 016.062 16.322h-15.933c.772-2.09 1.504-4.065 2.194-5.924.952-2.562 1.825-4.905 2.621-7.027z" fill="#FF26C2"/></g><g filter="url(#filter29_f_702_3273)"><path fill-rule="evenodd" clip-rule="evenodd" d="M398.957 112.279l-6.113-.195a964.241 964.241 0 00-17.594-.402v40.512h-31.279v-40.513c-5.751.078-11.589.212-17.513.403l-6.115.198V83.917h78.614v28.362zm-54.986-6.522c1.985-.027 3.96-.047 5.924-.06v40.573h19.432v-40.573c1.959.013 3.934.033 5.923.06a963.097 963.097 0 0117.783.407V89.841h-66.766v16.323a938.956 938.956 0 0117.704-.407z" fill="#FF26C2"/></g><g filter="url(#filter30_f_702_3273)"><path fill-rule="evenodd" clip-rule="evenodd" d="M326.226 83.917l-.256 6.17c-.359 8.664-.539 17.986-.539 27.969 0 9.982.18 19.304.539 27.969l.256 6.169h-30.364v-21.142h-16.755v21.142h-30.363l.254-6.168c.412-9.983.617-19.306.617-27.97 0-8.665-.205-17.988-.617-27.97l-.254-6.169h30.363v21.142h16.755V83.917h30.364zm-24.44 27.066h-28.603V89.841h-18.266c.083 2 .157 3.975.223 5.924.266 7.846.399 15.276.399 22.291 0 7.014-.133 14.444-.399 22.29-.066 1.949-.14 3.924-.223 5.924h18.266v-21.141h28.603v21.141h18.265c-.08-1.943-.152-3.917-.214-5.924-.22-7.038-.33-14.468-.33-22.29 0-7.823.11-15.253.33-22.291.062-2.007.134-3.981.214-5.924h-18.265v21.142z" fill="#FF26C2"/></g><g filter="url(#filter31_f_702_3273)"><path fill-rule="evenodd" clip-rule="evenodd" d="M183.849 143.709l-.011-.01c-7.07-6.546-10.293-15.529-10.293-26.11 0-10.483 3.2-19.398 10.196-25.936l.01-.009.01-.01c7.166-6.635 17.692-9.349 30.296-9.349 12.634 0 23.179 2.705 30.306 9.359 7.049 6.533 10.283 15.45 10.283 25.945 0 10.602-3.179 19.6-10.217 26.112-7.131 6.597-17.7 9.27-30.372 9.27-12.548 0-23.034-2.686-30.197-9.252l-.011-.01zm56.479-47.728c-5.544-5.181-14.302-7.772-26.271-7.772-11.918 0-20.675 2.59-26.272 7.772-5.544 5.182-8.316 12.385-8.316 21.608 0 9.327 2.798 16.582 8.394 21.763 5.596 5.13 14.328 7.695 26.194 7.695 12.021 0 20.804-2.565 26.349-7.695 5.544-5.13 8.316-12.384 8.316-21.763 0-9.223-2.798-16.426-8.394-21.608zm-17.716 27.47c.818-.733 1.765-2.266 1.765-5.862 0-3.481-.94-4.982-1.792-5.729-.92-.808-3.285-1.871-8.528-1.871-5.175 0-7.524 1.057-8.451 1.871-.852.747-1.792 2.248-1.792 5.729 0 3.558.954 5.072 1.792 5.807.927.815 3.276 1.871 8.451 1.871 5.218 0 7.612-1.027 8.555-1.816zm3.881 4.476c-2.539 2.176-6.685 3.264-12.436 3.264-5.7 0-9.82-1.114-12.359-3.342-2.539-2.228-3.808-5.648-3.808-10.26 0-4.56 1.269-7.954 3.808-10.182 2.539-2.228 6.659-3.342 12.359-3.342 5.751 0 9.897 1.114 12.436 3.342 2.539 2.228 3.808 5.622 3.808 10.182 0 4.664-1.269 8.11-3.808 10.338z" fill="#FF26C2"/></g><g filter="url(#filter32_f_702_3273)"><path fill-rule="evenodd" clip-rule="evenodd" d="M162.041 114.684l.024.02c3.574 2.908 6.445 6.265 8.472 10.102 1.846 3.355 3.565 7.353 5.181 11.929 1.287 3.549 2.197 5.7 2.753 6.738l4.672 8.721h-36.936l-1.395-3.952c-.426-1.207-.902-3.008-1.42-5.186l-.014-.056-.012-.057c-.478-2.197-.97-3.875-1.446-5.105l-.03-.079-.028-.079c-.314-.885-.736-1.578-1.246-2.147-.865-.901-1.93-1.504-3.405-1.793l-.067-.013-.066-.015c-.927-.204-2.097-.374-3.53-.497v18.979h-31.45l.254-6.168c.412-9.983.617-19.306.617-27.97 0-8.665-.205-17.988-.617-27.97l-.254-6.169h31.45V98.01c4.079-4.408 7.264-8.264 9.596-11.578l1.77-2.515h42.592l-28.594 28.502c1.067.7 2.102 1.448 3.104 2.246l.025.019zm-7.432 2.024a35.522 35.522 0 013.717 2.591c3.057 2.487 5.389 5.26 6.995 8.317 1.659 3.005 3.265 6.71 4.819 11.115.205.565.403 1.103.595 1.615 1.022 2.728 1.86 4.702 2.514 5.924h-22.851c-.311-.881-.725-2.41-1.243-4.586-.519-2.383-1.089-4.378-1.71-5.985-.57-1.606-1.4-3.005-2.488-4.197-1.761-1.865-3.964-3.057-6.606-3.575-1.338-.295-2.939-.513-4.803-.655-1.744-.134-3.719-.2-5.923-.2v19.198h-19.354c.082-2 .157-3.975.223-5.924a659.38 659.38 0 00.399-22.29c0-7.015-.133-14.445-.399-22.291a833.157 833.157 0 00-.223-5.924h19.354v20.287c.518.051 1.295.077 2.331.077l.079-.077c1.218-1.204 2.39-2.38 3.513-3.53 6.296-6.438 11.11-12.024 14.441-16.757h25.183l-24.173 24.095a36.942 36.942 0 015.61 2.772z" fill="#FF26C2"/></g><g filter="url(#filter33_f_702_3273)"><path fill-rule="evenodd" clip-rule="evenodd" d="M702.566 115.204v.025c-.051 3.083-.077 7.83-.077 14.252 0 7.718.052 13.276.154 16.701l.091 3.05h-24.383l.104-11.771v-.006l.02-1.895a20.347 20.347 0 01-5.169 7.382l-.007.007-.008.007c-4.899 4.396-13.042 6.198-23.508 6.198h-10.874v.078H613.74l.127-3.084c.414-10.018.62-19.381.62-28.092 0-8.711-.206-18.075-.62-28.093l-.127-3.084h25.169v13.68h10.874c7.286 0 13.326.921 17.909 2.973 4.518 1.973 7.938 4.882 9.92 8.84.372.734.705 1.495.998 2.281-.003-4.924-.055-11.783-.155-20.581l-.105-11.39h24.388l-.095 3.055c-.051 1.609-.077 4.16-.077 7.68v21.787zm-27.6-1.501c-1.607-3.213-4.431-5.7-8.473-7.462-4.041-1.813-9.612-2.72-16.71-2.72h-13.836v-13.68h-19.12c.041.994.08 1.981.117 2.962.336 8.944.505 17.361.505 25.253 0 7.891-.169 16.309-.505 25.252-.037.981-.076 1.968-.117 2.962h19.12v-.078h13.836c10.311 0 17.488-1.813 21.529-5.441 4.042-3.679 6.063-8.834 6.063-15.467 0-4.56-.803-8.42-2.409-11.581zm-20.821 8.277l-.047-.01c-1.521-.304-3.955-.486-7.425-.486h-7.764v6.357h7.764c3.563 0 6.068-.155 7.628-.419 1.616-.318 2.115-.738 2.191-.824.052-.06.355-.487.355-1.858 0-1.311-.302-1.788-.425-1.927-.124-.141-.654-.563-2.23-.825l-.047-.008zm.69 8.356c-1.814.311-4.534.467-8.162.467h-10.726v-12.281h10.726c3.524 0 6.193.181 8.006.544 1.866.311 3.187.907 3.964 1.788.777.881 1.166 2.176 1.166 3.886s-.363 2.979-1.088 3.809c-.726.829-2.021 1.424-3.886 1.787zm44.77-15.156c-.052 3.109-.078 7.876-.078 14.301 0 5.814.029 10.423.088 13.827.019 1.117.042 2.104.067 2.962h-18.343l.078-8.783c.103-9.638.155-17.074.155-22.307 0-4.975-.052-12.022-.155-21.142l-.078-8.394h18.343a153.8 153.8 0 00-.056 2.962 470.691 470.691 0 00-.021 4.81v21.764z" fill="#fff"/></g><g filter="url(#filter34_f_702_3273)"><path fill-rule="evenodd" clip-rule="evenodd" d="M607.612 106.073c.984.029 1.971.059 2.962.091V89.841h-66.766v16.322a937.028 937.028 0 0123.628-.466v40.573h19.432v-40.573a951.646 951.646 0 0120.744.376zm-17.782 2.611c6.705.069 13.588.215 20.65.44l3.056.097V86.879h-72.69v22.344l3.057-.099a929.143 929.143 0 0120.571-.44v40.548h25.356v-40.548z" fill="#fff"/></g><g filter="url(#filter35_f_702_3273)"><path fill-rule="evenodd" clip-rule="evenodd" d="M529.661 127.616c-1.607-3.057-3.938-5.83-6.996-8.317a35.7 35.7 0 00-6.422-4.076 37.773 37.773 0 00-2.905-1.287l24.173-24.095h-25.183c-3.835 5.45-9.636 12.03-17.402 19.74l-.552.547-.079.077c-1.036 0-1.813-.026-2.331-.077V89.841H472.61c.041.994.08 1.981.117 2.962.337 8.944.505 17.361.505 25.253 0 7.891-.168 16.309-.505 25.252-.037.981-.076 1.968-.117 2.962h19.354v-19.198c1.038 0 2.025.015 2.962.044 3.175.1 5.763.371 7.764.811 2.642.518 4.845 1.71 6.607 3.575 1.088 1.192 1.917 2.591 2.487 4.197.622 1.607 1.192 3.602 1.71 5.985.518 2.176.932 3.705 1.243 4.586h22.852c-.388-.723-.84-1.711-1.356-2.962a114.864 114.864 0 01-1.753-4.577c-1.555-4.405-3.161-8.11-4.819-11.115zm2.607-1.405c1.753 3.181 3.416 7.032 5.001 11.523 1.291 3.562 2.264 5.893 2.931 7.137l2.336 4.361h-29.894l-.698-1.976c-.368-1.044-.813-2.709-1.332-4.886l-.006-.028-.007-.029c-.497-2.29-1.029-4.126-1.577-5.544l-.016-.04-.014-.039c-.442-1.246-1.067-2.292-1.866-3.172-1.313-1.383-2.946-2.281-5.006-2.685l-.033-.006-.034-.008c-1.749-.384-4.109-.64-7.127-.739v19.152h-25.403l.128-3.084c.413-10.018.619-19.381.619-28.092 0-8.711-.206-18.075-.619-28.093l-.128-3.084h25.403v18.508c6.653-6.743 11.628-12.488 14.98-17.25l.884-1.258h33.888l-26.229 26.145a38.61 38.61 0 016.061 3.958l.013.01.012.01c3.315 2.697 5.917 5.762 7.733 9.209z" fill="#fff"/></g><g filter="url(#filter36_f_702_3273)"><path fill-rule="evenodd" clip-rule="evenodd" d="M444.367 135.155c1.658 4.456 2.98 8.161 3.964 11.115h20.131l-21.919-56.429H417.94l-21.763 56.429h19.509l3.887-11.115h24.794zm-2.062 2.962c1.32 3.585 2.391 6.613 3.216 9.09l.675 2.025h26.594l-24.22-62.353h-32.662l-24.048 62.353h25.929l3.886-11.115h20.63zm-3.445-18.049c.36.987.719 1.975 1.077 2.962h-15.934l1.096-2.962c2.109-5.695 3.878-10.43 5.306-14.205a882.447 882.447 0 011.604-4.208l1.865 5.053a1033.58 1033.58 0 014.986 13.36zm-3.154 0a1037.31 1037.31 0 00-3.722-9.994c-1.086 2.89-2.328 6.221-3.726 9.994h7.448z" fill="#fff"/></g><g filter="url(#filter37_f_702_3273)"><path fill-rule="evenodd" clip-rule="evenodd" d="M390.072 106.073c.984.029 1.971.059 2.962.091V89.841h-66.766v16.323a937.028 937.028 0 0123.628-.467v40.573h19.432v-40.573a951.646 951.646 0 0120.744.376zm-17.782 2.611c6.705.069 13.588.215 20.65.44l3.056.097V86.879h-72.69v22.344l3.057-.099a929.143 929.143 0 0120.571-.44v40.548h25.356v-40.548z" fill="#fff"/></g><g filter="url(#filter38_f_702_3273)"><path fill-rule="evenodd" clip-rule="evenodd" d="M319.937 92.803c.036-.995.074-1.983.115-2.962h-18.266v21.142h-28.603V89.841h-18.265c.041.994.08 1.981.117 2.962.336 8.944.504 17.361.504 25.253 0 7.891-.168 16.309-.504 25.252-.037.981-.076 1.968-.117 2.962h18.265v-21.141h28.603v21.141h18.266c-.041-.979-.079-1.967-.115-2.962-.286-7.907-.429-16.324-.429-25.252 0-8.929.143-17.346.429-25.253zm-21.113 35.288v21.141h24.315l-.128-3.085c-.361-8.71-.541-18.074-.541-28.091 0-10.018.18-19.381.541-28.092l.128-3.085h-24.315v21.142h-22.679V86.879h-24.314l.127 3.084c.413 10.018.62 19.382.62 28.093 0 8.711-.207 18.074-.62 28.092l-.127 3.084h24.314v-21.141h22.679z" fill="#fff"/></g><g filter="url(#filter39_f_702_3273)"><path fill-rule="evenodd" clip-rule="evenodd" d="M185.856 141.531l-.005-.005c-6.333-5.864-9.344-13.983-9.344-23.937 0-9.853 2.986-17.912 9.256-23.772l.01-.009c6.381-5.909 16.023-8.561 28.284-8.561 12.301 0 21.952 2.648 28.287 8.565 6.324 5.857 9.34 13.917 9.34 23.777 0 9.991-2.976 18.117-9.267 23.937-6.337 5.864-16.014 8.483-28.36 8.483-12.207 0-21.816-2.626-28.195-8.473l-.006-.005zm54.472-45.55c-5.545-5.181-14.302-7.772-26.271-7.772-11.918 0-20.675 2.59-26.272 7.772-5.544 5.182-8.316 12.385-8.316 21.608 0 9.327 2.798 16.582 8.394 21.763 5.596 5.13 14.328 7.695 26.194 7.695 12.021 0 20.804-2.565 26.349-7.695 5.544-5.13 8.316-12.384 8.316-21.763 0-9.223-2.798-16.426-8.394-21.608zm-15.776 29.708c-1.735 1.479-5 2.54-10.495 2.54-5.437 0-8.672-1.085-10.405-2.606-1.688-1.482-2.8-3.949-2.8-8.034 0-4.02 1.105-6.468 2.8-7.956 1.733-1.521 4.968-2.606 10.405-2.606 5.497 0 8.752 1.089 10.482 2.606 1.695 1.488 2.8 3.936 2.8 7.956 0 4.138-1.112 6.623-2.787 8.1zm1.941 2.238c-2.539 2.176-6.685 3.264-12.436 3.264-5.7 0-9.82-1.114-12.359-3.342-2.539-2.228-3.808-5.648-3.808-10.26 0-4.56 1.269-7.954 3.808-10.182 2.539-2.228 6.659-3.342 12.359-3.342 5.751 0 9.897 1.114 12.436 3.342 2.539 2.228 3.808 5.622 3.808 10.182 0 4.664-1.269 8.11-3.808 10.338z" fill="#fff"/></g><g filter="url(#filter40_f_702_3273)"><path fill-rule="evenodd" clip-rule="evenodd" d="M165.322 127.616c-1.607-3.057-3.938-5.83-6.996-8.317a35.7 35.7 0 00-6.422-4.076 37.773 37.773 0 00-2.905-1.287l24.173-24.095h-25.183c-3.835 5.45-9.636 12.03-17.402 19.74l-.552.547-.078.077c-1.037 0-1.814-.026-2.332-.077V89.841h-19.354c.041.994.08 1.981.117 2.962.337 8.944.505 17.361.505 25.253 0 7.891-.168 16.309-.505 25.252-.037.981-.076 1.968-.117 2.962h19.354v-19.198c1.038 0 2.026.015 2.962.044 3.175.1 5.763.371 7.764.811 2.643.518 4.845 1.71 6.607 3.575 1.088 1.192 1.917 2.591 2.487 4.197.622 1.607 1.192 3.602 1.71 5.985.518 2.176.933 3.705 1.243 4.586h22.852c-.388-.723-.84-1.711-1.356-2.962a114.864 114.864 0 01-1.753-4.577c-1.555-4.405-3.161-8.11-4.819-11.115zm2.608-1.405c1.752 3.181 3.414 7.032 5 11.522 1.291 3.562 2.264 5.894 2.931 7.138l2.336 4.361h-29.894l-.698-1.976c-.368-1.044-.813-2.709-1.332-4.886l-.006-.028-.007-.029c-.497-2.29-1.028-4.126-1.577-5.544l-.016-.04-.014-.039c-.442-1.247-1.067-2.293-1.866-3.172-1.313-1.384-2.946-2.281-5.006-2.685l-.033-.006-.033-.008c-1.749-.384-4.11-.64-7.128-.739v19.152h-25.402l.127-3.084c.413-10.018.619-19.381.619-28.092 0-8.711-.206-18.075-.619-28.093l-.127-3.084h25.402v18.508c6.653-6.743 11.628-12.488 14.98-17.25l.884-1.258h33.888l-26.229 26.145a38.665 38.665 0 016.062 3.958l.012.01.012.01c3.315 2.697 5.917 5.762 7.734 9.209z" fill="#fff"/></g><defs><filter id="filter0_f_702_3273" x=".901" y=".587" width="806.848" height="223.906" filterUnits="userSpaceOnUse" color-interpolation-filters="sRGB"><feFlood flood-opacity="0" result="BackgroundImageFix"/><feBlend in="SourceGraphic" in2="BackgroundImageFix" result="shape"/><feGaussianBlur stdDeviation="22.215" result="effect1_foregroundBlur_702_3273"/></filter><filter id="filter1_f_702_3273" x="562.366" y="31.589" width="191.677" height="168.737" filterUnits="userSpaceOnUse" color-interpolation-filters="sRGB"><feFlood flood-opacity="0" result="BackgroundImageFix"/><feBlend in="SourceGraphic" in2="BackgroundImageFix" result="shape"/><feGaussianBlur stdDeviation="22.215" result="effect1_foregroundBlur_702_3273"/></filter><filter id="filter2_f_702_3273" x="489.752" y="35.786" width="174.877" height="164.54" filterUnits="userSpaceOnUse" color-interpolation-filters="sRGB"><feFlood flood-opacity="0" result="BackgroundImageFix"/><feBlend in="SourceGraphic" in2="BackgroundImageFix" result="shape"/><feGaussianBlur stdDeviation="22.215" result="effect1_foregroundBlur_702_3273"/></filter><filter id="filter3_f_702_3273" x="418.149" y="35.786" width="187.084" height="164.54" filterUnits="userSpaceOnUse" color-interpolation-filters="sRGB"><feFlood flood-opacity="0" result="BackgroundImageFix"/><feBlend in="SourceGraphic" in2="BackgroundImageFix" result="shape"/><feGaussianBlur stdDeviation="22.215" result="effect1_foregroundBlur_702_3273"/></filter><filter id="filter4_f_702_3273" x="337.718" y="29.933" width="189.239" height="170.393" filterUnits="userSpaceOnUse" color-interpolation-filters="sRGB"><feFlood flood-opacity="0" result="BackgroundImageFix"/><feBlend in="SourceGraphic" in2="BackgroundImageFix" result="shape"/><feGaussianBlur stdDeviation="22.215" result="effect1_foregroundBlur_702_3273"/></filter><filter id="filter5_f_702_3273" x="272.212" y="35.786" width="174.877" height="164.54" filterUnits="userSpaceOnUse" color-interpolation-filters="sRGB"><feFlood flood-opacity="0" result="BackgroundImageFix"/><feBlend in="SourceGraphic" in2="BackgroundImageFix" result="shape"/><feGaussianBlur stdDeviation="22.215" result="effect1_foregroundBlur_702_3273"/></filter><filter id="filter6_f_702_3273" x="200.457" y="35.786" width="174.057" height="164.54" filterUnits="userSpaceOnUse" color-interpolation-filters="sRGB"><feFlood flood-opacity="0" result="BackgroundImageFix"/><feBlend in="SourceGraphic" in2="BackgroundImageFix" result="shape"/><feGaussianBlur stdDeviation="22.215" result="effect1_foregroundBlur_702_3273"/></filter><filter id="filter7_f_702_3273" x="125.413" y="34.154" width="174.554" height="166.949" filterUnits="userSpaceOnUse" color-interpolation-filters="sRGB"><feFlood flood-opacity="0" result="BackgroundImageFix"/><feBlend in="SourceGraphic" in2="BackgroundImageFix" result="shape"/><feGaussianBlur stdDeviation="22.215" result="effect1_foregroundBlur_702_3273"/></filter><filter id="filter8_f_702_3273" x="53.81" y="35.786" width="187.084" height="164.54" filterUnits="userSpaceOnUse" color-interpolation-filters="sRGB"><feFlood flood-opacity="0" result="BackgroundImageFix"/><feBlend in="SourceGraphic" in2="BackgroundImageFix" result="shape"/><feGaussianBlur stdDeviation="22.215" result="effect1_foregroundBlur_702_3273"/></filter><filter id="filter9_f_702_3273" x="588.899" y="58.246" width="138.58" height="115.422" filterUnits="userSpaceOnUse" color-interpolation-filters="sRGB"><feFlood flood-opacity="0" result="BackgroundImageFix"/><feBlend in="SourceGraphic" in2="BackgroundImageFix" result="shape"/><feGaussianBlur stdDeviation="7.405" result="effect1_foregroundBlur_702_3273"/></filter><filter id="filter10_f_702_3273" x="516.41" y="62.443" width="121.562" height="111.225" filterUnits="userSpaceOnUse" color-interpolation-filters="sRGB"><feFlood flood-opacity="0" result="BackgroundImageFix"/><feBlend in="SourceGraphic" in2="BackgroundImageFix" result="shape"/><feGaussianBlur stdDeviation="7.405" result="effect1_foregroundBlur_702_3273"/></filter><filter id="filter11_f_702_3273" x="444.682" y="62.443" width="138.098" height="111.225" filterUnits="userSpaceOnUse" color-interpolation-filters="sRGB"><feFlood flood-opacity="0" result="BackgroundImageFix"/><feBlend in="SourceGraphic" in2="BackgroundImageFix" result="shape"/><feGaussianBlur stdDeviation="7.405" result="effect1_foregroundBlur_702_3273"/></filter><filter id="filter12_f_702_3273" x="363.021" y="51.154" width="138.646" height="122.514" filterUnits="userSpaceOnUse" color-interpolation-filters="sRGB"><feFlood flood-opacity="0" result="BackgroundImageFix"/><feBlend in="SourceGraphic" in2="BackgroundImageFix" result="shape"/><feGaussianBlur stdDeviation="7.405" result="effect1_foregroundBlur_702_3273"/></filter><filter id="filter13_f_702_3273" x="298.869" y="62.443" width="121.562" height="111.225" filterUnits="userSpaceOnUse" color-interpolation-filters="sRGB"><feFlood flood-opacity="0" result="BackgroundImageFix"/><feBlend in="SourceGraphic" in2="BackgroundImageFix" result="shape"/><feGaussianBlur stdDeviation="7.405" result="effect1_foregroundBlur_702_3273"/></filter><filter id="filter14_f_702_3273" x="226.99" y="62.443" width="120.991" height="111.225" filterUnits="userSpaceOnUse" color-interpolation-filters="sRGB"><feFlood flood-opacity="0" result="BackgroundImageFix"/><feBlend in="SourceGraphic" in2="BackgroundImageFix" result="shape"/><feGaussianBlur stdDeviation="7.405" result="effect1_foregroundBlur_702_3273"/></filter><filter id="filter15_f_702_3273" x="152.071" y="60.811" width="118.278" height="113.634" filterUnits="userSpaceOnUse" color-interpolation-filters="sRGB"><feFlood flood-opacity="0" result="BackgroundImageFix"/><feBlend in="SourceGraphic" in2="BackgroundImageFix" result="shape"/><feGaussianBlur stdDeviation="7.405" result="effect1_foregroundBlur_702_3273"/></filter><filter id="filter16_f_702_3273" x="80.344" y="62.443" width="138.098" height="111.225" filterUnits="userSpaceOnUse" color-interpolation-filters="sRGB"><feFlood flood-opacity="0" result="BackgroundImageFix"/><feBlend in="SourceGraphic" in2="BackgroundImageFix" result="shape"/><feGaussianBlur stdDeviation="7.405" result="effect1_foregroundBlur_702_3273"/></filter><filter id="filter17_ddi_702_3273" x="587.542" y="71.575" width="141.324" height="118.384" filterUnits="userSpaceOnUse" color-interpolation-filters="sRGB"><feFlood flood-opacity="0" result="BackgroundImageFix"/><feColorMatrix in="SourceAlpha" values="0 0 0 0 0 0 0 0 0 0 0 0 0 0 0 0 0 0 127 0" result="hardAlpha"/><feOffset dy="9.626"/><feGaussianBlur stdDeviation="3.702"/><feColorMatrix values="0 0 0 0 0 0 0 0 0 0.3 0 0 0 0 0.275 0 0 0 0.7 0"/><feBlend mode="multiply" in2="BackgroundImageFix" result="effect1_dropShadow_702_3273"/><feColorMatrix in="SourceAlpha" values="0 0 0 0 0 0 0 0 0 0 0 0 0 0 0 0 0 0 127 0" result="hardAlpha"/><feOffset dy="14.81"/><feGaussianBlur stdDeviation="9.626"/><feColorMatrix values="0 0 0 0 0 0 0 0 0 0.6 0 0 0 0 0.6 0 0 0 1 0"/><feBlend mode="color-dodge" in2="effect1_dropShadow_702_3273" result="effect2_dropShadow_702_3273"/><feBlend in="SourceGraphic" in2="effect2_dropShadow_702_3273" result="shape"/><feColorMatrix in="SourceAlpha" values="0 0 0 0 0 0 0 0 0 0 0 0 0 0 0 0 0 0 127 0" result="hardAlpha"/><feOffset dx="-.963" dy="1.925"/><feGaussianBlur stdDeviation=".481"/><feComposite in2="hardAlpha" operator="arithmetic" k2="-1" k3="1"/><feColorMatrix values="0 0 0 0 1 0 0 0 0 1 0 0 0 0 1 0 0 0 0.5 0"/><feBlend in2="shape" result="effect3_innerShadow_702_3273"/></filter><filter id="filter18_ddi_702_3273" x="514.928" y="75.772" width="124.524" height="114.187" filterUnits="userSpaceOnUse" color-interpolation-filters="sRGB"><feFlood flood-opacity="0" result="BackgroundImageFix"/><feColorMatrix in="SourceAlpha" values="0 0 0 0 0 0 0 0 0 0 0 0 0 0 0 0 0 0 127 0" result="hardAlpha"/><feOffset dy="9.626"/><feGaussianBlur stdDeviation="3.702"/><feColorMatrix values="0 0 0 0 0 0 0 0 0 0.3 0 0 0 0 0.275 0 0 0 0.7 0"/><feBlend mode="multiply" in2="BackgroundImageFix" result="effect1_dropShadow_702_3273"/><feColorMatrix in="SourceAlpha" values="0 0 0 0 0 0 0 0 0 0 0 0 0 0 0 0 0 0 127 0" result="hardAlpha"/><feOffset dy="14.81"/><feGaussianBlur stdDeviation="9.626"/><feColorMatrix values="0 0 0 0 0 0 0 0 0 0.6 0 0 0 0 0.6 0 0 0 1 0"/><feBlend mode="color-dodge" in2="effect1_dropShadow_702_3273" result="effect2_dropShadow_702_3273"/><feBlend in="SourceGraphic" in2="effect2_dropShadow_702_3273" result="shape"/><feColorMatrix in="SourceAlpha" values="0 0 0 0 0 0 0 0 0 0 0 0 0 0 0 0 0 0 127 0" result="hardAlpha"/><feOffset dx="-.963" dy="1.925"/><feGaussianBlur stdDeviation=".481"/><feComposite in2="hardAlpha" operator="arithmetic" k2="-1" k3="1"/><feColorMatrix values="0 0 0 0 1 0 0 0 0 1 0 0 0 0 1 0 0 0 0.5 0"/><feBlend in2="shape" result="effect3_innerShadow_702_3273"/></filter><filter id="filter19_ddi_702_3273" x="443.326" y="75.772" width="136.731" height="114.187" filterUnits="userSpaceOnUse" color-interpolation-filters="sRGB"><feFlood flood-opacity="0" result="BackgroundImageFix"/><feColorMatrix in="SourceAlpha" values="0 0 0 0 0 0 0 0 0 0 0 0 0 0 0 0 0 0 127 0" result="hardAlpha"/><feOffset dy="9.626"/><feGaussianBlur stdDeviation="3.702"/><feColorMatrix values="0 0 0 0 0 0 0 0 0 0.3 0 0 0 0 0.275 0 0 0 0.7 0"/><feBlend mode="multiply" in2="BackgroundImageFix" result="effect1_dropShadow_702_3273"/><feColorMatrix in="SourceAlpha" values="0 0 0 0 0 0 0 0 0 0 0 0 0 0 0 0 0 0 127 0" result="hardAlpha"/><feOffset dy="14.81"/><feGaussianBlur stdDeviation="9.626"/><feColorMatrix values="0 0 0 0 0 0 0 0 0 0.6 0 0 0 0 0.6 0 0 0 1 0"/><feBlend mode="color-dodge" in2="effect1_dropShadow_702_3273" result="effect2_dropShadow_702_3273"/><feBlend in="SourceGraphic" in2="effect2_dropShadow_702_3273" result="shape"/><feColorMatrix in="SourceAlpha" values="0 0 0 0 0 0 0 0 0 0 0 0 0 0 0 0 0 0 127 0" result="hardAlpha"/><feOffset dx="-.963" dy="1.925"/><feGaussianBlur stdDeviation=".481"/><feComposite in2="hardAlpha" operator="arithmetic" k2="-1" k3="1"/><feColorMatrix values="0 0 0 0 1 0 0 0 0 1 0 0 0 0 1 0 0 0 0.5 0"/><feBlend in2="shape" result="effect3_innerShadow_702_3273"/></filter><filter id="filter20_ddi_702_3273" x="362.895" y="69.919" width="138.886" height="120.04" filterUnits="userSpaceOnUse" color-interpolation-filters="sRGB"><feFlood flood-opacity="0" result="BackgroundImageFix"/><feColorMatrix in="SourceAlpha" values="0 0 0 0 0 0 0 0 0 0 0 0 0 0 0 0 0 0 127 0" result="hardAlpha"/><feOffset dy="9.626"/><feGaussianBlur stdDeviation="3.702"/><feColorMatrix values="0 0 0 0 0 0 0 0 0 0.3 0 0 0 0 0.275 0 0 0 0.7 0"/><feBlend mode="multiply" in2="BackgroundImageFix" result="effect1_dropShadow_702_3273"/><feColorMatrix in="SourceAlpha" values="0 0 0 0 0 0 0 0 0 0 0 0 0 0 0 0 0 0 127 0" result="hardAlpha"/><feOffset dy="14.81"/><feGaussianBlur stdDeviation="9.626"/><feColorMatrix values="0 0 0 0 0 0 0 0 0 0.6 0 0 0 0 0.6 0 0 0 1 0"/><feBlend mode="color-dodge" in2="effect1_dropShadow_702_3273" result="effect2_dropShadow_702_3273"/><feBlend in="SourceGraphic" in2="effect2_dropShadow_702_3273" result="shape"/><feColorMatrix in="SourceAlpha" values="0 0 0 0 0 0 0 0 0 0 0 0 0 0 0 0 0 0 127 0" result="hardAlpha"/><feOffset dx="-.963" dy="1.925"/><feGaussianBlur stdDeviation=".481"/><feComposite in2="hardAlpha" operator="arithmetic" k2="-1" k3="1"/><feColorMatrix values="0 0 0 0 1 0 0 0 0 1 0 0 0 0 1 0 0 0 0.5 0"/><feBlend in2="shape" result="effect3_innerShadow_702_3273"/></filter><filter id="filter21_ddi_702_3273" x="297.388" y="75.772" width="124.524" height="114.187" filterUnits="userSpaceOnUse" color-interpolation-filters="sRGB"><feFlood flood-opacity="0" result="BackgroundImageFix"/><feColorMatrix in="SourceAlpha" values="0 0 0 0 0 0 0 0 0 0 0 0 0 0 0 0 0 0 127 0" result="hardAlpha"/><feOffset dy="9.626"/><feGaussianBlur stdDeviation="3.702"/><feColorMatrix values="0 0 0 0 0 0 0 0 0 0.3 0 0 0 0 0.275 0 0 0 0.7 0"/><feBlend mode="multiply" in2="BackgroundImageFix" result="effect1_dropShadow_702_3273"/><feColorMatrix in="SourceAlpha" values="0 0 0 0 0 0 0 0 0 0 0 0 0 0 0 0 0 0 127 0" result="hardAlpha"/><feOffset dy="14.81"/><feGaussianBlur stdDeviation="9.626"/><feColorMatrix values="0 0 0 0 0 0 0 0 0 0.6 0 0 0 0 0.6 0 0 0 1 0"/><feBlend mode="color-dodge" in2="effect1_dropShadow_702_3273" result="effect2_dropShadow_702_3273"/><feBlend in="SourceGraphic" in2="effect2_dropShadow_702_3273" result="shape"/><feColorMatrix in="SourceAlpha" values="0 0 0 0 0 0 0 0 0 0 0 0 0 0 0 0 0 0 127 0" result="hardAlpha"/><feOffset dx="-.963" dy="1.925"/><feGaussianBlur stdDeviation=".481"/><feComposite in2="hardAlpha" operator="arithmetic" k2="-1" k3="1"/><feColorMatrix values="0 0 0 0 1 0 0 0 0 1 0 0 0 0 1 0 0 0 0.5 0"/><feBlend in2="shape" result="effect3_innerShadow_702_3273"/></filter><filter id="filter22_ddi_702_3273" x="225.633" y="75.772" width="123.704" height="114.187" filterUnits="userSpaceOnUse" color-interpolation-filters="sRGB"><feFlood flood-opacity="0" result="BackgroundImageFix"/><feColorMatrix in="SourceAlpha" values="0 0 0 0 0 0 0 0 0 0 0 0 0 0 0 0 0 0 127 0" result="hardAlpha"/><feOffset dy="9.626"/><feGaussianBlur stdDeviation="3.702"/><feColorMatrix values="0 0 0 0 0 0 0 0 0 0.3 0 0 0 0 0.275 0 0 0 0.7 0"/><feBlend mode="multiply" in2="BackgroundImageFix" result="effect1_dropShadow_702_3273"/><feColorMatrix in="SourceAlpha" values="0 0 0 0 0 0 0 0 0 0 0 0 0 0 0 0 0 0 127 0" result="hardAlpha"/><feOffset dy="14.81"/><feGaussianBlur stdDeviation="9.626"/><feColorMatrix values="0 0 0 0 0 0 0 0 0 0.6 0 0 0 0 0.6 0 0 0 1 0"/><feBlend mode="color-dodge" in2="effect1_dropShadow_702_3273" result="effect2_dropShadow_702_3273"/><feBlend in="SourceGraphic" in2="effect2_dropShadow_702_3273" result="shape"/><feColorMatrix in="SourceAlpha" values="0 0 0 0 0 0 0 0 0 0 0 0 0 0 0 0 0 0 127 0" result="hardAlpha"/><feOffset dx="-.963" dy="1.925"/><feGaussianBlur stdDeviation=".481"/><feComposite in2="hardAlpha" operator="arithmetic" k2="-1" k3="1"/><feColorMatrix values="0 0 0 0 1 0 0 0 0 1 0 0 0 0 1 0 0 0 0.5 0"/><feBlend in2="shape" result="effect3_innerShadow_702_3273"/></filter><filter id="filter23_ddi_702_3273" x="150.589" y="74.14" width="124.201" height="116.596" filterUnits="userSpaceOnUse" color-interpolation-filters="sRGB"><feFlood flood-opacity="0" result="BackgroundImageFix"/><feColorMatrix in="SourceAlpha" values="0 0 0 0 0 0 0 0 0 0 0 0 0 0 0 0 0 0 127 0" result="hardAlpha"/><feOffset dy="9.626"/><feGaussianBlur stdDeviation="3.702"/><feColorMatrix values="0 0 0 0 0 0 0 0 0 0.3 0 0 0 0 0.275 0 0 0 0.7 0"/><feBlend mode="multiply" in2="BackgroundImageFix" result="effect1_dropShadow_702_3273"/><feColorMatrix in="SourceAlpha" values="0 0 0 0 0 0 0 0 0 0 0 0 0 0 0 0 0 0 127 0" result="hardAlpha"/><feOffset dy="14.81"/><feGaussianBlur stdDeviation="9.626"/><feColorMatrix values="0 0 0 0 0 0 0 0 0 0.6 0 0 0 0 0.6 0 0 0 1 0"/><feBlend mode="color-dodge" in2="effect1_dropShadow_702_3273" result="effect2_dropShadow_702_3273"/><feBlend in="SourceGraphic" in2="effect2_dropShadow_702_3273" result="shape"/><feColorMatrix in="SourceAlpha" values="0 0 0 0 0 0 0 0 0 0 0 0 0 0 0 0 0 0 127 0" result="hardAlpha"/><feOffset dx="-.963" dy="1.925"/><feGaussianBlur stdDeviation=".481"/><feComposite in2="hardAlpha" operator="arithmetic" k2="-1" k3="1"/><feColorMatrix values="0 0 0 0 1 0 0 0 0 1 0 0 0 0 1 0 0 0 0.5 0"/><feBlend in2="shape" result="effect3_innerShadow_702_3273"/></filter><filter id="filter24_ddi_702_3273" x="78.987" y="75.772" width="136.731" height="114.187" filterUnits="userSpaceOnUse" color-interpolation-filters="sRGB"><feFlood flood-opacity="0" result="BackgroundImageFix"/><feColorMatrix in="SourceAlpha" values="0 0 0 0 0 0 0 0 0 0 0 0 0 0 0 0 0 0 127 0" result="hardAlpha"/><feOffset dy="9.626"/><feGaussianBlur stdDeviation="3.702"/><feColorMatrix values="0 0 0 0 0 0 0 0 0 0.3 0 0 0 0 0.275 0 0 0 0.7 0"/><feBlend mode="multiply" in2="BackgroundImageFix" result="effect1_dropShadow_702_3273"/><feColorMatrix in="SourceAlpha" values="0 0 0 0 0 0 0 0 0 0 0 0 0 0 0 0 0 0 127 0" result="hardAlpha"/><feOffset dy="14.81"/><feGaussianBlur stdDeviation="9.626"/><feColorMatrix values="0 0 0 0 0 0 0 0 0 0.6 0 0 0 0 0.6 0 0 0 1 0"/><feBlend mode="color-dodge" in2="effect1_dropShadow_702_3273" result="effect2_dropShadow_702_3273"/><feBlend in="SourceGraphic" in2="effect2_dropShadow_702_3273" result="shape"/><feColorMatrix in="SourceAlpha" values="0 0 0 0 0 0 0 0 0 0 0 0 0 0 0 0 0 0 127 0" result="hardAlpha"/><feOffset dx="-.963" dy="1.925"/><feGaussianBlur stdDeviation=".481"/><feComposite in2="hardAlpha" operator="arithmetic" k2="-1" k3="1"/><feColorMatrix values="0 0 0 0 1 0 0 0 0 1 0 0 0 0 1 0 0 0 0.5 0"/><feBlend in2="shape" result="effect3_innerShadow_702_3273"/></filter><filter id="filter25_f_702_3273" x="609.172" y="78.239" width="98.103" height="75.436" filterUnits="userSpaceOnUse" color-interpolation-filters="sRGB"><feFlood flood-opacity="0" result="BackgroundImageFix"/><feBlend in="SourceGraphic" in2="BackgroundImageFix" result="shape"/><feGaussianBlur stdDeviation=".74" result="effect1_foregroundBlur_702_3273"/></filter><filter id="filter26_f_702_3273" x="536.403" y="82.436" width="81.576" height="71.239" filterUnits="userSpaceOnUse" color-interpolation-filters="sRGB"><feFlood flood-opacity="0" result="BackgroundImageFix"/><feBlend in="SourceGraphic" in2="BackgroundImageFix" result="shape"/><feGaussianBlur stdDeviation=".74" result="effect1_foregroundBlur_702_3273"/></filter><filter id="filter27_f_702_3273" x="464.956" y="82.436" width="88.37" height="71.239" filterUnits="userSpaceOnUse" color-interpolation-filters="sRGB"><feFlood flood-opacity="0" result="BackgroundImageFix"/><feBlend in="SourceGraphic" in2="BackgroundImageFix" result="shape"/><feGaussianBlur stdDeviation=".74" result="effect1_foregroundBlur_702_3273"/></filter><filter id="filter28_f_702_3273" x="386.063" y="82.436" width="92.537" height="71.239" filterUnits="userSpaceOnUse" color-interpolation-filters="sRGB"><feFlood flood-opacity="0" result="BackgroundImageFix"/><feBlend in="SourceGraphic" in2="BackgroundImageFix" result="shape"/><feGaussianBlur stdDeviation=".74" result="effect1_foregroundBlur_702_3273"/></filter><filter id="filter29_f_702_3273" x="318.862" y="82.436" width="81.576" height="71.239" filterUnits="userSpaceOnUse" color-interpolation-filters="sRGB"><feFlood flood-opacity="0" result="BackgroundImageFix"/><feBlend in="SourceGraphic" in2="BackgroundImageFix" result="shape"/><feGaussianBlur stdDeviation=".74" result="effect1_foregroundBlur_702_3273"/></filter><filter id="filter30_f_702_3273" x="247.263" y="82.436" width="80.443" height="71.239" filterUnits="userSpaceOnUse" color-interpolation-filters="sRGB"><feFlood flood-opacity="0" result="BackgroundImageFix"/><feBlend in="SourceGraphic" in2="BackgroundImageFix" result="shape"/><feGaussianBlur stdDeviation=".74" result="effect1_foregroundBlur_702_3273"/></filter><filter id="filter31_f_702_3273" x="172.064" y="80.804" width="84.064" height="73.648" filterUnits="userSpaceOnUse" color-interpolation-filters="sRGB"><feFlood flood-opacity="0" result="BackgroundImageFix"/><feBlend in="SourceGraphic" in2="BackgroundImageFix" result="shape"/><feGaussianBlur stdDeviation=".74" result="effect1_foregroundBlur_702_3273"/></filter><filter id="filter32_f_702_3273" x="100.617" y="82.436" width="88.37" height="71.239" filterUnits="userSpaceOnUse" color-interpolation-filters="sRGB"><feFlood flood-opacity="0" result="BackgroundImageFix"/><feBlend in="SourceGraphic" in2="BackgroundImageFix" result="shape"/><feGaussianBlur stdDeviation=".74" result="effect1_foregroundBlur_702_3273"/></filter><filter id="filter33_f_702_3273" x="612.753" y="81.695" width="90.973" height="68.525" filterUnits="userSpaceOnUse" color-interpolation-filters="sRGB"><feFlood flood-opacity="0" result="BackgroundImageFix"/><feBlend in="SourceGraphic" in2="BackgroundImageFix" result="shape"/><feGaussianBlur stdDeviation=".494" result="effect1_foregroundBlur_702_3273"/></filter><filter id="filter34_f_702_3273" x="539.858" y="85.892" width="74.665" height="64.327" filterUnits="userSpaceOnUse" color-interpolation-filters="sRGB"><feFlood flood-opacity="0" result="BackgroundImageFix"/><feBlend in="SourceGraphic" in2="BackgroundImageFix" result="shape"/><feGaussianBlur stdDeviation=".494" result="effect1_foregroundBlur_702_3273"/></filter><filter id="filter35_f_702_3273" x="468.536" y="85.892" width="77.129" height="64.327" filterUnits="userSpaceOnUse" color-interpolation-filters="sRGB"><feFlood flood-opacity="0" result="BackgroundImageFix"/><feBlend in="SourceGraphic" in2="BackgroundImageFix" result="shape"/><feGaussianBlur stdDeviation=".494" result="effect1_foregroundBlur_702_3273"/></filter><filter id="filter36_f_702_3273" x="390.873" y="85.892" width="82.904" height="64.327" filterUnits="userSpaceOnUse" color-interpolation-filters="sRGB"><feFlood flood-opacity="0" result="BackgroundImageFix"/><feBlend in="SourceGraphic" in2="BackgroundImageFix" result="shape"/><feGaussianBlur stdDeviation=".494" result="effect1_foregroundBlur_702_3273"/></filter><filter id="filter37_f_702_3273" x="322.318" y="85.892" width="74.665" height="64.327" filterUnits="userSpaceOnUse" color-interpolation-filters="sRGB"><feFlood flood-opacity="0" result="BackgroundImageFix"/><feBlend in="SourceGraphic" in2="BackgroundImageFix" result="shape"/><feGaussianBlur stdDeviation=".494" result="effect1_foregroundBlur_702_3273"/></filter><filter id="filter38_f_702_3273" x="250.844" y="85.892" width="73.282" height="64.327" filterUnits="userSpaceOnUse" color-interpolation-filters="sRGB"><feFlood flood-opacity="0" result="BackgroundImageFix"/><feBlend in="SourceGraphic" in2="BackgroundImageFix" result="shape"/><feGaussianBlur stdDeviation=".494" result="effect1_foregroundBlur_702_3273"/></filter><filter id="filter39_f_702_3273" x="175.52" y="84.26" width="77.152" height="66.737" filterUnits="userSpaceOnUse" color-interpolation-filters="sRGB"><feFlood flood-opacity="0" result="BackgroundImageFix"/><feBlend in="SourceGraphic" in2="BackgroundImageFix" result="shape"/><feGaussianBlur stdDeviation=".494" result="effect1_foregroundBlur_702_3273"/></filter><filter id="filter40_f_702_3273" x="104.197" y="85.892" width="77.129" height="64.327" filterUnits="userSpaceOnUse" color-interpolation-filters="sRGB"><feFlood flood-opacity="0" result="BackgroundImageFix"/><feBlend in="SourceGraphic" in2="BackgroundImageFix" result="shape"/><feGaussianBlur stdDeviation=".494" result="effect1_foregroundBlur_702_3273"/></filter></defs></svg>