<svg width="1083" height="252" fill="none" xmlns="http://www.w3.org/2000/svg"><g style="mix-blend-mode:hard-light" filter="url(#filter0_f_702_3265)"><ellipse cx="541.6" cy="125.8" rx="483.6" ry="67.8" fill="#33E9C6" fill-opacity=".1"/></g><g style="mix-blend-mode:hard-light" filter="url(#filter1_f_702_3265)"><path fill-rule="evenodd" clip-rule="evenodd" d="M953.388 128.313l-.001.104c-.05 3-.076 7.682-.076 14.094 0 7.709.052 13.146.15 16.418l.382 12.816h-43.72l.023-2.647c-5.897 1.946-12.51 2.569-19.024 2.569h-1.391v.078h-44.534l.535-12.958c.052-1.271.101-2.531.147-3.779 1.598-1.01 2.83-2.171 3.694-3.481 1.606-2.487 2.409-5.492 2.409-9.016 0-4.24-1.881-7.284-5.644-9.131a562.713 562.713 0 00-.035-8.98c1.714-2.254 2.57-4.766 2.57-7.538 0-3.109-.777-5.674-2.331-7.695a8.646 8.646 0 00-.618-.737 811.75 811.75 0 00-.192-5.046l-.535-12.958h44.534v13.68h1.391c6.852 0 13.44.73 19.187 2.765l-.191-20.642h43.743l-.401 12.834c-.045 1.452-.072 3.88-.072 7.384v21.866zm-45.555-9.042c-4.042-1.813-9.613-2.72-16.711-2.72h-13.836v-13.68h-19.12c.176 4.265.314 8.413.416 12.445a630.82 630.82 0 01.206 15.77c0 5.041-.069 10.298-.206 15.769-.102 4.032-.24 8.18-.416 12.445h19.12v-.078h13.836c8.523 0 14.905-1.239 19.144-3.717a14.49 14.49 0 002.385-1.724 17.38 17.38 0 002.849-3.328l.009-.014c2.137-3.261 3.205-7.303 3.205-12.125 0-3.873-.579-7.241-1.738-10.104a18.704 18.704 0 00-.671-1.477c-1.236-2.471-3.192-4.513-5.868-6.125a22.35 22.35 0 00-2.604-1.337zm-11.815 12.825a21.084 21.084 0 00-2.094-.302c-.389-.039-.8-.074-1.234-.104a59.739 59.739 0 00-2.959-.122 85.882 85.882 0 00-1.719-.016h-10.726v12.281h10.726c.598 0 1.171-.005 1.719-.013a74.453 74.453 0 002.822-.092 47.304 47.304 0 001.544-.106 25.68 25.68 0 002.077-.256c1.865-.362 3.16-.958 3.886-1.787.725-.83 1.088-2.099 1.088-3.809s-.389-3.005-1.166-3.886c-.777-.881-2.098-1.477-3.964-1.788zm26.88-8.714l.001.054c.008 1.761.012 3.352.012 4.774 0 2.757-.014 6.125-.043 10.104-.019 2.589-.043 5.436-.074 8.541l-.038 3.662-.078 8.783h18.343c-.083-2.783-.133-6.931-.149-12.445a1485.06 1485.06 0 01-.006-4.344c0-6.425.026-11.192.078-14.301v-21.763c0-3.524.025-6.115.077-7.773h-18.343l.078 8.394.044 4.051.035 3.553c.03 3.257.051 6.16.063 8.71z" fill="#00A8A8"/></g><g style="mix-blend-mode:hard-light" filter="url(#filter2_f_702_3265)"><path fill-rule="evenodd" clip-rule="evenodd" d="M821.902 117.095c1.489 0 2.771.06 3.845.179l.119.013c1.11.13 1.991.325 2.642.585 1.347.467 2.021 1.296 2.021 2.487 0 1.503-.648 2.54-1.943 3.11-.548.251-1.288.447-2.218.587l-.353.05c-1.12.145-2.491.217-4.113.217h-14.924v-7.228h14.924zm-14.924-14.224v.078h16.556c6.425 0 11.477.544 15.156 1.632 3.731 1.037 6.348 2.565 7.851 4.586 1.554 2.021 2.331 4.586 2.331 7.695a12.2 12.2 0 01-.619 3.894c-.546 1.635-1.454 3.161-2.723 4.578-1.184 1.325-2.836 2.512-4.956 3.561-.413.205-.845.404-1.294.598-1.48.64-3.153 1.222-5.02 1.748 1.539 0 2.977.064 4.316.191 1.025.098 1.992.233 2.9.406 4.571.868 7.65 2.685 9.238 5.451.845 1.472 1.267 3.213 1.267 5.222 0 3.524-.803 6.529-2.409 9.016-1.606 2.436-4.482 4.353-8.628 5.752-4.145 1.347-9.897 2.021-17.255 2.021h-34.976c.176-4.265.314-8.413.415-12.445a626.17 626.17 0 00.207-15.769c0-5.042-.069-10.299-.207-15.77-.101-4.032-.239-8.18-.415-12.445h18.265zm14.924 42.205c2.058 0 3.738-.06 5.041-.181a23.391 23.391 0 001.099-.13c1.451-.259 2.487-.673 3.109-1.243.622-.622.933-1.451.933-2.488 0-1.347-.752-2.305-2.254-2.875-.688-.295-1.644-.52-2.867-.675l-.226-.028a29.733 29.733 0 00-1.804-.152 53.521 53.521 0 00-3.031-.078h-14.924v7.85h14.924zm36.875-17.276a606.244 606.244 0 01-.101 14.711c-.088 4.708-.23 9.582-.425 14.622l-.004.116-.082 2.051h1.155c-3.732 5.082-9.184 8.011-14.396 9.77l-.067.023-.066.022c-5.952 1.934-13.205 2.63-21.102 2.63h-47.945l.513-12.445h6.242l-.011-.257c-.355-8.684-.533-18.003-.533-27.957 0-9.933.179-19.252.537-27.958l.007-.179h-6.238l-.517-12.523h43.679v.078h4.111c6.888 0 13.268.558 18.586 2.114 4.988 1.4 10.541 3.977 14.345 9.04a22.787 22.787 0 011.759 2.678c.169 4.295.301 8.47.394 12.526a641.08 641.08 0 01.159 10.938z" fill="#00A8A8"/></g><g style="mix-blend-mode:hard-light" filter="url(#filter3_f_702_3265)"><path fill-rule="evenodd" clip-rule="evenodd" d="M735.009 146.553l1.322-43.604h-19.043c.176 4.27.315 8.418.416 12.445.137 5.453.206 10.684.206 15.692 0 5.041-.069 10.298-.206 15.769-.102 4.032-.24 8.18-.416 12.445h27.826l18.809-42.438-1.399 42.438H782.5a605.14 605.14 0 01-.385-12.445 754.565 754.565 0 01-.159-15.769c0-5.413.053-10.644.159-15.692.09-4.279.218-8.428.385-12.445h-28.603l-18.888 43.604zm-30.69 25.192l.535-12.958c.408-9.906.611-19.138.611-27.701a598.4 598.4 0 00-.126-12.058c1.885.05 3.784.105 5.696.166v-16.323h-6.206l-.51-12.367h91.152l-.513 12.367h-6.245l.014.336c.406 9.926.608 19.219.608 27.879 0 8.682-.203 18.001-.611 27.956l-.011.258h6.242l.516 12.445h-91.152z" fill="#00A8A8"/></g><g style="mix-blend-mode:hard-light" filter="url(#filter4_f_702_3265)"><path fill-rule="evenodd" clip-rule="evenodd" d="M717.909 131.864l-7.271-.232a975.748 975.748 0 00-10.865-.286v40.399h-44.321v-40.4c-3.561.074-7.155.17-10.783.287l-12.846.414v-41.62h91.656v12.523h-6.191a752.75 752.75 0 01.501 16.245c.08 4.094.12 8.058.12 11.892v.778zm-61.196-12.991c3.763-.072 7.491-.121 11.184-.146V159.3h19.431v-40.573a888.981 888.981 0 0112.445.171c3.703.076 7.456.174 11.261.296v-16.323h-66.766v16.323c3.762-.122 7.49-.22 11.184-.296l1.261-.025z" fill="#00A8A8"/></g><g style="mix-blend-mode:hard-light" filter="url(#filter5_f_702_3265)"><path fill-rule="evenodd" clip-rule="evenodd" d="M611.02 171.745l-2.836-8.51c-.267-.801-.564-1.67-.889-2.605h-7.231l-3.886 11.115h-46.48l31.363-81.319h18.604l4.24-11.026 4.071 11.026h18.743l31.587 81.319H611.02zm-21.421-68.874L567.836 159.3h19.509l3.887-11.115h24.794l.119.32c1.602 4.314 2.884 7.912 3.845 10.795h20.131l-21.919-56.429h-28.603zm14.069 11.815l-.242.63c-.66 1.721-1.424 3.737-2.293 6.046l-.023.061-.823 2.192c-.978 2.613-2.071 5.549-3.279 8.808l-1.228 3.317-.118.32h15.934l-.116-.32a1094.832 1094.832 0 00-4.479-12.125 1020.94 1020.94 0 00-1.468-3.877l-1.865-5.052z" fill="#00A8A8"/></g><g style="mix-blend-mode:hard-light" filter="url(#filter6_f_702_3265)"><path fill-rule="evenodd" clip-rule="evenodd" d="M520.993 102.871v.078h16.167c10.312 0 17.489 1.839 21.53 5.518 4.042 3.628 6.063 8.758 6.063 15.39 0 4.56-.803 8.446-2.41 11.659-1.606 3.161-4.43 5.648-8.472 7.462-4.041 1.761-9.612 2.642-16.711 2.642h-16.167v13.68h-19.12c.176-4.265.314-8.413.416-12.445.137-5.471.206-10.728.206-15.769 0-5.042-.069-10.299-.206-15.77-.102-4.032-.24-8.18-.416-12.445h19.12zm24.873 25.416c.88-.88 1.321-2.176 1.321-3.886s-.415-2.979-1.244-3.808c-.777-.881-2.254-1.477-4.43-1.788a31.567 31.567 0 00-2.085-.227 50.41 50.41 0 00-1.143-.079 99.39 99.39 0 00-4.847-.152c-.552-.006-1.125-.008-1.719-.008h-10.726v12.28h10.726c.594 0 1.167-.003 1.719-.009a92.382 92.382 0 005.039-.171c.478-.031.928-.067 1.349-.106l.041-.004c.545-.052 1.042-.11 1.49-.176 2.177-.363 3.679-.985 4.509-1.866zm-12.428 29.778v13.68h-44.534l.535-12.958c.126-3.052.232-6.041.319-8.966 3.869-4.792 5.841-11.037 5.918-18.735l.002-.467c0-7.76-1.981-14.089-5.942-18.988a807.989 807.989 0 00-.297-8.247l-.535-12.958h44.534v.078h3.722c10.971 0 22.223 1.793 29.871 8.727 7.222 6.498 10.167 15.319 10.167 24.626 0 5.986-1.052 11.882-3.724 17.224l-.018.037-.018.036c-3.189 6.275-8.499 10.498-14.472 13.178l-.061.027-.061.027c-6.278 2.736-13.795 3.679-21.684 3.679h-3.722z" fill="#00A8A8"/></g><g style="mix-blend-mode:hard-light" filter="url(#filter7_f_702_3265)"><path fill-rule="evenodd" clip-rule="evenodd" d="M426.386 161.535l-.023-.021a36.804 36.804 0 01-6.333-7.677 711.606 711.606 0 01-.344-22.751v-.467c.004-8.157.129-15.885.373-23.186a36.965 36.965 0 016.184-7.514l.021-.02.022-.019c8.894-8.236 21.368-11.086 34.726-11.086 13.367 0 25.879 2.832 34.746 11.104a36.975 36.975 0 016.293 7.611c.289 8.147.437 15.85.443 23.11v.467c0 7.178-.139 14.791-.418 22.84a36.352 36.352 0 01-6.263 7.591c-8.877 8.213-21.413 11.005-34.801 11.005-13.298 0-25.717-2.82-34.603-10.966l-.023-.021zm60.897-52.523c-5.544-5.182-14.301-7.773-26.271-7.773-11.918 0-20.675 2.591-26.271 7.773-5.545 5.181-8.317 12.384-8.317 21.607 0 9.327 2.798 16.582 8.394 21.763 5.597 5.13 14.328 7.695 26.194 7.695 12.021 0 20.804-2.565 26.349-7.695 5.544-5.129 8.316-12.384 8.316-21.763 0-9.223-2.798-16.426-8.394-21.607zm-22.504 22.469c.02-.236.033-.521.033-.862 0-.303-.012-.559-.028-.77-.782-.162-2.001-.309-3.772-.309-1.735 0-2.929.144-3.694.304a9.759 9.759 0 00-.028.775c0 .338.013.621.033.855.765.159 1.958.302 3.689.302 1.742 0 2.963-.137 3.767-.295zm8.669 9.476c-2.539 2.176-6.684 3.264-12.436 3.264-5.7 0-9.819-1.114-12.358-3.342-2.54-2.228-3.809-5.648-3.809-10.26 0-4.56 1.269-7.954 3.809-10.182 2.539-2.228 6.658-3.342 12.358-3.342 5.752 0 9.897 1.114 12.436 3.342 2.539 2.228 3.809 5.622 3.809 10.182 0 4.664-1.27 8.11-3.809 10.338z" fill="#00A8A8"/></g><g style="mix-blend-mode:hard-light" filter="url(#filter8_f_702_3265)"><path fill-rule="evenodd" clip-rule="evenodd" d="M433.201 90.426l-.537 12.96c-.11 2.654-.203 5.371-.279 8.153-3.974 4.912-5.961 11.272-5.961 19.08 0 .156.001.312.003.467.077 7.631 2.055 13.853 5.935 18.668.08 3.089.181 6.099.302 9.031l.537 12.96H389.52v-40.728h-1.382v40.728h-43.679l.534-12.958c.275-6.66.457-13.015.546-19.067 1.395-1.236 2.49-2.637 3.287-4.204a21.162 21.162 0 001.605-4.43c.536-2.185.804-4.595.804-7.229 0-6.624-2.016-11.75-6.048-15.376a756.116 756.116 0 00-.194-5.097l-.534-12.958h88.742zm-57.508 28.146h26.271V159.3h18.266a619.65 619.65 0 01-.385-12.445 754.565 754.565 0 01-.159-15.769c0-5.447.053-10.704.159-15.77.091-4.284.219-8.432.385-12.445h-62.802c.175 4.265.314 8.413.415 12.445.138 5.471.206 10.728.206 15.77 0 5.041-.068 10.298-.206 15.769a780.65 780.65 0 01-.415 12.445h18.265v-40.728z" fill="#00A8A8"/></g><g style="mix-blend-mode:hard-light" filter="url(#filter9_f_702_3265)"><path fill-rule="evenodd" clip-rule="evenodd" d="M307.476 102.871v.078h16.167c10.311 0 17.488 1.839 21.53 5.518 4.041 3.628 6.062 8.758 6.062 15.39 0 4.56-.803 8.446-2.409 11.659-1.607 3.161-4.431 5.648-8.472 7.462-4.042 1.761-9.612 2.642-16.711 2.642h-16.167v13.68h-19.121c.176-4.265.315-8.413.416-12.445.137-5.471.206-10.728.206-15.769 0-5.042-.069-10.299-.206-15.77-.101-4.032-.24-8.18-.416-12.445h19.121zm12.445 55.194v13.68h-44.534l.534-12.958c.126-3.052.232-6.041.319-8.966 3.869-4.792 5.842-11.037 5.918-18.735.002-.155.002-.311.002-.467 0-7.76-1.98-14.089-5.942-18.988a754.321 754.321 0 00-.297-8.247l-.534-12.958h44.534v.078h3.722c10.973 0 22.226 1.793 29.874 8.73a29.7 29.7 0 013.938 4.308c.287 7.096.47 13.868.549 20.315a572.96 572.96 0 01-.024 16.236l-.001.075a660.585 660.585 0 01-.08 4.321c-3.195 4.478-7.604 7.668-12.451 9.843l-.06.027-.062.027c-6.278 2.736-13.794 3.679-21.683 3.679h-3.722zm12.505-37.472c-.778-.881-2.254-1.477-4.431-1.788a31.525 31.525 0 00-2.084-.227 50.511 50.511 0 00-1.144-.079 99.345 99.345 0 00-4.846-.152 159.06 159.06 0 00-1.719-.008h-10.726v12.28h10.726c.594 0 1.166-.003 1.719-.009a92.418 92.418 0 005.039-.171 48.93 48.93 0 001.348-.106l.041-.004c.545-.052 1.042-.11 1.491-.176 2.176-.363 3.679-.985 4.508-1.866.881-.88 1.321-2.176 1.321-3.886s-.414-2.979-1.243-3.808z" fill="#00A8A8"/></g><g style="mix-blend-mode:hard-light" filter="url(#filter10_f_702_3265)"><path fill-rule="evenodd" clip-rule="evenodd" d="M212.869 161.535l-.023-.021c-8.692-8.049-12.384-18.933-12.384-30.895 0-11.87 3.671-22.669 12.264-30.7l.021-.02.021-.019c8.895-8.236 21.369-11.086 34.727-11.086 13.368 0 25.881 2.833 34.748 11.106a36.965 36.965 0 016.29 7.609c.29 8.147.438 15.85.444 23.11v.467c0 7.178-.139 14.791-.418 22.84a36.326 36.326 0 01-6.264 7.591c-8.876 8.213-21.413 11.005-34.8 11.005-13.298 0-25.717-2.82-34.603-10.966l-.023-.021zm60.897-52.523c-5.545-5.182-14.302-7.773-26.271-7.773-11.918 0-20.675 2.591-26.272 7.773-5.544 5.181-8.316 12.384-8.316 21.607 0 9.327 2.798 16.582 8.394 21.763 5.596 5.13 14.327 7.695 26.194 7.695 12.021 0 20.804-2.565 26.349-7.695 5.544-5.129 8.316-12.384 8.316-21.763 0-9.223-2.798-16.426-8.394-21.607zm-21.507 22.193l.006-.003-.006.003zm7.672 9.752c-2.539 2.176-6.685 3.264-12.436 3.264-5.7 0-9.82-1.114-12.359-3.342-2.539-2.228-3.808-5.648-3.808-10.26 0-4.56 1.269-7.954 3.808-10.182 2.539-2.228 6.659-3.342 12.359-3.342 5.751 0 9.897 1.114 12.436 3.342 2.539 2.228 3.808 5.622 3.808 10.182 0 4.664-1.269 8.11-3.808 10.338zm-8.669-9.476a10.754 10.754 0 00.004-1.632c-.781-.162-2-.309-3.771-.309-1.735 0-2.929.144-3.694.304a9.703 9.703 0 00-.029.775c0 .338.014.621.034.855.765.159 1.957.302 3.689.302 1.741 0 2.963-.137 3.767-.295zm-8.344-.263l.006.003-.006-.003zm0-1.12l.006-.003-.006.003zm9.243.009l-.006-.003.006.003z" fill="#00A8A8"/></g><g style="mix-blend-mode:hard-light" filter="url(#filter11_f_702_3265)"><path fill-rule="evenodd" clip-rule="evenodd" d="M202.145 124.892l34.578-34.466h-61.756l-1.46 2.074v-2.074H128.74l.535 12.958c.408 9.906.611 19.138.611 27.702 0 8.563-.203 17.795-.611 27.701l-.535 12.958h44.767v-4.318l1.524 4.318h52.441l-9.815-18.322c-.313-.584-1.086-2.338-2.361-5.856-1.687-4.771-3.53-9.09-5.582-12.827-1.963-3.702-4.535-6.975-7.569-9.848zm-8.819 8.791a33.15 33.15 0 00-1.562-1.354 36.133 36.133 0 00-9.327-5.363l24.173-24.095h-25.183c-2.069 2.939-4.708 6.207-7.92 9.803-2.884 3.23-6.228 6.724-10.034 10.484l-.079.077c-1.036 0-1.813-.026-2.332-.077v-20.287h-19.353c.176 4.265.314 8.413.415 12.445.138 5.471.207 10.728.207 15.77 0 5.041-.069 10.298-.207 15.769-.101 4.032-.239 8.18-.415 12.445h19.353v-19.198c4.56 0 8.136.285 10.727.855.595.116 1.168.267 1.718.452a11.795 11.795 0 014.888 3.123c1.088 1.192 1.917 2.591 2.487 4.197.622 1.607 1.192 3.602 1.71 5.985.519 2.177.933 3.705 1.244 4.586h22.851c-.777-1.451-1.813-3.964-3.109-7.539a96.8 96.8 0 00-1.872-4.906c-.963-2.325-1.945-4.394-2.947-6.209-1.32-2.514-3.131-4.835-5.433-6.963z" fill="#00A8A8"/></g><g style="mix-blend-mode:hard-light" filter="url(#filter12_f_702_3265)"><path fill-rule="evenodd" clip-rule="evenodd" d="M957.218 128.345l-.003.136c-.049 2.967-.075 7.622-.075 14.03 0 7.705.052 13.093.148 16.303l.5 16.76H906.26l.013-1.481c-4.198.888-8.521 1.272-12.713 1.374v.107h-52.353l.699-16.945.069-1.718c3.595-1.361 6.128-3.155 7.598-5.384 1.606-2.487 2.409-5.492 2.409-9.016 0-5.492-3.156-8.977-9.469-10.454l.001-.971c0-1.077-.004-2.165-.01-3.264 1.221-.767 2.23-1.596 3.027-2.488 2.228-2.487 3.342-5.311 3.342-8.472 0-3.109-.777-5.674-2.331-7.695-1.012-1.36-2.527-2.497-4.548-3.411-.028-.734-.058-1.472-.088-2.214l-.699-16.945h52.353v13.711c4.382.112 8.733.545 12.872 1.478l-.179-19.386h51.559l-.525 16.782c-.043 1.389-.069 3.767-.069 7.265v21.898zm-49.385-9.074a21.657 21.657 0 00-1.238-.509c-2.146-.808-4.665-1.394-7.558-1.76a66.78 66.78 0 00-.493-.059c-2.254-.261-4.728-.392-7.422-.392h-13.836v-13.68h-19.12c.232 5.628.399 11.053.501 16.274.081 4.106.121 8.086.121 11.941 0 3.854-.04 7.834-.121 11.94a752.143 752.143 0 01-.501 16.274h19.12v-.078h13.836c2.798 0 5.365-.133 7.701-.4l.348-.041c1.955-.237 3.745-.569 5.37-.997.654-.172 1.281-.36 1.881-.562 2.562-.866 4.639-2.013 6.23-3.441 1.099-1 2.048-2.109 2.848-3.328l.009-.014c2.137-3.261 3.205-7.303 3.205-12.125 0-3.873-.579-7.241-1.738-10.104a18.704 18.704 0 00-.671-1.477c-1.607-3.213-4.431-5.7-8.472-7.462zm15.065 4.111l.001.054c.008 1.761.012 3.352.012 4.774 0 2.757-.014 6.125-.043 10.104a3992.165 3992.165 0 01-.112 12.203l-.078 8.783h18.343c-.101-3.394-.153-8.819-.155-16.274v-.515c0-6.425.026-11.192.078-14.301v-21.763c0-3.524.026-6.115.077-7.773h-18.343l.078 8.394.026 2.369c.021 1.939.039 3.776.055 5.511.029 3.145.049 5.957.061 8.434zm-23.14 10.27c-.797-.755-2.043-1.273-3.74-1.556a21.084 21.084 0 00-2.094-.302l-.364-.035a47.88 47.88 0 00-2.438-.152 76.984 76.984 0 00-3.109-.055h-10.727v12.281h10.727l.696-.002c.859-.005 1.663-.02 2.413-.043a58.862 58.862 0 002.438-.123l.147-.011.39-.032a25.68 25.68 0 002.077-.256c1.246-.242 2.238-.589 2.976-1.039a3.91 3.91 0 00.91-.748c.725-.83 1.088-2.099 1.088-3.809s-.388-3.005-1.166-3.886a3.487 3.487 0 00-.224-.232zm-4.773 4.641l.173-.152zm.173-.152l.895 4.606z" fill="#00A8A8"/></g><g style="mix-blend-mode:hard-light" filter="url(#filter13_f_702_3265)"><path fill-rule="evenodd" clip-rule="evenodd" d="M830.392 119.5a2.574 2.574 0 01.138.859l-.001.128c-.01.383-.063.735-.16 1.055-.266.879-.86 1.521-1.782 1.927-.548.251-1.288.447-2.218.587l-.353.05c-.795.103-1.716.169-2.763.199-.429.012-.879.018-1.35.018h-14.924v-7.228h14.924a48.357 48.357 0 011.632.027c.816.028 1.554.078 2.213.152l.119.013c1.11.13 1.991.325 2.642.585.996.345 1.623.887 1.883 1.628zm-23.413-16.629v.078h16.556c3.793 0 7.107.19 9.943.569.248.033.491.067.732.103 1.282.192 2.46.426 3.534.7.325.083.641.17.947.26 3.731 1.037 6.348 2.565 7.851 4.586 1.554 2.021 2.331 4.586 2.331 7.695v.071c-.014 2.666-.823 5.091-2.427 7.276-.28.382-.585.757-.915 1.125-.719.805-1.611 1.559-2.675 2.262-2.157 1.424-5.022 2.639-8.595 3.645 3.39 0 6.293.309 8.71.928 1.5.384 2.813.886 3.938 1.508 2.979 1.646 4.646 4.127 5.001 7.441.048.449.072.914.072 1.393 0 3.524-.803 6.529-2.409 9.016-1.606 2.436-4.482 4.353-8.628 5.752-.587.191-1.208.369-1.86.533-2.394.601-5.224 1.021-8.488 1.257a97.238 97.238 0 01-6.907.231h-34.976c.232-5.628.399-11.052.501-16.274.08-4.106.121-8.086.121-11.94 0-3.855-.041-7.835-.121-11.941a752.338 752.338 0 00-.501-16.274h18.265zm16.274-16.196h.282c7.033 0 13.821.562 19.64 2.262 5.386 1.513 11.836 4.417 16.343 10.409a26.583 26.583 0 012.271 3.525h-3.623c.198 4.812.349 9.476.453 13.991.04 1.757.073 3.492.099 5.204a604.327 604.327 0 01.057 12.802 614.253 614.253 0 01-.098 7.643c-.088 4.708-.23 9.582-.425 14.622l-.004.116-.082 2.051h5.73c-.209.354-.426.707-.652 1.056l-.043.066-.043.066c-4.382 6.644-11.067 10.205-17.009 12.211l-.086.029-.088.028c-6.508 2.115-14.223 2.818-22.285 2.818h-51.935l.671-16.274H782.5l-.011-.257c-.355-8.684-.533-18.003-.533-27.957 0-9.933.179-19.252.537-27.958l.007-.179h-10.071l-.674-16.352h51.498v.078zm-16.274 58.401h14.924a97.007 97.007 0 001.787-.017 46.134 46.134 0 003.254-.164 25.04 25.04 0 001.099-.13c1.451-.259 2.487-.673 3.109-1.243.265-.265.473-.568.626-.908.204-.458.307-.985.307-1.58 0-.561-.131-1.054-.391-1.481-.365-.597-.987-1.062-1.863-1.394-.688-.295-1.644-.52-2.867-.675l-.226-.028a29.733 29.733 0 00-1.804-.152 48.15 48.15 0 00-1.681-.064 64.798 64.798 0 00-1.35-.014h-14.924v7.85z" fill="#00A8A8"/></g><g style="mix-blend-mode:hard-light" filter="url(#filter14_f_702_3265)"><path fill-rule="evenodd" clip-rule="evenodd" d="M735.009 146.553l1.322-43.604h-19.043c.232 5.636.4 11.061.502 16.274.08 4.084.12 8.038.12 11.863 0 3.854-.04 7.834-.121 11.94a752.143 752.143 0 01-.501 16.274h27.826l18.809-42.438-1.399 42.438H782.5a623.404 623.404 0 01-.454-16.274c-.06-3.873-.09-7.853-.09-11.94 0-4.057.03-8.011.089-11.863.088-5.644.239-11.069.455-16.274h-28.603l-18.888 43.604zm-34.68 29.021l.699-16.945c.407-9.861.608-19.04.608-27.543 0-3.901-.043-7.951-.129-12.151 3.139.07 6.315.156 9.528.259v-16.323h-10.038l-.668-16.196h99.133l-.671 16.196h-10.077l.013.336c.406 9.926.608 19.219.608 27.879 0 8.682-.203 18.001-.611 27.956l-.01.258h10.074l.674 16.274h-99.133z" fill="#00A8A8"/></g><g style="mix-blend-mode:hard-light" filter="url(#filter15_f_702_3265)"><path fill-rule="evenodd" clip-rule="evenodd" d="M717.891 135.694l-7.375-.235c-2.325-.074-4.63-.139-6.914-.196v40.311h-51.979v-40.311c-2.263.057-4.54.122-6.83.196l-13.76.444-3.039-7.823V86.597h99.314v16.352h-10.02a752.75 752.75 0 01.501 16.245 609.171 609.171 0 01.102 16.5zM667.897 159.3h19.431v-40.573a940.875 940.875 0 0122.149.418l1.557.049v-16.323h-66.766v16.323a843.424 843.424 0 017.355-.21 910.901 910.901 0 0116.274-.257V159.3z" fill="#00A8A8"/></g><g style="mix-blend-mode:hard-light" filter="url(#filter16_f_702_3265)"><path fill-rule="evenodd" clip-rule="evenodd" d="M604.555 164.459h-1.774l-3.886 11.115h-54.778l13.346-34.604c2.175-1.515 3.802-3.333 4.88-5.454 1.606-3.213 2.409-7.099 2.409-11.659 0-.568-.014-1.126-.044-1.672l13.725-35.588h18.602l6.943-18.053 6.666 18.053h18.695l34.562 88.977H608.26l-3.705-11.115zm-14.956-61.588L567.836 159.3h19.509l3.886-11.115h24.795a515.258 515.258 0 011.525 4.149 287.194 287.194 0 012.439 6.966h20.131l-21.919-56.429h-28.603zm14.068 11.815l1.866 5.052.018.048a1034.787 1034.787 0 016.045 16.274h-15.934l1.535-4.149c1.48-3.991 2.784-7.487 3.913-10.488l.023-.061a490.192 490.192 0 01.836-2.217c.631-1.67 1.197-3.157 1.698-4.459z" fill="#00A8A8"/></g><g style="mix-blend-mode:hard-light" filter="url(#filter17_f_702_3265)"><path fill-rule="evenodd" clip-rule="evenodd" d="M545.866 128.287c.881-.88 1.321-2.176 1.321-3.886s-.415-2.979-1.244-3.808a3.746 3.746 0 00-1.005-.783c-.829-.462-1.971-.797-3.425-1.005a31.525 31.525 0 00-2.085-.227 60.373 60.373 0 00-2.161-.132l-.107-.005a91.687 91.687 0 00-1.821-.061 143.782 143.782 0 00-3.619-.041h-10.727v12.28h10.727a166.692 166.692 0 002.89-.026c.473-.01.929-.021 1.368-.035.409-.014.803-.029 1.182-.046l.107-.005a56.615 56.615 0 002.559-.174l.041-.004c.545-.052 1.042-.11 1.491-.176 1.885-.314 3.265-.823 4.139-1.526a3.67 3.67 0 00.369-.34zm6.098 15.419c-2.295.765-4.988 1.301-8.08 1.608l-.304.029a69.214 69.214 0 01-6.42.277h-16.167v13.68h-19.12c.232-5.628.399-11.052.501-16.274.081-4.106.121-8.086.121-11.94 0-3.855-.04-7.835-.121-11.941a752.338 752.338 0 00-.501-16.274h19.12v.078h16.167c2.356 0 4.548.096 6.577.288l.053.005c2.28.218 4.351.557 6.216 1.019 3.718.919 6.613 2.321 8.684 4.206 4.042 3.628 6.063 8.758 6.063 15.39 0 4.56-.803 8.446-2.41 11.659-1.606 3.161-4.43 5.648-8.472 7.462a22.89 22.89 0 01-1.907.728zm17.639-47.311c-8.728-7.915-21.184-9.709-32.336-9.72v-.078h-52.353l.699 16.945c.058 1.409.112 2.803.162 4.184.527.409 1.03.838 1.509 1.286 5.596 5.181 8.394 12.384 8.394 21.607l-.002.467c-.091 9.153-2.862 16.252-8.315 21.296-.494.458-1.014.895-1.56 1.311a851.99 851.99 0 01-.188 4.936l-.699 16.945h52.353v-13.68c8.096-.008 16.171-.975 23.107-3.998l.08-.035.08-.036c3.839-1.722 7.51-4.063 10.631-7.156l9.847-25.531c.01-.427.015-.854.015-1.281 0-10.128-3.228-20.083-11.424-27.462z" fill="#00A8A8"/></g><g style="mix-blend-mode:hard-light" filter="url(#filter18_f_702_3265)"><path fill-rule="evenodd" clip-rule="evenodd" d="M423.792 164.351l-.03-.027a41.122 41.122 0 01-4.601-5.024h1.069c-.362-8.757-.544-18.162-.544-28.214v-.467c.006-9.877.187-19.126.544-27.748h-1.709a41.06 41.06 0 015.108-5.75l.028-.025.028-.026c9.909-9.175 23.526-12.105 37.327-12.105 13.801 0 27.469 2.907 37.358 12.133a41.12 41.12 0 015.162 5.773h-1.659c.407 9.875.614 19.124.622 27.748v.467c0 8.757-.207 18.161-.622 28.214h1.139a40.591 40.591 0 01-4.598 5.028c-9.902 9.161-23.594 12.023-37.402 12.023-13.738 0-27.291-2.898-37.19-11.972l-.03-.028zm63.492-55.339c-3.49-3.262-8.253-5.497-14.289-6.706-3.553-.711-7.547-1.067-11.983-1.067-4.382 0-8.337.35-11.864 1.051-6.066 1.205-10.868 3.445-14.407 6.722-5.544 5.181-8.316 12.384-8.316 21.607 0 9.327 2.798 16.582 8.394 21.763 3.533 3.239 8.314 5.455 14.345 6.649 3.523.697 7.473 1.046 11.848 1.046 4.439 0 8.437-.349 11.993-1.049 6.074-1.195 10.859-3.41 14.356-6.646 5.545-5.129 8.317-12.384 8.317-21.763 0-9.223-2.798-16.426-8.394-21.607zm-34.298 34.181c2.189.685 4.865 1.028 8.026 1.028 3.241 0 5.972-.345 8.192-1.036 1.721-.535 3.136-1.278 4.245-2.228 2.539-2.228 3.808-5.674 3.808-10.338 0-4.56-1.269-7.954-3.808-10.182-1.122-.984-2.557-1.751-4.305-2.3-2.21-.695-4.92-1.042-8.132-1.042-3.164 0-5.842.343-8.033 1.03-1.754.551-3.196 1.321-4.325 2.312-2.539 2.228-3.808 5.622-3.808 10.182 0 4.612 1.269 8.032 3.808 10.26 1.131.992 2.575 1.764 4.332 2.314z" fill="#00A8A8"/></g><g style="mix-blend-mode:hard-light" filter="url(#filter19_f_702_3265)"><path fill-rule="evenodd" clip-rule="evenodd" d="M437.192 86.597l-.702 16.948a551.287 551.287 0 00-.155 4.126c-.557.426-1.089.873-1.594 1.341-5.545 5.181-8.317 12.384-8.317 21.607 0 .156.001.312.003.467.092 9.102 2.889 16.201 8.392 21.296.473.434.969.85 1.487 1.247.055 1.691.116 3.357.184 4.998l.702 16.947h-96.723l.698-16.945c.234-5.652.399-11.08.498-16.286 3.347-1.744 5.734-4.02 7.161-6.827a21.162 21.162 0 001.605-4.43c.536-2.185.804-4.595.804-7.229 0-6.632-2.021-11.762-6.063-15.39-1.079-.982-2.383-1.834-3.91-2.554a701.03 701.03 0 00-.095-2.371l-.698-16.945h96.723zM401.964 159.3h18.266a627.834 627.834 0 01-.454-16.274c-.06-3.873-.09-7.853-.09-11.94 0-4.088.03-8.068.09-11.941.087-5.653.239-11.077.454-16.274h-62.802c.232 5.628.399 11.053.501 16.274.08 4.106.12 8.086.12 11.941 0 3.854-.04 7.834-.12 11.94a752.143 752.143 0 01-.501 16.274h18.265v-40.728h26.271V159.3z" fill="#00A8A8"/></g><g style="mix-blend-mode:hard-light" filter="url(#filter20_f_702_3265)"><path fill-rule="evenodd" clip-rule="evenodd" d="M331.421 119.81c-.83-.462-1.972-.797-3.426-1.005a31.525 31.525 0 00-2.084-.227 60.663 60.663 0 00-2.161-.132l-.107-.005a91.687 91.687 0 00-1.822-.061 143.594 143.594 0 00-3.619-.041h-10.726v12.28h10.726a166.52 166.52 0 002.89-.026c.474-.01.93-.021 1.369-.035.409-.014.803-.029 1.182-.046l.107-.005a56.563 56.563 0 002.558-.174l.041-.004c.546-.052 1.043-.11 1.491-.176 1.886-.314 3.266-.823 4.14-1.526.135-.109.257-.222.368-.34.881-.88 1.321-2.176 1.321-3.886s-.414-2.979-1.243-3.808a3.746 3.746 0 00-1.005-.783zm7.025 23.896c-2.295.765-4.988 1.301-8.079 1.608l-.304.029c-1.98.185-4.12.277-6.42.277h-16.167v13.68h-19.121c.232-5.628.4-11.052.502-16.274.08-4.106.12-8.086.12-11.94 0-3.855-.04-7.835-.12-11.941a752.503 752.503 0 00-.502-16.274h19.121v.078h16.167c2.356 0 4.548.096 6.576.288l.054.005c2.279.218 4.351.558 6.216 1.018 3.718.92 6.612 2.322 8.684 4.207 4.041 3.628 6.062 8.758 6.062 15.39 0 4.56-.803 8.446-2.409 11.659-1.606 3.161-4.43 5.648-8.472 7.462-.602.262-1.238.505-1.908.728zm17.637-47.313c-8.728-7.913-21.182-9.707-32.333-9.718v-.078h-52.354l.699 16.945c.058 1.409.112 2.803.162 4.184.527.409 1.03.838 1.509 1.286 5.596 5.181 8.394 12.384 8.394 21.607 0 .156 0 .312-.002.467-.091 9.153-2.862 16.252-8.314 21.296a21.53 21.53 0 01-1.56 1.311c-.057 1.626-.12 3.272-.189 4.936l-.699 16.945h52.354v-13.68c8.096-.008 16.171-.975 23.107-3.998l.08-.035.079-.036c3.877-1.739 7.583-4.11 10.725-7.249.107-3.557.187-7.026.238-10.408l.001-.075a572.96 572.96 0 00.024-16.236 723.458 723.458 0 00-.576-20.986h4.233a33.29 33.29 0 00-5.578-6.478z" fill="#00A8A8"/></g><g style="mix-blend-mode:hard-light" filter="url(#filter21_f_702_3265)"><path fill-rule="evenodd" clip-rule="evenodd" d="M210.274 164.351l-.03-.027a41.202 41.202 0 01-4.601-5.024h1.045c-.778-1.451-1.814-3.964-3.11-7.539-1.554-4.405-3.16-8.11-4.818-11.115a23.618 23.618 0 00-1.669-2.712 57.08 57.08 0 01-.458-7.315c0-8.332 1.703-16.328 5.573-23.359l4.404-4.389h-1.606a40.99 40.99 0 015.107-5.75l.028-.025.028-.026c9.909-9.175 23.527-12.105 37.328-12.105 13.799 0 27.465 2.907 37.354 12.13a41.096 41.096 0 015.166 5.776h-1.66c.407 9.875.615 19.124.622 27.748v.467c0 8.757-.207 18.161-.622 28.214h1.139a40.513 40.513 0 01-4.598 5.028c-9.902 9.161-23.593 12.023-37.401 12.023-13.738 0-27.292-2.898-37.191-11.972l-.03-.028zm63.492-55.339c-3.49-3.262-8.253-5.497-14.289-6.706-3.553-.711-7.547-1.067-11.982-1.067-4.383 0-8.338.35-11.865 1.051-6.066 1.205-10.868 3.445-14.407 6.722-5.544 5.181-8.316 12.384-8.316 21.607 0 9.327 2.798 16.582 8.394 21.763 3.533 3.239 8.314 5.455 14.345 6.649 3.523.697 7.473 1.046 11.849 1.046 4.439 0 8.436-.349 11.992-1.049 6.074-1.195 10.859-3.41 14.357-6.646 5.544-5.129 8.316-12.384 8.316-21.763 0-9.223-2.798-16.426-8.394-21.607zm-34.298 34.181c2.19.685 4.865 1.028 8.027 1.028 3.24 0 5.971-.345 8.191-1.036 1.721-.535 3.136-1.278 4.245-2.228 2.539-2.228 3.808-5.674 3.808-10.338 0-4.56-1.269-7.954-3.808-10.182-1.122-.984-2.557-1.751-4.305-2.3-2.21-.695-4.92-1.042-8.131-1.042-3.165 0-5.843.343-8.033 1.03-1.755.551-3.197 1.321-4.326 2.312-2.539 2.228-3.808 5.622-3.808 10.182 0 4.612 1.269 8.032 3.808 10.26 1.131.992 2.575 1.764 4.332 2.314zm11.401-15.553l-.013.005.013-.005zm-6.541.021zm-.007 5.996l.007-.002-.007.002zm6.438.009l-.009-.003.009.003z" fill="#00A8A8"/></g><g style="mix-blend-mode:hard-light" filter="url(#filter22_f_702_3265)"><path fill-rule="evenodd" clip-rule="evenodd" d="M195.963 136.462a29.861 29.861 0 00-4.199-4.133c-2.788-2.22-5.884-4.002-9.289-5.348l-.038-.015 24.173-24.095h-25.183a91.69 91.69 0 01-4.09 5.342 153.768 153.768 0 01-5.906 6.746l-.464.5a257.435 257.435 0 01-7.494 7.699l-.079.077h-.265c-.905-.004-1.594-.03-2.066-.077v-20.287h-19.354c.232 5.628.399 11.053.501 16.274.081 4.106.121 8.086.121 11.941 0 3.854-.04 7.834-.121 11.94a752.143 752.143 0 01-.501 16.274h19.354v-19.198c4.559 0 8.135.285 10.726.855 2.137.419 3.986 1.279 5.548 2.579.369.307.722.639 1.058.996 1.089 1.192 1.918 2.591 2.488 4.197.621 1.607 1.191 3.602 1.71 5.985.518 2.177.932 3.705 1.243 4.586h22.851c-.777-1.451-1.813-3.964-3.109-7.539-1.166-3.306-2.362-6.217-3.587-8.735a51.794 51.794 0 00-1.232-2.38 24.358 24.358 0 00-2.796-4.184zm16.997-3.651l.02.363c.31 5.323 1.613 9.911 3.907 13.765l.062.103a24.325 24.325 0 004.628 5.589l12.291 22.943H124.75l.699-16.945c.406-9.861.608-19.04.608-27.543 0-8.504-.202-17.683-.608-27.544l-.699-16.945h121.238l-18.187 18.129c-2.537 1.146-4.73 2.575-6.578 4.286a24.515 24.515 0 00-5.666 7.918l-8.037 8.012a41.067 41.067 0 015.434 7.736l.006.133z" fill="#00A8A8"/></g><g style="mix-blend-mode:hard-light" filter="url(#filter23_ddi_702_3265)"><path fill-rule="evenodd" clip-rule="evenodd" d="M953.388 128.313l-.001.104c-.05 3-.076 7.682-.076 14.094 0 7.709.052 13.146.15 16.418l.382 12.816h-43.72l.023-2.647c-5.897 1.946-12.51 2.569-19.024 2.569h-1.391v.078h-44.534l.535-12.958c.052-1.271.101-2.531.147-3.779 1.598-1.01 2.83-2.171 3.694-3.481 1.606-2.487 2.409-5.492 2.409-9.016 0-4.24-1.881-7.284-5.644-9.131a562.713 562.713 0 00-.035-8.98c1.714-2.253 2.57-4.766 2.57-7.538 0-3.109-.777-5.674-2.331-7.695a8.646 8.646 0 00-.618-.737 811.75 811.75 0 00-.192-5.046l-.535-12.958h44.534v13.68h1.391c6.852 0 13.44.73 19.187 2.765l.128-16.445h43.406l-.383 8.637c-.045 1.452-.072 3.88-.072 7.384v21.866zm-45.555-9.042c-4.042-1.813-9.613-2.72-16.711-2.72h-13.836v-13.68h-19.12c.176 4.265.314 8.413.416 12.445a630.82 630.82 0 01.206 15.77c0 5.041-.069 10.298-.206 15.769-.102 4.032-.24 8.18-.416 12.445h19.12v-.078h13.836c8.523 0 14.905-1.239 19.144-3.717a14.49 14.49 0 002.385-1.724 17.38 17.38 0 002.849-3.328l.009-.014c2.137-3.261 3.205-7.303 3.205-12.125 0-3.873-.579-7.241-1.738-10.104a18.704 18.704 0 00-.671-1.477c-1.236-2.471-3.192-4.513-5.868-6.125a22.35 22.35 0 00-2.604-1.337zm-11.815 12.825a21.084 21.084 0 00-2.094-.302c-.389-.039-.8-.074-1.234-.104a59.739 59.739 0 00-2.959-.122 85.882 85.882 0 00-1.719-.016h-10.726v12.281h10.726c.598 0 1.171-.005 1.719-.013a74.453 74.453 0 002.822-.092 47.304 47.304 0 001.544-.106 25.68 25.68 0 002.077-.256c1.865-.362 3.16-.958 3.886-1.787.725-.83 1.088-2.099 1.088-3.809s-.389-3.005-1.166-3.886c-.777-.881-2.098-1.477-3.964-1.788zm26.88-8.714l.001.054c.008 1.761.012 3.352.012 4.774 0 2.757-.014 6.125-.043 10.104-.019 2.589-.043 5.436-.074 8.541l-.038 3.662-.078 8.783h18.343c-.083-2.783-.133-6.931-.149-12.445a1485.06 1485.06 0 01-.006-4.344c0-6.425.026-11.192.078-14.301v-21.763c0-3.524.025-6.115.077-7.773h-18.343l.078 8.394.044 4.051.035 3.553c.03 3.257.051 6.16.063 8.71z" fill="#33E9C6" fill-opacity=".2"/></g><g style="mix-blend-mode:hard-light" filter="url(#filter24_ddi_702_3265)"><path fill-rule="evenodd" clip-rule="evenodd" d="M821.902 117.095c1.489 0 2.771.06 3.845.179l.119.013c1.11.13 1.991.325 2.642.585 1.347.467 2.021 1.296 2.021 2.487 0 1.503-.648 2.54-1.943 3.11-.548.251-1.288.447-2.218.587l-.353.05c-1.12.145-2.491.217-4.113.217h-14.924v-7.228h14.924zm-14.924-14.224v.078h16.556c6.425 0 11.477.544 15.156 1.632 3.731 1.037 6.348 2.565 7.851 4.586 1.554 2.021 2.331 4.586 2.331 7.695a12.2 12.2 0 01-.619 3.894c-.546 1.635-1.454 3.161-2.723 4.578-1.184 1.325-2.836 2.512-4.956 3.561-.413.205-.845.404-1.294.598-1.48.64-3.153 1.222-5.02 1.748 1.539 0 2.977.064 4.316.191 1.025.098 1.992.233 2.9.406 4.571.868 7.65 2.685 9.238 5.451.845 1.472 1.267 3.213 1.267 5.222 0 3.524-.803 6.529-2.409 9.016-1.606 2.436-4.482 4.353-8.628 5.752-4.145 1.347-9.897 2.021-17.255 2.021h-34.976c.176-4.265.314-8.413.415-12.445a626.17 626.17 0 00.207-15.769c0-5.042-.069-10.299-.207-15.77-.101-4.032-.239-8.18-.415-12.445h18.265zm14.924 42.205c2.058 0 3.738-.06 5.041-.181a23.391 23.391 0 001.099-.13c1.451-.259 2.487-.673 3.109-1.243.622-.622.933-1.451.933-2.488 0-1.347-.752-2.305-2.254-2.875-.688-.295-1.644-.52-2.867-.675l-.226-.028a29.733 29.733 0 00-1.804-.152 53.521 53.521 0 00-3.031-.078h-14.924v7.85h14.924zm36.875-17.276a606.244 606.244 0 01-.101 14.711c-.088 4.708-.23 9.582-.425 14.622l-.004.116-.082 2.051h1.155c-3.732 5.082-9.184 8.011-14.396 9.77l-.067.023-.066.022c-5.952 1.934-13.205 2.63-21.102 2.63h-47.945l.513-12.445h6.242l-.011-.257c-.355-8.684-.533-18.003-.533-27.957 0-9.933.179-19.252.537-27.958l.007-.179h-6.238l-.517-12.523h43.679v.078h4.111c6.888 0 13.268.558 18.586 2.114 4.988 1.4 10.541 3.977 14.345 9.04a22.787 22.787 0 011.759 2.678c.169 4.295.301 8.47.394 12.526a641.08 641.08 0 01.159 10.938z" fill="#33E9C6" fill-opacity=".2"/></g><g style="mix-blend-mode:hard-light" filter="url(#filter25_ddi_702_3265)"><path fill-rule="evenodd" clip-rule="evenodd" d="M735.009 146.553l1.322-43.604h-19.043c.176 4.27.315 8.418.416 12.445.137 5.453.206 10.684.206 15.692 0 5.041-.069 10.298-.206 15.769-.102 4.032-.24 8.18-.416 12.445h27.826l18.809-42.438-1.399 42.438H782.5a605.14 605.14 0 01-.385-12.445 754.565 754.565 0 01-.159-15.769c0-5.413.053-10.644.159-15.692.09-4.279.218-8.428.385-12.445h-28.603l-18.888 43.604zm-30.69 25.192l.535-12.958c.408-9.906.611-19.138.611-27.701a598.4 598.4 0 00-.126-12.058c1.885.05 3.784.105 5.696.166v-16.323h-6.206l-.51-12.367h91.152l-.513 12.367h-6.245l.014.336c.406 9.926.608 19.219.608 27.879 0 8.682-.203 18.001-.611 27.956l-.011.258h6.242l.516 12.445h-91.152z" fill="#33E9C6" fill-opacity=".2"/></g><g style="mix-blend-mode:hard-light" filter="url(#filter26_ddi_702_3265)"><path fill-rule="evenodd" clip-rule="evenodd" d="M717.909 131.864l-7.271-.232a975.748 975.748 0 00-10.865-.286v40.399h-44.321v-40.4c-3.561.074-7.155.17-10.783.287l-12.846.414v-41.62h91.656v12.523h-6.191a752.75 752.75 0 01.501 16.245c.08 4.094.12 8.058.12 11.892v.778zm-61.196-12.991c3.763-.072 7.491-.121 11.184-.146V159.3h19.431v-40.573a888.981 888.981 0 0112.445.171c3.703.076 7.456.174 11.261.296v-16.323h-66.766v16.323c3.762-.122 7.49-.22 11.184-.296l1.261-.025z" fill="#33E9C6" fill-opacity=".2"/></g><g style="mix-blend-mode:hard-light" filter="url(#filter27_ddi_702_3265)"><path fill-rule="evenodd" clip-rule="evenodd" d="M611.02 171.745l-2.836-8.51c-.267-.801-.564-1.67-.889-2.605h-7.231l-3.886 11.115h-46.48l31.363-81.319h45.658l31.587 81.319H611.02zm-21.421-68.874L567.836 159.3h19.509l3.887-11.115h24.794l.119.32c1.602 4.314 2.884 7.912 3.845 10.795h20.131l-21.919-56.429h-28.603zm14.069 11.815l-.242.63c-.66 1.721-1.424 3.737-2.293 6.046l-.023.061-.823 2.192c-.978 2.613-2.071 5.549-3.279 8.808l-1.228 3.317-.118.32h15.934l-.116-.32a1094.832 1094.832 0 00-4.479-12.125 1020.94 1020.94 0 00-1.468-3.877l-1.865-5.052z" fill="#33E9C6" fill-opacity=".2"/></g><g style="mix-blend-mode:hard-light" filter="url(#filter28_ddi_702_3265)"><path fill-rule="evenodd" clip-rule="evenodd" d="M520.993 102.871v.078h16.167c10.312 0 17.489 1.839 21.53 5.518 4.042 3.628 6.063 8.758 6.063 15.39 0 4.56-.803 8.446-2.41 11.659-1.606 3.161-4.43 5.648-8.472 7.462-4.041 1.761-9.612 2.642-16.711 2.642h-16.167v13.68h-19.12c.176-4.265.314-8.413.416-12.445.137-5.471.206-10.728.206-15.769 0-5.042-.069-10.299-.206-15.77-.102-4.032-.24-8.18-.416-12.445h19.12zm24.873 25.416c.88-.88 1.321-2.176 1.321-3.886s-.415-2.979-1.244-3.808c-.777-.881-2.254-1.477-4.43-1.788a31.567 31.567 0 00-2.085-.227 50.41 50.41 0 00-1.143-.079 99.39 99.39 0 00-4.847-.152c-.552-.006-1.125-.008-1.719-.008h-10.726v12.28h10.726c.594 0 1.167-.003 1.719-.009a92.382 92.382 0 005.039-.171c.478-.031.928-.067 1.349-.106l.041-.004c.545-.052 1.042-.11 1.49-.176 2.177-.363 3.679-.985 4.509-1.866zm-12.428 29.778v13.68h-44.534l.535-12.958c.126-3.052.232-6.041.319-8.966 3.869-4.792 5.841-11.037 5.918-18.735l.002-.467c0-7.76-1.981-14.089-5.942-18.988a807.989 807.989 0 00-.297-8.247l-.535-12.958h44.534v.078h3.722c10.971 0 22.223 1.793 29.871 8.727 7.222 6.498 10.167 15.319 10.167 24.626 0 5.986-1.052 11.882-3.724 17.224l-.018.037-.018.036c-3.189 6.275-8.499 10.498-14.472 13.178l-.061.027-.061.027c-6.278 2.736-13.795 3.679-21.684 3.679h-3.722z" fill="#33E9C6" fill-opacity=".2"/></g><g style="mix-blend-mode:hard-light" filter="url(#filter29_ddi_702_3265)"><path fill-rule="evenodd" clip-rule="evenodd" d="M426.386 161.535l-.023-.021a36.804 36.804 0 01-6.333-7.677 711.606 711.606 0 01-.344-22.751v-.467c.004-8.157.129-15.885.373-23.186a36.965 36.965 0 016.184-7.514l.021-.02.022-.019c8.894-8.236 21.368-11.086 34.726-11.086 13.367 0 25.879 2.832 34.746 11.104a36.975 36.975 0 016.293 7.611c.289 8.147.437 15.85.443 23.11v.467c0 7.178-.139 14.791-.418 22.84a36.352 36.352 0 01-6.263 7.591c-8.877 8.213-21.413 11.005-34.801 11.005-13.298 0-25.717-2.82-34.603-10.966l-.023-.021zm60.897-52.523c-5.544-5.182-14.301-7.773-26.271-7.773-11.918 0-20.675 2.591-26.271 7.773-5.545 5.181-8.317 12.384-8.317 21.607 0 9.327 2.798 16.582 8.394 21.763 5.597 5.13 14.328 7.695 26.194 7.695 12.021 0 20.804-2.565 26.349-7.695 5.544-5.129 8.316-12.384 8.316-21.763 0-9.223-2.798-16.426-8.394-21.607zm-22.504 22.469c.02-.236.033-.521.033-.862 0-.303-.012-.559-.028-.77-.782-.162-2.001-.309-3.772-.309-1.735 0-2.929.144-3.694.304a9.759 9.759 0 00-.028.775c0 .338.013.621.033.855.765.159 1.958.302 3.689.302 1.742 0 2.963-.137 3.767-.295zm8.669 9.476c-2.539 2.176-6.684 3.264-12.436 3.264-5.7 0-9.819-1.114-12.358-3.342-2.54-2.228-3.809-5.648-3.809-10.26 0-4.56 1.269-7.954 3.809-10.182 2.539-2.228 6.658-3.342 12.358-3.342 5.752 0 9.897 1.114 12.436 3.342 2.539 2.228 3.809 5.622 3.809 10.182 0 4.664-1.27 8.11-3.809 10.338z" fill="#33E9C6" fill-opacity=".2"/></g><g style="mix-blend-mode:hard-light" filter="url(#filter30_ddi_702_3265)"><path fill-rule="evenodd" clip-rule="evenodd" d="M433.201 90.426l-.537 12.96c-.11 2.654-.203 5.371-.279 8.153-3.974 4.912-5.961 11.272-5.961 19.08 0 .156.001.312.003.467.077 7.631 2.055 13.853 5.935 18.668.08 3.089.181 6.099.302 9.031l.537 12.96H389.52v-40.728h-1.382v40.728h-43.679l.534-12.958c.275-6.66.457-13.015.546-19.067 1.395-1.236 2.49-2.637 3.287-4.204a21.162 21.162 0 001.605-4.43c.536-2.185.804-4.595.804-7.229 0-6.624-2.016-11.75-6.048-15.376a756.116 756.116 0 00-.194-5.097l-.534-12.958h88.742zm-57.508 28.146h26.271V159.3h18.266a619.65 619.65 0 01-.385-12.445 754.565 754.565 0 01-.159-15.769c0-5.447.053-10.704.159-15.77.091-4.284.219-8.432.385-12.445h-62.802c.175 4.265.314 8.413.415 12.445.138 5.471.206 10.728.206 15.77 0 5.041-.068 10.298-.206 15.769a780.65 780.65 0 01-.415 12.445h18.265v-40.728z" fill="#33E9C6" fill-opacity=".2"/></g><g style="mix-blend-mode:hard-light" filter="url(#filter31_ddi_702_3265)"><path fill-rule="evenodd" clip-rule="evenodd" d="M307.476 102.871v.078h16.167c10.311 0 17.488 1.839 21.53 5.518 4.041 3.628 6.062 8.758 6.062 15.39 0 4.56-.803 8.446-2.409 11.659-1.607 3.161-4.431 5.648-8.472 7.462-4.042 1.761-9.612 2.642-16.711 2.642h-16.167v13.68h-19.121c.176-4.265.315-8.413.416-12.445.137-5.471.206-10.728.206-15.769 0-5.042-.069-10.299-.206-15.77-.101-4.032-.24-8.18-.416-12.445h19.121zm12.445 55.194v13.68h-44.534l.534-12.958c.126-3.052.232-6.041.319-8.966 3.869-4.792 5.842-11.037 5.918-18.735.002-.155.002-.311.002-.467 0-7.76-1.98-14.089-5.942-18.988a754.321 754.321 0 00-.297-8.247l-.534-12.958h44.534v.078h3.722c10.973 0 22.226 1.793 29.874 8.73a29.7 29.7 0 013.938 4.308c.287 7.096.47 13.868.549 20.315a572.96 572.96 0 01-.024 16.236l-.001.075a660.585 660.585 0 01-.08 4.321c-3.195 4.478-7.604 7.668-12.451 9.843l-.06.027-.062.027c-6.278 2.736-13.794 3.679-21.683 3.679h-3.722zm12.505-37.472c-.778-.881-2.254-1.477-4.431-1.788a31.525 31.525 0 00-2.084-.227 50.511 50.511 0 00-1.144-.079 99.345 99.345 0 00-4.846-.152 159.06 159.06 0 00-1.719-.008h-10.726v12.28h10.726c.594 0 1.166-.003 1.719-.009a92.418 92.418 0 005.039-.171 48.93 48.93 0 001.348-.106l.041-.004c.545-.052 1.042-.11 1.491-.176 2.176-.363 3.679-.985 4.508-1.866.881-.88 1.321-2.176 1.321-3.886s-.414-2.979-1.243-3.808z" fill="#33E9C6" fill-opacity=".2"/></g><g style="mix-blend-mode:hard-light" filter="url(#filter32_ddi_702_3265)"><path fill-rule="evenodd" clip-rule="evenodd" d="M212.869 161.535l-.023-.021c-8.692-8.049-12.384-18.933-12.384-30.895 0-11.87 3.671-22.669 12.264-30.7l.021-.02.021-.019c8.895-8.236 21.369-11.086 34.727-11.086 13.368 0 25.881 2.833 34.748 11.106a36.965 36.965 0 016.29 7.609c.29 8.147.438 15.85.444 23.11v.467c0 7.178-.139 14.791-.418 22.84a36.326 36.326 0 01-6.264 7.591c-8.876 8.213-21.413 11.005-34.8 11.005-13.298 0-25.717-2.82-34.603-10.966l-.023-.021zm60.897-52.523c-5.545-5.182-14.302-7.773-26.271-7.773-11.918 0-20.675 2.591-26.272 7.773-5.544 5.181-8.316 12.384-8.316 21.607 0 9.327 2.798 16.582 8.394 21.763 5.596 5.13 14.327 7.695 26.194 7.695 12.021 0 20.804-2.565 26.349-7.695 5.544-5.129 8.316-12.384 8.316-21.763 0-9.223-2.798-16.426-8.394-21.607zm-21.507 22.193l.006-.003-.006.003zm7.672 9.752c-2.539 2.176-6.685 3.264-12.436 3.264-5.7 0-9.82-1.114-12.359-3.342-2.539-2.228-3.808-5.648-3.808-10.26 0-4.56 1.269-7.954 3.808-10.182 2.539-2.228 6.659-3.342 12.359-3.342 5.751 0 9.897 1.114 12.436 3.342 2.539 2.228 3.808 5.622 3.808 10.182 0 4.664-1.269 8.11-3.808 10.338zm-8.669-9.476a10.754 10.754 0 00.004-1.632c-.781-.162-2-.309-3.771-.309-1.735 0-2.929.144-3.694.304a9.703 9.703 0 00-.029.775c0 .338.014.621.034.855.765.159 1.957.302 3.689.302 1.741 0 2.963-.137 3.767-.295zm-8.344-.263l.006.003-.006-.003zm0-1.12l.006-.003-.006.003zm9.243.009l-.006-.003.006.003z" fill="#33E9C6" fill-opacity=".2"/></g><g style="mix-blend-mode:hard-light" filter="url(#filter33_ddi_702_3265)"><path fill-rule="evenodd" clip-rule="evenodd" d="M202.145 124.892l34.578-34.466h-61.756l-1.46 2.074v-2.074H128.74l.535 12.958c.408 9.906.611 19.138.611 27.702 0 8.563-.203 17.795-.611 27.701l-.535 12.958h44.767v-4.318l1.524 4.318h52.441l-9.815-18.322c-.313-.584-1.086-2.338-2.361-5.856-1.687-4.771-3.53-9.09-5.582-12.827-1.963-3.702-4.535-6.975-7.569-9.848zm-8.819 8.791a33.15 33.15 0 00-1.562-1.354 36.133 36.133 0 00-9.327-5.363l24.173-24.095h-25.183c-2.069 2.939-4.708 6.207-7.92 9.803-2.884 3.23-6.228 6.724-10.034 10.484l-.079.077c-1.036 0-1.813-.026-2.332-.077v-20.287h-19.353c.176 4.265.314 8.413.415 12.445.138 5.471.207 10.728.207 15.77 0 5.041-.069 10.298-.207 15.769-.101 4.032-.239 8.18-.415 12.445h19.353v-19.198c4.56 0 8.136.285 10.727.855.595.116 1.168.267 1.718.452a11.795 11.795 0 014.888 3.123c1.088 1.192 1.917 2.591 2.487 4.197.622 1.607 1.192 3.602 1.71 5.985.519 2.177.933 3.705 1.244 4.586h22.851c-.777-1.451-1.813-3.964-3.109-7.539a96.8 96.8 0 00-1.872-4.906c-.963-2.325-1.945-4.394-2.947-6.209-1.32-2.514-3.131-4.835-5.433-6.963z" fill="#33E9C6" fill-opacity=".2"/></g><g filter="url(#filter34_f_702_3265)"><path fill-rule="evenodd" clip-rule="evenodd" d="M948.6 128.274l-.001.063c-.05 3.042-.076 7.757-.076 14.174 0 7.714.052 13.212.152 16.561l.235 7.886h-33.96l.048-5.373c-6.17 3.969-14.639 5.296-23.878 5.296h-6.177v.077h-34.759l.328-7.974c.141-3.408.257-6.738.35-9.991.746-1.92 1.119-4.08 1.119-6.482 0-1.688-.299-3.187-.895-4.497.028-2.355.042-4.664.042-6.928 0-8.638-.205-17.937-.616-27.899l-.328-7.974h34.759v13.68h6.177c7.586 0 14.371.944 19.81 3.375a29.358 29.358 0 014.243 2.273c-.021-2.286-.047-4.748-.077-7.386v-.016l-.149-16.123h33.974l-.247 7.897c-.048 1.532-.074 4.022-.074 7.534v21.827zm-25.706-5.467l.003.575v.054c.008 1.761.013 3.352.013 4.774 0 2.757-.015 6.125-.043 10.104-.026 3.575-.064 7.642-.113 12.203l-.077 8.783h18.343c-.057-1.91-.099-4.463-.124-7.658a1151.57 1151.57 0 01-.032-9.131c0-6.425.026-11.192.078-14.301v-21.878c.001-3.465.026-6.018.078-7.658h-18.343l.077 8.394c.071 6.206.117 11.452.14 15.739zm-6.591 3.926a13.68 13.68 0 00-1.058-1.768c-1.676-2.372-4.147-4.27-7.414-5.694-4.042-1.813-9.612-2.72-16.711-2.72h-13.835v-13.68h-19.121c.107 2.596.201 5.149.28 7.659.228 7.208.342 14.06.342 20.556 0 6.495-.114 13.347-.342 20.556a789.161 789.161 0 01-.28 7.658h19.121v-.078h13.835c10.312 0 17.488-1.813 21.53-5.441a17.474 17.474 0 002.849-3.328l.009-.014c2.136-3.261 3.205-7.303 3.205-12.125 0-3.873-.58-7.241-1.738-10.104a19.08 19.08 0 00-.672-1.477zm-20.286 5.363c1.865.311 3.186.907 3.964 1.788.777.881 1.165 2.176 1.165 3.886s-.362 2.979-1.088 3.809c-.725.829-2.021 1.425-3.886 1.787-1.814.311-4.534.467-8.161.467h-10.726v-12.281h10.726c3.523 0 6.192.181 8.006.544z" fill="#33E9E9"/></g><g filter="url(#filter35_f_702_3265)"><path fill-rule="evenodd" clip-rule="evenodd" d="M828.509 117.872c-.652-.26-1.532-.455-2.642-.585l-.12-.013c-.41-.046-.85-.083-1.321-.111a43.05 43.05 0 00-2.524-.068h-14.923v7.228h14.923c1 0 1.904-.027 2.713-.082.504-.035.97-.08 1.4-.135.121-.016.238-.033.353-.05.931-.14 1.67-.336 2.218-.587 1.296-.57 1.943-1.607 1.943-3.11 0-1.191-.673-2.02-2.02-2.487zm-21.53-15.001v.078h16.555c6.425 0 11.478.544 15.157 1.632 3.73 1.037 6.347 2.565 7.85 4.586 1.554 2.021 2.332 4.586 2.332 7.695 0 3.024-1.02 5.739-3.059 8.146-.092.11-.187.218-.283.326-2.177 2.435-5.934 4.404-11.271 5.907 5.708 0 10.037.877 12.987 2.631 3.157 1.876 4.735 4.756 4.735 8.639 0 3.524-.803 6.529-2.41 9.016-1.606 2.436-4.482 4.353-8.627 5.752-4.146 1.347-9.897 2.021-17.255 2.021h-34.977c.107-2.596.2-5.149.28-7.658.228-7.209.342-14.061.342-20.556 0-6.496-.114-13.348-.342-20.556-.08-2.51-.173-5.063-.28-7.659h18.266zm45.872 25.547c2.906 2.18 4.869 5.011 5.909 8.249a678.501 678.501 0 01-.277 13.73 21.851 21.851 0 01-2.477 5.285l-.02.031-.021.031c-2.912 4.416-7.581 7.107-12.571 8.791l-.041.014-.041.013c-5.257 1.709-11.933 2.396-19.622 2.396h-42.958l.316-7.658h1.451l-.01-.257c-.356-8.684-.534-18.003-.534-27.957 0-9.933.179-19.252.537-27.958l.007-.179h-1.448l-.319-7.736h33.905v.078h8.897c6.707 0 12.577.551 17.267 1.928 4.498 1.258 8.927 3.43 11.849 7.33 2.766 3.622 3.881 7.916 3.881 12.313 0 4.276-1.296 8.179-3.68 11.556zm-26.419 16.52a25.04 25.04 0 001.61-.173c1.451-.259 2.487-.673 3.109-1.243.622-.622.933-1.451.933-2.488 0-1.347-.751-2.305-2.254-2.875-.688-.295-1.643-.52-2.866-.675l-.227-.028-.198-.022a30.394 30.394 0 00-1.154-.101 50.83 50.83 0 00-3.483-.107h-14.923v7.85h14.923c1.274 0 2.404-.023 3.389-.069.405-.019.785-.042 1.141-.069z" fill="#33E9E9"/></g><g filter="url(#filter36_f_702_3265)"><path fill-rule="evenodd" clip-rule="evenodd" d="M744.224 95.29l-.349 11.527 4.992-11.526h41.614l-.314 7.58h-1.454l.014.336c.405 9.926.608 19.219.608 27.879 0 8.682-.204 18.001-.612 27.956l-.01.258h1.451l.317 7.658h-35.872l.362-11-4.875 11h-40.789l.328-7.974c.411-9.962.616-19.261.616-27.898 0-3.837-.041-7.81-.123-11.921l.906.029v-16.323h-1.415l-.312-7.58h34.917zm19.699 21.572l-1.399 42.438h19.975c-.103-2.5-.192-5.053-.266-7.658a726.125 726.125 0 01-.278-20.556c0-7.144.093-13.97.278-20.479.074-2.603.162-5.156.266-7.658h-28.603l-18.887 43.604 1.321-43.604h-19.043c.107 2.598.201 5.15.28 7.658a648.16 648.16 0 01.342 20.479c0 6.495-.114 13.347-.342 20.556a789.161 789.161 0 01-.28 7.658h27.826l18.81-42.438z" fill="#33E9E9"/></g><g filter="url(#filter37_f_702_3265)"><path fill-rule="evenodd" clip-rule="evenodd" d="M717.895 127.074l-7.105-.226a968.938 968.938 0 00-15.804-.377v40.487h-34.748v-40.487c-5.171.08-10.412.206-15.723.377l-7.906.255v-31.89h82.083v7.736h-1.405a752.75 752.75 0 01.501 16.245c.053 2.683.089 5.309.107 7.88zm-57.657-8.262c2.57-.04 5.122-.068 7.658-.085V159.3h19.432v-40.573a912.177 912.177 0 0116.048.252c2.529.061 5.082.133 7.658.215v-16.323h-66.766v16.322a926.437 926.437 0 0115.97-.381z" fill="#33E9E9"/></g><g filter="url(#filter38_f_702_3265)"><path fill-rule="evenodd" clip-rule="evenodd" d="M614.47 166.958l-1.746-5.236a259.797 259.797 0 00-2.048-5.878h-14.01l-3.886 11.114h-36.106l27.67-71.745h18.607l.862-2.241.828 2.24h18.802l27.868 71.746H614.47zm-24.871-64.087L567.836 159.3h19.509l3.886-11.115h24.794c1.659 4.457 2.98 8.161 3.965 11.115h20.13l-21.918-56.429h-28.603zm9.956 22.702a1770.46 1770.46 0 011.555-4.15l.022-.061a955.916 955.916 0 012.535-6.676l1.866 5.052a1034.288 1034.288 0 016.062 16.322h-15.934a3176.783 3176.783 0 013.894-10.487z" fill="#33E9E9"/></g><g filter="url(#filter39_f_702_3265)"><path fill-rule="evenodd" clip-rule="evenodd" d="M520.993 102.871v.078h16.167c10.311 0 17.488 1.839 21.53 5.518 4.041 3.628 6.062 8.758 6.062 15.39 0 4.56-.803 8.446-2.409 11.659-1.607 3.161-4.431 5.648-8.472 7.462-4.042 1.761-9.612 2.642-16.711 2.642h-16.167v13.68h-19.121c.107-2.596.201-5.149.28-7.658.228-7.209.342-14.061.342-20.556 0-6.496-.114-13.348-.342-20.556-.079-2.51-.173-5.063-.28-7.659h19.121zm20.519 15.934c2.177.311 3.653.907 4.431 1.788.829.829 1.243 2.098 1.243 3.808s-.44 3.006-1.321 3.886c-.829.881-2.332 1.503-4.508 1.866-2.125.311-5.337.466-9.638.466h-10.726v-12.28h10.726c4.404 0 7.669.155 9.793.466zm-12.861 34.474v13.679h-34.759l.328-7.974c.286-6.921.472-13.522.559-19.804.568-2.491.867-5.189.896-8.094.002-.155.002-.311.002-.467 0-3.038-.303-5.857-.91-8.456a731.822 731.822 0 00-.547-18.976l-.328-7.974h34.759v.078h8.509c10.717 0 20.404 1.81 26.666 7.496 5.996 5.393 8.585 12.794 8.585 21.07 0 5.437-.957 10.56-3.218 15.084l-.012.022-.011.023c-2.58 5.077-6.934 8.632-12.164 10.979l-.038.017-.037.016c-5.418 2.362-12.186 3.281-19.771 3.281h-8.509z" fill="#33E9E9"/></g><g filter="url(#filter40_f_702_3265)"><path fill-rule="evenodd" clip-rule="evenodd" d="M429.629 158.015l-.014-.013c-5.195-4.811-8.399-10.841-9.877-17.732-.035-2.999-.052-6.06-.052-9.184v-.467c.002-3.289.023-6.508.064-9.658 1.474-6.8 4.644-12.762 9.761-17.545l.013-.012.014-.012c7.626-7.061 18.67-9.811 31.474-9.811 12.828 0 23.896 2.738 31.485 9.821 5.239 4.855 8.458 10.933 9.915 17.876.052 3.191.08 6.305.082 9.341v.467c0 2.913-.023 5.899-.069 8.955-1.438 6.999-4.626 13.117-9.863 17.963-7.595 7.027-18.688 9.732-31.55 9.732-12.747 0-23.748-2.722-31.369-9.708l-.014-.013zm57.654-49.003c-5.544-5.182-14.301-7.773-26.271-7.773-11.918 0-20.675 2.591-26.271 7.773-5.545 5.181-8.317 12.384-8.317 21.607 0 9.327 2.798 16.582 8.394 21.763 5.597 5.13 14.328 7.695 26.194 7.695 12.021 0 20.804-2.565 26.349-7.695 5.544-5.129 8.316-12.384 8.316-21.763 0-9.223-2.798-16.426-8.394-21.607zm-18.851 26.157c.347-.321 1.166-1.333 1.166-4.55 0-3.165-.844-4.112-1.201-4.426-.447-.391-2.291-1.44-7.385-1.44-5.021 0-6.851 1.04-7.307 1.44-.357.314-1.202 1.261-1.202 4.426 0 3.25.862 4.206 1.202 4.504.456.4 2.286 1.44 7.307 1.44 5.012 0 6.916-.989 7.42-1.394zm5.016 5.788c-2.539 2.176-6.684 3.264-12.436 3.264-5.7 0-9.819-1.114-12.358-3.342-2.54-2.228-3.809-5.648-3.809-10.26 0-4.56 1.269-7.954 3.809-10.182 2.539-2.228 6.658-3.342 12.358-3.342 5.752 0 9.897 1.114 12.436 3.342 2.539 2.228 3.809 5.622 3.809 10.182 0 4.664-1.27 8.11-3.809 10.338z" fill="#33E9E9"/></g><g filter="url(#filter41_f_702_3265)"><path fill-rule="evenodd" clip-rule="evenodd" d="M428.211 95.213l-.33 7.975a631.783 631.783 0 00-.484 18.674c-.649 2.683-.973 5.602-.973 8.757 0 .156 0 .312.002.467.03 2.98.35 5.746.961 8.297a633.63 633.63 0 00.494 19.6l.33 7.975h-33.906V126.23h-10.954v40.728h-33.905l.329-7.974c.408-9.901.613-19.146.615-27.738l.04-.16c.536-2.185.804-4.595.804-7.229 0-2.727-.341-5.2-1.025-7.419a752.112 752.112 0 00-.434-13.251l-.329-7.974h78.765zm-52.519 23.359h26.272V159.3h18.265c-.103-2.5-.192-5.053-.266-7.658a726.125 726.125 0 01-.278-20.556c0-7.183.093-14.035.278-20.556.074-2.606.163-5.159.266-7.659h-62.802c.107 2.596.2 5.149.28 7.659.228 7.208.342 14.06.342 20.556 0 6.495-.114 13.347-.342 20.556-.08 2.509-.173 5.062-.28 7.658h18.265v-40.728z" fill="#33E9E9"/></g><g filter="url(#filter42_f_702_3265)"><path fill-rule="evenodd" clip-rule="evenodd" d="M307.475 102.871v.078h16.167c10.312 0 17.488 1.839 21.53 5.518 4.042 3.628 6.063 8.758 6.063 15.39 0 4.56-.803 8.446-2.41 11.659-1.606 3.161-4.43 5.648-8.472 7.462-4.042 1.761-9.612 2.642-16.711 2.642h-16.167v13.68h-19.12c.107-2.596.2-5.149.279-7.658.228-7.209.342-14.061.342-20.556 0-6.496-.114-13.348-.342-20.556-.079-2.51-.172-5.063-.279-7.659h19.12zm24.95 17.722c.829.829 1.244 2.098 1.244 3.808s-.441 3.006-1.322 3.886c-.829.881-2.331 1.503-4.508 1.866-2.124.311-5.337.466-9.638.466h-10.726v-12.28h10.726c4.405 0 7.669.155 9.794.466 2.176.311 3.653.907 4.43 1.788zm-17.292 32.686v13.679h-34.759l.329-7.974c.285-6.921.471-13.522.558-19.804.569-2.491.868-5.189.896-8.094.002-.155.003-.311.003-.467 0-3.038-.304-5.857-.911-8.456a727.251 727.251 0 00-.546-18.976l-.329-7.974h34.759v.078h8.509c10.716 0 20.402 1.81 26.664 7.494 3.833 3.446 6.274 7.713 7.536 12.503.074 2.918.127 5.774.162 8.569.03 2.457.045 4.866.045 7.229l-.001 1.051c-.523 2.382-1.301 4.66-2.373 6.804l-.011.022-.012.023c-2.58 5.077-6.933 8.632-12.164 10.979l-.037.017-.038.016c-5.418 2.362-12.186 3.281-19.771 3.281h-8.509z" fill="#33E9E9"/></g><g filter="url(#filter43_f_702_3265)"><path fill-rule="evenodd" clip-rule="evenodd" d="M216.112 158.015l-.014-.013c-7.502-6.946-10.85-16.435-10.85-27.383 0-10.852 3.326-20.268 10.746-27.203l.013-.012.013-.012c7.626-7.061 18.67-9.811 31.474-9.811 12.83 0 23.898 2.739 31.488 9.823 5.237 4.855 8.455 10.932 9.912 17.874a585.907 585.907 0 01.014 18.763c-1.439 6.999-4.626 13.117-9.864 17.963-7.595 7.027-18.688 9.732-31.55 9.732-12.747 0-23.747-2.722-31.368-9.708l-.014-.013zm57.654-49.003c-5.545-5.182-14.302-7.773-26.272-7.773-11.918 0-20.675 2.591-26.271 7.773-5.544 5.181-8.317 12.384-8.317 21.607 0 9.327 2.798 16.582 8.395 21.763 5.596 5.13 14.327 7.695 26.193 7.695 12.022 0 20.805-2.565 26.349-7.695 5.545-5.129 8.317-12.384 8.317-21.763 0-9.223-2.798-16.426-8.394-21.607zm-18.852 26.157c.347-.321 1.167-1.332 1.167-4.55 0-3.165-.845-4.112-1.202-4.426-.446-.391-2.291-1.44-7.385-1.44-5.02 0-6.851 1.04-7.307 1.44-.357.314-1.201 1.261-1.201 4.426 0 3.25.862 4.206 1.201 4.504.456.4 2.287 1.44 7.307 1.44 5.012 0 6.916-.989 7.42-1.394zm5.016 5.788c-2.539 2.176-6.684 3.264-12.436 3.264-5.7 0-9.819-1.114-12.358-3.342-2.539-2.228-3.809-5.648-3.809-10.26 0-4.56 1.27-7.954 3.809-10.182 2.539-2.228 6.658-3.342 12.358-3.342 5.752 0 9.897 1.114 12.436 3.342 2.539 2.228 3.809 5.622 3.809 10.182 0 4.664-1.27 8.11-3.809 10.338z" fill="#33E9E9"/></g><g filter="url(#filter44_f_702_3265)"><path fill-rule="evenodd" clip-rule="evenodd" d="M196.565 126.363l.032.026c3.725 3.03 6.755 6.559 8.904 10.623 1.901 3.457 3.653 7.541 5.287 12.168 1.284 3.541 2.158 5.587 2.649 6.504l6.04 11.274h-41.06l-1.803-5.109c-.46-1.301-.954-3.183-1.472-5.361l-.018-.073-.016-.074c-.465-2.142-.935-3.728-1.368-4.847l-.039-.101-.037-.103c-.238-.671-.54-1.16-.883-1.547-.601-.62-1.337-1.05-2.467-1.271l-.086-.017-.085-.019a19.789 19.789 0 00-1.423-.252v18.774h-34.992l.328-7.974c.411-9.962.616-19.261.616-27.898 0-8.638-.205-17.937-.616-27.899l-.328-7.974h34.992v11.314c2.625-2.994 4.766-5.68 6.443-8.063l2.288-3.251h47.689l-30.091 29.994c.502.366.997.743 1.485 1.131l.031.025zm-7.023 4.334a36.517 36.517 0 00-7.106-3.731l24.173-24.095h-25.183c-3.018 4.289-7.253 9.278-12.706 14.966a272.977 272.977 0 01-5.326 5.398c-1.037 0-1.814-.026-2.332-.077v-20.287h-19.354c.107 2.596.2 5.149.28 7.659.228 7.208.342 14.06.342 20.556 0 6.495-.114 13.347-.342 20.556-.08 2.509-.173 5.062-.28 7.658h19.354v-19.198c2.97 0 5.523.121 7.658.363a30.02 30.02 0 013.068.492c2.643.518 4.845 1.71 6.607 3.575 1.088 1.192 1.917 2.591 2.487 4.197.622 1.607 1.192 3.602 1.71 5.985.518 2.177.933 3.705 1.243 4.586h22.852c-.777-1.451-1.814-3.964-3.109-7.539l-.042-.119c-1.542-4.353-3.134-8.018-4.777-10.996-1.607-3.057-3.938-5.83-6.996-8.317a35.668 35.668 0 00-2.221-1.632z" fill="#33E9E9"/></g><g filter="url(#filter45_f_702_3265)"><path fill-rule="evenodd" clip-rule="evenodd" d="M944.773 128.242l-.001.032c-.051 3.075-.077 7.816-.077 14.237 0 7.717.052 13.264.154 16.675l.118 3.943h-26.152l.097-10.899a21.238 21.238 0 01-3.683 4.383l-.01.009-.01.009c-5.15 4.622-13.576 6.42-24.087 6.42h-10.006v.078h-26.94l.164-3.987c.413-10.007.619-19.359.619-28.056 0-8.698-.206-18.05-.619-28.057l-.164-3.987h26.94v13.68h10.006c7.342 0 13.521.925 18.262 3.048 4.203 1.836 7.54 4.485 9.687 8.053-.02-4.448-.068-10.017-.144-16.711v-.008l-.113-12.26h26.158l-.123 3.95c-.05 1.594-.076 4.135-.076 7.653v21.795zm-28.468-1.509c-1.607-3.213-4.431-5.7-8.472-7.462-4.042-1.813-9.612-2.72-16.711-2.72h-13.835v-13.68h-19.121c.053 1.287.103 2.564.149 3.829.315 8.621.473 16.75.473 24.386 0 7.636-.158 15.764-.473 24.385a792.213 792.213 0 01-.149 3.829h19.121v-.078h13.835c10.311 0 17.488-1.813 21.53-5.441 4.041-3.679 6.062-8.834 6.062-15.467 0-4.56-.803-8.42-2.409-11.581zm-20.977 9.13l-.06-.012c-1.436-.287-3.801-.47-7.255-.47h-6.897v4.622h6.897c3.542 0 5.985-.154 7.472-.404.702-.139 1.169-.297 1.459-.43.104-.048.174-.088.217-.115.01-.025.021-.058.033-.101.06-.209.125-.585.125-1.183 0-.923-.165-1.274-.209-1.35a1.438 1.438 0 00-.276-.153c-.284-.128-.745-.277-1.445-.394l-.061-.01zm.846 7.503c-1.814.311-4.534.467-8.161.467h-10.726v-12.281h10.726c3.523 0 6.192.181 8.005.544 1.866.311 3.187.907 3.964 1.788.778.881 1.166 2.176 1.166 3.886s-.362 2.979-1.088 3.809c-.725.829-2.021 1.425-3.886 1.787zm44.77-15.156c-.052 3.109-.078 7.876-.078 14.301 0 5.334.025 9.654.074 12.96.022 1.479.05 2.756.082 3.829h-18.344l.078-8.783c.104-9.638.155-17.074.155-22.307 0-4.975-.051-12.022-.155-21.142l-.078-8.394h18.344c-.031.962-.052 2.239-.064 3.829-.01 1.15-.014 2.465-.014 3.944v21.763z" fill="#fff"/></g><g filter="url(#filter46_f_702_3265)"><path fill-rule="evenodd" clip-rule="evenodd" d="M842.713 132.105c-2.365-.576-5.183-.864-8.453-.864 3.178-.895 5.795-1.955 7.853-3.18 1.398-.833 2.537-1.742 3.417-2.727 2.228-2.487 3.343-5.311 3.343-8.472 0-3.109-.778-5.674-2.332-7.695-1.503-2.021-4.12-3.549-7.851-4.586-3.678-1.088-8.731-1.632-15.156-1.632h-16.556v-.078h-18.265c.053 1.287.103 2.564.149 3.829.315 8.621.473 16.75.473 24.386 0 7.636-.158 15.764-.473 24.385a792.213 792.213 0 01-.149 3.829h34.976c7.358 0 13.11-.674 17.256-2.021 4.145-1.399 7.021-3.316 8.627-5.752 1.606-2.487 2.41-5.492 2.41-9.016 0-5.434-3.09-8.902-9.269-10.406zm4.108-2.7c.996.404 1.926.876 2.785 1.423 4.152 2.64 6.205 6.732 6.205 11.683 0 4.119-.945 7.878-3.022 11.094l-.01.015-.01.016c-2.26 3.425-6.032 5.73-10.6 7.271l-.02.007-.021.007c-4.701 1.528-10.915 2.208-18.439 2.208h-38.966l.164-3.987c.413-10.007.619-19.359.619-28.056 0-8.698-.206-18.05-.619-28.057l-.164-3.987h26.085v.078h12.726c6.565 0 12.026.547 16.211 1.78 4.111 1.146 7.637 2.996 9.852 5.96 2.16 2.821 3.105 6.25 3.105 10.002 0 4.159-1.5 7.878-4.316 11.023-.477.534-1 1.04-1.565 1.52zm-24.919-5.082h-14.924v-7.228h14.924c3.109 0 5.311.259 6.606.777 1.348.467 2.021 1.296 2.021 2.487 0 1.503-.647 2.54-1.943 3.11-1.243.569-3.472.854-6.684.854zm6.14 20.442c-1.399.208-3.446.311-6.14.311h-14.924v-7.85h14.924c3.834 0 6.477.311 7.928.933 1.503.57 2.254 1.528 2.254 2.875 0 1.037-.311 1.866-.933 2.488-.622.57-1.658.984-3.109 1.243zm-2.697-3.595a45.684 45.684 0 00-3.443-.115h-11.094v.192h11.094c1.36 0 2.502-.028 3.443-.077z" fill="#fff"/></g><g filter="url(#filter47_f_702_3265)"><path fill-rule="evenodd" clip-rule="evenodd" d="M736.331 102.949h-19.043c.053 1.287.103 2.564.149 3.829.315 8.615.473 16.717.473 24.308 0 7.636-.158 15.764-.473 24.385a792.213 792.213 0 01-.149 3.829h27.826l18.81-42.438-1.4 42.438H782.5a609.952 609.952 0 01-.146-3.829 706.437 706.437 0 01-.398-24.385c0-8.558.133-16.661.398-24.308.045-1.289.094-2.566.146-3.829h-28.603l-18.887 43.604 1.321-43.604zm3.112 23.736l.835-27.565h-26.98l.164 3.987c.413 10.008.619 19.333.619 27.979 0 8.697-.206 18.049-.619 28.056l-.164 3.987h34.307l11.843-26.719-.881 26.719h27.924l-.165-3.987c-.36-8.698-.541-18.049-.541-28.056 0-9.955.181-19.281.541-27.979l.165-3.987h-35.108l-11.94 27.565z" fill="#fff"/></g><g filter="url(#filter48_f_702_3265)"><path fill-rule="evenodd" clip-rule="evenodd" d="M707.206 119.079c1.27.036 2.547.074 3.829.115v-16.323h-66.766v16.322a922.764 922.764 0 0123.628-.466V159.3h19.432v-40.573a946.2 946.2 0 0119.877.352zm-16.048 3.512c6.422.072 13.007.215 19.755.43l3.951.126V99.042h-74.425v24.106l3.953-.127a927.457 927.457 0 0119.676-.43v40.538h27.09v-40.538z" fill="#fff"/></g><g filter="url(#filter49_f_702_3265)"><path fill-rule="evenodd" clip-rule="evenodd" d="M616.027 148.185c1.658 4.457 2.979 8.161 3.964 11.115h20.131l-21.919-56.429H589.6L567.837 159.3h19.509l3.886-11.115h24.795zm-2.668 3.829a310.234 310.234 0 012.999 8.497l.873 2.618h28.486l-24.894-64.087h-33.85l-24.717 64.087h27.808l3.886-11.115h19.409zm-11.762-31.883a905.146 905.146 0 012.071-5.445l1.866 5.052.153.402a1065.521 1065.521 0 015.909 15.92h-15.933c.488-1.323.961-2.599 1.417-3.829 1.747-4.715 3.253-8.748 4.517-12.1zm2.049 5.437c-.76 2.032-1.588 4.252-2.482 6.663h4.959c-.817-2.221-1.643-4.442-2.477-6.663z" fill="#fff"/></g><g filter="url(#filter50_f_702_3265)"><path fill-rule="evenodd" clip-rule="evenodd" d="M558.691 108.467c-4.042-3.679-11.219-5.518-21.53-5.518h-16.167v-.078h-19.121c.053 1.287.103 2.564.149 3.829.315 8.621.473 16.75.473 24.386 0 7.636-.158 15.764-.473 24.385a792.213 792.213 0 01-.149 3.829h19.121v-13.68h16.167c7.098 0 12.669-.881 16.711-2.642 4.041-1.814 6.865-4.301 8.472-7.462 1.606-3.213 2.409-7.099 2.409-11.659 0-6.632-2.021-11.762-6.062-15.39zm-33.868 40.982v13.68h-26.94l.164-3.987c.413-10.007.619-19.359.619-28.056 0-8.698-.206-18.05-.619-28.057l-.164-3.987h26.94v.078h12.338c10.511 0 18.942 1.824 24.095 6.505 5.021 4.51 7.326 10.777 7.326 18.232 0 4.999-.879 9.503-2.813 13.371l-.006.012-.006.011c-2.093 4.119-5.682 7.14-10.318 9.22l-.019.009-.018.008c-4.73 2.062-10.899 2.961-18.241 2.961h-12.338zm16.535-19.296c-2.125.311-5.337.466-9.638.466h-10.726v-12.28h10.726c4.404 0 7.669.155 9.793.466 2.176.311 3.653.907 4.431 1.788.829.829 1.243 2.098 1.243 3.808s-.44 3.006-1.321 3.886c-.829.881-2.332 1.503-4.508 1.866zm-16.535-7.985h6.897c4.369 0 7.403.157 9.239.426l.013.002c.889.127 1.481.292 1.848.44.172.069.264.123.302.147l.029.033.049.048c.04.082.158.391.158 1.137 0 .536-.07.856-.127 1.022a.77.77 0 01-.06.139c-.006.009-.009.014-.011.015l-.002.003-.041.041-.024.025c-.02.016-.141.107-.44.23-.402.166-1.012.345-1.888.494-1.841.265-4.814.42-9.045.42h-6.897v-4.622zm18.363 1.072l.007.011-.007-.011z" fill="#fff"/></g><g filter="url(#filter51_f_702_3265)"><path fill-rule="evenodd" clip-rule="evenodd" d="M432.225 155.199l-.007-.007c-6.549-6.064-9.622-14.435-9.622-24.573 0-10.038 3.049-18.347 9.531-24.405l.006-.006.007-.006c6.611-6.122 16.512-8.792 28.873-8.792 12.398 0 22.311 2.664 28.878 8.797 6.536 6.055 9.617 14.366 9.617 24.412 0 10.17-3.036 18.551-9.546 24.574-6.569 6.079-16.507 8.713-28.949 8.713-12.307 0-22.173-2.643-28.781-8.701l-.007-.006zm38.715-17.135c-1.501 1.275-4.509 2.328-9.927 2.328-5.36 0-8.335-1.077-9.833-2.391-1.439-1.263-2.505-3.451-2.505-7.382 0-3.862 1.057-6.033 2.505-7.304 1.498-1.314 4.473-2.391 9.833-2.391 5.423 0 8.417 1.081 9.91 2.391 1.448 1.271 2.505 3.442 2.505 7.304 0 3.983-1.066 6.187-2.488 7.445zm-36.121 14.318c5.596 5.13 14.328 7.695 26.194 7.695 12.021 0 20.804-2.565 26.349-7.695 5.544-5.129 8.316-12.384 8.316-21.763 0-9.223-2.798-16.426-8.394-21.607-5.544-5.182-14.301-7.773-26.271-7.773-11.918 0-20.675 2.591-26.271 7.773-5.545 5.181-8.317 12.384-8.317 21.607 0 9.327 2.798 16.582 8.394 21.763zm38.63-11.425c-2.539 2.176-6.685 3.264-12.436 3.264-5.7 0-9.82-1.114-12.359-3.342-2.539-2.228-3.808-5.648-3.808-10.26 0-4.56 1.269-7.954 3.808-10.182 2.539-2.228 6.659-3.342 12.359-3.342 5.751 0 9.897 1.114 12.436 3.342 2.539 2.228 3.808 5.622 3.808 10.182 0 4.664-1.269 8.11-3.808 10.338z" fill="#fff"/></g><g filter="url(#filter52_f_702_3265)"><path fill-rule="evenodd" clip-rule="evenodd" d="M420.084 106.7c.045-1.289.094-2.566.146-3.829h-62.802c.053 1.287.103 2.564.149 3.829.315 8.621.473 16.75.473 24.386 0 7.636-.158 15.764-.473 24.385a792.213 792.213 0 01-.149 3.829h18.265v-40.728h26.272V159.3h18.265a609.952 609.952 0 01-.146-3.829 706.437 706.437 0 01-.398-24.385c0-8.603.133-16.732.398-24.386zm-21.949 15.701v40.728h26.086l-.165-3.987c-.36-8.698-.541-18.049-.541-28.056 0-10.008.181-19.359.541-28.056l.165-3.988h-70.783l.164 3.987c.413 10.007.618 19.359.618 28.057 0 8.697-.205 18.049-.618 28.056l-.164 3.987h26.085v-40.728h18.612z" fill="#fff"/></g><g filter="url(#filter53_f_702_3265)"><path fill-rule="evenodd" clip-rule="evenodd" d="M345.173 108.467c-4.042-3.679-11.218-5.518-21.53-5.518h-16.167v-.078h-19.12c.053 1.287.102 2.564.149 3.829.315 8.621.472 16.75.472 24.386 0 7.636-.157 15.764-.472 24.385a945.067 945.067 0 01-.149 3.829h19.12v-13.68h16.167c7.099 0 12.669-.881 16.711-2.642 4.042-1.814 6.866-4.301 8.472-7.462 1.606-3.213 2.41-7.099 2.41-11.659 0-6.632-2.021-11.762-6.063-15.39zm2.568-2.84c-5.152-4.683-13.585-6.507-24.098-6.507h-12.338v-.078h-26.94l.165 3.987c.412 10.007.618 19.359.618 28.057 0 8.697-.206 18.049-.618 28.056l-.165 3.987h26.94v-13.68h12.338c7.342 0 13.511-.899 18.241-2.961l.019-.008.019-.009c4.636-2.08 8.224-5.101 10.318-9.22l.005-.011.006-.012c1.934-3.868 2.814-8.372 2.814-13.371 0-7.454-2.305-13.72-7.324-18.23zm-19.901 24.526c-2.124.311-5.337.466-9.638.466h-10.726v-12.28h10.726c4.405 0 7.669.155 9.794.466 2.176.311 3.653.907 4.43 1.788.829.829 1.244 2.098 1.244 3.808s-.441 3.006-1.322 3.886c-.829.881-2.332 1.503-4.508 1.866zm-.592-3.783c-1.842.265-4.814.42-9.046.42h-6.897v-4.622h6.897c4.37 0 7.403.157 9.239.426l.013.002c.889.127 1.482.292 1.849.44.171.069.264.123.302.147l.029.033.048.048c.041.082.158.391.158 1.137 0 .536-.07.856-.126 1.022a.678.678 0 01-.071.154l-.002.003-.041.041-.024.025a1.97 1.97 0 01-.441.23c-.401.167-1.011.345-1.887.494zm2.42-3.13l.007.011a.046.046 0 01-.007-.011z" fill="#fff"/></g><g filter="url(#filter54_f_702_3265)"><path fill-rule="evenodd" clip-rule="evenodd" d="M218.707 155.199l-.007-.007c-6.549-6.064-9.622-14.435-9.622-24.573 0-10.038 3.049-18.347 9.531-24.405l.007-.006.006-.006c6.612-6.122 16.512-8.792 28.873-8.792 12.399 0 22.311 2.664 28.879 8.797 6.536 6.055 9.616 14.366 9.616 24.412 0 10.17-3.035 18.551-9.545 24.574-6.57 6.079-16.508 8.713-28.95 8.713-12.306 0-22.172-2.643-28.781-8.701l-.007-.006zm38.716-17.135c-1.502 1.275-4.51 2.328-9.928 2.328-5.36 0-8.335-1.077-9.833-2.391-1.439-1.263-2.505-3.451-2.505-7.382 0-3.862 1.057-6.033 2.505-7.304 1.498-1.314 4.473-2.391 9.833-2.391 5.423 0 8.418 1.081 9.911 2.391 1.448 1.271 2.505 3.442 2.505 7.304 0 3.983-1.066 6.187-2.488 7.445zm-36.121 14.318c5.596 5.13 14.327 7.695 26.193 7.695 12.022 0 20.805-2.565 26.349-7.695 5.545-5.129 8.317-12.384 8.317-21.763 0-9.223-2.798-16.426-8.395-21.607-5.544-5.182-14.301-7.773-26.271-7.773-11.918 0-20.675 2.591-26.271 7.773-5.544 5.181-8.317 12.384-8.317 21.607 0 9.327 2.798 16.582 8.395 21.763zm38.629-11.425c-2.539 2.176-6.684 3.264-12.436 3.264-5.7 0-9.819-1.114-12.358-3.342-2.539-2.228-3.809-5.648-3.809-10.26 0-4.56 1.27-7.954 3.809-10.182 2.539-2.228 6.658-3.342 12.358-3.342 5.752 0 9.897 1.114 12.436 3.342 2.539 2.228 3.809 5.622 3.809 10.182 0 4.664-1.27 8.11-3.809 10.338z" fill="#fff"/></g><g filter="url(#filter55_f_702_3265)"><path fill-rule="evenodd" clip-rule="evenodd" d="M198.76 140.646c-1.607-3.057-3.938-5.83-6.996-8.317a35.573 35.573 0 00-5.61-3.661 37.321 37.321 0 00-3.717-1.702l24.173-24.095h-25.183c-3.691 5.245-9.203 11.537-16.535 18.876a382.508 382.508 0 01-1.497 1.488c-1.037 0-1.814-.026-2.332-.077v-20.287h-19.354c.053 1.287.103 2.564.149 3.829.315 8.621.473 16.75.473 24.386 0 7.636-.158 15.764-.473 24.385a792.213 792.213 0 01-.149 3.829h19.354v-19.198c1.364 0 2.641.025 3.829.076 2.782.12 5.081.379 6.897.779 2.643.518 4.845 1.71 6.607 3.575 1.088 1.192 1.917 2.591 2.487 4.197.622 1.607 1.192 3.602 1.71 5.985.518 2.177.932 3.705 1.243 4.586h22.852c-.473-.883-1.042-2.159-1.707-3.829a127.426 127.426 0 01-1.402-3.71c-1.555-4.405-3.161-8.11-4.819-11.115zm3.371-1.816c1.78 3.232 3.459 7.126 5.053 11.641 1.29 3.559 2.245 5.837 2.879 7.021l3.02 5.637h-31.956l-.902-2.555c-.385-1.091-.839-2.796-1.357-4.973l-.009-.037-.008-.036c-.492-2.263-1.012-4.053-1.539-5.416l-.02-.051-.018-.051c-.405-1.141-.97-2.083-1.685-2.872-1.181-1.242-2.648-2.053-4.537-2.424l-.043-.008-.043-.01c-1.509-.331-3.519-.569-6.074-.685v19.118h-27.173l.164-3.987c.413-10.007.619-19.359.619-28.056 0-8.698-.206-18.05-.619-28.057l-.164-3.987h27.173v17.249c5.892-6.069 10.341-11.272 13.403-15.623l1.144-1.626h36.436l-26.893 26.807a39.4 39.4 0 015.168 3.485l.015.012.016.013c3.391 2.759 6.072 5.91 7.95 9.471z" fill="#fff"/></g><defs><filter id="filter0_f_702_3265" x=".563" y=".562" width="1082.07" height="250.475" filterUnits="userSpaceOnUse" color-interpolation-filters="sRGB"><feFlood flood-opacity="0" result="BackgroundImageFix"/><feBlend in="SourceGraphic" in2="BackgroundImageFix" result="shape"/><feGaussianBlur stdDeviation="28.719" result="effect1_foregroundBlur_702_3265"/></filter><filter id="filter1_f_702_3265" x="787.76" y="28.792" width="223.539" height="200.391" filterUnits="userSpaceOnUse" color-interpolation-filters="sRGB"><feFlood flood-opacity="0" result="BackgroundImageFix"/><feBlend in="SourceGraphic" in2="BackgroundImageFix" result="shape"/><feGaussianBlur stdDeviation="28.719" result="effect1_foregroundBlur_702_3265"/></filter><filter id="filter2_f_702_3265" x="718.307" y="32.989" width="198.451" height="196.193" filterUnits="userSpaceOnUse" color-interpolation-filters="sRGB"><feFlood flood-opacity="0" result="BackgroundImageFix"/><feBlend in="SourceGraphic" in2="BackgroundImageFix" result="shape"/><feGaussianBlur stdDeviation="28.719" result="effect1_foregroundBlur_702_3265"/></filter><filter id="filter3_f_702_3265" x="646.882" y="33.067" width="206.026" height="196.116" filterUnits="userSpaceOnUse" color-interpolation-filters="sRGB"><feFlood flood-opacity="0" result="BackgroundImageFix"/><feBlend in="SourceGraphic" in2="BackgroundImageFix" result="shape"/><feGaussianBlur stdDeviation="28.719" result="effect1_foregroundBlur_702_3265"/></filter><filter id="filter4_f_702_3265" x="574.386" y="32.989" width="206.531" height="196.193" filterUnits="userSpaceOnUse" color-interpolation-filters="sRGB"><feFlood flood-opacity="0" result="BackgroundImageFix"/><feBlend in="SourceGraphic" in2="BackgroundImageFix" result="shape"/><feGaussianBlur stdDeviation="28.719" result="effect1_foregroundBlur_702_3265"/></filter><filter id="filter5_f_702_3265" x="492.261" y="21.963" width="223.482" height="207.219" filterUnits="userSpaceOnUse" color-interpolation-filters="sRGB"><feFlood flood-opacity="0" result="BackgroundImageFix"/><feBlend in="SourceGraphic" in2="BackgroundImageFix" result="shape"/><feGaussianBlur stdDeviation="28.719" result="effect1_foregroundBlur_702_3265"/></filter><filter id="filter6_f_702_3265" x="431.467" y="32.989" width="203.168" height="196.193" filterUnits="userSpaceOnUse" color-interpolation-filters="sRGB"><feFlood flood-opacity="0" result="BackgroundImageFix"/><feBlend in="SourceGraphic" in2="BackgroundImageFix" result="shape"/><feGaussianBlur stdDeviation="28.719" result="effect1_foregroundBlur_702_3265"/></filter><filter id="filter7_f_702_3265" x="362.248" y="31.357" width="197.684" height="198.603" filterUnits="userSpaceOnUse" color-interpolation-filters="sRGB"><feFlood flood-opacity="0" result="BackgroundImageFix"/><feBlend in="SourceGraphic" in2="BackgroundImageFix" result="shape"/><feGaussianBlur stdDeviation="28.719" result="effect1_foregroundBlur_702_3265"/></filter><filter id="filter8_f_702_3265" x="287.021" y="32.989" width="203.617" height="196.193" filterUnits="userSpaceOnUse" color-interpolation-filters="sRGB"><feFlood flood-opacity="0" result="BackgroundImageFix"/><feBlend in="SourceGraphic" in2="BackgroundImageFix" result="shape"/><feGaussianBlur stdDeviation="28.719" result="effect1_foregroundBlur_702_3265"/></filter><filter id="filter9_f_702_3265" x="217.949" y="32.989" width="197.538" height="196.193" filterUnits="userSpaceOnUse" color-interpolation-filters="sRGB"><feFlood flood-opacity="0" result="BackgroundImageFix"/><feBlend in="SourceGraphic" in2="BackgroundImageFix" result="shape"/><feGaussianBlur stdDeviation="28.719" result="effect1_foregroundBlur_702_3265"/></filter><filter id="filter10_f_702_3265" x="143.024" y="31.357" width="203.39" height="198.603" filterUnits="userSpaceOnUse" color-interpolation-filters="sRGB"><feFlood flood-opacity="0" result="BackgroundImageFix"/><feBlend in="SourceGraphic" in2="BackgroundImageFix" result="shape"/><feGaussianBlur stdDeviation="28.719" result="effect1_foregroundBlur_702_3265"/></filter><filter id="filter11_f_702_3265" x="71.303" y="32.989" width="222.857" height="196.193" filterUnits="userSpaceOnUse" color-interpolation-filters="sRGB"><feFlood flood-opacity="0" result="BackgroundImageFix"/><feBlend in="SourceGraphic" in2="BackgroundImageFix" result="shape"/><feGaussianBlur stdDeviation="28.719" result="effect1_foregroundBlur_702_3265"/></filter><filter id="filter12_f_702_3265" x="822.061" y="63.254" width="154.897" height="131.466" filterUnits="userSpaceOnUse" color-interpolation-filters="sRGB"><feFlood flood-opacity="0" result="BackgroundImageFix"/><feBlend in="SourceGraphic" in2="BackgroundImageFix" result="shape"/><feGaussianBlur stdDeviation="9.573" result="effect1_foregroundBlur_702_3265"/></filter><filter id="filter13_f_702_3265" x="752.609" y="67.451" width="130.433" height="127.268" filterUnits="userSpaceOnUse" color-interpolation-filters="sRGB"><feFlood flood-opacity="0" result="BackgroundImageFix"/><feBlend in="SourceGraphic" in2="BackgroundImageFix" result="shape"/><feGaussianBlur stdDeviation="9.573" result="effect1_foregroundBlur_702_3265"/></filter><filter id="filter14_f_702_3265" x="681.183" y="67.529" width="137.424" height="127.191" filterUnits="userSpaceOnUse" color-interpolation-filters="sRGB"><feFlood flood-opacity="0" result="BackgroundImageFix"/><feBlend in="SourceGraphic" in2="BackgroundImageFix" result="shape"/><feGaussianBlur stdDeviation="9.573" result="effect1_foregroundBlur_702_3265"/></filter><filter id="filter15_f_702_3265" x="608.848" y="67.451" width="137.606" height="127.268" filterUnits="userSpaceOnUse" color-interpolation-filters="sRGB"><feFlood flood-opacity="0" result="BackgroundImageFix"/><feBlend in="SourceGraphic" in2="BackgroundImageFix" result="shape"/><feGaussianBlur stdDeviation="9.573" result="effect1_foregroundBlur_702_3265"/></filter><filter id="filter16_f_702_3265" x="524.971" y="49.398" width="158.075" height="145.322" filterUnits="userSpaceOnUse" color-interpolation-filters="sRGB"><feFlood flood-opacity="0" result="BackgroundImageFix"/><feBlend in="SourceGraphic" in2="BackgroundImageFix" result="shape"/><feGaussianBlur stdDeviation="9.573" result="effect1_foregroundBlur_702_3265"/></filter><filter id="filter17_f_702_3265" x="465.768" y="67.451" width="134.405" height="127.268" filterUnits="userSpaceOnUse" color-interpolation-filters="sRGB"><feFlood flood-opacity="0" result="BackgroundImageFix"/><feBlend in="SourceGraphic" in2="BackgroundImageFix" result="shape"/><feGaussianBlur stdDeviation="9.573" result="effect1_foregroundBlur_702_3265"/></filter><filter id="filter18_f_702_3265" x="399.376" y="65.819" width="123.302" height="129.678" filterUnits="userSpaceOnUse" color-interpolation-filters="sRGB"><feFlood flood-opacity="0" result="BackgroundImageFix"/><feBlend in="SourceGraphic" in2="BackgroundImageFix" result="shape"/><feGaussianBlur stdDeviation="9.573" result="effect1_foregroundBlur_702_3265"/></filter><filter id="filter19_f_702_3265" x="321.323" y="67.451" width="135.014" height="127.268" filterUnits="userSpaceOnUse" color-interpolation-filters="sRGB"><feFlood flood-opacity="0" result="BackgroundImageFix"/><feBlend in="SourceGraphic" in2="BackgroundImageFix" result="shape"/><feGaussianBlur stdDeviation="9.573" result="effect1_foregroundBlur_702_3265"/></filter><filter id="filter20_f_702_3265" x="252.251" y="67.451" width="128.556" height="127.268" filterUnits="userSpaceOnUse" color-interpolation-filters="sRGB"><feFlood flood-opacity="0" result="BackgroundImageFix"/><feBlend in="SourceGraphic" in2="BackgroundImageFix" result="shape"/><feGaussianBlur stdDeviation="9.573" result="effect1_foregroundBlur_702_3265"/></filter><filter id="filter21_f_702_3265" x="177.487" y="65.819" width="131.674" height="129.678" filterUnits="userSpaceOnUse" color-interpolation-filters="sRGB"><feFlood flood-opacity="0" result="BackgroundImageFix"/><feBlend in="SourceGraphic" in2="BackgroundImageFix" result="shape"/><feGaussianBlur stdDeviation="9.573" result="effect1_foregroundBlur_702_3265"/></filter><filter id="filter22_f_702_3265" x="105.604" y="67.451" width="159.53" height="127.268" filterUnits="userSpaceOnUse" color-interpolation-filters="sRGB"><feFlood flood-opacity="0" result="BackgroundImageFix"/><feBlend in="SourceGraphic" in2="BackgroundImageFix" result="shape"/><feGaussianBlur stdDeviation="9.573" result="effect1_foregroundBlur_702_3265"/></filter><filter id="filter23_ddi_702_3265" x="820.308" y="84.683" width="158.426" height="131.098" filterUnits="userSpaceOnUse" color-interpolation-filters="sRGB"><feFlood flood-opacity="0" result="BackgroundImageFix"/><feColorMatrix in="SourceAlpha" values="0 0 0 0 0 0 0 0 0 0 0 0 0 0 0 0 0 0 127 0" result="hardAlpha"/><feOffset dy="12.445"/><feGaussianBlur stdDeviation="4.786"/><feColorMatrix values="0 0 0 0 0 0 0 0 0 0.3 0 0 0 0 0.275 0 0 0 0.7 0"/><feBlend mode="multiply" in2="BackgroundImageFix" result="effect1_dropShadow_702_3265"/><feColorMatrix in="SourceAlpha" values="0 0 0 0 0 0 0 0 0 0 0 0 0 0 0 0 0 0 127 0" result="hardAlpha"/><feOffset dy="19.146"/><feGaussianBlur stdDeviation="12.445"/><feColorMatrix values="0 0 0 0 0 0 0 0 0 0.6 0 0 0 0 0.6 0 0 0 1 0"/><feBlend mode="color-dodge" in2="effect1_dropShadow_702_3265" result="effect2_dropShadow_702_3265"/><feBlend in="SourceGraphic" in2="effect2_dropShadow_702_3265" result="shape"/><feColorMatrix in="SourceAlpha" values="0 0 0 0 0 0 0 0 0 0 0 0 0 0 0 0 0 0 127 0" result="hardAlpha"/><feOffset dx="-1.244" dy="2.489"/><feGaussianBlur stdDeviation=".622"/><feComposite in2="hardAlpha" operator="arithmetic" k2="-1" k3="1"/><feColorMatrix values="0 0 0 0 1 0 0 0 0 1 0 0 0 0 1 0 0 0 0.5 0"/><feBlend in2="shape" result="effect3_innerShadow_702_3265"/></filter><filter id="filter24_ddi_702_3265" x="750.855" y="84.683" width="133.355" height="131.098" filterUnits="userSpaceOnUse" color-interpolation-filters="sRGB"><feFlood flood-opacity="0" result="BackgroundImageFix"/><feColorMatrix in="SourceAlpha" values="0 0 0 0 0 0 0 0 0 0 0 0 0 0 0 0 0 0 127 0" result="hardAlpha"/><feOffset dy="12.445"/><feGaussianBlur stdDeviation="4.786"/><feColorMatrix values="0 0 0 0 0 0 0 0 0 0.3 0 0 0 0 0.275 0 0 0 0.7 0"/><feBlend mode="multiply" in2="BackgroundImageFix" result="effect1_dropShadow_702_3265"/><feColorMatrix in="SourceAlpha" values="0 0 0 0 0 0 0 0 0 0 0 0 0 0 0 0 0 0 127 0" result="hardAlpha"/><feOffset dy="19.146"/><feGaussianBlur stdDeviation="12.445"/><feColorMatrix values="0 0 0 0 0 0 0 0 0 0.6 0 0 0 0 0.6 0 0 0 1 0"/><feBlend mode="color-dodge" in2="effect1_dropShadow_702_3265" result="effect2_dropShadow_702_3265"/><feBlend in="SourceGraphic" in2="effect2_dropShadow_702_3265" result="shape"/><feColorMatrix in="SourceAlpha" values="0 0 0 0 0 0 0 0 0 0 0 0 0 0 0 0 0 0 127 0" result="hardAlpha"/><feOffset dx="-1.244" dy="2.489"/><feGaussianBlur stdDeviation=".622"/><feComposite in2="hardAlpha" operator="arithmetic" k2="-1" k3="1"/><feColorMatrix values="0 0 0 0 1 0 0 0 0 1 0 0 0 0 1 0 0 0 0.5 0"/><feBlend in2="shape" result="effect3_innerShadow_702_3265"/></filter><filter id="filter25_ddi_702_3265" x="679.43" y="84.76" width="140.931" height="131.02" filterUnits="userSpaceOnUse" color-interpolation-filters="sRGB"><feFlood flood-opacity="0" result="BackgroundImageFix"/><feColorMatrix in="SourceAlpha" values="0 0 0 0 0 0 0 0 0 0 0 0 0 0 0 0 0 0 127 0" result="hardAlpha"/><feOffset dy="12.445"/><feGaussianBlur stdDeviation="4.786"/><feColorMatrix values="0 0 0 0 0 0 0 0 0 0.3 0 0 0 0 0.275 0 0 0 0.7 0"/><feBlend mode="multiply" in2="BackgroundImageFix" result="effect1_dropShadow_702_3265"/><feColorMatrix in="SourceAlpha" values="0 0 0 0 0 0 0 0 0 0 0 0 0 0 0 0 0 0 127 0" result="hardAlpha"/><feOffset dy="19.146"/><feGaussianBlur stdDeviation="12.445"/><feColorMatrix values="0 0 0 0 0 0 0 0 0 0.6 0 0 0 0 0.6 0 0 0 1 0"/><feBlend mode="color-dodge" in2="effect1_dropShadow_702_3265" result="effect2_dropShadow_702_3265"/><feBlend in="SourceGraphic" in2="effect2_dropShadow_702_3265" result="shape"/><feColorMatrix in="SourceAlpha" values="0 0 0 0 0 0 0 0 0 0 0 0 0 0 0 0 0 0 127 0" result="hardAlpha"/><feOffset dx="-1.244" dy="2.489"/><feGaussianBlur stdDeviation=".622"/><feComposite in2="hardAlpha" operator="arithmetic" k2="-1" k3="1"/><feColorMatrix values="0 0 0 0 1 0 0 0 0 1 0 0 0 0 1 0 0 0 0.5 0"/><feBlend in2="shape" result="effect3_innerShadow_702_3265"/></filter><filter id="filter26_ddi_702_3265" x="606.934" y="84.683" width="141.435" height="131.098" filterUnits="userSpaceOnUse" color-interpolation-filters="sRGB"><feFlood flood-opacity="0" result="BackgroundImageFix"/><feColorMatrix in="SourceAlpha" values="0 0 0 0 0 0 0 0 0 0 0 0 0 0 0 0 0 0 127 0" result="hardAlpha"/><feOffset dy="12.445"/><feGaussianBlur stdDeviation="4.786"/><feColorMatrix values="0 0 0 0 0 0 0 0 0 0.3 0 0 0 0 0.275 0 0 0 0.7 0"/><feBlend mode="multiply" in2="BackgroundImageFix" result="effect1_dropShadow_702_3265"/><feColorMatrix in="SourceAlpha" values="0 0 0 0 0 0 0 0 0 0 0 0 0 0 0 0 0 0 127 0" result="hardAlpha"/><feOffset dy="19.146"/><feGaussianBlur stdDeviation="12.445"/><feColorMatrix values="0 0 0 0 0 0 0 0 0 0.6 0 0 0 0 0.6 0 0 0 1 0"/><feBlend mode="color-dodge" in2="effect1_dropShadow_702_3265" result="effect2_dropShadow_702_3265"/><feBlend in="SourceGraphic" in2="effect2_dropShadow_702_3265" result="shape"/><feColorMatrix in="SourceAlpha" values="0 0 0 0 0 0 0 0 0 0 0 0 0 0 0 0 0 0 127 0" result="hardAlpha"/><feOffset dx="-1.244" dy="2.489"/><feGaussianBlur stdDeviation=".622"/><feComposite in2="hardAlpha" operator="arithmetic" k2="-1" k3="1"/><feColorMatrix values="0 0 0 0 1 0 0 0 0 1 0 0 0 0 1 0 0 0 0.5 0"/><feBlend in2="shape" result="effect3_innerShadow_702_3265"/></filter><filter id="filter27_ddi_702_3265" x="524.809" y="84.683" width="158.387" height="131.098" filterUnits="userSpaceOnUse" color-interpolation-filters="sRGB"><feFlood flood-opacity="0" result="BackgroundImageFix"/><feColorMatrix in="SourceAlpha" values="0 0 0 0 0 0 0 0 0 0 0 0 0 0 0 0 0 0 127 0" result="hardAlpha"/><feOffset dy="12.445"/><feGaussianBlur stdDeviation="4.786"/><feColorMatrix values="0 0 0 0 0 0 0 0 0 0.3 0 0 0 0 0.275 0 0 0 0.7 0"/><feBlend mode="multiply" in2="BackgroundImageFix" result="effect1_dropShadow_702_3265"/><feColorMatrix in="SourceAlpha" values="0 0 0 0 0 0 0 0 0 0 0 0 0 0 0 0 0 0 127 0" result="hardAlpha"/><feOffset dy="19.146"/><feGaussianBlur stdDeviation="12.445"/><feColorMatrix values="0 0 0 0 0 0 0 0 0 0.6 0 0 0 0 0.6 0 0 0 1 0"/><feBlend mode="color-dodge" in2="effect1_dropShadow_702_3265" result="effect2_dropShadow_702_3265"/><feBlend in="SourceGraphic" in2="effect2_dropShadow_702_3265" result="shape"/><feColorMatrix in="SourceAlpha" values="0 0 0 0 0 0 0 0 0 0 0 0 0 0 0 0 0 0 127 0" result="hardAlpha"/><feOffset dx="-1.244" dy="2.489"/><feGaussianBlur stdDeviation=".622"/><feComposite in2="hardAlpha" operator="arithmetic" k2="-1" k3="1"/><feColorMatrix values="0 0 0 0 1 0 0 0 0 1 0 0 0 0 1 0 0 0 0.5 0"/><feBlend in2="shape" result="effect3_innerShadow_702_3265"/></filter><filter id="filter28_ddi_702_3265" x="464.015" y="84.683" width="138.072" height="131.098" filterUnits="userSpaceOnUse" color-interpolation-filters="sRGB"><feFlood flood-opacity="0" result="BackgroundImageFix"/><feColorMatrix in="SourceAlpha" values="0 0 0 0 0 0 0 0 0 0 0 0 0 0 0 0 0 0 127 0" result="hardAlpha"/><feOffset dy="12.445"/><feGaussianBlur stdDeviation="4.786"/><feColorMatrix values="0 0 0 0 0 0 0 0 0 0.3 0 0 0 0 0.275 0 0 0 0.7 0"/><feBlend mode="multiply" in2="BackgroundImageFix" result="effect1_dropShadow_702_3265"/><feColorMatrix in="SourceAlpha" values="0 0 0 0 0 0 0 0 0 0 0 0 0 0 0 0 0 0 127 0" result="hardAlpha"/><feOffset dy="19.146"/><feGaussianBlur stdDeviation="12.445"/><feColorMatrix values="0 0 0 0 0 0 0 0 0 0.6 0 0 0 0 0.6 0 0 0 1 0"/><feBlend mode="color-dodge" in2="effect1_dropShadow_702_3265" result="effect2_dropShadow_702_3265"/><feBlend in="SourceGraphic" in2="effect2_dropShadow_702_3265" result="shape"/><feColorMatrix in="SourceAlpha" values="0 0 0 0 0 0 0 0 0 0 0 0 0 0 0 0 0 0 127 0" result="hardAlpha"/><feOffset dx="-1.244" dy="2.489"/><feGaussianBlur stdDeviation=".622"/><feComposite in2="hardAlpha" operator="arithmetic" k2="-1" k3="1"/><feColorMatrix values="0 0 0 0 1 0 0 0 0 1 0 0 0 0 1 0 0 0 0.5 0"/><feBlend in2="shape" result="effect3_innerShadow_702_3265"/></filter><filter id="filter29_ddi_702_3265" x="394.796" y="83.05" width="132.588" height="133.507" filterUnits="userSpaceOnUse" color-interpolation-filters="sRGB"><feFlood flood-opacity="0" result="BackgroundImageFix"/><feColorMatrix in="SourceAlpha" values="0 0 0 0 0 0 0 0 0 0 0 0 0 0 0 0 0 0 127 0" result="hardAlpha"/><feOffset dy="12.445"/><feGaussianBlur stdDeviation="4.786"/><feColorMatrix values="0 0 0 0 0 0 0 0 0 0.3 0 0 0 0 0.275 0 0 0 0.7 0"/><feBlend mode="multiply" in2="BackgroundImageFix" result="effect1_dropShadow_702_3265"/><feColorMatrix in="SourceAlpha" values="0 0 0 0 0 0 0 0 0 0 0 0 0 0 0 0 0 0 127 0" result="hardAlpha"/><feOffset dy="19.146"/><feGaussianBlur stdDeviation="12.445"/><feColorMatrix values="0 0 0 0 0 0 0 0 0 0.6 0 0 0 0 0.6 0 0 0 1 0"/><feBlend mode="color-dodge" in2="effect1_dropShadow_702_3265" result="effect2_dropShadow_702_3265"/><feBlend in="SourceGraphic" in2="effect2_dropShadow_702_3265" result="shape"/><feColorMatrix in="SourceAlpha" values="0 0 0 0 0 0 0 0 0 0 0 0 0 0 0 0 0 0 127 0" result="hardAlpha"/><feOffset dx="-1.244" dy="2.489"/><feGaussianBlur stdDeviation=".622"/><feComposite in2="hardAlpha" operator="arithmetic" k2="-1" k3="1"/><feColorMatrix values="0 0 0 0 1 0 0 0 0 1 0 0 0 0 1 0 0 0 0.5 0"/><feBlend in2="shape" result="effect3_innerShadow_702_3265"/></filter><filter id="filter30_ddi_702_3265" x="319.569" y="84.683" width="138.521" height="131.098" filterUnits="userSpaceOnUse" color-interpolation-filters="sRGB"><feFlood flood-opacity="0" result="BackgroundImageFix"/><feColorMatrix in="SourceAlpha" values="0 0 0 0 0 0 0 0 0 0 0 0 0 0 0 0 0 0 127 0" result="hardAlpha"/><feOffset dy="12.445"/><feGaussianBlur stdDeviation="4.786"/><feColorMatrix values="0 0 0 0 0 0 0 0 0 0.3 0 0 0 0 0.275 0 0 0 0.7 0"/><feBlend mode="multiply" in2="BackgroundImageFix" result="effect1_dropShadow_702_3265"/><feColorMatrix in="SourceAlpha" values="0 0 0 0 0 0 0 0 0 0 0 0 0 0 0 0 0 0 127 0" result="hardAlpha"/><feOffset dy="19.146"/><feGaussianBlur stdDeviation="12.445"/><feColorMatrix values="0 0 0 0 0 0 0 0 0 0.6 0 0 0 0 0.6 0 0 0 1 0"/><feBlend mode="color-dodge" in2="effect1_dropShadow_702_3265" result="effect2_dropShadow_702_3265"/><feBlend in="SourceGraphic" in2="effect2_dropShadow_702_3265" result="shape"/><feColorMatrix in="SourceAlpha" values="0 0 0 0 0 0 0 0 0 0 0 0 0 0 0 0 0 0 127 0" result="hardAlpha"/><feOffset dx="-1.244" dy="2.489"/><feGaussianBlur stdDeviation=".622"/><feComposite in2="hardAlpha" operator="arithmetic" k2="-1" k3="1"/><feColorMatrix values="0 0 0 0 1 0 0 0 0 1 0 0 0 0 1 0 0 0 0.5 0"/><feBlend in2="shape" result="effect3_innerShadow_702_3265"/></filter><filter id="filter31_ddi_702_3265" x="250.497" y="84.683" width="132.442" height="131.098" filterUnits="userSpaceOnUse" color-interpolation-filters="sRGB"><feFlood flood-opacity="0" result="BackgroundImageFix"/><feColorMatrix in="SourceAlpha" values="0 0 0 0 0 0 0 0 0 0 0 0 0 0 0 0 0 0 127 0" result="hardAlpha"/><feOffset dy="12.445"/><feGaussianBlur stdDeviation="4.786"/><feColorMatrix values="0 0 0 0 0 0 0 0 0 0.3 0 0 0 0 0.275 0 0 0 0.7 0"/><feBlend mode="multiply" in2="BackgroundImageFix" result="effect1_dropShadow_702_3265"/><feColorMatrix in="SourceAlpha" values="0 0 0 0 0 0 0 0 0 0 0 0 0 0 0 0 0 0 127 0" result="hardAlpha"/><feOffset dy="19.146"/><feGaussianBlur stdDeviation="12.445"/><feColorMatrix values="0 0 0 0 0 0 0 0 0 0.6 0 0 0 0 0.6 0 0 0 1 0"/><feBlend mode="color-dodge" in2="effect1_dropShadow_702_3265" result="effect2_dropShadow_702_3265"/><feBlend in="SourceGraphic" in2="effect2_dropShadow_702_3265" result="shape"/><feColorMatrix in="SourceAlpha" values="0 0 0 0 0 0 0 0 0 0 0 0 0 0 0 0 0 0 127 0" result="hardAlpha"/><feOffset dx="-1.244" dy="2.489"/><feGaussianBlur stdDeviation=".622"/><feComposite in2="hardAlpha" operator="arithmetic" k2="-1" k3="1"/><feColorMatrix values="0 0 0 0 1 0 0 0 0 1 0 0 0 0 1 0 0 0 0.5 0"/><feBlend in2="shape" result="effect3_innerShadow_702_3265"/></filter><filter id="filter32_ddi_702_3265" x="175.572" y="83.05" width="138.294" height="133.507" filterUnits="userSpaceOnUse" color-interpolation-filters="sRGB"><feFlood flood-opacity="0" result="BackgroundImageFix"/><feColorMatrix in="SourceAlpha" values="0 0 0 0 0 0 0 0 0 0 0 0 0 0 0 0 0 0 127 0" result="hardAlpha"/><feOffset dy="12.445"/><feGaussianBlur stdDeviation="4.786"/><feColorMatrix values="0 0 0 0 0 0 0 0 0 0.3 0 0 0 0 0.275 0 0 0 0.7 0"/><feBlend mode="multiply" in2="BackgroundImageFix" result="effect1_dropShadow_702_3265"/><feColorMatrix in="SourceAlpha" values="0 0 0 0 0 0 0 0 0 0 0 0 0 0 0 0 0 0 127 0" result="hardAlpha"/><feOffset dy="19.146"/><feGaussianBlur stdDeviation="12.445"/><feColorMatrix values="0 0 0 0 0 0 0 0 0 0.6 0 0 0 0 0.6 0 0 0 1 0"/><feBlend mode="color-dodge" in2="effect1_dropShadow_702_3265" result="effect2_dropShadow_702_3265"/><feBlend in="SourceGraphic" in2="effect2_dropShadow_702_3265" result="shape"/><feColorMatrix in="SourceAlpha" values="0 0 0 0 0 0 0 0 0 0 0 0 0 0 0 0 0 0 127 0" result="hardAlpha"/><feOffset dx="-1.244" dy="2.489"/><feGaussianBlur stdDeviation=".622"/><feComposite in2="hardAlpha" operator="arithmetic" k2="-1" k3="1"/><feColorMatrix values="0 0 0 0 1 0 0 0 0 1 0 0 0 0 1 0 0 0 0.5 0"/><feBlend in2="shape" result="effect3_innerShadow_702_3265"/></filter><filter id="filter33_ddi_702_3265" x="103.851" y="84.683" width="157.762" height="131.098" filterUnits="userSpaceOnUse" color-interpolation-filters="sRGB"><feFlood flood-opacity="0" result="BackgroundImageFix"/><feColorMatrix in="SourceAlpha" values="0 0 0 0 0 0 0 0 0 0 0 0 0 0 0 0 0 0 127 0" result="hardAlpha"/><feOffset dy="12.445"/><feGaussianBlur stdDeviation="4.786"/><feColorMatrix values="0 0 0 0 0 0 0 0 0 0.3 0 0 0 0 0.275 0 0 0 0.7 0"/><feBlend mode="multiply" in2="BackgroundImageFix" result="effect1_dropShadow_702_3265"/><feColorMatrix in="SourceAlpha" values="0 0 0 0 0 0 0 0 0 0 0 0 0 0 0 0 0 0 127 0" result="hardAlpha"/><feOffset dy="19.146"/><feGaussianBlur stdDeviation="12.445"/><feColorMatrix values="0 0 0 0 0 0 0 0 0 0.6 0 0 0 0 0.6 0 0 0 1 0"/><feBlend mode="color-dodge" in2="effect1_dropShadow_702_3265" result="effect2_dropShadow_702_3265"/><feBlend in="SourceGraphic" in2="effect2_dropShadow_702_3265" result="shape"/><feColorMatrix in="SourceAlpha" values="0 0 0 0 0 0 0 0 0 0 0 0 0 0 0 0 0 0 127 0" result="hardAlpha"/><feOffset dx="-1.244" dy="2.489"/><feGaussianBlur stdDeviation=".622"/><feComposite in2="hardAlpha" operator="arithmetic" k2="-1" k3="1"/><feColorMatrix values="0 0 0 0 1 0 0 0 0 1 0 0 0 0 1 0 0 0 0.5 0"/><feBlend in2="shape" result="effect3_innerShadow_702_3265"/></filter><filter id="filter34_f_702_3265" x="848.269" y="89.101" width="102.567" height="79.772" filterUnits="userSpaceOnUse" color-interpolation-filters="sRGB"><feFlood flood-opacity="0" result="BackgroundImageFix"/><feBlend in="SourceGraphic" in2="BackgroundImageFix" result="shape"/><feGaussianBlur stdDeviation=".957" result="effect1_foregroundBlur_702_3265"/></filter><filter id="filter35_f_702_3265" x="778.818" y="93.298" width="81.856" height="75.575" filterUnits="userSpaceOnUse" color-interpolation-filters="sRGB"><feFlood flood-opacity="0" result="BackgroundImageFix"/><feBlend in="SourceGraphic" in2="BackgroundImageFix" result="shape"/><feGaussianBlur stdDeviation=".957" result="effect1_foregroundBlur_702_3265"/></filter><filter id="filter36_f_702_3265" x="707.392" y="93.376" width="85.003" height="75.497" filterUnits="userSpaceOnUse" color-interpolation-filters="sRGB"><feFlood flood-opacity="0" result="BackgroundImageFix"/><feBlend in="SourceGraphic" in2="BackgroundImageFix" result="shape"/><feGaussianBlur stdDeviation=".957" result="effect1_foregroundBlur_702_3265"/></filter><filter id="filter37_f_702_3265" x="634.695" y="93.298" width="85.912" height="75.575" filterUnits="userSpaceOnUse" color-interpolation-filters="sRGB"><feFlood flood-opacity="0" result="BackgroundImageFix"/><feBlend in="SourceGraphic" in2="BackgroundImageFix" result="shape"/><feGaussianBlur stdDeviation=".957" result="effect1_foregroundBlur_702_3265"/></filter><filter id="filter38_f_702_3265" x="554.759" y="91.057" width="98.466" height="77.816" filterUnits="userSpaceOnUse" color-interpolation-filters="sRGB"><feFlood flood-opacity="0" result="BackgroundImageFix"/><feBlend in="SourceGraphic" in2="BackgroundImageFix" result="shape"/><feGaussianBlur stdDeviation=".957" result="effect1_foregroundBlur_702_3265"/></filter><filter id="filter39_f_702_3265" x="491.977" y="93.298" width="82.348" height="75.575" filterUnits="userSpaceOnUse" color-interpolation-filters="sRGB"><feFlood flood-opacity="0" result="BackgroundImageFix"/><feBlend in="SourceGraphic" in2="BackgroundImageFix" result="shape"/><feGaussianBlur stdDeviation=".957" result="effect1_foregroundBlur_702_3265"/></filter><filter id="filter40_f_702_3265" x="417.771" y="91.666" width="86.638" height="77.984" filterUnits="userSpaceOnUse" color-interpolation-filters="sRGB"><feFlood flood-opacity="0" result="BackgroundImageFix"/><feBlend in="SourceGraphic" in2="BackgroundImageFix" result="shape"/><feGaussianBlur stdDeviation=".957" result="effect1_foregroundBlur_702_3265"/></filter><filter id="filter41_f_702_3265" x="347.532" y="93.298" width="82.594" height="75.575" filterUnits="userSpaceOnUse" color-interpolation-filters="sRGB"><feFlood flood-opacity="0" result="BackgroundImageFix"/><feBlend in="SourceGraphic" in2="BackgroundImageFix" result="shape"/><feGaussianBlur stdDeviation=".957" result="effect1_foregroundBlur_702_3265"/></filter><filter id="filter42_f_702_3265" x="278.459" y="93.298" width="81.504" height="75.575" filterUnits="userSpaceOnUse" color-interpolation-filters="sRGB"><feFlood flood-opacity="0" result="BackgroundImageFix"/><feBlend in="SourceGraphic" in2="BackgroundImageFix" result="shape"/><feGaussianBlur stdDeviation=".957" result="effect1_foregroundBlur_702_3265"/></filter><filter id="filter43_f_702_3265" x="203.333" y="91.666" width="87.558" height="77.984" filterUnits="userSpaceOnUse" color-interpolation-filters="sRGB"><feFlood flood-opacity="0" result="BackgroundImageFix"/><feBlend in="SourceGraphic" in2="BackgroundImageFix" result="shape"/><feGaussianBlur stdDeviation=".957" result="effect1_foregroundBlur_702_3265"/></filter><filter id="filter44_f_702_3265" x="131.813" y="93.298" width="95.241" height="75.575" filterUnits="userSpaceOnUse" color-interpolation-filters="sRGB"><feFlood flood-opacity="0" result="BackgroundImageFix"/><feBlend in="SourceGraphic" in2="BackgroundImageFix" result="shape"/><feGaussianBlur stdDeviation=".957" result="effect1_foregroundBlur_702_3265"/></filter><filter id="filter45_f_702_3265" x="852.899" y="93.569" width="93.35" height="70.837" filterUnits="userSpaceOnUse" color-interpolation-filters="sRGB"><feFlood flood-opacity="0" result="BackgroundImageFix"/><feBlend in="SourceGraphic" in2="BackgroundImageFix" result="shape"/><feGaussianBlur stdDeviation=".638" result="effect1_foregroundBlur_702_3265"/></filter><filter id="filter46_f_702_3265" x="783.446" y="97.766" width="73.641" height="66.64" filterUnits="userSpaceOnUse" color-interpolation-filters="sRGB"><feFlood flood-opacity="0" result="BackgroundImageFix"/><feBlend in="SourceGraphic" in2="BackgroundImageFix" result="shape"/><feGaussianBlur stdDeviation=".638" result="effect1_foregroundBlur_702_3265"/></filter><filter id="filter47_f_702_3265" x="712.021" y="97.843" width="75.745" height="66.562" filterUnits="userSpaceOnUse" color-interpolation-filters="sRGB"><feFlood flood-opacity="0" result="BackgroundImageFix"/><feBlend in="SourceGraphic" in2="BackgroundImageFix" result="shape"/><feGaussianBlur stdDeviation=".638" result="effect1_foregroundBlur_702_3265"/></filter><filter id="filter48_f_702_3265" x="639.163" y="97.766" width="76.978" height="66.64" filterUnits="userSpaceOnUse" color-interpolation-filters="sRGB"><feFlood flood-opacity="0" result="BackgroundImageFix"/><feBlend in="SourceGraphic" in2="BackgroundImageFix" result="shape"/><feGaussianBlur stdDeviation=".638" result="effect1_foregroundBlur_702_3265"/></filter><filter id="filter49_f_702_3265" x="560.979" y="97.766" width="86.014" height="66.64" filterUnits="userSpaceOnUse" color-interpolation-filters="sRGB"><feFlood flood-opacity="0" result="BackgroundImageFix"/><feBlend in="SourceGraphic" in2="BackgroundImageFix" result="shape"/><feGaussianBlur stdDeviation=".638" result="effect1_foregroundBlur_702_3265"/></filter><filter id="filter50_f_702_3265" x="496.606" y="97.766" width="73.252" height="66.64" filterUnits="userSpaceOnUse" color-interpolation-filters="sRGB"><feFlood flood-opacity="0" result="BackgroundImageFix"/><feBlend in="SourceGraphic" in2="BackgroundImageFix" result="shape"/><feGaussianBlur stdDeviation=".638" result="effect1_foregroundBlur_702_3265"/></filter><filter id="filter51_f_702_3265" x="421.319" y="96.133" width="79.465" height="69.049" filterUnits="userSpaceOnUse" color-interpolation-filters="sRGB"><feFlood flood-opacity="0" result="BackgroundImageFix"/><feBlend in="SourceGraphic" in2="BackgroundImageFix" result="shape"/><feGaussianBlur stdDeviation=".638" result="effect1_foregroundBlur_702_3265"/></filter><filter id="filter52_f_702_3265" x="352.161" y="97.766" width="73.336" height="66.64" filterUnits="userSpaceOnUse" color-interpolation-filters="sRGB"><feFlood flood-opacity="0" result="BackgroundImageFix"/><feBlend in="SourceGraphic" in2="BackgroundImageFix" result="shape"/><feGaussianBlur stdDeviation=".638" result="effect1_foregroundBlur_702_3265"/></filter><filter id="filter53_f_702_3265" x="283.089" y="97.766" width="73.252" height="66.64" filterUnits="userSpaceOnUse" color-interpolation-filters="sRGB"><feFlood flood-opacity="0" result="BackgroundImageFix"/><feBlend in="SourceGraphic" in2="BackgroundImageFix" result="shape"/><feGaussianBlur stdDeviation=".638" result="effect1_foregroundBlur_702_3265"/></filter><filter id="filter54_f_702_3265" x="207.802" y="96.133" width="79.465" height="69.049" filterUnits="userSpaceOnUse" color-interpolation-filters="sRGB"><feFlood flood-opacity="0" result="BackgroundImageFix"/><feBlend in="SourceGraphic" in2="BackgroundImageFix" result="shape"/><feGaussianBlur stdDeviation=".638" result="effect1_foregroundBlur_702_3265"/></filter><filter id="filter55_f_702_3265" x="136.442" y="97.766" width="80.709" height="66.64" filterUnits="userSpaceOnUse" color-interpolation-filters="sRGB"><feFlood flood-opacity="0" result="BackgroundImageFix"/><feBlend in="SourceGraphic" in2="BackgroundImageFix" result="shape"/><feGaussianBlur stdDeviation=".638" result="effect1_foregroundBlur_702_3265"/></filter></defs></svg>