<svg width="818" height="260" fill="none" xmlns="http://www.w3.org/2000/svg"><g style="mix-blend-mode:hard-light" filter="url(#filter0_f_702_3282)"><ellipse cx="409" cy="130" rx="362.4" ry="83.4" fill="#FF3780" fill-opacity=".2"/></g><g style="mix-blend-mode:hard-light" filter="url(#filter1_f_702_3282)"><path fill-rule="evenodd" clip-rule="evenodd" d="M710.509 91.743l-.434 10.477c-.441 10.659-.663 22.135-.663 34.432s.222 23.773.663 34.432l.434 10.477h-43.204v-19.84c-3.759 6.09-6.589 10.922-8.529 14.536l-2.846 5.304h-51.774l7.245-10.061h2.876c0-1.42.003-2.756.01-4.01l11.391-15.819c-2.645-1.807-4.984-4.003-6.89-6.662l-.032-.045-.032-.046c-4.081-5.83-5.851-12.647-5.851-19.882 0-2.007.154-3.962.465-5.856h.939v-4.076c1.719-5.717 5.031-10.741 9.993-14.773 7.973-6.478 20.069-8.493 33.417-8.493h9.618v-.095h43.204zM639.351 149.9l-15.552 21.6h26.112c2.816-5.248 7.264-12.672 13.344-22.272h14.112V171.5h22.656c-.136-3.28-.252-6.634-.346-10.061a897.16 897.16 0 01-.326-24.787c0-8.651.108-16.913.326-24.787.094-3.427.21-6.781.346-10.061h-22.656v.096h-19.68c-12.928 0-21.952 2.08-27.072 6.24-5.12 4.16-7.68 9.792-7.68 16.896 0 5.568 1.344 10.272 4.032 14.112 1.167 1.629 2.681 3.069 4.54 4.318 2.522 1.694 5.681 3.039 9.476 4.034-.768 1.024-1.312 1.824-1.632 2.4zm6.816-27.456c-1.024.768-1.536 1.856-1.536 3.264 0 1.472.544 2.592 1.632 3.36 1.059.748 2.909 1.314 5.547 1.698l.213.03c.198.023.402.044.614.065 2.789.277 6.712.415 11.77.415h12.96v-10.944h-12.96c-4.998 0-8.887.132-11.668.396a37.2 37.2 0 00-.812.084c-2.816.32-4.736.864-5.76 1.632z" fill="#F32E7C"/></g><g style="mix-blend-mode:hard-light" filter="url(#filter2_f_702_3282)"><path fill-rule="evenodd" clip-rule="evenodd" d="M607.556 144.428c-3.388-.12-6.742-.221-10.061-.303a868.768 868.768 0 00-21.523-.273c-6.016 0-10.56.032-13.632.096v9.984l.208-.001a2988.012 2988.012 0 0013.424-.101c11.582-.116 21.255-.295 29.018-.539.771-.024 1.523-.049 2.256-.074 2.973-.104 5.636-.217 7.99-.341a61.96 61.96 0 00-.291 1.88 67.895 67.895 0 00-.573 6.28c-.014.616-.027 1.27-.038 1.96a531.872 531.872 0 00-.058 8.504h-74.592c.141-3.414.262-6.768.364-10.061.27-8.683.404-16.945.404-24.787 0-7.842-.134-16.104-.404-24.787a976.392 976.392 0 00-.364-10.061h74.592v17.376H562.34v9.216c3.072.064 7.616.096 13.632.096 7.007 0 14.182-.091 21.523-.273 3.319-.082 6.673-.183 10.061-.303v16.512zm10.062-15.187v13.434l9.654-.508-2.118 12.402a56.262 56.262 0 00-.726 6.816 447.346 447.346 0 00-.09 9.365l-.54.75h.54v10.061h-95.139l.432-10.476c.472-11.431.723-22.153.756-32.168.246-.732.464-1.487.655-2.265.663-2.698.994-5.674.994-8.928 0-4.142-.638-7.81-1.915-11.003-.122-4.7-.285-9.534-.49-14.502l-.432-10.476h95.139v24.99a20.667 20.667 0 00-.747 2.447c-.438 1.826-.657 3.778-.657 5.856 0 1.461.093 2.863.278 4.205h-5.594z" fill="#F32E7C"/></g><g style="mix-blend-mode:hard-light" filter="url(#filter3_f_702_3282)"><path fill-rule="evenodd" clip-rule="evenodd" d="M477.988 101.804v.096h19.968c12.736 0 21.6 2.272 26.592 6.816 4.992 4.48 7.488 10.816 7.488 19.008 0 5.632-.992 10.432-2.976 14.4-1.984 3.904-5.472 6.976-10.464 9.216-4.992 2.176-11.872 3.264-20.64 3.264h-19.968V171.5h-23.616c.14-3.414.262-6.768.364-10.061.269-8.683.404-16.945.404-24.787 0-7.842-.135-16.104-.404-24.787-.102-3.293-.224-6.647-.364-10.061h23.616zm10.061 62.861v16.896h-44.162l.415-10.061h1.412v-.357c.002-4.064.033-7.433.096-10.107.128-2.816.416-5.536.864-8.16-.575.03-1.168.06-1.779.089.122-5.636.183-11.073.183-16.313 0-5.598-.069-11.422-.209-17.472h.845v-17.376h-1.412l-.415-10.061h44.162v.096h9.907c13.268 0 25.429 2.233 33.338 9.412 4.245 3.818 7.129 8.43 8.841 13.573.123 4.411.21 8.711.261 12.9a712.834 712.834 0 01.046 12.731 35.66 35.66 0 01-2.383 6.169l-.015.029-.015.029c-3.263 6.422-8.761 10.897-15.314 13.838l-.049.022-.05.021c-6.8 2.965-15.254 4.102-24.66 4.102h-9.907zM503.14 135.5c-2.624.384-6.592.576-11.904.576h-13.248v-15.168h13.248c5.44 0 9.472.192 12.096.576 2.688.384 4.512 1.12 5.472 2.208 1.024 1.024 1.536 2.592 1.536 4.704 0 2.112-.544 3.712-1.632 4.8-1.024 1.088-2.88 1.856-5.568 2.304z" fill="#F32E7C"/></g><g style="mix-blend-mode:hard-light" filter="url(#filter4_f_702_3282)"><path fill-rule="evenodd" clip-rule="evenodd" d="M438.994 144.428c-3.388-.12-6.742-.221-10.062-.303a868.688 868.688 0 00-21.522-.273c-6.016 0-10.56.032-13.632.096v9.984l.208-.001a2987.354 2987.354 0 0013.424-.101c11.582-.116 21.254-.295 29.018-.539a755.44 755.44 0 002.255-.074c2.973-.104 5.637-.217 7.991-.341a61.957 61.957 0 00-.292 1.88 67.554 67.554 0 00-.572 6.28c-.015.616-.027 1.27-.039 1.96a545.236 545.236 0 00-.057 8.504h-74.592c.14-3.414.262-6.768.364-10.061.269-8.683.404-16.945.404-24.787 0-7.842-.135-16.104-.404-24.787-.102-3.293-.224-6.647-.364-10.061h74.592v17.376h-51.936v9.216c3.072.064 7.616.096 13.632.096 7.007 0 14.181-.091 21.522-.273 3.32-.082 6.674-.183 10.062-.303v16.512zm10.061-15.187v13.434l6.062-.319a805.494 805.494 0 01-.188 11.93 882.441 882.441 0 01-.187 6.958l-.006.198c-.102 3.292-.224 6.645-.364 10.058h1.403v10.061h-95.138l.415-10.061h2.363v-69.6l-2.36-.003-.418-10.154h95.138v10.061h-1.403c.246 5.977.433 11.769.561 17.376.078 3.423.134 6.777.168 10.061h-6.046z" fill="#F32E7C"/></g><g style="mix-blend-mode:hard-light" filter="url(#filter5_f_702_3282)"><path fill-rule="evenodd" clip-rule="evenodd" d="M373.477 181.561h-44.411v-50.88h-1.515a177.402 177.402 0 01-.364 8.983 97.97 97.97 0 01-1.491 12.434v.002c-1.688 9.202-6.138 16.984-13.356 22.803-7.572 6.158-17.383 8.578-28.124 8.578h-10.062V171.5h4.939l-4.939-12.715v-12.292l8.04-1.649c.071-.015.131-.029.18-.042a6.52 6.52 0 00.278-.624c.28-.711.598-1.767.894-3.254.372-2.104.688-8.232.688-19.512v-.024l-.145-29.66 89.388.125v9.951h-2.355l.004.096c.509 12.38.764 23.964.764 34.752 0 10.816-.256 22.432-.768 34.848h2.355v10.061zm-80.045-38.765c-.768 3.904-1.888 6.752-3.36 8.544-1.408 1.728-3.36 2.848-5.856 3.36v18.72c3.675 0 7.029-.327 10.061-.98 4.676-1.008 8.586-2.794 11.731-5.356 5.248-4.224 8.512-9.824 9.792-16.8a87.913 87.913 0 001.344-11.232c.256-3.712.384-8 .384-12.864l.096-5.568h21.504v50.88h24.288v-69.6l-69.216-.096.096 19.584c0 11.136-.288 18.272-.864 21.408z" fill="#F32E7C"/></g><g style="mix-blend-mode:hard-light" filter="url(#filter6_f_702_3282)"><path fill-rule="evenodd" clip-rule="evenodd" d="M246.977 181.561l-2.293-6.879a329.393 329.393 0 00-2.382-6.849h-16.453l-4.8 13.728h-45.901l34.641-89.819h22.982l1.49-3.874 1.43 3.875h23.215l25.309 65.156v16.521c2.21 0 4.303-.118 6.28-.354l3.3 8.495h-46.818zm-30.284-79.757l-26.88 69.696h24.096l4.8-13.728h30.624c2.048 5.504 3.68 10.08 4.896 13.728h24.864l-27.072-69.696h-35.328zm11.976 28.898c.801-2.146 1.548-4.141 2.241-5.985l.028-.074c1.207-3.209 2.25-5.958 3.131-8.247l2.304 6.24c1.023 2.687 2.037 5.374 3.04 8.06l.759 2.039c1.245 3.353 2.475 6.707 3.689 10.061h-19.68a4083.51 4083.51 0 013.731-10.061l.757-2.033z" fill="#F32E7C"/></g><g style="mix-blend-mode:hard-light" filter="url(#filter7_f_702_3282)"><path fill-rule="evenodd" clip-rule="evenodd" d="M151.482 181.561h-43.968l.43-10.473c.507-12.364.759-23.841.759-34.436 0-10.659-.252-22.136-.759-34.433l-.432-10.476h88.762l-.251 10.306c-.127 5.226-.189 9.128-.189 11.755 0 3.362.032 5.771.089 7.308l.387 10.433h-44.828v50.016zm34.483-79.757a688.473 688.473 0 00-.184 10.061c-.005.704-.008 1.35-.008 1.939 0 3.392.032 5.952.096 7.68h-44.448V171.5h-23.424c.14-3.419.261-6.772.363-10.061.27-8.718.405-16.98.405-24.787 0-7.842-.135-16.104-.404-24.787-.102-3.293-.224-6.647-.364-10.061h67.968z" fill="#F32E7C"/></g><g style="mix-blend-mode:hard-light" filter="url(#filter8_f_702_3282)"><path fill-rule="evenodd" clip-rule="evenodd" d="M713.735 88.647l-.568 13.702c-.439 10.61-.66 22.043-.66 34.303 0 12.26.221 23.693.66 34.303l.568 13.702h-49.527V172.89a175.967 175.967 0 00-2.705 4.831l-3.722 6.936h-59.67l9.474-13.157h6.69c0-2.544.012-4.821.035-6.831.011-.909.024-1.764.039-2.564l7.049-9.79a29.725 29.725 0 01-5.127-5.503l-.043-.059-.041-.06c-4.51-6.442-6.411-13.909-6.411-21.657 0-1.997.142-3.952.427-5.856h4.072v-11.874c2-3.485 4.674-6.641 8.042-9.378 8.85-7.19 21.892-9.185 35.368-9.185h6.523v-.096h49.527zM639.349 149.9l-15.552 21.6h26.112c2.816-5.248 7.264-12.672 13.344-22.272h14.112V171.5h22.656a750.313 750.313 0 01-.425-13.157 918.684 918.684 0 01-.247-21.691c0-7.524.083-14.754.247-21.691.107-4.51.249-8.895.425-13.157h-22.656v.096h-19.68c-12.928 0-21.952 2.08-27.072 6.24-5.12 4.16-7.68 9.792-7.68 16.896 0 5.568 1.344 10.272 4.032 14.112a16.21 16.21 0 002.106 2.39c2.805 2.629 6.775 4.616 11.91 5.962-.768 1.024-1.312 1.824-1.632 2.4zm16.688-29.399c2.27-.111 4.994-.167 8.171-.169h13.157v10.944h-13.157c-3.23-.002-5.992-.062-8.286-.178a74.696 74.696 0 01-2.85-.195 60.188 60.188 0 01-1.051-.107c-2.752-.384-4.672-.96-5.76-1.728s-1.632-1.888-1.632-3.36c0-1.408.512-2.496 1.536-3.264 1.024-.768 2.944-1.312 5.76-1.632l.178-.02c.337-.037.693-.071 1.067-.104l.265-.022c.789-.064 1.656-.12 2.602-.165z" fill="#FF26C2"/></g><g style="mix-blend-mode:hard-light" filter="url(#filter9_f_702_3282)"><path fill-rule="evenodd" clip-rule="evenodd" d="M540.139 158.343c.208-7.557.313-14.787.313-21.691 0-6.904-.105-14.134-.313-21.691a966.97 966.97 0 00-.455-13.157h74.592v17.376H562.34v9.216c3.072.064 7.616.096 13.632.096 6.019 0 12.161-.067 18.426-.202a937.27 937.27 0 0013.158-.374v16.512a937.27 937.27 0 00-13.158-.374 855.495 855.495 0 00-18.426-.202c-6.016 0-10.56.032-13.632.096v9.984l.208-.001c4.551-.024 8.868-.056 12.949-.096l.475-.005c10.07-.101 18.697-.25 25.881-.447 1.898-.052 3.696-.108 5.393-.166 2.972-.104 5.636-.217 7.99-.341a64.125 64.125 0 00-.647 4.966 69.929 69.929 0 00-.217 3.194c-.035 1.475-.06 3.162-.076 5.061-.013 1.643-.02 3.444-.02 5.403h-74.592c.185-4.49.337-8.876.455-13.157zm87.383 3.148a344.604 344.604 0 00-.071 4.934l-3.653 5.075h3.635v13.157h-101.46l.565-13.699a884.13 884.13 0 00.707-26.006 16.79 16.79 0 001.814-2.828c.838-1.676 1.499-3.5 1.983-5.472.662-2.698.993-5.674.993-8.928 0-6.81-1.724-12.337-5.174-16.581a1016.03 1016.03 0 00-.323-8.797l-.565-13.7h101.46v22.665c-1.853 2.294-3.134 4.917-3.842 7.869-.438 1.826-.657 3.778-.657 5.856 0 2.626.299 5.06.897 7.301h-3.118v7.075l6.209-.327.044.063c.912 1.273 2.035 2.429 3.369 3.47l-2.13 12.472a53.204 53.204 0 00-.683 6.401z" fill="#FF26C2"/></g><g style="mix-blend-mode:hard-light" filter="url(#filter10_f_702_3282)"><path fill-rule="evenodd" clip-rule="evenodd" d="M477.987 101.804v.096h19.968c12.736 0 21.6 2.272 26.592 6.816 4.992 4.48 7.488 10.816 7.488 19.008 0 5.632-.992 10.432-2.976 14.4-1.984 3.904-5.472 6.976-10.464 9.216-4.992 2.176-11.872 3.264-20.64 3.264h-19.968V171.5h-23.616c.185-4.49.337-8.876.455-13.157.209-7.557.313-14.787.313-21.691 0-6.904-.104-14.134-.313-21.691a966.97 966.97 0 00-.455-13.157h23.616zm13.157 65.957v16.896H440.66l.543-13.157h4.51v-.357c.002-4.064.034-7.433.096-10.107.128-2.816.416-5.536.864-8.16-1.5.079-3.126.154-4.878.224.125-5.686.187-11.169.187-16.448 0-5.595-.07-11.419-.21-17.472h3.941v-17.376h-4.51l-.543-13.157h50.484v.096h6.811c13.434 0 26.608 2.222 35.414 10.211a34.104 34.104 0 016.51 7.896c.263 7.24.435 14.198.517 20.874.037 3.034.056 6.01.056 8.928 0 3.619-.029 7.327-.086 11.125l-.002.092-.016 1.051c-3.697 6.743-9.608 11.392-16.366 14.424l-.065.029-.064.028c-7.357 3.207-16.295 4.36-25.898 4.36h-6.811zm17.659-44.069c-.96-1.088-2.784-1.824-5.472-2.208-2.624-.384-6.656-.576-12.096-.576h-13.248v15.168h13.248c5.312 0 9.28-.192 11.904-.576 2.688-.448 4.544-1.216 5.568-2.304 1.088-1.088 1.632-2.688 1.632-4.8 0-2.112-.512-3.68-1.536-4.704z" fill="#FF26C2"/></g><g style="mix-blend-mode:hard-light" filter="url(#filter11_f_702_3282)"><path fill-rule="evenodd" clip-rule="evenodd" d="M371.576 158.343c.209-7.557.313-14.787.313-21.691 0-6.904-.104-14.134-.313-21.691a966.97 966.97 0 00-.455-13.157h74.592v17.376h-51.936v9.216c3.072.064 7.616.096 13.632.096 6.019 0 12.162-.067 18.427-.202a936.7 936.7 0 0013.157-.374v16.512a936.7 936.7 0 00-13.157-.374 855.587 855.587 0 00-18.427-.202c-6.016 0-10.56.032-13.632.096v9.984l.208-.001c4.552-.024 8.868-.056 12.949-.096l.475-.005c10.071-.101 18.697-.25 25.881-.447 1.899-.052 3.696-.108 5.393-.166 2.973-.104 5.636-.217 7.99-.341a64.128 64.128 0 00-.646 4.966 69.92 69.92 0 00-.218 3.194 350.33 350.33 0 00-.075 5.061 637.787 637.787 0 00-.021 5.403h-74.592c.185-4.49.337-8.876.455-13.157zm83.159 3.099a975.847 975.847 0 01-.364 10.058h4.499v13.157H357.41l.543-13.157h5.462v-69.6l-5.459-.008-.546-13.245h101.46v13.157h-4.499a941.54 941.54 0 01.562 17.376c.102 4.506.167 8.891.193 13.157h-2.976v7.075l2.984-.157a778.814 778.814 0 01-.205 15.031 933.43 933.43 0 01-.187 6.958l-.007.198z" fill="#FF26C2"/></g><g style="mix-blend-mode:hard-light" filter="url(#filter12_f_702_3282)"><path fill-rule="evenodd" clip-rule="evenodd" d="M376.572 184.657H325.97v-22.718c-2.543 5.945-6.436 11.14-11.684 15.371-8.306 6.752-18.9 9.267-30.071 9.267h-13.157V171.5h8.034l-8.034-20.685v-6.847l9.022-1.851c.133-.461.278-1.044.422-1.765.312-1.8.635-7.624.636-18.931v-.033l-.161-32.76 95.595.133v13.043h-5.451l.004.096c.509 12.38.764 23.964.764 34.752 0 10.816-.256 22.432-.768 34.848h5.451v13.157zm-83.141-41.861c-.768 3.904-1.888 6.752-3.36 8.544-1.408 1.728-3.36 2.848-5.856 3.36v18.72c4.975 0 9.361-.599 13.157-1.797 3.333-1.051 6.211-2.564 8.635-4.539 5.248-4.224 8.512-9.824 9.792-16.8a87.913 87.913 0 001.344-11.232c.256-3.712.384-8 .384-12.864l.096-5.568h21.504v50.88h24.288v-69.6l-69.216-.096.096 19.584c0 11.136-.288 18.272-.864 21.408z" fill="#FF26C2"/></g><g style="mix-blend-mode:hard-light" filter="url(#filter13_f_702_3282)"><path fill-rule="evenodd" clip-rule="evenodd" d="M244.745 184.657l-2.999-8.996a283.227 283.227 0 00-1.629-4.732h-12.071l-4.8 13.728h-52.61l37.029-96.01h22.979l3.675-9.556 3.529 9.556h23.176l25.398 65.384c-.682.284-1.417.507-2.207.669v18.72c3.414 0 6.55-.282 9.409-.846l4.694 12.083h-53.573zm-28.053-82.853l-26.88 69.696h24.096l4.8-13.728h30.624c2.048 5.504 3.68 10.08 4.896 13.728h24.864l-27.072-69.696h-35.328zm17.376 14.592l2.304 6.24a1298.46 1298.46 0 017.488 20.16h-19.68a4669.214 4669.214 0 014.885-13.157c.652-1.746 1.267-3.386 1.844-4.922l.028-.074c1.207-3.209 2.251-5.958 3.131-8.247z" fill="#FF26C2"/></g><g style="mix-blend-mode:hard-light" filter="url(#filter14_f_702_3282)"><path fill-rule="evenodd" clip-rule="evenodd" d="M154.577 184.657h-50.289l.562-13.696c.506-12.329.757-23.763.757-34.309 0-10.611-.251-22.045-.757-34.306l-.565-13.7h95.161l-.328 13.479c-.128 5.218-.189 9.09-.189 11.679 0 3.352.033 5.716.087 7.193l.506 13.644h-44.945v50.016zm31.387-82.853a904.08 904.08 0 00-.137 6.523 331.746 331.746 0 00-.053 6.634c.006 2.823.038 4.997.094 6.523H141.42V171.5h-23.424c.185-4.498.336-8.884.454-13.157.209-7.584.314-14.814.314-21.691 0-6.904-.104-14.134-.313-21.691a966.97 966.97 0 00-.455-13.157h67.968z" fill="#FF26C2"/></g><g style="mix-blend-mode:hard-light" filter="url(#filter15_ddi_702_3282)"><path fill-rule="evenodd" clip-rule="evenodd" d="M710.509 91.743l-.434 10.477c-.441 10.659-.663 22.135-.663 34.432s.222 23.773.663 34.432l.434 10.477h-43.204v-19.84c-3.759 6.09-6.589 10.922-8.529 14.536l-2.846 5.304h-51.774l7.245-10.061h2.876c0-1.42.003-2.756.01-4.01l11.391-15.819c-2.645-1.807-4.984-4.003-6.89-6.662l-.032-.045-.032-.046c-4.081-5.83-5.851-12.647-5.851-19.882 0-2.007.154-3.962.465-5.856h.939v-4.076c1.719-5.717 5.031-10.741 9.993-14.773 7.973-6.478 20.069-8.493 33.417-8.493h9.618v-.095h43.204zM639.351 149.9l-15.552 21.6h26.112c2.816-5.248 7.264-12.672 13.344-22.272h14.112V171.5h22.656c-.136-3.28-.252-6.634-.346-10.061a897.16 897.16 0 01-.326-24.787c0-8.651.108-16.913.326-24.787.094-3.427.21-6.781.346-10.061h-22.656v.096h-19.68c-12.928 0-21.952 2.08-27.072 6.24-5.12 4.16-7.68 9.792-7.68 16.896 0 5.568 1.344 10.272 4.032 14.112 1.167 1.629 2.681 3.069 4.54 4.318 2.522 1.694 5.681 3.039 9.476 4.034-.768 1.024-1.312 1.824-1.632 2.4zm6.816-27.456c-1.024.768-1.536 1.856-1.536 3.264 0 1.472.544 2.592 1.632 3.36 1.059.748 2.909 1.314 5.547 1.698l.213.03c.198.023.402.044.614.065 2.789.277 6.712.415 11.77.415h12.96v-10.944h-12.96c-4.998 0-8.887.132-11.668.396a37.2 37.2 0 00-.812.084c-2.816.32-4.736.864-5.76 1.632z" fill="#FB37FF" fill-opacity=".2"/></g><g style="mix-blend-mode:hard-light" filter="url(#filter16_ddi_702_3282)"><path fill-rule="evenodd" clip-rule="evenodd" d="M607.556 144.428c-3.388-.12-6.742-.221-10.061-.303a868.768 868.768 0 00-21.523-.273c-6.016 0-10.56.032-13.632.096v9.984l.208-.001a2988.012 2988.012 0 0013.424-.101c11.582-.116 21.255-.295 29.018-.539.771-.024 1.523-.049 2.256-.074 2.973-.104 5.636-.217 7.99-.341a61.96 61.96 0 00-.291 1.88 67.895 67.895 0 00-.573 6.28c-.014.616-.027 1.27-.038 1.96a531.872 531.872 0 00-.058 8.504h-74.592c.141-3.414.262-6.768.364-10.061.27-8.683.404-16.945.404-24.787 0-7.842-.134-16.104-.404-24.787a976.392 976.392 0 00-.364-10.061h74.592v17.376H562.34v9.216c3.072.064 7.616.096 13.632.096 7.007 0 14.182-.091 21.523-.273 3.319-.082 6.673-.183 10.061-.303v16.512zm10.062-15.187v13.434l9.654-.508-2.118 12.402a56.262 56.262 0 00-.726 6.816 447.346 447.346 0 00-.09 9.365l-.54.75h.54v10.061h-95.139l.432-10.476c.472-11.431.723-22.153.756-32.168.246-.732.464-1.487.655-2.265.663-2.698.994-5.674.994-8.928 0-4.142-.638-7.81-1.915-11.003-.122-4.7-.285-9.534-.49-14.502l-.432-10.476h95.139v24.99a20.667 20.667 0 00-.747 2.447c-.438 1.826-.657 3.778-.657 5.856 0 1.461.093 2.863.278 4.205h-5.594z" fill="#FB37FF" fill-opacity=".2"/></g><g style="mix-blend-mode:hard-light" filter="url(#filter17_ddi_702_3282)"><path fill-rule="evenodd" clip-rule="evenodd" d="M477.988 101.804v.096h19.968c12.736 0 21.6 2.272 26.592 6.816 4.992 4.48 7.488 10.816 7.488 19.008 0 5.632-.992 10.432-2.976 14.4-1.984 3.904-5.472 6.976-10.464 9.216-4.992 2.176-11.872 3.264-20.64 3.264h-19.968V171.5h-23.616c.14-3.414.262-6.768.364-10.061.269-8.683.404-16.945.404-24.787 0-7.842-.135-16.104-.404-24.787-.102-3.293-.224-6.647-.364-10.061h23.616zm10.061 62.861v16.896h-44.162l.415-10.061h1.412v-.357c.002-4.064.033-7.433.096-10.107.128-2.816.416-5.536.864-8.16-.575.03-1.168.06-1.779.089.122-5.636.183-11.073.183-16.313 0-5.598-.069-11.422-.209-17.472h.845v-17.376h-1.412l-.415-10.061h44.162v.096h9.907c13.268 0 25.429 2.233 33.338 9.412 4.245 3.818 7.129 8.43 8.841 13.573.123 4.411.21 8.711.261 12.9a712.834 712.834 0 01.046 12.731 35.66 35.66 0 01-2.383 6.169l-.015.029-.015.029c-3.263 6.422-8.761 10.897-15.314 13.838l-.049.022-.05.021c-6.8 2.965-15.254 4.102-24.66 4.102h-9.907zM503.14 135.5c-2.624.384-6.592.576-11.904.576h-13.248v-15.168h13.248c5.44 0 9.472.192 12.096.576 2.688.384 4.512 1.12 5.472 2.208 1.024 1.024 1.536 2.592 1.536 4.704 0 2.112-.544 3.712-1.632 4.8-1.024 1.088-2.88 1.856-5.568 2.304z" fill="#FB37FF" fill-opacity=".2"/></g><g style="mix-blend-mode:hard-light" filter="url(#filter18_ddi_702_3282)"><path fill-rule="evenodd" clip-rule="evenodd" d="M438.994 144.428c-3.388-.12-6.742-.221-10.062-.303a868.688 868.688 0 00-21.522-.273c-6.016 0-10.56.032-13.632.096v9.984l.208-.001a2987.354 2987.354 0 0013.424-.101c11.582-.116 21.254-.295 29.018-.539a755.44 755.44 0 002.255-.074c2.973-.104 5.637-.217 7.991-.341a61.957 61.957 0 00-.292 1.88 67.554 67.554 0 00-.572 6.28c-.015.616-.027 1.27-.039 1.96a545.236 545.236 0 00-.057 8.504h-74.592c.14-3.414.262-6.768.364-10.061.269-8.683.404-16.945.404-24.787 0-7.842-.135-16.104-.404-24.787-.102-3.293-.224-6.647-.364-10.061h74.592v17.376h-51.936v9.216c3.072.064 7.616.096 13.632.096 7.007 0 14.181-.091 21.522-.273 3.32-.082 6.674-.183 10.062-.303v16.512zm10.061-15.187v13.434l6.062-.319a805.494 805.494 0 01-.188 11.93 882.441 882.441 0 01-.187 6.958l-.006.198c-.102 3.292-.224 6.645-.364 10.058h1.403v10.061h-95.138l.415-10.061h2.363v-69.6l-2.36-.003-.418-10.154h95.138v10.061h-1.403c.246 5.977.433 11.769.561 17.376.078 3.423.134 6.777.168 10.061h-6.046z" fill="#FB37FF" fill-opacity=".2"/></g><g style="mix-blend-mode:hard-light" filter="url(#filter19_ddi_702_3282)"><path fill-rule="evenodd" clip-rule="evenodd" d="M373.477 181.561h-44.411v-50.88h-1.515a177.402 177.402 0 01-.364 8.983 97.97 97.97 0 01-1.491 12.434v.002c-1.688 9.202-6.138 16.984-13.356 22.803-7.572 6.158-17.383 8.578-28.124 8.578h-10.062V171.5h4.939l-4.939-12.715v-12.292l8.04-1.649c.071-.015.131-.029.18-.042a6.52 6.52 0 00.278-.624c.28-.711.598-1.767.894-3.254.372-2.104.688-8.232.688-19.512v-.024l-.145-29.66 89.388.125v9.951h-2.355l.004.096c.509 12.38.764 23.964.764 34.752 0 10.816-.256 22.432-.768 34.848h2.355v10.061zm-80.045-38.765c-.768 3.904-1.888 6.752-3.36 8.544-1.408 1.728-3.36 2.848-5.856 3.36v18.72c3.675 0 7.029-.327 10.061-.98 4.676-1.008 8.586-2.794 11.731-5.356 5.248-4.224 8.512-9.824 9.792-16.8a87.913 87.913 0 001.344-11.232c.256-3.712.384-8 .384-12.864l.096-5.568h21.504v50.88h24.288v-69.6l-69.216-.096.096 19.584c0 11.136-.288 18.272-.864 21.408z" fill="#FB37FF" fill-opacity=".2"/></g><g style="mix-blend-mode:hard-light" filter="url(#filter20_ddi_702_3282)"><path fill-rule="evenodd" clip-rule="evenodd" d="M246.977 181.561l-2.293-6.879a329.393 329.393 0 00-2.382-6.849h-16.453l-4.8 13.728h-45.901l34.641-89.819h22.982l1.49-3.874 1.43 3.875h23.215l25.309 65.156v16.521c2.21 0 4.303-.118 6.28-.354l3.3 8.495h-46.818zm-30.284-79.757l-26.88 69.696h24.096l4.8-13.728h30.624c2.048 5.504 3.68 10.08 4.896 13.728h24.864l-27.072-69.696h-35.328zm11.976 28.898c.801-2.146 1.548-4.141 2.241-5.985l.028-.074c1.207-3.209 2.25-5.958 3.131-8.247l2.304 6.24c1.023 2.687 2.037 5.374 3.04 8.06l.759 2.039c1.245 3.353 2.475 6.707 3.689 10.061h-19.68a4083.51 4083.51 0 013.731-10.061l.757-2.033z" fill="#FB37FF" fill-opacity=".2"/></g><g style="mix-blend-mode:hard-light" filter="url(#filter21_ddi_702_3282)"><path fill-rule="evenodd" clip-rule="evenodd" d="M151.482 181.561h-43.968l.43-10.473c.507-12.364.759-23.841.759-34.436 0-10.659-.252-22.136-.759-34.433l-.432-10.476h88.762l-.251 10.306c-.127 5.226-.189 9.128-.189 11.755 0 3.362.032 5.771.089 7.308l.387 10.433h-44.828v50.016zm34.483-79.757a688.473 688.473 0 00-.184 10.061c-.005.704-.008 1.35-.008 1.939 0 3.392.032 5.952.096 7.68h-44.448V171.5h-23.424c.14-3.419.261-6.772.363-10.061.27-8.718.405-16.98.405-24.787 0-7.842-.135-16.104-.404-24.787-.102-3.293-.224-6.647-.364-10.061h67.968z" fill="#FB37FF" fill-opacity=".2"/></g><g filter="url(#filter22_f_702_3282)"><path fill-rule="evenodd" clip-rule="evenodd" d="M706.475 95.612l-.267 6.448c-.444 10.72-.667 22.249-.667 34.592s.223 23.872.667 34.592l.267 6.448h-35.301V155.42h-4.505c-5.12 8.159-8.874 14.479-11.304 19.008l-1.751 3.264H611.71l19.584-27.2c-3.799-1.914-7.002-4.445-9.361-7.737l-.02-.028-.02-.028c-3.545-5.065-5.151-11.069-5.151-17.663 0-8.804 3.277-16.266 9.967-21.701 6.876-5.587 17.79-7.627 30.977-7.627h13.488v-.096h35.301zM639.35 149.9l-15.552 21.6h26.112c2.816-5.248 7.264-12.672 13.344-22.272h14.112V171.5h22.656a706.852 706.852 0 01-.23-6.192 879.117 879.117 0 01-.442-28.656c0-10.079.147-19.631.442-28.656.069-2.093.145-4.156.23-6.192h-22.656v.096h-19.68c-12.928 0-21.952 2.08-27.072 6.24-5.12 4.16-7.68 9.792-7.68 16.896 0 5.568 1.344 10.272 4.032 14.112 1.811 2.528 4.455 4.598 7.93 6.211 1.805.837 3.833 1.551 6.086 2.141-.768 1.024-1.312 1.824-1.632 2.4zm25.056-29.568c-5.504 0-9.664.16-12.48.48-2.816.32-4.736.864-5.76 1.632-1.024.768-1.536 1.856-1.536 3.264 0 1.472.544 2.592 1.632 3.36 1.088.768 3.008 1.344 5.76 1.728 2.816.32 6.944.48 12.384.48h12.96v-10.944h-12.96z" fill="#FB37FF"/></g><g filter="url(#filter23_f_702_3282)"><path fill-rule="evenodd" clip-rule="evenodd" d="M601.364 144.229a880.474 880.474 0 00-25.392-.377c-6.016 0-10.56.032-13.632.096v9.984c2.114-.011 4.178-.024 6.191-.038 17.117-.124 30.58-.37 40.389-.738 2.307-.086 4.413-.18 6.316-.28a64.77 64.77 0 00-.751 6.238 70.377 70.377 0 00-.113 1.922c-.064 2.752-.096 6.24-.096 10.464h-74.592c.086-2.086.165-4.15.236-6.192.354-10.105.532-19.658.532-28.656 0-8.998-.178-18.551-.532-28.656a961.33 961.33 0 00-.236-6.192h74.592v17.376H562.34v9.216c3.072.064 7.616.096 13.632.096 8.233 0 16.697-.126 25.392-.377 2.051-.059 4.115-.126 6.192-.199v16.512c-2.077-.073-4.141-.14-6.192-.199zm12.383-18.857h6.72v-29.76h-87.236l.266 6.447c.509 12.343.763 23.873.763 34.593 0 10.72-.254 22.25-.763 34.593l-.266 6.447h87.236V171.5c0-4.163.032-7.576.093-10.252.119-2.551.38-4.993.779-7.33l1.303-7.632-7.732.407c-.379.02-.767.04-1.163.059v-21.38z" fill="#FB37FF"/></g><g filter="url(#filter24_f_702_3282)"><path fill-rule="evenodd" clip-rule="evenodd" d="M477.987 101.804v.096h19.968c12.736 0 21.6 2.272 26.592 6.816 4.992 4.48 7.488 10.816 7.488 19.008 0 5.632-.992 10.432-2.976 14.4-1.984 3.904-5.472 6.976-10.464 9.216-4.992 2.176-11.872 3.264-20.64 3.264h-19.968V171.5h-23.616c.086-2.086.165-4.15.237-6.192.354-10.105.531-19.658.531-28.656 0-8.998-.177-18.551-.531-28.656a1039.96 1039.96 0 00-.237-6.192h23.616zm6.192 58.992v16.896h-36.26l.266-6.447c.509-12.343.763-23.873.763-34.593 0-10.72-.254-22.25-.763-34.593l-.266-6.447h36.26v.096h13.776c13.062 0 23.955 2.248 30.743 8.414 6.574 5.908 9.529 14.081 9.529 23.602 0 6.341-1.116 12.141-3.63 17.169l-.009.018-.009.018c-2.772 5.454-7.496 9.389-13.449 12.06l-.03.014-.031.013c-6.104 2.661-13.953 3.78-23.114 3.78h-13.776zm19.944-31.906a5.463 5.463 0 00.009-.919c-.35-.113-.891-.245-1.676-.358l-.011-.001-.01-.002c-2.158-.315-5.817-.51-11.2-.51h-7.056v2.784h7.056c5.198 0 8.779-.19 10.946-.502.949-.161 1.57-.345 1.942-.492zm-.984 6.61c-2.624.384-6.592.576-11.904.576h-13.248v-15.168h13.248c5.44 0 9.472.192 12.096.576 2.688.384 4.512 1.12 5.472 2.208 1.024 1.024 1.536 2.592 1.536 4.704 0 2.112-.544 3.712-1.632 4.8-1.024 1.088-2.88 1.856-5.568 2.304z" fill="#FB37FF"/></g><g filter="url(#filter25_f_702_3282)"><path fill-rule="evenodd" clip-rule="evenodd" d="M432.802 144.229a880.49 880.49 0 00-25.393-.377c-6.016 0-10.56.032-13.632.096v9.984c2.115-.011 4.179-.024 6.192-.038 17.117-.124 30.58-.37 40.389-.738 2.307-.086 4.412-.18 6.315-.28a65.409 65.409 0 00-.751 6.238 74.62 74.62 0 00-.113 1.922c-.064 2.752-.096 6.24-.096 10.464h-74.592c.086-2.086.165-4.15.237-6.192.354-10.105.531-19.658.531-28.656 0-8.998-.177-18.551-.531-28.656a1039.96 1039.96 0 00-.237-6.192h74.592v17.376h-51.936v9.216c3.072.064 7.616.096 13.632.096 8.234 0 16.698-.126 25.393-.377 2.051-.059 4.114-.126 6.191-.199v16.512c-2.077-.073-4.14-.14-6.191-.199zm12.383-18.857h6.72v-29.76h-87.236l.266 6.447c.509 12.343.763 23.873.763 34.593 0 10.72-.254 22.25-.763 34.593l-.266 6.447h87.236V171.5c0-4.162.031-7.574.093-10.25.118-2.551.379-4.994.779-7.332l1.303-7.632-7.732.407c-.38.02-.767.04-1.163.059v-21.38z" fill="#FB37FF"/></g><g filter="url(#filter26_f_702_3282)"><path fill-rule="evenodd" clip-rule="evenodd" d="M369.607 177.692h-36.672v-50.88h-9.217c-.01 4.693-.14 8.903-.394 12.616a94.202 94.202 0 01-1.435 11.973c-1.531 8.346-5.525 15.29-11.986 20.495-6.654 5.415-15.485 7.716-25.688 7.716h-6.192V171.5h1.07l-1.07-2.753V149.65l4.948-1.015c1.309-.269 1.921-.741 2.3-1.206l.008-.01.008-.009c.509-.62 1.369-2.27 2.061-5.768.45-2.495.755-9.006.755-20.239v-.015l-.126-25.784 81.63.113v81.975zm-76.176-34.896c-.768 3.904-1.888 6.752-3.36 8.544-1.408 1.728-3.36 2.848-5.856 3.36v18.72c2.177 0 4.241-.115 6.192-.344 6.424-.755 11.624-2.752 15.6-5.992 5.248-4.224 8.512-9.824 9.792-16.8a87.913 87.913 0 001.344-11.232c.256-3.712.384-8 .384-12.864l.096-5.568h21.504v50.88h24.288v-69.6l-69.216-.096.096 19.584c0 11.136-.288 18.272-.864 21.408z" fill="#FB37FF"/></g><g filter="url(#filter27_f_702_3282)"><path fill-rule="evenodd" clip-rule="evenodd" d="M249.766 177.692l-1.412-4.234c-.88-2.64-1.991-5.802-3.338-9.494h-21.913l-4.8 13.728h-37.515l31.656-82.08h43.814l27.957 71.975v5.833c.763 0 1.513-.014 2.249-.042l1.676 4.314h-38.374zm-31.058-19.92h30.624c2.048 5.504 3.68 10.08 4.896 13.728h24.864l-27.072-69.696h-35.328l-26.88 69.696h24.096l4.8-13.728zm12.018-32.566l.184-.489.028-.074a1189.11 1189.11 0 013.13-8.247l2.304 6.24c.325.854.65 1.708.973 2.561a1298.117 1298.117 0 016.515 17.599h-19.68c.8-2.164 1.564-4.228 2.293-6.192a2980.53 2980.53 0 014.253-11.398zm3.315 8.809l-.963 2.589h1.924c-.319-.863-.639-1.726-.961-2.589z" fill="#FB37FF"/></g><g filter="url(#filter28_f_702_3282)"><path fill-rule="evenodd" clip-rule="evenodd" d="M147.612 177.692h-36.067l.265-6.446c.509-12.408.763-23.939.763-34.594 0-10.72-.254-22.25-.763-34.593l-.266-6.447h80.765l-.155 6.343c-.128 5.234-.19 9.174-.19 11.849 0 3.373.032 5.841.092 7.451l.237 6.421h-44.681v50.016zm-6.192-56.208V171.5h-23.424c.086-2.088.164-4.152.236-6.192.355-10.151.532-19.703.532-28.656 0-8.998-.177-18.551-.531-28.656a1039.96 1039.96 0 00-.237-6.192h67.968c-.056 2.305-.1 4.368-.131 6.192a339.713 339.713 0 00-.059 7.296c.009 2.663.04 4.727.094 6.192H141.42z" fill="#FB37FF"/></g><g filter="url(#filter29_f_702_3282)"><path fill-rule="evenodd" clip-rule="evenodd" d="M703.248 98.708l-.133 3.224c-.446 10.768-.67 22.341-.67 34.72 0 12.379.224 23.952.67 34.72l.133 3.224H674.27v-22.272h-9.311c-5.601 8.882-9.699 15.753-12.321 20.64l-.876 1.632h-34.008l18.293-25.407c-5.006-1.871-8.964-4.563-11.598-8.238l-.01-.014-.009-.014c-3.117-4.452-4.592-9.806-4.592-15.887 0-7.954 2.919-14.501 8.823-19.299 5.998-4.873 15.968-6.933 29.025-6.933h16.584v-.096h28.978zM639.35 149.9l-15.552 21.6h26.112c2.816-5.248 7.264-12.672 13.344-22.272h14.112V171.5h22.656a703.583 703.583 0 01-.122-3.096c-.367-9.928-.55-20.512-.55-31.752 0-11.24.183-21.824.55-31.752.039-1.039.079-2.071.122-3.096h-22.656v.096h-19.68c-12.928 0-21.952 2.08-27.072 6.24-5.12 4.16-7.68 9.792-7.68 16.896 0 5.568 1.344 10.272 4.032 14.112 2.293 3.199 5.918 5.666 10.876 7.399.993.347 2.04.665 3.14.953-.768 1.024-1.312 1.824-1.632 2.4zm25.056-29.568c-5.504 0-9.664.16-12.48.48-2.816.32-4.736.864-5.76 1.632-1.024.768-1.536 1.856-1.536 3.264 0 1.472.544 2.592 1.632 3.36 1.088.768 3.008 1.344 5.76 1.728 2.816.32 6.944.48 12.384.48h12.96v-10.944h-12.96zm9.864 3.096h-9.864c-5.474 0-9.493.16-12.131.46-2.784.316-3.952.808-4.252 1.033-.158.119-.297.241-.297.787 0 .59.151.711.321.831.439.31 1.706.811 4.364 1.185 2.638.297 6.613.456 11.995.456h9.864v-4.752z" fill="#fff"/></g><g filter="url(#filter30_f_702_3282)"><path fill-rule="evenodd" clip-rule="evenodd" d="M604.46 144.324a885.846 885.846 0 00-28.488-.472c-6.016 0-10.56.032-13.632.096v9.984c1.044-.005 2.076-.011 3.096-.018 20.559-.127 36.105-.423 46.637-.886 1.11-.049 2.165-.099 3.163-.152a63.051 63.051 0 00-.452 3.123 68.505 68.505 0 00-.412 5.037c-.064 2.752-.096 6.24-.096 10.464h-74.592c.043-1.038.084-2.069.123-3.096.43-11.256.645-21.84.645-31.752 0-9.912-.215-20.496-.645-31.752-.039-1.027-.08-2.058-.123-3.096h74.592v17.376H562.34v9.216c3.072.064 7.616.096 13.632.096 9.208 0 18.704-.157 28.488-.472 1.029-.033 2.061-.067 3.096-.104v16.512a842.575 842.575 0 00-3.096-.104zm-39.024-18.976c2.765.032 6.276.048 10.536.048 10.137 0 20.629-.191 31.475-.574l3.205-.113v22.926l-3.205-.113a892.586 892.586 0 00-31.475-.574c-4.26 0-7.771.016-10.536.048v3.822c22.708-.141 39.241-.486 49.637-1.034l3.866-.203-.651 3.816a63.297 63.297 0 00-.822 7.746 468.644 468.644 0 00-.094 10.357v3.096h-80.914l.133-3.224c.51-12.379.765-23.952.765-34.72 0-10.768-.255-22.341-.765-34.72l-.133-3.224h80.914v23.568h-51.936v3.072z" fill="#fff"/></g><g filter="url(#filter31_f_702_3282)"><path fill-rule="evenodd" clip-rule="evenodd" d="M477.988 101.804v.096h19.968c12.736 0 21.6 2.272 26.592 6.816 4.992 4.48 7.488 10.816 7.488 19.008 0 5.632-.992 10.432-2.976 14.4-1.984 3.904-5.472 6.976-10.464 9.216-4.992 2.176-11.872 3.264-20.64 3.264h-19.968V171.5h-23.616l.123-3.096c.43-11.256.645-21.84.645-31.752 0-9.912-.215-20.496-.645-31.752l-.123-3.096h23.616zm3.095 55.896v16.896h-29.937l.132-3.224c.511-12.379.766-23.952.766-34.72 0-10.768-.255-22.341-.766-34.72l-.132-3.224h29.937v.096h16.873c12.898 0 22.777 2.26 28.667 7.615 5.783 5.194 8.508 12.449 8.508 21.305 0 5.987-1.053 11.287-3.302 15.784l-.005.01-.004.009c-2.378 4.678-6.485 8.182-11.957 10.638l-.015.006-.015.007c-5.549 2.418-12.913 3.522-21.877 3.522h-16.873zm25.402-26.66l.034-.033c.318-.319.725-1.007.725-2.611 0-1.667-.407-2.292-.629-2.515l-.069-.068-.064-.073c-.198-.225-1.072-.832-3.588-1.191l-.011-.002c-2.39-.35-6.236-.543-11.647-.543h-10.153v8.976h10.153c5.257 0 9.031-.191 11.425-.539 2.48-.417 3.484-1.039 3.792-1.367l.032-.034zm-3.345 4.46c-2.624.384-6.592.576-11.904.576h-13.248v-15.168h13.248c5.44 0 9.472.192 12.096.576 2.688.384 4.512 1.12 5.472 2.208 1.024 1.024 1.536 2.592 1.536 4.704 0 2.112-.544 3.712-1.632 4.8-1.024 1.088-2.88 1.856-5.568 2.304z" fill="#fff"/></g><g filter="url(#filter32_f_702_3282)"><path fill-rule="evenodd" clip-rule="evenodd" d="M435.898 144.324a885.846 885.846 0 00-28.488-.472c-6.016 0-10.56.032-13.632.096v9.984c1.044-.005 2.076-.011 3.095-.018 20.56-.127 36.105-.423 46.638-.886 1.11-.049 2.164-.099 3.163-.152a63.05 63.05 0 00-.453 3.123 69.063 69.063 0 00-.411 5.037c-.064 2.752-.096 6.24-.096 10.464h-74.592l.123-3.096c.43-11.256.645-21.84.645-31.752 0-9.912-.215-20.496-.645-31.752l-.123-3.096h74.592v17.376h-51.936v9.216c3.072.064 7.616.096 13.632.096 9.208 0 18.704-.157 28.488-.472 1.029-.033 2.061-.067 3.096-.104v16.512a842.575 842.575 0 00-3.096-.104zm-39.025-18.976c2.766.032 6.276.048 10.537.048a892.53 892.53 0 0031.474-.574l3.205-.113v22.926l-3.205-.113a892.53 892.53 0 00-31.474-.574c-4.261 0-7.771.016-10.537.048v3.822c22.708-.141 39.242-.486 49.638-1.034l3.866-.203-.652 3.816a63.3 63.3 0 00-.821 7.746 461.651 461.651 0 00-.095 10.357v3.096h-80.913l.132-3.224c.511-12.379.766-23.952.766-34.72 0-10.768-.255-22.341-.766-34.72l-.132-3.224h80.913v23.568h-51.936v3.072z" fill="#fff"/></g><g filter="url(#filter33_f_702_3282)"><path fill-rule="evenodd" clip-rule="evenodd" d="M366.511 174.596h-30.48v-50.88h-15.365l-.043 2.499c-.001 4.893-.129 9.238-.39 13.025a90.925 90.925 0 01-1.389 11.602c-1.406 7.661-5.034 13.933-10.889 18.648-5.919 4.819-13.967 7.026-23.74 7.026h-3.096v-24.341l2.474-.508c1.902-.39 3.184-1.186 4.078-2.283l.008-.009c.99-1.205 1.98-3.454 2.711-7.157.512-2.814.809-9.636.809-20.821v-.009l-.111-22.684 75.423.105v75.787zm-73.08-31.8c-.768 3.904-1.888 6.752-3.36 8.544-1.408 1.728-3.36 2.848-5.856 3.36v18.72a57.72 57.72 0 003.096-.081c7.867-.425 14.099-2.51 18.696-6.255 5.248-4.224 8.512-9.824 9.792-16.8a87.913 87.913 0 001.344-11.232c.256-3.712.384-8 .384-12.864l.096-5.568h21.504v50.88h24.288v-69.6l-69.216-.096.096 19.584c0 11.136-.288 18.272-.864 21.408z" fill="#fff"/></g><g filter="url(#filter34_f_702_3282)"><path fill-rule="evenodd" clip-rule="evenodd" d="M251.998 174.596l-.706-2.117c-1.05-3.151-2.421-7.019-4.114-11.611h-26.272l-4.8 13.728h-30.805l29.268-75.888h39.571l29.477 75.888h-31.619zm-33.289-16.824h30.624c2.048 5.504 3.68 10.08 4.896 13.728h24.864l-27.072-69.696h-35.328l-26.88 69.696h24.096l4.8-13.728zm13.683-36.98a2702.07 2702.07 0 00-7.066 18.908l-1.145 3.096h19.68l-1.125-3.096a1282.537 1282.537 0 00-6.363-17.064l-2.304-6.24c-.505 1.314-1.064 2.779-1.677 4.396zm1.644 4.409c-1.53 4.065-3.333 8.898-5.409 14.499h10.813a1271.222 1271.222 0 00-5.404-14.499z" fill="#fff"/></g><g filter="url(#filter35_f_702_3282)"><path fill-rule="evenodd" clip-rule="evenodd" d="M144.516 174.596h-29.745l.132-3.223c.511-12.444.766-24.017.766-34.721 0-10.768-.255-22.341-.766-34.72l-.132-3.224h74.366l-.077 3.171c-.128 5.241-.192 9.211-.192 11.925 0 3.383.033 5.896.094 7.565l.119 3.211h-44.565v50.016zm-3.095-53.112V171.5h-23.424c.042-1.038.083-2.07.122-3.096.43-11.31.646-21.894.646-31.752 0-9.912-.215-20.496-.645-31.752l-.123-3.096h67.968a904.006 904.006 0 00-.072 3.096c-.08 3.753-.12 6.721-.12 8.904 0 1.749.008 3.277.025 4.584.016 1.227.04 2.259.071 3.096h-44.448z" fill="#fff"/></g><defs><filter id="filter0_f_702_3282" x=".162" y=".162" width="817.675" height="259.675" filterUnits="userSpaceOnUse" color-interpolation-filters="sRGB"><feFlood flood-opacity="0" result="BackgroundImageFix"/><feBlend in="SourceGraphic" in2="BackgroundImageFix" result="shape"/><feGaussianBlur stdDeviation="23.219" result="effect1_foregroundBlur_702_3282"/></filter><filter id="filter1_f_702_3282" x="557.719" y="45.305" width="199.229" height="182.694" filterUnits="userSpaceOnUse" color-interpolation-filters="sRGB"><feFlood flood-opacity="0" result="BackgroundImageFix"/><feBlend in="SourceGraphic" in2="BackgroundImageFix" result="shape"/><feGaussianBlur stdDeviation="23.219" result="effect1_foregroundBlur_702_3282"/></filter><filter id="filter2_f_702_3282" x="482.762" y="45.305" width="190.947" height="182.694" filterUnits="userSpaceOnUse" color-interpolation-filters="sRGB"><feFlood flood-opacity="0" result="BackgroundImageFix"/><feBlend in="SourceGraphic" in2="BackgroundImageFix" result="shape"/><feGaussianBlur stdDeviation="23.219" result="effect1_foregroundBlur_702_3282"/></filter><filter id="filter3_f_702_3282" x="397.449" y="45.305" width="189.44" height="182.694" filterUnits="userSpaceOnUse" color-interpolation-filters="sRGB"><feFlood flood-opacity="0" result="BackgroundImageFix"/><feBlend in="SourceGraphic" in2="BackgroundImageFix" result="shape"/><feGaussianBlur stdDeviation="23.219" result="effect1_foregroundBlur_702_3282"/></filter><filter id="filter4_f_702_3282" x="314.199" y="45.305" width="188.014" height="182.694" filterUnits="userSpaceOnUse" color-interpolation-filters="sRGB"><feFlood flood-opacity="0" result="BackgroundImageFix"/><feBlend in="SourceGraphic" in2="BackgroundImageFix" result="shape"/><feGaussianBlur stdDeviation="23.219" result="effect1_foregroundBlur_702_3282"/></filter><filter id="filter5_f_702_3282" x="227.717" y="45.291" width="192.198" height="184.628" filterUnits="userSpaceOnUse" color-interpolation-filters="sRGB"><feFlood flood-opacity="0" result="BackgroundImageFix"/><feBlend in="SourceGraphic" in2="BackgroundImageFix" result="shape"/><feGaussianBlur stdDeviation="23.219" result="effect1_foregroundBlur_702_3282"/></filter><filter id="filter6_f_702_3282" x="128.711" y="41.431" width="211.521" height="186.568" filterUnits="userSpaceOnUse" color-interpolation-filters="sRGB"><feFlood flood-opacity="0" result="BackgroundImageFix"/><feBlend in="SourceGraphic" in2="BackgroundImageFix" result="shape"/><feGaussianBlur stdDeviation="23.219" result="effect1_foregroundBlur_702_3282"/></filter><filter id="filter7_f_702_3282" x="61.074" y="45.305" width="181.673" height="182.694" filterUnits="userSpaceOnUse" color-interpolation-filters="sRGB"><feFlood flood-opacity="0" result="BackgroundImageFix"/><feBlend in="SourceGraphic" in2="BackgroundImageFix" result="shape"/><feGaussianBlur stdDeviation="23.219" result="effect1_foregroundBlur_702_3282"/></filter><filter id="filter8_f_702_3282" x="582.632" y="73.168" width="146.582" height="126.969" filterUnits="userSpaceOnUse" color-interpolation-filters="sRGB"><feFlood flood-opacity="0" result="BackgroundImageFix"/><feBlend in="SourceGraphic" in2="BackgroundImageFix" result="shape"/><feGaussianBlur stdDeviation="7.74" result="effect1_foregroundBlur_702_3282"/></filter><filter id="filter9_f_702_3282" x="510.493" y="73.168" width="135.321" height="126.969" filterUnits="userSpaceOnUse" color-interpolation-filters="sRGB"><feFlood flood-opacity="0" result="BackgroundImageFix"/><feBlend in="SourceGraphic" in2="BackgroundImageFix" result="shape"/><feGaussianBlur stdDeviation="7.74" result="effect1_foregroundBlur_702_3282"/></filter><filter id="filter10_f_702_3282" x="425.181" y="73.168" width="130.75" height="126.969" filterUnits="userSpaceOnUse" color-interpolation-filters="sRGB"><feFlood flood-opacity="0" result="BackgroundImageFix"/><feBlend in="SourceGraphic" in2="BackgroundImageFix" result="shape"/><feGaussianBlur stdDeviation="7.74" result="effect1_foregroundBlur_702_3282"/></filter><filter id="filter11_f_702_3282" x="341.931" y="73.168" width="132.418" height="126.969" filterUnits="userSpaceOnUse" color-interpolation-filters="sRGB"><feFlood flood-opacity="0" result="BackgroundImageFix"/><feBlend in="SourceGraphic" in2="BackgroundImageFix" result="shape"/><feGaussianBlur stdDeviation="7.74" result="effect1_foregroundBlur_702_3282"/></filter><filter id="filter12_f_702_3282" x="255.578" y="73.149" width="136.473" height="128.907" filterUnits="userSpaceOnUse" color-interpolation-filters="sRGB"><feFlood flood-opacity="0" result="BackgroundImageFix"/><feBlend in="SourceGraphic" in2="BackgroundImageFix" result="shape"/><feGaussianBlur stdDeviation="7.74" result="effect1_foregroundBlur_702_3282"/></filter><filter id="filter13_f_702_3282" x="155.157" y="63.612" width="158.64" height="136.525" filterUnits="userSpaceOnUse" color-interpolation-filters="sRGB"><feFlood flood-opacity="0" result="BackgroundImageFix"/><feBlend in="SourceGraphic" in2="BackgroundImageFix" result="shape"/><feGaussianBlur stdDeviation="7.74" result="effect1_foregroundBlur_702_3282"/></filter><filter id="filter14_f_702_3282" x="88.806" y="73.168" width="126.195" height="126.969" filterUnits="userSpaceOnUse" color-interpolation-filters="sRGB"><feFlood flood-opacity="0" result="BackgroundImageFix"/><feBlend in="SourceGraphic" in2="BackgroundImageFix" result="shape"/><feGaussianBlur stdDeviation="7.74" result="effect1_foregroundBlur_702_3282"/></filter><filter id="filter15_ddi_702_3282" x="584.033" y="87.099" width="146.599" height="130.065" filterUnits="userSpaceOnUse" color-interpolation-filters="sRGB"><feFlood flood-opacity="0" result="BackgroundImageFix"/><feColorMatrix in="SourceAlpha" values="0 0 0 0 0 0 0 0 0 0 0 0 0 0 0 0 0 0 127 0" result="hardAlpha"/><feOffset dy="10.062"/><feGaussianBlur stdDeviation="3.87"/><feColorMatrix values="0 0 0 0 0.3 0 0 0 0 0 0 0 0 0 0.26 0 0 0 0.7 0"/><feBlend mode="multiply" in2="BackgroundImageFix" result="effect1_dropShadow_702_3282"/><feColorMatrix in="SourceAlpha" values="0 0 0 0 0 0 0 0 0 0 0 0 0 0 0 0 0 0 127 0" result="hardAlpha"/><feOffset dy="15.479"/><feGaussianBlur stdDeviation="10.062"/><feColorMatrix values="0 0 0 0 0.6 0 0 0 0 0 0 0 0 0 0.6 0 0 0 1 0"/><feBlend mode="color-dodge" in2="effect1_dropShadow_702_3282" result="effect2_dropShadow_702_3282"/><feBlend in="SourceGraphic" in2="effect2_dropShadow_702_3282" result="shape"/><feColorMatrix in="SourceAlpha" values="0 0 0 0 0 0 0 0 0 0 0 0 0 0 0 0 0 0 127 0" result="hardAlpha"/><feOffset dx="-1.006" dy="2.012"/><feGaussianBlur stdDeviation=".503"/><feComposite in2="hardAlpha" operator="arithmetic" k2="-1" k3="1"/><feColorMatrix values="0 0 0 0 1 0 0 0 0 1 0 0 0 0 1 0 0 0 0.5 0"/><feBlend in2="shape" result="effect3_innerShadow_702_3282"/></filter><filter id="filter16_ddi_702_3282" x="509.076" y="87.099" width="138.318" height="130.065" filterUnits="userSpaceOnUse" color-interpolation-filters="sRGB"><feFlood flood-opacity="0" result="BackgroundImageFix"/><feColorMatrix in="SourceAlpha" values="0 0 0 0 0 0 0 0 0 0 0 0 0 0 0 0 0 0 127 0" result="hardAlpha"/><feOffset dy="10.062"/><feGaussianBlur stdDeviation="3.87"/><feColorMatrix values="0 0 0 0 0.3 0 0 0 0 0 0 0 0 0 0.26 0 0 0 0.7 0"/><feBlend mode="multiply" in2="BackgroundImageFix" result="effect1_dropShadow_702_3282"/><feColorMatrix in="SourceAlpha" values="0 0 0 0 0 0 0 0 0 0 0 0 0 0 0 0 0 0 127 0" result="hardAlpha"/><feOffset dy="15.479"/><feGaussianBlur stdDeviation="10.062"/><feColorMatrix values="0 0 0 0 0.6 0 0 0 0 0 0 0 0 0 0.6 0 0 0 1 0"/><feBlend mode="color-dodge" in2="effect1_dropShadow_702_3282" result="effect2_dropShadow_702_3282"/><feBlend in="SourceGraphic" in2="effect2_dropShadow_702_3282" result="shape"/><feColorMatrix in="SourceAlpha" values="0 0 0 0 0 0 0 0 0 0 0 0 0 0 0 0 0 0 127 0" result="hardAlpha"/><feOffset dx="-1.006" dy="2.012"/><feGaussianBlur stdDeviation=".503"/><feComposite in2="hardAlpha" operator="arithmetic" k2="-1" k3="1"/><feColorMatrix values="0 0 0 0 1 0 0 0 0 1 0 0 0 0 1 0 0 0 0.5 0"/><feBlend in2="shape" result="effect3_innerShadow_702_3282"/></filter><filter id="filter17_ddi_702_3282" x="423.764" y="87.099" width="136.811" height="130.065" filterUnits="userSpaceOnUse" color-interpolation-filters="sRGB"><feFlood flood-opacity="0" result="BackgroundImageFix"/><feColorMatrix in="SourceAlpha" values="0 0 0 0 0 0 0 0 0 0 0 0 0 0 0 0 0 0 127 0" result="hardAlpha"/><feOffset dy="10.062"/><feGaussianBlur stdDeviation="3.87"/><feColorMatrix values="0 0 0 0 0.3 0 0 0 0 0 0 0 0 0 0.26 0 0 0 0.7 0"/><feBlend mode="multiply" in2="BackgroundImageFix" result="effect1_dropShadow_702_3282"/><feColorMatrix in="SourceAlpha" values="0 0 0 0 0 0 0 0 0 0 0 0 0 0 0 0 0 0 127 0" result="hardAlpha"/><feOffset dy="15.479"/><feGaussianBlur stdDeviation="10.062"/><feColorMatrix values="0 0 0 0 0.6 0 0 0 0 0 0 0 0 0 0.6 0 0 0 1 0"/><feBlend mode="color-dodge" in2="effect1_dropShadow_702_3282" result="effect2_dropShadow_702_3282"/><feBlend in="SourceGraphic" in2="effect2_dropShadow_702_3282" result="shape"/><feColorMatrix in="SourceAlpha" values="0 0 0 0 0 0 0 0 0 0 0 0 0 0 0 0 0 0 127 0" result="hardAlpha"/><feOffset dx="-1.006" dy="2.012"/><feGaussianBlur stdDeviation=".503"/><feComposite in2="hardAlpha" operator="arithmetic" k2="-1" k3="1"/><feColorMatrix values="0 0 0 0 1 0 0 0 0 1 0 0 0 0 1 0 0 0 0.5 0"/><feBlend in2="shape" result="effect3_innerShadow_702_3282"/></filter><filter id="filter18_ddi_702_3282" x="340.514" y="87.099" width="135.385" height="130.065" filterUnits="userSpaceOnUse" color-interpolation-filters="sRGB"><feFlood flood-opacity="0" result="BackgroundImageFix"/><feColorMatrix in="SourceAlpha" values="0 0 0 0 0 0 0 0 0 0 0 0 0 0 0 0 0 0 127 0" result="hardAlpha"/><feOffset dy="10.062"/><feGaussianBlur stdDeviation="3.87"/><feColorMatrix values="0 0 0 0 0.3 0 0 0 0 0 0 0 0 0 0.26 0 0 0 0.7 0"/><feBlend mode="multiply" in2="BackgroundImageFix" result="effect1_dropShadow_702_3282"/><feColorMatrix in="SourceAlpha" values="0 0 0 0 0 0 0 0 0 0 0 0 0 0 0 0 0 0 127 0" result="hardAlpha"/><feOffset dy="15.479"/><feGaussianBlur stdDeviation="10.062"/><feColorMatrix values="0 0 0 0 0.6 0 0 0 0 0 0 0 0 0 0.6 0 0 0 1 0"/><feBlend mode="color-dodge" in2="effect1_dropShadow_702_3282" result="effect2_dropShadow_702_3282"/><feBlend in="SourceGraphic" in2="effect2_dropShadow_702_3282" result="shape"/><feColorMatrix in="SourceAlpha" values="0 0 0 0 0 0 0 0 0 0 0 0 0 0 0 0 0 0 127 0" result="hardAlpha"/><feOffset dx="-1.006" dy="2.012"/><feGaussianBlur stdDeviation=".503"/><feComposite in2="hardAlpha" operator="arithmetic" k2="-1" k3="1"/><feColorMatrix values="0 0 0 0 1 0 0 0 0 1 0 0 0 0 1 0 0 0 0.5 0"/><feBlend in2="shape" result="effect3_innerShadow_702_3282"/></filter><filter id="filter19_ddi_702_3282" x="254.031" y="87.085" width="139.569" height="131.999" filterUnits="userSpaceOnUse" color-interpolation-filters="sRGB"><feFlood flood-opacity="0" result="BackgroundImageFix"/><feColorMatrix in="SourceAlpha" values="0 0 0 0 0 0 0 0 0 0 0 0 0 0 0 0 0 0 127 0" result="hardAlpha"/><feOffset dy="10.062"/><feGaussianBlur stdDeviation="3.87"/><feColorMatrix values="0 0 0 0 0.3 0 0 0 0 0 0 0 0 0 0.26 0 0 0 0.7 0"/><feBlend mode="multiply" in2="BackgroundImageFix" result="effect1_dropShadow_702_3282"/><feColorMatrix in="SourceAlpha" values="0 0 0 0 0 0 0 0 0 0 0 0 0 0 0 0 0 0 127 0" result="hardAlpha"/><feOffset dy="15.479"/><feGaussianBlur stdDeviation="10.062"/><feColorMatrix values="0 0 0 0 0.6 0 0 0 0 0 0 0 0 0 0.6 0 0 0 1 0"/><feBlend mode="color-dodge" in2="effect1_dropShadow_702_3282" result="effect2_dropShadow_702_3282"/><feBlend in="SourceGraphic" in2="effect2_dropShadow_702_3282" result="shape"/><feColorMatrix in="SourceAlpha" values="0 0 0 0 0 0 0 0 0 0 0 0 0 0 0 0 0 0 127 0" result="hardAlpha"/><feOffset dx="-1.006" dy="2.012"/><feGaussianBlur stdDeviation=".503"/><feComposite in2="hardAlpha" operator="arithmetic" k2="-1" k3="1"/><feColorMatrix values="0 0 0 0 1 0 0 0 0 1 0 0 0 0 1 0 0 0 0.5 0"/><feBlend in2="shape" result="effect3_innerShadow_702_3282"/></filter><filter id="filter20_ddi_702_3282" x="155.026" y="83.225" width="158.892" height="133.939" filterUnits="userSpaceOnUse" color-interpolation-filters="sRGB"><feFlood flood-opacity="0" result="BackgroundImageFix"/><feColorMatrix in="SourceAlpha" values="0 0 0 0 0 0 0 0 0 0 0 0 0 0 0 0 0 0 127 0" result="hardAlpha"/><feOffset dy="10.062"/><feGaussianBlur stdDeviation="3.87"/><feColorMatrix values="0 0 0 0 0.3 0 0 0 0 0 0 0 0 0 0.26 0 0 0 0.7 0"/><feBlend mode="multiply" in2="BackgroundImageFix" result="effect1_dropShadow_702_3282"/><feColorMatrix in="SourceAlpha" values="0 0 0 0 0 0 0 0 0 0 0 0 0 0 0 0 0 0 127 0" result="hardAlpha"/><feOffset dy="15.479"/><feGaussianBlur stdDeviation="10.062"/><feColorMatrix values="0 0 0 0 0.6 0 0 0 0 0 0 0 0 0 0.6 0 0 0 1 0"/><feBlend mode="color-dodge" in2="effect1_dropShadow_702_3282" result="effect2_dropShadow_702_3282"/><feBlend in="SourceGraphic" in2="effect2_dropShadow_702_3282" result="shape"/><feColorMatrix in="SourceAlpha" values="0 0 0 0 0 0 0 0 0 0 0 0 0 0 0 0 0 0 127 0" result="hardAlpha"/><feOffset dx="-1.006" dy="2.012"/><feGaussianBlur stdDeviation=".503"/><feComposite in2="hardAlpha" operator="arithmetic" k2="-1" k3="1"/><feColorMatrix values="0 0 0 0 1 0 0 0 0 1 0 0 0 0 1 0 0 0 0.5 0"/><feBlend in2="shape" result="effect3_innerShadow_702_3282"/></filter><filter id="filter21_ddi_702_3282" x="87.389" y="87.099" width="129.044" height="130.065" filterUnits="userSpaceOnUse" color-interpolation-filters="sRGB"><feFlood flood-opacity="0" result="BackgroundImageFix"/><feColorMatrix in="SourceAlpha" values="0 0 0 0 0 0 0 0 0 0 0 0 0 0 0 0 0 0 127 0" result="hardAlpha"/><feOffset dy="10.062"/><feGaussianBlur stdDeviation="3.87"/><feColorMatrix values="0 0 0 0 0.3 0 0 0 0 0 0 0 0 0 0.26 0 0 0 0.7 0"/><feBlend mode="multiply" in2="BackgroundImageFix" result="effect1_dropShadow_702_3282"/><feColorMatrix in="SourceAlpha" values="0 0 0 0 0 0 0 0 0 0 0 0 0 0 0 0 0 0 127 0" result="hardAlpha"/><feOffset dy="15.479"/><feGaussianBlur stdDeviation="10.062"/><feColorMatrix values="0 0 0 0 0.6 0 0 0 0 0 0 0 0 0 0.6 0 0 0 1 0"/><feBlend mode="color-dodge" in2="effect1_dropShadow_702_3282" result="effect2_dropShadow_702_3282"/><feBlend in="SourceGraphic" in2="effect2_dropShadow_702_3282" result="shape"/><feColorMatrix in="SourceAlpha" values="0 0 0 0 0 0 0 0 0 0 0 0 0 0 0 0 0 0 127 0" result="hardAlpha"/><feOffset dx="-1.006" dy="2.012"/><feGaussianBlur stdDeviation=".503"/><feComposite in2="hardAlpha" operator="arithmetic" k2="-1" k3="1"/><feColorMatrix values="0 0 0 0 1 0 0 0 0 1 0 0 0 0 1 0 0 0 0.5 0"/><feBlend in2="shape" result="effect3_innerShadow_702_3282"/></filter><filter id="filter22_f_702_3282" x="610.162" y="94.064" width="97.861" height="85.175" filterUnits="userSpaceOnUse" color-interpolation-filters="sRGB"><feFlood flood-opacity="0" result="BackgroundImageFix"/><feBlend in="SourceGraphic" in2="BackgroundImageFix" result="shape"/><feGaussianBlur stdDeviation=".774" result="effect1_foregroundBlur_702_3282"/></filter><filter id="filter23_f_702_3282" x="531.684" y="94.064" width="92.507" height="85.175" filterUnits="userSpaceOnUse" color-interpolation-filters="sRGB"><feFlood flood-opacity="0" result="BackgroundImageFix"/><feBlend in="SourceGraphic" in2="BackgroundImageFix" result="shape"/><feGaussianBlur stdDeviation=".774" result="effect1_foregroundBlur_702_3282"/></filter><filter id="filter24_f_702_3282" x="446.371" y="94.064" width="93.403" height="85.175" filterUnits="userSpaceOnUse" color-interpolation-filters="sRGB"><feFlood flood-opacity="0" result="BackgroundImageFix"/><feBlend in="SourceGraphic" in2="BackgroundImageFix" result="shape"/><feGaussianBlur stdDeviation=".774" result="effect1_foregroundBlur_702_3282"/></filter><filter id="filter25_f_702_3282" x="363.121" y="94.064" width="92.507" height="85.175" filterUnits="userSpaceOnUse" color-interpolation-filters="sRGB"><feFlood flood-opacity="0" result="BackgroundImageFix"/><feBlend in="SourceGraphic" in2="BackgroundImageFix" result="shape"/><feGaussianBlur stdDeviation=".774" result="effect1_foregroundBlur_702_3282"/></filter><filter id="filter26_f_702_3282" x="276.476" y="94.056" width="94.679" height="87.104" filterUnits="userSpaceOnUse" color-interpolation-filters="sRGB"><feFlood flood-opacity="0" result="BackgroundImageFix"/><feBlend in="SourceGraphic" in2="BackgroundImageFix" result="shape"/><feGaussianBlur stdDeviation=".774" result="effect1_foregroundBlur_702_3282"/></filter><filter id="filter27_f_702_3282" x="179.24" y="94.064" width="110.447" height="85.175" filterUnits="userSpaceOnUse" color-interpolation-filters="sRGB"><feFlood flood-opacity="0" result="BackgroundImageFix"/><feBlend in="SourceGraphic" in2="BackgroundImageFix" result="shape"/><feGaussianBlur stdDeviation=".774" result="effect1_foregroundBlur_702_3282"/></filter><filter id="filter28_f_702_3282" x="109.996" y="94.064" width="83.861" height="85.175" filterUnits="userSpaceOnUse" color-interpolation-filters="sRGB"><feFlood flood-opacity="0" result="BackgroundImageFix"/><feBlend in="SourceGraphic" in2="BackgroundImageFix" result="shape"/><feGaussianBlur stdDeviation=".774" result="effect1_foregroundBlur_702_3282"/></filter><filter id="filter29_f_702_3282" x="616.722" y="97.676" width="87.558" height="77.952" filterUnits="userSpaceOnUse" color-interpolation-filters="sRGB"><feFlood flood-opacity="0" result="BackgroundImageFix"/><feBlend in="SourceGraphic" in2="BackgroundImageFix" result="shape"/><feGaussianBlur stdDeviation=".516" result="effect1_foregroundBlur_702_3282"/></filter><filter id="filter30_f_702_3282" x="535.426" y="97.676" width="84.545" height="77.952" filterUnits="userSpaceOnUse" color-interpolation-filters="sRGB"><feFlood flood-opacity="0" result="BackgroundImageFix"/><feBlend in="SourceGraphic" in2="BackgroundImageFix" result="shape"/><feGaussianBlur stdDeviation=".516" result="effect1_foregroundBlur_702_3282"/></filter><filter id="filter31_f_702_3282" x="450.114" y="97.676" width="86.05" height="77.952" filterUnits="userSpaceOnUse" color-interpolation-filters="sRGB"><feFlood flood-opacity="0" result="BackgroundImageFix"/><feBlend in="SourceGraphic" in2="BackgroundImageFix" result="shape"/><feGaussianBlur stdDeviation=".516" result="effect1_foregroundBlur_702_3282"/></filter><filter id="filter32_f_702_3282" x="366.864" y="97.676" width="84.545" height="77.952" filterUnits="userSpaceOnUse" color-interpolation-filters="sRGB"><feFlood flood-opacity="0" result="BackgroundImageFix"/><feBlend in="SourceGraphic" in2="BackgroundImageFix" result="shape"/><feGaussianBlur stdDeviation=".516" result="effect1_foregroundBlur_702_3282"/></filter><filter id="filter33_f_702_3282" x="280.087" y="97.672" width="87.456" height="79.876" filterUnits="userSpaceOnUse" color-interpolation-filters="sRGB"><feFlood flood-opacity="0" result="BackgroundImageFix"/><feBlend in="SourceGraphic" in2="BackgroundImageFix" result="shape"/><feGaussianBlur stdDeviation=".516" result="effect1_foregroundBlur_702_3282"/></filter><filter id="filter34_f_702_3282" x="184.269" y="97.676" width="100.379" height="77.952" filterUnits="userSpaceOnUse" color-interpolation-filters="sRGB"><feFlood flood-opacity="0" result="BackgroundImageFix"/><feBlend in="SourceGraphic" in2="BackgroundImageFix" result="shape"/><feGaussianBlur stdDeviation=".516" result="effect1_foregroundBlur_702_3282"/></filter><filter id="filter35_f_702_3282" x="113.739" y="97.676" width="76.43" height="77.952" filterUnits="userSpaceOnUse" color-interpolation-filters="sRGB"><feFlood flood-opacity="0" result="BackgroundImageFix"/><feBlend in="SourceGraphic" in2="BackgroundImageFix" result="shape"/><feGaussianBlur stdDeviation=".516" result="effect1_foregroundBlur_702_3282"/></filter></defs></svg>