<svg width="524" height="231" fill="none" xmlns="http://www.w3.org/2000/svg"><g style="mix-blend-mode:hard-light" filter="url(#filter0_f_702_3340)"><ellipse cx="261.681" cy="115.5" rx="229.009" ry="82.5" fill="#FF3780" fill-opacity=".2"/></g><g style="mix-blend-mode:hard-light" filter="url(#filter1_f_702_3340)"><path fill-rule="evenodd" clip-rule="evenodd" d="M369.966 95.186a1486.01 1486.01 0 00-.068 11.637c-.005 2.196-.008 4.54-.008 7.03h7.776c1.264-8.787 4.709-15.583 10.336-20.387 5.69-4.868 13.845-7.302 24.465-7.302 12.202 0 21.147 3.16 26.837 9.483 5.689 6.321 8.534 15.109 8.534 26.362 0 11.442-2.845 20.293-8.534 26.551-5.627 6.259-14.572 9.388-26.837 9.388-10.683 0-18.87-2.434-24.56-7.301-5.69-4.931-9.135-11.886-10.336-20.863h-7.681v7.492c0 3.503.03 7.734.091 12.693.027 2.201.06 4.544.098 7.031H347.7l.095-9.957c.126-10.873.19-19.313.19-25.319 0-5.626-.064-13.623-.19-23.991l-.095-9.578h22.379a535.56 535.56 0 00-.113 7.03zm7.032 53.579c.029 2.509.066 5.217.111 8.125l.112 7.141h-36.619l.163-17.055v-.015c.126-10.864.189-19.272.189-25.237 0-5.583-.063-13.547-.189-23.906v-.016l-.165-16.678h36.684l-.176 7.203a518.366 518.366 0 00-.113 7.09 34.532 34.532 0 016.441-7.298c7.406-6.333 17.43-8.986 29.031-8.986 13.309 0 24.544 3.456 32.062 11.81 7.185 7.983 10.34 18.648 10.34 31.066 0 12.56-3.132 23.32-10.353 31.269-7.474 8.302-18.726 11.701-32.049 11.701-11.655 0-21.718-2.649-29.13-8.99l-.018-.015-.016-.015a34.819 34.819 0 01-6.305-7.194zm39.835-36.149l-.046-.062c-.995-1.335-2.166-2.006-4.32-2.006-2.153 0-3.394.676-4.462 2.07-1.109 1.466-2.162 4.269-2.162 9.391 0 5.135 1.033 8.025 2.165 9.583 1.039 1.303 2.282 1.972 4.459 1.972 2.312 0 3.504-.714 4.455-1.965 1.096-1.442 2.17-4.291 2.17-9.59 0-5.101-1.076-7.877-2.211-9.332l-.048-.061zm-14.417 23.237c-2.403-3.224-3.604-7.839-3.604-13.844 0-5.943 1.201-10.495 3.604-13.656 2.465-3.224 5.816-4.836 10.051-4.836 4.236 0 7.555 1.612 9.957 4.836 2.466 3.161 3.699 7.713 3.699 13.656 0 6.069-1.202 10.684-3.604 13.844-2.402 3.161-5.753 4.742-10.052 4.742-4.235 0-7.586-1.581-10.051-4.742z" fill="#F32E7C"/></g><g style="mix-blend-mode:hard-light" filter="url(#filter2_f_702_3340)"><path fill-rule="evenodd" clip-rule="evenodd" d="M347.445 81.124l-.303 7.322c-.438 10.574-.658 21.95-.658 34.132 0 12.181.22 23.557.658 34.131l.303 7.322h-36.643v-25.794h-20.835v25.794h-36.642l.302-7.321c.502-12.181.753-23.558.753-34.132 0-10.575-.251-21.951-.753-34.133l-.302-7.32h36.642v25.793h20.835V81.124h36.643zm-29.612 32.824h-34.897V88.155h-22.284c.098 2.373.186 4.717.265 7.03.329 9.645.493 18.776.493 27.393 0 8.616-.164 17.747-.493 27.391a984.296 984.296 0 01-.265 7.031h22.284v-25.793h34.897V157h22.284c-.095-2.307-.181-4.65-.255-7.031a872.601 872.601 0 01-.409-27.391c0-9.617.137-18.748.409-27.392.074-2.38.16-4.724.255-7.03h-22.284v25.792z" fill="#F32E7C"/></g><g style="mix-blend-mode:hard-light" filter="url(#filter3_f_702_3340)"><path fill-rule="evenodd" clip-rule="evenodd" d="M238.431 130.036a865.748 865.748 0 00-24.168-.346c-5.942 0-10.431.031-13.465.094v9.863c2.41-.013 4.753-.028 7.03-.045 15.943-.12 28.627-.349 38.051-.688 2.647-.095 5.036-.198 7.169-.311a64.656 64.656 0 00-.802 7.081c-.02.325-.037.652-.052.98a461.22 461.22 0 00-.095 10.336h-73.681c.098-2.373.187-4.717.265-7.031.329-9.644.494-18.775.494-27.391 0-8.617-.165-17.748-.494-27.392a929.22 929.22 0 00-.265-7.03h73.681v17.163h-51.301v9.103c3.034.064 7.523.095 13.465.095 7.844 0 15.9-.115 24.168-.346 2.327-.065 4.67-.139 7.03-.223v16.311c-2.36-.084-4.703-.158-7.03-.223zm14.061-17.686h6.638V81.125h-88.038l.302 7.32c.502 12.182.752 23.558.752 34.133 0 10.574-.25 21.951-.752 34.132l-.302 7.321h88.038V157c0-4.102.031-7.462.091-10.094.116-2.481.37-4.853.757-7.119l1.373-8.041.007-.62-8.68.457-.186.009V112.35z" fill="#F32E7C"/></g><g style="mix-blend-mode:hard-light" filter="url(#filter4_f_702_3340)"><path fill-rule="evenodd" clip-rule="evenodd" d="M169.773 81.124l8.907 82.907H66.967l8.907-82.907h44.413l1.927 10.477 1.683-10.477h45.876zm-47.092 51.885l-8.25-44.854H82.19L74.793 157h24.56l1.423-48.741L110.448 157h24.845l9.483-49.121L146.293 157h24.561l-7.397-68.845h-33.569l-7.207 44.854z" fill="#F32E7C"/></g><g style="mix-blend-mode:hard-light" filter="url(#filter5_f_702_3340)"><path fill-rule="evenodd" clip-rule="evenodd" d="M370.08 88.155a598.528 598.528 0 00-.134 9.194c-.018 2.198-.032 4.635-.041 7.311l-.005 1.437c-.006 2.077-.009 4.29-.01 6.638v1.118h7.776c.328-2.28.803-4.426 1.425-6.438 1.774-5.742 4.745-10.392 8.911-13.95 5.69-4.867 13.845-7.301 24.466-7.301 12.201 0 21.146 3.16 26.836 9.483 5.69 6.321 8.534 15.109 8.534 26.362 0 11.442-2.844 20.293-8.534 26.551-5.627 6.259-14.572 9.388-26.836 9.388-10.684 0-18.871-2.434-24.561-7.301-4.115-3.567-7.056-8.192-8.823-13.875-.676-2.174-1.181-4.503-1.513-6.988h-7.681v7.492l.001.812.001.89c.007 2.592.028 5.534.064 8.828.031 2.809.072 5.874.124 9.194H347.7l.095-9.957c.127-10.873.19-19.313.19-25.319 0-5.626-.063-13.623-.19-23.991l-.095-9.578h22.38zm9.165 66.915l.027 1.786.146 9.338h-40.999l.087-9.194h1.611l-.003-.072a720.752 720.752 0 01-.341-9.961l-.001-.017a891.881 891.881 0 01-.319-24.372l.001-.854c.007-8.331.116-16.296.329-23.894v-.018c.092-3.261.202-6.456.331-9.582l.003-.075h-1.611l-.091-9.194h41.086l-.23 9.418-.017.727a37.008 37.008 0 012.774-2.629c7.933-6.786 18.534-9.507 30.44-9.507 13.649 0 25.588 3.547 33.67 12.526 7.644 8.494 10.894 19.737 10.894 32.513 0 12.902-3.219 24.248-10.908 32.717-8.043 8.932-20.006 12.416-33.656 12.416-11.954 0-22.595-2.714-30.538-9.509l-.022-.02-.022-.019a37.402 37.402 0 01-2.641-2.524zm35.868-41.142l-.061-.081c-.561-.754-1.071-1.136-2.584-1.136-1.51 0-2.103.387-2.739 1.214-.715.946-1.723 3.214-1.723 8.084 0 4.836.97 7.21 1.727 8.275.59.73 1.204 1.117 2.735 1.117 1.7 0 2.228-.448 2.732-1.111.694-.913 1.729-3.218 1.729-8.281 0-4.842-1.028-7.071-1.754-8.001l-.062-.08zm-12.697 21.925c-2.402-3.224-3.604-7.839-3.604-13.844 0-5.943 1.202-10.495 3.604-13.656 2.465-3.224 5.816-4.836 10.052-4.836 4.235 0 7.554 1.612 9.957 4.836 2.465 3.161 3.698 7.713 3.698 13.656 0 6.069-1.201 10.684-3.604 13.844-2.402 3.161-5.752 4.742-10.051 4.742-4.236 0-7.587-1.581-10.052-4.742z" fill="#FF26C2"/></g><g style="mix-blend-mode:hard-light" filter="url(#filter6_f_702_3340)"><path fill-rule="evenodd" clip-rule="evenodd" d="M349.319 157h-1.618l.095-9.957c.12-10.368.183-18.523.189-24.465v-.854c0-5.626-.063-13.623-.189-23.991l-.095-9.578h1.618l.381-9.194h-41.061v25.793H292.13V78.961h-41.059l.379 9.194h.65v17.164h-.09c.138 5.975.207 11.728.207 17.259 0 5.165-.06 10.524-.18 16.077l1.011-.052a65.578 65.578 0 00-.853 8.061 449.903 449.903 0 00-.095 9.983V157h-.65l-.379 9.194h41.059v-25.793h16.509v25.793H349.7l-.381-9.194zm-31.486-25.793V157h22.285a699.27 699.27 0 01-.321-9.194 883.337 883.337 0 01-.343-25.228c0-8.818.114-17.228.343-25.229.089-3.127.196-6.192.321-9.194h-22.285v25.793h-34.896V88.155h-22.285c.129 3.116.241 6.18.337 9.194.281 8.849.422 17.259.422 25.229 0 7.969-.141 16.379-.422 25.228a964.809 964.809 0 01-.337 9.194h22.285v-25.793h34.896z" fill="#FF26C2"/></g><g style="mix-blend-mode:hard-light" filter="url(#filter7_f_702_3340)"><path fill-rule="evenodd" clip-rule="evenodd" d="M236.268 129.978a861.44 861.44 0 00-22.004-.288c-5.943 0-10.432.031-13.466.094v9.863c3.18-.017 6.245-.038 9.194-.062 10.308-.086 19.202-.219 26.68-.399a870.517 870.517 0 008.483-.246c2.937-.102 5.568-.214 7.893-.337a66.143 66.143 0 00-.853 8.061 182.1 182.1 0 00-.025 1.189c-.047 2.512-.07 5.561-.07 9.147h-73.681c.128-3.116.24-6.18.336-9.194.282-8.849.422-17.259.422-25.228 0-7.97-.14-16.38-.422-25.229a998.394 998.394 0 00-.336-9.194H252.1v17.164h-51.302v9.103c2.378.05 5.649.08 9.812.091a1412.285 1412.285 0 006.326 0 871.253 871.253 0 0019.332-.284c3.036-.078 6.1-.172 9.194-.281v16.311c-2.953-.105-5.88-.195-8.78-.27l-.414-.011zm18.388-.666v-14.799h6.638v-4.891a824.015 824.015 0 00-.087-4.303 935.065 935.065 0 00-.555-17.164h.642v-9.194h-92.456l.395 9.573c.501 12.156.75 23.503.75 34.044 0 7.278-.119 14.942-.357 22.99L170.854 157h-1.637l-.379 9.194h92.456V157h-.642c.139-3.372.259-6.683.36-9.935l.006-.196c.071-2.322.133-4.613.185-6.873.087-3.764.146-7.443.178-11.038l-6.725.354z" fill="#FF26C2"/></g><g style="mix-blend-mode:hard-light" filter="url(#filter8_f_702_3340)"><path fill-rule="evenodd" clip-rule="evenodd" d="M171.716 78.961l7.118 66.249a984.425 984.425 0 01-.382 10.974l-.034.816h1.682l.988 9.194H64.558l9.373-87.233h97.785zm-70.94 29.298L110.448 157h24.845l9.483-49.121L146.293 157h24.561l-7.397-68.845h-33.569l-7.207 44.854-8.25-44.854H82.19L74.793 157h24.56l1.423-48.741z" fill="#FF26C2"/></g><g style="mix-blend-mode:hard-light" filter="url(#filter9_ddi_702_3340)"><path fill-rule="evenodd" clip-rule="evenodd" d="M369.966 95.186a1486.01 1486.01 0 00-.068 11.637c-.005 2.196-.008 4.54-.008 7.03h7.776c1.264-8.787 4.709-15.583 10.336-20.387 5.69-4.868 13.845-7.302 24.465-7.302 12.202 0 21.147 3.16 26.837 9.483 5.689 6.321 8.534 15.109 8.534 26.362 0 11.442-2.845 20.293-8.534 26.551-5.627 6.259-14.572 9.388-26.837 9.388-10.683 0-18.87-2.434-24.56-7.301-5.69-4.931-9.135-11.886-10.336-20.863h-7.681v7.492c0 3.503.03 7.734.091 12.693.027 2.201.06 4.544.098 7.031H347.7l.095-9.957c.126-10.873.19-19.313.19-25.319 0-5.626-.064-13.623-.19-23.991l-.095-9.578h22.379a535.56 535.56 0 00-.113 7.03zm7.032 53.579c.029 2.509.066 5.217.111 8.125l.112 7.141h-36.619l.163-17.055v-.015c.126-10.864.189-19.272.189-25.237 0-5.583-.063-13.547-.189-23.906v-.016l-.165-16.678h36.684l-.176 7.203a518.366 518.366 0 00-.113 7.09 34.532 34.532 0 016.441-7.298c7.406-6.333 17.43-8.986 29.031-8.986 13.309 0 24.544 3.456 32.062 11.81 7.185 7.983 10.34 18.648 10.34 31.066 0 12.56-3.132 23.32-10.353 31.269-7.474 8.302-18.726 11.701-32.049 11.701-11.655 0-21.718-2.649-29.13-8.99l-.018-.015-.016-.015a34.819 34.819 0 01-6.305-7.194zm39.835-36.149l-.046-.062c-.995-1.335-2.166-2.006-4.32-2.006-2.153 0-3.394.676-4.462 2.07-1.109 1.466-2.162 4.269-2.162 9.391 0 5.135 1.033 8.025 2.165 9.583 1.039 1.303 2.282 1.972 4.459 1.972 2.312 0 3.504-.714 4.455-1.965 1.096-1.442 2.17-4.291 2.17-9.59 0-5.101-1.076-7.877-2.211-9.332l-.048-.061zm-14.417 23.237c-2.403-3.224-3.604-7.839-3.604-13.844 0-5.943 1.201-10.495 3.604-13.656 2.465-3.224 5.816-4.836 10.051-4.836 4.236 0 7.555 1.612 9.957 4.836 2.466 3.161 3.699 7.713 3.699 13.656 0 6.069-1.202 10.684-3.604 13.844-2.402 3.161-5.753 4.742-10.052 4.742-4.235 0-7.586-1.581-10.051-4.742z" fill="#FB37FF" fill-opacity=".2"/></g><g style="mix-blend-mode:hard-light" filter="url(#filter10_ddi_702_3340)"><path fill-rule="evenodd" clip-rule="evenodd" d="M347.445 81.124l-.303 7.322c-.438 10.574-.658 21.95-.658 34.132 0 12.181.22 23.557.658 34.131l.303 7.322h-36.643v-25.794h-20.835v25.794h-36.642l.302-7.321c.502-12.181.753-23.558.753-34.132 0-10.575-.251-21.951-.753-34.133l-.302-7.32h36.642v25.793h20.835V81.124h36.643zm-29.612 32.824h-34.897V88.155h-22.284c.098 2.373.186 4.717.265 7.03.329 9.645.493 18.776.493 27.393 0 8.616-.164 17.747-.493 27.391a984.296 984.296 0 01-.265 7.031h22.284v-25.793h34.897V157h22.284c-.095-2.307-.181-4.65-.255-7.031a872.601 872.601 0 01-.409-27.391c0-9.617.137-18.748.409-27.392.074-2.38.16-4.724.255-7.03h-22.284v25.792z" fill="#FB37FF" fill-opacity=".2"/></g><g style="mix-blend-mode:hard-light" filter="url(#filter11_ddi_702_3340)"><path fill-rule="evenodd" clip-rule="evenodd" d="M238.431 130.036a865.748 865.748 0 00-24.168-.346c-5.942 0-10.431.031-13.465.094v9.863c2.41-.013 4.753-.028 7.03-.045 15.943-.12 28.627-.349 38.051-.688 2.647-.095 5.036-.198 7.169-.311a64.656 64.656 0 00-.802 7.081c-.02.325-.037.652-.052.98a461.22 461.22 0 00-.095 10.336h-73.681c.098-2.373.187-4.717.265-7.031.329-9.644.494-18.775.494-27.391 0-8.617-.165-17.748-.494-27.392a929.22 929.22 0 00-.265-7.03h73.681v17.163h-51.301v9.103c3.034.064 7.523.095 13.465.095 7.844 0 15.9-.115 24.168-.346 2.327-.065 4.67-.139 7.03-.223v16.311c-2.36-.084-4.703-.158-7.03-.223zm14.061-17.686h6.638V81.125h-88.038l.302 7.32c.502 12.182.752 23.558.752 34.133 0 10.574-.25 21.951-.752 34.132l-.302 7.321h88.038V157c0-4.102.031-7.462.091-10.094.116-2.481.37-4.853.757-7.119l1.373-8.041.007-.62-8.68.457-.186.009V112.35z" fill="#FB37FF" fill-opacity=".2"/></g><g style="mix-blend-mode:hard-light" filter="url(#filter12_ddi_702_3340)"><path fill-rule="evenodd" clip-rule="evenodd" d="M169.773 81.124l8.907 82.907H66.967l8.907-82.907h44.413l1.927 10.477 1.683-10.477h45.876zm-47.092 51.885l-8.25-44.854H82.19L74.793 157h24.56l1.423-48.741L110.448 157h24.845l9.483-49.121L146.293 157h24.561l-7.397-68.845h-33.569l-7.207 44.854z" fill="#FB37FF" fill-opacity=".2"/></g><g filter="url(#filter13_f_702_3340)"><path fill-rule="evenodd" clip-rule="evenodd" d="M370 92.482c-.061 4.32-.097 10.002-.107 17.045-.002 1.389-.003 2.831-.003 4.326h7.776c1.265-8.787 4.71-15.583 10.336-20.387 5.69-4.868 13.845-7.302 24.466-7.302 12.201 0 21.146 3.16 26.836 9.483 5.69 6.321 8.535 15.109 8.535 26.362 0 11.442-2.845 20.293-8.535 26.551-5.626 6.259-14.572 9.388-26.836 9.388-10.684 0-18.871-2.434-24.56-7.301-5.69-4.931-9.136-11.886-10.337-20.863h-7.681v7.492c0 4.124.042 9.256.126 15.397.019 1.391.041 2.833.064 4.327h-22.379l.094-9.957c.127-10.873.19-19.313.19-25.319 0-5.626-.063-13.623-.19-23.991l-.094-9.578h22.379c-.03 1.247-.057 2.689-.08 4.327zm4.217 42.902v1.892c0 5.026.063 11.575.189 19.656l.069 4.395h-31.142l.136-14.334c.127-10.868.19-19.288.19-25.269 0-5.6-.063-13.576-.19-23.939v-.01l-.138-13.946h31.182l-.108 4.432c-.107 4.377-.168 11.227-.184 20.572 1.824-7.616 5.427-13.923 10.97-18.656m-10.974 45.207c1.822 7.533 5.389 13.793 10.857 18.532l.01.009.011.009c6.75 5.775 16.091 8.341 27.373 8.341 12.915 0 23.28-3.296 30.044-10.812 6.632-7.299 9.653-17.324 9.653-29.454 0-11.97-3.035-21.913-9.645-29.257-6.815-7.572-17.169-10.915-30.052-10.915-11.224 0-20.53 2.569-27.275 8.338m33.791 20.802l-.029-.039c-1.536-2.061-3.533-3.094-6.487-3.094s-5.005 1.035-6.61 3.131c-1.607 2.117-2.719 5.593-2.719 11.034 0 5.48 1.102 9.029 2.718 11.221 1.59 2.018 3.639 3.038 6.611 3.038 3.076 0 5.098-1.047 6.607-3.032 1.598-2.104 2.722-5.632 2.722-11.227 0-5.425-1.137-8.884-2.784-10.995l-.029-.037zm-16.568 24.876c-2.402-3.224-3.603-7.839-3.603-13.844 0-5.943 1.201-10.495 3.603-13.656 2.466-3.224 5.816-4.836 10.052-4.836s7.554 1.612 9.957 4.836c2.465 3.161 3.698 7.713 3.698 13.656 0 6.069-1.201 10.684-3.603 13.844-2.403 3.161-5.753 4.742-10.052 4.742-4.236 0-7.586-1.581-10.052-4.742z" fill="#FB37FF"/></g><g filter="url(#filter14_f_702_3340)"><path fill-rule="evenodd" clip-rule="evenodd" d="M344.626 83.829l-.186 4.505c-.44 10.617-.661 22.03-.661 34.244 0 12.213.221 23.627.661 34.243l.186 4.506h-31.12v-25.794h-26.244v25.794h-31.119l.185-4.505c.504-12.214.755-23.628.755-34.244 0-10.617-.251-22.031-.755-34.245l-.185-4.504h31.119v25.793h26.244V83.829h31.12zm-26.794 30.119h-34.896V88.155h-22.285c.06 1.453.116 2.896.169 4.327.393 10.646.59 20.678.59 30.096 0 9.417-.197 19.449-.59 30.095-.053 1.432-.109 2.874-.169 4.327h22.285v-25.793h34.896V157h22.285c-.059-1.428-.115-2.87-.166-4.327-.332-9.438-.498-19.47-.498-30.095 0-10.626.166-20.657.498-30.096.051-1.457.107-2.899.166-4.327h-22.285v25.793z" fill="#FB37FF"/></g><g filter="url(#filter15_f_702_3340)"><path fill-rule="evenodd" clip-rule="evenodd" d="M241.134 130.116a873.007 873.007 0 00-26.871-.426c-5.943 0-10.431.031-13.466.094v9.863l4.327-.026c18.863-.125 33.365-.396 43.506-.812 1.578-.065 3.05-.134 4.417-.206a63.504 63.504 0 00-.587 4.363 69.818 69.818 0 00-.266 3.698 455.258 455.258 0 00-.095 10.336h-73.681c.06-1.453.116-2.895.169-4.327.393-10.646.589-20.678.589-30.095 0-9.418-.196-19.45-.589-30.096-.053-1.431-.109-2.874-.169-4.327h73.681v17.164h-51.302v9.103c3.035.064 7.523.095 13.466.095 8.697 0 17.654-.142 26.871-.426a951.42 951.42 0 004.327-.143v16.311a825.743 825.743 0 00-4.327-.143zm-36.01-19.96c2.507.023 5.552.035 9.139.035 9.81 0 19.958-.182 30.445-.546h-39.584v.511zm44.663-.511h6.638V83.829h-82.516l.186 4.504c.504 12.214.755 23.628.755 34.245 0 10.616-.251 22.03-.755 34.244l-.186 4.505h82.516V157c0-4.129.032-7.522.093-10.187.12-2.597.386-5.09.794-7.481l.91-5.333-5.402.284c-.958.05-1.969.099-3.033.146v-24.784zm-4.154 24.949l-.325-.012a882.355 882.355 0 00-31.045-.566c-3.587 0-6.632.012-9.139.035v1.243c17.148-.113 30.643-.347 40.509-.7z" fill="#FB37FF"/></g><g filter="url(#filter16_f_702_3340)"><path fill-rule="evenodd" clip-rule="evenodd" d="M167.343 83.829l8.326 77.498h-33.571l-.446-14.442-2.788 14.442h-31.968l-2.912-14.676-.429 14.676H69.977l8.326-77.498h39.731l4.359 23.698 3.808-23.698h41.142zm-44.662 49.18l-8.25-44.854H82.189L74.793 157h24.56l1.423-48.741L110.448 157h24.845l9.483-49.121L146.293 157h24.56l-7.396-68.845h-33.569l-7.207 44.854z" fill="#FB37FF"/></g><g filter="url(#filter17_f_702_3340)"><path fill-rule="evenodd" clip-rule="evenodd" d="M369.727 90.526c-.086 4.86-.133 11.845-.139 20.957l-.001 2.37h7.776c1.264-8.787 4.71-15.583 10.336-20.387 5.69-4.868 13.845-7.302 24.465-7.302 12.202 0 21.147 3.16 26.837 9.483 5.689 6.321 8.534 15.109 8.534 26.362 0 11.442-2.845 20.293-8.534 26.551-5.627 6.259-14.572 9.388-26.837 9.388-10.683 0-18.87-2.434-24.56-7.301-5.69-4.931-9.135-11.886-10.336-20.863h-7.681v7.492c0 4.554.051 10.339.154 17.353l.036 2.371h-22.38l.095-9.957c.126-10.873.19-19.313.19-25.319 0-5.626-.064-13.623-.19-23.991l-.095-9.578h22.38c-.018.724-.035 1.515-.05 2.37zm2.231 41.629v5.121c0 5.04.063 11.601.189 19.687l.038 2.408h-27.181l.117-12.35v-.005c.127-10.871.19-19.3.19-25.292 0-5.612-.063-13.598-.189-23.962l-.001-.006-.118-11.972h27.203l-.059 2.429c-.118 4.805-.181 12.557-.189 23.27h3.394c1.553-8.29 5.116-14.96 10.806-19.819 6.268-5.363 15.054-7.871 26.006-7.871 12.575 0 22.293 3.26 28.599 10.268 6.194 6.882 9.143 16.302 9.143 27.948 0 11.817-2.941 21.311-9.145 28.14-6.25 6.949-15.974 10.17-28.597 10.17-11.011 0-19.831-2.506-26.101-7.871l-.006-.005-.006-.005c-5.753-4.986-9.317-11.812-10.814-20.283h-3.279zm48.278-22.364l-.016-.021c-1.927-2.587-4.522-3.882-8.056-3.882-3.533 0-6.172 1.296-8.167 3.904-1.965 2.588-3.117 6.55-3.117 12.217 0 5.72 1.148 9.75 3.118 12.407 1.986 2.535 4.623 3.808 8.166 3.808 3.629 0 6.252-1.288 8.165-3.805 1.962-2.581 3.12-6.601 3.12-12.41 0-5.659-1.18-9.612-3.197-12.198l-.016-.02zm-18.123 26.062c-2.403-3.224-3.604-7.839-3.604-13.844 0-5.943 1.201-10.495 3.604-13.656 2.465-3.224 5.816-4.836 10.051-4.836 4.236 0 7.555 1.612 9.957 4.836 2.466 3.161 3.699 7.713 3.699 13.656 0 6.069-1.201 10.684-3.604 13.844-2.402 3.161-5.753 4.742-10.052 4.742-4.235 0-7.586-1.581-10.051-4.742z" fill="#fff"/></g><g filter="url(#filter18_f_702_3340)"><path fill-rule="evenodd" clip-rule="evenodd" d="M342.285 85.784l-.102 2.47c-.441 10.646-.662 22.087-.662 34.324 0 12.236.221 23.677.662 34.324l.102 2.469h-27.126v-25.793h-30.155v25.793h-27.126l.102-2.469c.504-12.236.756-23.677.756-34.324 0-10.647-.252-22.089-.756-34.325l-.102-2.469h27.126v25.794h30.155V85.784h27.126zm-24.756 28.164h-34.896V88.155h-22.285c.033.794.065 1.584.095 2.37.443 11.376.664 22.06.664 32.053 0 9.992-.221 20.676-.664 32.051-.03.787-.062 1.577-.095 2.371h22.285v-25.793h34.896V157h22.285c-.033-.786-.064-1.576-.094-2.371-.38-10.005-.57-20.689-.57-32.051 0-11.363.19-22.047.57-32.052.03-.795.061-1.585.094-2.37h-22.285v25.792z" fill="#fff"/></g><g filter="url(#filter19_f_702_3340)"><path fill-rule="evenodd" clip-rule="evenodd" d="M242.787 130.178a877.048 877.048 0 00-28.827-.488c-5.943 0-10.431.031-13.466.094v9.863l2.371-.014c21.113-.126 36.932-.43 47.456-.911.842-.038 1.65-.078 2.423-.119a64.604 64.604 0 00-.853 8.061 461.22 461.22 0 00-.095 10.336h-73.681c.033-.794.064-1.584.095-2.371.442-11.375.664-22.059.664-32.051 0-9.993-.222-20.677-.664-32.052-.031-.787-.062-1.577-.095-2.37h73.681v17.163h-51.302v9.103c3.035.064 7.523.095 13.466.095a879.832 879.832 0 0031.198-.569v16.311l-2.371-.081zm-39.922-18.087c2.833.037 6.529.056 11.095.056 10.022 0 20.393-.19 31.115-.568l2.454-.087v21.222l-2.454-.086a881.453 881.453 0 00-31.115-.568c-4.566 0-8.262.019-11.095.056v5.146c22.788-.136 39.364-.479 49.755-1.026l2.96-.156-.499 2.922a63.18 63.18 0 00-.821 7.743c-.062 2.69-.093 6.106-.093 10.255v2.371h-78.522l.101-2.469c.505-12.236.757-23.677.757-34.324 0-10.647-.252-22.089-.757-34.325l-.101-2.469h78.522v21.906h-51.302v4.401z" fill="#fff"/></g><g filter="url(#filter20_f_702_3340)"><path fill-rule="evenodd" clip-rule="evenodd" d="M165.283 85.784l7.906 73.587h-29.498l-.93-30.118-5.815 30.118h-28.748l-5.968-30.075-.877 30.075H71.851l7.906-73.587h36.345l6.118 33.262 5.344-33.262h37.719zm-42.905 47.225l-8.25-44.854H81.886L74.49 157h24.56l1.422-48.741L110.145 157h24.845l9.482-49.121L145.99 157h24.56l-7.397-68.845h-33.568l-7.207 44.854z" fill="#fff"/></g><defs><filter id="filter0_f_702_3340" x=".224" y=".551" width="522.915" height="229.898" filterUnits="userSpaceOnUse" color-interpolation-filters="sRGB"><feFlood flood-opacity="0" result="BackgroundImageFix"/><feBlend in="SourceGraphic" in2="BackgroundImageFix" result="shape"/><feGaussianBlur stdDeviation="16.224" result="effect1_foregroundBlur_702_3340"/></filter><filter id="filter1_f_702_3340" x="308.151" y="46.684" width="179.167" height="150.743" filterUnits="userSpaceOnUse" color-interpolation-filters="sRGB"><feFlood flood-opacity="0" result="BackgroundImageFix"/><feBlend in="SourceGraphic" in2="BackgroundImageFix" result="shape"/><feGaussianBlur stdDeviation="16.224" result="effect1_foregroundBlur_702_3340"/></filter><filter id="filter2_f_702_3340" x="220.876" y="48.676" width="159.018" height="147.804" filterUnits="userSpaceOnUse" color-interpolation-filters="sRGB"><feFlood flood-opacity="0" result="BackgroundImageFix"/><feBlend in="SourceGraphic" in2="BackgroundImageFix" result="shape"/><feGaussianBlur stdDeviation="16.224" result="effect1_foregroundBlur_702_3340"/></filter><filter id="filter3_f_702_3340" x="138.643" y="48.676" width="155.164" height="147.804" filterUnits="userSpaceOnUse" color-interpolation-filters="sRGB"><feFlood flood-opacity="0" result="BackgroundImageFix"/><feBlend in="SourceGraphic" in2="BackgroundImageFix" result="shape"/><feGaussianBlur stdDeviation="16.224" result="effect1_foregroundBlur_702_3340"/></filter><filter id="filter4_f_702_3340" x="34.518" y="48.676" width="176.611" height="147.804" filterUnits="userSpaceOnUse" color-interpolation-filters="sRGB"><feFlood flood-opacity="0" result="BackgroundImageFix"/><feBlend in="SourceGraphic" in2="BackgroundImageFix" result="shape"/><feGaussianBlur stdDeviation="16.224" result="effect1_foregroundBlur_702_3340"/></filter><filter id="filter5_f_702_3340" x="327.599" y="66.154" width="140.25" height="111.805" filterUnits="userSpaceOnUse" color-interpolation-filters="sRGB"><feFlood flood-opacity="0" result="BackgroundImageFix"/><feBlend in="SourceGraphic" in2="BackgroundImageFix" result="shape"/><feGaussianBlur stdDeviation="5.408" result="effect1_foregroundBlur_702_3340"/></filter><filter id="filter6_f_702_3340" x="240.255" y="68.145" width="120.261" height="108.865" filterUnits="userSpaceOnUse" color-interpolation-filters="sRGB"><feFlood flood-opacity="0" result="BackgroundImageFix"/><feBlend in="SourceGraphic" in2="BackgroundImageFix" result="shape"/><feGaussianBlur stdDeviation="5.408" result="effect1_foregroundBlur_702_3340"/></filter><filter id="filter7_f_702_3340" x="158.022" y="68.145" width="114.177" height="108.865" filterUnits="userSpaceOnUse" color-interpolation-filters="sRGB"><feFlood flood-opacity="0" result="BackgroundImageFix"/><feBlend in="SourceGraphic" in2="BackgroundImageFix" result="shape"/><feGaussianBlur stdDeviation="5.408" result="effect1_foregroundBlur_702_3340"/></filter><filter id="filter8_f_702_3340" x="53.742" y="68.145" width="138.162" height="108.865" filterUnits="userSpaceOnUse" color-interpolation-filters="sRGB"><feFlood flood-opacity="0" result="BackgroundImageFix"/><feBlend in="SourceGraphic" in2="BackgroundImageFix" result="shape"/><feGaussianBlur stdDeviation="5.408" result="effect1_foregroundBlur_702_3340"/></filter><filter id="filter9_ddi_702_3340" x="326.538" y="75.888" width="142.392" height="113.968" filterUnits="userSpaceOnUse" color-interpolation-filters="sRGB"><feFlood flood-opacity="0" result="BackgroundImageFix"/><feColorMatrix in="SourceAlpha" values="0 0 0 0 0 0 0 0 0 0 0 0 0 0 0 0 0 0 127 0" result="hardAlpha"/><feOffset dy="7.031"/><feGaussianBlur stdDeviation="2.704"/><feColorMatrix values="0 0 0 0 0.3 0 0 0 0 0 0 0 0 0 0.26 0 0 0 0.7 0"/><feBlend mode="multiply" in2="BackgroundImageFix" result="effect1_dropShadow_702_3340"/><feColorMatrix in="SourceAlpha" values="0 0 0 0 0 0 0 0 0 0 0 0 0 0 0 0 0 0 127 0" result="hardAlpha"/><feOffset dy="10.816"/><feGaussianBlur stdDeviation="7.031"/><feColorMatrix values="0 0 0 0 0.6 0 0 0 0 0 0 0 0 0 0.6 0 0 0 1 0"/><feBlend mode="color-dodge" in2="effect1_dropShadow_702_3340" result="effect2_dropShadow_702_3340"/><feBlend in="SourceGraphic" in2="effect2_dropShadow_702_3340" result="shape"/><feColorMatrix in="SourceAlpha" values="0 0 0 0 0 0 0 0 0 0 0 0 0 0 0 0 0 0 127 0" result="hardAlpha"/><feOffset dx="-.703" dy="1.406"/><feGaussianBlur stdDeviation=".352"/><feComposite in2="hardAlpha" operator="arithmetic" k2="-1" k3="1"/><feColorMatrix values="0 0 0 0 1 0 0 0 0 1 0 0 0 0 1 0 0 0 0.5 0"/><feBlend in2="shape" result="effect3_innerShadow_702_3340"/></filter><filter id="filter10_ddi_702_3340" x="239.264" y="77.88" width="122.242" height="111.028" filterUnits="userSpaceOnUse" color-interpolation-filters="sRGB"><feFlood flood-opacity="0" result="BackgroundImageFix"/><feColorMatrix in="SourceAlpha" values="0 0 0 0 0 0 0 0 0 0 0 0 0 0 0 0 0 0 127 0" result="hardAlpha"/><feOffset dy="7.031"/><feGaussianBlur stdDeviation="2.704"/><feColorMatrix values="0 0 0 0 0.3 0 0 0 0 0 0 0 0 0 0.26 0 0 0 0.7 0"/><feBlend mode="multiply" in2="BackgroundImageFix" result="effect1_dropShadow_702_3340"/><feColorMatrix in="SourceAlpha" values="0 0 0 0 0 0 0 0 0 0 0 0 0 0 0 0 0 0 127 0" result="hardAlpha"/><feOffset dy="10.816"/><feGaussianBlur stdDeviation="7.031"/><feColorMatrix values="0 0 0 0 0.6 0 0 0 0 0 0 0 0 0 0.6 0 0 0 1 0"/><feBlend mode="color-dodge" in2="effect1_dropShadow_702_3340" result="effect2_dropShadow_702_3340"/><feBlend in="SourceGraphic" in2="effect2_dropShadow_702_3340" result="shape"/><feColorMatrix in="SourceAlpha" values="0 0 0 0 0 0 0 0 0 0 0 0 0 0 0 0 0 0 127 0" result="hardAlpha"/><feOffset dx="-.703" dy="1.406"/><feGaussianBlur stdDeviation=".352"/><feComposite in2="hardAlpha" operator="arithmetic" k2="-1" k3="1"/><feColorMatrix values="0 0 0 0 1 0 0 0 0 1 0 0 0 0 1 0 0 0 0.5 0"/><feBlend in2="shape" result="effect3_innerShadow_702_3340"/></filter><filter id="filter11_ddi_702_3340" x="157.031" y="77.88" width="118.389" height="111.028" filterUnits="userSpaceOnUse" color-interpolation-filters="sRGB"><feFlood flood-opacity="0" result="BackgroundImageFix"/><feColorMatrix in="SourceAlpha" values="0 0 0 0 0 0 0 0 0 0 0 0 0 0 0 0 0 0 127 0" result="hardAlpha"/><feOffset dy="7.031"/><feGaussianBlur stdDeviation="2.704"/><feColorMatrix values="0 0 0 0 0.3 0 0 0 0 0 0 0 0 0 0.26 0 0 0 0.7 0"/><feBlend mode="multiply" in2="BackgroundImageFix" result="effect1_dropShadow_702_3340"/><feColorMatrix in="SourceAlpha" values="0 0 0 0 0 0 0 0 0 0 0 0 0 0 0 0 0 0 127 0" result="hardAlpha"/><feOffset dy="10.816"/><feGaussianBlur stdDeviation="7.031"/><feColorMatrix values="0 0 0 0 0.6 0 0 0 0 0 0 0 0 0 0.6 0 0 0 1 0"/><feBlend mode="color-dodge" in2="effect1_dropShadow_702_3340" result="effect2_dropShadow_702_3340"/><feBlend in="SourceGraphic" in2="effect2_dropShadow_702_3340" result="shape"/><feColorMatrix in="SourceAlpha" values="0 0 0 0 0 0 0 0 0 0 0 0 0 0 0 0 0 0 127 0" result="hardAlpha"/><feOffset dx="-.703" dy="1.406"/><feGaussianBlur stdDeviation=".352"/><feComposite in2="hardAlpha" operator="arithmetic" k2="-1" k3="1"/><feColorMatrix values="0 0 0 0 1 0 0 0 0 1 0 0 0 0 1 0 0 0 0.5 0"/><feBlend in2="shape" result="effect3_innerShadow_702_3340"/></filter><filter id="filter12_ddi_702_3340" x="52.906" y="77.88" width="139.835" height="111.028" filterUnits="userSpaceOnUse" color-interpolation-filters="sRGB"><feFlood flood-opacity="0" result="BackgroundImageFix"/><feColorMatrix in="SourceAlpha" values="0 0 0 0 0 0 0 0 0 0 0 0 0 0 0 0 0 0 127 0" result="hardAlpha"/><feOffset dy="7.031"/><feGaussianBlur stdDeviation="2.704"/><feColorMatrix values="0 0 0 0 0.3 0 0 0 0 0 0 0 0 0 0.26 0 0 0 0.7 0"/><feBlend mode="multiply" in2="BackgroundImageFix" result="effect1_dropShadow_702_3340"/><feColorMatrix in="SourceAlpha" values="0 0 0 0 0 0 0 0 0 0 0 0 0 0 0 0 0 0 127 0" result="hardAlpha"/><feOffset dy="10.816"/><feGaussianBlur stdDeviation="7.031"/><feColorMatrix values="0 0 0 0 0.6 0 0 0 0 0 0 0 0 0 0.6 0 0 0 1 0"/><feBlend mode="color-dodge" in2="effect1_dropShadow_702_3340" result="effect2_dropShadow_702_3340"/><feBlend in="SourceGraphic" in2="effect2_dropShadow_702_3340" result="shape"/><feColorMatrix in="SourceAlpha" values="0 0 0 0 0 0 0 0 0 0 0 0 0 0 0 0 0 0 127 0" result="hardAlpha"/><feOffset dx="-.703" dy="1.406"/><feGaussianBlur stdDeviation=".352"/><feComposite in2="hardAlpha" operator="arithmetic" k2="-1" k3="1"/><feColorMatrix values="0 0 0 0 1 0 0 0 0 1 0 0 0 0 1 0 0 0 0.5 0"/><feBlend in2="shape" result="effect3_innerShadow_702_3340"/></filter><filter id="filter13_f_702_3340" x="342.249" y="80.756" width="110.997" height="82.601" filterUnits="userSpaceOnUse" color-interpolation-filters="sRGB"><feFlood flood-opacity="0" result="BackgroundImageFix"/><feBlend in="SourceGraphic" in2="BackgroundImageFix" result="shape"/><feGaussianBlur stdDeviation=".541" result="effect1_foregroundBlur_702_3340"/></filter><filter id="filter14_f_702_3340" x="255.061" y="82.747" width="90.647" height="79.661" filterUnits="userSpaceOnUse" color-interpolation-filters="sRGB"><feFlood flood-opacity="0" result="BackgroundImageFix"/><feBlend in="SourceGraphic" in2="BackgroundImageFix" result="shape"/><feGaussianBlur stdDeviation=".541" result="effect1_foregroundBlur_702_3340"/></filter><filter id="filter15_f_702_3340" x="172.828" y="82.747" width="86.477" height="79.661" filterUnits="userSpaceOnUse" color-interpolation-filters="sRGB"><feFlood flood-opacity="0" result="BackgroundImageFix"/><feBlend in="SourceGraphic" in2="BackgroundImageFix" result="shape"/><feGaussianBlur stdDeviation=".541" result="effect1_foregroundBlur_702_3340"/></filter><filter id="filter16_f_702_3340" x="68.895" y="82.747" width="107.857" height="79.661" filterUnits="userSpaceOnUse" color-interpolation-filters="sRGB"><feFlood flood-opacity="0" result="BackgroundImageFix"/><feBlend in="SourceGraphic" in2="BackgroundImageFix" result="shape"/><feGaussianBlur stdDeviation=".541" result="effect1_foregroundBlur_702_3340"/></filter><filter id="filter17_f_702_3340" x="344.282" y="83.072" width="106.345" height="77.968" filterUnits="userSpaceOnUse" color-interpolation-filters="sRGB"><feFlood flood-opacity="0" result="BackgroundImageFix"/><feBlend in="SourceGraphic" in2="BackgroundImageFix" result="shape"/><feGaussianBlur stdDeviation=".361" result="effect1_foregroundBlur_702_3340"/></filter><filter id="filter18_f_702_3340" x="257.157" y="85.063" width="85.849" height="75.028" filterUnits="userSpaceOnUse" color-interpolation-filters="sRGB"><feFlood flood-opacity="0" result="BackgroundImageFix"/><feBlend in="SourceGraphic" in2="BackgroundImageFix" result="shape"/><feGaussianBlur stdDeviation=".361" result="effect1_foregroundBlur_702_3340"/></filter><filter id="filter19_f_702_3340" x="174.923" y="85.063" width="81.378" height="75.028" filterUnits="userSpaceOnUse" color-interpolation-filters="sRGB"><feFlood flood-opacity="0" result="BackgroundImageFix"/><feBlend in="SourceGraphic" in2="BackgroundImageFix" result="shape"/><feGaussianBlur stdDeviation=".361" result="effect1_foregroundBlur_702_3340"/></filter><filter id="filter20_f_702_3340" x="71.129" y="85.063" width="102.781" height="75.028" filterUnits="userSpaceOnUse" color-interpolation-filters="sRGB"><feFlood flood-opacity="0" result="BackgroundImageFix"/><feBlend in="SourceGraphic" in2="BackgroundImageFix" result="shape"/><feGaussianBlur stdDeviation=".361" result="effect1_foregroundBlur_702_3340"/></filter></defs></svg>