<svg width="764" height="275" fill="none" xmlns="http://www.w3.org/2000/svg"><g style="mix-blend-mode:hard-light" filter="url(#filter0_f_1_24)"><ellipse cx="368.009" cy="144.5" rx="229.009" ry="82.5" fill="#FF3780" fill-opacity=".2"/></g><g style="mix-blend-mode:hard-light" filter="url(#filter1_f_1_24)"><mask id="path-2-outside-1_1_24" maskUnits="userSpaceOnUse" x="173" y="101" width="389" height="86" fill="#000"><path fill="#fff" d="M173 101h389v86H173z"/><path d="M270.153 110.155L277.55 179h-24.56l-1.518-49.121L241.99 179h-24.845l-9.673-48.741L206.05 179h-24.56l7.396-68.845h32.242l8.25 44.854 7.206-44.854h33.569zm37.341 51.492c24.023-.127 41.44-.475 52.25-1.044a65.578 65.578 0 00-.853 8.061 455.258 455.258 0 00-.095 10.336h-73.681c.505-12.264.758-23.739.758-34.422 0-10.684-.253-22.159-.758-34.423h73.681v17.164h-51.302v9.103c3.035.064 7.523.095 13.466.095a883.55 883.55 0 0031.198-.569v16.311a883.55 883.55 0 00-31.198-.569c-5.943 0-10.431.031-13.466.094v9.863zm139.32-51.492c-.443 10.684-.664 22.158-.664 34.423 0 12.264.221 23.738.664 34.422h-22.285v-25.793h-34.896V179h-22.285c.506-12.264.759-23.739.759-34.422 0-10.684-.253-22.159-.759-34.423h22.285v25.793h34.896v-25.793h22.285zm72.35-1.991c12.201 0 21.147 3.161 26.836 9.483 5.69 6.321 8.535 15.109 8.535 26.362 0 11.442-2.845 20.293-8.535 26.551-5.626 6.259-14.571 9.388-26.836 9.388-10.684 0-18.871-2.434-24.56-7.301-5.69-4.931-9.135-11.886-10.336-20.863h-7.681v7.492c0 5.057.063 11.632.189 19.724h-22.379l.095-9.957c.126-10.873.189-19.313.189-25.319 0-5.626-.063-13.623-.189-23.991l-.095-9.578h22.379c-.126 5.184-.189 13.75-.189 25.698h7.775c1.265-8.787 4.71-15.583 10.337-20.388 5.689-4.867 13.844-7.301 24.465-7.301zm0 54.431c4.299 0 7.65-1.581 10.052-4.742 2.402-3.16 3.603-7.775 3.603-13.844 0-5.943-1.232-10.495-3.698-13.656-2.402-3.224-5.721-4.836-9.957-4.836-4.235 0-7.586 1.612-10.052 4.836-2.402 3.161-3.603 7.713-3.603 13.656 0 6.005 1.201 10.62 3.603 13.844 2.466 3.161 5.817 4.742 10.052 4.742z"/></mask><path d="M270.153 110.155l6.991-.751-.675-6.279h-6.316v7.03zM277.55 179v7.031h7.826l-.836-7.782-6.99.751zm-24.56 0l-7.028.217.211 6.814h6.817V179zm-1.518-49.121l7.028-.217-13.931-1.115 6.903 1.332zM241.99 179v7.031h5.803l1.1-5.698L241.99 179zm-24.845 0l-6.896 1.368 1.123 5.663h5.773V179zm-9.673-48.741l6.896-1.369-13.923 1.163 7.027.206zM206.05 179v7.031h6.828l.2-6.826-7.028-.205zm-24.56 0l-6.991-.751-.836 7.782h7.827V179zm7.396-68.845v-7.03h-6.316l-.674 6.279 6.99.751zm32.242 0l6.914-1.272-1.059-5.758h-5.855v7.03zm8.25 44.854l-6.915 1.271 13.856-.156-6.941-1.115zm7.206-44.854v-7.03h-5.991l-.95 5.915 6.941 1.115zm26.579.751l7.397 68.845 13.98-1.502-7.396-68.845-13.981 1.502zm14.387 61.063h-24.56v14.062h24.56v-14.062zm-17.533 6.814l-1.517-49.121-14.055.434 1.517 49.121 14.055-.434zm-15.448-50.236l-9.483 49.12 13.807 2.666 9.482-49.121-13.806-2.665zm-2.579 43.422h-24.845v14.062h24.845v-14.062zm-17.949 5.663l-9.673-48.742-13.792 2.737 9.673 48.741 13.792-2.736zm-23.596-47.579l-1.423 48.742 14.056.41 1.422-48.741-14.055-.411zm5.605 41.916h-24.56v14.062h24.56v-14.062zm-17.57 7.782l7.396-68.845-13.98-1.502-7.397 68.845 13.981 1.502zm.406-62.565h32.242v-14.061h-32.242v14.061zm25.327-5.759l8.25 44.853 13.829-2.543-8.25-44.854-13.829 2.544zm22.106 44.697l7.207-44.854-13.883-2.23-7.207 44.853 13.883 2.231zm.265-38.938h33.569v-14.061h-33.569v14.061zm70.91 44.461h-7.031v7.067l7.068-.037-.037-7.03zm52.25-1.044l6.93 1.184 1.48-8.667-8.779.463.369 7.02zm-.853 8.061l-7.024-.319-.003.077-.002.078 7.029.164zM358.796 179v7.031h7.03V179h-7.03zm-73.681 0l-7.025-.29-.302 7.321h7.327V179zm0-68.845v-7.03h-7.327l.302 7.32 7.025-.29zm73.681 0h7.03v-7.03h-7.03v7.03zm0 17.164v7.031h7.03v-7.031h-7.03zm-51.302 0v-7.031h-7.031v7.031h7.031zm0 9.103h-7.031v6.886l6.885.143.146-7.029zm44.664-.474h7.03v-7.283l-7.278.257.248 7.026zm0 16.311l-.248 7.026 7.278.257v-7.283h-7.03zm-44.664-.475l-.146-7.029-6.885.144v6.885h7.031zm.037 16.893c24.034-.126 41.593-.474 52.583-1.053l-.739-14.041c-10.632.559-27.906.907-51.918 1.033l.074 14.061zm45.283-9.257a72.63 72.63 0 00-.947 8.925l14.047.638a58.51 58.51 0 01.76-7.196l-13.86-2.367zm-.952 9.08a466.425 466.425 0 00-.097 10.5h14.061c0-4.143.032-7.529.093-10.173l-14.057-.327zm6.934 3.469h-73.681v14.062h73.681v-14.062zm-66.657 7.321c.509-12.347.765-23.919.765-34.712h-14.061c0 10.574-.251 21.951-.753 34.132l14.049.58zm.765-34.712c0-10.794-.256-22.366-.765-34.713l-14.049.58c.502 12.182.753 23.558.753 34.133h14.061zm-7.789-27.392h73.681v-14.061h-73.681v14.061zm66.65-7.031v17.164h14.061v-17.164h-14.061zm7.031 10.133h-51.302v14.062h51.302v-14.062zm-58.333 7.031v9.103h14.062v-9.103h-14.062zm6.885 16.132c3.109.065 7.657.097 13.612.097v-14.061c-5.931 0-10.36-.032-13.32-.094l-.292 14.058zm13.612.097c10.139 0 20.622-.192 31.446-.574l-.496-14.052c-10.67.377-20.987.565-30.95.565v14.061zm24.167-7.6v16.311h14.061v-16.311h-14.061zm7.279 9.284a892.29 892.29 0 00-31.446-.573v14.061c9.963 0 20.28.188 30.95.565l.496-14.053zm-31.446-.573c-5.955 0-10.503.032-13.612.096l.292 14.059c2.96-.062 7.389-.094 13.32-.094v-14.061zm-20.497 7.125v9.863h14.062v-9.863h-14.062zm146.351-41.629l7.024.291.303-7.321h-7.327v7.03zm0 68.845v7.031h7.327l-.303-7.322-7.024.291zm-22.285 0h-7.03v7.031h7.03V179zm0-25.793h7.031v-7.031h-7.031v7.031zm-34.896 0v-7.031h-7.031v7.031h7.031zm0 25.793v7.031h7.03V179h-7.03zm-22.285 0l-7.025-.29-.301 7.321h7.326V179zm0-68.845v-7.03h-7.326l.301 7.32 7.025-.29zm22.285 0h7.03v-7.03h-7.03v7.03zm0 25.793h-7.031v7.031h7.031v-7.031zm34.896 0v7.031h7.031v-7.031h-7.031zm0-25.793v-7.03h-7.03v7.03h7.03zm15.26-.291c-.447 10.794-.67 22.366-.67 34.714h14.061c0-12.182.22-23.558.658-34.132l-14.049-.582zm-.67 34.714c0 12.347.223 23.919.67 34.713l14.049-.582c-.438-10.574-.658-21.95-.658-34.131h-14.061zm7.695 27.391h-22.285v14.062h22.285v-14.062zM431.56 179v-25.793h-14.061V179h14.061zm-7.031-32.824h-34.896v14.061h34.896v-14.061zm-41.927 7.031V179h14.061v-25.793h-14.061zm7.031 18.762h-22.285v14.062h22.285v-14.062zm-15.26 7.321c.509-12.347.764-23.919.764-34.712h-14.061c0 10.574-.25 21.951-.753 34.132l14.05.58zm.764-34.712c0-10.794-.255-22.366-.764-34.713l-14.05.58c.503 12.182.753 23.558.753 34.133h14.061zm-7.789-27.392h22.285v-14.061h-22.285v14.061zm15.254-7.031v25.793h14.061v-25.793h-14.061zm7.031 32.824h34.896v-14.061h-34.896v14.061zm41.927-7.031v-25.793h-14.061v25.793h14.061zm-7.031-18.762h22.285v-14.061h-22.285v14.061zm121.471.461l-5.225 4.703 5.225-4.703zm0 52.913l-5.202-4.729-.013.015-.013.014 5.228 4.7zm-51.396 2.087l-4.605 5.312.017.015.017.015 4.571-5.342zm-10.336-20.863l6.968-.932-.816-6.098h-6.152v7.03zm-7.681 0v-7.03h-7.031v7.03h7.031zm.189 27.216v7.031h7.142l-.112-7.141-7.03.11zm-22.379 0l-7.03-.067-.068 7.098h7.098V179zm.095-9.957l-7.03-.082v.008l-.001.007 7.031.067zm0-49.31l-7.031.069.001.008v.008l7.03-.085zm-.095-9.578v-7.03h-7.101l.071 7.1 7.03-.07zm22.379 0l7.029.172.175-7.202h-7.204v7.03zm-.189 25.698h-7.031v7.031h7.031v-7.031zm7.775 0v7.031h6.092l.867-6.029-6.959-1.002zm10.337-20.388l4.565 5.347.005-.004-4.57-5.343zm34.517 42.388l5.597 4.255-5.597-4.255zm-.095-27.5l-5.638 4.201.047.062.047.061 5.544-4.324zm-20.009 0l-5.584-4.27-.007.008-.006.008 5.597 4.254zm0 27.5l-5.637 4.201.046.062.048.061 5.543-4.324zm10.052-42.659c11.094 0 17.75 2.866 21.611 7.156l10.451-9.407c-7.518-8.354-18.753-11.81-32.062-11.81v14.061zm21.611 7.156c4.194 4.66 6.729 11.57 6.729 21.659h14.061c0-12.418-3.154-23.083-10.339-31.066l-10.451 9.407zm6.729 21.659c0 10.318-2.555 17.256-6.706 21.822l10.405 9.459c7.228-7.951 10.362-18.715 10.362-31.281h-14.061zm-6.732 21.851c-3.779 4.203-10.411 7.058-21.608 7.058v14.061c13.332 0 24.591-3.404 32.065-11.718l-10.457-9.401zm-21.608 7.058c-9.712 0-16.023-2.22-19.99-5.614l-9.141 10.685c7.413 6.341 17.476 8.99 29.131 8.99v-14.061zm-19.956-5.584c-4.142-3.59-6.95-8.842-7.972-16.482l-13.937 1.865c1.38 10.314 5.463 18.97 12.7 25.242l9.209-10.625zm-14.94-22.58h-7.681v14.061h7.681v-14.061zm-14.712 7.03v7.492h14.061v-7.492h-14.061zm0 7.492c0 5.109.064 11.724.191 19.834l14.059-.22c-.126-8.074-.189-14.608-.189-19.614h-14.061zm7.22 12.693h-22.379v14.062h22.379v-14.062zm-15.349 7.098l.095-9.957-14.061-.134-.094 9.957 14.06.134zm.095-9.942c.126-10.883.19-19.354.19-25.401h-14.061c0 5.965-.063 14.373-.189 25.237l14.06.164zm.19-25.401c0-5.669-.064-13.7-.19-24.077l-14.06.171c.126 10.359.189 18.323.189 23.906h14.061zm-.19-24.061l-.095-9.577-14.06.139.094 9.577 14.061-.139zm-7.125-2.477h22.379v-14.061h-22.379v14.061zm15.351-7.202c-.129 5.277-.192 13.918-.192 25.869h14.061c0-11.945.064-20.436.188-25.526l-14.057-.343zm6.839 32.9h7.775v-14.061h-7.775v14.061zm14.734-6.029c1.072-7.452 3.865-12.561 7.943-16.043l-9.131-10.693c-7.175 6.127-11.273 14.61-12.729 24.733l13.917 2.003zm7.948-16.047c3.974-3.4 10.258-5.614 19.895-5.614v-14.061c-11.604 0-21.63 2.654-29.036 8.99l9.141 10.685zm19.895 48.817c6.286 0 11.795-2.446 15.649-7.517l-11.195-8.509c-.95 1.251-2.142 1.965-4.454 1.965v14.061zm15.649-7.517c3.709-4.88 5.037-11.261 5.037-18.099h-14.061c0 5.3-1.075 8.148-2.171 9.59l11.195 8.509zm5.037-18.099c0-6.785-1.389-13.113-5.185-17.98l-11.088 8.648c1.135 1.455 2.212 4.231 2.212 9.332h14.061zm-5.091-17.856c-3.81-5.114-9.277-7.666-15.595-7.666v14.061c2.154 0 3.325.671 4.319 2.006l11.276-8.401zm-15.595-7.666c-6.314 0-11.774 2.545-15.636 7.596l11.169 8.541c1.069-1.398 2.31-2.076 4.467-2.076v-14.061zm-15.649 7.612c-3.693 4.859-5.037 11.158-5.037 17.91h14.062c0-5.134 1.058-7.938 2.17-9.402l-11.195-8.508zm-5.037 17.91c0 6.808 1.342 13.14 4.997 18.045l11.275-8.401c-1.149-1.543-2.21-4.441-2.21-9.644h-14.062zm5.091 18.168c3.883 4.978 9.335 7.448 15.595 7.448v-14.061c-2.211 0-3.46-.691-4.508-2.035l-11.087 8.648z" fill="#F32E7C" mask="url(#path-2-outside-1_1_24)"/></g><g style="mix-blend-mode:hard-light" filter="url(#filter2_f_1_24)"><mask id="path-4-outside-2_1_24" maskUnits="userSpaceOnUse" x="171" y="98" width="393" height="92" fill="#000"><path fill="#fff" d="M171 98h393v92H171z"/><path d="M270.153 110.155L277.55 179h-24.56l-1.518-49.121L241.99 179h-24.845l-9.673-48.741L206.05 179h-24.56l7.396-68.845h32.242l8.25 44.854 7.206-44.854h33.569zm37.341 51.492c24.023-.127 41.44-.475 52.25-1.044a65.578 65.578 0 00-.853 8.061 455.258 455.258 0 00-.095 10.336h-73.681c.505-12.264.758-23.739.758-34.422 0-10.684-.253-22.159-.758-34.423h73.681v17.164h-51.302v9.103c3.035.064 7.523.095 13.466.095a883.55 883.55 0 0031.198-.569v16.311a883.55 883.55 0 00-31.198-.569c-5.943 0-10.431.031-13.466.094v9.863zm139.32-51.492c-.443 10.684-.664 22.158-.664 34.423 0 12.264.221 23.738.664 34.422h-22.285v-25.793h-34.896V179h-22.285c.506-12.264.759-23.739.759-34.422 0-10.684-.253-22.159-.759-34.423h22.285v25.793h34.896v-25.793h22.285zm72.35-1.991c12.201 0 21.147 3.161 26.836 9.483 5.69 6.321 8.535 15.109 8.535 26.362 0 11.442-2.845 20.293-8.535 26.551-5.626 6.259-14.571 9.388-26.836 9.388-10.684 0-18.871-2.434-24.56-7.301-5.69-4.931-9.135-11.886-10.336-20.863h-7.681v7.492c0 5.057.063 11.632.189 19.724h-22.379l.095-9.957c.126-10.873.189-19.313.189-25.319 0-5.626-.063-13.623-.189-23.991l-.095-9.578h22.379c-.126 5.184-.189 13.75-.189 25.698h7.775c1.265-8.787 4.71-15.583 10.337-20.388 5.689-4.867 13.844-7.301 24.465-7.301zm0 54.431c4.299 0 7.65-1.581 10.052-4.742 2.402-3.16 3.603-7.775 3.603-13.844 0-5.943-1.232-10.495-3.698-13.656-2.402-3.224-5.721-4.836-9.957-4.836-4.235 0-7.586 1.612-10.052 4.836-2.402 3.161-3.603 7.713-3.603 13.656 0 6.005 1.201 10.62 3.603 13.844 2.466 3.161 5.817 4.742 10.052 4.742z"/></mask><path d="M270.153 110.155l9.142-.982-.883-8.212h-8.259v9.194zM277.55 179v9.194h10.234l-1.093-10.176-9.141.982zm-24.56 0l-9.19.284.275 8.91h8.915V179zm-1.518-49.121l9.19-.284-18.217-1.458 9.027 1.742zM241.99 179v9.194h7.588l1.439-7.451L241.99 179zm-24.845 0l-9.018 1.79 1.469 7.404h7.549V179zm-9.673-48.741l9.018-1.79-18.208 1.521 9.19.269zM206.05 179v9.194h8.929l.261-8.926-9.19-.268zm-24.56 0l-9.142-.982-1.093 10.176h10.235V179zm7.396-68.845v-9.194h-8.259l-.882 8.212 9.141.982zm32.242 0l9.042-1.663-1.385-7.531h-7.657v9.194zm8.25 44.854l-9.043 1.663 18.12-.205-9.077-1.458zm7.206-44.854v-9.194h-7.834l-1.243 7.736 9.077 1.458zm24.428.982l7.397 68.845 18.282-1.964-7.396-68.845-18.283 1.964zm16.538 58.669h-24.56v18.388h24.56v-18.388zm-15.371 8.91l-1.517-49.121-18.379.568 1.517 49.121 18.379-.568zm-19.734-50.579l-9.483 49.12 18.055 3.486 9.483-49.121-18.055-3.485zm-.455 41.669h-24.845v18.388h24.845v-18.388zm-15.827 7.404l-9.673-48.741-18.036 3.579 9.673 48.742 18.036-3.58zm-27.881-47.22l-1.422 48.742 18.38.536 1.422-48.741-18.38-.537zm7.768 39.816h-24.56v18.388h24.56v-18.388zm-15.419 10.176l7.396-68.845-18.282-1.964-7.397 68.845 18.283 1.964zm-1.745-60.633h32.242v-18.388h-32.242v18.388zm23.199-7.531l8.25 44.854 18.085-3.327-8.25-44.853-18.085 3.326zm26.37 44.649l7.207-44.853-18.155-2.917-7.207 44.853 18.155 2.917zm-1.871-37.118h33.569v-18.388h-33.569v18.388zm70.91 42.298H298.3v9.242l9.242-.049-.048-9.193zm52.25-1.044l9.063 1.548 1.935-11.333-11.481.604.483 9.181zm-.853 8.061l-9.185-.418-.004.102-.003.102 9.192.214zM358.796 179v9.194h9.194V179h-9.194zm-73.681 0l-9.186-.379-.395 9.573h9.581V179zm0-68.845v-9.194h-9.581l.395 9.573 9.186-.379zm73.681 0h9.194v-9.194h-9.194v9.194zm0 17.164v9.194h9.194v-9.194h-9.194zm-51.302 0v-9.194H298.3v9.194h9.194zm0 9.103H298.3v9.005l9.003.187.191-9.192zm44.664-.474h9.194v-9.524l-9.518.336.324 9.188zm0 16.311l-.324 9.188 9.518.336v-9.524h-9.194zm-44.664-.475l-.191-9.191-9.003.187v9.004h9.194zm.048 19.056c24.038-.126 41.641-.474 52.685-1.055l-.966-18.363c-10.577.557-27.807.904-51.815 1.031l.096 18.387zm43.139-11.784a74.81 74.81 0 00-.975 9.19l18.369.835c.11-2.425.357-4.733.732-6.93l-18.126-3.095zm-.982 9.394a472.23 472.23 0 00-.097 10.55h18.388c0-4.134.031-7.502.092-10.122l-18.383-.428zm9.097 1.356h-73.681v18.388h73.681v-18.388zm-64.495 9.573c.51-12.373.766-23.974.766-34.801h-18.388c0 10.54-.249 21.887-.75 34.043l18.372.758zm.766-34.801c0-10.828-.256-22.429-.766-34.802l-18.372.758c.501 12.156.75 23.503.75 34.044h18.388zm-9.952-25.229h73.681v-18.388h-73.681v18.388zm64.487-9.194v17.164h18.388v-17.164h-18.388zm9.194 7.97h-51.302v18.388h51.302v-18.388zm-60.496 9.194v9.103h18.388v-9.103H298.3zm9.003 18.295c3.132.065 7.698.097 13.657.097v-18.388c-5.927 0-10.338-.031-13.274-.092l-.383 18.383zm13.657.097c10.167 0 20.674-.192 31.522-.575l-.648-18.376a875.457 875.457 0 01-30.874.563v18.388zm22.004-9.763v16.311h18.388v-16.311h-18.388zm9.518 7.122a896.413 896.413 0 00-31.522-.574v18.387c9.936 0 20.227.188 30.874.564l.648-18.377zm-31.522-.574c-5.959 0-10.525.031-13.657.097l.383 18.383c2.936-.061 7.347-.093 13.274-.093v-18.387zm-22.66 9.288v9.863h18.388v-9.863H298.3zm148.514-41.629l9.186.381.396-9.575h-9.582v9.194zm0 68.845v9.194h9.582L456 178.62l-9.186.38zm-22.285 0h-9.194v9.194h9.194V179zm0-25.793h9.194v-9.194h-9.194v9.194zm-34.896 0v-9.194h-9.194v9.194h9.194zm0 25.793v9.194h9.193V179h-9.193zm-22.285 0l-9.186-.379-.395 9.573h9.581V179zm0-68.845v-9.194h-9.581l.395 9.573 9.186-.379zm22.285 0h9.193v-9.194h-9.193v9.194zm0 25.793h-9.194v9.194h9.194v-9.194zm34.896 0v9.194h9.194v-9.194h-9.194zm0-25.793v-9.194h-9.194v9.194h9.194zm13.099-.38c-.449 10.827-.672 22.429-.672 34.803h18.388c0-12.156.219-23.502.656-34.042l-18.372-.761zm-.672 34.803c0 12.373.223 23.975.672 34.802l18.372-.76c-.437-10.541-.656-21.887-.656-34.042h-18.388zm9.858 25.228h-22.285v18.388h22.285v-18.388zM433.723 179v-25.793h-18.388V179h18.388zm-9.194-34.987h-34.896v18.388h34.896v-18.388zm-44.09 9.194V179h18.387v-25.793h-18.387zm9.194 16.599h-22.285v18.388h22.285v-18.388zm-13.099 9.573c.51-12.373.767-23.974.767-34.801h-18.388c0 10.54-.25 21.887-.751 34.043l18.372.758zm.767-34.801c0-10.828-.257-22.429-.767-34.802l-18.372.758c.501 12.156.751 23.503.751 34.044h18.388zm-9.953-25.229h22.285v-18.388h-22.285v18.388zm13.091-9.194v25.793h18.387v-25.793h-18.387zm9.194 34.987h34.896v-18.388h-34.896v18.388zm44.09-9.194v-25.793h-18.388v25.793h18.388zm-9.194-16.599h22.285v-18.388h-22.285v18.388zM546 117.647l-6.833 6.15 6.833-6.15zm0 52.913l-6.802-6.184-.018.019-.017.019L546 170.56zm-51.396 2.087l-6.021 6.947.022.019.022.02 5.977-6.986zm-10.336-20.863l9.112-1.219-1.067-7.974h-8.045v9.193zm-7.681 0v-9.193h-9.194v9.193h9.194zm.189 27.216v9.194h9.339l-.146-9.338-9.193.144zm-22.379 0l-9.194-.088-.088 9.282h9.282V179zm.095-9.957l-9.193-.107-.001.01v.01l9.194.087zm0-49.31l-9.194.091v.01l.001.011 9.193-.112zm-.095-9.578v-9.194h-9.285l.092 9.285 9.193-.091zm22.379 0l9.191.224.23-9.418h-9.421v9.194zm-.189 25.698h-9.194v9.194h9.194v-9.194zm7.775 0v9.194h7.966l1.135-7.884-9.101-1.31zm10.337-20.388l5.97 6.992.007-.006-5.977-6.986zm34.517 42.388l7.32 5.563-7.32-5.563zm-.095-27.5l-7.372 5.494.06.081.063.08 7.249-5.655zm-20.009 0l-7.303-5.584-.008.01-.008.011 7.319 5.563zm0 27.5l-7.372 5.494.061.081.062.08 7.249-5.655zm10.052-40.495c10.753 0 16.705 2.774 20.003 6.439l13.667-12.301c-8.081-8.979-20.02-12.526-33.67-12.526v18.388zm20.003 6.439c3.734 4.15 6.174 10.482 6.174 20.212h18.388c0-12.776-3.25-24.019-10.895-32.513l-13.667 12.301zm6.174 20.212c0 9.973-2.466 16.321-6.143 20.367l13.605 12.369c7.702-8.472 10.926-19.824 10.926-32.736h-18.388zm-6.178 20.405c-3.21 3.571-9.13 6.34-19.999 6.34v18.388c13.66 0 25.631-3.489 33.674-12.435l-13.675-12.293zm-19.999 6.34c-9.414 0-15.146-2.153-18.583-5.093l-11.954 13.972c7.942 6.795 18.583 9.509 30.537 9.509v-18.388zm-18.539-5.055c-3.666-3.177-6.278-7.906-7.245-15.134l-18.225 2.439c1.435 10.726 5.714 19.905 13.428 26.59l12.042-13.895zm-16.357-23.108h-7.681v18.387h7.681v-18.387zm-16.875 9.193v7.492h18.387v-7.492h-18.387zm0 7.492c0 5.125.064 11.752.191 19.868l18.385-.288c-.126-8.068-.189-14.59-.189-19.58h-18.387zm9.383 10.53h-22.379v18.388h22.379v-18.388zm-13.186 9.282l.095-9.957-18.387-.175-.095 9.956 18.387.176zm.095-9.938c.127-10.886.19-19.367.19-25.426h-18.387c0 5.953-.063 14.351-.189 25.212l18.386.214zm.19-25.426c0-5.683-.064-13.724-.19-24.103l-18.386.224c.126 10.356.189 18.309.189 23.879h18.387zm-.19-24.082l-.095-9.578-18.386.182.094 9.578 18.387-.182zm-9.288-.293h22.379v-18.388h-22.379v18.388zm13.188-9.418c-.129 5.306-.192 13.97-.192 25.922h18.387c0-11.944.064-20.412.187-25.474l-18.382-.448zm9.002 35.116h7.775V126.66h-7.775v18.387zm16.876-7.884c1.013-7.04 3.604-11.63 7.206-14.706l-11.941-13.983c-7.651 6.533-11.95 15.535-13.466 26.07l18.201 2.619zm7.213-14.712c3.445-2.948 9.154-5.093 18.488-5.093V98.97c-11.907 0-22.509 2.722-30.442 9.51l11.954 13.971zm18.488 49.338c6.897 0 13.071-2.714 17.372-8.373l-14.64-11.126c-.504.663-1.031 1.111-2.732 1.111v18.388zm17.372-8.373c4.11-5.408 5.477-12.333 5.477-19.407h-18.387c0 5.063-1.036 7.368-1.73 8.281l14.64 11.126zm5.477-19.407c0-7.044-1.437-13.918-5.643-19.31l-14.498 11.309c.725.93 1.754 3.159 1.754 8.001h18.387zm-5.52-19.149c-4.243-5.694-10.371-8.537-17.329-8.537v18.388c1.513 0 2.023.382 2.585 1.136l14.744-10.987zm-17.329-8.537c-6.953 0-13.063 2.834-17.355 8.446l14.607 11.169c.639-.836 1.231-1.227 2.748-1.227v-18.388zm-17.371 8.467c-4.09 5.381-5.478 12.218-5.478 19.219h18.388c0-4.885 1.014-7.152 1.729-8.093l-14.639-11.126zm-5.478 19.219c0 7.055 1.385 13.915 5.425 19.338l14.745-10.987c-.764-1.025-1.782-3.395-1.782-8.351h-18.388zm5.548 19.499c4.319 5.537 10.419 8.281 17.301 8.281v-18.388c-1.589 0-2.19-.417-2.802-1.202l-14.499 11.309z" fill="#FF26C2" mask="url(#path-4-outside-2_1_24)"/></g><g style="mix-blend-mode:hard-light" filter="url(#filter3_ddi_1_24)"><mask id="path-6-outside-3_1_24" maskUnits="userSpaceOnUse" x="173" y="101" width="389" height="86" fill="#000"><path fill="#fff" d="M173 101h389v86H173z"/><path d="M270.153 110.155L277.55 179h-24.56l-1.518-49.121L241.99 179h-24.845l-9.673-48.741L206.05 179h-24.56l7.396-68.845h32.242l8.25 44.854 7.206-44.854h33.569zm37.341 51.492c24.023-.127 41.44-.475 52.25-1.044a65.578 65.578 0 00-.853 8.061 455.258 455.258 0 00-.095 10.336h-73.681c.505-12.264.758-23.739.758-34.422 0-10.684-.253-22.159-.758-34.423h73.681v17.164h-51.302v9.103c3.035.064 7.523.095 13.466.095a883.55 883.55 0 0031.198-.569v16.311a883.55 883.55 0 00-31.198-.569c-5.943 0-10.431.031-13.466.094v9.863zm139.32-51.492c-.443 10.684-.664 22.158-.664 34.423 0 12.264.221 23.738.664 34.422h-22.285v-25.793h-34.896V179h-22.285c.506-12.264.759-23.739.759-34.422 0-10.684-.253-22.159-.759-34.423h22.285v25.793h34.896v-25.793h22.285zm72.35-1.991c12.201 0 21.147 3.161 26.836 9.483 5.69 6.321 8.535 15.109 8.535 26.362 0 11.442-2.845 20.293-8.535 26.551-5.626 6.259-14.571 9.388-26.836 9.388-10.684 0-18.871-2.434-24.56-7.301-5.69-4.931-9.135-11.886-10.336-20.863h-7.681v7.492c0 5.057.063 11.632.189 19.724h-22.379l.095-9.957c.126-10.873.189-19.313.189-25.319 0-5.626-.063-13.623-.189-23.991l-.095-9.578h22.379c-.126 5.184-.189 13.75-.189 25.698h7.775c1.265-8.787 4.71-15.583 10.337-20.388 5.689-4.867 13.844-7.301 24.465-7.301zm0 54.431c4.299 0 7.65-1.581 10.052-4.742 2.402-3.16 3.603-7.775 3.603-13.844 0-5.943-1.232-10.495-3.698-13.656-2.402-3.224-5.721-4.836-9.957-4.836-4.235 0-7.586 1.612-10.052 4.836-2.402 3.161-3.603 7.713-3.603 13.656 0 6.005 1.201 10.62 3.603 13.844 2.466 3.161 5.817 4.742 10.052 4.742z"/></mask><path d="M270.153 110.155l6.991-.751-.675-6.279h-6.316v7.03zM277.55 179v7.031h7.826l-.836-7.782-6.99.751zm-24.56 0l-7.028.217.211 6.814h6.817V179zm-1.518-49.121l7.028-.217-13.931-1.115 6.903 1.332zM241.99 179v7.031h5.803l1.1-5.698L241.99 179zm-24.845 0l-6.896 1.368 1.123 5.663h5.773V179zm-9.673-48.741l6.896-1.369-13.923 1.163 7.027.206zM206.05 179v7.031h6.828l.2-6.826-7.028-.205zm-24.56 0l-6.991-.751-.836 7.782h7.827V179zm7.396-68.845v-7.03h-6.316l-.674 6.279 6.99.751zm32.242 0l6.914-1.272-1.059-5.758h-5.855v7.03zm8.25 44.854l-6.915 1.271 13.856-.156-6.941-1.115zm7.206-44.854v-7.03h-5.991l-.95 5.915 6.941 1.115zm26.579.751l7.397 68.845 13.98-1.502-7.396-68.845-13.981 1.502zm14.387 61.063h-24.56v14.062h24.56v-14.062zm-17.533 6.814l-1.517-49.121-14.055.434 1.517 49.121 14.055-.434zm-15.448-50.236l-9.483 49.12 13.807 2.666 9.482-49.121-13.806-2.665zm-2.579 43.422h-24.845v14.062h24.845v-14.062zm-17.949 5.663l-9.673-48.742-13.792 2.737 9.673 48.741 13.792-2.736zm-23.596-47.579l-1.423 48.742 14.056.41 1.422-48.741-14.055-.411zm5.605 41.916h-24.56v14.062h24.56v-14.062zm-17.57 7.782l7.396-68.845-13.98-1.502-7.397 68.845 13.981 1.502zm.406-62.565h32.242v-14.061h-32.242v14.061zm25.327-5.759l8.25 44.853 13.829-2.543-8.25-44.854-13.829 2.544zm22.106 44.697l7.207-44.854-13.883-2.23-7.207 44.853 13.883 2.231zm.265-38.938h33.569v-14.061h-33.569v14.061zm70.91 44.461h-7.031v7.067l7.068-.037-.037-7.03zm52.25-1.044l6.93 1.184 1.48-8.667-8.779.463.369 7.02zm-.853 8.061l-7.024-.319-.003.077-.002.078 7.029.164zM358.796 179v7.031h7.03V179h-7.03zm-73.681 0l-7.025-.29-.302 7.321h7.327V179zm0-68.845v-7.03h-7.327l.302 7.32 7.025-.29zm73.681 0h7.03v-7.03h-7.03v7.03zm0 17.164v7.031h7.03v-7.031h-7.03zm-51.302 0v-7.031h-7.031v7.031h7.031zm0 9.103h-7.031v6.886l6.885.143.146-7.029zm44.664-.474h7.03v-7.283l-7.278.257.248 7.026zm0 16.311l-.248 7.026 7.278.257v-7.283h-7.03zm-44.664-.475l-.146-7.029-6.885.144v6.885h7.031zm.037 16.893c24.034-.126 41.593-.474 52.583-1.053l-.739-14.041c-10.632.559-27.906.907-51.918 1.033l.074 14.061zm45.283-9.257a72.63 72.63 0 00-.947 8.925l14.047.638a58.51 58.51 0 01.76-7.196l-13.86-2.367zm-.952 9.08a466.425 466.425 0 00-.097 10.5h14.061c0-4.143.032-7.529.093-10.173l-14.057-.327zm6.934 3.469h-73.681v14.062h73.681v-14.062zm-66.657 7.321c.509-12.347.765-23.919.765-34.712h-14.061c0 10.574-.251 21.951-.753 34.132l14.049.58zm.765-34.712c0-10.794-.256-22.366-.765-34.713l-14.049.58c.502 12.182.753 23.558.753 34.133h14.061zm-7.789-27.392h73.681v-14.061h-73.681v14.061zm66.65-7.031v17.164h14.061v-17.164h-14.061zm7.031 10.133h-51.302v14.062h51.302v-14.062zm-58.333 7.031v9.103h14.062v-9.103h-14.062zm6.885 16.132c3.109.065 7.657.097 13.612.097v-14.061c-5.931 0-10.36-.032-13.32-.094l-.292 14.058zm13.612.097c10.139 0 20.622-.192 31.446-.574l-.496-14.052c-10.67.377-20.987.565-30.95.565v14.061zm24.167-7.6v16.311h14.061v-16.311h-14.061zm7.279 9.284a892.29 892.29 0 00-31.446-.573v14.061c9.963 0 20.28.188 30.95.565l.496-14.053zm-31.446-.573c-5.955 0-10.503.032-13.612.096l.292 14.059c2.96-.062 7.389-.094 13.32-.094v-14.061zm-20.497 7.125v9.863h14.062v-9.863h-14.062zm146.351-41.629l7.024.291.303-7.321h-7.327v7.03zm0 68.845v7.031h7.327l-.303-7.322-7.024.291zm-22.285 0h-7.03v7.031h7.03V179zm0-25.793h7.031v-7.031h-7.031v7.031zm-34.896 0v-7.031h-7.031v7.031h7.031zm0 25.793v7.031h7.03V179h-7.03zm-22.285 0l-7.025-.29-.301 7.321h7.326V179zm0-68.845v-7.03h-7.326l.301 7.32 7.025-.29zm22.285 0h7.03v-7.03h-7.03v7.03zm0 25.793h-7.031v7.031h7.031v-7.031zm34.896 0v7.031h7.031v-7.031h-7.031zm0-25.793v-7.03h-7.03v7.03h7.03zm15.26-.291c-.447 10.794-.67 22.366-.67 34.714h14.061c0-12.182.22-23.558.658-34.132l-14.049-.582zm-.67 34.714c0 12.347.223 23.919.67 34.713l14.049-.582c-.438-10.574-.658-21.95-.658-34.131h-14.061zm7.695 27.391h-22.285v14.062h22.285v-14.062zM431.56 179v-25.793h-14.061V179h14.061zm-7.031-32.824h-34.896v14.061h34.896v-14.061zm-41.927 7.031V179h14.061v-25.793h-14.061zm7.031 18.762h-22.285v14.062h22.285v-14.062zm-15.26 7.321c.509-12.347.764-23.919.764-34.712h-14.061c0 10.574-.25 21.951-.753 34.132l14.05.58zm.764-34.712c0-10.794-.255-22.366-.764-34.713l-14.05.58c.503 12.182.753 23.558.753 34.133h14.061zm-7.789-27.392h22.285v-14.061h-22.285v14.061zm15.254-7.031v25.793h14.061v-25.793h-14.061zm7.031 32.824h34.896v-14.061h-34.896v14.061zm41.927-7.031v-25.793h-14.061v25.793h14.061zm-7.031-18.762h22.285v-14.061h-22.285v14.061zm121.471.461l-5.225 4.703 5.225-4.703zm0 52.913l-5.202-4.729-.013.015-.013.014 5.228 4.7zm-51.396 2.087l-4.605 5.312.017.015.017.015 4.571-5.342zm-10.336-20.863l6.968-.932-.816-6.098h-6.152v7.03zm-7.681 0v-7.03h-7.031v7.03h7.031zm.189 27.216v7.031h7.142l-.112-7.141-7.03.11zm-22.379 0l-7.03-.067-.068 7.098h7.098V179zm.095-9.957l-7.03-.082v.008l-.001.007 7.031.067zm0-49.31l-7.031.069.001.008v.008l7.03-.085zm-.095-9.578v-7.03h-7.101l.071 7.1 7.03-.07zm22.379 0l7.029.172.175-7.202h-7.204v7.03zm-.189 25.698h-7.031v7.031h7.031v-7.031zm7.775 0v7.031h6.092l.867-6.029-6.959-1.002zm10.337-20.388l4.565 5.347.005-.004-4.57-5.343zm34.517 42.388l5.597 4.255-5.597-4.255zm-.095-27.5l-5.638 4.201.047.062.047.061 5.544-4.324zm-20.009 0l-5.584-4.27-.007.008-.006.008 5.597 4.254zm0 27.5l-5.637 4.201.046.062.048.061 5.543-4.324zm10.052-42.659c11.094 0 17.75 2.866 21.611 7.156l10.451-9.407c-7.518-8.354-18.753-11.81-32.062-11.81v14.061zm21.611 7.156c4.194 4.66 6.729 11.57 6.729 21.659h14.061c0-12.418-3.154-23.083-10.339-31.066l-10.451 9.407zm6.729 21.659c0 10.318-2.555 17.256-6.706 21.822l10.405 9.459c7.228-7.951 10.362-18.715 10.362-31.281h-14.061zm-6.732 21.851c-3.779 4.203-10.411 7.058-21.608 7.058v14.061c13.332 0 24.591-3.404 32.065-11.718l-10.457-9.401zm-21.608 7.058c-9.712 0-16.023-2.22-19.99-5.614l-9.141 10.685c7.413 6.341 17.476 8.99 29.131 8.99v-14.061zm-19.956-5.584c-4.142-3.59-6.95-8.842-7.972-16.482l-13.937 1.865c1.38 10.314 5.463 18.97 12.7 25.242l9.209-10.625zm-14.94-22.58h-7.681v14.061h7.681v-14.061zm-14.712 7.03v7.492h14.061v-7.492h-14.061zm0 7.492c0 5.109.064 11.724.191 19.834l14.059-.22c-.126-8.074-.189-14.608-.189-19.614h-14.061zm7.22 12.693h-22.379v14.062h22.379v-14.062zm-15.349 7.098l.095-9.957-14.061-.134-.094 9.957 14.06.134zm.095-9.942c.126-10.883.19-19.354.19-25.401h-14.061c0 5.965-.063 14.373-.189 25.237l14.06.164zm.19-25.401c0-5.669-.064-13.7-.19-24.077l-14.06.171c.126 10.359.189 18.323.189 23.906h14.061zm-.19-24.061l-.095-9.577-14.06.139.094 9.577 14.061-.139zm-7.125-2.477h22.379v-14.061h-22.379v14.061zm15.351-7.202c-.129 5.277-.192 13.918-.192 25.869h14.061c0-11.945.064-20.436.188-25.526l-14.057-.343zm6.839 32.9h7.775v-14.061h-7.775v14.061zm14.734-6.029c1.072-7.452 3.865-12.561 7.943-16.043l-9.131-10.693c-7.175 6.127-11.273 14.61-12.729 24.733l13.917 2.003zm7.948-16.047c3.974-3.4 10.258-5.614 19.895-5.614v-14.061c-11.604 0-21.63 2.654-29.036 8.99l9.141 10.685zm19.895 48.817c6.286 0 11.795-2.446 15.649-7.517l-11.195-8.509c-.95 1.251-2.142 1.965-4.454 1.965v14.061zm15.649-7.517c3.709-4.88 5.037-11.261 5.037-18.099h-14.061c0 5.3-1.075 8.148-2.171 9.59l11.195 8.509zm5.037-18.099c0-6.785-1.389-13.113-5.185-17.98l-11.088 8.648c1.135 1.455 2.212 4.231 2.212 9.332h14.061zm-5.091-17.856c-3.81-5.114-9.277-7.666-15.595-7.666v14.061c2.154 0 3.325.671 4.319 2.006l11.276-8.401zm-15.595-7.666c-6.314 0-11.774 2.545-15.636 7.596l11.169 8.541c1.069-1.398 2.31-2.076 4.467-2.076v-14.061zm-15.649 7.612c-3.693 4.859-5.037 11.158-5.037 17.91h14.062c0-5.134 1.058-7.938 2.17-9.402l-11.195-8.508zm-5.037 17.91c0 6.808 1.342 13.14 4.997 18.045l11.275-8.401c-1.149-1.543-2.21-4.441-2.21-9.644h-14.062zm5.091 18.168c3.883 4.978 9.335 7.448 15.595 7.448v-14.061c-2.211 0-3.46-.691-4.508-2.035l-11.087 8.648z" fill="#FB37FF" fill-opacity=".2" mask="url(#path-6-outside-3_1_24)"/></g><g filter="url(#filter4_f_1_24)"><mask id="path-8-outside-4_1_24" maskUnits="userSpaceOnUse" x="176" y="103" width="383" height="82" fill="#000"><path fill="#fff" d="M176 103h383v82H176z"/><path d="M270.153 110.155L277.55 179h-24.56l-1.518-49.121L241.99 179h-24.845l-9.673-48.741L206.05 179h-24.56l7.396-68.845h32.242l8.25 44.854 7.206-44.854h33.569zm37.341 51.492c24.023-.127 41.44-.475 52.25-1.044a65.578 65.578 0 00-.853 8.061 455.258 455.258 0 00-.095 10.336h-73.681c.505-12.264.758-23.739.758-34.422 0-10.684-.253-22.159-.758-34.423h73.681v17.164h-51.302v9.103c3.035.064 7.523.095 13.466.095a883.55 883.55 0 0031.198-.569v16.311a883.55 883.55 0 00-31.198-.569c-5.943 0-10.431.031-13.466.094v9.863zm139.32-51.492c-.443 10.684-.664 22.158-.664 34.423 0 12.264.221 23.738.664 34.422h-22.285v-25.793h-34.896V179h-22.285c.506-12.264.759-23.739.759-34.422 0-10.684-.253-22.159-.759-34.423h22.285v25.793h34.896v-25.793h22.285zm72.35-1.991c12.201 0 21.147 3.161 26.836 9.483 5.69 6.321 8.535 15.109 8.535 26.362 0 11.442-2.845 20.293-8.535 26.551-5.626 6.259-14.571 9.388-26.836 9.388-10.684 0-18.871-2.434-24.56-7.301-5.69-4.931-9.135-11.886-10.336-20.863h-7.681v7.492c0 5.057.063 11.632.189 19.724h-22.379l.095-9.957c.126-10.873.189-19.313.189-25.319 0-5.626-.063-13.623-.189-23.991l-.095-9.578h22.379c-.126 5.184-.189 13.75-.189 25.698h7.775c1.265-8.787 4.71-15.583 10.337-20.388 5.689-4.867 13.844-7.301 24.465-7.301zm0 54.431c4.299 0 7.65-1.581 10.052-4.742 2.402-3.16 3.603-7.775 3.603-13.844 0-5.943-1.232-10.495-3.698-13.656-2.402-3.224-5.721-4.836-9.957-4.836-4.235 0-7.586 1.612-10.052 4.836-2.402 3.161-3.603 7.713-3.603 13.656 0 6.005 1.201 10.62 3.603 13.844 2.466 3.161 5.817 4.742 10.052 4.742z"/></mask><path d="M270.153 110.155l4.302-.462-.415-3.864h-3.887v4.326zM277.55 179v4.327h4.816l-.514-4.789-4.302.462zm-24.56 0l-4.325.134.13 4.193h4.195V179zm-1.518-49.121l4.325-.133-8.573-.687 4.248.82zM241.99 179v4.327h3.571l.677-3.507-4.248-.82zm-24.845 0l-4.244.842.691 3.485h3.553V179zm-9.673-48.741l4.244-.843-8.568.716 4.324.127zM206.05 179v4.327h4.202l.123-4.201-4.325-.126zm-24.56 0l-4.302-.462-.515 4.789h4.817V179zm7.396-68.845v-4.326H185l-.416 3.864 4.302.462zm32.242 0l4.255-.783-.652-3.543h-3.603v4.326zm8.25 44.854l-4.256.782 8.527-.096-4.271-.686zm7.206-44.854v-4.326h-3.686l-.585 3.64 4.271.686zm29.268.462l7.396 68.845 8.604-.924-7.397-68.845-8.603.924zm11.698 64.056h-24.56v8.654h24.56v-8.654zm-20.236 4.193l-1.517-49.12-8.649.267 1.517 49.121 8.649-.268zm-10.09-49.807l-9.482 49.121 8.496 1.64 9.482-49.121-8.496-1.64zm-5.234 45.614h-24.845v8.654h24.845v-8.654zm-20.601 3.485l-9.673-48.742-8.487 1.685 9.672 48.741 8.488-1.684zm-18.241-48.026l-1.423 48.742 8.65.252 1.422-48.741-8.649-.253zm2.902 44.541h-24.56v8.654h24.56v-8.654zm-20.259 4.789l7.397-68.845-8.604-.924-7.396 68.845 8.603.924zm3.095-64.98h32.242v-8.653h-32.242v8.653zm27.986-3.544l8.25 44.853 8.511-1.565-8.25-44.854-8.511 1.566zm16.777 44.757l7.207-44.854-8.543-1.372-7.207 44.853 8.543 1.373zm2.935-41.213h33.569v-8.653h-33.569v8.653zm70.91 47.165h-4.326v4.349l4.349-.023-.023-4.326zm52.25-1.044l4.265.729.91-5.333-5.402.284.227 4.32zm-.853 8.061l-4.322-.197-.003.048-.001.048 4.326.101zM358.796 179v4.327h4.326V179h-4.326zm-73.681 0l-4.323-.178-.186 4.505h4.509V179zm0-68.845v-4.326h-4.509l.186 4.504 4.323-.178zm73.681 0h4.326v-4.326h-4.326v4.326zm0 17.164v4.326h4.326v-4.326h-4.326zm-51.302 0v-4.327h-4.326v4.327h4.326zm0 9.103h-4.326v4.238l4.236.088.09-4.326zm44.664-.474h4.326v-4.482l-4.479.158.153 4.324zm0 16.311l-.153 4.323 4.479.159v-4.482h-4.326zm-44.664-.475l-.09-4.325-4.236.088v4.237h4.326zm.023 14.189c24.03-.126 41.534-.474 52.454-1.049l-.454-8.641c-10.701.563-28.029.911-52.046 1.037l.046 8.653zm47.962-6.098a69.931 69.931 0 00-.91 8.592l8.644.393a61.02 61.02 0 01.796-7.528l-8.53-1.457zm-.914 8.688a466.048 466.048 0 00-.096 10.437h8.653c0-4.155.032-7.563.094-10.236l-8.651-.201zm4.231 6.11h-73.681v8.654h73.681v-8.654zm-69.358 4.505c.507-12.315.762-23.849.762-34.6h-8.653c0 10.616-.251 22.03-.755 34.244l8.646.356zm.762-34.6c0-10.752-.255-22.286-.762-34.601l-8.646.356c.504 12.214.755 23.628.755 34.245h8.653zm-5.085-30.096h73.681v-8.653h-73.681v8.653zm69.354-4.327v17.164h8.653v-17.164h-8.653zm4.327 12.837h-51.302v8.653h51.302v-8.653zm-55.628 4.327v9.103h8.653v-9.103h-8.653zm4.236 13.429c3.081.064 7.606.096 13.556.096v-8.653c-5.936 0-10.388-.032-13.376-.094l-.18 8.651zm13.556.096c10.106 0 20.556-.191 31.35-.572l-.305-8.648c-10.7.378-21.048.567-31.045.567v8.653zm26.871-4.896v16.311h8.653v-16.311h-8.653zm4.479 11.987a889.425 889.425 0 00-31.35-.572v8.653c9.997 0 20.345.189 31.045.566l.305-8.647zm-31.35-.572c-5.95 0-10.475.032-13.556.096l.18 8.651c2.988-.062 7.44-.094 13.376-.094v-8.653zm-17.792 4.421v9.863h8.653v-9.863h-8.653zm143.646-41.629l4.322.179.187-4.505h-4.509v4.326zm0 68.845v4.327h4.509l-.187-4.506-4.322.179zm-22.285 0h-4.326v4.327h4.326V179zm0-25.793h4.327v-4.327h-4.327v4.327zm-34.896 0v-4.327h-4.327v4.327h4.327zm0 25.793v4.327h4.326V179h-4.326zm-22.285 0l-4.323-.178-.186 4.505h4.509V179zm0-68.845v-4.326h-4.509l.186 4.504 4.323-.178zm22.285 0h4.326v-4.326h-4.326v4.326zm0 25.793h-4.327v4.327h4.327v-4.327zm34.896 0v4.327h4.327v-4.327h-4.327zm0-25.793v-4.326h-4.326v4.326h4.326zm17.962-.179c-.445 10.752-.668 22.286-.668 34.602h8.653c0-12.214.221-23.627.66-34.244l-8.645-.358zm-.668 34.602c0 12.315.223 23.85.668 34.601l8.645-.358c-.439-10.616-.66-22.03-.66-34.243h-8.653zm4.991 30.095h-22.285v8.654h22.285v-8.654zM428.856 179v-25.793h-8.653V179h8.653zm-4.327-30.12h-34.896v8.653h34.896v-8.653zm-39.223 4.327V179h8.653v-25.793h-8.653zm4.327 21.466h-22.285v8.654h22.285v-8.654zm-17.962 4.505c.508-12.315.762-23.849.762-34.6h-8.653c0 10.616-.251 22.03-.755 34.244l8.646.356zm.762-34.6c0-10.752-.254-22.286-.762-34.601l-8.646.356c.504 12.214.755 23.628.755 34.245h8.653zm-5.085-30.096h22.285v-8.653h-22.285v8.653zm17.958-4.327v25.793h8.653v-25.793h-8.653zm4.327 30.12h34.896v-8.653h-34.896v8.653zm39.223-4.327v-25.793h-8.653v25.793h8.653zm-4.327-21.466h22.285v-8.653h-22.285v8.653zM546 117.647l-3.215 2.894 3.215-2.894zm0 52.913l-3.201-2.91-.008.009-.008.009L546 170.56zm-51.396 2.087l-2.834 3.269.011.009.01.009 2.813-3.287zm-10.336-20.863l4.288-.573-.502-3.753h-3.786v4.326zm-7.681 0v-4.326h-4.327v4.326h4.327zm.189 27.216v4.327h4.395l-.069-4.395-4.326.068zm-22.379 0l-4.326-.041-.042 4.368h4.368V179zm.095-9.957l-4.327-.05v.009l4.327.041zm0-49.31l-4.327.043.001.009 4.326-.052zm-.095-9.578v-4.326h-4.37l.044 4.369 4.326-.043zm22.379 0l4.325.106.109-4.432h-4.434v4.326zm-.189 25.698h-4.327v4.327h4.327v-4.327zm7.775 0v4.327h3.749l.534-3.71-4.283-.617zm10.337-20.388l2.809 3.291.003-.003-2.812-3.288zm34.517 42.388l3.445 2.618-3.445-2.618zm-.095-27.5l-3.469 2.585.028.039.03.037 3.411-2.661zm-20.009 0l-3.436-2.628-.008.011 3.444 2.617zm0 27.5l-3.469 2.585.029.039.029.037 3.411-2.661zm10.052-45.363c11.52 0 19.056 2.979 23.621 8.051l6.431-5.789c-6.815-7.572-17.169-10.915-30.052-10.915v8.653zm23.621 8.051c4.769 5.299 7.423 12.931 7.423 23.468h8.653c0-11.97-3.035-21.913-9.645-29.257l-6.431 5.789zm7.423 23.468c0 10.751-2.666 18.424-7.409 23.641l6.403 5.821c6.636-7.3 9.659-17.328 9.659-29.462h-8.653zm-7.425 23.659c-4.489 4.994-12.011 7.954-23.619 7.954v8.653c12.921 0 23.29-3.299 30.054-10.822l-6.435-5.785zm-23.619 7.954c-10.086 0-17.118-2.302-21.748-6.263l-5.625 6.575c6.75 5.775 16.092 8.341 27.373 8.341v-8.653zm-21.727-6.245c-4.737-4.106-7.79-10.012-8.881-18.166l-8.577 1.147c1.312 9.8 5.149 17.802 11.791 23.558l5.667-6.539zm-13.169-21.919h-7.681v8.653h7.681v-8.653zm-12.008 4.326v7.492h8.653v-7.492h-8.653zm0 7.492c0 5.089.064 11.689.19 19.792l8.652-.136c-.126-8.081-.189-14.63-.189-19.656h-8.653zm4.516 15.397h-22.379v8.654h22.379v-8.654zm-18.053 4.368l.095-9.957-8.653-.082-.094 9.957 8.652.082zm.095-9.948c.126-10.879.19-19.338.19-25.369h-8.653c0 5.981-.063 14.401-.189 25.269l8.652.1zm.19-25.369c0-5.653-.064-13.671-.19-24.044l-8.652.105c.126 10.363.189 18.339.189 23.939h8.653zm-.19-24.034l-.095-9.578-8.652.086.094 9.578 8.653-.086zm-4.421-5.208h22.379v-8.653h-22.379v8.653zm18.054-4.432c-.128 5.241-.191 13.853-.191 25.803h8.653c0-11.946.063-20.466.188-25.592l-8.65-.211zm4.136 30.13h7.775v-8.653h-7.775v8.653zm12.058-3.71c1.146-7.966 4.19-13.723 8.863-17.714l-5.619-6.581c-6.579 5.619-10.426 13.453-11.809 23.062l8.565 1.233zm8.866-17.717c4.634-3.964 11.638-6.263 21.653-6.263v-8.653c-11.226 0-20.532 2.57-27.278 8.341l5.625 6.575zm21.653 48.168c5.522 0 10.201-2.113 13.497-6.45l-6.89-5.235c-1.509 1.985-3.531 3.032-6.607 3.032v8.653zm13.497-6.45c3.206-4.218 4.485-9.92 4.485-16.462h-8.653c0 5.595-1.123 9.123-2.722 11.227l6.89 5.235zm4.485-16.462c0-6.461-1.329-12.106-4.613-16.317l-6.823 5.322c1.646 2.111 2.783 5.57 2.783 10.995h8.653zm-4.556-16.241c-3.268-4.386-7.909-6.577-13.426-6.577v8.653c2.955 0 4.952 1.033 6.488 3.094l6.938-5.17zm-13.426-6.577c-5.515 0-10.163 2.186-13.488 6.534l6.873 5.257c1.606-2.101 3.659-3.138 6.615-3.138v-8.653zm-13.496 6.545c-3.196 4.205-4.486 9.832-4.486 16.273h8.654c0-5.445 1.113-8.921 2.721-11.038l-6.889-5.235zm-4.486 16.273c0 6.499 1.288 12.171 4.461 16.429l6.939-5.17c-1.632-2.189-2.746-5.748-2.746-11.259h-8.654zm4.519 16.505c3.338 4.279 7.982 6.407 13.463 6.407v-8.653c-2.99 0-5.047-1.033-6.64-3.076l-6.823 5.322z" fill="#FB37FF" mask="url(#path-8-outside-4_1_24)"/></g><g filter="url(#filter5_f_1_24)"><mask id="path-10-outside-5_1_24" maskUnits="userSpaceOnUse" x="178" y="105" width="379" height="78" fill="#000"><path fill="#fff" d="M178 105h379v78H178z"/><path d="M270.153 110.155L277.55 179h-24.56l-1.518-49.121L241.99 179h-24.845l-9.673-48.741L206.05 179h-24.56l7.396-68.845h32.242l8.25 44.854 7.206-44.854h33.569zm37.341 51.492c24.023-.127 41.44-.475 52.25-1.044a65.578 65.578 0 00-.853 8.061 455.258 455.258 0 00-.095 10.336h-73.681c.505-12.264.758-23.739.758-34.422 0-10.684-.253-22.159-.758-34.423h73.681v17.164h-51.302v9.103c3.035.064 7.523.095 13.466.095a883.55 883.55 0 0031.198-.569v16.311a883.55 883.55 0 00-31.198-.569c-5.943 0-10.431.031-13.466.094v9.863zm139.32-51.492c-.443 10.684-.664 22.158-.664 34.423 0 12.264.221 23.738.664 34.422h-22.285v-25.793h-34.896V179h-22.285c.506-12.264.759-23.739.759-34.422 0-10.684-.253-22.159-.759-34.423h22.285v25.793h34.896v-25.793h22.285zm72.35-1.991c12.201 0 21.147 3.161 26.836 9.483 5.69 6.321 8.535 15.109 8.535 26.362 0 11.442-2.845 20.293-8.535 26.551-5.626 6.259-14.571 9.388-26.836 9.388-10.684 0-18.871-2.434-24.56-7.301-5.69-4.931-9.135-11.886-10.336-20.863h-7.681v7.492c0 5.057.063 11.632.189 19.724h-22.379l.095-9.957c.126-10.873.189-19.313.189-25.319 0-5.626-.063-13.623-.189-23.991l-.095-9.578h22.379c-.126 5.184-.189 13.75-.189 25.698h7.775c1.265-8.787 4.71-15.583 10.337-20.388 5.689-4.867 13.844-7.301 24.465-7.301zm0 54.431c4.299 0 7.65-1.581 10.052-4.742 2.402-3.16 3.603-7.775 3.603-13.844 0-5.943-1.232-10.495-3.698-13.656-2.402-3.224-5.721-4.836-9.957-4.836-4.235 0-7.586 1.612-10.052 4.836-2.402 3.161-3.603 7.713-3.603 13.656 0 6.005 1.201 10.62 3.603 13.844 2.466 3.161 5.817 4.742 10.052 4.742z"/></mask><path d="M270.153 110.155l2.358-.253-.228-2.118h-2.13v2.371zM277.55 179v2.371h2.639l-.282-2.624-2.357.253zm-24.56 0l-2.37.073.071 2.298h2.299V179zm-1.518-49.121l2.37-.073-4.697-.376 2.327.449zM241.99 179v2.371h1.956l.371-1.922-2.327-.449zm-24.845 0l-2.326.461.379 1.91h1.947V179zm-9.673-48.741l2.326-.462-4.695.392 2.369.07zM206.05 179v2.371h2.302l.068-2.302-2.37-.069zm-24.56 0l-2.358-.253-.281 2.624h2.639V179zm7.396-68.845v-2.371h-2.13l-.227 2.118 2.357.253zm32.242 0l2.331-.429-.357-1.942h-1.974v2.371zm8.25 44.854l-2.332.428 4.672-.052-2.34-.376zm7.206-44.854v-2.371h-2.02l-.32 1.995 2.34.376zm31.212.253l7.397 68.845 4.714-.506-7.396-68.845-4.715.506zm9.754 66.221h-24.56v4.742h24.56v-4.742zm-22.191 2.298l-1.517-49.121-4.739.146 1.517 49.121 4.739-.146zm-6.214-49.497l-9.483 49.121 4.655.898 9.483-49.12-4.655-.899zm-7.155 47.199h-24.845v4.742h24.845v-4.742zm-22.52 1.91l-9.672-48.742-4.651.923 9.672 48.741 4.651-.922zm-14.367-48.35l-1.423 48.742 4.74.138 1.422-48.741-4.739-.139zm.947 46.44h-24.56v4.742h24.56v-4.742zm-22.203 2.624l7.396-68.845-4.714-.506-7.397 68.845 4.715.506zm5.039-66.727h32.242v-4.742h-32.242v4.742zm29.91-1.942l8.25 44.853 4.663-.857-8.25-44.854-4.663.858zm12.922 44.801l7.207-44.854-4.681-.752-7.207 44.854 4.681.752zm4.866-42.859h33.569v-4.742h-33.569v4.742zm70.91 49.121h-2.371v2.383l2.383-.013-.012-2.37zm52.25-1.044l2.337.399.499-2.922-2.961.156.125 2.367zm-.853 8.061l-2.369-.108-.001.026v.027l2.37.055zM358.796 179v2.371h2.37V179h-2.37zm-73.681 0l-2.369-.098-.102 2.469h2.471V179zm0-68.845v-2.371h-2.471l.102 2.469 2.369-.098zm73.681 0h2.37v-2.371h-2.37v2.371zm0 17.164v2.371h2.37v-2.371h-2.37zm-51.302 0v-2.371h-2.371v2.371h2.371zm0 9.103h-2.371v2.322l2.322.049.049-2.371zm44.664-.474h2.371v-2.456l-2.455.087.084 2.369zm0 16.311l-.084 2.369 2.455.086v-2.455h-2.371zm-44.664-.475l-.049-2.37-2.322.049v2.321h2.371zm.012 12.233c24.027-.126 41.492-.474 52.363-1.046l-.25-4.735c-10.75.566-28.118.913-52.137 1.04l.024 4.741zm49.901-3.813a68.005 68.005 0 00-.885 8.352l4.737.215c.122-2.689.397-5.278.822-7.769l-4.674-.798zm-.886 8.405a460.69 460.69 0 00-.096 10.391h4.741c0-4.163.032-7.588.095-10.281l-4.74-.11zm2.275 8.02h-73.681v4.742h73.681v-4.742zm-71.313 2.469c.507-12.293.761-23.8.761-34.52h-4.741c0 10.647-.252 22.088-.757 34.324l4.737.196zm.761-34.52c0-10.721-.254-22.228-.761-34.521l-4.737.196c.505 12.236.757 23.678.757 34.325h4.741zm-3.129-32.052h73.681v-4.742h-73.681v4.742zm71.31-2.371v17.164h4.741v-17.164h-4.741zm2.371 14.793h-51.302v4.742h51.302v-4.742zm-53.673 2.371v9.103h4.742v-9.103h-4.742zm2.322 11.474c3.06.063 7.568.095 13.515.095v-4.741c-5.939 0-10.408-.032-13.417-.095l-.098 4.741zm13.515.095a885.7 885.7 0 0031.281-.571l-.167-4.738a883.767 883.767 0 01-31.114.568v4.741zm28.827-2.94v16.311h4.742v-16.311h-4.742zm2.454 13.941c-10.773-.38-21.2-.57-31.281-.57v4.741c10.022 0 20.393.189 31.114.568l.167-4.739zm-31.281-.57c-5.947 0-10.455.032-13.515.095l.098 4.741c3.009-.063 7.478-.095 13.417-.095v-4.741zm-15.837 2.465v9.863h4.742v-9.863h-4.742zm141.691-41.629l2.368.098.103-2.469h-2.471v2.371zm0 68.845v2.371h2.471l-.103-2.469-2.368.098zm-22.285 0h-2.371v2.371h2.371V179zm0-25.793h2.371v-2.371h-2.371v2.371zm-34.896 0v-2.371h-2.371v2.371h2.371zm0 25.793v2.371h2.37V179h-2.37zm-22.285 0l-2.369-.098-.101 2.469h2.47V179zm0-68.845v-2.371h-2.47l.101 2.469 2.369-.098zm22.285 0h2.37v-2.371h-2.37v2.371zm0 25.793h-2.371v2.371h2.371v-2.371zm34.896 0v2.371h2.371v-2.371h-2.371zm0-25.793v-2.371h-2.371v2.371h2.371zm19.916-.098c-.444 10.721-.666 22.228-.666 34.521h4.742c0-12.237.22-23.678.661-34.325l-4.737-.196zm-.666 34.521c0 12.292.222 23.799.666 34.52l4.737-.196c-.441-10.647-.661-22.088-.661-34.324h-4.742zm3.035 32.051h-22.285v4.742h22.285v-4.742zM426.9 179v-25.793h-4.742V179h4.742zm-2.371-28.164h-34.896v4.742h34.896v-4.742zm-37.267 2.371V179h4.741v-25.793h-4.741zm2.371 23.422h-22.285v4.742h22.285v-4.742zm-19.916 2.469c.507-12.293.76-23.8.76-34.52h-4.741c0 10.647-.252 22.088-.757 34.324l4.738.196zm.76-34.52c0-10.721-.253-22.228-.76-34.521l-4.738.196c.505 12.236.757 23.678.757 34.325h4.741zm-3.129-32.052h22.285v-4.742h-22.285v4.742zm19.914-2.371v25.793h4.741v-25.793h-4.741zm2.371 28.164h34.896v-4.741h-34.896v4.741zm37.267-2.371v-25.793h-4.742v25.793h4.742zm-2.371-23.422h22.285v-4.742h-22.285v4.742zM546 117.647l-1.762 1.585 1.762-1.585zm0 52.913l-1.754-1.594-.009.009L546 170.56zm-51.396 2.087l-1.553 1.791.006.005.006.005 1.541-1.801zm-10.336-20.863l2.349-.314-.275-2.056h-2.074v2.37zm-7.681 0v-2.37h-2.371v2.37h2.371zm.189 27.216v2.371h2.408l-.037-2.408-2.371.037zm-22.379 0l-2.371-.023-.022 2.394h2.393V179zm.095-9.957l-2.371-.027v.005l2.371.022zm0-49.31l-2.371.023v.006l2.371-.029zm-.095-9.578v-2.371h-2.394l.023 2.395 2.371-.024zm22.379 0l2.37.058.059-2.429h-2.429v2.371zm-.189 25.698h-2.371v2.371h2.371v-2.371zm7.775 0v2.371h2.054l.293-2.033-2.347-.338zm10.337-20.388l1.539 1.803.002-.001-1.541-1.802zm34.517 42.388l1.887 1.435-1.887-1.435zm-.095-27.5l-1.901 1.417.016.021.016.02 1.869-1.458zm-20.009 0l-1.883-1.44-.004.006 1.887 1.434zm0 27.5l-1.901 1.417.016.021.016.02 1.869-1.458zm10.052-47.319c11.828 0 20.001 3.062 25.074 8.698l3.525-3.171c-6.307-7.007-16.024-10.268-28.599-10.268v4.741zm25.074 8.698c5.186 5.762 7.926 13.916 7.926 24.777h4.742c0-11.646-2.95-21.066-9.143-27.948l-3.525 3.171zm7.926 24.777c0 11.063-2.747 19.269-7.918 24.957l3.509 3.189c6.208-6.829 9.151-16.325 9.151-28.146h-4.742zm-7.927 24.966c-5.003 5.566-13.168 8.603-25.073 8.603v4.741c12.624 0 22.35-3.222 28.599-10.174l-3.526-3.17zm-25.073 8.603c-10.356 0-17.91-2.362-23.019-6.733l-3.082 3.603c6.27 5.365 15.09 7.871 26.101 7.871v-4.741zm-23.008-6.723c-5.167-4.479-8.398-10.859-9.539-19.385l-4.699.629c1.261 9.428 4.922 16.956 11.133 22.339l3.105-3.583zm-11.888-21.441h-7.681v4.741h7.681v-4.741zm-10.052 2.37v7.492h4.741v-7.492h-4.741zm0 7.492c0 5.075.063 11.663.19 19.761l4.741-.074c-.127-8.086-.19-14.647-.19-19.687h-4.741zm2.56 17.353h-22.379v4.742h22.379v-4.742zm-20.009 2.394l.095-9.957-4.741-.045-.095 9.956 4.741.046zm.095-9.952c.127-10.877.19-19.327.19-25.347h-4.741c0 5.992-.063 14.421-.19 25.292l4.741.055zm.19-25.347c0-5.641-.063-13.649-.19-24.02l-4.741.058c.127 10.364.19 18.35.19 23.962h4.741zm-.19-24.015l-.095-9.577-4.741.047.095 9.577 4.741-.047zm-2.465-7.183h22.379v-4.742h-22.379v4.742zm20.009-2.429c-.127 5.216-.19 13.807-.19 25.756h4.741c0-11.947.064-20.488.189-25.64l-4.74-.116zm2.181 28.127h7.775v-4.741h-7.775v4.741zm10.122-2.033c1.2-8.337 4.425-14.564 9.529-18.923l-3.079-3.605c-6.148 5.25-9.814 12.615-11.143 21.853l4.693.675zm9.531-18.924c5.111-4.373 12.635-6.733 22.924-6.733v-4.741c-10.952 0-19.738 2.508-26.007 7.871l3.083 3.603zm22.924 47.699c4.969 0 9.048-1.873 11.939-5.678l-3.775-2.869c-1.912 2.517-4.535 3.805-8.164 3.805v4.742zm11.939-5.678c2.843-3.741 4.087-8.951 4.087-15.279h-4.741c0 5.809-1.159 9.829-3.121 12.41l3.775 2.869zm4.087-15.279c0-6.227-1.285-11.377-4.2-15.114l-3.738 2.916c2.017 2.586 3.197 6.539 3.197 12.198h4.741zm-4.168-15.072c-2.877-3.861-6.92-5.79-11.858-5.79v4.741c3.534 0 6.128 1.295 8.056 3.882l3.802-2.833zm-11.858-5.79c-4.936 0-8.998 1.926-11.935 5.766l3.767 2.88c1.994-2.608 4.633-3.905 8.168-3.905v-4.741zm-11.939 5.772c-2.837 3.733-4.087 8.874-4.087 15.09h4.742c0-5.67 1.153-9.633 3.12-12.221l-3.775-2.869zm-4.087 15.09c0 6.276 1.249 11.47 4.073 15.261l3.802-2.833c-1.979-2.657-3.133-6.693-3.133-12.428h-4.742zm4.105 15.302c2.944 3.774 7.003 5.655 11.921 5.655v-4.742c-3.553 0-6.195-1.28-8.182-3.829l-3.739 2.916z" fill="#fff" mask="url(#path-10-outside-5_1_24)"/></g><defs><filter id="filter0_f_1_24" x="106.551" y="29.551" width="522.915" height="229.898" filterUnits="userSpaceOnUse" color-interpolation-filters="sRGB"><feFlood flood-opacity="0" result="BackgroundImageFix"/><feBlend in="SourceGraphic" in2="BackgroundImageFix" result="shape"/><feGaussianBlur stdDeviation="16.224" result="effect1_foregroundBlur_1_24"/></filter><filter id="filter1_f_1_24" x="149.041" y="75.715" width="437.943" height="136.682" filterUnits="userSpaceOnUse" color-interpolation-filters="sRGB"><feFlood flood-opacity="0" result="BackgroundImageFix"/><feBlend in="SourceGraphic" in2="BackgroundImageFix" result="shape"/><feGaussianBlur stdDeviation="16.224" result="effect1_foregroundBlur_1_24"/></filter><filter id="filter2_f_1_24" x="170.673" y="97.347" width="394.678" height="93.417" filterUnits="userSpaceOnUse" color-interpolation-filters="sRGB"><feFlood flood-opacity="0" result="BackgroundImageFix"/><feBlend in="SourceGraphic" in2="BackgroundImageFix" result="shape"/><feGaussianBlur stdDeviation="5.408" result="effect1_foregroundBlur_1_24"/></filter><filter id="filter3_ddi_1_24" x="167.428" y="104.919" width="401.168" height="99.907" filterUnits="userSpaceOnUse" color-interpolation-filters="sRGB"><feFlood flood-opacity="0" result="BackgroundImageFix"/><feColorMatrix in="SourceAlpha" values="0 0 0 0 0 0 0 0 0 0 0 0 0 0 0 0 0 0 127 0" result="hardAlpha"/><feOffset dy="7.031"/><feGaussianBlur stdDeviation="2.704"/><feColorMatrix values="0 0 0 0 0.3 0 0 0 0 0 0 0 0 0 0.26 0 0 0 0.7 0"/><feBlend mode="multiply" in2="BackgroundImageFix" result="effect1_dropShadow_1_24"/><feColorMatrix in="SourceAlpha" values="0 0 0 0 0 0 0 0 0 0 0 0 0 0 0 0 0 0 127 0" result="hardAlpha"/><feOffset dy="10.816"/><feGaussianBlur stdDeviation="7.031"/><feColorMatrix values="0 0 0 0 0.6 0 0 0 0 0 0 0 0 0 0.6 0 0 0 1 0"/><feBlend mode="color-dodge" in2="effect1_dropShadow_1_24" result="effect2_dropShadow_1_24"/><feBlend in="SourceGraphic" in2="effect2_dropShadow_1_24" result="shape"/><feColorMatrix in="SourceAlpha" values="0 0 0 0 0 0 0 0 0 0 0 0 0 0 0 0 0 0 127 0" result="hardAlpha"/><feOffset dx="-.703" dy="1.406"/><feGaussianBlur stdDeviation=".352"/><feComposite in2="hardAlpha" operator="arithmetic" k2="-1" k3="1"/><feColorMatrix values="0 0 0 0 1 0 0 0 0 1 0 0 0 0 1 0 0 0 0.5 0"/><feBlend in2="shape" result="effect3_innerShadow_1_24"/></filter><filter id="filter4_f_1_24" x="180.408" y="107.082" width="375.209" height="73.948" filterUnits="userSpaceOnUse" color-interpolation-filters="sRGB"><feFlood flood-opacity="0" result="BackgroundImageFix"/><feBlend in="SourceGraphic" in2="BackgroundImageFix" result="shape"/><feGaussianBlur stdDeviation=".541" result="effect1_foregroundBlur_1_24"/></filter><filter id="filter5_f_1_24" x="180.768" y="107.443" width="374.488" height="73.227" filterUnits="userSpaceOnUse" color-interpolation-filters="sRGB"><feFlood flood-opacity="0" result="BackgroundImageFix"/><feBlend in="SourceGraphic" in2="BackgroundImageFix" result="shape"/><feGaussianBlur stdDeviation=".361" result="effect1_foregroundBlur_1_24"/></filter></defs></svg>