<svg width="51" height="50" viewBox="0 0 51 50" fill="none" xmlns="http://www.w3.org/2000/svg">
<path d="M8.88287 30.5759C8.32033 31.1009 8.7409 32.1278 9.51416 32.1001H17.512C17.7488 32.1001 17.9759 32.006 18.1434 31.8386C18.3109 31.6711 18.4049 31.444 18.4049 31.2072C18.4049 30.9704 18.3109 30.7432 18.1434 30.5758C17.9759 30.4083 17.7488 30.3143 17.512 30.3143H11.6723L16.3735 25.6184C20.247 21.5199 14.4493 15.732 10.3437 19.593L8.88287 21.0511C8.06139 21.8816 9.31326 23.1352 10.1446 22.3146L11.6054 20.8565C12.9447 19.4278 15.5592 20.2654 15.8057 22.2101C15.8706 22.5971 15.8415 22.994 15.7207 23.3673C15.5999 23.7406 15.3911 24.0793 15.1119 24.3549L8.88287 30.5759Z" fill="#C4A370"/>
<path d="M24.0478 32.1001C24.2846 32.1001 24.5117 32.006 24.6792 31.8385C24.8466 31.6711 24.9407 31.444 24.9407 31.2072V27.3828L25.4166 27.3783C25.5339 27.3778 25.6499 27.3542 25.758 27.3088C25.8662 27.2635 25.9643 27.1972 26.0468 27.114C26.1294 27.0307 26.1947 26.9319 26.2391 26.8234C26.2835 26.7149 26.3061 26.5987 26.3055 26.4814C26.305 26.3641 26.2814 26.2481 26.236 26.14C26.1907 26.0319 26.1244 25.9337 26.0412 25.8512C25.9579 25.7686 25.8591 25.7033 25.7506 25.6589C25.6421 25.6145 25.5259 25.592 25.4086 25.5925C25.4104 25.5907 24.9416 25.5987 24.9407 25.597V18.509C24.9675 17.6536 23.7585 17.2839 23.3049 18.0134L17.934 26.0515C17.5268 26.6229 17.9938 27.4533 18.684 27.4399L23.1549 27.3998V31.2081C23.1549 31.4449 23.2489 31.672 23.4164 31.8394C23.5839 32.0069 23.811 32.1001 24.0478 32.1001ZM20.3574 25.638L23.1549 21.452V25.613L20.3574 25.638ZM35.8968 31.2072C35.9147 32.3769 37.6621 32.3858 37.6826 31.2072V26.9247C37.6826 25.3916 39.9096 21.2351 41.3132 18.9751C41.6891 18.4108 41.2346 17.5893 40.5551 17.6107H34.2011C33.0287 17.6321 33.0261 19.376 34.2011 19.3966H38.9836C37.8264 21.4056 35.8968 25.0371 35.8968 26.9247V31.2072ZM31.401 15.4097L26.481 34.1556C26.2024 35.2869 27.8847 35.7467 28.2088 34.6092L33.1287 15.8633C33.4082 14.7311 31.7215 14.2739 31.401 15.4097Z" fill="#C4A370"/>
<path d="M49.1765 24.1165H46.1629C44.9807 24.1388 44.9976 25.8845 46.1629 25.9023H48.2612C48.0425 31.6313 45.7379 36.8334 42.0823 40.7721L40.6054 39.297C40.4377 39.1297 40.2104 39.0358 39.9736 39.0361C39.7367 39.0363 39.5097 39.1307 39.3423 39.2983C39.175 39.466 39.0812 39.6932 39.0814 39.9301C39.0817 40.167 39.176 40.394 39.3437 40.5613L40.8197 42.0347C36.7536 45.8062 31.4697 47.9945 25.9276 48.202V45.359C25.9276 45.1222 25.8335 44.8951 25.6661 44.7276C25.4986 44.5601 25.2715 44.4661 25.0347 44.4661C24.7979 44.4661 24.5708 44.5601 24.4033 44.7276C24.2359 44.8951 24.1418 45.1222 24.1418 45.359V48.2029C18.5995 47.9949 13.3156 45.806 9.24972 42.0338L10.7257 40.5605C11.5534 39.722 10.2873 38.4817 9.46313 39.297L7.98624 40.7721C4.33154 36.8334 2.02692 31.6313 1.80816 25.9023H3.90651C4.14333 25.9023 4.37044 25.8083 4.5379 25.6408C4.70535 25.4734 4.79943 25.2462 4.79943 25.0094C4.79943 24.7726 4.70535 24.5455 4.5379 24.378C4.37044 24.2106 4.14333 24.1165 3.90651 24.1165H1.80816C2.02692 18.3876 4.33154 13.1854 7.98714 9.24677L9.46402 10.7219C9.63169 10.8892 9.85895 10.983 10.0958 10.9828C10.3327 10.9825 10.5597 10.8882 10.7271 10.7205C10.8944 10.5529 10.9882 10.3256 10.988 10.0887C10.9877 9.85187 10.8934 9.62481 10.7257 9.4575L9.24972 7.98419C13.3158 4.21264 18.5997 2.02439 24.1418 1.81681V3.90981C24.1418 4.14662 24.2359 4.37374 24.4033 4.5412C24.5708 4.70865 24.7979 4.80273 25.0347 4.80273C25.2715 4.80273 25.4986 4.70865 25.6661 4.5412C25.8335 4.37374 25.9276 4.14662 25.9276 3.90981V1.81503C31.0392 1.99626 35.9455 3.87147 39.875 7.14574L36.848 7.2761C36.7297 7.27949 36.6133 7.30634 36.5055 7.3551C36.3978 7.40386 36.3007 7.47355 36.2201 7.56012C36.1395 7.6467 36.0769 7.74843 36.0359 7.85941C35.9949 7.97039 35.9764 8.08841 35.9814 8.20661C35.9865 8.3248 36.0149 8.44082 36.0652 8.54792C36.1154 8.65502 36.1865 8.75107 36.2741 8.83048C36.3618 8.9099 36.4644 8.9711 36.576 9.01052C36.6875 9.04995 36.8058 9.06682 36.9239 9.06015L42.0849 8.83871C42.2006 8.83832 42.3152 8.81589 42.4225 8.77263C42.6034 8.71342 42.7598 8.59622 42.8675 8.43917C42.9752 8.28212 43.0281 8.09397 43.018 7.90382L42.7859 2.67133C42.7055 1.51144 40.9759 1.5668 41.0018 2.7517L41.1402 5.87869C24.9668 -7.74097 0.0312521 3.8223 0 25.0094C0.1009 47.3707 27.1893 58.2973 42.7743 42.6329C47.2799 38.1094 50.0694 31.8786 50.0694 25.0094C50.0694 24.7726 49.9753 24.5455 49.8079 24.378C49.6404 24.2106 49.4133 24.1165 49.1765 24.1165Z" fill="#C4A370"/>
</svg>
