<svg width="150" height="150" viewBox="0 0 150 150" fill="none" xmlns="http://www.w3.org/2000/svg">
<g clip-path="url(#clip0_1265_354)">
<mask id="mask0_1265_354" style="mask-type:luminance" maskUnits="userSpaceOnUse" x="0" y="0" width="150" height="150">
<path d="M150 0H0V150H150V0Z" fill="white"/>
<path d="M150 74.9999C150 116.421 116.422 150 75.0003 150C33.579 150 0.000488281 116.421 0.000488281 74.9999C0.000488281 33.5786 33.579 7.62939e-05 75.0003 7.62939e-05C116.422 7.62939e-05 150 33.5786 150 74.9999Z" fill="white"/>
<path d="M48.2539 84.2238V90.9908H24.7635V85.6462L36.0562 75.0864C38.47 72.8449 38.8148 71.4656 38.8148 70.2158C38.8148 68.2761 37.5216 67.1124 34.9356 67.1124C32.7375 67.1124 30.7547 68.1038 29.5476 70.0433L23.2119 66.5089C25.4962 62.7162 29.7633 60.2163 35.7114 60.2163C42.6506 60.2163 47.4351 63.7937 47.4351 69.3967C47.4351 72.3279 46.6162 75 42.3058 78.9653L36.6164 84.2238H48.2539Z" fill="black"/>
<path d="M79.849 85.215H75.3666V90.9905H67.0478V85.215H51.1001V79.6547L64.634 60.8192H73.47L61.1858 78.448H67.3065V73.319H75.3666V78.448H79.849V85.215Z" fill="black"/>
<path d="M94.5481 54.6989H101.832L87.6086 95.3008H80.3242L94.5481 54.6989Z" fill="black"/>
<path d="M126.788 60.8194V66.164L116.143 90.9907H106.832L117.005 67.5864H109.074V72.2414H101.79V60.8194H126.788Z" fill="black"/>
</mask>
<g mask="url(#mask0_1265_354)">
<mask id="mask1_1265_354" style="mask-type:luminance" maskUnits="userSpaceOnUse" x="0" y="0" width="150" height="150">
<path d="M0 0.000442505H150V150H0V0.000442505Z" fill="white"/>
</mask>
<g mask="url(#mask1_1265_354)">
<path d="M150 75.0002C150 116.421 116.421 150 74.9998 150C33.5785 150 0 116.421 0 75.0002C0 33.579 33.5785 0.000442505 74.9998 0.000442505C116.421 0.000442505 150 33.579 150 75.0002Z" fill="#C4A370"/>
<path d="M48.2534 84.2241V90.991H24.763V85.6464L36.0557 75.0867C38.4695 72.8452 38.8143 71.4659 38.8143 70.2161C38.8143 68.2763 37.5211 67.1127 34.9351 67.1127C32.737 67.1127 30.7542 68.1041 29.5471 70.0435L23.2114 66.5092C25.4957 62.7164 29.7628 60.2165 35.7109 60.2165C42.6501 60.2165 47.4346 63.7939 47.4346 69.397C47.4346 72.3281 46.6158 75.0003 42.3053 78.9656L36.6159 84.2241H48.2534Z" fill="white"/>
<path d="M79.849 85.2155H75.3666V90.991H67.0478V85.2155H51.1001V79.6552L64.634 60.8197H73.47L61.1858 78.4485H67.3065V73.3195H75.3666V78.4485H79.849V85.2155Z" fill="white"/>
<path d="M94.5476 54.6993H101.832L87.6081 95.3011H80.3237L94.5476 54.6993Z" fill="white"/>
<path d="M126.788 60.8197V66.1643L116.142 90.991H106.832L117.004 67.5867H109.073V72.2417H101.789V60.8197H126.788Z" fill="white"/>
</g>
</g>
</g>
<defs>
<clipPath id="clip0_1265_354">
<rect width="150" height="150" fill="white"/>
</clipPath>
</defs>
</svg>
