<svg width="50" height="50" viewBox="0 0 50 50" fill="none" xmlns="http://www.w3.org/2000/svg">
<g clip-path="url(#clip0_1225_318)">
<path d="M39.5645 9.1936V5.24196C39.5645 5.03235 39.4813 4.83133 39.3331 4.68312C39.1848 4.53491 38.9838 4.45165 38.7742 4.45165H28.5" stroke="white" stroke-width="1.23237" stroke-miterlimit="10" stroke-linecap="round" stroke-linejoin="round"/>
<path d="M7.16113 25.7903V45.5484C7.16113 45.758 7.2444 45.959 7.39261 46.1072C7.54082 46.2554 7.74184 46.3387 7.95144 46.3387H31.7968C32.216 46.3387 32.6181 46.1722 32.9144 45.8758L39.1013 39.6891C39.3978 39.3926 39.5644 38.9906 39.5644 38.5713V12.355" stroke="white" stroke-width="1.23237" stroke-miterlimit="10" stroke-linecap="round" stroke-linejoin="round"/>
<path d="M32.4512 45.8942V40.0161C32.4512 39.8065 32.5344 39.6055 32.6826 39.4573C32.8309 39.3091 33.0319 39.2258 33.2415 39.2258H39.1443" stroke="white" stroke-width="1.23237" stroke-miterlimit="10" stroke-linecap="round" stroke-linejoin="round"/>
<path d="M12.6931 9.98381V8.40319C12.6931 7.53026 13.4008 6.82257 14.2737 6.82257C15.1466 6.82257 15.8543 7.53026 15.8543 8.40319V11.5644C15.8543 13.3104 14.4389 14.7258 12.6931 14.7258C10.9471 14.7258 9.53174 13.3104 9.53174 11.5645V3.66124C9.53174 1.91538 10.9471 0.499995 12.6931 0.499995C14.4389 0.499995 15.8543 1.91538 15.8543 3.66124" stroke="white" stroke-width="1.23237" stroke-miterlimit="10" stroke-linecap="round" stroke-linejoin="round"/>
<path d="M12.6934 3.66134H27.7099C27.9195 3.66134 28.1205 3.7446 28.2687 3.89282C28.4169 4.04103 28.5002 4.24205 28.5002 4.45165V25.0001C28.5002 25.2097 28.4169 25.4107 28.2687 25.5589C28.1205 25.7071 27.9195 25.7904 27.7099 25.7904H7.1614C6.9518 25.7904 6.75078 25.7071 6.60257 25.5589C6.45436 25.4107 6.37109 25.2097 6.37109 25.0001V4.45165C6.37109 4.24205 6.45436 4.04103 6.60257 3.89282C6.75078 3.7446 6.9518 3.66134 7.1614 3.66134H9.53253" stroke="white" stroke-width="1.23237" stroke-miterlimit="10" stroke-linecap="round" stroke-linejoin="round"/>
<path d="M10.3228 46.3389V48.7097C10.3228 48.9193 10.406 49.1203 10.5542 49.2685C10.7024 49.4167 10.9035 49.5 11.1131 49.5H41.9357C42.1453 49.5 42.3464 49.4167 42.4946 49.2685C42.6428 49.1203 42.726 48.9193 42.726 48.7097V8.4033C42.7261 8.29951 42.7056 8.19673 42.6659 8.10083C42.6262 8.00494 42.568 7.9178 42.4946 7.8444C42.4212 7.77101 42.3341 7.71278 42.2382 7.67306C42.1423 7.63334 42.0395 7.61289 41.9357 7.61289H39.5651" stroke="white" stroke-width="1.23237" stroke-miterlimit="10" stroke-linecap="round" stroke-linejoin="round"/>
<path d="M19.8062 10.7742H23.7578" stroke="white" stroke-width="1.23237" stroke-miterlimit="10" stroke-linecap="round" stroke-linejoin="round"/>
<path d="M19.8062 14.7258H23.7578" stroke="white" stroke-width="1.23237" stroke-miterlimit="10" stroke-linecap="round" stroke-linejoin="round"/>
<path d="M11.1128 18.6774H23.7579" stroke="white" stroke-width="1.23237" stroke-miterlimit="10" stroke-linecap="round" stroke-linejoin="round"/>
<path d="M33.2417 18.6774H34.8223" stroke="white" stroke-width="1.23237" stroke-miterlimit="10" stroke-linecap="round" stroke-linejoin="round"/>
<path d="M33.2417 10.7742H34.8223" stroke="white" stroke-width="1.23237" stroke-miterlimit="10" stroke-linecap="round" stroke-linejoin="round"/>
<path d="M33.2417 14.7258H34.8223" stroke="white" stroke-width="1.23237" stroke-miterlimit="10" stroke-linecap="round" stroke-linejoin="round"/>
<path d="M33.2417 22.6291H34.8223" stroke="white" stroke-width="1.23237" stroke-miterlimit="10" stroke-linecap="round" stroke-linejoin="round"/>
<path d="M11.9033 29.7419H13.484" stroke="white" stroke-width="1.23237" stroke-miterlimit="10" stroke-linecap="round" stroke-linejoin="round"/>
<path d="M11.9033 37.6451H13.484" stroke="white" stroke-width="1.23237" stroke-miterlimit="10" stroke-linecap="round" stroke-linejoin="round"/>
<path d="M11.9033 33.6935H13.484" stroke="white" stroke-width="1.23237" stroke-miterlimit="10" stroke-linecap="round" stroke-linejoin="round"/>
<path d="M17.4355 29.7419H34.8226" stroke="white" stroke-width="1.23237" stroke-miterlimit="10" stroke-linecap="round" stroke-linejoin="round"/>
<path d="M17.4355 37.6451H28.5001" stroke="white" stroke-width="1.23237" stroke-miterlimit="10" stroke-linecap="round" stroke-linejoin="round"/>
<path d="M17.4355 33.6935H34.8226" stroke="white" stroke-width="1.23237" stroke-miterlimit="10" stroke-linecap="round" stroke-linejoin="round"/>
</g>
<defs>
<clipPath id="clip0_1225_318">
<rect width="50" height="50" fill="white"/>
</clipPath>
</defs>
</svg>
