<svg width="43" height="50" viewBox="0 0 43 50" fill="none" xmlns="http://www.w3.org/2000/svg">
<path d="M19.8848 28.8365C21.2288 28.8365 22.3222 27.743 22.3222 26.399C22.3222 25.055 21.2288 23.9615 19.8848 23.9615C18.5407 23.9615 17.4473 25.055 17.4473 26.399C17.4473 27.743 18.5407 28.8365 19.8848 28.8365ZM19.8848 25.4263C20.4211 25.4263 20.8574 25.8627 20.8574 26.399C20.8574 26.9353 20.4211 27.3716 19.8848 27.3716C19.3484 27.3716 18.9121 26.9353 18.9121 26.399C18.9121 25.8627 19.3484 25.4263 19.8848 25.4263ZM25.6495 31.0253C24.3054 31.0253 23.212 32.1188 23.212 33.4628C23.212 34.8069 24.3054 35.9003 25.6495 35.9003C26.9935 35.9003 28.087 34.8069 28.087 33.4628C28.087 32.1188 26.9935 31.0253 25.6495 31.0253ZM25.6495 34.4355C25.1132 34.4355 24.6768 33.9992 24.6768 33.4628C24.6768 32.9265 25.1132 32.4902 25.6495 32.4902C26.1858 32.4902 26.6221 32.9265 26.6221 33.4628C26.6221 33.9992 26.1858 34.4355 25.6495 34.4355ZM27.1452 24.1086C27.0683 24.0507 26.9808 24.0086 26.8877 23.9846C26.7945 23.9606 26.6976 23.9552 26.6023 23.9686C26.5071 23.9821 26.4154 24.0142 26.3326 24.0631C26.2498 24.1121 26.1774 24.1768 26.1196 24.2537L18.2438 34.7277C18.1308 34.8831 18.0834 35.0768 18.1119 35.2669C18.1404 35.457 18.2425 35.6283 18.3961 35.7438C18.5497 35.8593 18.7426 35.9099 18.9331 35.8845C19.1236 35.8591 19.2965 35.7598 19.4145 35.6081L27.2903 25.1342C27.3481 25.0573 27.3902 24.9698 27.4142 24.8766C27.4382 24.7835 27.4436 24.6865 27.4301 24.5913C27.4167 24.4961 27.3846 24.4044 27.3357 24.3216C27.2868 24.2388 27.222 24.1664 27.1452 24.1086Z" fill="#C4A370"/>
<path d="M36.0863 36.7294H31.0908L31.2598 36.1014L33.9037 34.3805C34.3972 34.0592 34.6026 33.4269 34.3921 32.8772L33.2646 29.9309L34.3921 26.9849C34.6025 26.435 34.3971 25.8028 33.9037 25.4814L31.2599 23.7606L30.4402 20.7143C30.2872 20.1459 29.7487 19.7561 29.1614 19.7852L26.011 19.947L23.5573 17.9643C23.0993 17.5942 22.4346 17.5944 21.9767 17.9643L19.5231 19.947L16.3726 19.7852C15.7845 19.7569 15.2469 20.1457 15.0938 20.7144L14.2742 23.7606L11.6302 25.4814C11.1369 25.8026 10.9314 26.4349 11.1419 26.9848L12.2693 29.9309L11.1419 32.8771C10.9314 33.427 11.1368 34.0592 11.6302 34.3806L14.2741 36.1014L14.443 36.7294H9.44754C8.76551 36.7294 8.21063 37.2842 8.21063 37.9663V48.7631C8.21063 49.4451 8.76551 50 9.44754 50H36.0863C36.7683 50 37.3233 49.4451 37.3233 48.7631V37.9663C37.3233 37.2841 36.7683 36.7294 36.0863 36.7294ZM15.668 35.6441C15.5877 35.3448 15.3995 35.0859 15.1397 34.917L12.5698 33.2443L13.6657 30.3805C13.7766 30.0912 13.7766 29.771 13.6657 29.4816L12.5697 26.6178L15.1396 24.9451C15.3994 24.7762 15.5876 24.5172 15.6679 24.2179L16.4646 21.2569L19.5267 21.4142C19.8368 21.4308 20.1406 21.3315 20.3818 21.1364L22.7668 19.2092L25.1517 21.1363C25.3925 21.3314 25.6971 21.4304 26.0067 21.4142L29.0689 21.2569L29.8657 24.218C29.9461 24.5172 30.1343 24.7762 30.394 24.9451L32.9639 26.6178L31.8681 29.4815C31.7571 29.7709 31.7571 30.0911 31.8681 30.3805L32.964 33.2443L30.3941 34.917C30.1343 35.0859 29.9462 35.3449 29.8658 35.6442L29.5738 36.7293H15.96L15.668 35.6441ZM19.4939 48.5351H9.67547V38.1942H19.4939V48.5351ZM35.8585 48.5351H26.04V45.3124C26.04 44.9078 25.712 44.58 25.3075 44.58C24.903 44.58 24.5751 44.9078 24.5751 45.3124V48.5351H20.9587V38.1942H24.5751V41.8945C24.5751 42.2991 24.903 42.6269 25.3075 42.6269C25.712 42.6269 26.04 42.2991 26.04 41.8945V38.1941H35.8585V48.5351ZM3.99346 23.1798C4.15696 23.224 4.32759 23.2354 4.49551 23.2133C4.66342 23.1912 4.8253 23.136 4.97178 23.051L9.05916 20.6911C9.22601 20.5933 9.3474 20.4335 9.39684 20.2465C9.44627 20.0595 9.41974 19.8606 9.32304 19.6931C9.22633 19.5256 9.0673 19.4031 8.88065 19.3525C8.694 19.3018 8.49488 19.327 8.32674 19.4226L4.39141 21.6947L1.5296 16.7378L9.87215 11.9213L12.734 16.8781L11.2868 17.7136C11.1199 17.8114 10.9986 17.9713 10.9491 18.1582C10.8997 18.3452 10.9262 18.5442 11.0229 18.7117C11.1196 18.8792 11.2787 19.0016 11.4653 19.0523C11.652 19.103 11.8511 19.0778 12.0192 18.9822L28.909 9.23093C29.5245 8.87536 29.7362 8.08543 29.3809 7.46971L26.3435 2.20879C25.988 1.59326 25.1981 1.38174 24.5822 1.73692L22.8591 2.73174L21.969 1.18995C21.7706 0.844565 21.4883 0.554761 21.1483 0.34731C20.8083 0.13986 20.4215 0.021455 20.0236 0.0030368C19.6258 -0.0171173 19.2293 0.0632939 18.8708 0.236843C18.5123 0.410393 18.2033 0.671484 17.9724 0.996002L17.5583 1.5753C17.4454 1.73332 17.3998 1.92975 17.4317 2.12137C17.4636 2.31299 17.5702 2.48411 17.7283 2.59707C17.8863 2.71003 18.0827 2.75559 18.2743 2.72372C18.466 2.69186 18.6371 2.58518 18.75 2.42715L19.1641 1.84785C19.3485 1.58994 19.635 1.45118 19.9526 1.46621C20.2693 1.48155 20.5419 1.64785 20.7004 1.92246L21.5906 3.46425L15.4921 6.98514L16.7607 5.21034C16.8737 5.05231 16.9192 4.85588 16.8873 4.66426C16.8555 4.47264 16.7488 4.30153 16.5908 4.18857C16.4327 4.0756 16.2363 4.03004 16.0447 4.06191C15.8531 4.09378 15.682 4.20046 15.569 4.35849L14.3261 6.09735C13.3683 5.59071 12.1787 5.57108 11.1731 6.15174C10.1676 6.73231 9.58963 7.77234 9.54949 8.85515L3.3085 9.46218C2.91196 9.4999 2.53133 9.63695 2.20176 9.86067C1.87218 10.0844 1.6043 10.3875 1.42287 10.7422C1.2399 11.0959 1.14905 11.4902 1.15871 11.8883C1.16837 12.2865 1.27823 12.6759 1.47814 13.0204L2.36827 14.5621L0.64533 15.5568C0.498368 15.6411 0.369592 15.7537 0.266465 15.8881C0.163337 16.0225 0.0879094 16.176 0.044551 16.3398C0.000267044 16.5033 -0.0111507 16.674 0.0109591 16.8419C0.0330689 17.0098 0.0882673 17.1717 0.173359 17.3182L3.21075 22.579C3.295 22.7259 3.40756 22.8547 3.54191 22.9578C3.67627 23.061 3.82975 23.1364 3.99346 23.1798ZM14.0025 16.1455L11.1407 11.1887L15.5515 8.64216L18.4133 13.599L15.7371 15.1441L14.0025 16.1455ZM25.1626 3.09316L28.0244 8.05007L19.6819 12.8667L16.8201 7.90984L25.1626 3.09316ZM11.9055 7.42029C12.6492 6.991 13.5759 7.15818 14.1293 7.77195L11.0981 9.52194C10.8433 8.73591 11.1618 7.84969 11.9055 7.42029ZM2.74669 12.2879C2.5881 12.0133 2.58038 11.6941 2.7254 11.4122C2.87042 11.1301 3.13468 10.9507 3.4503 10.9201L9.73523 10.3088L3.63682 13.8296L2.74669 12.2879ZM28.3966 10.9744C28.2631 11.0323 28.1449 11.1206 28.0513 11.2321C27.9578 11.3437 27.8915 11.4755 27.8577 11.6171L26.525 17.2505C26.4777 17.4461 26.4953 17.6517 26.575 17.8364C26.6547 18.0211 26.7923 18.175 26.967 18.2747C27.1093 18.3573 27.2709 18.401 27.4355 18.4012C27.6735 18.4009 27.9024 18.3093 28.0749 18.1453L32.2872 14.1747C32.3929 14.0746 32.4739 13.9514 32.5238 13.8146C32.5736 13.6779 32.591 13.5314 32.5744 13.3868C32.5572 13.2422 32.5067 13.1036 32.4267 12.9819C32.3467 12.8602 32.2395 12.7588 32.1136 12.6857L29.234 11.0233C29.1078 10.9507 28.9664 10.9085 28.8211 10.9C28.6757 10.8915 28.5304 10.917 28.3966 10.9744ZM28.3579 15.8656L29.119 12.6482L30.7637 13.5978L28.3579 15.8656Z" fill="#C4A370"/>
<path d="M41.9873 27.519C41.8704 27.4323 41.7348 27.374 41.5914 27.3488C41.4481 27.3236 41.3008 27.3321 41.1613 27.3737L35.6162 29.0361C35.2179 29.1556 34.9504 29.5151 34.9504 29.931C34.9504 30.3468 35.2179 30.7064 35.6162 30.8258L41.1613 32.4884C41.3008 32.5299 41.448 32.5384 41.5914 32.5132C41.7348 32.4879 41.8703 32.4297 41.9872 32.343C42.1038 32.2558 42.1985 32.1427 42.2639 32.0126C42.3292 31.8825 42.3634 31.739 42.3637 31.5935V28.2683C42.3634 28.1227 42.3292 27.9793 42.2639 27.8492C42.1986 27.7192 42.1039 27.6061 41.9873 27.519ZM40.899 30.8806L37.732 29.931L40.899 28.9815V30.8806ZM4.37265 27.3737C4.23312 27.3321 4.08585 27.3237 3.94248 27.3489C3.79911 27.3741 3.66357 27.4323 3.54658 27.519C3.43 27.6061 3.33529 27.7192 3.26996 27.8493C3.20462 27.9794 3.17044 28.1229 3.17011 28.2685V31.5937C3.17044 31.7392 3.20462 31.8827 3.26996 32.0128C3.33529 32.1429 3.43 32.256 3.54658 32.3432C3.66355 32.4298 3.79908 32.4881 3.94246 32.5133C4.08583 32.5386 4.23312 32.5301 4.37265 32.4886L9.91774 30.826C10.316 30.7065 10.5836 30.347 10.5836 29.9312C10.5836 29.5153 10.316 29.1558 9.91774 29.0363L4.37265 27.3737ZM4.63495 30.8806V28.9816L7.80193 29.9311L4.63495 30.8806ZM32.6193 21.8357L34.174 23.3905C34.2607 23.4772 34.3636 23.546 34.477 23.5928C34.5903 23.6397 34.7118 23.6637 34.8344 23.6634C35.0736 23.6634 35.3129 23.5724 35.4951 23.3903L37.0495 21.8359C37.1365 21.7493 37.2056 21.6464 37.2526 21.5329C37.2996 21.4195 37.3236 21.2979 37.3233 21.1751C37.3236 21.0524 37.2996 20.9308 37.2526 20.8174C37.2057 20.704 37.1367 20.601 37.0497 20.5144L35.4953 18.9601C35.4087 18.873 35.3058 18.804 35.1924 18.757C35.0789 18.71 34.9573 18.6859 34.8345 18.6863C34.7118 18.6859 34.5901 18.71 34.4767 18.757C34.3633 18.804 34.2603 18.873 34.1738 18.9601L32.6193 20.5146C32.5323 20.6012 32.4634 20.7041 32.4164 20.8175C32.3695 20.9309 32.3454 21.0524 32.3458 21.1751C32.3454 21.2979 32.3693 21.4195 32.4163 21.5328C32.4633 21.6462 32.5323 21.7492 32.6193 21.8357ZM34.8344 20.371L35.6386 21.1751L34.8344 21.9792L34.0302 21.1751L34.8344 20.371ZM5.73075 34.682C5.36649 34.3179 4.77392 34.318 4.40976 34.6821L2.85537 36.2366C2.67881 36.4131 2.58154 36.6476 2.58154 36.8973C2.58154 37.147 2.67881 37.3816 2.85517 37.558L4.40947 39.1122C4.496 39.1993 4.59899 39.2684 4.71245 39.3155C4.82591 39.3625 4.94758 39.3866 5.0704 39.3862C5.19314 39.3866 5.31474 39.3625 5.42814 39.3156C5.54154 39.2686 5.64449 39.1996 5.73104 39.1126L7.28543 37.5581C7.46199 37.3816 7.55926 37.147 7.55926 36.8973C7.55926 36.6476 7.46199 36.4131 7.28563 36.2368L5.73075 34.682ZM5.0703 37.7014L4.2662 36.8973L5.0703 36.0932L5.8744 36.8973L5.0703 37.7014Z" fill="#C4A370"/>
</svg>
