<svg width="51" height="50" viewBox="0 0 51 50" fill="none" xmlns="http://www.w3.org/2000/svg">
<path d="M43.6322 31.4564C42.754 30.5782 41.3248 30.5783 40.4464 31.4565L35.1526 36.7504L33.3021 34.8999C32.4238 34.0217 30.9947 34.0217 30.1163 34.8999C29.2379 35.7782 29.2379 37.2075 30.1163 38.0859L33.5597 41.5293C33.7685 41.7391 34.0167 41.9054 34.2901 42.0186C34.5636 42.1319 34.8567 42.1898 35.1527 42.189C35.7544 42.189 36.3201 41.9546 36.7456 41.5292L43.6324 34.6424C43.8422 34.4337 44.0086 34.1855 44.1219 33.912C44.2352 33.6386 44.2931 33.3454 44.2923 33.0494C44.293 32.7534 44.235 32.4603 44.1217 32.1868C44.0084 31.9134 43.842 31.6652 43.6322 31.4564ZM42.5872 33.5976L35.7004 40.4844C35.6286 40.5566 35.5431 40.6139 35.4491 40.6528C35.355 40.6918 35.2541 40.7117 35.1523 40.7114C35.0504 40.7117 34.9496 40.6918 34.8555 40.6528C34.7614 40.6139 34.676 40.5566 34.6042 40.4844L31.1608 37.041C31.0886 36.9692 31.0314 36.8837 30.9925 36.7897C30.9536 36.6956 30.9337 36.5947 30.9339 36.4929C30.9337 36.3911 30.9536 36.2902 30.9925 36.1961C31.0315 36.1021 31.0888 36.0166 31.161 35.9448C31.3121 35.7937 31.5106 35.7181 31.709 35.7181C31.9075 35.7181 32.106 35.7937 32.2571 35.9448L34.63 38.3178C34.7686 38.4563 34.9565 38.5341 35.1524 38.5341C35.3483 38.5341 35.5362 38.4563 35.6748 38.3178L41.4909 32.5015C41.7932 32.1992 42.285 32.1992 42.5871 32.5013C42.6593 32.5731 42.7166 32.6586 42.7556 32.7526C42.7946 32.8467 42.8145 32.9476 42.8142 33.0495C42.8145 33.1513 42.7946 33.2522 42.7557 33.3463C42.7167 33.4404 42.6594 33.5258 42.5872 33.5976Z" fill="white"/>
<path d="M47.105 28.1227V22.2642C47.105 21.856 46.7743 21.5254 46.3662 21.5254C45.9582 21.5254 45.6274 21.856 45.6274 22.2642V26.6064C44.648 25.7542 43.5496 25.0496 42.3667 24.5147C42.3226 24.4947 42.2781 24.4757 42.2338 24.4562C42.1889 24.4365 42.1442 24.4164 42.0991 24.3972C42.0201 24.3633 41.9407 24.3309 41.861 24.2986L41.8306 24.2862C41.1654 24.0189 40.4797 23.8062 39.78 23.6501V19.309C39.78 19.212 39.7609 19.1159 39.7238 19.0263C39.6867 18.9366 39.6323 18.8552 39.5637 18.7866C39.4951 18.7179 39.4136 18.6635 39.324 18.6264C39.2343 18.5893 39.1382 18.5702 39.0412 18.5702H34.2812C34.1842 18.5702 34.0881 18.5893 33.9984 18.6264C33.9088 18.6635 33.8273 18.7179 33.7587 18.7866C33.6901 18.8552 33.6357 18.9366 33.5986 19.0263C33.5615 19.1159 33.5424 19.212 33.5424 19.309V23.7477C31.2417 24.3367 29.1337 25.5362 27.4148 27.2656C27.2799 27.4053 27.2053 27.5924 27.2073 27.7866C27.2093 27.9807 27.2876 28.1663 27.4253 28.3032C27.563 28.4401 27.7491 28.5173 27.9433 28.518C28.1375 28.5188 28.3241 28.4431 28.4629 28.3073C30.7056 26.0505 33.6926 24.8077 36.8738 24.8077C36.9792 24.8077 37.0844 24.8091 37.1895 24.8119C37.2078 24.8124 37.226 24.8134 37.2444 24.8139C37.3323 24.8167 37.4201 24.8199 37.5077 24.8246C37.5216 24.8253 37.5352 24.8265 37.5492 24.8273C37.6489 24.8329 37.7485 24.8398 37.848 24.8479C39.2033 24.9596 40.5293 25.3038 41.7679 25.8654C41.8103 25.8847 41.8521 25.9048 41.8943 25.9245C41.9375 25.9447 41.9809 25.9648 42.0239 25.9856C42.0995 26.0223 42.1749 26.0596 42.2496 26.0979C42.2569 26.1016 42.2644 26.1052 42.2717 26.1091C46.1036 28.0764 48.7314 32.0697 48.7314 36.6651C48.7314 43.2032 43.4122 48.5224 36.874 48.5224C30.7453 48.5224 25.6876 43.8486 25.0783 37.878L25.0775 37.8694C25.0681 37.7756 25.0596 37.6812 25.0523 37.5868C25.0507 37.5665 25.0496 37.546 25.0481 37.5257C25.0425 37.4465 25.0372 37.3673 25.0329 37.2877C25.0307 37.2428 25.0292 37.1978 25.0275 37.1528C25.0251 37.0954 25.0225 37.0382 25.0209 36.9808C25.0182 36.8758 25.0167 36.7706 25.0167 36.6653C25.0167 34.4896 25.6108 32.3624 26.7349 30.5138C26.7854 30.4309 26.819 30.3389 26.8338 30.2431C26.8487 30.1472 26.8445 30.0493 26.8215 29.9551C26.7986 29.8608 26.7573 29.772 26.7 29.6937C26.6427 29.6154 26.5705 29.5492 26.4876 29.4988C26.4047 29.4483 26.3127 29.4147 26.2168 29.3999C26.121 29.385 26.0231 29.3892 25.9288 29.4122C25.8346 29.4352 25.7458 29.4765 25.6675 29.5338C25.5892 29.5911 25.523 29.6633 25.4726 29.7462C24.2076 31.8262 23.5391 34.2188 23.5391 36.6653C23.5391 36.7748 23.5407 36.8841 23.5433 36.9931C23.5438 37.0181 23.5449 37.043 23.5457 37.0679C23.5483 37.155 23.5514 37.2421 23.5556 37.3289C23.5566 37.3497 23.5579 37.3704 23.559 37.3912C23.564 37.4865 23.5702 37.5818 23.5772 37.6768L23.5792 37.7042C23.6739 38.944 23.9381 40.1505 24.3702 41.3097H1.47753V29.3644C1.47753 28.9563 1.14676 28.6256 0.738718 28.6256C0.330672 28.6256 6.51044e-09 28.9563 6.51044e-09 29.3644V42.0482C-1.28745e-05 42.1453 0.0190884 42.2413 0.0562128 42.331C0.0933372 42.4206 0.147757 42.5021 0.216365 42.5707C0.284973 42.6393 0.366425 42.6937 0.456068 42.7308C0.545711 42.768 0.641789 42.7871 0.738816 42.787H25.0298C27.2516 47.0681 31.7266 50.0001 36.8739 50.0001C44.2269 50.0001 50.2089 44.0179 50.2089 36.6652C50.2089 33.4177 49.0415 30.4381 47.105 28.1227ZM38.3025 23.3302H35.02V20.0478H38.3025V23.3302ZM12.8747 18.5702H8.11462C8.01759 18.5702 7.92151 18.5893 7.83187 18.6264C7.74222 18.6635 7.66077 18.7179 7.59217 18.7866C7.52356 18.8552 7.46914 18.9366 7.43201 19.0263C7.39489 19.1159 7.37579 19.212 7.3758 19.309V24.0689C7.37579 24.166 7.39489 24.262 7.43201 24.3517C7.46914 24.4413 7.52356 24.5228 7.59217 24.5914C7.66077 24.66 7.74222 24.7144 7.83187 24.7515C7.92151 24.7887 8.01759 24.8078 8.11462 24.8078H12.8747C12.9717 24.8078 13.0678 24.7887 13.1574 24.7515C13.247 24.7144 13.3285 24.66 13.3971 24.5914C13.4657 24.5228 13.5201 24.4413 13.5573 24.3517C13.5944 24.262 13.6135 24.166 13.6135 24.0689V19.309C13.6135 19.212 13.5944 19.1159 13.5573 19.0263C13.5201 18.9366 13.4657 18.8552 13.3971 18.7866C13.3285 18.7179 13.247 18.6635 13.1574 18.6264C13.0678 18.5893 12.9717 18.5702 12.8747 18.5702ZM12.1358 23.3302H8.85343V20.0478H12.1359L12.1358 23.3302Z" fill="white"/>
<path d="M21.5971 18.5702H16.837C16.74 18.5702 16.6439 18.5893 16.5543 18.6264C16.4646 18.6635 16.3832 18.7179 16.3146 18.7866C16.246 18.8552 16.1915 18.9366 16.1544 19.0263C16.1173 19.1159 16.0982 19.212 16.0982 19.309V24.0689C16.0982 24.166 16.1173 24.262 16.1544 24.3517C16.1915 24.4413 16.246 24.5228 16.3146 24.5914C16.3832 24.66 16.4646 24.7144 16.5543 24.7515C16.6439 24.7887 16.74 24.8078 16.837 24.8078H21.5971C21.6941 24.8078 21.7902 24.7887 21.8798 24.7515C21.9694 24.7144 22.0509 24.66 22.1195 24.5914C22.1881 24.5228 22.2425 24.4413 22.2797 24.3517C22.3168 24.262 22.3359 24.166 22.3359 24.0689V19.309C22.3358 19.1131 22.258 18.9252 22.1194 18.7866C21.9809 18.6481 21.793 18.5702 21.5971 18.5702ZM20.8582 23.3302H17.5757V20.0478H20.8582V23.3302ZM30.3193 18.5702H25.5592C25.4622 18.5702 25.3661 18.5893 25.2765 18.6264C25.1868 18.6635 25.1054 18.7179 25.0368 18.7866C24.9682 18.8552 24.9138 18.9366 24.8766 19.0263C24.8395 19.1159 24.8204 19.212 24.8204 19.309V24.0689C24.8204 24.166 24.8395 24.262 24.8766 24.3517C24.9138 24.4413 24.9682 24.5228 25.0368 24.5914C25.1054 24.66 25.1868 24.7144 25.2765 24.7515C25.3661 24.7887 25.4622 24.8078 25.5592 24.8078H30.3193C30.4163 24.8078 30.5124 24.7887 30.602 24.7515C30.6917 24.7144 30.7731 24.66 30.8417 24.5914C30.9103 24.5228 30.9648 24.4413 31.0019 24.3517C31.039 24.262 31.0581 24.166 31.0581 24.0689V19.309C31.0581 19.212 31.039 19.1159 31.0019 19.0263C30.9648 18.9366 30.9103 18.8552 30.8417 18.7866C30.7731 18.7179 30.6917 18.6635 30.602 18.6264C30.5124 18.5893 30.4163 18.5702 30.3193 18.5702ZM29.5806 23.3302H26.2981V20.0478H29.5806V23.3302ZM12.8748 28.7892H8.11479C8.01777 28.7892 7.92169 28.8083 7.83204 28.8454C7.7424 28.8825 7.66095 28.9369 7.59234 29.0055C7.52373 29.0741 7.46931 29.1556 7.43219 29.2452C7.39507 29.3349 7.37596 29.431 7.37598 29.528V34.288C7.37596 34.385 7.39507 34.4811 7.43219 34.5708C7.46931 34.6604 7.52373 34.7419 7.59234 34.8105C7.66095 34.8791 7.7424 34.9335 7.83204 34.9706C7.92169 35.0077 8.01777 35.0268 8.11479 35.0268H12.8748C12.9719 35.0268 13.0679 35.0077 13.1576 34.9706C13.2472 34.9335 13.3287 34.8791 13.3973 34.8105C13.4659 34.7419 13.5203 34.6604 13.5574 34.5708C13.5946 34.4811 13.6137 34.385 13.6136 34.288V29.528C13.6137 29.431 13.5946 29.3349 13.5574 29.2452C13.5203 29.1556 13.4659 29.0741 13.3973 29.0055C13.3287 28.9369 13.2472 28.8825 13.1576 28.8454C13.0679 28.8083 12.9719 28.7892 12.8748 28.7892ZM12.136 33.5492H8.85361V30.2667H12.1361L12.136 33.5492ZM21.5971 28.7892H16.837C16.74 28.7892 16.6439 28.8083 16.5543 28.8454C16.4646 28.8825 16.3832 28.9369 16.3146 29.0055C16.246 29.0741 16.1915 29.1556 16.1544 29.2452C16.1173 29.3349 16.0982 29.431 16.0982 29.528V34.288C16.0982 34.385 16.1173 34.4811 16.1544 34.5708C16.1915 34.6604 16.246 34.7419 16.3146 34.8105C16.3832 34.8791 16.4646 34.9335 16.5543 34.9706C16.6439 35.0077 16.74 35.0268 16.837 35.0268H21.5971C21.6941 35.0268 21.7902 35.0077 21.8798 34.9706C21.9694 34.9335 22.0509 34.8791 22.1195 34.8105C22.1881 34.7419 22.2425 34.6604 22.2797 34.5708C22.3168 34.4811 22.3359 34.385 22.3359 34.288V29.528C22.3359 29.332 22.258 29.1441 22.1195 29.0056C21.9809 28.867 21.793 28.7892 21.5971 28.7892ZM20.8582 33.5492H17.5757V30.2667H20.8582V33.5492Z" fill="white"/>
<path d="M46.3917 5.60152H41.7758V2.93163C41.7758 1.31514 40.4607 0 38.8443 0C37.2278 0 35.9128 1.31514 35.9128 2.93163V5.60152H11.2433V2.93163C11.2433 1.31514 9.92812 0 8.31172 0C6.69533 0 5.38019 1.31514 5.38019 2.93163V5.60152H0.738816C0.641798 5.60151 0.545727 5.62061 0.45609 5.65773C0.366454 5.69485 0.285007 5.74926 0.2164 5.81786C0.147793 5.88645 0.0933711 5.96789 0.0562409 6.05752C0.0191107 6.14716 -8.54843e-10 6.24322 0 6.34024L0 26.4093C1.30041e-05 26.6052 0.0778647 26.7931 0.216429 26.9317C0.285039 27.0003 0.366489 27.0547 0.456128 27.0918C0.545768 27.1289 0.641842 27.148 0.738865 27.148C0.835887 27.148 0.931959 27.1289 1.02159 27.0918C1.11123 27.0546 1.19267 27.0002 1.26127 26.9316C1.32987 26.863 1.38429 26.7816 1.42141 26.6919C1.45853 26.6023 1.47764 26.5062 1.47763 26.4092V15.0756H45.6276V19.309C45.6276 19.7172 45.9584 20.0479 46.3664 20.0479C46.7745 20.0479 47.1052 19.7172 47.1052 19.309V14.5263C47.1219 14.4646 47.1304 14.4009 47.1306 14.3369V6.34024C47.1306 6.1443 47.0527 5.95641 46.9141 5.81788C46.7756 5.67935 46.5877 5.60152 46.3917 5.60152ZM37.3904 2.93163C37.3904 2.12986 38.0427 1.47763 38.8443 1.47763C39.6461 1.47763 40.2982 2.12995 40.2982 2.93163V8.70849C40.2982 8.80871 40.288 8.90658 40.2687 9.00112C40.1329 9.66305 39.5458 10.1625 38.8443 10.1625C38.0425 10.1625 37.3904 9.51017 37.3904 8.70849V2.93163ZM6.85782 2.93163C6.85782 2.12986 7.51005 1.47763 8.31172 1.47763C9.1134 1.47763 9.76562 2.12995 9.76562 2.93163V8.70849C9.76562 9.51027 9.1133 10.1625 8.31172 10.1625C7.51015 10.1625 6.85782 9.51007 6.85782 8.70839V2.93163ZM45.6275 13.598H1.50303V7.07896H5.38019V8.70839C5.38019 10.3249 6.69523 11.64 8.31172 11.64C9.92821 11.64 11.2433 10.3249 11.2433 8.70839V7.07896H35.913V8.70839C35.913 10.3249 37.2281 11.64 38.8445 11.64C40.461 11.64 41.776 10.3249 41.776 8.70839V7.07896H45.6278V13.598H45.6275Z" fill="white"/>
</svg>
