<svg width="50" height="50" viewBox="0 0 50 50" fill="none" xmlns="http://www.w3.org/2000/svg">
<path d="M46.0938 7.8125C45.0581 7.81374 44.0653 8.22569 43.333 8.95798C42.6007 9.69028 42.1887 10.6831 42.1875 11.7188V25.4117C41.4261 25.0472 40.5705 24.9273 39.7382 25.0685C38.9059 25.2096 38.1377 25.6049 37.5391 26.2L29.7266 34.0125C29.2172 34.5192 28.8133 35.1219 28.5384 35.7857C28.2635 36.4495 28.123 37.1612 28.125 37.8797V43.75H26.5625C26.3553 43.75 26.1566 43.8323 26.0101 43.9788C25.8636 44.1253 25.7812 44.3241 25.7812 44.5313V49.2188C25.7812 49.426 25.8636 49.6247 26.0101 49.7712C26.1566 49.9177 26.3553 50 26.5625 50H45.3125C45.5197 50 45.7184 49.9177 45.8649 49.7712C46.0114 49.6247 46.0938 49.426 46.0938 49.2188V44.5313C46.0938 44.3241 46.0114 44.1253 45.8649 43.9788C45.7184 43.8323 45.5197 43.75 45.3125 43.75H43.75V41.7297L47.7109 37.7688C48.4391 37.0449 49.0163 36.1838 49.4092 35.2353C49.8022 34.2867 50.003 33.2697 50 32.243V11.7188C49.9988 10.6831 49.5868 9.69028 48.8545 8.95798C48.1222 8.22569 47.1294 7.81374 46.0938 7.8125ZM44.5313 48.4375H27.3438V45.3125H44.5313V48.4375ZM48.4375 32.2438C48.4398 33.0649 48.2791 33.8783 47.9649 34.6369C47.6507 35.3955 47.1892 36.0842 46.607 36.6633L42.4164 40.8539C42.2699 41.0004 42.1875 41.1991 42.1875 41.4063V43.75H29.6875V37.8789C29.6861 37.3658 29.7865 36.8576 29.9828 36.3835C30.1792 35.9095 30.4675 35.4791 30.8313 35.1172L38.6438 27.3047C39.1207 26.8384 39.7622 26.5791 40.4292 26.5829C41.0962 26.5866 41.7348 26.8533 42.2064 27.3249C42.678 27.7965 42.9446 28.4351 42.9484 29.102C42.9522 29.769 42.6928 30.4106 42.2266 30.8875L36.1664 36.9477C36.0241 37.095 35.9454 37.2924 35.9471 37.4972C35.9489 37.702 36.0311 37.898 36.1759 38.0428C36.3208 38.1877 36.5167 38.2699 36.7216 38.2716C36.9264 38.2734 37.1238 38.1947 37.2711 38.0524L43.3313 31.9922C44.0155 31.3046 44.4332 30.3963 44.5099 29.4292C44.5866 28.4622 44.3173 27.4994 43.75 26.7125V11.7188C43.75 11.0971 43.9969 10.501 44.4365 10.0615C44.876 9.62193 45.4722 9.375 46.0938 9.375C46.7154 9.375 47.3115 9.62193 47.751 10.0615C48.1906 10.501 48.4375 11.0971 48.4375 11.7188V32.2438Z" fill="#C4A370"/>
<path d="M25.3828 28.8062L37.8828 21.775C38.0037 21.707 38.1044 21.6081 38.1744 21.4884C38.2444 21.3687 38.2813 21.2324 38.2813 21.0937V7.81249C38.2792 7.67423 38.2414 7.53885 38.1716 7.41949C38.1018 7.30013 38.0023 7.20083 37.8828 7.13124L25.3828 0.0999875C25.2659 0.0344289 25.1341 0 25 0C24.8659 0 24.7341 0.0344289 24.6172 0.0999875L12.1172 7.13124C11.9979 7.20107 11.8986 7.30041 11.8288 7.41972C11.759 7.53903 11.7211 7.67429 11.7188 7.81249V21.0937C11.7187 21.2324 11.7556 21.3687 11.8256 21.4884C11.8956 21.6081 11.9963 21.707 12.1172 21.775L24.6172 28.8062C24.7341 28.872 24.8659 28.9065 25 28.9065C25.1341 28.9065 25.2659 28.872 25.3828 28.8062ZM25.7813 26.7891V15.3008L36.7188 9.14843V20.6367L25.7813 26.7891ZM25 13.9469L22.4266 12.5L33.3328 6.36483L35.9063 7.81249L25 13.9469ZM31.7398 5.46874L20.8344 11.6031C18.5531 10.3219 19.0773 10.6156 18.2602 10.1562L29.1664 4.02108L31.7398 5.46874ZM17.4453 11.4914L20.0547 12.9586V16.6336L17.4453 15.168V11.4914ZM25 1.67733L27.5734 3.12499L16.6672 9.26015L14.0938 7.81249L25 1.67733ZM13.2813 9.14843L15.8828 10.6117V15.625C15.8828 15.7637 15.9197 15.8999 15.9897 16.0196C16.0597 16.1394 16.1603 16.2383 16.2813 16.3062L20.4531 18.65C20.572 18.7168 20.7063 18.7514 20.8427 18.7502C20.9791 18.749 21.1128 18.7121 21.2305 18.6432C21.3483 18.5743 21.4459 18.4758 21.5137 18.3575C21.5816 18.2392 21.6172 18.1051 21.6172 17.9687V13.8375L24.2188 15.3008V26.7891L13.2813 20.6367V9.14843Z" fill="#C4A370"/>
<path d="M23.4375 43.75H21.875V37.8789C21.8771 37.1604 21.7365 36.4487 21.4616 35.7849C21.1867 35.1211 20.7829 34.5184 20.2735 34.0117L12.461 26.1992C11.8621 25.6043 11.0938 25.2094 10.2615 25.0685C9.42927 24.9276 8.57379 25.0478 7.81253 25.4125V11.7188C7.81253 10.6827 7.40098 9.68918 6.66841 8.95661C5.93585 8.22405 4.94228 7.8125 3.90628 7.8125C2.87028 7.8125 1.87671 8.22405 1.14414 8.95661C0.411578 9.68918 2.79159e-05 10.6827 2.79159e-05 11.7188V32.2438C-0.00272514 33.2702 0.198177 34.287 0.5911 35.2352C0.984023 36.1835 1.56116 37.0443 2.28909 37.768L6.25003 41.7297V43.75H4.68753C4.48033 43.75 4.28161 43.8323 4.1351 43.9788C3.98859 44.1253 3.90628 44.3241 3.90628 44.5313V49.2188C3.90628 49.426 3.98859 49.6247 4.1351 49.7712C4.28161 49.9177 4.48033 50 4.68753 50H23.4375C23.6447 50 23.8434 49.9177 23.99 49.7712C24.1365 49.6247 24.2188 49.426 24.2188 49.2188V44.5313C24.2188 44.3241 24.1365 44.1253 23.99 43.9788C23.8434 43.8323 23.6447 43.75 23.4375 43.75ZM7.58362 40.8539L3.393 36.6633C2.81083 36.0842 2.34929 35.3955 2.03509 34.6369C1.72089 33.8783 1.56027 33.0649 1.56253 32.2438V11.7188C1.56253 11.0971 1.80946 10.501 2.249 10.0615C2.68854 9.62193 3.28468 9.375 3.90628 9.375C4.52788 9.375 5.12402 9.62193 5.56356 10.0615C6.0031 10.501 6.25003 11.0971 6.25003 11.7188V26.7125C5.68272 27.4994 5.4134 28.4622 5.4901 29.4292C5.5668 30.3963 5.98453 31.3046 6.66878 31.9922L12.7289 38.0524C12.801 38.127 12.8872 38.1865 12.9825 38.2274C13.0778 38.2684 13.1804 38.2899 13.2841 38.2908C13.3878 38.2917 13.4907 38.272 13.5867 38.2327C13.6827 38.1934 13.77 38.1354 13.8433 38.062C13.9167 37.9887 13.9747 37.9015 14.014 37.8054C14.0532 37.7094 14.073 37.6066 14.0721 37.5028C14.0712 37.3991 14.0496 37.2966 14.0087 37.2013C13.9678 37.1059 13.9082 37.0197 13.8336 36.9477L7.77347 30.8875C7.30722 30.4106 7.04784 29.769 7.05162 29.102C7.0554 28.4351 7.32203 27.7965 7.79366 27.3249C8.26528 26.8533 8.90385 26.5866 9.57082 26.5829C10.2378 26.5791 10.8793 26.8384 11.3563 27.3047L19.1688 35.1172C19.5325 35.4791 19.8209 35.9095 20.0172 36.3835C20.2135 36.8576 20.3139 37.3658 20.3125 37.8789V43.75H7.81253V41.4063C7.81249 41.1991 7.73015 41.0004 7.58362 40.8539ZM22.6563 48.4375H5.46878V45.3125H22.6563V48.4375Z" fill="#C4A370"/>
</svg>
