<svg width="50" height="50" viewBox="0 0 50 50" fill="none" xmlns="http://www.w3.org/2000/svg">
<g clip-path="url(#clip0_1222_197)">
<path d="M48.0202 11.0323L25.3183 0.0727392C25.219 0.0248239 25.1101 -6.10352e-05 24.9999 -6.10352e-05C24.8896 -6.10352e-05 24.7808 0.0248239 24.6814 0.0727392L1.97939 11.0323C1.85535 11.0922 1.75072 11.1859 1.67749 11.3025C1.60427 11.4192 1.56543 11.5541 1.56543 11.6919V38.308C1.56543 38.4457 1.60427 38.5807 1.67749 38.6974C1.75072 38.814 1.85535 38.9077 1.97939 38.9676L24.6813 49.9271C24.7807 49.9751 24.8895 49.9999 24.9998 49.9999C25.1101 49.9999 25.2189 49.9751 25.3183 49.9271L48.0202 38.9676C48.1443 38.9077 48.2489 38.814 48.3221 38.6974C48.3953 38.5807 48.4342 38.4457 48.4342 38.308V11.692C48.4342 11.5542 48.3953 11.4193 48.3221 11.3026C48.2489 11.1859 48.1443 11.0922 48.0202 11.0323ZM24.9998 1.54569L46.0171 11.6919L39.9246 14.6331C39.886 14.6029 39.8445 14.5768 39.8006 14.555L18.9261 4.47782L24.9998 1.54569ZM17.272 5.30594L38.2587 15.4374L33.9604 17.5125L12.9823 7.38514L17.272 5.30594ZM38.7497 16.8268V24.4973L34.7348 26.4356V18.7651L38.7497 16.8268ZM46.9693 37.8484L25.7322 48.1006V23.1111L30.7979 20.6656C30.8846 20.6238 30.9621 20.5653 31.0261 20.4935C31.0901 20.4218 31.1394 20.3381 31.1711 20.2472C31.2027 20.1564 31.2162 20.0603 31.2107 19.9642C31.2052 19.8682 31.1809 19.7742 31.1391 19.6876C31.0972 19.601 31.0388 19.5234 30.967 19.4594C30.8952 19.3954 30.8115 19.3461 30.7207 19.3145C30.6299 19.2828 30.5337 19.2693 30.4377 19.2748C30.3417 19.2803 30.2477 19.3046 30.161 19.3465L24.9998 21.8382L22.9689 20.8577C22.8823 20.8159 22.7883 20.7915 22.6923 20.786C22.5963 20.7805 22.5001 20.7939 22.4093 20.8256C22.3184 20.8573 22.2347 20.9066 22.163 20.9706C22.0912 21.0346 22.0327 21.1122 21.9909 21.1988C21.9491 21.2854 21.9247 21.3794 21.9193 21.4755C21.9138 21.5715 21.9272 21.6677 21.9589 21.7585C21.9906 21.8493 22.0398 21.933 22.1039 22.0048C22.1679 22.0766 22.2454 22.135 22.332 22.1768L24.2674 23.1111V48.1006L3.03027 37.8482V12.8588L19.2021 20.6659C19.3012 20.714 19.4099 20.7389 19.52 20.739C19.686 20.7392 19.8471 20.683 19.977 20.5796C20.1069 20.4763 20.1978 20.3319 20.2349 20.1701C20.2719 20.0083 20.2529 19.8387 20.181 19.6891C20.1091 19.5396 19.9885 19.4188 19.839 19.3468L3.98252 11.6919L11.2584 8.17938L33.2598 18.8008C33.263 18.8053 33.2666 18.8093 33.2699 18.8137V27.6026C33.27 27.7266 33.3015 27.8485 33.3615 27.957C33.4215 28.0655 33.5081 28.1569 33.6131 28.2228C33.7181 28.2887 33.8381 28.3269 33.9619 28.3338C34.0856 28.3407 34.2091 28.316 34.3208 28.2622L39.8006 25.6168C39.9246 25.5569 40.0293 25.4633 40.1025 25.3466C40.1757 25.2299 40.2146 25.095 40.2146 24.9572V16.1198L46.9693 12.8589V37.8484Z" fill="white"/>
<path d="M9.07481 35.0077L5.74327 33.3994C5.56834 33.315 5.36702 33.3034 5.18361 33.3674C5.00019 33.4314 4.8497 33.5656 4.76524 33.7405C4.68078 33.9155 4.66927 34.1168 4.73324 34.3002C4.79721 34.4836 4.93142 34.6341 5.10635 34.7186L8.4379 36.3269C8.53697 36.3749 8.64565 36.3999 8.75577 36.3999C8.89361 36.4 9.02868 36.3612 9.14544 36.2879C9.26221 36.2146 9.35593 36.1099 9.41582 35.9857C9.45766 35.8991 9.48203 35.8051 9.48753 35.7091C9.49304 35.6131 9.47957 35.5169 9.4479 35.4261C9.41624 35.3353 9.36699 35.2516 9.30297 35.1798C9.23896 35.108 9.16143 35.0495 9.07481 35.0077ZM12.1409 33.0119L5.74786 29.9256C5.57334 29.8443 5.37384 29.835 5.19252 29.8997C5.0112 29.9644 4.86262 30.0978 4.77893 30.2712C4.69525 30.4446 4.68317 30.6439 4.74532 30.8261C4.80747 31.0083 4.93885 31.1587 5.11104 31.2448L11.5041 34.3312C11.6032 34.3792 11.7119 34.4041 11.822 34.4042C11.988 34.4045 12.1492 34.3483 12.2791 34.2449C12.409 34.1416 12.4999 33.9972 12.537 33.8353C12.5741 33.6735 12.5551 33.5039 12.4831 33.3543C12.4111 33.2047 12.2905 33.084 12.1409 33.0119Z" fill="white"/>
</g>
<defs>
<clipPath id="clip0_1222_197">
<rect width="50" height="50" fill="white"/>
</clipPath>
</defs>
</svg>
