<svg width="50" height="50" viewBox="0 0 50 50" fill="none" xmlns="http://www.w3.org/2000/svg">
<path d="M48.4533 41.7811H46.8923V18.0469C46.8923 15.8972 45.144 14.1489 42.996 14.1489H37.8314V8.27595C37.8315 8.18219 37.8132 8.08933 37.7774 8.00269C37.7416 7.91605 37.689 7.83734 37.6226 7.77108L30.0585 0.210511C29.9253 0.0765021 29.7444 0.000796657 29.5554 0H15.3192C14.2625 -1.05865e-07 13.249 0.419648 12.5017 1.16668C11.7543 1.91371 11.3342 2.92696 11.3337 3.98366V14.1506H6.17262C4.02469 14.1506 2.27638 15.899 2.27638 18.0487V41.7829H0.713597C0.524339 41.7829 0.342833 41.8581 0.209008 41.9919C0.0751823 42.1258 0 42.3073 0 42.4965V45.1315C0.00141662 46.4223 0.514803 47.6598 1.42752 48.5725C2.34024 49.4852 3.57774 49.9986 4.86852 50H44.2948C45.5862 49.9991 46.8244 49.4856 47.7376 48.5725C48.6507 47.6593 49.1641 46.4211 49.1651 45.1297V42.4965C49.1651 42.3073 49.0899 42.1258 48.9561 41.9919C48.8223 41.8581 48.6408 41.7829 48.4515 41.7829L48.4533 41.7811ZM30.2672 2.43515L35.3944 7.56413H31.5321C31.1968 7.56366 30.8753 7.43025 30.6382 7.19315C30.4011 6.95604 30.2677 6.6346 30.2672 6.29928V2.43515ZM12.7609 3.98187C12.7609 2.57252 13.908 1.4272 15.3156 1.4272H28.84V6.29928C28.8405 7.0128 29.1241 7.69699 29.6284 8.2017C30.1328 8.7064 30.8168 8.99038 31.5303 8.99133H36.4024V30.7222C36.4024 32.1315 35.2553 33.2768 33.8477 33.2768H15.3174C13.908 33.2768 12.7627 32.1297 12.7627 30.7222L12.7609 3.98187ZM3.69822 18.0469C3.69822 16.6839 4.80786 15.5761 6.16905 15.5761H11.3337V17.7168H6.55261C6.36335 17.7168 6.18185 17.792 6.04802 17.9259C5.91419 18.0597 5.83901 18.2412 5.83901 18.4304V38.9267C5.83901 39.3192 6.16013 39.6403 6.55261 39.6403H31.2913C31.4805 39.6403 31.662 39.5652 31.7958 39.4313C31.9297 39.2975 32.0049 39.116 32.0049 38.9267C32.0049 38.7375 31.9297 38.556 31.7958 38.4222C31.662 38.2883 31.4805 38.2132 31.2913 38.2132H7.26799V19.1423H11.3355V30.7222C11.3364 31.7779 11.7563 32.7902 12.5028 33.5367C13.2493 34.2833 14.2616 34.7031 15.3174 34.704H33.8495C34.9053 34.7031 35.9175 34.2833 36.6641 33.5367C37.4106 32.7902 37.8304 31.7779 37.8314 30.7222V19.144H41.8989V38.2132H37.5174C37.3281 38.2132 37.1466 38.2883 37.0128 38.4222C36.879 38.556 36.8038 38.7375 36.8038 38.9267C36.8038 39.116 36.879 39.2975 37.0128 39.4313C37.1466 39.5652 37.3281 39.6403 37.5174 39.6403H42.6125C42.8017 39.6403 42.9832 39.5652 43.1171 39.4313C43.2509 39.2975 43.3261 39.116 43.3261 38.9267V18.4287C43.3261 18.2394 43.2509 18.0579 43.1171 17.9241C42.9832 17.7902 42.8017 17.7151 42.6125 17.7151H37.8314V15.5743H42.996C44.3572 15.5743 45.4669 16.6839 45.4669 18.0469V41.7811H31.2074C31.0181 41.7811 30.8366 41.8563 30.7028 41.9901C30.569 42.124 30.4938 42.3055 30.4938 42.4947V44.7997H18.6731V42.4947C18.6731 42.3055 18.5979 42.124 18.4641 41.9901C18.3302 41.8563 18.1487 41.7811 17.9595 41.7811H3.7L3.69822 18.0469ZM47.7361 45.1279C47.7361 47.0261 46.193 48.571 44.2948 48.571H4.8703C3.95742 48.5701 3.0822 48.207 2.4367 47.5615C1.7912 46.916 1.42814 46.0408 1.4272 45.1279V43.2083H17.2459V45.5133C17.2459 45.9057 17.567 46.2269 17.9595 46.2269H31.2074C31.3967 46.2269 31.5782 46.1517 31.712 46.0178C31.8458 45.884 31.921 45.7025 31.921 45.5133V43.2083H47.7379L47.7361 45.1279Z" fill="white"/>
<path d="M34.0031 39.4316C34.128 39.5743 34.3064 39.6457 34.5026 39.6457C34.6988 39.6457 34.8772 39.5743 35.0021 39.4316C35.0702 39.3676 35.1244 39.2901 35.1613 39.2042C35.1981 39.1182 35.2168 39.0256 35.2162 38.9321C35.2197 38.8356 35.2023 38.7394 35.1654 38.6502C35.1285 38.5609 35.0728 38.4806 35.0021 38.4147C34.9317 38.3568 34.8537 38.3088 34.7702 38.272C34.6854 38.2367 34.5945 38.2185 34.5026 38.2185C34.4107 38.2185 34.3198 38.2367 34.235 38.272C34.1 38.3202 33.984 38.4102 33.9038 38.5289C33.8235 38.6477 33.7833 38.7889 33.789 38.9321C33.7883 39.0256 33.807 39.1183 33.8438 39.2043C33.8806 39.2902 33.9349 39.3676 34.0031 39.4316ZM21.4384 15.3923H31.5679C31.7572 15.3923 31.9387 15.3171 32.0725 15.1833C32.2063 15.0495 32.2815 14.868 32.2815 14.6787C32.2815 14.4895 32.2063 14.3079 32.0725 14.1741C31.9387 14.0403 31.7572 13.9651 31.5679 13.9651H21.4384C21.2492 13.9651 21.0676 14.0403 20.9338 14.1741C20.8 14.3079 20.7248 14.4895 20.7248 14.6787C20.7248 14.868 20.8 15.0495 20.9338 15.1833C21.0676 15.3171 21.2492 15.3923 21.4384 15.3923ZM16.8928 15.3923H18.2754C18.4647 15.3923 18.6462 15.3171 18.78 15.1833C18.9138 15.0495 18.989 14.868 18.989 14.6787C18.989 14.4895 18.9138 14.3079 18.78 14.1741C18.6462 14.0403 18.4647 13.9651 18.2754 13.9651H16.8928C16.7035 13.9651 16.522 14.0403 16.3882 14.1741C16.2544 14.3079 16.1792 14.4895 16.1792 14.6787C16.1792 14.868 16.2544 15.0495 16.3882 15.1833C16.522 15.3171 16.7035 15.3923 16.8928 15.3923ZM21.4384 10.9948H25.5416C25.7309 10.9948 25.9124 10.9196 26.0462 10.7858C26.18 10.6519 26.2552 10.4704 26.2552 10.2812C26.2552 10.0919 26.18 9.9104 26.0462 9.77657C25.9124 9.64275 25.7309 9.56757 25.5416 9.56757H21.4384C21.2492 9.56757 21.0676 9.64275 20.9338 9.77657C20.8 9.9104 20.7248 10.0919 20.7248 10.2812C20.7248 10.4704 20.8 10.6519 20.9338 10.7858C21.0676 10.9196 21.2492 10.9948 21.4384 10.9948ZM16.8928 10.9948H18.2754C18.4647 10.9948 18.6462 10.9196 18.78 10.7858C18.9138 10.6519 18.989 10.4704 18.989 10.2812C18.989 10.0919 18.9138 9.9104 18.78 9.77657C18.6462 9.64275 18.4647 9.56757 18.2754 9.56757H16.8928C16.7035 9.56757 16.522 9.64275 16.3882 9.77657C16.2544 9.9104 16.1792 10.0919 16.1792 10.2812C16.1792 10.4704 16.2544 10.6519 16.3882 10.7858C16.522 10.9196 16.7035 10.9948 16.8928 10.9948ZM21.4384 19.4616H31.5679C31.7572 19.4616 31.9387 19.3864 32.0725 19.2526C32.2063 19.1188 32.2815 18.9373 32.2815 18.748C32.2815 18.5587 32.2063 18.3772 32.0725 18.2434C31.9387 18.1096 31.7572 18.0344 31.5679 18.0344H21.4384C21.2492 18.0344 21.0676 18.1096 20.9338 18.2434C20.8 18.3772 20.7248 18.5587 20.7248 18.748C20.7248 18.9373 20.8 19.1188 20.9338 19.2526C21.0676 19.3864 21.2492 19.4616 21.4384 19.4616ZM16.8928 19.4616H18.2754C18.4647 19.4616 18.6462 19.3864 18.78 19.2526C18.9138 19.1188 18.989 18.9373 18.989 18.748C18.989 18.5587 18.9138 18.3772 18.78 18.2434C18.6462 18.1096 18.4647 18.0344 18.2754 18.0344H16.8928C16.7035 18.0344 16.522 18.1096 16.3882 18.2434C16.2544 18.3772 16.1792 18.5587 16.1792 18.748C16.1792 18.9373 16.2544 19.1188 16.3882 19.2526C16.522 19.3864 16.7035 19.4616 16.8928 19.4616ZM21.4384 23.5291H31.5679C31.7572 23.5291 31.9387 23.4539 32.0725 23.3201C32.2063 23.1863 32.2815 23.0048 32.2815 22.8155C32.2815 22.6262 32.2063 22.4447 32.0725 22.3109C31.9387 22.1771 31.7572 22.1019 31.5679 22.1019H21.4384C21.2492 22.1019 21.0676 22.1771 20.9338 22.3109C20.8 22.4447 20.7248 22.6262 20.7248 22.8155C20.7248 23.0048 20.8 23.1863 20.9338 23.3201C21.0676 23.4539 21.2492 23.5291 21.4384 23.5291ZM16.8928 23.5291H18.2754C18.4647 23.5291 18.6462 23.4539 18.78 23.3201C18.9138 23.1863 18.989 23.0048 18.989 22.8155C18.989 22.6262 18.9138 22.4447 18.78 22.3109C18.6462 22.1771 18.4647 22.1019 18.2754 22.1019H16.8928C16.7035 22.1019 16.522 22.1771 16.3882 22.3109C16.2544 22.4447 16.1792 22.6262 16.1792 22.8155C16.1792 23.0048 16.2544 23.1863 16.3882 23.3201C16.522 23.4539 16.7035 23.5291 16.8928 23.5291ZM21.4384 27.5966H31.5679C31.7572 27.5966 31.9387 27.5214 32.0725 27.3876C32.2063 27.2538 32.2815 27.0723 32.2815 26.883C32.2815 26.6938 32.2063 26.5122 32.0725 26.3784C31.9387 26.2446 31.7572 26.1694 31.5679 26.1694H21.4384C21.2492 26.1694 21.0676 26.2446 20.9338 26.3784C20.8 26.5122 20.7248 26.6938 20.7248 26.883C20.7248 27.0723 20.8 27.2538 20.9338 27.3876C21.0676 27.5214 21.2492 27.5966 21.4384 27.5966ZM16.8928 27.5966H18.2754C18.4647 27.5966 18.6462 27.5214 18.78 27.3876C18.9138 27.2538 18.989 27.0723 18.989 26.883C18.989 26.6938 18.9138 26.5122 18.78 26.3784C18.6462 26.2446 18.4647 26.1694 18.2754 26.1694H16.8928C16.7035 26.1694 16.522 26.2446 16.3882 26.3784C16.2544 26.5122 16.1792 26.6938 16.1792 26.883C16.1792 27.0723 16.2544 27.2538 16.3882 27.3876C16.522 27.5214 16.7035 27.5966 16.8928 27.5966Z" fill="white"/>
</svg>
