<svg width="59" height="50" viewBox="0 0 59 50" fill="none" xmlns="http://www.w3.org/2000/svg">
<path d="M54.2932 4.29267C51.5252 1.52449 47.8447 0 43.9298 0C40.0151 0 36.3348 1.52449 33.5666 4.29267L21.5282 16.331C24.2765 19.644 29.3756 20.0555 32.4346 16.9387L33.8346 15.5387L45.6955 27.3997C48.0884 29.9535 44.6425 33.4702 42.0917 31.1206L40.0635 29.0925L38.848 30.308L40.8762 32.336C42.96 34.4674 40.4058 37.8389 37.796 36.4358C36.8845 35.1239 35.2476 34.4322 33.6725 34.6663C33.8572 33.3692 33.4516 32.0033 32.4558 31.0077C31.4593 30.0113 30.092 29.6057 28.7942 29.7914C28.9798 28.4934 28.5744 27.1263 27.578 26.1298C26.5823 25.134 25.2168 24.7281 23.9194 24.9133C24.1202 23.5223 23.6251 22.0981 22.5877 21.1435C20.9111 19.5821 18.202 19.6571 16.5485 21.3106L9.78154 28.0776L5.50787 23.8039C0.463766 18.7597 0.463766 10.5523 5.50787 5.50809C7.95131 3.06465 11.2002 1.7189 14.6557 1.7189C18.1112 1.7189 21.3601 3.06465 23.8037 5.50809L26.7491 8.45352L27.9645 7.23809L25.0191 4.29267C22.2509 1.52449 18.5706 0 14.6557 0C10.741 0 7.0605 1.5246 4.29233 4.29267C1.52449 7.06085 0 10.7412 0 14.6559C0 18.5707 1.52449 22.2512 4.29255 25.0192L29.3124 50L37.2753 42.0371C38.2497 41.0628 38.6752 39.7219 38.5414 38.4417C41.2704 38.8396 43.7718 36.2438 43.3082 33.5551C44.6992 33.7559 46.1233 33.2607 47.0779 32.2233C47.1378 32.1591 54.2931 25.0191 54.2931 25.0191C57.0613 22.2512 58.5858 18.5708 58.5858 14.6559C58.5858 10.7411 57.0613 7.06085 54.2932 4.29267ZM15.8803 34.1654L18.4748 31.5709L17.2594 30.3555L14.6636 32.9512L10.9977 29.2923L17.764 22.5259C20.3178 20.1329 23.8347 23.5793 21.4849 26.1298L18.5466 29.0681L19.7621 30.2835L22.7003 27.3453C25.1793 24.9936 28.7133 28.5311 26.3627 31.0077L26.3602 31.0052L19.5436 37.8217L15.8803 34.1654ZM20.7603 39.036L27.5757 32.2206L27.5782 32.2231C30.057 29.8713 33.5913 33.4089 31.2405 35.8855L31.2477 35.8927H31.2476L24.4359 42.7045L20.7603 39.036ZM36.0599 40.8218L29.3113 47.5704L25.6526 43.9187L32.4632 37.1081L32.4601 37.0971C35.0171 34.7541 38.449 38.2743 36.0599 40.8218ZM53.0777 23.8039L48.1606 28.721C48.0353 27.7913 47.618 26.8913 46.9111 26.1843L33.8162 13.0895L31.219 15.7232C29.366 17.6489 26.1248 17.8911 24.0054 16.2846L34.782 5.50798C37.2254 3.06454 40.4742 1.71878 43.9297 1.71878C47.3854 1.71878 50.6341 3.06454 53.0776 5.50809C55.5211 7.95153 56.8669 11.2004 56.8669 14.6559C56.8669 18.1115 55.5213 21.3604 53.0777 23.8039Z" fill="#C4A370"/>
<path d="M31.3775 22.8441L32.5927 21.6289L36.2713 25.3072L35.0561 26.5225L31.3775 22.8441ZM36.3283 27.7948L37.5435 26.5796L38.7611 27.7971L37.5459 29.0124L36.3283 27.7948ZM8.69189 5.05518H10.4108V6.77407H8.69189V5.05518ZM12.115 5.05518H13.8339V6.77407H12.115V5.05518ZM38.7466 5.05518H40.4655V6.77407H38.7466V5.05518Z" fill="#C4A370"/>
</svg>
