<svg width="182" height="60" viewBox="0 0 182 60" fill="none" xmlns="http://www.w3.org/2000/svg">
<mask id="mask0_2427_1623" style="mask-type:luminance" maskUnits="userSpaceOnUse" x="27" y="28" width="21" height="21">
<path d="M27.5975 28.0581H47.7187V48.1793H27.5975V28.0581Z" fill="white"/>
</mask>
<g mask="url(#mask0_2427_1623)">
<path d="M27.5975 28.0581V48.1793H47.7187V28.0581H27.5975Z" fill="url(#paint0_linear_2427_1623)"/>
</g>
<mask id="mask1_2427_1623" style="mask-type:luminance" maskUnits="userSpaceOnUse" x="5" y="5" width="21" height="21">
<path d="M5.32971 5.32971H25.4508V25.4508H5.32971V5.32971Z" fill="white"/>
</mask>
<g mask="url(#mask1_2427_1623)">
<path d="M5.32971 5.32971H25.4508V25.4508H5.32971V5.32971Z" fill="black"/>
</g>
<mask id="mask2_2427_1623" style="mask-type:luminance" maskUnits="userSpaceOnUse" x="5" y="28" width="21" height="21">
<path d="M5.32971 28.0581H25.4508V48.1793H5.32971V28.0581Z" fill="white"/>
</mask>
<g mask="url(#mask2_2427_1623)">
<path d="M5.32971 28.0581H25.4508V48.1793H5.32971V28.0581Z" fill="#ABABAB"/>
</g>
<mask id="mask3_2427_1623" style="mask-type:luminance" maskUnits="userSpaceOnUse" x="27" y="5" width="21" height="21">
<path d="M27.5975 5.32971H47.7187V25.4508H27.5975V5.32971Z" fill="white"/>
</mask>
<g mask="url(#mask3_2427_1623)">
<path d="M27.5975 5.32971H47.7187V25.4508H27.5975V5.32971Z" fill="#C5A471"/>
</g>
<path d="M61.1825 15.9462H58.53V7.6925H54.8453V15.9462H52.1927V5.62805H61.1825V15.9462Z" fill="black"/>
<path d="M71.3792 15.9462H63.1996V5.62805H71.3792V7.6925H65.8521V9.68291H70.199V11.7474H65.8521V13.8817H71.3792V15.9462Z" fill="black"/>
<path d="M72.8066 5.62805H78.9959C80.0291 5.62805 80.7786 5.86246 81.2454 6.33128C81.7111 6.79804 81.9445 7.5465 81.9445 8.57667V10.0489C81.9445 11.0832 81.7111 11.8327 81.2454 12.2984C80.7786 12.7652 80.0291 12.9975 78.9959 12.9975H75.4592V15.9462H72.8066V5.62805ZM79.292 8.57667C79.292 7.98756 78.9969 7.6925 78.4078 7.6925H75.4592V10.9331H78.4078C78.9969 10.9331 79.292 10.6391 79.292 10.0489V8.57667Z" fill="black"/>
<path d="M83.5188 5.62805H89.416C90.3783 5.62805 91.0857 5.84807 91.5381 6.28604C91.9904 6.72196 92.2166 7.38715 92.2166 8.28057C92.2166 8.87071 92.0871 9.34981 91.83 9.71993C91.5751 10.088 91.2605 10.345 90.8883 10.4931C91.683 10.71 92.2228 11.2405 92.5086 12.0846C92.6073 12.3889 92.6566 12.7426 92.6566 13.1456C92.6566 14.1079 92.4304 14.8152 91.9781 15.2676C91.5257 15.72 90.8184 15.9462 89.8561 15.9462H83.5188V5.62805ZM90.0041 12.7056C90.0041 12.1134 89.709 11.8173 89.1199 11.8173H86.1713V13.8817H89.1199C89.709 13.8817 90.0041 13.5877 90.0041 12.9975V12.7056ZM89.56 8.57667C89.56 7.98756 89.2649 7.6925 88.6758 7.6925H86.1713V9.75694H88.6758C89.2649 9.75694 89.56 9.4629 89.56 8.87276V8.57667Z" fill="black"/>
<path d="M96.0733 15.9462H93.1987L97.1055 5.62805H100.054L103.957 15.9462H101.086L100.42 14.1038H96.7354L96.0733 15.9462ZM97.4016 12.1874H99.7581L98.5778 8.72472L97.4016 12.1874Z" fill="black"/>
<path d="M113.785 15.9462H111.132V12.5575H109.142L107.3 15.9462H104.503L106.415 12.4095C105.787 12.2614 105.335 11.9612 105.058 11.5088C104.784 11.0565 104.647 10.4232 104.647 9.60889V8.57667C104.647 7.5465 104.879 6.79804 105.346 6.33128C105.815 5.86246 106.564 5.62805 107.596 5.62805H113.785V15.9462ZM107.3 9.60889C107.3 10.199 107.596 10.4931 108.188 10.4931H111.132V7.6925H108.188C107.596 7.6925 107.3 7.98756 107.3 8.57667V9.60889Z" fill="black"/>
<path d="M57.2059 31.8336H54.5492V23.5799H51.4567V21.5155H60.2984V23.5799H57.2059V31.8336Z" fill="black"/>
<path d="M61.5789 21.5155H67.7681C68.8013 21.5155 69.5508 21.7499 70.0176 22.2187C70.4833 22.6855 70.7167 23.434 70.7167 24.4641V25.9364C70.7167 26.9707 70.4833 27.7201 70.0176 28.1859C69.5508 28.6526 68.8013 28.885 67.7681 28.885H64.2314V31.8336H61.5789V21.5155ZM68.0642 24.4641C68.0642 23.875 67.7691 23.5799 67.18 23.5799H64.2314V26.8205H67.18C67.7691 26.8205 68.0642 26.5265 68.0642 25.9364V24.4641Z" fill="black"/>
<path d="M74.1334 31.8336H71.2588L75.1656 21.5155H78.1142L82.0169 31.8336H79.1464L78.4802 29.9912H74.7955L74.1334 31.8336ZM75.4617 28.0748H77.8181L76.6379 24.6122L75.4617 28.0748Z" fill="black"/>
<path d="M91.993 31.8336H89.3404V27.6348H85.6557V31.8336H83.0032V21.5155H85.6557V25.5704H89.3404V21.5155H91.993V31.8336Z" fill="black"/>
<path d="M101.968 31.6856C99.7766 31.883 97.9589 31.9817 96.5144 31.9817C95.5521 31.9817 94.8448 31.7555 94.3924 31.3031C93.9401 30.8507 93.7139 30.1434 93.7139 29.1811V24.4641C93.7139 23.434 93.9462 22.6855 94.413 22.2187C94.8818 21.7499 95.6313 21.5155 96.6625 21.5155H101.968V23.5799H97.2547C96.6625 23.5799 96.3664 23.875 96.3664 24.4641V29.1811C96.3664 29.4062 96.4322 29.5862 96.5638 29.7198C96.6974 29.8514 96.8681 29.9172 97.0737 29.9172C97.2814 29.9172 97.5076 29.9152 97.7523 29.909C97.999 29.9038 98.255 29.8966 98.5213 29.8884C98.7866 29.8781 99.0539 29.8679 99.3232 29.8596C99.5947 29.8494 99.9422 29.8298 100.368 29.8021C100.795 29.7722 101.328 29.7363 101.968 29.6951V31.6856Z" fill="black"/>
<path d="M112.386 31.8336H109.733V23.5799H106.049V31.8336H103.396V21.5155H112.386V31.8336Z" fill="black"/>
<path d="M121.036 24.3161C121.036 23.727 120.741 23.4319 120.152 23.4319H117.647C117.055 23.4319 116.759 23.727 116.759 24.3161V29.033C116.759 29.6232 117.055 29.9172 117.647 29.9172H120.152C120.741 29.9172 121.036 29.6232 121.036 29.033V24.3161ZM123.689 29.033C123.689 30.0642 123.454 30.8137 122.985 31.2825C122.519 31.7493 121.77 31.9816 120.74 31.9816H117.055C116.024 31.9816 115.275 31.7493 114.806 31.2825C114.339 30.8137 114.107 30.0642 114.107 29.033V24.3161C114.107 23.2859 114.339 22.5374 114.806 22.0707C115.275 21.6019 116.024 21.3674 117.055 21.3674H120.74C121.77 21.3674 122.519 21.6019 122.985 22.0707C123.454 22.5374 123.689 23.2859 123.689 24.3161V29.033Z" fill="black"/>
<path d="M125.41 21.5155H131.599C132.632 21.5155 133.382 21.7499 133.848 22.2187C134.314 22.6855 134.548 23.434 134.548 24.4641V25.9364C134.548 26.9707 134.314 27.7201 133.848 28.1859C133.382 28.6526 132.632 28.885 131.599 28.885H128.062V31.8336H125.41V21.5155ZM131.895 24.4641C131.895 23.875 131.6 23.5799 131.011 23.5799H128.062V26.8205H131.011C131.6 26.8205 131.895 26.5265 131.895 25.9364V24.4641Z" fill="black"/>
<path d="M141.135 31.8336H138.478V23.5799H135.386V21.5155H144.227V23.5799H141.135V31.8336Z" fill="black"/>
<path d="M154.498 31.8336H151.845V27.6348H148.16V31.8336H145.508V21.5155H148.16V25.5704H151.845V21.5155H154.498V31.8336Z" fill="black"/>
<path d="M158.357 31.8336H155.482L159.389 21.5155H162.338L166.241 31.8336H163.37L162.704 29.9912H159.019L158.357 31.8336ZM159.685 28.0748H162.042L160.861 24.6122L159.685 28.0748Z" fill="black"/>
<path d="M176.069 31.8336H173.416V28.445H171.426L169.583 31.8336H166.787L168.699 28.2969C168.071 28.1489 167.618 27.8487 167.342 27.3963C167.067 26.9439 166.931 26.3106 166.931 25.4963V24.4641C166.931 23.434 167.163 22.6855 167.63 22.2187C168.099 21.7499 168.848 21.5155 169.879 21.5155H176.069V31.8336ZM169.583 25.4963C169.583 26.0865 169.879 26.3805 170.471 26.3805H173.416V23.5799H170.471C169.879 23.5799 169.583 23.875 169.583 24.4641V25.4963Z" fill="black"/>
<path d="M59.7103 37.2549C59.9539 37.2549 60.395 37.3043 61.0345 37.403V39.3934H60.4464C60.2984 39.3934 60.1647 39.4407 60.0475 39.5332C59.9293 39.6268 59.8419 39.7285 59.7843 39.8375L58.382 42.49L61.2566 47.7211H58.456L56.1736 43.5223H54.8453V47.7211H52.1927V37.403H54.8453V41.4578H56.1736L57.6458 38.6573C57.8617 38.244 58.1291 37.9067 58.4478 37.6456C58.7685 37.3855 59.189 37.2549 59.7103 37.2549Z" fill="black"/>
<path d="M69.0226 40.2035C69.0226 39.6144 68.7275 39.3194 68.1384 39.3194H65.6339C65.0418 39.3194 64.7457 39.6144 64.7457 40.2035V44.9205C64.7457 45.5106 65.0418 45.8047 65.6339 45.8047H68.1384C68.7275 45.8047 69.0226 45.5106 69.0226 44.9205V40.2035ZM71.6751 44.9205C71.6751 45.9517 71.4407 46.7012 70.9719 47.17C70.5051 47.6368 69.7567 47.8691 68.7265 47.8691H65.0418C64.0106 47.8691 63.2611 47.6368 62.7923 47.17C62.3255 46.7012 62.0931 45.9517 62.0931 44.9205V40.2035C62.0931 39.1734 62.3255 38.4249 62.7923 37.9581C63.2611 37.4893 64.0106 37.2549 65.0418 37.2549H68.7265C69.7567 37.2549 70.5051 37.4893 70.9719 37.9581C71.4407 38.4249 71.6751 39.1734 71.6751 40.2035V44.9205Z" fill="black"/>
<path d="M82.2377 41.9719L80.1774 45.6566H78.113L76.0485 41.9719V47.7211H73.396V37.403H76.1966L79.1452 42.8561L82.0938 37.403H84.8944V47.7211H82.2377V41.9719Z" fill="black"/>
<path d="M95.8975 47.7211H93.245V39.4674H89.5602V47.7211H86.9077V37.403H95.8975V47.7211Z" fill="black"/>
<path d="M99.757 47.7211H96.8824L100.789 37.403H103.738L107.641 47.7211H104.77L104.104 45.8787H100.419L99.757 47.7211ZM101.085 43.9623H103.442L102.262 40.4996L101.085 43.9623Z" fill="black"/>
<path d="M117.616 47.7211H114.964V43.5223H111.279V47.7211H108.627V37.403H111.279V41.4578H114.964V37.403H117.616V47.7211Z" fill="black"/>
<path d="M128.623 47.7211H125.971V41.3838L122.434 47.7211H119.634V37.403H122.286V43.7402L125.823 37.403H128.623V47.7211Z" fill="black"/>
<path d="M139.482 47.7211H136.83V44.3324H134.839L132.997 47.7211H130.2L132.113 44.1844C131.485 44.0363 131.032 43.7361 130.756 43.2838C130.481 42.8314 130.344 42.1981 130.344 41.3838V40.3516C130.344 39.3214 130.577 38.573 131.043 38.1062C131.512 37.6374 132.262 37.403 133.293 37.403H139.482V47.7211ZM132.997 41.3838C132.997 41.9739 133.293 42.268 133.885 42.268H136.83V39.4674H133.885C133.293 39.4674 132.997 39.7625 132.997 40.3516V41.3838Z" fill="black"/>
<path d="M30.3198 55.3945V50.1101H28.7036V51.0035H29.3688V55.3945H30.3198Z" fill="black"/>
<path d="M33.666 52.2979V51.4322H33.0944V50.1101H32.1434V51.4322H31.6787V52.2979H32.1434V55.3945H33.0944V52.2979H33.666Z" fill="black"/>
<path d="M37.7276 55.3945L36.0836 53.3702L37.4993 51.4322H36.3622L35.0966 53.2993V50.1101H34.1456V55.3945H35.0966V53.5419L36.4476 55.3945H37.7276Z" fill="black"/>
<path d="M39.3725 55.3946V54.4795H38.4215V55.3946H39.3725Z" fill="black"/>
<path d="M44.4712 53.3846C44.4712 52.191 43.6128 51.2893 42.4757 51.2893C41.9606 51.2893 41.61 51.4322 41.246 51.7972V50.1101H40.295V55.3945H41.1669V54.8867C41.575 55.3226 41.9534 55.4871 42.5404 55.4871C43.6559 55.4871 44.4712 54.5793 44.4712 53.3846ZM43.513 53.3918C43.513 54.1145 43.0411 54.6152 42.3615 54.6152C41.6748 54.6152 41.1885 54.1074 41.1885 53.3846C41.1885 52.6701 41.6748 52.1622 42.34 52.1622C43.0195 52.1622 43.513 52.6844 43.513 53.3918Z" fill="black"/>
<path d="M48.69 51.4322H47.5961L46.6379 54.0004L45.7579 51.4322H44.6711L46.1228 55.0224L45.3785 56.7177H46.4015L48.69 51.4322Z" fill="black"/>
<defs>
<linearGradient id="paint0_linear_2427_1623" x1="27.5974" y1="28.058" x2="47.7188" y2="28.058" gradientUnits="userSpaceOnUse">
<stop stop-color="#A6A6A6"/>
<stop offset="0.0078125" stop-color="#A6A6A6"/>
<stop offset="0.015625" stop-color="#A7A7A7"/>
<stop offset="0.0234375" stop-color="#A8A8A8"/>
<stop offset="0.03125" stop-color="#A8A8A8"/>
<stop offset="0.0390625" stop-color="#A9A9A9"/>
<stop offset="0.046875" stop-color="#AAAAAA"/>
<stop offset="0.0546875" stop-color="#ABABAB"/>
<stop offset="0.0625" stop-color="#ABABAB"/>
<stop offset="0.0703125" stop-color="#ACACAC"/>
<stop offset="0.078125" stop-color="#ADADAD"/>
<stop offset="0.0859375" stop-color="#ADADAD"/>
<stop offset="0.09375" stop-color="#AEAEAE"/>
<stop offset="0.101562" stop-color="#AFAFAF"/>
<stop offset="0.109375" stop-color="#AFAFAF"/>
<stop offset="0.117188" stop-color="#B0B0B0"/>
<stop offset="0.125" stop-color="#B1B1B1"/>
<stop offset="0.132812" stop-color="#B1B1B1"/>
<stop offset="0.140625" stop-color="#B2B2B2"/>
<stop offset="0.148438" stop-color="#B3B3B3"/>
<stop offset="0.15625" stop-color="#B4B4B4"/>
<stop offset="0.164062" stop-color="#B4B4B4"/>
<stop offset="0.171875" stop-color="#B5B5B5"/>
<stop offset="0.179688" stop-color="#B6B6B6"/>
<stop offset="0.1875" stop-color="#B6B6B6"/>
<stop offset="0.195312" stop-color="#B7B7B7"/>
<stop offset="0.203125" stop-color="#B8B8B8"/>
<stop offset="0.210938" stop-color="#B8B8B8"/>
<stop offset="0.21875" stop-color="#B9B9B9"/>
<stop offset="0.226562" stop-color="#BABABA"/>
<stop offset="0.234375" stop-color="#BBBBBB"/>
<stop offset="0.242188" stop-color="#BBBBBB"/>
<stop offset="0.25" stop-color="#BCBCBC"/>
<stop offset="0.257812" stop-color="#BDBDBD"/>
<stop offset="0.265625" stop-color="#BDBDBD"/>
<stop offset="0.273438" stop-color="#BEBEBE"/>
<stop offset="0.28125" stop-color="#BFBFBF"/>
<stop offset="0.289062" stop-color="#BFBFBF"/>
<stop offset="0.296875" stop-color="#C0C0C0"/>
<stop offset="0.304688" stop-color="#C1C1C1"/>
<stop offset="0.3125" stop-color="#C1C1C1"/>
<stop offset="0.320312" stop-color="#C2C2C2"/>
<stop offset="0.328125" stop-color="#C3C3C3"/>
<stop offset="0.335938" stop-color="#C4C4C4"/>
<stop offset="0.34375" stop-color="#C4C4C4"/>
<stop offset="0.351562" stop-color="#C5C5C5"/>
<stop offset="0.359375" stop-color="#C6C6C6"/>
<stop offset="0.367188" stop-color="#C6C6C6"/>
<stop offset="0.375" stop-color="#C7C7C7"/>
<stop offset="0.382812" stop-color="#C8C8C8"/>
<stop offset="0.390625" stop-color="#C8C8C8"/>
<stop offset="0.398438" stop-color="#C9C9C9"/>
<stop offset="0.40625" stop-color="#CACACA"/>
<stop offset="0.414062" stop-color="#CBCBCB"/>
<stop offset="0.421875" stop-color="#CBCBCB"/>
<stop offset="0.429688" stop-color="#CCCCCC"/>
<stop offset="0.4375" stop-color="#CDCDCD"/>
<stop offset="0.445312" stop-color="#CDCDCD"/>
<stop offset="0.453125" stop-color="#CECECE"/>
<stop offset="0.460938" stop-color="#CFCFCF"/>
<stop offset="0.46875" stop-color="#CFCFCF"/>
<stop offset="0.476562" stop-color="#D0D0D0"/>
<stop offset="0.484375" stop-color="#D1D1D1"/>
<stop offset="0.492188" stop-color="#D1D1D1"/>
<stop offset="0.5" stop-color="#D2D2D2"/>
<stop offset="0.507813" stop-color="#D3D3D3"/>
<stop offset="0.515625" stop-color="#D4D4D4"/>
<stop offset="0.523438" stop-color="#D4D4D4"/>
<stop offset="0.53125" stop-color="#D5D5D5"/>
<stop offset="0.539062" stop-color="#D6D6D6"/>
<stop offset="0.546875" stop-color="#D6D6D6"/>
<stop offset="0.554688" stop-color="#D7D7D7"/>
<stop offset="0.5625" stop-color="#D8D8D8"/>
<stop offset="0.570312" stop-color="#D8D8D8"/>
<stop offset="0.578125" stop-color="#D9D9D9"/>
<stop offset="0.585938" stop-color="#DADADA"/>
<stop offset="0.59375" stop-color="#DADADA"/>
<stop offset="0.601562" stop-color="#DBDBDB"/>
<stop offset="0.609375" stop-color="#DCDCDC"/>
<stop offset="0.617187" stop-color="#DDDDDD"/>
<stop offset="0.625" stop-color="#DDDDDD"/>
<stop offset="0.632813" stop-color="#DEDEDE"/>
<stop offset="0.640625" stop-color="#DFDFDF"/>
<stop offset="0.648438" stop-color="#DFDFDF"/>
<stop offset="0.65625" stop-color="#E0E0E0"/>
<stop offset="0.664062" stop-color="#E1E1E1"/>
<stop offset="0.671875" stop-color="#E1E1E1"/>
<stop offset="0.679688" stop-color="#E2E2E2"/>
<stop offset="0.6875" stop-color="#E3E3E3"/>
<stop offset="0.695312" stop-color="#E4E4E4"/>
<stop offset="0.703125" stop-color="#E4E4E4"/>
<stop offset="0.710938" stop-color="#E5E5E5"/>
<stop offset="0.71875" stop-color="#E6E6E6"/>
<stop offset="0.726562" stop-color="#E6E6E6"/>
<stop offset="0.734375" stop-color="#E7E7E7"/>
<stop offset="0.742187" stop-color="#E8E8E8"/>
<stop offset="0.75" stop-color="#E8E8E8"/>
<stop offset="0.757813" stop-color="#E9E9E9"/>
<stop offset="0.765625" stop-color="#EAEAEA"/>
<stop offset="0.773438" stop-color="#EAEAEA"/>
<stop offset="0.78125" stop-color="#EBEBEB"/>
<stop offset="0.789062" stop-color="#ECECEC"/>
<stop offset="0.796875" stop-color="#EDEDED"/>
<stop offset="0.804688" stop-color="#EDEDED"/>
<stop offset="0.8125" stop-color="#EEEEEE"/>
<stop offset="0.820312" stop-color="#EFEFEF"/>
<stop offset="0.828125" stop-color="#EFEFEF"/>
<stop offset="0.835938" stop-color="#F0F0F0"/>
<stop offset="0.84375" stop-color="#F1F1F1"/>
<stop offset="0.851562" stop-color="#F1F1F1"/>
<stop offset="0.859375" stop-color="#F2F2F2"/>
<stop offset="0.867187" stop-color="#F3F3F3"/>
<stop offset="0.875" stop-color="#F4F4F4"/>
<stop offset="0.882813" stop-color="#F4F4F4"/>
<stop offset="0.890625" stop-color="#F5F5F5"/>
<stop offset="0.898438" stop-color="#F6F6F6"/>
<stop offset="0.90625" stop-color="#F6F6F6"/>
<stop offset="0.914062" stop-color="#F7F7F7"/>
<stop offset="0.921875" stop-color="#F8F8F8"/>
<stop offset="0.929688" stop-color="#F8F8F8"/>
<stop offset="0.9375" stop-color="#F9F9F9"/>
<stop offset="0.945312" stop-color="#FAFAFA"/>
<stop offset="0.953125" stop-color="#FAFAFA"/>
<stop offset="0.960938" stop-color="#FBFBFB"/>
<stop offset="0.96875" stop-color="#FCFCFC"/>
<stop offset="0.976562" stop-color="#FDFDFD"/>
<stop offset="0.984375" stop-color="#FDFDFD"/>
<stop offset="0.992187" stop-color="#FEFEFE"/>
<stop offset="1" stop-color="white"/>
</linearGradient>
</defs>
</svg>
