<svg width="186" height="56" viewBox="0 0 186 56" fill="none" xmlns="http://www.w3.org/2000/svg">
<mask id="mask0_2477_2373" style="mask-type:luminance" maskUnits="userSpaceOnUse" x="24" y="24" width="23" height="23">
<path d="M24.2583 24.7681H46.1779V46.695H24.2583V24.7681Z" fill="white"/>
</mask>
<g mask="url(#mask0_2477_2373)">
<path d="M24.2583 24.7681V46.695H46.1779V24.7681H24.2583Z" fill="url(#paint0_linear_2477_2373)"/>
</g>
<mask id="mask1_2477_2373" style="mask-type:luminance" maskUnits="userSpaceOnUse" x="0" y="0" width="22" height="22">
<path d="M0 0H21.9196V21.927H0V0Z" fill="white"/>
</mask>
<g mask="url(#mask1_2477_2373)">
<path d="M0 0H21.9196V21.927H0V0Z" fill="white"/>
</g>
<mask id="mask2_2477_2373" style="mask-type:luminance" maskUnits="userSpaceOnUse" x="0" y="24" width="22" height="23">
<path d="M0 24.7681H21.9196V46.695H0V24.7681Z" fill="white"/>
</mask>
<g mask="url(#mask2_2477_2373)">
<path d="M0 24.7681H21.9196V46.695H0V24.7681Z" fill="#ABABAB"/>
</g>
<mask id="mask3_2477_2373" style="mask-type:luminance" maskUnits="userSpaceOnUse" x="24" y="0" width="23" height="22">
<path d="M24.2583 0H46.1779V21.927H24.2583V0Z" fill="white"/>
</mask>
<g mask="url(#mask3_2477_2373)">
<path d="M24.2583 0H46.1779V21.927H24.2583V0Z" fill="#C5A471"/>
</g>
<path d="M60.8451 11.5693H57.9555V2.57492H53.9414V11.5693H51.0518V0.325195H60.8451V11.5693Z" fill="white"/>
<path d="M71.9532 11.5693H63.0425V0.325195H71.9532V2.57492H65.9321V4.74398H70.6675V6.9937H65.9321V9.31961H71.9532V11.5693Z" fill="white"/>
<path d="M73.5083 0.325195H80.2507C81.3763 0.325195 82.1928 0.580642 82.7013 1.09154C83.2087 1.60019 83.4629 2.41583 83.4629 3.53845V5.14283C83.4629 6.26994 83.2087 7.0867 82.7013 7.59423C82.1928 8.10288 81.3763 8.35609 80.2507 8.35609H76.3979V11.5693H73.5083V0.325195ZM80.5733 3.53845C80.5733 2.89647 80.2519 2.57492 79.6101 2.57492H76.3979V6.10636H79.6101C80.2519 6.10636 80.5733 5.78593 80.5733 5.14283V3.53845Z" fill="white"/>
<path d="M85.178 0.325195H91.6023C92.6507 0.325195 93.4212 0.564957 93.914 1.04224C94.4068 1.51728 94.6532 2.24217 94.6532 3.21578C94.6532 3.85888 94.5121 4.38097 94.2321 4.78431C93.9543 5.18541 93.6116 5.4655 93.2062 5.62684C94.0719 5.86324 94.6599 6.44136 94.9713 7.36119C95.0788 7.69282 95.1326 8.07823 95.1326 8.51742C95.1326 9.5661 94.8862 10.3369 94.3934 10.8299C93.9006 11.3229 93.13 11.5693 92.0817 11.5693H85.178V0.325195ZM92.243 8.0379C92.243 7.39256 91.9215 7.06989 91.2798 7.06989H88.0676V9.31961H91.2798C91.9215 9.31961 92.243 8.99919 92.243 8.35609V8.0379ZM91.7591 3.53845C91.7591 2.89647 91.4377 2.57492 90.7959 2.57492H88.0676V4.82465H90.7959C91.4377 4.82465 91.7591 4.50422 91.7591 3.86112V3.53845Z" fill="white"/>
<path d="M98.8547 11.5693H95.7231L99.9792 0.325195H103.191L107.443 11.5693H104.316L103.59 9.56162H99.576L98.8547 11.5693ZM100.302 7.47323H102.869L101.583 3.69978L100.302 7.47323Z" fill="white"/>
<path d="M118.149 11.5693H115.26V7.87656H113.091L111.084 11.5693H108.038L110.121 7.71523C109.437 7.55389 108.944 7.22674 108.643 6.73378C108.344 6.24081 108.195 5.55065 108.195 4.66331V3.53845C108.195 2.41583 108.448 1.60019 108.956 1.09154C109.467 0.580642 110.283 0.325195 111.407 0.325195H118.149V11.5693ZM111.084 4.66331C111.084 5.30641 111.407 5.62684 112.052 5.62684H115.26V2.57492H112.052C111.407 2.57492 111.084 2.89647 111.084 3.53845V4.66331Z" fill="white"/>
<path d="M56.5131 28.8828H53.619V19.8884H50.25V17.6387H59.882V19.8884H56.5131V28.8828Z" fill="white"/>
<path d="M61.2769 17.6387H68.0193C69.1449 17.6387 69.9614 17.8941 70.4699 18.405C70.9772 18.9137 71.2315 19.7293 71.2315 20.8519V22.4563C71.2315 23.5834 70.9772 24.4002 70.4699 24.9077C69.9614 25.4164 69.1449 25.6696 68.0193 25.6696H64.1665V28.8828H61.2769V17.6387ZM68.3418 20.8519C68.3418 20.2099 68.0204 19.8884 67.3786 19.8884H64.1665V23.4198H67.3786C68.0204 23.4198 68.3418 23.0994 68.3418 22.4563V20.8519Z" fill="white"/>
<path d="M74.9536 28.8828H71.822L76.078 17.6387H79.2902L83.5418 28.8828H80.4147L79.6889 26.8751H75.6748L74.9536 28.8828ZM76.4006 24.7867H78.9677L77.6819 21.0133L76.4006 24.7867Z" fill="white"/>
<path d="M94.4095 28.8828H91.5199V24.3072H87.5058V28.8828H84.6162V17.6387H87.5058V22.0575H91.5199V17.6387H94.4095V28.8828Z" fill="white"/>
<path d="M105.276 28.7215C102.889 28.9366 100.909 29.0442 99.3351 29.0442C98.2867 29.0442 97.5162 28.7977 97.0234 28.3047C96.5306 27.8117 96.2842 27.0409 96.2842 25.9922V20.8519C96.2842 19.7293 96.5373 18.9137 97.0458 18.405C97.5565 17.8941 98.373 17.6387 99.4964 17.6387H105.276V19.8884H100.141C99.4964 19.8884 99.1738 20.2099 99.1738 20.8519V25.9922C99.1738 26.2376 99.2455 26.4337 99.3888 26.5793C99.5344 26.7227 99.7204 26.7944 99.9444 26.7944C100.171 26.7944 100.417 26.7922 100.684 26.7855C100.952 26.7799 101.231 26.772 101.521 26.7631C101.81 26.7519 102.101 26.7406 102.395 26.7317C102.691 26.7205 103.069 26.6992 103.533 26.6689C103.999 26.6365 104.579 26.5972 105.276 26.5524V28.7215Z" fill="white"/>
<path d="M116.625 28.8828H113.735V19.8884H109.721V28.8828H106.832V17.6387H116.625V28.8828Z" fill="white"/>
<path d="M126.049 20.6903C126.049 20.0483 125.727 19.7268 125.085 19.7268H122.357C121.712 19.7268 121.389 20.0483 121.389 20.6903V25.8306C121.389 26.4737 121.712 26.7941 122.357 26.7941H125.085C125.727 26.7941 126.049 26.4737 126.049 25.8306V20.6903ZM128.938 25.8306C128.938 26.9544 128.683 27.7711 128.172 28.282C127.664 28.7907 126.848 29.0439 125.726 29.0439H121.712C120.589 29.0439 119.772 28.7907 119.261 28.282C118.753 27.7711 118.5 26.9544 118.5 25.8306V20.6903C118.5 19.5677 118.753 18.752 119.261 18.2434C119.772 17.7325 120.589 17.4771 121.712 17.4771H125.726C126.848 17.4771 127.664 17.7325 128.172 18.2434C128.683 18.752 128.938 19.5677 128.938 20.6903V25.8306Z" fill="white"/>
<path d="M130.813 17.6387H137.555C138.681 17.6387 139.498 17.8941 140.006 18.405C140.513 18.9137 140.768 19.7293 140.768 20.8519V22.4563C140.768 23.5834 140.513 24.4002 140.006 24.9077C139.498 25.4164 138.681 25.6696 137.555 25.6696H133.703V28.8828H130.813V17.6387ZM137.878 20.8519C137.878 20.2099 137.557 19.8884 136.915 19.8884H133.703V23.4198H136.915C137.557 23.4198 137.878 23.0994 137.878 22.4563V20.8519Z" fill="white"/>
<path d="M147.944 28.8828H145.05V19.8884H141.681V17.6387H151.313V19.8884H147.944V28.8828Z" fill="white"/>
<path d="M162.501 28.8828H159.611V24.3072H155.597V28.8828H152.708V17.6387H155.597V22.0575H159.611V17.6387H162.501V28.8828Z" fill="white"/>
<path d="M166.705 28.8828H163.574L167.83 17.6387H171.042L175.293 28.8828H172.166L171.441 26.8751H167.427L166.705 28.8828ZM168.152 24.7867H170.719L169.434 21.0133L168.152 24.7867Z" fill="white"/>
<path d="M186 28.8828H183.11V25.19H180.942L178.935 28.8828H175.889L177.972 25.0287C177.288 24.8674 176.795 24.5402 176.493 24.0473C176.194 23.5543 176.045 22.8641 176.045 21.9768V20.8519C176.045 19.7293 176.299 18.9137 176.807 18.405C177.318 17.8941 178.134 17.6387 179.258 17.6387H186V28.8828ZM178.935 21.9768C178.935 22.6199 179.258 22.9403 179.903 22.9403H183.11V19.8884H179.903C179.258 19.8884 178.935 20.2099 178.935 20.8519V21.9768Z" fill="white"/>
<path d="M59.2412 34.7905C59.5067 34.7905 59.9872 34.8443 60.6838 34.9519V37.1209H60.0432C59.8819 37.1209 59.7363 37.1725 59.6086 37.2733C59.4798 37.3752 59.3846 37.4862 59.3219 37.6049L57.7942 40.4955L60.9257 46.196H57.8748L55.3884 41.6204H53.9414V46.196H51.0518V34.9519H53.9414V39.3706H55.3884L56.9923 36.3187C57.2275 35.8683 57.5187 35.5008 57.8659 35.2163C58.2153 34.9328 58.6734 34.7905 59.2412 34.7905Z" fill="white"/>
<path d="M69.386 38.0038C69.386 37.3618 69.0646 37.0403 68.4228 37.0403H65.6945C65.0493 37.0403 64.7268 37.3618 64.7268 38.0038V43.1441C64.7268 43.7872 65.0493 44.1076 65.6945 44.1076H68.4228C69.0646 44.1076 69.386 43.7872 69.386 43.1441V38.0038ZM72.2756 43.1441C72.2756 44.2678 72.0202 45.0846 71.5095 45.5955C71.001 46.1041 70.1857 46.3573 69.0634 46.3573H65.0493C63.926 46.3573 63.1095 46.1041 62.5988 45.5955C62.0903 45.0846 61.8372 44.2678 61.8372 43.1441V38.0038C61.8372 36.8812 62.0903 36.0655 62.5988 35.5569C63.1095 35.046 63.926 34.7905 65.0493 34.7905H69.0634C70.1857 34.7905 71.001 35.046 71.5095 35.5569C72.0202 36.0655 72.2756 36.8812 72.2756 38.0038V43.1441Z" fill="white"/>
<path d="M83.7824 39.9306L81.5379 43.9461H79.289L77.04 39.9306V46.1958H74.1504V34.9517H77.2013L80.4135 40.8942L83.6256 34.9517H86.6765V46.1958H83.7824V39.9306Z" fill="white"/>
<path d="M98.6632 46.1958H95.7736V37.2014H91.7595V46.1958H88.8699V34.9517H98.6632V46.1958Z" fill="white"/>
<path d="M102.867 46.1958H99.7358L103.992 34.9517H107.204L111.456 46.1958H108.329L107.603 44.1881H103.589L102.867 46.1958ZM104.314 42.0997H106.881L105.596 38.3262L104.314 42.0997Z" fill="white"/>
<path d="M122.323 46.1958H119.434V41.6202H115.42V46.1958H112.53V34.9517H115.42V39.3704H119.434V34.9517H122.323V46.1958Z" fill="white"/>
<path d="M134.314 46.1958H131.424V39.2898L127.572 46.1958H124.521V34.9517H127.41V41.8577L131.263 34.9517H134.314V46.1958Z" fill="white"/>
<path d="M146.143 46.1958H143.254V42.503H141.085L139.078 46.1958H136.032L138.115 42.3417C137.431 42.1804 136.938 41.8532 136.637 41.3602C136.338 40.8673 136.189 40.1771 136.189 39.2898V38.1649C136.189 37.0423 136.442 36.2267 136.95 35.718C137.461 35.2071 138.278 34.9517 139.401 34.9517H146.143V46.1958ZM139.078 39.2898C139.078 39.9329 139.401 40.2533 140.046 40.2533H143.254V37.2014H140.046C139.401 37.2014 139.078 37.5229 139.078 38.1649V39.2898Z" fill="white"/>
<path d="M27.2238 54.5581V48.7993H25.4631V49.7729H26.1878V54.5581H27.2238Z" fill="white"/>
<path d="M30.8691 51.1835V50.2401H30.2463V48.7993H29.2103V50.2401H28.7041V51.1835H29.2103V54.5581H30.2463V51.1835H30.8691Z" fill="white"/>
<path d="M35.2937 54.5581L33.5028 52.352L35.0451 50.2401H33.8063L32.4276 52.2747V48.7993H31.3916V54.5581H32.4276V52.5391L33.8993 54.5581H35.2937Z" fill="white"/>
<path d="M37.0856 54.5582V53.561H36.0496V54.5582H37.0856Z" fill="white"/>
<path d="M42.6403 52.3677C42.6403 51.067 41.7051 50.0844 40.4664 50.0844C39.9052 50.0844 39.5233 50.2401 39.1268 50.6379V48.7993H38.0908V54.5581H39.0406V54.0046C39.4852 54.4796 39.8974 54.6589 40.5369 54.6589C41.7521 54.6589 42.6403 53.6696 42.6403 52.3677ZM41.5964 52.3756C41.5964 53.1632 41.0824 53.7088 40.342 53.7088C39.5939 53.7088 39.0641 53.1554 39.0641 52.3677C39.0641 51.5891 39.5939 51.0356 40.3185 51.0356C41.0588 51.0356 41.5964 51.6048 41.5964 52.3756Z" fill="white"/>
<path d="M47.236 50.2402H46.0443L45.0005 53.0389L44.0418 50.2402H42.8579L44.4394 54.1526L43.6285 56.0001H44.7429L47.236 50.2402Z" fill="white"/>
<defs>
<linearGradient id="paint0_linear_2477_2373" x1="24.2582" y1="24.7679" x2="46.1781" y2="24.7679" gradientUnits="userSpaceOnUse">
<stop stop-color="#A6A6A6"/>
<stop offset="0.0078125" stop-color="#A6A6A6"/>
<stop offset="0.015625" stop-color="#A7A7A7"/>
<stop offset="0.0234375" stop-color="#A8A8A8"/>
<stop offset="0.03125" stop-color="#A8A8A8"/>
<stop offset="0.0390625" stop-color="#A9A9A9"/>
<stop offset="0.046875" stop-color="#AAAAAA"/>
<stop offset="0.0546875" stop-color="#ABABAB"/>
<stop offset="0.0625" stop-color="#ABABAB"/>
<stop offset="0.0703125" stop-color="#ACACAC"/>
<stop offset="0.078125" stop-color="#ADADAD"/>
<stop offset="0.0859375" stop-color="#ADADAD"/>
<stop offset="0.09375" stop-color="#AEAEAE"/>
<stop offset="0.101562" stop-color="#AFAFAF"/>
<stop offset="0.109375" stop-color="#AFAFAF"/>
<stop offset="0.117188" stop-color="#B0B0B0"/>
<stop offset="0.125" stop-color="#B1B1B1"/>
<stop offset="0.132812" stop-color="#B1B1B1"/>
<stop offset="0.140625" stop-color="#B2B2B2"/>
<stop offset="0.148438" stop-color="#B3B3B3"/>
<stop offset="0.15625" stop-color="#B4B4B4"/>
<stop offset="0.164062" stop-color="#B4B4B4"/>
<stop offset="0.171875" stop-color="#B5B5B5"/>
<stop offset="0.179688" stop-color="#B6B6B6"/>
<stop offset="0.1875" stop-color="#B6B6B6"/>
<stop offset="0.195312" stop-color="#B7B7B7"/>
<stop offset="0.203125" stop-color="#B8B8B8"/>
<stop offset="0.210938" stop-color="#B8B8B8"/>
<stop offset="0.21875" stop-color="#B9B9B9"/>
<stop offset="0.226562" stop-color="#BABABA"/>
<stop offset="0.234375" stop-color="#BBBBBB"/>
<stop offset="0.242188" stop-color="#BBBBBB"/>
<stop offset="0.25" stop-color="#BCBCBC"/>
<stop offset="0.257812" stop-color="#BDBDBD"/>
<stop offset="0.265625" stop-color="#BDBDBD"/>
<stop offset="0.273438" stop-color="#BEBEBE"/>
<stop offset="0.28125" stop-color="#BFBFBF"/>
<stop offset="0.289062" stop-color="#BFBFBF"/>
<stop offset="0.296875" stop-color="#C0C0C0"/>
<stop offset="0.304688" stop-color="#C1C1C1"/>
<stop offset="0.3125" stop-color="#C1C1C1"/>
<stop offset="0.320312" stop-color="#C2C2C2"/>
<stop offset="0.328125" stop-color="#C3C3C3"/>
<stop offset="0.335938" stop-color="#C4C4C4"/>
<stop offset="0.34375" stop-color="#C4C4C4"/>
<stop offset="0.351562" stop-color="#C5C5C5"/>
<stop offset="0.359375" stop-color="#C6C6C6"/>
<stop offset="0.367188" stop-color="#C6C6C6"/>
<stop offset="0.375" stop-color="#C7C7C7"/>
<stop offset="0.382812" stop-color="#C8C8C8"/>
<stop offset="0.390625" stop-color="#C8C8C8"/>
<stop offset="0.398438" stop-color="#C9C9C9"/>
<stop offset="0.40625" stop-color="#CACACA"/>
<stop offset="0.414062" stop-color="#CBCBCB"/>
<stop offset="0.421875" stop-color="#CBCBCB"/>
<stop offset="0.429688" stop-color="#CCCCCC"/>
<stop offset="0.4375" stop-color="#CDCDCD"/>
<stop offset="0.445312" stop-color="#CDCDCD"/>
<stop offset="0.453125" stop-color="#CECECE"/>
<stop offset="0.460938" stop-color="#CFCFCF"/>
<stop offset="0.46875" stop-color="#CFCFCF"/>
<stop offset="0.476562" stop-color="#D0D0D0"/>
<stop offset="0.484375" stop-color="#D1D1D1"/>
<stop offset="0.492188" stop-color="#D1D1D1"/>
<stop offset="0.5" stop-color="#D2D2D2"/>
<stop offset="0.507813" stop-color="#D3D3D3"/>
<stop offset="0.515625" stop-color="#D4D4D4"/>
<stop offset="0.523438" stop-color="#D4D4D4"/>
<stop offset="0.53125" stop-color="#D5D5D5"/>
<stop offset="0.539062" stop-color="#D6D6D6"/>
<stop offset="0.546875" stop-color="#D6D6D6"/>
<stop offset="0.554688" stop-color="#D7D7D7"/>
<stop offset="0.5625" stop-color="#D8D8D8"/>
<stop offset="0.570312" stop-color="#D8D8D8"/>
<stop offset="0.578125" stop-color="#D9D9D9"/>
<stop offset="0.585938" stop-color="#DADADA"/>
<stop offset="0.59375" stop-color="#DADADA"/>
<stop offset="0.601562" stop-color="#DBDBDB"/>
<stop offset="0.609375" stop-color="#DCDCDC"/>
<stop offset="0.617187" stop-color="#DDDDDD"/>
<stop offset="0.625" stop-color="#DDDDDD"/>
<stop offset="0.632813" stop-color="#DEDEDE"/>
<stop offset="0.640625" stop-color="#DFDFDF"/>
<stop offset="0.648438" stop-color="#DFDFDF"/>
<stop offset="0.65625" stop-color="#E0E0E0"/>
<stop offset="0.664062" stop-color="#E1E1E1"/>
<stop offset="0.671875" stop-color="#E1E1E1"/>
<stop offset="0.679688" stop-color="#E2E2E2"/>
<stop offset="0.6875" stop-color="#E3E3E3"/>
<stop offset="0.695312" stop-color="#E4E4E4"/>
<stop offset="0.703125" stop-color="#E4E4E4"/>
<stop offset="0.710938" stop-color="#E5E5E5"/>
<stop offset="0.71875" stop-color="#E6E6E6"/>
<stop offset="0.726562" stop-color="#E6E6E6"/>
<stop offset="0.734375" stop-color="#E7E7E7"/>
<stop offset="0.742187" stop-color="#E8E8E8"/>
<stop offset="0.75" stop-color="#E8E8E8"/>
<stop offset="0.757813" stop-color="#E9E9E9"/>
<stop offset="0.765625" stop-color="#EAEAEA"/>
<stop offset="0.773438" stop-color="#EAEAEA"/>
<stop offset="0.78125" stop-color="#EBEBEB"/>
<stop offset="0.789062" stop-color="#ECECEC"/>
<stop offset="0.796875" stop-color="#EDEDED"/>
<stop offset="0.804688" stop-color="#EDEDED"/>
<stop offset="0.8125" stop-color="#EEEEEE"/>
<stop offset="0.820312" stop-color="#EFEFEF"/>
<stop offset="0.828125" stop-color="#EFEFEF"/>
<stop offset="0.835938" stop-color="#F0F0F0"/>
<stop offset="0.84375" stop-color="#F1F1F1"/>
<stop offset="0.851562" stop-color="#F1F1F1"/>
<stop offset="0.859375" stop-color="#F2F2F2"/>
<stop offset="0.867187" stop-color="#F3F3F3"/>
<stop offset="0.875" stop-color="#F4F4F4"/>
<stop offset="0.882813" stop-color="#F4F4F4"/>
<stop offset="0.890625" stop-color="#F5F5F5"/>
<stop offset="0.898438" stop-color="#F6F6F6"/>
<stop offset="0.90625" stop-color="#F6F6F6"/>
<stop offset="0.914062" stop-color="#F7F7F7"/>
<stop offset="0.921875" stop-color="#F8F8F8"/>
<stop offset="0.929688" stop-color="#F8F8F8"/>
<stop offset="0.9375" stop-color="#F9F9F9"/>
<stop offset="0.945312" stop-color="#FAFAFA"/>
<stop offset="0.953125" stop-color="#FAFAFA"/>
<stop offset="0.960938" stop-color="#FBFBFB"/>
<stop offset="0.96875" stop-color="#FCFCFC"/>
<stop offset="0.976562" stop-color="#FDFDFD"/>
<stop offset="0.984375" stop-color="#FDFDFD"/>
<stop offset="0.992187" stop-color="#FEFEFE"/>
<stop offset="1" stop-color="white"/>
</linearGradient>
</defs>
</svg>
