<svg width="55" height="50" viewBox="0 0 55 50" fill="none" xmlns="http://www.w3.org/2000/svg">
<g clip-path="url(#clip0_1225_319)">
<path d="M33.5926 31.2647H21.3097C21.0811 31.2647 20.8619 31.1739 20.7002 31.0122C20.5386 30.8506 20.4478 30.6314 20.4478 30.4028V22.9684C20.4478 22.7398 20.5386 22.5205 20.7002 22.3589C20.8619 22.1972 21.0811 22.1064 21.3097 22.1064H33.5926C33.8212 22.1064 34.0404 22.1972 34.2021 22.3589C34.3637 22.5205 34.4546 22.7398 34.4546 22.9684V30.4028C34.4546 30.6314 34.3637 30.8506 34.2021 31.0122C34.0404 31.1739 33.8212 31.2647 33.5926 31.2647Z" stroke="white" stroke-width="1.18635" stroke-miterlimit="10" stroke-linecap="round" stroke-linejoin="round"/>
<path d="M29.0673 45.2289H25.835V31.2648H29.0673V45.2289Z" stroke="white" stroke-width="1.18635" stroke-miterlimit="10" stroke-linecap="round" stroke-linejoin="round"/>
<path d="M34.724 49H20.1785C19.1371 49 18.293 48.1558 18.293 47.1145C18.293 46.0731 19.1371 45.2289 20.1785 45.2289H34.724C35.7654 45.2289 36.6095 46.0731 36.6095 47.1145C36.6095 48.1558 35.7654 49 34.724 49Z" stroke="white" stroke-width="1.18635" stroke-miterlimit="10" stroke-linecap="round" stroke-linejoin="round"/>
<path d="M19.9687 12.3655C19.9687 11.3808 19.1726 10.5826 18.1909 10.5826C17.209 10.5826 16.4131 11.3808 16.4131 12.3655V12.397C16.4131 13.3816 17.209 14.1798 18.1909 14.1798C19.1726 14.1798 19.9687 14.978 19.9687 15.9626V15.9942C19.9687 16.9788 19.1726 17.777 18.1909 17.777C17.209 17.777 16.4131 16.9788 16.4131 15.9942" stroke="white" stroke-width="1.18635" stroke-miterlimit="10" stroke-linecap="round" stroke-linejoin="round"/>
<path d="M4.15186 17.777V14.1799" stroke="white" stroke-width="1.18635" stroke-miterlimit="10" stroke-linecap="round" stroke-linejoin="round"/>
<path d="M7.70732 12.8143V11.9483C7.70732 11.1941 7.0977 10.5827 6.34564 10.5827H4.65276C4.51973 10.5829 4.39223 10.6359 4.29829 10.7301C4.20436 10.8243 4.15168 10.952 4.15186 11.085V14.1799H6.34564C7.0977 14.1799 7.70732 13.5685 7.70732 12.8143Z" stroke="white" stroke-width="1.18635" stroke-miterlimit="10" stroke-linecap="round" stroke-linejoin="round"/>
<path d="M6.24268 14.1799L7.3379 17.777" stroke="white" stroke-width="1.18635" stroke-miterlimit="10" stroke-linecap="round" stroke-linejoin="round"/>
<path d="M10.4126 17.777V10.5827H13.6449" stroke="white" stroke-width="1.18635" stroke-miterlimit="10" stroke-linecap="round" stroke-linejoin="round"/>
<path d="M10.4126 14.7098H13.6449" stroke="white" stroke-width="1.18635" stroke-miterlimit="10" stroke-linecap="round" stroke-linejoin="round"/>
<path d="M10.4126 17.777H13.6449" stroke="white" stroke-width="1.18635" stroke-miterlimit="10" stroke-linecap="round" stroke-linejoin="round"/>
<path d="M22.896 10.5827V17.777" stroke="white" stroke-width="1.18635" stroke-miterlimit="10" stroke-linecap="round" stroke-linejoin="round"/>
<path d="M26.1283 10.5827H22.896" stroke="white" stroke-width="1.18635" stroke-miterlimit="10" stroke-linecap="round" stroke-linejoin="round"/>
<path d="M22.896 14.7098H26.1283" stroke="white" stroke-width="1.18635" stroke-miterlimit="10" stroke-linecap="round" stroke-linejoin="round"/>
<path d="M22.896 17.777H26.1283" stroke="white" stroke-width="1.18635" stroke-miterlimit="10" stroke-linecap="round" stroke-linejoin="round"/>
<path d="M28.8979 17.777V14.1799" stroke="white" stroke-width="1.18635" stroke-miterlimit="10" stroke-linecap="round" stroke-linejoin="round"/>
<path d="M32.4534 12.8143V11.9483C32.4534 11.1941 31.8438 10.5827 31.0917 10.5827H29.3989C29.2658 10.5829 29.1383 10.6359 29.0444 10.7301C28.9505 10.8243 28.8978 10.952 28.8979 11.085V14.1799H31.0917C31.8438 14.1799 32.4534 13.5685 32.4534 12.8143Z" stroke="white" stroke-width="1.18635" stroke-miterlimit="10" stroke-linecap="round" stroke-linejoin="round"/>
<path d="M30.9893 14.1799L32.0845 17.777" stroke="white" stroke-width="1.18635" stroke-miterlimit="10" stroke-linecap="round" stroke-linejoin="round"/>
<path d="M39.3044 10.5827L36.9879 17.777L34.6714 10.5827" stroke="white" stroke-width="1.18635" stroke-miterlimit="10" stroke-linecap="round" stroke-linejoin="round"/>
<path d="M41.8271 10.5827V17.777" stroke="white" stroke-width="1.18635" stroke-miterlimit="10" stroke-linecap="round" stroke-linejoin="round"/>
<path d="M45.0595 10.5827H41.8271" stroke="white" stroke-width="1.18635" stroke-miterlimit="10" stroke-linecap="round" stroke-linejoin="round"/>
<path d="M41.8271 14.7098H45.0595" stroke="white" stroke-width="1.18635" stroke-miterlimit="10" stroke-linecap="round" stroke-linejoin="round"/>
<path d="M41.8271 17.777H45.0595" stroke="white" stroke-width="1.18635" stroke-miterlimit="10" stroke-linecap="round" stroke-linejoin="round"/>
<path d="M48.0614 17.777C48.0032 17.777 47.9473 17.7539 47.9061 17.7127C47.865 17.6715 47.8418 17.6157 47.8418 17.5575V10.8023C47.8418 10.681 47.9402 10.5827 48.0614 10.5827C49.9038 10.5827 51.3974 12.0763 51.3974 13.9186V14.4411C51.3974 16.2835 49.9038 17.777 48.0614 17.777Z" stroke="white" stroke-width="1.18635" stroke-miterlimit="10" stroke-linecap="round" stroke-linejoin="round"/>
<path d="M51.8554 1H3.69361C2.20599 1 1 2.20599 1 3.69362V24.6567C1 26.1444 2.20599 27.3503 3.69361 27.3503H20.4479V22.9685C20.4479 22.7399 20.5387 22.5206 20.7004 22.359C20.862 22.1973 21.0812 22.1065 21.3099 22.1065H33.5927C33.8213 22.1065 34.0406 22.1973 34.2022 22.359C34.3639 22.5206 34.4547 22.7399 34.4547 22.9685V27.3503H51.8554C53.3431 27.3503 54.5491 26.1444 54.5491 24.6567V3.69362C54.5491 2.20599 53.3431 1 51.8554 1Z" stroke="white" stroke-width="1.18635" stroke-miterlimit="10" stroke-linecap="round" stroke-linejoin="round"/>
</g>
<defs>
<clipPath id="clip0_1225_319">
<rect width="55" height="50" fill="white"/>
</clipPath>
</defs>
</svg>
