<svg width="50" height="50" viewBox="0 0 50 50" fill="none" xmlns="http://www.w3.org/2000/svg">
<path d="M12.8295 22.887C13.4794 22.2372 14.537 22.2372 15.1868 22.887L20.7599 28.4601C20.9162 28.6164 21.1281 28.7042 21.3492 28.7042C21.5702 28.7042 21.7821 28.6164 21.9384 28.4601C22.0158 28.3827 22.0772 28.2909 22.1191 28.1898C22.161 28.0887 22.1826 27.9803 22.1826 27.8708C22.1826 27.7614 22.161 27.653 22.1191 27.5519C22.0772 27.4508 22.0158 27.359 21.9384 27.2816L16.3654 21.7085C15.0626 20.4058 12.9538 20.4056 11.6509 21.7085L9.43414 23.9253C8.13143 25.228 8.13122 27.3368 9.43414 28.6397L18.9919 38.1975C20.2914 39.4971 22.4065 39.4974 23.7064 38.1975L41.4274 20.4764C42.7271 19.1766 42.7271 17.0618 41.4274 15.762L39.2106 13.5451C37.9079 12.2424 35.7991 12.2422 34.4962 13.5451L24.073 23.9684C23.9956 24.0458 23.9342 24.1376 23.8923 24.2387C23.8504 24.3398 23.8288 24.4482 23.8288 24.5577C23.8288 24.6671 23.8504 24.7755 23.8923 24.8766C23.9342 24.9777 23.9956 25.0695 24.073 25.1469C24.2293 25.3032 24.4412 25.391 24.6623 25.391C24.8833 25.391 25.0952 25.3032 25.2515 25.1469L35.6747 14.7237C36.3246 14.0739 37.382 14.0739 38.032 14.7237L40.2487 16.9406C40.8986 17.5904 40.8986 18.6479 40.2487 19.2979L22.5278 37.0189C21.8778 37.6688 20.8203 37.6687 20.1705 37.0189L10.6127 27.4611C9.96138 26.8098 9.96117 25.7553 10.6127 25.1038L12.8295 22.887Z" fill="white"/>
<path d="M49.3461 7.57304C49.0668 3.87158 46.1223 0.933412 42.4275 0.65443C30.8637 -0.218143 19.1372 -0.218143 7.57371 0.65443C3.87215 0.933829 0.933987 3.87824 0.65511 7.57314C0.638485 7.79355 0.710086 8.01153 0.854165 8.17915C0.998244 8.34677 1.203 8.4503 1.4234 8.46697C1.8825 8.50113 2.28254 8.15756 2.31723 7.69867C2.5361 4.79895 4.79952 2.53553 7.69914 2.31665C19.1794 1.45033 30.8215 1.45033 42.3021 2.31665C45.2018 2.53553 47.4652 4.79895 47.6841 7.69857C48.5504 19.1791 48.5504 30.8212 47.6841 42.3015C47.4652 45.2012 45.2018 47.4646 42.3022 47.6835C30.8216 48.5498 19.1795 48.5498 7.69925 47.6835C4.79952 47.4646 2.5361 45.2012 2.31723 42.3016C1.60821 32.907 1.4781 23.3721 1.93043 13.9618C1.93659 13.852 1.92095 13.742 1.8844 13.6383C1.84786 13.5345 1.79114 13.439 1.71751 13.3573C1.64388 13.2755 1.5548 13.2092 1.4554 13.1621C1.35601 13.1149 1.24826 13.088 1.13839 13.0827C1.02851 13.0774 0.918676 13.0939 0.815214 13.1313C0.711753 13.1686 0.616713 13.2261 0.535576 13.3004C0.454438 13.3747 0.388809 13.4643 0.342472 13.5641C0.296136 13.6638 0.270009 13.7718 0.265598 13.8817C-0.190066 23.3602 -0.0589089 32.9642 0.65511 42.4269C0.934508 46.1284 3.87892 49.0665 7.57382 49.3455C19.0459 50.2112 30.7718 50.2251 42.4276 49.3455C46.129 49.0661 49.0672 46.1217 49.3462 42.4268C50.2187 30.8633 50.2187 19.1368 49.3461 7.57304Z" fill="white"/>
</svg>
