<svg width="50" height="50" viewBox="0 0 50 50" fill="none" xmlns="http://www.w3.org/2000/svg">
<path d="M28.853 10.2562H30.4147V11.7332H28.853V10.2562ZM31.9769 10.2562H33.5387V11.7332H31.9768L31.9769 10.2562ZM13.2338 10.2562H14.7959V11.7332H13.2338V10.2562ZM8.50586 28.1758H7.02881V23.5325H10.8911V25.0096H8.50586V28.1758ZM41.3484 23.5325H42.9102V25.0096H41.3484V23.5325Z" fill="#C4A370"/>
<path d="M49.347 13.3801L24.9481 0L14.4404 5.76211L15.1508 7.05723L24.9481 1.68457L46.2753 13.3801H3.62109L12.8079 8.34199L12.0977 7.04688L0.549316 13.3801H0V50H5.38184V21.8857H21.0434V20.4086H1.47705V14.8571H48.4192V20.4086H23.3863V21.8856H44.5144V50H49.8962V13.3801H49.347ZM3.90459 48.5229H1.47705V21.8856H3.90479L3.90459 48.5229ZM48.4191 48.5229H45.9914V21.8856H48.4191V48.5229Z" fill="#C4A370"/>
<path d="M28.0293 7.87089C28.0293 6.17177 26.6472 4.78973 24.9481 4.78973C23.2491 4.78973 21.8666 6.17177 21.8666 7.87079C21.8666 9.57001 23.249 10.9523 24.9481 10.9523C26.6473 10.9523 28.0293 9.56991 28.0293 7.87089ZM23.3437 7.87089C23.3437 6.98622 24.0635 6.26639 24.9481 6.26639C25.8328 6.26639 26.5526 6.98622 26.5526 7.87089C26.5526 8.75555 25.8327 9.47538 24.9481 9.47538C24.0636 9.47538 23.3437 8.75546 23.3437 7.87089ZM35.1006 10.2561H36.6623V11.7332H35.1006V10.2561ZM19.4813 10.2561H21.0434V11.7332H19.4813V10.2561ZM16.3574 10.2561H17.9195V11.7332H16.3574V10.2561ZM3.08105 16.5039H46.8147V17.9806H3.08105V16.5039ZM17.1387 43.8374H23.3864V45.314H17.1387V43.8374ZM38.2244 23.5325H39.7861V25.0096H38.2244V23.5325Z" fill="#C4A370"/>
<path d="M31.1956 25.875C27.3436 25.875 24.2094 29.0093 24.2094 32.8613C24.2094 32.8755 24.2102 32.8899 24.2102 32.9037H10.9331V39.1091H12.4102V34.3808H17.1809V42.1905H23.3435V34.3809H24.3753C24.8339 36.4599 26.2067 38.2035 28.1142 39.1328V48.523H12.4102V41.4521H10.9331V50H29.5912V39.6614C30.117 39.7855 30.6555 39.848 31.1957 39.8476C32.8977 39.8484 34.5413 39.2273 35.8175 38.1012L34.8402 36.9938C33.8339 37.8817 32.5378 38.3713 31.1957 38.3705C30.5258 38.3705 29.8758 38.2526 29.2585 38.0188C27.3333 37.3021 25.9806 35.5873 25.7276 33.543C25.7 33.3168 25.6862 33.0892 25.6864 32.8613C25.6864 29.8237 28.158 27.3521 31.1956 27.3521C34.2333 27.3521 36.7044 29.8237 36.7044 32.8613C36.7044 33.7963 36.4668 34.7194 36.0166 35.5309L37.3083 36.2473C37.8794 35.2173 38.1814 34.0466 38.1814 32.8613C38.1814 29.0093 35.0477 25.875 31.1956 25.875ZM21.8665 34.3808V37.5896H18.6579V34.3807L21.8665 34.3808ZM18.6579 40.7135V39.0667H21.8664V40.7135H18.6579Z" fill="#C4A370"/>
<path d="M30.4146 35.4676L28.3306 33.3836L29.3751 32.339L30.4146 33.379L33.7974 29.9965L34.8419 31.0409L30.4146 35.4676Z" fill="#C4A370"/>
</svg>
