<svg id="logo" viewBox="0 0 80 81" fill="none" xmlns="http://www.w3.org/2000/svg"><path d="M18.53 35.527v0c0-7.728.457-15.747 4.283-22.462 1.009-1.77 2.106-3.266 3.32-4.541 8.871-9.316 24.723-9.17 34.205-.476v0c8.36 7.664 8.848 21.608 8.848 32.949V60.15M18.53 35.527l5.36 4.766m-5.36-4.766a50.473 50.473 0 00-2.977-1.965C7.298 28.61-2.817 41.684 4.016 48.464c.1.1.204.2.309.302l11.527 11.388a9.01 9.01 0 012.678 6.41v3.649m50.655 0v7.893a1.64 1.64 0 01-1.639 1.639H20.17a1.638 1.638 0 01-1.638-1.639v-7.893m50.655 0H18.53m50.655 0v-4.501m0-5.56h7.474c.905 0 1.638.733 1.638 1.638v2.283c0 .905-.733 1.639-1.638 1.639h-7.474m0-5.56v5.56m-36.987-18.27l3.35 3.177m3.35 3.178l-3.35-3.178m0 0l3.35-3.177-6.7 6.355m16.35-6.355l3.35 3.177m3.35 3.178l-3.35-3.178m0 0l3.35-3.177-6.7 6.355m7.504 5.56l3.35 3.177m3.35 3.178l-3.35-3.178m0 0l3.35-3.177-6.7 6.355m-15.009-6.355l3.35 3.177m3.35 3.178l-3.35-3.178m0 0l3.35-3.177-6.7 6.355m-14.875-6.355l3.35 3.177m3.35 3.178l-3.35-3.178m0 0l3.35-3.177-6.7 6.355" stroke="#fff" stroke-width="1.638" stroke-linecap="round" stroke-linejoin="round"/></svg>