<svg id="logo" viewBox="0 0 80 80" fill="none" xmlns="http://www.w3.org/2000/svg"><path fill-rule="evenodd" clip-rule="evenodd" d="M4.85 1.969a3.277 3.277 0 00-2.743 3.233v69.75a3.276 3.276 0 002.746 3.233l3.29-10.998c1.398-4.676 8.019-4.676 9.417 0l2.573 8.603 1.904-7.413c1.238-4.824 8.042-4.958 9.469-.186l3.002 10.037h1.808V1.925h-1.805L31.548 12.02c-1.413 4.812-8.28 4.666-9.487-.203l-1.876-7.573-2.618 8.917c-1.382 4.707-8.05 4.707-9.432 0L4.85 1.97zm1.695-.044L9.707 12.7c.922 3.138 5.367 3.138 6.288 0l3.163-10.774H6.545zm14.754 0h11.505l-2.828 9.632c-.942 3.209-5.52 3.11-6.325-.135L21.3 1.925zm16.656 0v76.303h5.069V1.925h-5.07zm6.707 0v76.303h2.254l2.657-9.803c1.306-4.817 8.13-4.847 9.477-.041l2.125 7.581 2.044-7.54c1.305-4.817 8.129-4.847 9.476-.041l2.748 9.8a3.278 3.278 0 002.735-3.233V5.202a3.278 3.278 0 00-2.732-3.232L72.7 11.942c-1.33 4.835-8.198 4.806-9.488-.04l-2.038-7.66-2.12 7.7c-1.33 4.835-8.198 4.806-9.487-.04l-2.655-9.977h-2.251zm3.947 0l2.542 9.555c.86 3.231 5.438 3.25 6.325.027l2.638-9.582H48.608zm13.645 0H73.76l-2.637 9.582c-.888 3.224-5.466 3.204-6.326-.027l-2.542-9.555zm11.5 76.303l-2.636-9.402c-.899-3.204-5.447-3.184-6.318.027l-2.54 9.375h11.494zm-13.646 0H48.614l2.54-9.375c.871-3.211 5.42-3.23 6.318-.027l2.636 9.402zm-27.31 0l-2.862-9.567c-.951-3.182-5.487-3.093-6.313.123L21.2 78.228h11.599zm-13.646 0H6.55l3.162-10.572c.932-3.117 5.346-3.117 6.279 0l3.161 10.572zM.468 5.202c0-2.714 2.2-4.915 4.915-4.915h69.518c2.715 0 4.915 2.2 4.915 4.915v69.75c0 2.714-2.2 4.914-4.915 4.914H5.383a4.915 4.915 0 01-4.915-4.915V5.202zM26.96 39.71a3.45 3.45 0 100-6.9 3.45 3.45 0 000 6.9zm0 1.639a5.088 5.088 0 100-10.176 5.088 5.088 0 000 10.176zm-10.427 3.7a3.45 3.45 0 11-6.9 0 3.45 3.45 0 016.9 0zm1.639 0a5.088 5.088 0 11-10.176 0 5.088 5.088 0 0110.176 0zm49.956-3.95a3.45 3.45 0 100-6.9 3.45 3.45 0 000 6.9zm0 1.637a5.088 5.088 0 100-10.176 5.088 5.088 0 000 10.176zm2.987 12.952a3.45 3.45 0 11-6.9 0 3.45 3.45 0 016.9 0zm1.638 0a5.088 5.088 0 11-10.176 0 5.088 5.088 0 0110.176 0z" fill="#fff"/></svg>