<svg id="logo" viewBox="0 0 77 84" fill="none" xmlns="http://www.w3.org/2000/svg"><path d="M15.569 48.532c-5.61 2.452-9.094 4.263-12.052 7.722C1.597 58.499.915 61.496.915 64.45v14.916a3.379 3.379 0 003.379 3.379h8.763m2.512-34.213l9.63-6.335m-9.63 6.335l4.605 4.647-3.35 8.025 15.073 14.36m-6.699-33.367c-4.815-3.38-5.528-5.563-5.024-9.715-3.633-1.369-3.979-3.063-3.35-6.758m8.374 16.473v6.547m0-6.547c5.584 2.408 8.498 2.273 13.398 0M16.825 25.724c-4.187-1.178-5.404-2.248-6.28-4.646 1.118-3.201 2.984-3.487 7.954-4.646m-1.674 9.292c11.445 2.702 17.863 2.853 29.307 0M18.5 16.432c.548-4.773.952-7.871 1.564-10.272.418-1.638 2.172-2.405 3.802-1.959 5.562 1.525 9.364 1.497 14.347-.024 1.463-.447 3.098.059 3.762 1.436 1.428 2.963 2.004 6.066 2.902 10.819m-26.377 0c10.3 7.59 16.077 6.815 26.377 0m0 0c4.82 1.038 6.682 1.268 7.536 4.646-1.253 2.613-2.664 3.593-6.28 4.646m0 0c.609 3.717.227 5.356-2.93 6.758.106 4.936-1.204 6.883-4.606 9.715m0 0l8.373 6.335m-8.373-6.335l-.628 6.547m9.001-.212l-3.768 4.647 3.768 8.025-15.072 14.36M46.97 48.532l6.28 2.957M31.898 75.564l-.21 7.18m.21-7.18l-6.28-20.274-.419-6.546m6.7 26.82L37.34 55.29l.628-6.546m15.282 2.745v7.18h2.093m-2.093-7.18l.538-30.41m.24-19.43v7.18m0 0c2.575-.457 3.754-1.258 5.083 1.69v10.56m-5.084-12.25l-.24 12.25m8.255 37.59h-6.7m6.7 0v-8.025m0 8.025c2.125-1.547 3.8-1.757 7.53-.334a.836.836 0 001.102-.534l.769-2.588a.826.826 0 00-.534-1.017c-2.832-.94-4.992-1.837-8.867-3.552m0 8.025l4.614 15.206M55.343 58.669l2.314 19.007m.617 5.069h-7.955m7.955 0l7.787-2.619a2.458 2.458 0 001.568-3.043l-.973-3.208m-8.382 8.87l-.617-5.069m-44.6-4.646v9.715m0 0h18.63M50.32 73.03v9.715m0 0H31.688m-6.49-34.001c4.99 3.237 7.781 3.27 12.77 0m15.82-27.666h5.323m0 0v8.87l2.93 5.068v4.224m0 0c4.026-1.054 6.144-2.23 9.044-5.282a.832.832 0 011.193-.019l3.446 3.477a.813.813 0 01.015 1.131c-4.388 4.634-7.493 6.521-13.697 8.296m0-7.603v7.603m0 0v3.801m-4.385 27.032l8.999-3.801M28.129 37.973c2.62-2.368 4.002-2.358 6.28 0" stroke="#fff" stroke-width="1.638" stroke-linecap="round" stroke-linejoin="round"/></svg>