<svg id="logo" viewBox="0 0 97 88" fill="none" xmlns="http://www.w3.org/2000/svg"><path fill-rule="evenodd" clip-rule="evenodd" d="M61.121.549a.82.82 0 01.967-.419c4.374 1.306 7.822 2.564 10.399 5.024 2.496 2.384 4.083 5.803 5.085 11.178H91.32a.82.82 0 01.803.656l1.523 7.517c.193.948.403 1.93.618 2.934.88 4.104 1.84 8.587 1.986 12.757.183 5.211-.892 10.181-5.167 13.445-1.88 1.436-4.24 2.36-7.062 3.208v22.964l10.71 6.079a.82.82 0 01-.404 1.531H42.912a.82.82 0 01-.82-.819V49.036c-3.276-.128-6.526-1.6-8.313-4.571l-.014-.023-8.374 11.166V79.82l10.417 6.077a.82.82 0 01-.413 1.526H8.335a.82.82 0 01-.38-1.544l11.588-6.084v-24.18L6.22 38.398.171 30.58a.82.82 0 01.648-1.32H27.91c.418-5.43 4.956-9.705 10.492-9.705 5.812 0 10.523 4.711 10.523 10.523 0 .827-.095 1.632-.275 2.404 3.324 1.74 5.269 5.82 4.115 9.706H65.57a29.033 29.033 0 01-.034-2.057c.08-4.43 1.072-9.19 1.97-13.5.151-.723.3-1.433.44-2.127l1.524-7.517a.82.82 0 01.802-.656h1.736c-.735-3.939-2.018-6.14-3.784-7.66-1.822-1.569-4.214-2.48-7.4-3.693l-.002-.001-.764-.291a.819.819 0 01-.44-1.132L61.12.55zm-10.087 41.64c1.19-3.149-.249-6.576-2.893-8.116a10.527 10.527 0 01-11.398 6.4l-1.91 2.545c.118.21.234.41.35.602 1.428 2.376 4.08 3.65 6.91 3.777v-4.39a.82.82 0 01.82-.818h8.121zm-4.006 4.209H43.73v-2.571h6.413c-.805 1.109-1.886 1.971-3.116 2.571zm2.962 0a9.462 9.462 0 002.09-2.571h13.632c.107.877.266 1.737.487 2.571H49.99zm-6.259 2.59c1.255-.12 2.5-.438 3.659-.952h19.057v32.638H43.73V48.989zM72.357 17.97l1.646 5.878h-4.252l1.191-5.878h1.415zm-2.94 7.517l-.311 1.502v.005c-.9 4.32-1.855 8.906-1.932 13.168a27.71 27.71 0 00.036 2.027h.056a.82.82 0 01.819.819v3.966c.716 2.079 1.9 3.89 3.718 5.334 1.647 1.306 3.877 2.304 6.992 3.11h4.289c3.002-.879 5.272-1.757 7.004-3.08 3.654-2.789 4.699-7.092 4.524-12.084-.141-4.011-1.06-8.308-1.937-12.402v-.002c-.17-.797-.34-1.586-.5-2.364H69.417zm22.424-1.639l-1.192-5.878H78.01l1.881 5.878h11.95zm-13.67 0l-1.882-5.878h-2.23l1.645 5.878h2.466zm4.21 33.208h-2.87V80.29a.82.82 0 01-.424.717l-8.645 4.778h20.78l-8.425-4.782a.82.82 0 01-.415-.713V57.056zm-14.296 28.16l9.787-5.41V56.869c-2.985-.817-5.295-1.855-7.087-3.277a12.725 12.725 0 01-2.7-2.922v34.546zm-1.638-2.904H43.73v3.473h22.716v-3.473zm7.226-65.98c-.77-4.36-2.198-7.024-4.38-8.902-2.05-1.765-4.716-2.778-7.805-3.952l.79-1.58c4.04 1.233 6.932 2.392 9.077 4.441 2.106 2.012 3.578 4.97 4.55 9.993h-2.232zm-35.27 4.862a8.886 8.886 0 00-8.849 8.066h13.96a.82.82 0 01.655 1.31l-5.863 7.818-.421.561a8.885 8.885 0 10.517-17.755zM2.488 30.898H27.91a10.508 10.508 0 004.05 7.503c-3.514.707-6.611 1.048-9.699 1.04-4.524-.01-9.07-.768-14.917-2.268L2.49 30.898zm27.065 0a8.888 8.888 0 004.653 7.015c.95-.22 1.935-.466 2.959-.735l4.71-6.28H29.553zM22.257 41.08c3.723.009 7.434-.47 11.744-1.44.33.152.667.288 1.014.405l-10.853 14.47h-3.398L8.96 39.263c4.987 1.189 9.134 1.808 13.297 1.818zm-1.076 15.074V80.29a.82.82 0 01-.438.725l-9.085 4.77h20.707l-8.206-4.787a.82.82 0 01-.407-.708V56.154h-2.57zm39.77-.954a1.368 1.368 0 100-2.737 1.368 1.368 0 000 2.737zm0 1.638a3.007 3.007 0 100-6.013 3.007 3.007 0 000 6.013zm-4.043 3.307a.466.466 0 11-.932 0 .466.466 0 01.932 0zm1.639 0a2.105 2.105 0 11-4.21 0 2.105 2.105 0 014.21 0zm29.465-26.593a1.97 1.97 0 100-3.94 1.97 1.97 0 000 3.94zm0 1.639a3.608 3.608 0 100-7.216 3.608 3.608 0 000 7.215zm.767 2.706a.466.466 0 11-.933 0 .466.466 0 01.933 0zm1.638 0a2.105 2.105 0 11-4.21 0 2.105 2.105 0 014.21 0z" fill="#fff"/></svg>