<svg id="logo" viewBox="0 0 81 80" fill="none" xmlns="http://www.w3.org/2000/svg"><path fill-rule="evenodd" clip-rule="evenodd" d="M78.468 40.016c0 21.037-17.054 38.09-38.09 38.09-21.037 0-38.09-17.053-38.09-38.09 0-21.037 17.053-38.09 38.09-38.09 21.036 0 38.09 17.053 38.09 38.09zm1.638 0c0 21.941-17.787 39.729-39.728 39.729-21.942 0-39.73-17.788-39.73-39.73C.649 18.076 18.437.288 40.379.288c21.941 0 39.728 17.787 39.728 39.729zM34.814 13.123a2.453 2.453 0 00-2.945 2.402v43.45c0 1.012.62 1.92 1.562 2.29l6.549 2.562a2.457 2.457 0 003.353-2.289V25.673c0-.853.091-1.819.356-2.541.268-.729.594-.952.968-.95.367 0 .69.222.956.946.262.716.353 1.673.353 2.517v14.828c0 .48.203.916.43 1.24.232.328.551.626.908.814 2.946 1.55 5.984.648 8.209-1.315 2.212-1.951 3.74-5.033 3.793-8.17.027-1.541-.194-3.126-.622-4.865-.71-2.884-1.958-5.841-4.314-7.91-3.759-3.3-9.593-5.1-19.556-7.144zm-1.307 2.402c0-.514.474-.9.978-.797 10.018 2.055 15.419 3.798 18.804 6.77 1.993 1.75 3.13 4.332 3.804 7.07.404 1.644.599 3.083.575 4.446-.045 2.655-1.356 5.308-3.239 6.97-1.87 1.65-4.183 2.24-6.362 1.093a1.043 1.043 0 01-.332-.31c-.109-.154-.13-.264-.13-.294V25.645c0-.915-.093-2.097-.454-3.081-.358-.977-1.098-2.018-2.49-2.021-1.402-.004-2.148 1.04-2.51 2.024-.363.99-.457 2.183-.457 3.106v35.865a.82.82 0 01-1.117.763l-6.549-2.563a.819.819 0 01-.52-.762V15.525zm-2.136 28.192a2.457 2.457 0 00-3.37-2.281l-10.569 4.227-.012.005C13.674 47.24 11.344 48.337 9.293 50c-.59.477-1.104 1.127-1.383 1.86-.282.743-.33 1.614.104 2.432.535 1.004 1.468 1.645 2.687 2.109 1.207.458 2.793.78 4.769 1.084 5.464.924 8.754 1.276 13.629.973a2.431 2.431 0 002.272-2.435v-3.031a1.495 1.495 0 00-2.07-1.38c-2.739 1.14-5.55 1.991-8.393 1.95-1.055-.016-1.67-.133-2.002-.29-.15-.07-.204-.132-.225-.163-.018-.026-.044-.078-.047-.194-.003-.164.066-.339.27-.53.21-.198.524-.37.872-.477l9.866-3.063a2.458 2.458 0 001.73-2.347v-2.78zm-2.761-.76a.82.82 0 011.123.76v2.781a.82.82 0 01-.576.783l-9.867 3.062c-.521.162-1.075.44-1.51.85-.443.417-.799 1.01-.784 1.756.008.376.104.748.329 1.08.222.328.533.56.882.725.665.315 1.58.43 2.677.446 3.1.045 6.087-.859 8.85-1.995v2.818c0 .43-.33.775-.737.8-4.701.292-7.855-.04-13.26-.954l-.012-.002c-1.97-.304-3.408-.605-4.442-.998-1.022-.388-1.546-.827-1.822-1.346-.165-.31-.174-.673-.019-1.082.16-.42.48-.842.882-1.169 1.848-1.498 3.976-2.519 7.723-4.09l10.563-4.225zm28.72.755c-4.937-.03-8.216.407-11.83 1.562a2.417 2.417 0 00-1.67 2.31v2.923c0 1.7 1.684 2.886 3.284 2.314l9.723-3.472c1.317-.286 2.323-.463 3.114-.493.797-.03 1.27.095 1.594.316a.241.241 0 01.027.02.238.238 0 01-.016.076.735.735 0 01-.423.401L45.43 55.512a2.458 2.458 0 00-1.6 2.303v2.514a2.457 2.457 0 003.286 2.314l20.45-7.331.019-.007.018-.008c1.914-.793 3.46-1.481 4.442-2.584 1.506-1.694.829-4.188-.58-5.524-.749-.709-1.622-1.245-2.649-1.688-3.647-1.57-7.693-1.766-11.487-1.789zm4.246 5.486l-.002-.002.002.003zM46 46.835c3.41-1.09 6.51-1.513 11.32-1.484 3.787.024 7.535.228 10.85 1.656.891.384 1.59.823 2.17 1.372 1.016.964 1.197 2.442.483 3.246-.684.769-1.842 1.33-3.827 2.152L46.565 61.1a.82.82 0 01-1.096-.77v-2.515c0-.342.212-.649.533-.768l15.702-5.842c.655-.244 1.178-.774 1.397-1.39a1.77 1.77 0 00.052-1.055 1.662 1.662 0 00-.684-.941c-.733-.501-1.614-.637-2.58-.6-.96.036-2.108.248-3.453.54l-.051.012-.05.017-9.772 3.49a.82.82 0 01-1.094-.771v-2.923c0-.353.22-.651.53-.75z" fill="#fff"/></svg>