<svg id="logo" viewBox="0 0 82 83" fill="none" xmlns="http://www.w3.org/2000/svg"><path fill-rule="evenodd" clip-rule="evenodd" d="M27.18 1.649c-.036 1.327.048 2.304.385 3.151.33.83.938 1.617 2.103 2.48.76.564 1.744.817 2.789.817h7.623V4.546L37.925 2.77A4.915 4.915 0 0034.8 1.649h-7.62zm14.539 2.924v3.524h7.133c.774 0 1.518-.145 2.174-.46 1.65-.797 2.66-1.563 3.307-2.457.637-.88.983-1.968 1.14-3.531h-8.17c-1.05 0-2.071.336-2.916.958L41.72 4.573zM40.08 9.735h-7.623c-1.29 0-2.648-.31-3.765-1.138-1.338-.992-2.177-2.005-2.65-3.191-.464-1.168-.538-2.423-.5-3.82a1.625 1.625 0 011.63-1.575H34.8c1.52 0 2.992.528 4.166 1.494l1.962 1.616 2.487-1.833A6.553 6.553 0 0147.303.011h8.19c.93 0 1.71.79 1.615 1.764-.172 1.738-.572 3.156-1.448 4.366-.872 1.204-2.153 2.117-3.923 2.97-.916.443-1.913.624-2.885.624h-7.133v9.036l3.303-2.278a9.83 9.83 0 015.58-1.737h6.693c1.003 0 1.8.909 1.597 1.93-.48 2.415-1.18 4.2-2.54 5.59-1.277 1.306-2.902 1.968-4.573 2.309-1.663.339-3.432.37-5.04.37h-5.02v3.594h8.719a2.457 2.457 0 012.38 3.072l-3.013 11.673h26.53a.82.82 0 010 1.638h-5.84v9.645c0 .03-.002.059-.005.087a3.806 3.806 0 01.005 7.435v9.733H81.09a.82.82 0 01.82.82v5.76a4.096 4.096 0 01-4.097 4.096H4.936A4.096 4.096 0 01.84 78.412v-5.76a.82.82 0 01.82-.82h10.12V62.1a3.807 3.807 0 01.005-7.435.84.84 0 01-.005-.087v-9.645H5.465a.82.82 0 110-1.638h26.972l-3.369-11.602a2.458 2.458 0 012.36-3.143h8.652v-3.594h-4.052c-2.078 0-4.464-.074-6.582-.646-2.129-.575-4.096-1.684-5.165-3.828-.58-1.164-.836-2.457-.996-3.93a1.625 1.625 0 011.62-1.795h7.155a9.83 9.83 0 016.45 2.412l1.57 1.365V9.735zm28.777 52.364a3.807 3.807 0 01.004-7.435.84.84 0 01-.004-.087v-9.645H59.08v9.645a.84.84 0 01-.005.087 3.806 3.806 0 01.005 7.435v9.733h9.777V62.1zM57.44 54.577c0 .03.002.059.005.087a3.807 3.807 0 00-.005 7.435v9.733h-9.777V62.1a3.807 3.807 0 00-.004-7.435.84.84 0 00.004-.087v-9.645h9.777v9.645zm-11.415 7.522a3.807 3.807 0 01.005-7.435.813.813 0 01-.005-.087v-9.645h-9.777v9.645a.84.84 0 01-.005.087 3.807 3.807 0 01.005 7.435v9.733h9.777V62.1zM34.61 54.577c0 .03.001.059.004.087a3.807 3.807 0 00-.004 7.435v9.733h-9.777V62.1a3.807 3.807 0 00-.005-7.435.813.813 0 00.005-.087v-9.645h9.777v9.645zm-11.416 7.522a3.807 3.807 0 01.005-7.435.84.84 0 01-.005-.087v-9.645h-9.777v9.645c0 .03-.001.059-.004.087a3.807 3.807 0 01.004 7.435v9.733h9.777V62.1zM40.08 20.704l-2.646-2.3a8.191 8.191 0 00-5.375-2.01h-7.145c.154 1.397.383 2.456.832 3.356.782 1.569 2.248 2.47 4.126 2.977 1.89.51 4.085.59 6.155.59h4.053v-2.613zm1.638 2.613h5.02c1.608 0 3.229-.035 4.713-.338 1.476-.3 2.757-.854 3.729-1.848 1.034-1.058 1.647-2.472 2.098-4.737h-6.677a8.191 8.191 0 00-4.65 1.448l-4.233 2.92v2.555zm-7.577 19.977h13.971l3.118-12.083a.82.82 0 00-.793-1.024H31.428a.82.82 0 00-.787 1.048l3.501 12.059zM2.48 73.47v4.94c0 1.358 1.1 2.458 2.457 2.458h72.878c1.358 0 2.458-1.1 2.458-2.457V73.47H2.479zM12.6 60.548a2.167 2.167 0 100-4.334 2.167 2.167 0 000 4.334zm13.582-2.167a2.167 2.167 0 11-4.333 0 2.167 2.167 0 014.333 0zm9.249 2.167a2.167 2.167 0 100-4.334 2.167 2.167 0 000 4.334zm13.582-2.167a2.167 2.167 0 11-4.334 0 2.167 2.167 0 014.334 0zm9.248 2.167a2.167 2.167 0 100-4.334 2.167 2.167 0 000 4.334zm13.583-2.167a2.167 2.167 0 11-4.334 0 2.167 2.167 0 014.334 0z" fill="#fff"/></svg>