<svg id="logo" viewBox="0 0 87 86" fill="none" xmlns="http://www.w3.org/2000/svg"><path d="M5.806 56.945v27.8h74.675v-27.8m-74.674 0h-4.03a.82.82 0 01-.82-.819v-4.214a.82.82 0 01.82-.819H15.02m-9.213 5.852H80.48m0 0h4.03a.82.82 0 00.819-.819v-4.214a.82.82 0 00-.82-.819H71.754m-56.733 0l2.22-15.18a1.638 1.638 0 011.62-1.402H32.11c.778 0 1.449.548 1.605 1.31l3.126 15.272m-21.82 0h21.82m0 0h13.092m0 0l2.672-15.227a1.638 1.638 0 011.614-1.355H67.02c.779 0 1.45.548 1.605 1.31l3.127 15.272m-21.82 0h21.82M60.6.373v9.265m0 0c-7.937.997-9.647 3.594-12.607 8.291h8.728M60.6 9.64c7.039 1.078 10.103 2.671 13.092 8.29H64.48m-7.758 0c.495 2.224 1.158 3.206 3.879 3.902 2.8-.608 3.503-1.563 3.88-3.902m-7.76 0h7.76M25.686.86v9.267m0 0c-7.936.997-9.647 3.594-12.607 8.291h8.728m3.88-8.29c7.038 1.077 10.103 2.67 13.092 8.29h-9.213m-7.759 0c.495 2.224 1.159 3.206 3.88 3.902 2.799-.608 3.502-1.563 3.879-3.902m-7.759 0h7.759" stroke="#fff" stroke-width="1.638"/></svg>