<svg id="logo" viewBox="0 0 100 87" fill="none" xmlns="http://www.w3.org/2000/svg"><mask id="path-1-outside-1_84_352" maskUnits="userSpaceOnUse" x="-.458" y="-.447" width="100" height="87" fill="#000"><path fill="#fff" d="M-.458-.447h100v87h-100z"/><path fill-rule="evenodd" clip-rule="evenodd" d="M46.192 1.49c2.08-1.263 4.767-1.243 6.84.023 1.596.974 2.612 2.227 2.988 3.859.358 1.551.125 3.39-.637 5.572l30.891 28.273h5.454a6.963 6.963 0 016.963 6.963v32.913a6.963 6.963 0 01-6.963 6.963H7.505a6.963 6.963 0 01-6.963-6.963V46.18a6.963 6.963 0 016.963-6.963h4.927L43.85 10.942c-.76-2.18-.993-4.026-.637-5.584.374-1.638 1.386-2.9 2.98-3.868zm-1.858 10.117l-30.677 27.61H85.06L54.897 11.609c-1.788 1.496-3.512 2.289-5.278 2.29-1.766 0-3.493-.79-5.285-2.291zm10.223-.784c.78-2.178.981-3.895.665-5.267-.317-1.374-1.167-2.46-2.616-3.344-1.816-1.108-4.174-1.124-5.988-.022-1.444.877-2.292 1.969-2.608 3.35-.315 1.38-.113 3.107.666 5.283 1.781 1.538 3.384 2.258 4.943 2.257 1.558-.001 3.16-.723 4.938-2.257zM7.505 40.036a6.144 6.144 0 00-6.143 6.144v32.913a6.144 6.144 0 006.143 6.144h84.223a6.144 6.144 0 006.144-6.144V46.18a6.144 6.144 0 00-6.144-6.144H7.505zm64.146 31.328V56.095h-5.913v-1.657h13.553v1.657H73.38v15.27h-1.73zM50.115 54.438v16.926h1.74V57.482l9.32 13.882h1.74V54.438h-1.74v13.87l-9.32-13.87h-1.74zM35.766 71.364V54.438h10.58v1.657h-8.852v5.854h7.441v1.657h-7.44v6.101h8.85v1.657H35.768zM19.995 54.437v16.927h1.728v-6.43h5.406l3.116 6.43h1.986l-3.336-6.844a4.242 4.242 0 001.938-1.502c.674-.94 1.01-2.049 1.01-3.326 0-.886-.16-1.693-.481-2.422a4.489 4.489 0 00-1.4-1.81c-.61-.486-1.359-.795-2.244-.928a4.363 4.363 0 00-.635-.071 7.25 7.25 0 00-.552-.023h-6.536zm6.488 8.852h-4.76v-7.194h4.76c.142 0 .306.008.494.023.188.008.372.032.553.07.58.126 1.054.365 1.422.718.376.353.654.776.834 1.27.189.485.283.99.283 1.516 0 .525-.094 1.03-.282 1.516a3.25 3.25 0 01-.835 1.258c-.368.353-.843.592-1.422.717-.18.04-.365.067-.553.082a6.024 6.024 0 01-.494.024z"/></mask><path fill-rule="evenodd" clip-rule="evenodd" d="M46.192 1.49c2.08-1.263 4.767-1.243 6.84.023 1.596.974 2.612 2.227 2.988 3.859.358 1.551.125 3.39-.637 5.572l30.891 28.273h5.454a6.963 6.963 0 016.963 6.963v32.913a6.963 6.963 0 01-6.963 6.963H7.505a6.963 6.963 0 01-6.963-6.963V46.18a6.963 6.963 0 016.963-6.963h4.927L43.85 10.942c-.76-2.18-.993-4.026-.637-5.584.374-1.638 1.386-2.9 2.98-3.868zm-1.858 10.117l-30.677 27.61H85.06L54.897 11.609c-1.788 1.496-3.512 2.289-5.278 2.29-1.766 0-3.493-.79-5.285-2.291zm10.223-.784c.78-2.178.981-3.895.665-5.267-.317-1.374-1.167-2.46-2.616-3.344-1.816-1.108-4.174-1.124-5.988-.022-1.444.877-2.292 1.969-2.608 3.35-.315 1.38-.113 3.107.666 5.283 1.781 1.538 3.384 2.258 4.943 2.257 1.558-.001 3.16-.723 4.938-2.257zM7.505 40.036a6.144 6.144 0 00-6.143 6.144v32.913a6.144 6.144 0 006.143 6.144h84.223a6.144 6.144 0 006.144-6.144V46.18a6.144 6.144 0 00-6.144-6.144H7.505zm64.146 31.328V56.095h-5.913v-1.657h13.553v1.657H73.38v15.27h-1.73zM50.115 54.438v16.926h1.74V57.482l9.32 13.882h1.74V54.438h-1.74v13.87l-9.32-13.87h-1.74zM35.766 71.364V54.438h10.58v1.657h-8.852v5.854h7.441v1.657h-7.44v6.101h8.85v1.657H35.768zM19.995 54.437v16.927h1.728v-6.43h5.406l3.116 6.43h1.986l-3.336-6.844a4.242 4.242 0 001.938-1.502c.674-.94 1.01-2.049 1.01-3.326 0-.886-.16-1.693-.481-2.422a4.489 4.489 0 00-1.4-1.81c-.61-.486-1.359-.795-2.244-.928a4.363 4.363 0 00-.635-.071 7.25 7.25 0 00-.552-.023h-6.536zm6.488 8.852h-4.76v-7.194h4.76c.142 0 .306.008.494.023.188.008.372.032.553.07.58.126 1.054.365 1.422.718.376.353.654.776.834 1.27.189.485.283.99.283 1.516 0 .525-.094 1.03-.282 1.516a3.25 3.25 0 01-.835 1.258c-.368.353-.843.592-1.422.717-.18.04-.365.067-.553.082a6.024 6.024 0 01-.494.024z" fill="#fff"/><path d="M53.033 1.513l-.214.35.214-.35zm-6.84-.023l.212.35-.213-.35zm9.827 3.882l.4-.092-.4.092zm-.637 5.572l-.386-.135-.09.255.2.182.276-.302zm30.891 28.273l-.276.302.117.108h.16v-.41zm-73.842 0v.41h.157l.117-.105-.274-.305zM43.85 10.942l.274.304.203-.182-.09-.257-.387.135zm-.637-5.584l-.4-.091.4.091zM13.657 39.217l-.274-.304-.794.714h1.068v-.41zm30.677-27.61l.263-.313-.273-.229-.264.238.274.304zm40.727 27.61v.41h1.054l-.777-.712-.277.302zM54.897 11.609l.277-.302-.265-.242-.275.23.263.314zM49.62 13.9v.41-.41zm5.603-8.343l.399-.092-.4.092zm-.665 5.267l.268.31.081-.07.037-.102-.386-.138zm-1.951-8.61l-.213.349.213-.35zm-5.988-.023l.212.35-.212-.35zM44.01 5.54l-.399-.09.4.09zm.666 5.283l-.386.138.037.102.081.07.268-.31zm4.943 2.257v-.41.41zM71.65 56.095h.41v-.41h-.41v.41zm0 15.27h-.41v.409h.41v-.41zm-5.913-15.27h-.41v.41h.41v-.41zm0-1.657v-.41h-.41v.41h.41zm13.553 0h.41v-.41h-.41v.41zm0 1.657v.41h.41v-.41h-.41zm-5.912 0v-.41h-.41v.41h.41zm0 15.27v.409h.41v-.41h-.41zm-23.264 0h-.41v.409h.41v-.41zm0-16.927v-.41h-.41v.41h.41zm1.74 16.926v.41h.409v-.41h-.41zm0-13.882l.34-.228-.75-1.117v1.345h.41zm9.32 13.882l-.34.229.122.181h.219v-.41zm1.74 0v.41h.41v-.41h-.41zm0-16.926h.41v-.41h-.41v.41zm-1.74 0v-.41h-.409v.41h.41zm0 13.87l-.34.229.75 1.115v-1.344h-.41zm-9.32-13.87l.34-.229-.123-.181h-.218v.41zm-16.088 0v-.41h-.41v.41h.41zm0 16.926h-.41v.41h.41v-.41zm10.579-16.926h.41v-.41h-.41v.41zm0 1.657v.41h.41v-.41h-.41zm-8.852 0v-.41h-.41v.41h.41zm0 5.854h-.41v.41h.41v-.41zm7.441 0h.41v-.41h-.41v.41zm0 1.657v.41h.41v-.41h-.41zm-7.44 0v-.41h-.41v.41h.41zm0 6.101h-.41v.41h.41v-.41zm8.85 0h.41v-.41h-.41v.41zm0 1.657v.41h.41v-.41h-.41zm-26.35 0h-.41v.41h.41v-.41zm0-16.927v-.41h-.41v.41h.41zm1.728 16.927v.41h.41v-.41h-.41zm0-6.43v-.41h-.41v.41h.41zm5.406 0l.368-.178-.112-.231h-.256v.41zm3.116 6.43l-.369.179.112.23h.257v-.409zm1.986 0v.41h.656l-.287-.59-.369.18zm-3.336-6.844l-.15-.381-.413.162.195.398.368-.18zm1.938-1.502l.333.239-.333-.239zm.529-5.748l-.377.162.002.004.375-.166zm-1.4-1.81l-.254.32.005.004.25-.324zm-2.244-.928l-.075.403.014.002.06-.405zm-.635-.071l-.031.408.008.001h.008l.015-.409zm-5.36 8.828h-.41v.41h.41v-.41zm0-7.194v-.41h-.41v.41h.41zm5.254.023l-.034.409h.017l.017-.409zm.553.07l-.087.401.087-.4zm1.422.718l-.283.296.003.003.28-.299zm.834 1.27l-.384.14.003.007.381-.148zm0 3.032l-.382-.148-.002.006.384.142zm-.834 1.258l-.28-.299-.003.003.283.296zm-1.422.717l-.087-.4.087.4zm-.553.082l.034.408-.034-.408zm26.27-62.102C51.043-.18 48.191-.204 45.98 1.14l.425.7c1.947-1.182 4.47-1.164 6.414.023l.427-.7zm3.172 4.117c-.406-1.76-1.505-3.098-3.173-4.117l-.427.7c1.523.929 2.455 2.099 2.802 3.601l.798-.184zm-.649 5.799c.774-2.218 1.032-4.142.65-5.8l-.8.185c.334 1.445.126 3.2-.623 5.345l.773.27zm30.78 27.836L55.66 10.642l-.553.604 30.89 28.273.554-.604zm5.178-.108h-5.454v.82h5.454v-.82zM99.1 46.18c0-4.072-3.3-7.373-7.372-7.373v.82a6.553 6.553 0 016.553 6.553h.82zm0 32.913V46.18h-.819v32.913h.82zm-7.372 7.373a7.372 7.372 0 007.372-7.373h-.819a6.553 6.553 0 01-6.553 6.553v.82zm-84.223 0h84.223v-.82H7.505v.82zM.133 79.093c0 4.072 3.3 7.373 7.372 7.373v-.82a6.553 6.553 0 01-6.553-6.553h-.82zm0-32.913v32.913h.82V46.18h-.82zm7.372-7.373A7.372 7.372 0 00.133 46.18h.82a6.553 6.553 0 016.552-6.553v-.82zm.324 0h-.324v.82h.324v-.82zm4.603 0H7.83v.82h4.603v-.82zm31.143-28.17L12.158 38.913l.548.609 31.417-28.276-.548-.609zm-.762-5.37c-.38 1.663-.124 3.593.65 5.81l.773-.27c-.748-2.144-.957-3.905-.625-5.358l-.798-.182zM45.98 1.14c-1.67 1.014-2.764 2.36-3.167 4.127l.798.182c.345-1.51 1.275-2.686 2.794-3.609l-.425-.7zM13.93 39.522l30.678-27.61-.548-.609-30.677 27.61.548.609zm71.131-.715H13.657v.82H85.06v-.82zm-30.44-26.896L84.784 39.52l.553-.604-30.163-27.608-.553.604zm-5.002 2.397c1.897 0 3.71-.854 5.54-2.384l-.525-.629c-1.747 1.461-3.38 2.193-5.015 2.194v.82zm-5.548-2.386c1.834 1.535 3.65 2.387 5.548 2.386v-.819c-1.636.001-3.271-.73-5.022-2.196l-.526.629zm10.752-6.274c.291 1.264.116 2.894-.651 5.037l.77.276c.793-2.214 1.02-4.017.679-5.497l-.798.184zm-2.43-3.086c1.375.84 2.142 1.841 2.43 3.086l.798-.184c-.347-1.502-1.28-2.672-2.802-3.601l-.426.699zM46.83 2.54c1.682-1.022 3.876-1.009 5.563.02l.426-.698C50.875.676 48.352.658 46.405 1.84l.425.7zm-2.42 3.09c.286-1.253 1.053-2.26 2.42-3.09l-.425-.7c-1.519.922-2.449 2.098-2.794 3.608l.799.183zm.652 5.054c-.766-2.14-.943-3.78-.652-5.053l-.799-.183c-.34 1.488-.112 3.3.68 5.512l.77-.276zm4.556 1.985c-1.422 0-2.933-.654-4.674-2.157l-.536.62c1.822 1.573 3.517 2.357 5.21 2.356v-.819zm4.672-2.157c-1.739 1.5-3.249 2.156-4.672 2.157v.82c1.695-.002 3.388-.788 5.207-2.357l-.535-.62zM1.77 46.18a5.734 5.734 0 015.734-5.734v-.82A6.553 6.553 0 00.952 46.18h.82zm0 32.913V46.18H.952v32.913h.82zm5.734 5.734a5.734 5.734 0 01-5.734-5.734H.952a6.553 6.553 0 006.553 6.553v-.819zm84.223 0H7.505v.82h84.223v-.82zm5.734-5.734a5.734 5.734 0 01-5.734 5.734v.82a6.553 6.553 0 006.553-6.554h-.819zm0-32.913v32.913h.82V46.18h-.82zm-5.734-5.734a5.734 5.734 0 015.734 5.734h.82a6.553 6.553 0 00-6.554-6.553v.819zm-5.613 0h5.613v-.82h-5.613v.82zm-73.526 0h73.526v-.82H12.59v.82zm-4.76 0h4.76v-.82H7.83v.82zm-.324 0h.324v-.82h-.324v.82zM71.24 56.095v15.27h.82v-15.27h-.82zm-5.503.41h5.913v-.82h-5.913v.82zm-.41-2.067v1.657h.82v-1.657h-.82zm13.963-.41H65.739v.82h13.553v-.82zm.41 2.067v-1.657h-.82v1.657h.82zm-6.322.41h5.912v-.82h-5.91v.82zm.41 14.86v-15.27h-.82v15.27h.82zm-2.138.409h1.728v-.82H71.65v.82zm-21.127-.41V54.438h-.819v16.926h.82zm1.33-.41h-1.74v.82h1.74v-.82zm-.41-13.472v13.882h.82V57.482h-.82zm10.072 13.654l-9.322-13.882-.68.456 9.322 13.883.68-.457zm1.4-.181h-1.74v.819h1.74v-.82zm-.41-16.517v16.926h.819V54.438h-.82zm-1.33.41h1.74v-.82h-1.74v.82zm.41 13.46v-13.87h-.82v13.87h.82zM51.513 54.666l9.322 13.87.68-.456-9.322-13.87-.68.456zm-1.4.181h1.74v-.819h-1.74v.82zm-14.757-.41v16.927h.82V54.438h-.82zm10.989-.409h-10.58v.82h10.58v-.82zm.41 2.067v-1.657h-.82v1.657h.82zm-9.262.41h8.852v-.82h-8.852v.82zm.41 5.444v-5.854h-.82v5.854h.82zm7.031-.41h-7.44v.82h7.44v-.82zm.41 2.067V61.95h-.82v1.657h.82zm-7.85.41h7.44v-.82h-7.44v.82zm.409 5.691v-6.1h-.82v6.1h.82zm8.442-.41h-8.852v.82h8.852v-.82zm.41 2.067v-1.657h-.82v1.657h.82zm-10.99.41h10.58v-.82h-10.58v.82zm-15.362-.41V54.437h-.819v16.927h.82zm1.319-.41h-1.728v.82h1.728v-.82zm-.41-6.02v6.43h.82v-6.43h-.82zm5.816-.41h-5.406v.82h5.406v-.82zm3.484 6.662l-3.116-6.43-.737.357 3.116 6.43.737-.357zm1.618-.231h-1.986v.819h1.986v-.82zm-3.704-6.256l3.336 6.845.737-.36-3.337-6.844-.736.36zm1.973-1.92a3.833 3.833 0 01-1.755 1.36l.3.762a4.652 4.652 0 002.12-1.644l-.665-.477zm.934-3.087c0 1.201-.315 2.224-.934 3.088l.666.477c.729-1.017 1.087-2.212 1.087-3.565h-.819zm-.447-2.256c.296.67.447 1.42.447 2.256h.82c0-.936-.17-1.8-.518-2.587l-.75.33zm-1.274-1.652a4.08 4.08 0 011.272 1.648l.753-.324a4.899 4.899 0 00-1.525-1.972l-.5.648zm-2.056-.847c.825.124 1.504.409 2.051.844l.51-.642c-.675-.536-1.494-.87-2.44-1.013l-.121.81zm-.59-.067c.192.007.384.029.576.064l.15-.805a4.777 4.777 0 00-.695-.077l-.03.818zm-.537-.023c.152 0 .326.007.521.022l.063-.816a7.667 7.667 0 00-.584-.025v.82zm-6.535 0h6.535v-.82h-6.535v.82zm1.728 8.851h4.76v-.819h-4.76v.82zm-.41-7.603v7.194h.82v-7.194h-.82zm5.17-.41h-4.76v.82h4.76v-.82zm.528.025a6.412 6.412 0 00-.528-.025v.82c.127 0 .28.006.46.022l.068-.817zm.606.079a3.637 3.637 0 00-.623-.08l-.034.819c.165.007.326.027.483.061l.174-.8zm1.618.821c-.431-.413-.977-.683-1.619-.821l-.173.8c.518.112.92.32 1.226.613l.566-.592zm.936 1.425a3.646 3.646 0 00-.939-1.428l-.56.598c.328.308.571.676.73 1.11l.77-.28zm.307 1.657c0-.575-.103-1.131-.31-1.664l-.763.295c.17.439.254.894.254 1.369h.82zm-.31 1.664c.207-.533.31-1.089.31-1.664h-.819c0 .475-.085.93-.254 1.368l.764.296zm-.936 1.409a3.68 3.68 0 00.939-1.414l-.768-.285a2.842 2.842 0 01-.731 1.101l.56.598zm-1.616.818c.642-.138 1.188-.408 1.62-.821l-.567-.592c-.306.292-.708.5-1.226.613l.173.8zm-.605.09c.206-.017.408-.047.606-.09l-.174-.8a3.91 3.91 0 01-.5.074l.068.816zm-.528.025c.156 0 .332-.008.528-.025l-.068-.816c-.18.015-.333.022-.46.022v.82z" fill="#fff" mask="url(#path-1-outside-1_84_352)"/></svg>