<svg id="logo" viewBox="0 0 89 67" fill="none" xmlns="http://www.w3.org/2000/svg"><path fill-rule="evenodd" clip-rule="evenodd" d="M49.676 1.174a3.277 3.277 0 00-4.07-.139l-4.014 2.967a1.493 1.493 0 01-1.42.195c-2.531-.965-5.01 1.522-4.038 4.051l1.344 3.494c-.895.196-1.629.626-2.178 1.217-.756.817-1.11 1.887-1.099 2.933.011 1.045.386 2.108 1.142 2.917.767.821 1.885 1.336 3.281 1.336H56.41c2.958 0 4.678-2.078 4.745-4.236a3.993 3.993 0 00-1.161-2.973c-.611-.608-1.435-1.035-2.444-1.217l1.252-3.392c.963-2.607-1.553-5.153-4.171-4.222l-.172.06a1.638 1.638 0 01-1.61-.295l-3.173-2.696zm6.163 10.447H39.187l-1.524-3.96c-.464-1.207.719-2.393 1.926-1.933.997.38 2.12.226 2.977-.408l4.014-2.967a1.638 1.638 0 012.035.069l3.173 2.697a3.277 3.277 0 003.22.59l.172-.06c1.309-.466 2.567.807 2.085 2.11l-1.426 3.862zm-33.274-9.37a.819.819 0 00-1.168.01l-4.303 4.446a.819.819 0 000 1.14l4.303 4.446a.82.82 0 001.168.01l4.446-4.447a.82.82 0 000-1.158L22.565 2.25zm-3.743 5.026l3.173-3.279 3.279 3.279-3.279 3.279-3.173-3.279zm19.802 11.23c-.97 0-1.645-.347-2.084-.816-.45-.482-.694-1.14-.7-1.816-.008-.676.221-1.327.662-1.802.429-.462 1.109-.813 2.122-.813H56.41c1.185 0 1.959.37 2.427.837a2.35 2.35 0 01.68 1.76c-.04 1.285-1.045 2.65-3.107 2.65H38.624zM74.086 5.58a.819.819 0 00-1.207-.008l-5.594 6.024a.82.82 0 00.013 1.13l5.594 5.737a.82.82 0 001.18-.008l5.451-5.737a.82.82 0 00.014-1.114l-5.45-6.024zm-.615 11.13l-4.456-4.57 4.456-4.798 4.341 4.798-4.34 4.57zM39.688 28.047c.593-1.777.514-3.36-.047-4.642a5.09 5.09 0 00-2.73-2.667c-2.329-.961-5.32-.178-6.509 2.88-1.007 2.59-3.771 10.021-6.28 16.795a8905.74 8905.74 0 00-3.326 8.997l-.679 1.84-.694-1.863c-.892-2.392-2.103-5.633-3.376-9.03-2.544-6.791-5.345-14.225-6.353-16.746-1.204-3.008-4.211-3.68-6.512-2.71A5.17 5.17 0 00.46 23.54c-.564 1.258-.644 2.804-.046 4.518 2.15 6.161 9.763 26.995 12.65 33.346 1.544 3.397 4.285 5.148 7.07 5.106 2.784-.041 5.384-1.873 6.633-5.153.743-1.95 2.147-5.485 3.777-9.588 3.365-8.47 7.69-19.361 9.144-23.722zM19.353 53.892l.768-.285-.768.285a.82.82 0 001.537-.002l-.769-.283.769.282.001-.004.005-.013.02-.053.076-.206.29-.787a9399.996 9399.996 0 014.376-11.844c2.512-6.78 5.27-14.196 6.271-16.77.819-2.105 2.776-2.612 4.357-1.96a3.45 3.45 0 011.855 1.81c.375.858.476 2.017-.007 3.467-1.44 4.32-5.713 15.076-9.068 23.521-1.644 4.14-3.068 7.725-3.83 9.724-1.045 2.744-3.107 4.068-5.127 4.098-2.02.03-4.229-1.232-5.553-4.146-2.85-6.271-10.441-27.033-12.595-33.208-.478-1.369-.378-2.477-.006-3.308a3.531 3.531 0 011.864-1.799c1.608-.678 3.549-.203 4.353 1.809 1 2.5 3.793 9.911 6.341 16.711a6797.075 6797.075 0 014.442 11.892l.295.791.077.207.02.053.005.014v.003l.001.001zm33.143-27.825c0-1.748-.627-3.134-1.621-4.082-.984-.938-2.283-1.406-3.566-1.417-1.284-.01-2.59.437-3.578 1.375-1 .948-1.623 2.345-1.623 4.124v36.289c0 1.496.683 2.66 1.686 3.433.983.757 2.256 1.131 3.495 1.151 1.237.02 2.521-.311 3.516-1.067 1.02-.775 1.69-1.964 1.69-3.517V26.067zm-8.75 0c0-1.377.471-2.328 1.112-2.935.651-.618 1.534-.933 2.437-.925.904.007 1.792.337 2.45.963.645.616 1.113 1.562 1.113 2.897v36.289c0 1.03-.423 1.74-1.044 2.212-.645.49-1.549.75-2.499.734-.949-.015-1.863-.305-2.52-.811-.638-.491-1.049-1.192-1.049-2.135V26.067zm15.709-1.975c.436-.336 1.219-.54 2.722-.648l1.195-.002c4.004-.008 8.253-.016 12.07.719 4.194.807 7.706 2.484 9.753 5.902 1.198 2 1.846 4.68 1.95 8.607-.363 4.979-1.328 7.943-3.438 9.971-2.127 2.044-4.901 2.99-8.002 3.41-2.564.348-5.27.33-7.95.314-.58-.004-1.159-.008-1.735-.008v.82h-.819v9.18c0 .922-.378 1.564-.936 1.994-.58.448-1.396.691-2.254.683-.857-.007-1.678-.266-2.266-.722-.566-.44-.938-1.076-.938-1.955V26.076c.025-1.215.287-1.705.648-1.984zm8.247 29.911l-.863-.005v8.358c0 1.445-.625 2.56-1.574 3.291-.925.713-2.118 1.035-3.268 1.025-1.15-.01-2.338-.353-3.257-1.067-.94-.73-1.571-1.832-1.571-3.249V26.068l.819-.001h-.82v-.016c.028-1.4.335-2.522 1.286-3.256.873-.674 2.137-.881 3.636-.988l.057.818v-.82l1.234-.001h.002c3.975-.01 8.386-.019 12.368.748 4.415.85 8.462 2.682 10.85 6.67 1.405 2.348 2.078 5.357 2.184 9.446 0 .027 0 .054-.002.08-.37 5.109-1.373 8.606-3.941 11.075-2.476 2.379-5.638 3.406-8.917 3.852-2.69.365-5.538.346-8.22.328h-.003zm13.06-18.302c-.723-2.966-3.23-4.214-5.926-4.742-2.273-.445-4.905-.426-7.183-.41-.414.003-.816.006-1.203.006v.82h-.819v13.769h.82v.82c.477 0 .981.005 1.502.011 2.21.026 4.73.055 6.91-.34 2.704-.491 5.235-1.704 5.917-4.7.176-.77.258-1.654.26-2.675v-.01c-.011-.953-.095-1.798-.278-2.55zM67.27 44.329V32.19l.436-.002c2.286-.015 4.72-.032 6.815.379 2.473.484 4.155 1.496 4.649 3.522.144.592.221 1.303.231 2.174-.001.937-.078 1.692-.218 2.308-.46 2.017-2.123 3-4.613 3.452-2.007.364-4.322.338-6.521.314l-.78-.008z" fill="#fff"/></svg>