<svg id="logo" viewBox="0 0 87 84" fill="none" xmlns="http://www.w3.org/2000/svg"><path d="M62.518 75.873c.078.446.161.87.25 1.274 1.875 8.55 15.833 7.251 17.814-1.274v0m-18.064 0c1.882-7.155 4.301-8.32 9.528-8.494 5.05.8 6.879 2.71 8.536 8.494m-18.064 0H60.73m-36.13 0v0c-2.393 8.422-15.38 8.851-17.75.422a40.148 40.148 0 01-.116-.422m17.867 0c-1.469-6.809-4.017-7.526-8.735-8.494m8.735 8.494H35.52m-28.785 0v0c-1.276 0-2.53-.463-3.399-1.398-3.4-3.66-2.47-5.559 1.042-8.203.24-.18.534-.275.835-.275v0c.822 0 1.471-.699 1.42-1.52-.174-2.733-.262-5.178-.26-7.37m.362 18.766c1.932-6.28 3.701-8.556 9.132-8.494m51.216-14.42c-1.876-3.037-3.738-5.383-5.89-7.399-7.823-7.327-19.334-8.6-30.053-8.6h-1.054c-8.612 0-19.353.42-22.228 8.538-.386 1.09-.696 2.319-.93 3.709m60.156 3.753h-3.177m3.177 0V31.035m0 21.925c2.237.146 4.2.334 5.955.672m7.543 22.24c4.255-1.549 5.507-3.787 4.83-9.875m-69.545 1.382c-.576-3.71-1.196-6.052-3.5-8.25-1.58-1.504-3.812-2.021-5.993-2.021v0m.554-7.901l5.167.729m-5.167-.73c-.37 2.195-.552 4.794-.554 7.902m27.16-4.148h27.197m-27.196 0l-21.44-3.024m21.44 3.024V42.689m0 10.27c-.411 1.686-.73 3.127-.95 4.482-.905 5.599 2.25 10.933 2.817 16.576.058.58.096 1.192.118 1.856M60.73 52.96a23.187 23.187 0 00-1.853-2.614c-5.824-7.056-16.194-7.657-25.343-7.657v0m27.196 10.27h3.176m-51.812-3.023v0c1.865-6.244 9.293-7.247 15.81-7.247h5.63m1.985 33.184H60.73m3.176-22.913c-.154 11.862-1.248 15.81-3.176 22.913m17.866-20.17c2.118 1.348 3.915 3.39 5.642 6.544a10.131 10.131 0 011.174 3.75v0m-6.816-10.295v0c0 4.558.728 11.021 5.263 10.566a12.13 12.13 0 001.553-.271m-6.816-10.295c-1.625-1.035-3.44-1.662-5.558-2.07m-5.956-22.597h5.956m-5.956 0h-.84c-6.333 0-11.467-5.135-11.467-11.468v-7.088c0-6.334 5.134-11.468 11.468-11.468h7.7c6.334 0 11.469 5.134 11.469 11.468v7.088c0 6.333-5.135 11.468-11.468 11.468h-.906m0 0v22.597M64.7 26.492v-9.087m0 0V5.751h10.125c4.764 0 5.36 11.654 0 11.654H64.7zm10.323 58.468a5.598 5.598 0 00-.138-.921c-.64-2.593-5.176-3.034-5.97-.484v0c-.27.868-.238 1.944.157 2.763v0c1.033 2.137 4.99 1.844 5.788-.392a3.1 3.1 0 00.163-.966zm-57.65 2.61c.608-.29 1.06-.65 1.388-1.227.48-.845.453-1.889.171-2.82-.314-1.039-.797-1.652-1.678-2-.878-.347-1.882-.263-2.746.116a3.92 3.92 0 00-.92.551c-1.59 1.304-1.331 4.163.358 5.335.119.082.241.154.369.217.951.469 2.101.283 3.059-.173z" stroke="#fff" stroke-width="1.638" stroke-linecap="round" stroke-linejoin="round"/></svg>