<svg width="55" height="56" fill="none" xmlns="http://www.w3.org/2000/svg"><path d="M27.97 36.695c6.861.49 10.513.226 14.427-7.4m-14.427 7.4c-.69.957-1.28 1.802-1.721 2.574m1.721-2.574c-7.596-.932-12.173-3.412-21.011-7.668m35.438.267a30.94 30.94 0 012.195-.267m-2.195.267l2.508-7.722m-.313 7.455c.2-.016.392-.028.577-.037 3.701-.17 5.39 4.506 3.323 7.58-.766 1.14-1.832 2.202-3.18 3.37a19.09 19.09 0 01-5.005 3.121c-2.739 1.17-4.928 1.888-7.024 2.191-3.88.562-9.08-1.856-7.357-5.378.096-.197.204-.398.323-.605m18.343-10.242c.73 3.655-.084 5.746-5.332 9.598-6.098 3.186-9.068 3.676-13.011.644M6.959 29.027C3.653 32.28 5.077 42.164 5.704 45.06 6.331 47.956 1 48.921 1 46.025v-6.55c0-5.48-.435-11.774 3.471-15.62 2.128-2.095 5.217-2.801 10.014-2.926M6.96 29.027c2.686-2.565 4.688-3.357 9.408-3.272h5.455c2.945 0 5.922-.138 8.732-1.02 4.411-1.386 7.162-3.61 9.772-7.667m-25.84 3.86c6.871.882 10.717.712 17.561-.965m-17.562.966L34.072 9.764A13 13 0 0140.51 8.06h.632m0 0c.765-1.655 1.47-2.85 2.491-4.039 1.686-1.959 4.271-3.597 6.73-2.802 1.037.335 1.812 1.064 2.512 2.233C53.76 4.931 54 6.693 54 8.42v0c0 2.7-.74 5.4-2.487 7.458-1.91 2.25-3.78 3.733-6.608 5.695M41.142 8.06l1.568.965m2.195 12.548c.233-1.566.786-3.67.538-6.113M42.71 9.024c-.742 1.445-1.653 6.908-2.384 8.044m2.384-8.044c.226.285.434.568.627.85m-.627-.85l.627.85m-7.526 8.803c1.658-.206 2.667-.639 4.515-1.61m3.011-7.194l1.048-.942c1.553-1.396 4.062-3.083 4.979-1.207v0c.668 1.366-.17 3.269-1.047 4.511-1.147 1.627-1.879 2.382-2.874 3.224m-2.106-5.586c1.36 1.982 1.93 3.868 2.106 5.586m-3.046 3.54l-.941 4.182m-.628 2.252l-1.568 3.218M7.9 48.278c-1.002 2.182-1.559 3.729-1.686 4.865-.254 2.283 3.764 2.4 3.584.108-.095-1.21-.792-2.805-1.899-4.973z" stroke="#fff" stroke-linecap="round" stroke-linejoin="round"/></svg>