<svg width="59" height="48" fill="none" xmlns="http://www.w3.org/2000/svg"><path fill-rule="evenodd" clip-rule="evenodd" d="M24.507 2.436a1.679 1.679 0 01-.178-.671h-1.952a.456.456 0 000 .913h2.25l-.12-.242zM22.377.765h2.225c.293-.451.8-.765 1.41-.765.556 0 1.028.264 1.342.659A1.665 1.665 0 0128.69 0a1.72 1.72 0 011.45.808c1.147.2 2.02.522 2.757 1.09.715.554 1.264 1.31 1.824 2.31h19.595a2.03 2.03 0 110 4.06H34.7a11.24 11.24 0 01-1.629 1.978c-.582.554-1.244 1.038-1.944 1.314a5.654 5.654 0 00-.391 1.286c-.134.79-.057 1.56.233 2.405.18.523.403 1.045.637 1.585l.039.09c.219.505.445 1.027.634 1.553l.062.175a10.731 10.731 0 017 7.676 10.696 10.696 0 013.499-.585c5.915 0 10.71 4.796 10.71 10.71h4.59c0 .337-.015.671-.043 1-.507 5.87-5.432 10.476-11.432 10.476h-35.19C5.474 47.93.55 43.325.042 37.456c-.028-.33-.043-.664-.043-1h4.59c0-5.916 4.795-10.71 10.71-10.71 1.122 0 2.203.172 3.219.491a10.73 10.73 0 017.51-7.747c-.127-.23-.262-.462-.4-.7-.059-.1-.117-.202-.176-.305-.3-.52-.603-1.069-.835-1.638-.65-1.597-.362-3.127.612-4.902h-2.853a1.456 1.456 0 010-2.912h4.389c.082-.322.098-.623.033-.913h-4.422a1.456 1.456 0 010-2.912h3.016l-.265-.53h-2.751a1.456 1.456 0 010-2.913zm8.776 17.564a39.06 39.06 0 00-.428-1.014l-.036-.082a22.84 22.84 0 01-.665-1.657c-.336-.982-.439-1.921-.273-2.897.164-.969.587-1.942 1.254-3.002.082-.13.16-.249.234-.362.149-.225.282-.429.4-.652.166-.315.258-.6.251-.897-.006-.277-.095-.567-.242-.882a9.14 9.14 0 00-.476-.846l-.066-.11c-.963-1.59-1.472-2.775-1.673-4.218-.058-.42-.388-.71-.743-.71a.683.683 0 00-.611.989l2.204 4.407-.355.178c0 .002 0 .003.002.005l.363-.16c.396.9.211 1.785-.124 2.562-.236.547-.58 1.104-.89 1.61-.117.19-.23.373-.33.545-.525.9-.839 1.67-.953 2.378-.01.564.089 1.131.297 1.737.179.523.402 1.045.636 1.585l.04.09.018.043.01.017.168.29c.16.277.324.56.478.843a10.72 10.72 0 011.51.21zm-1.003.844c.477.06.943.155 1.395.282.214.76.292 1.487.132 2.213a7.599 7.599 0 00-1.183-.35c.093-.754-.073-1.472-.344-2.145zm-.654 5.078c.162-.602.4-1.247.724-1.968.394.078.776.19 1.141.335-.232.717-.404 1.38-.515 2.02a4.558 4.558 0 00-1.35-.387zm1.167 7.693a11.962 11.962 0 00-.349-1.37l-.006-.022-.009-.021c-.696-1.726-1.055-3.012-1.072-4.26a6.826 6.826 0 01.066-1.036c.515.053.998.215 1.425.463-.014.207-.02.415-.02.622.002 1.42.334 2.821.96 4.563l.058.173c-.29.36-.647.662-1.053.888zm-3.665-18.519a4.514 4.514 0 00.298 2.422c.222.545.51 1.071.796 1.571.1.233.2.463.294.69a10.73 10.73 0 00-1.345.151 30.232 30.232 0 00-.554-.983 91.267 91.267 0 01-.168-.29c-.296-.516-.57-1.014-.774-1.516-.523-1.284-.31-2.558.726-4.334.101-.172.213-.355.33-.545.311-.505.654-1.063.89-1.61.335-.777.52-1.662.125-2.562l-.458.201.447-.224-2.204-4.407A.683.683 0 0126.012 1c.355 0 .685.29.744.71.2 1.443.71 2.628 1.672 4.218l.067.11c.175.289.342.563.475.846.148.315.236.605.242.882.007.296-.084.582-.25.897a7.955 7.955 0 01-.4.652c-.075.113-.153.232-.234.362-.667 1.06-1.09 2.034-1.255 3.002-.042.25-.067.499-.075.746zm2.649 21.267c.248.255.502.465.768.595a6.674 6.674 0 01-2.065.145c.126-.003.255-.025.386-.07.343-.119.64-.38.911-.67zm2.617.063a10.793 10.793 0 00-.134 1.7h-3.187a7.622 7.622 0 003.133-.679c.046-.346.11-.686.188-1.021zm.752-2.57a5.448 5.448 0 00-.198-.957 4.57 4.57 0 00.691-2.423c0-1.457-.68-2.756-1.739-3.597.087-.664.252-1.362.5-2.148a6.648 6.648 0 013.296 5.535 10.73 10.73 0 00-2.55 3.59zm-.418-10.088a7.655 7.655 0 013.908 5.722 10.703 10.703 0 011.896-1.113 9.729 9.729 0 00-5.74-6.863c.133.71.149 1.446-.047 2.203l-.22-.057.171.09.034.012c0 .002 0 .004-.002.006zm-.897 4.44c.028 1.007.243 2.042.656 3.304a3.59 3.59 0 00-.656-3.305zm.31 5.66c.012.09.02.176.023.262.016.411-.066.84-.328 1.427a3.285 3.285 0 01-.43.42c-.128.098-.205.12-.25.125-.07.005-.24-.023-.59-.365.152-.352.242-.69.278-1.035.48-.204.918-.487 1.297-.833zm.163-22.483c.07-.062.14-.126.209-.192A10.34 10.34 0 0034 7.505l.146-.237h20.17a1.03 1.03 0 100-2.06H34.128l-.142-.262c-.593-1.095-1.092-1.786-1.7-2.256-.469-.361-1.03-.614-1.81-.794.203 1.12.64 2.119 1.485 3.514l.066.108c.172.283.368.606.526.94.179.382.326.816.337 1.285.012.53-.157.989-.366 1.386a7.754 7.754 0 01-.35.585zm-3.416 9.383a9.78 9.78 0 00-1.274.104c.254.64.412 1.32.342 2.032a7.714 7.714 0 011.248-.076c.05-.672-.083-1.35-.316-2.06zm-9.294 7.488a9.726 9.726 0 017.021-7.182c.311.722.45 1.388.29 2.057a7.66 7.66 0 00-5.415 6.163 10.691 10.691 0 00-1.896-1.038zm2.821 1.751a6.654 6.654 0 013.998-5.638c-.416 1.066-.654 2.023-.717 2.973a4.591 4.591 0 001.468 7.321 2.327 2.327 0 01-.085.383c-.146.474-.174 1.21.397 1.66.227.18.463.308.708.365a6.604 6.604 0 01-2.184-.683 10.696 10.696 0 00-3.585-6.38zm3.044.47c0-.518.11-1.01.306-1.453.156 1.085.52 2.214 1.05 3.53.105.35.19.65.25.915a3.587 3.587 0 01-1.606-2.992zm2.308 1.768c.19.635.342 1.184.396 1.711a3.6 3.6 0 001.318.085c-.03-.417-.158-.86-.37-1.487-.626-1.742-.959-3.142-.96-4.563a9.391 9.391 0 01.052-1.004 3.58 3.58 0 00-1.524.792v.163c.017 1.248.377 2.534 1.073 4.26l.008.021.007.022zm.268 3.096c.038-.124.068-.246.091-.367a4.612 4.612 0 001.225.083 4.74 4.74 0 01-.192.5c-.305.34-.488.485-.62.53-.061.022-.17.05-.444-.165-.046-.037-.083-.094-.099-.194a.882.882 0 01.039-.387zm-1.214-8.879a4.559 4.559 0 011.548-.526c.137-.662.338-1.354.6-2.11a6.667 6.667 0 00-1.304.145c-.418.933-.693 1.74-.844 2.491zM22.377 5.209h3.516l.456.912h-3.972a.456.456 0 010-.912zm3.98 3.825c-.16.302-.343.603-.533.912h-3.447a.456.456 0 010-.912h3.98zm16.484 17.712c5.362 0 9.71 4.348 9.71 9.71h-2.06a7.65 7.65 0 10-15.3 0h-2.06c0-5.362 4.347-9.71 9.71-9.71zm0 3.06a6.65 6.65 0 016.65 6.65h-2.06a4.59 4.59 0 00-9.18 0h-2.06a6.65 6.65 0 016.65-6.65zm0 3.06a3.59 3.59 0 013.59 3.59h-7.18a3.59 3.59 0 013.59-3.59zm-16.846 3.012c.894.37 1.873.575 2.9.579H26.01c0-.195-.005-.387-.015-.579zM15.3 26.745c5.363 0 9.71 4.348 9.71 9.71h-2.06a7.65 7.65 0 10-15.3 0H5.59c0-5.362 4.347-9.71 9.71-9.71zm0 3.06a6.65 6.65 0 016.65 6.65h-2.06a4.59 4.59 0 10-9.18 0H8.65a6.65 6.65 0 016.65-6.65zm0 3.06a3.59 3.59 0 013.59 3.59h-7.18a3.59 3.59 0 013.59-3.59zm41.794 4.59H1.047c.504 5.317 4.98 9.476 10.428 9.476h35.19c5.449 0 9.925-4.16 10.429-9.475z" fill="#fff"/></svg>