<svg width="58" height="52" fill="none" xmlns="http://www.w3.org/2000/svg"><path fill-rule="evenodd" clip-rule="evenodd" d="M39.55 1.09a.5.5 0 01.654.071l1.332 1.444L1.361 28.967 1.1 28.62a.5.5 0 01.113-.71L39.55 1.09zM1.962 29.77L42.224 3.35l1.213 1.315a.5.5 0 01-.106.765L2.92 30.29a.5.5 0 01-.663-.126l-.295-.395zM40.939.483a1.5 1.5 0 00-1.962-.212l-16.14 11.291c-7.13 1.769-12.301 5.251-13.419 9.387L.64 27.09a1.5 1.5 0 00-.34 2.13l.542.724.615.82a1.5 1.5 0 001.987.378l5.768-3.548c-.013.263-.02.527-.02.792 0 6.196 3.519 11.727 9.025 15.352-.328.534-.503 1.094-.503 1.672 0 3.64 6.937 6.59 15.495 6.59 8.557 0 15.494-2.95 15.494-6.59 0-.324-.055-.643-.16-.955a3.357 3.357 0 00-.143-.35c5.836-3.612 9.601-9.31 9.601-15.719a16.235 16.235 0 00-.44-3.76 6.607 6.607 0 00.315-1.99c0-6.194-9.027-11.321-20.783-12.193l6.762-4.16a1.5 1.5 0 00.317-2.295l-1.5-1.626L40.938.483zm-5.333 10.873l-2.72 1.674c.215-.003.431-.005.648-.005 6.05 0 11.627 1.204 15.997 3.235 3.074 1.428 5.618 3.3 7.273 5.506-.419-2.53-2.656-5.002-6.51-6.953-3.789-1.918-8.926-3.206-14.688-3.457zm-4.442 2.733l-10.271 6.318v2.139a4.591 4.591 0 011.862.577l1.837-.884a1.744 1.744 0 011.42-.062c.34-1.595.585-2.428.997-3.615l.019-.053.03-.048c.814-1.306 1.555-2.254 2.447-3.067a12.852 12.852 0 011.73-1.309l-.07.004zm-11.271 6.934L14.71 24.21v2.192l2.521-2.523a4.597 4.597 0 012.66-1.312v-1.544zm-6.182 3.803l-2.78 1.71c.784 1.274 1.814 2.468 3.052 3.555a5.309 5.309 0 01-.272-2.515v-2.75zm-2.807-4.916l9.375-6.558a27.208 27.208 0 00-3.505 1.461c-2.903 1.47-4.888 3.235-5.87 5.097zm22.693 16.616c-6.073 0-11.627-1.444-15.897-3.834l.964-.049a4.57 4.57 0 002.017-.584c.101.402.368.762.77.968l4.986 2.56c.212.108.447.165.685.165h3.024a1.48 1.48 0 001.262-.698l-.002.078c2.073.03 3.425-.117 4.664-1.256.119-.11.211-.232.279-.361.723-.087 1.323-.212 1.926-.429.596-.214 1.178-.51 1.87-.925.5.162.95.266 1.413.274.49.008.966-.092 1.512-.294.889.262 1.333.513 1.552.837.21.31.289.813.08 1.81-3.33 1.112-7.106 1.738-11.105 1.738zm-12.034-6.729l.014-.022c.039-.07.075-.143.108-.217l.047.021.013-.014-.051-.025c.347-.686.656-1.219.985-1.66.677-.911 1.481-1.751 2.252-2.557.21-.221.42-.439.622-.655.172-.183.36-.375.572-.585a.77.77 0 00-.106-.682l-.273.067.057-.277a.773.773 0 00-.777-.051l-1.972.95-5.744 7.62 1.304-.066a3.575 3.575 0 002.69-1.44l.259-.407zm.866.505c-.09.163-.19.318-.299.467l-.417.655a.5.5 0 00.195.714l4.985 2.559a.5.5 0 00.229.055h3.024c.464 0 .61-.506.34-.76-2.127-1.984-4.081-2.995-7.55-3.872a.487.487 0 00-.507.182zm3.2-4.262l-.237.248c2.31.516 4.09 1.103 5.722 1.954 1.671.87 3.164 2.006 4.902 3.59.197.18.34.412.417.664a7.202 7.202 0 001.505-.351c.415-.15.835-.35 1.333-.631-1.008-.989-1.927-1.842-2.819-2.58-2.835-2.345-5.413-3.535-9.716-4.048-.168.168-.318.321-.454.466-.218.232-.436.461-.653.688zm7.03-4.274l-5.637 1.388c.103.238.155.502.14.777.856.11 1.648.249 2.391.418 4.532-1.74 6.9-3.113 10.456-6.619a3.734 3.734 0 01-.056-.646c0-.12.003-.237.01-.353l-7.139 4.96-.076.052-.09.023zm7.709-2.989c-3.147 3.046-5.471 4.489-9.207 6.013.74.24 1.435.52 2.103.845 1.849-.883 3.223-1.646 4.457-2.578 1.146-.865 2.186-1.886 3.375-3.305a4.007 4.007 0 01-.728-.975zm-2.045 5.078c-1.154.871-2.41 1.593-3.97 2.364a20.01 20.01 0 012.368 1.645c.758-.812 1.358-1.311 2.438-1.855a5 5 0 01.8-1.114c.334-.345.722-.63 1.214-.945.89-.658 1.466-.824 2.396-1.058l.012-.004 1.328-.299v-1.228c-1.075-.08-2.155-.413-3.032-.983-1.229 1.468-2.327 2.551-3.554 3.477zm2.16-9.269c-.093.251-.179.496-.253.742l-7.9 5.489-5.282 1.3c.297-1.361.524-2.125.887-3.174.772-1.232 1.45-2.087 2.244-2.81.805-.733 1.75-1.347 3.074-2.078l-.016-.029h.297c2.415 0 4.747.195 6.95.56zm.47 2.497c-.001-.791.203-1.452.531-2.317a34.74 34.74 0 015.648 1.572l.254 1.165c-1.007.536-1.69 1.492-2.302 2.867-1.004-.056-2.004-.373-2.767-.9-.837-.58-1.363-1.389-1.364-2.387zm7.382.08l-.082-.377c.244.103.483.209.72.317a3.906 3.906 0 00-.638.06zm2.684 1.121l.013-.122c.92.53 1.761 1.1 2.517 1.707l-.03.01.048.156c.245.806.398 1.31.377 2.016-.022.75-.332 1.487-.822 2.11a6.03 6.03 0 01-.538.6c-.877.852-2.197 1.125-3.575 1.125h-.365c-1.275-.796-1.842-1.531-2.735-3.034v-1.871c.676-1.588 1.328-2.37 2.235-2.729.318-.126.674-.165 1.143-.145.358.015.75.062 1.219.117.161.02.331.04.513.06zm5.773 5.295c-.49-.883-1.137-1.727-1.923-2.523.056.32.086.652.075 1.025-.03 1.004-.441 1.942-1.036 2.698a7.015 7.015 0 01-.627.699c-1.16 1.127-2.809 1.408-4.272 1.408h-.05a4.76 4.76 0 01-.131.687c.957.242 1.711.57 2.277 1.123.563.553.89 1.28 1.097 2.223 1.997-1.531 3.557-3.312 4.554-5.26.187-.367.355-.74.501-1.117a9.263 9.263 0 00-.465-.963zm-6.387 5.832c.436.427.718 1.062.903 2.155-1.617 1.111-3.477 2.07-5.526 2.84.103-.797.028-1.454-.331-1.987-.265-.392-.654-.67-1.128-.887.236-.152.454-.323.66-.525.43-.423.782-.96 1.135-1.683.476-.023.92-.072 1.304-.199a2 2 0 00.954-.632c.997.231 1.612.51 2.029.918zm-18.781 4.723c1.908.016 2.868-.166 3.769-.994.131-.12.156-.38-.05-.57-1.704-1.551-3.125-2.626-4.691-3.442-1.566-.816-3.299-1.385-5.637-1.9a.47.47 0 00-.444.135c-.678.723-1.037 1.21-1.328 1.803 3.56.907 5.665 1.986 7.925 4.096.277.259.42.565.456.872zm17.816-.275c-4.355 2.304-9.869 3.667-15.843 3.667s-11.489-1.363-15.844-3.667c-3.215-1.7-5.84-3.94-7.522-6.558-.026.359-.039.72-.039 1.084 0 10.18 10.272 18.771 23.405 18.771C46.73 47.157 57 38.567 57 28.387c0-.365-.013-.726-.038-1.085-1.682 2.619-4.308 4.857-7.523 6.558zM18.714 45.41c0-.261.056-.533.179-.815 4.159 2.37 9.236 3.754 14.703 3.754 5.185 0 10.02-1.245 14.052-3.394.037.154.055.306.055.455 0 .569-.266 1.196-.926 1.86-.664.668-1.675 1.315-3.003 1.88C41.121 50.278 37.386 51 33.209 51c-4.178 0-7.912-.722-10.565-1.85-1.329-.565-2.34-1.212-3.003-1.88-.66-.664-.927-1.291-.927-1.86zm26.451-21.852l-.698.157c.871 1.536 1.32 2.696 1.732 4.604.382-.024.676-.065.911-.143.285-.093.468-.235.604-.483.12-.22.215-.546.266-1.043-1.314-.848-1.968-1.687-2.815-3.092zm.108 5.217c-.426-2.061-.863-3.172-1.821-4.82-.503.136-.86.262-1.284.526.544.778.91 1.58 1.132 2.587.22 1.004.292 2.198.267 3.752a3.22 3.22 0 00.715-.525c.338-.333.643-.79.99-1.52zm-2.716 2.488c.047-1.76-.018-2.996-.234-3.98a5.941 5.941 0 00-.983-2.241 4.49 4.49 0 00-.663.55 3.835 3.835 0 00-.576.783c.483.814.836 1.548.954 2.363.113.777.007 1.583-.322 2.558.322.09.587.135.842.14.292.005.596-.044.982-.173zm-2.684-.56c.221-.74.267-1.307.192-1.822-.084-.577-.325-1.133-.73-1.835-.762.413-1.235.811-1.843 1.458a49.669 49.669 0 012.38 2.2zm-23.699.854l5.807-7.705a3.607 3.607 0 00-4.041.735l-3.254 3.256a4.312 4.312 0 001.488 3.714z" fill="#fff"/></svg>