<svg width="70" height="55" fill="none" xmlns="http://www.w3.org/2000/svg"><path fill-rule="evenodd" clip-rule="evenodd" d="M47.336 5.122l.2-1.451c.019-.136.025-.275.017-.417-.07-1.249-1.253-2.332-2.802-2.25-1.55.083-2.605 1.285-2.535 2.534.039.699.412 1.328 1.01 1.75l.967.678-.825.84-1.866 1.902 2.588 2.168 2.026-2.066.677-.69.714.656a2.81 2.81 0 002.055.712c1.549-.082 2.605-1.285 2.535-2.533-.07-1.248-1.253-2.332-2.802-2.25a2.98 2.98 0 00-.534.077l-1.425.34zm-6.603 2.941l-.432.44c-1.11.209-2.155.394-3.148.57-5.871 1.038-9.874 1.746-13.894 4.928-1.573 1.4-2.67 3.074-3.282 4.837-6.755 3.427-11.154 9.014-11.154 15.325a13.512 13.512 0 00.31 2.88c-2.17.567-3.86 2.294-4.35 4.468a5.87 5.87 0 00-.098.567H.392A.392.392 0 000 42.47a6.27 6.27 0 006.27 6.27h.807A6.27 6.27 0 0013.346 55h44.473a6.27 6.27 0 006.269-6.27A6.27 6.27 0 0070 42.47a.392.392 0 00-.392-.392H66.48a5.858 5.858 0 00-.098-.567c-.484-2.15-2.143-3.863-4.278-4.448a13.697 13.697 0 00.314-2.9c0-3.925-1.7-7.57-4.612-10.59.148-1.398.156-2.389.111-3.445a5.508 5.508 0 00-.273-1.493l1.82-1.808.71-.705a3.686 3.686 0 002.739 1.174c2.028-.018 3.657-1.654 3.64-3.656-.017-1.9-1.514-3.446-3.401-3.582a3.776 3.776 0 00-1.02.066 3.604 3.604 0 00.03-1.02c-.205-1.825-1.781-3.237-3.682-3.22-2.028.017-3.658 1.654-3.64 3.655.007.846.308 1.622.806 2.234.153.188.325.361.512.516l-.712.707-1.322 1.313-.522.519a6.205 6.205 0 00-1.888-.215c-.598.024-1.176.042-1.745.06-1.89.059-3.677.115-5.75.366.087-.962.16-1.982.229-3.07l-.015-.012 2.399-2.446a3.811 3.811 0 002.786.976c2.026-.108 3.583-1.713 3.478-3.585-.099-1.778-1.66-3.157-3.55-3.2a4.025 4.025 0 00-1.018.108 3.161 3.161 0 00-.025-1.018C48.189 1.125 46.57-.094 44.695.006c-2.025.108-3.582 1.713-3.478 3.585.038.687.296 1.315.706 1.829.207.26.453.49.73.685l-.706.72-1.214 1.238zm2.429 7.118c.083-.881.154-1.816.22-2.814l-3.359-2.831c-.952.176-1.85.336-2.704.487-5.864 1.042-9.57 1.7-13.36 4.69a10.794 10.794 0 00-2.61 3.474c4.131-1.835 9.025-2.896 14.271-2.896 1.705 0 3.373.112 4.99.326l.052.007c.89-.183 1.718-.328 2.5-.443zm-2.333 1.43l-.08.035a17.27 17.27 0 00-4.086 2.527c-4.831 4.468-5.525 11.962-1.55 16.739a10.8 10.8 0 00.891.948 6.06 6.06 0 013.728 1.614 6.066 6.066 0 014.15-1.628c1.607 0 3.067.619 4.15 1.628a6.057 6.057 0 012.222-1.318c.274-.215.542-.443.803-.684l.054-.06c3.372-3.795 4.736-7.395 5.555-12.566.063-.392.122-.794.178-1.206l.039.035c.07-.946.068-1.703.034-2.505a4.687 4.687 0 00-1.15-2.85l-.588-.576a5.063 5.063 0 00-3.426-1.132c-.61.024-1.194.043-1.767.06-2.883.091-5.444.172-9.157.939zm15.667.023a5.945 5.945 0 00-.647-.634l-1.011-.991 2.024-2.01.783-.779-.852-.703a2.597 2.597 0 01-.954-1.987c-.013-1.436 1.16-2.633 2.649-2.646 1.488-.013 2.683 1.164 2.696 2.6.001.16-.012.317-.038.469l-.252 1.444 1.437-.293c.169-.035.344-.054.525-.055 1.488-.013 2.683 1.164 2.696 2.6.012 1.437-1.16 2.634-2.65 2.647a2.686 2.686 0 01-1.997-.855l-.704-.757-.733.728-2.096 2.081-.876-.859zM1.035 43.078a5.27 5.27 0 005.234 4.661h57.462a5.27 5.27 0 005.234-4.66H1.035zM13.345 54a5.27 5.27 0 01-5.234-4.66h54.942A5.27 5.27 0 0157.819 54H13.346zM65.35 41.511c-.578-2.104-2.531-3.665-4.87-3.665a5.066 5.066 0 00-3.467 1.36l-.682.635-.682-.636a5.066 5.066 0 00-3.468-1.36 5.066 5.066 0 00-3.468 1.36l-.682.636-.681-.636a5.066 5.066 0 00-3.468-1.36 5.066 5.066 0 00-3.468 1.36l-.682.636-.682-.636a5.066 5.066 0 00-3.468-1.36 5.066 5.066 0 00-3.468 1.36l-.682.636-.682-.636a5.066 5.066 0 00-3.468-1.36 5.066 5.066 0 00-3.468 1.36l-.681.636-.682-.636a5.066 5.066 0 00-3.468-1.36 5.066 5.066 0 00-3.468 1.36l-.682.636-.682-.636a5.066 5.066 0 00-3.467-1.36c-2.338 0-4.291 1.562-4.87 3.666H65.35zm-29.321-23.11l-.023.018-.022.02c-5.152 4.765-5.977 12.79-1.72 18.016a7.055 7.055 0 00-2.794 1.207 7.07 7.07 0 00-4.15-1.337 7.07 7.07 0 00-4.15 1.337 7.07 7.07 0 00-4.149-1.337 7.07 7.07 0 00-4.15 1.337 7.07 7.07 0 00-4.854-1.302 12.514 12.514 0 01-.194-2.197c0-4.799 2.76-9.242 7.424-12.527 4.662-3.283 11.155-5.345 18.373-5.345 1.116 0 2.216.05 3.294.145a18.76 18.76 0 00-2.885 1.964zm20.34 19.26a7.064 7.064 0 00-3.871-1.33c2.916-3.528 4.233-6.994 5.032-11.585 2.49 2.766 3.887 5.998 3.887 9.417 0 .743-.066 1.477-.194 2.197a7.07 7.07 0 00-4.854 1.302zM20.252 49.625h30.737-30.737zM18.398 26.73a.44.44 0 00.45-.43.44.44 0 00-.45-.43.44.44 0 00-.449.43c0 .225.189.43.45.43zm0 1c.8 0 1.45-.64 1.45-1.43 0-.79-.65-1.43-1.45-1.43-.8 0-1.449.64-1.449 1.43 0 .79.649 1.43 1.45 1.43zm-2.448 4.11a.44.44 0 01-.448.43.44.44 0 01-.45-.43.44.44 0 01.45-.43.44.44 0 01.448.43zm1 0c0 .79-.648 1.43-1.449 1.43-.8 0-1.448-.64-1.448-1.43 0-.79.648-1.43 1.449-1.43.8 0 1.448.64 1.448 1.43zm6.875-2.25a.44.44 0 00.45-.43.44.44 0 00-.45-.43.44.44 0 00-.449.43c0 .225.189.43.45.43zm0 1c.8 0 1.45-.64 1.45-1.43 0-.789-.65-1.43-1.45-1.43-.8 0-1.449.641-1.449 1.43 0 .79.65 1.43 1.45 1.43zm17.268-4.289a.44.44 0 01-.449.43.44.44 0 01-.449-.43.44.44 0 01.449-.43.44.44 0 01.449.43zm1 0c0 .79-.649 1.43-1.449 1.43s-1.449-.64-1.449-1.43c0-.79.649-1.43 1.449-1.43s1.449.64 1.449 1.43zm6.76 3.29a.44.44 0 00.45-.43.44.44 0 00-.45-.43.44.44 0 00-.448.43c0 .224.188.43.449.43zm0 1c.801 0 1.45-.64 1.45-1.43 0-.79-.649-1.43-1.45-1.43-.8 0-1.448.64-1.448 1.43 0 .79.649 1.43 1.449 1.43zM43.99 31.84a.44.44 0 01-.45.43.44.44 0 01-.448-.43.44.44 0 01.449-.43.44.44 0 01.449.43zm1 0c0 .79-.649 1.43-1.45 1.43-.8 0-1.448-.64-1.448-1.43 0-.79.649-1.43 1.449-1.43s1.449.64 1.449 1.43zm-7.245.43a.44.44 0 00.45-.43.44.44 0 00-.45-.43.44.44 0 00-.449.43c0 .225.189.43.45.43zm0 1c.8 0 1.45-.64 1.45-1.43 0-.79-.65-1.43-1.45-1.43-.8 0-1.449.64-1.449 1.43 0 .79.65 1.43 1.45 1.43z" fill="#D9D9D9"/></svg>