<svg width="62" height="52" fill="none" xmlns="http://www.w3.org/2000/svg"><path fill-rule="evenodd" clip-rule="evenodd" d="M22.183.142a.5.5 0 00-.7.716c.417.407.743.748.974 1.068.229.316.343.582.37.838.054.5-.21 1.187-1.352 2.36a.565.565 0 00-.015.016c-.779.875-1.116 1.73-1.07 2.74.044.959.435 2.02.983 3.313a.5.5 0 10.92-.39c-.553-1.308-.87-2.214-.904-2.97-.032-.702.18-1.308.81-2.02 1.16-1.192 1.728-2.173 1.623-3.156-.052-.487-.266-.918-.554-1.317-.286-.395-.666-.788-1.085-1.198zm9.006.525a.5.5 0 10-.699.715c.417.407.743.748.974 1.068.228.317.343.583.37.838.054.5-.21 1.188-1.352 2.36l-.007.007-.009.01c-.778.874-1.116 1.729-1.07 2.739.044.96.436 2.021.983 3.313a.5.5 0 00.921-.39c-.554-1.307-.87-2.213-.904-2.969-.033-.702.179-1.308.81-2.02 1.16-1.192 1.728-2.173 1.622-3.156-.052-.488-.265-.918-.554-1.317-.285-.396-.666-.788-1.085-1.198zm8.3.008a.5.5 0 01.707-.008c.42.41.8.802 1.085 1.198.289.399.502.83.554 1.317.105.983-.463 1.964-1.622 3.156-.632.712-.843 1.318-.81 2.02.034.756.35 1.662.904 2.97a.5.5 0 01-.92.39c-.548-1.293-.94-2.355-.984-3.314-.046-1.01.292-1.865 1.07-2.74l.008-.008.007-.008c1.142-1.172 1.406-1.86 1.353-2.36-.027-.255-.142-.521-.37-.838-.232-.32-.557-.66-.974-1.068a.5.5 0 01-.008-.707zm1.648 16.448c-1.403-.832-3.14-.755-4.542-.043-.945.479-1.938.795-3.04 1.11l-.666.188h-.002c-.912.256-1.898.532-2.952.908a.5.5 0 00-.088.041c-.401.239-.772.464-1.12.675-2.242 1.359-3.593 2.177-6.35 2.742a5.63 5.63 0 01-.303-.837c-.431-1.545-1.75-2.534-3.25-2.826a6.408 6.408 0 01-2.274-.906c-1.35-.848-3.02-.896-4.446-.245-.766.35-1.541.544-2.516.645a4.16 4.16 0 00-3.11 1.96c-.79 1.28-1.582 2.031-2.693 2.687-.968.572-1.704 1.503-1.948 2.63-.233 1.075-.5 1.882-.862 2.64-.622 1.304-.611 2.863.191 4.113.98 1.527 1.523 2.907 1.98 5.036H1.501a1.5 1.5 0 00-1.4 2.038l2.417 6.28 1.958 5.083a1.5 1.5 0 001.4.961h50.322a1.5 1.5 0 001.403-.969l1.922-5.079 2.378-6.284a1.5 1.5 0 00-1.403-2.03h-1.013c.121-1.082.353-1.82.847-2.556a5.297 5.297 0 00.857-3.753c-.127-.828-.071-1.568.14-2.4.36-1.425-.029-2.904-.93-4.026-.643-.801-1.051-1.645-1.376-2.752-.406-1.387-1.508-2.433-2.869-2.846-.91-.276-1.713-.648-2.6-1.181-1.387-.835-3.05-.645-4.396.03-.703.353-1.476.55-2.618.666-2.402-.338-3.875-.794-5.404-1.7zM23.22 24.189c-.124-.183-.24-.36-.345-.529 2.74-.601 4.198-1.485 6.376-2.807l.75-.453c1.208 1.344 2.562 2.406 4.082 3.043 1.219.51 2.192 1.493 2.48 2.706a8.88 8.88 0 00.836 2.212 3.722 3.722 0 01-.13 3.742c-.959 1.51-1.444 3.13-1.833 5.538H18.208c.157-.637.325-1.153.558-1.597.295-.562.704-1.026 1.369-1.456 1.092-.706 1.914-1.794 2.21-3.085a6.722 6.722 0 01.914-2.178c.983-1.548 1.012-3.602-.038-5.136zm11.25-1.668c-1.258-.527-2.42-1.396-3.492-2.535a51.212 51.212 0 012.164-.64v-.001c.231-.065.46-.129.686-.194 1.113-.317 2.183-.654 3.218-1.18 1.15-.583 2.52-.617 3.58.012 1.59.943 3.12 1.428 5.387 1.773-.059 2.174.243 3.645 1.342 5.2.587.83.8 1.853.551 2.815-.245.949-.329 1.83-.176 2.844.155 1.025-.053 2.051-.664 2.817-.657.825-1.079 1.569-1.284 2.351-.16.606-.181 1.21-.107 1.858H36.45c.375-2.257.83-3.688 1.663-5.003a4.721 4.721 0 00.168-4.75 7.903 7.903 0 01-.744-1.97c-.378-1.593-1.625-2.793-3.066-3.397zm13.701 1.858c-.932-1.32-1.214-2.554-1.158-4.603 1.03-.13 1.833-.343 2.593-.725 1.147-.575 2.428-.671 3.431-.068.946.57 1.825.978 2.826 1.282 1.06.321 1.894 1.128 2.2 2.17.353 1.205.813 2.173 1.556 3.098.724.901 1.016 2.062.74 3.153-.24.943-.31 1.82-.16 2.797a4.298 4.298 0 01-.698 3.044c-.632.94-.895 1.878-1.023 3.114H46.683c-.08-.604-.062-1.113.067-1.604.158-.601.493-1.22 1.1-1.981.817-1.026 1.057-2.348.87-3.59-.13-.858-.063-1.601.156-2.445.327-1.269.04-2.591-.704-3.642zm-30.291 11.2c-.318.605-.522 1.29-.7 2.062H4.167c-.485-2.334-1.067-3.874-2.16-5.576-.594-.925-.622-2.113-.13-3.142.401-.843.69-1.726.936-2.858.18-.828.726-1.537 1.48-1.982 1.253-.74 2.161-1.607 3.035-3.023a3.16 3.16 0 012.361-1.49c1.061-.11 1.946-.327 2.83-.73 1.144-.523 2.456-.473 3.497.182a7.408 7.408 0 002.617 1.04c1.205.235 2.167 1.004 2.477 2.114.123.44.282.865.543 1.364.19.362.445.78.742 1.214.81 1.183.801 2.803.019 4.034a7.723 7.723 0 00-1.045 2.492c-.232 1.014-.884 1.89-1.778 2.468-.802.518-1.332 1.109-1.711 1.83zM1.035 39.32a.5.5 0 01.466-.68h58.997a.5.5 0 01.468.678l-2.256 5.96H3.328L1.035 39.32zm2.678 6.959h54.619l-1.666 4.401a.5.5 0 01-.468.323H5.875a.5.5 0 01-.466-.32l-1.696-4.404zm10.09-22.11c.19 0 .324-.149.324-.31a.317.317 0 00-.324-.309.317.317 0 00-.324.31c0 .16.135.309.324.309zm0 1c.731 0 1.324-.586 1.324-1.31 0-.723-.593-1.309-1.324-1.309-.731 0-1.324.587-1.324 1.31 0 .723.593 1.309 1.324 1.309zm.04 4.349c0 .16-.134.31-.324.31a.317.317 0 01-.323-.31c0-.16.134-.31.323-.31.19 0 .324.15.324.31zm1 0c0 .723-.593 1.31-1.324 1.31a1.317 1.317 0 01-1.323-1.31c0-.723.592-1.31 1.323-1.31s1.324.587 1.324 1.31zm-6.336 3.809c.189 0 .323-.15.323-.31s-.134-.31-.323-.31a.317.317 0 00-.324.31c0 .16.134.31.324.31zm0 1c.73 0 1.323-.587 1.323-1.31 0-.723-.592-1.31-1.323-1.31s-1.324.587-1.324 1.31c0 .723.593 1.31 1.324 1.31zm22.313-6.78c0 .16-.134.308-.323.308a.317.317 0 01-.324-.309c0-.16.134-.31.324-.31.189 0 .323.15.323.31zm1 0c0 .722-.592 1.308-1.323 1.308a1.317 1.317 0 01-1.324-1.309c0-.723.592-1.31 1.324-1.31.73 0 1.323.587 1.323 1.31zm-3.252 5.78c.189 0 .324-.15.324-.31s-.135-.31-.324-.31a.317.317 0 00-.324.31c0 .16.135.31.324.31zm0 1c.731 0 1.324-.587 1.324-1.31 0-.723-.593-1.31-1.324-1.31-.731 0-1.324.587-1.324 1.31 0 .723.593 1.31 1.324 1.31zm14.7-8.09c0 .16-.135.31-.324.31a.317.317 0 01-.324-.31c0-.16.135-.31.324-.31.19 0 .324.15.324.31zm1 0c0 .723-.593 1.31-1.324 1.31a1.317 1.317 0 01-1.324-1.31c0-.723.593-1.31 1.324-1.31.731 0 1.324.587 1.324 1.31zm9.837-1c.189 0 .323-.15.323-.31s-.134-.31-.323-.31a.317.317 0 00-.324.31c0 .16.135.31.324.31zm0 1c.73 0 1.323-.587 1.323-1.31 0-.723-.592-1.31-1.323-1.31s-1.324.587-1.324 1.31c0 .723.593 1.31 1.324 1.31zm.323 6.78c0 .16-.134.31-.323.31a.317.317 0 01-.324-.31c0-.16.135-.31.324-.31s.323.15.323.31zm1 0c0 .723-.592 1.31-1.323 1.31a1.317 1.317 0 01-1.324-1.31c0-.723.593-1.31 1.324-1.31.73 0 1.323.587 1.323 1.31z" fill="#D9D9D9"/></svg>