<svg width="43" height="54" fill="none" xmlns="http://www.w3.org/2000/svg"><path d="M3.075 16.818V45a8 8 0 008 8H32.44a8 8 0 008-8V16.134m-37.364.684v0c-2.897-.46-1.591-3.27.848-4.9l6.456-4.315m-7.304 9.215c2.326.267 3.601.176 5.79-.73 2.796-.78 4.364-.835 7.16 0 3.435 1.268 5.27 1.43 8.266 0 2.989-.674 4.652-.883 7.528 0 3.025 1.279 4.94 1.184 8.62.046m0 0v0c2.88-.627.869-3.613-1.622-5.19l-5.28-3.34m0 0H10.38m23.159 0V3.421h-23.16v4.181m8.922 39.768c-2.208 1.338-3.423 1.316-5.554 0-2.13-1.316-2.168-6.071-3.368-6.918-.748-.527-1.114-1.073-1.047-1.757.097-.995.515-1.964.398-2.958-.214-1.82-.244-3.214.014-4.674.27-1.521-.572-3.26.134-4.633.022-.043.047-.085.073-.126.532-.814 1.289-1.818 1.587-2.742v0c1.205-3.727 6.412-5.091 8.129-1.57.114.235.228.486.345.754m-.71 24.624c-1.552-3.456-1.936-5.642-2.326-8.803-.129-1.042-.957-2.034-1.122-3.07v0c-.207-1.304.975-2.325 1.132-3.636.408-3.413 1.12-5.713 3.026-9.115m-.71 24.624c2.001 3.935 7.814 2.983 8.266 0m-7.556-24.624c2.22-1.708 3.463-1.665 5.683 0m0 0c2.082 1.835 1.733 3.477 0 6.854 1.091 1.385 1.078 2.151-.452 3.49 0 0-1.098 6.855 0 6.855s1.68 1.904 1.098 2.856c-.581.952 1.68 1.586 1.227 4.57m-1.873-24.625c-.349-1.708 3.595-4.592 6.124-3.085.953.573 1.499 1.044 1.797 1.624.454.88.796 1.864.87 2.852.014.176-.008.341-.068.5-.325.86-1.214 1.4-1.59 2.238-.557 1.244-.736 2.33-.775 4.051v4.497c0 1.334 1.389 2.209 1.626 3.522v0c.211 1.173-.044 2.455.44 3.544.535 1.207.452 2.227-.267 3.704-2.003 2.338-3.453 2.29-6.284 1.177" stroke="#fff"/><rect x="8.924" y=".5" width="26.158" height="3" rx="1.5" stroke="#fff"/><path d="M31.212 21.252a.552.552 0 01-.561.542.552.552 0 01-.561-.542c0-.292.243-.543.56-.543.319 0 .562.251.562.543z" stroke="#fff"/><mask id="path-4-inside-1_476_3596" fill="#fff"><ellipse cx="32.234" cy="24.107" rx=".777" ry=".763"/></mask><path d="M32.01 24.107a.23.23 0 01.224-.237v2a1.77 1.77 0 001.776-1.763h-2zm.224-.237a.23.23 0 01.223.237h-2c0 .99.812 1.763 1.777 1.763v-2zm.223.237a.23.23 0 01-.223.237v-2a1.77 1.77 0 00-1.777 1.763h2zm-.223.237a.23.23 0 01-.224-.237h2a1.77 1.77 0 00-1.776-1.763v2z" fill="#fff" mask="url(#path-4-inside-1_476_3596)"/><mask id="path-6-inside-2_476_3596" fill="#fff"><ellipse cx="29.323" cy="23.745" rx=".777" ry=".763"/></mask><path d="M29.1 23.745a.23.23 0 01.223-.236v2a1.77 1.77 0 001.777-1.764h-2zm.223-.236a.23.23 0 01.224.236h-2c0 .99.812 1.764 1.776 1.764v-2zm.224.236a.23.23 0 01-.224.237v-2a1.77 1.77 0 00-1.776 1.764h2zm-.224.237a.23.23 0 01-.223-.236h2a1.77 1.77 0 00-1.777-1.764v2z" fill="#fff" mask="url(#path-6-inside-2_476_3596)"/><mask id="path-8-inside-3_476_3596" fill="#fff"><ellipse cx="24.523" cy="41.646" rx=".777" ry=".763"/></mask><path d="M24.3 41.646a.23.23 0 01.223-.237v2a1.77 1.77 0 001.776-1.763h-2zm.223-.237a.23.23 0 01.223.237h-2c0 .99.812 1.763 1.777 1.763v-2zm.223.237a.23.23 0 01-.223.237v-2a1.77 1.77 0 00-1.777 1.763h2zm-.223.237a.23.23 0 01-.224-.237h2a1.77 1.77 0 00-1.776-1.763v2z" fill="#fff" mask="url(#path-8-inside-3_476_3596)"/><mask id="path-10-inside-4_476_3596" fill="#fff"><ellipse cx="24.699" cy="44.109" rx=".777" ry=".763"/></mask><path d="M24.476 44.109a.23.23 0 01.223-.237v2a1.77 1.77 0 001.777-1.763h-2zm.223-.237a.23.23 0 01.224.237h-2c0 .99.812 1.763 1.776 1.763v-2zm.224.237a.23.23 0 01-.224.237v-2a1.77 1.77 0 00-1.776 1.763h2zm-.224.237a.23.23 0 01-.223-.237h2a1.77 1.77 0 00-1.777-1.763v2z" fill="#fff" mask="url(#path-10-inside-4_476_3596)"/><mask id="path-12-inside-5_476_3596" fill="#fff"><ellipse cx="22.577" cy="42.951" rx=".777" ry=".763"/></mask><path d="M22.354 42.95a.23.23 0 01.223-.236v2a1.77 1.77 0 001.777-1.763h-2zm.223-.236a.23.23 0 01.224.237h-2c0 .99.812 1.763 1.776 1.763v-2zm.224.237a.23.23 0 01-.224.236v-2a1.77 1.77 0 00-1.776 1.764h2zm-.224.236a.23.23 0 01-.223-.236h2a1.77 1.77 0 00-1.777-1.764v2z" fill="#fff" mask="url(#path-12-inside-5_476_3596)"/><mask id="path-14-inside-6_476_3596" fill="#fff"><ellipse cx="15.408" cy="21.259" rx=".777" ry=".763"/></mask><path d="M15.185 21.26a.23.23 0 01.223-.238v2a1.77 1.77 0 001.777-1.763h-2zm.223-.238a.23.23 0 01.224.237h-2c0 .99.812 1.763 1.776 1.763v-2zm.224.237a.23.23 0 01-.224.237v-2a1.77 1.77 0 00-1.776 1.763h2zm-.224.237a.23.23 0 01-.223-.237h2a1.77 1.77 0 00-1.777-1.763v2z" fill="#fff" mask="url(#path-14-inside-6_476_3596)"/><mask id="path-16-inside-7_476_3596" fill="#fff"><ellipse cx="14.231" cy="23.158" rx=".777" ry=".763"/></mask><path d="M14.007 23.158a.23.23 0 01.224-.237v2a1.77 1.77 0 001.776-1.763h-2zm.224-.237a.23.23 0 01.223.237h-2c0 .99.812 1.763 1.777 1.763v-2zm.223.237a.23.23 0 01-.223.236v-2a1.77 1.77 0 00-1.777 1.764h2zm-.223.236a.23.23 0 01-.224-.236h2a1.77 1.77 0 00-1.776-1.764v2z" fill="#fff" mask="url(#path-16-inside-7_476_3596)"/><mask id="path-18-inside-8_476_3596" fill="#fff"><ellipse cx="16.697" cy="23.158" rx=".777" ry=".763"/></mask><path d="M16.473 23.158a.23.23 0 01.224-.237v2a1.77 1.77 0 001.776-1.763h-2zm.224-.237a.23.23 0 01.223.237h-2c0 .99.812 1.763 1.777 1.763v-2zm.223.237a.23.23 0 01-.224.236v-2a1.77 1.77 0 00-1.776 1.764h2zm-.224.236a.23.23 0 01-.223-.236h2a1.77 1.77 0 00-1.776-1.764v2z" fill="#fff" mask="url(#path-18-inside-8_476_3596)"/></svg>