<svg width="78" height="54" fill="none" xmlns="http://www.w3.org/2000/svg"><path fill-rule="evenodd" clip-rule="evenodd" d="M57.064 1.512a.5.5 0 01.5-.512h2.997a.5.5 0 01.5.508l-.322 19.831-.008.514c-.561.024-1.152.033-1.777.03h-.017c-.486.015-.95.019-1.393.012l-.48-20.383zm10.453 18.565c-1.437.948-3.111 1.456-5.3 1.674l6.16-9.123a.613.613 0 00.013-.02l4.542-7.472a.5.5 0 01.666-.18l2.868 1.562a.5.5 0 01.186.703l-4.574 7.354-.005.01a.603.603 0 00-.007.01c-1.493 2.673-2.89 4.388-4.549 5.482zm-.03-7.917l-5.61 8.307L64.195 5.12a.5.5 0 01.566-.42l3.333.486a.5.5 0 01.421.574l-1.027 6.4zm2.015-6.241l-.641 3.989 3.216-5.292a1.5 1.5 0 012-.538l2.868 1.562a1.5 1.5 0 01.556 2.11l-4.098 6.59H76.5a1.5 1.5 0 011.488 1.69l-4.68 36.66A1.5 1.5 0 0171.822 54H59.63a.498.498 0 01-.195-.04H10.45a1 1 0 01-.934-.64l-2.323-6.043a.024.024 0 00-.022-.015.024.024 0 01-.024-.024v-.08a.498.498 0 01-.19-.044H3.162a3.161 3.161 0 010-6.322h3.413c-1.056-1.294-1.725-2.447-2.073-3.676-.354-1.253-.36-2.542-.158-4.073.112-.842.34-1.729.845-2.495.155-.237.319-.445.496-.621.468-.468 1.013-.65 1.581-.596.539.05 1.055.308 1.518.625.755.518 1.509 1.298 2.14 1.951.136.14.265.274.388.399 1.073 1.087 2.105 1.598 3.3 1.702 1.061.092 2.292-.133 3.848-.642-1.038-1.09-1.856-2.022-2.451-2.825-.687-.925-1.125-1.736-1.218-2.456a1.91 1.91 0 01.1-.962 1.63 1.63 0 01.544-.703c.454-.343 1.075-.491 1.69-.557.931-.1 2.062-.026 3.021.038.305.02.593.039.851.05 2.362.108 4.03-.521 5.7-2.11l.353-.338c.813-.781 1.82-1.75 2.778-2.345.549-.34 1.155-.609 1.75-.596.651.013 1.193.358 1.564 1.024.54.97.83 2.549 1.038 4.746a1.49 1.49 0 01-.024.441c-.52 2.494-1.324 4.225-2.535 5.508 2.18.447 4.2-.227 6.505-1.56-.589-1.162-1.036-2.181-1.308-3.08-.303-1.004-.4-1.904-.19-2.708.406-1.557 1.877-2.486 4.235-3.225l-.939-5.622a1.5 1.5 0 011.48-1.747h2.282l-1.738-3.633a1.5 1.5 0 01.836-2.055l2.896-1.065a1.5 1.5 0 011.849.716l1.76 3.388-2.628-6.363a1.5 1.5 0 011.029-2.03l3.433-.843a1.5 1.5 0 011.815 1.098l3.51 14.27-.383-16.287A1.5 1.5 0 0157.564 0h2.997a1.5 1.5 0 011.5 1.524l-.2 12.356 1.344-8.91a1.5 1.5 0 011.7-1.26l3.332.487a1.5 1.5 0 011.265 1.722zM20.143 40.792h9.702a8.735 8.735 0 01-1.696-.722c-1.425-.798-2.61-2.013-3.85-3.786l-4.156 4.508zm17.654 0h11.118a1.347 1.347 0 01-.04-.059c-.61-.934-1.057-1.75-1.332-2.454-.187-.477-.305-.925-.33-1.338-1.01-.101-1.822-.307-2.499-.746-.455-.296-.827-.682-1.156-1.168-.466 1.876-1.205 3.26-2.464 4.255-.864.684-1.948 1.162-3.297 1.51zm26.306 0h3.439a3.161 3.161 0 110 6.322h-3.447a.498.498 0 01-.204.043h-.355a1 1 0 00-.63.567L60.677 53H71.82a.5.5 0 00.496-.437l4.679-36.66a.5.5 0 00-.496-.564h-3.705c-1.478 2.596-2.934 4.39-4.727 5.572-1.856 1.225-4.019 1.758-6.816 1.918-.72.041-1.482.058-2.293.055-.677.02-1.315.02-1.92 0a18.104 18.104 0 01-3.03-.335c-1.924-.395-3.444-1.142-4.788-2.302-1.334-1.152-2.476-2.697-3.67-4.659a.514.514 0 00-.436-.249h-3.712a.5.5 0 00-.493.583l.997 5.972c1.392 2.54 2.695 4.24 4.52 5.375 1.846 1.148 4.29 1.755 8.039 1.966.511.028 1.146.345 1.261 1.028.165.98-.288 1.836-1.035 2.665-.53.587-1.251 1.21-2.117 1.91 1.4-.019 2.569-.136 3.703-.56 1.483-.553 2.96-1.653 4.783-3.889.785-.962 2.269-1.36 3.336-.472 1.398 1.162 2.13 2.474 2.08 4.234-.047 1.7-.827 3.763-2.26 6.46a1.488 1.488 0 01-.114.18zm-.69 5.365c.135-.028.274-.043.415-.043h3.714a2.161 2.161 0 100-4.322H3.162a2.161 2.161 0 100 4.322h3.932c.103 0 .204.015.3.043h56.019zm-55.194 1h53.852c-.03.058-.06.117-.085.178l-2.38 5.626H10.451l-2.232-5.804zm29.376-21.971c.264-1.013 1.254-1.802 3.59-2.531 1.37 2.452 2.747 4.24 4.713 5.463 2.056 1.279 4.696 1.9 8.512 2.115.102.006.192.04.25.082.055.039.075.077.08.114.09.531-.12 1.085-.791 1.83-.648.719-1.641 1.524-2.952 2.556-.968-.087-1.79-.056-2.42.149a2.1 2.1 0 00-.886.526 1.652 1.652 0 00-.315.462c-.972-.092-1.619-.272-2.118-.596-.544-.353-.975-.919-1.429-1.912-.024-.176-.05-.345-.078-.508.227.105.454.182.686.23.587.121 1.157.043 1.818-.156a.5.5 0 10-.29-.957c-.577.174-.966.208-1.326.134-.34-.07-.705-.247-1.21-.597-.189-.59-.386-1.082-.625-1.456-.268-.418-.617-.73-1.097-.834-.456-.098-.939.015-1.433.221-.38.16-.809.39-1.29.681-.56-1.11-.967-2.047-1.21-2.85-.276-.917-.324-1.613-.18-2.166zm4.928 6.861c.123.401.229.905.315 1.529-.42 2.444-1.117 3.936-2.364 4.922-1.283 1.014-3.232 1.563-6.335 1.897a.516.516 0 01-.072.003c-2.375-.092-4.033-.419-5.43-1.2-1.266-.71-2.364-1.82-3.582-3.578 2.342-.698 4.223-1.394 5.678-2.532 2.95.875 5.539-.08 8.31-1.748l.009-.005c.669-.422 1.19-.716 1.607-.89.424-.177.677-.202.838-.167.137.03.288.119.465.396.184.288.364.729.561 1.373zm-12.218.1c-1.403 1.176-3.325 1.873-6.03 2.66l-4.634-1.655c-1.252-1.289-2.188-2.34-2.83-3.207-.666-.898-.97-1.536-1.03-1.99a.92.92 0 01.038-.463.631.631 0 01.218-.274c.233-.177.631-.3 1.194-.36.836-.09 1.832-.025 2.772.036.325.022.644.043.948.056 2.631.12 4.566-.607 6.435-2.385.12-.113.241-.23.366-.35.823-.79 1.743-1.673 2.603-2.207.497-.31.9-.453 1.201-.446.246.005.488.108.711.51.424.763.707 2.138.916 4.354a.493.493 0 01-.007.143c-.583 2.793-1.505 4.435-2.87 5.579zm-15.781 2.857c1.404.122 2.968-.23 4.839-.89l4.195 1.5-4.266 4.625a.5.5 0 01-.367.161H7.775a.478.478 0 01-.368-.17c-1.04-1.26-1.64-2.312-1.943-3.386-.304-1.074-.322-2.213-.13-3.67.103-.767.301-1.487.69-2.077.126-.193.248-.344.366-.462.264-.263.518-.334.782-.309.294.028.643.18 1.046.455.663.454 1.325 1.139 1.957 1.792l.424.435c1.206 1.222 2.45 1.867 3.925 1.996zm30.591-20.665h-.321l-1.944-4.064a.5.5 0 01.278-.685l2.896-1.065a.5.5 0 01.616.238L53.152 21.3a8.884 8.884 0 01-3.278-1.81c-1.217-1.052-2.295-2.493-3.468-4.421a1.514 1.514 0 00-1.29-.73zm2.47-9.394l6.884 16.675c.597.11 1.24.187 1.94.232l-4.444-18.06a.5.5 0 00-.604-.367l-3.434.844a.5.5 0 00-.343.676zM29.157 28.623a.5.5 0 10-.718-.696c-.979 1.01-1.732 1.52-2.495 1.748-.765.23-1.604.197-2.806-.015a.5.5 0 00-.173.985c1.244.22 2.273.286 3.267-.012.997-.3 1.893-.944 2.925-2.01zm32.678 2.398c.53-.649 1.39-.777 1.921-.335 1.216 1.01 1.76 2.047 1.721 3.437-.041 1.45-.72 3.338-2.144 6.019a.492.492 0 01-.434.258H50.116a.48.48 0 01-.404-.214c-.59-.904-.997-1.656-1.238-2.272-.244-.623-.299-1.057-.248-1.346a.703.703 0 01.185-.384c.096-.1.245-.195.474-.27.472-.152 1.197-.19 2.21-.084a.501.501 0 00.046.002c2.053.03 3.79.017 5.486-.616 1.71-.638 3.322-1.881 5.209-4.195zM37.18 37.528a.5.5 0 00-.446-.895c-1.218.607-2.101.909-2.952.924-.841.015-1.716-.25-2.914-.914a.5.5 0 00-.485.874c1.275.708 2.33 1.06 3.417 1.04 1.08-.02 2.126-.404 3.38-1.03zm-25.885-.844a.5.5 0 00-.61.792c1.067.824 1.98 1.349 2.988 1.588 1.007.239 2.056.18 3.37-.068a.5.5 0 10-.186-.983c-1.254.237-2.143.27-2.953.078s-1.591-.622-2.609-1.407zm49.73 1.444a.5.5 0 10-.6-.8c-1.11.833-1.938 1.299-2.771 1.485-.823.184-1.71.107-2.957-.27a.5.5 0 00-.289.958c1.335.403 2.41.524 3.464.288 1.045-.233 2.011-.804 3.153-1.661z" fill="#D9D9D9"/></svg>