<svg width="56" height="55" fill="none" xmlns="http://www.w3.org/2000/svg"><path d="M10.132 54h6.11m32.164 0h-7.719m0 0v-3.298m0 3.298H16.243m24.444-3.298H16.243m24.444 0c5.021-3.427 7.09-5.726 9.328-10.552M16.243 50.702V54m0-3.298c-5.153-3.441-7.312-5.7-9.328-10.552m0 0h43.1m-43.1 0l-1.93-5.936m45.03 5.936l2.251-5.936m-47.28 0h47.28m-47.28 0l-.965-5.276m48.245 5.276l1.287-5.276m-49.532 0h49.532m-49.532 0c-2.574 0-2.573-3.298 0-3.298m49.532 3.298c1.93 0 1.93-3.298 0-3.298h-1.93m-47.602 0h8.04m-8.04 0s-.262-.643-.658-1.648M29.43 25.64h11.9m-11.9 0c.07-.694.16-1.321.277-1.888m-.277 1.888h-5.468m16.082-12.86c-3.712.843-4.429 2.283-4.181 5.935-4.01.645-5.512 1.936-6.156 5.037M40.044 12.78c1.36-2.86 2.578-3.388 5.468-2.638 2.09-.73 3.027-.536 3.86 1.978 2.438.558 3.05 1.599 2.25 5.276 1.403 2.216 1.636 3.498 0 5.936v2.308M40.045 12.78c1.216-4.076.831-6.69-.535-10.163a.982.982 0 00-1.41-.48l-2.236 1.3m15.76 22.203h-8.041m-2.252 0l3.264-7.584M41.33 25.64l-2.251-5.935m2.251 5.935h2.091m-2.09 0h2.09m2.734-11.212l-1.56 3.628m0 0l-1.978-2.968m1.977 2.968l3.812-.66m-4.824 8.244h-.16m.16 0h-.16m0 0l4.341-2.638M12.062 25.64s-.813-4.788-1.63-8.244m1.63 8.244h7.719M2.09 20.694c-.322-.858-.653-1.758-.965-2.638-.552-1.556.784-3.199 2.573-3.957m-1.607 6.595l3.215-.99m-3.215.99c.47 1.252.923 2.415 1.27 3.298m-1.27-3.298l1.27 3.298m0 0l1.945-.66m0-9.563c1.792-.252 4.116.128 4.503 1.319.198.61.41 1.415.622 2.308M5.307 13.77L4.232 7.982a1 1 0 00-1.307-.764l-.794.272a1 1 0 00-.602 1.326l2.17 5.283m1.608-.33s-.9.03-1.608.33m16.082-1.32c1.936.85 2.727 1.581 2.895 3.958M19.78 12.78c-2.192 1.282-2.842 1.703-5.468.989m5.468-.99l2.895-1.681M19.78 12.78c-1.339-7.102-5.468-7.255-7.076-5.936-1.608 1.319-.654 3.71 1.608 6.925m8.362 2.968c3.273 1.137 4.998 1.879 4.825 6.265l2.207.75m-7.032-7.015c.687.151 1.325.28 1.93.377M14.313 13.77c-1.05.206-2.404.491-2.895.985m-.986 2.642c.16-1.267.434-2.086.986-2.642m6.111 3.961l1.501 4.617m.75 2.308l-.75-2.308m.75 2.308h4.182m-4.181 0h4.181m-4.932-2.308l2.359-3.627m-2.359 3.627l-4.074-1.319m9.006 3.627l.643-1.319M35.863 3.436l-8.041 4.672m8.04-4.672c.545 2.09.775 3.759.566 5.387m-4.425 7.191v0a6.617 6.617 0 002.62-2.483c1.043-1.735 1.611-3.205 1.805-4.708m-4.425 7.191l-4.181-7.906m4.18 7.906c-2.666 1.376-4.696 1.538-7.397 1.1m3.217-9.006l8.606.715m-8.606-.715l-3.217 9.006m3.217-9.006l-5.146 2.99m0 0c-.636-3.607-1.522-5.717-2.991-7.232C17.427 1.54 13.817.134 10.82 1.368v0C7.165 2.873 6.9 8.515 8.817 11.971c.586 1.057 1.42 1.902 2.601 2.783" stroke="#fff" stroke-linecap="round" stroke-linejoin="round"/></svg>