<svg width="56" height="54" fill="none" xmlns="http://www.w3.org/2000/svg"><path fill-rule="evenodd" clip-rule="evenodd" d="M54.046 26.784c0 14.23-11.652 25.784-26.046 25.784-14.395 0-26.047-11.553-26.047-25.784C1.953 12.553 13.605 1 28 1c14.394 0 26.046 11.553 26.046 25.784zm1 0c0 14.792-12.11 26.784-27.046 26.784C13.062 53.568.953 41.576.953 26.784.953 11.992 13.063 0 28 0c14.937 0 27.046 11.992 27.046 26.784zm-7.96-1.588c-.33-.15-.68-.273-1.044-.365-.948-7.939-7.117-14.302-15.022-15.612 2.538 3.341 4.402 6.34 5.616 9.129 1.745 4.013 2.146 7.603 1.266 11.158-.089.359-.19.717-.305 1.074l11.318-5.89c.555-.288 1.238-.001 1.374.61 1.362 6.133-1.098 12.405-6.432 15.18a12.09 12.09 0 01-3.909 1.251 18.875 18.875 0 01-6.011 3.093l1.22 2.84.3.697H23.65l.23-.664.81-2.33a19.725 19.725 0 01-6.543-2.394c-1.248-.51-2.504-1.415-3.866-2.71-1.378-.085-2.499-.305-3.344-1.008-.845-.704-1.327-1.816-1.639-3.452-.892-.434-1.628-.866-2.224-1.332-1.718-1.345-2.022-3.713-1.447-5.633.575-1.919 2.115-3.648 4.343-3.51.428.027.877.098 1.35.205-.495-.472-.886-.966-1.165-1.513-.617-1.212-.64-2.599-.212-4.412a20.936 20.936 0 01-.597-1.137c-.66-1.365-.651-2.674-.175-3.783.47-1.096 1.381-1.958 2.463-2.49 1.375-.675 3.085-.842 4.623-.247a19.167 19.167 0 017.577-3.53c-.394.448-.771.89-1.133 1.327a18.17 18.17 0 00-5.455 2.712c.424.28.823.63 1.184 1.057a4.595 4.595 0 011.269-.01c.337.048.654.138.99.255 1.214-2.165 2.829-4.407 4.82-6.8a2.432 2.432 0 013.763.031c.299.37.59.735.875 1.096 8.99.993 16.104 8.149 16.94 17.107zM18.582 42.07a2.586 2.586 0 01-.022-.013c-1.009-.48-2.052-1.25-3.184-2.343a11.935 11.935 0 01-.233-.014c-.1-.093-.2-.188-.302-.286a.5.5 0 00-.321-.14c-1.446-.075-2.332-.279-2.943-.788-.607-.505-1.04-1.395-1.34-3.11a.5.5 0 00-.279-.366c-.963-.455-1.701-.884-2.267-1.327-1.286-1.007-1.608-2.882-1.106-4.558.502-1.677 1.742-2.897 3.323-2.799 1.034.064 2.259.438 3.837.987a.5.5 0 00.432-.895c-1.653-1.047-2.638-1.883-3.13-2.852-.481-.944-.537-2.104-.087-3.911a.5.5 0 00-.05-.369c-.254-.444-.475-.86-.664-1.25-.54-1.118-.512-2.124-.156-2.953.361-.841 1.08-1.542 1.985-1.987a5.01 5.01 0 01.724-.288.5.5 0 00-.22.654l5.6 11.995c.012.026.026.05.042.073.494 2.928 1.825 5.934 4.004 9.214v1.874l-5.85-3.857-.886-3.416a.5.5 0 00-.968.252l.608 2.343-4.379-2.887a.5.5 0 10-.55.835l4.256 2.806-3.584.297a.5.5 0 00.083.997l4.853-.403 5.572 3.674-4.336.706a.5.5 0 10.16.987l5.414-.882 3.458 2.19c-2.223 1.49-3.945 2.226-5.558 2.207a5.351 5.351 0 01-1.936-.397zm2.79 1.347c1.16.446 2.378.78 3.639.992v.03l1.03-2.961c-1.688 1.072-3.197 1.756-4.669 1.94zm12.167.482a17.935 17.935 0 004.498-2.049c-2.069-.029-4.138-.564-6.042-1.543l1.544 3.592zm3.546-11.925c-.17.413-.358.826-.562 1.24a1.068 1.068 0 01-.1.218l-.052.086a27.673 27.673 0 01-1.865 3.092l-1.777 2.948c3.412 1.656 7.322 1.776 10.666.036 3.444-1.792 5.616-5.207 6.141-9.09-.058.002-.117 0-.176-.008l-7.297-.925c.09.41.093.825.018 1.218.04.008.081.02.122.033l5.293 1.766a1 1 0 01.484 1.548l-2.103 2.812a1 1 0 01-1.621-.028l-3.138-4.503a2.579 2.579 0 01-1.022.496l1.756 5.627a1 1 0 01-.954 1.297l-3.564.002a1 1 0 01-.956-1.297l1.78-5.721c.017-.054.037-.106.06-.154a3.065 3.065 0 01-.95-.76l-.017-.02-.166.087zm-.154-2.708a16.223 16.223 0 01-.636 1.991l-8.272 4.305c-.555.289-.712 1.013-.29 1.475a15.4 15.4 0 002.868 2.454l.22.224a69.312 69.312 0 01-1.782 1.987 96.117 96.117 0 01-1.636-1.857c-7.123-8.306-9.52-14.328-7.931-20.556 2.805 1.511 5.173 2.417 7.711 2.483 2.588.067 5.286-.74 8.745-2.53 1.494 3.646 1.786 6.863 1.003 10.024zm-5.415 9.625a41.297 41.297 0 002.15-2.824l1.83-3.036.054-.106-6.384 3.672 2.078 2.121c.09.059.18.116.272.173zm-8.29-2.705a57.284 57.284 0 001.58 2.086l-1.58-1.001v-1.085zm-4.548-17.78a15.976 15.976 0 00-.675 4.31l-4.518-9.677a.5.5 0 00-.49-.287c1.657-.443 3.57-.043 4.828 1.605l.397-.303.083.493c.54-.09.915-.098 1.255-.05.209.03.415.082.65.158a21.56 21.56 0 00-1.53 3.75zm8.534 22.746l-2.156 6.21h8.883l-2.793-6.497a75.374 75.374 0 01-1.748 1.918l-.37.393-.363-.399a97.457 97.457 0 01-1.453-1.625zm1.283-33.53a1.431 1.431 0 00-2.217-.02c-3.283 3.945-5.461 7.395-6.523 10.703 2.844 1.55 5.094 2.406 7.454 2.467 2.363.061 4.903-.674 8.32-2.45-1.442-3.165-3.762-6.658-7.034-10.7zM41.11 29.909c.129.809-.244 1.567-.873 1.894-.63.328-1.464.198-2.053-.372l2.926-1.522zm-.214 8.93l-1.785-5.72-1.779 5.721 3.564-.002zm.99-7.068l5.293 1.767-2.103 2.812-3.19-4.579zm1.564-3.031l6.035.765-.315-3.689-5.72 2.924zM31.498 15.866a.384.384 0 11-.769 0 .384.384 0 01.769 0zm1 0a1.384 1.384 0 11-2.769 0 1.384 1.384 0 012.769 0zm-11.23 6.97a.5.5 0 01.499.501c-.006 2.056.129 3.623.54 5.169.412 1.546 1.107 3.097 2.253 5.108a.5.5 0 11-.87.495c-1.167-2.05-1.907-3.684-2.35-5.346-.442-1.664-.58-3.328-.573-5.429a.5.5 0 01.501-.498z" fill="#D9D9D9"/></svg>