<svg width="40" height="55" fill="none" xmlns="http://www.w3.org/2000/svg"><path fill-rule="evenodd" clip-rule="evenodd" d="M30.939.995a.5.5 0 10-.142-.99c-2.095.3-3.513.794-4.509 1.694-.904.818-1.4 1.918-1.795 3.316a4.708 4.708 0 00-2.482-.703 4.746 4.746 0 00-4.397 2.97c-1.07-.399-2.285-.53-3.423-.12-2.424.872-3.944 2.348-4.758 4.12-.743 1.615-.882 3.436-.64 5.2-1.358.376-2.646 1.114-3.5 2.308-.92 1.287-1.33 2.367-1.395 3.457-.055.924.144 1.818.418 2.784-.424.15-.813.305-1.15.462-.447.207-.842.436-1.112.692C.978 27.208.421 28.738.794 30.18c.22.852.75 1.623 1.612 2.219H.5a.5.5 0 00-.487.614l5.061 21.6a.5.5 0 00.487.386h28.47a.5.5 0 00.486-.386l5.062-21.6a.5.5 0 00-.487-.614h-1.206c1.785-2.448 2.428-4.383 1.973-6.19-.25-.986-.814-1.88-1.598-2.754-.722-.804-1.648-1.613-2.726-2.48.866-2.826-.62-5.937-2.923-7.646a9.66 9.66 0 00-.191-.139c-1.655-1.169-3.52-1.716-6.146-2.024.307-.631.48-1.34.48-2.09a4.76 4.76 0 00-1.41-3.388c.405-1.559.846-2.554 1.613-3.248.772-.698 1.948-1.155 3.98-1.446zM22.01 12.841a3.755 3.755 0 003.744-3.764 3.755 3.755 0 00-3.744-3.765 3.755 3.755 0 00-3.745 3.765 3.755 3.755 0 003.745 3.764zm0 1a4.727 4.727 0 003.666-1.74.634.634 0 00.078.014c2.556.269 4.265.726 5.722 1.646-1.008 1.82-2.005 3.101-3.456 4.09-1.566 1.069-3.704 1.828-7.056 2.488a.5.5 0 10.194.981c3.397-.67 5.693-1.46 7.426-2.642 1.598-1.09 2.679-2.488 3.709-4.329 1.976 1.63 3.052 4.346 2.188 6.62-.396 1.042-1.12 1.764-2.324 2.631a.5.5 0 10.584.812c1.05-.757 1.864-1.485 2.395-2.473.962.783 1.76 1.494 2.38 2.185.722.805 1.178 1.557 1.373 2.331.375 1.486-.166 3.26-2.255 5.945h-15.63c3.141-1.404 5.317-2.768 8.576-5.13a.5.5 0 10-.587-.81c-3.91 2.834-6.2 4.187-10.558 5.94H4.984c-2.05-.454-2.963-1.472-3.222-2.47-.268-1.035.124-2.205.981-3.02.15-.143.427-.317.843-.51.408-.19.917-.383 1.5-.576 2.121-.703 5.106-1.431 7.573-1.986a187.648 187.648 0 014.3-.913l.065-.012.016-.003.005-.001-.095-.491.096.49a.5.5 0 10-.192-.981l.096.49-.096-.49h-.002l-.004.001-.017.003-.066.014a125.577 125.577 0 00-1.191.241c-.794.164-1.897.398-3.135.677-2.287.514-5.052 1.184-7.173 1.852-.26-.921-.414-1.665-.37-2.41.05-.85.367-1.753 1.21-2.933.765-1.07 2-1.732 3.357-2.024l6.643-1.43a.5.5 0 10-.21-.977l-6.124 1.317c-.206-1.597-.063-3.184.57-4.559.693-1.508 1.996-2.808 4.187-3.597.88-.316 1.871-.22 2.809.145-.047.27-.072.547-.072.83 0 2.631 2.125 4.764 4.745 4.764zM4.51 33.4H1.132L5.959 54h2.17L4.51 33.4zM9.145 54h2.814L9.546 33.4h-4.02L9.145 54zm1.408-20.6L12.966 54h2.52l-.603-20.6h-4.33zm5.33 0l.604 20.6h2.494V33.4h-3.099zm4.098 0V54h2.817l.905-20.6H19.98zm4.723 0L23.799 54H26l2.715-20.6h-4.012zm5.021 0L27.01 54h2.809l3.77-20.6h-3.864zm4.881 0L30.836 54h2.8l4.826-20.6h-3.856z" fill="#fff"/></svg>