<svg width="48" height="47" fill="none" xmlns="http://www.w3.org/2000/svg"><path fill-rule="evenodd" clip-rule="evenodd" d="M11.333.183a.5.5 0 00-.774.634l1.456 1.778c-1.718 1.715-2.242 3.982-1.153 5.18 1.034 1.138 3.166.92 4.98-.428l2.284 3.014c-5.755.704-10.41 2.391-12.698 4.564-.766.578-1.417 1.195-1.937 1.843-.93 1.16-1.438 2.418-1.438 3.734 0 .735.159 1.453.462 2.145C1.022 24.414.093 25.97.007 27.693c-.088 1.755.702 3.561 2.337 5.812.287.394.467.862.534 1.355.162 1.212.435 2.02 1.017 2.78a.5.5 0 00.083.084 3.009 3.009 0 00-.085.701c0 4.191 9.062 7.589 20.24 7.589 10.883 0 19.759-3.22 20.222-7.257.006-.049.01-.098.014-.147a.497.497 0 00.16-.208c.377-.908.6-1.647.696-2.407.086-.678.067-1.352-.015-2.15 1.99-1.52 2.808-3.974 2.77-6.26-.04-2.284-.94-4.564-2.583-5.65.135-.469.204-.947.204-1.433 0-.972-.277-1.913-.797-2.806a7.866 7.866 0 00-.678-.975c-1.529-3.806-9.897-6.717-19.992-6.717-1.672 0-3.296.08-4.85.23l-2.681-3.54c1.74-1.717 2.275-4.002 1.18-5.207C16.743.343 14.59.57 12.77 1.94L11.333.183zm1.319 3.19l.667.816a.5.5 0 00.774-.633l-.689-.842c.698-.518 1.428-.822 2.063-.923.791-.125 1.306.072 1.576.369.27.296.417.827.217 1.603-.198.765-.715 1.641-1.547 2.397-.833.757-1.754 1.188-2.535 1.311-.791.126-1.306-.072-1.576-.368-.27-.297-.417-.828-.216-1.603.174-.675.597-1.437 1.266-2.126zm6.176 7.914c-3.338.364-6.301 1.061-8.64 1.982-1.763.695-3.122 1.496-4.023 2.336-.9.838-1.272 1.64-1.272 2.37 0 .732.372 1.534 1.272 2.372.901.84 2.26 1.641 4.022 2.335 3.52 1.386 8.45 2.266 13.947 2.266 5.496 0 10.426-.88 13.946-2.266 1.762-.694 3.121-1.496 4.022-2.335.9-.838 1.272-1.64 1.272-2.371 0-.731-.372-1.533-1.272-2.371-.901-.84-2.26-1.641-4.022-2.336-3.52-1.386-8.45-2.265-13.946-2.265-1.422 0-2.806.059-4.137.17l3.985 5.259 2.823-3.668a.5.5 0 01.792.61l-6.134 7.971a.5.5 0 11-.793-.61l2.68-3.482-4.522-5.967zm25.355 22.285a.503.503 0 00.003.11c.103.888.128 1.547.047 2.188-.08.641-.27 1.29-.627 2.149a.499.499 0 00-.031.107 7.25 7.25 0 01-5.21 2.197 7.27 7.27 0 01-6.862-4.855 7.275 7.275 0 01-7.053 5.487 7.275 7.275 0 01-7.054-5.487 7.27 7.27 0 01-6.862 4.854 7.259 7.259 0 01-5.765-2.837.5.5 0 00-.08-.454c-.44-.572-.671-1.193-.82-2.304a3.977 3.977 0 00-.716-1.81C1.557 30.72.935 29.149 1.005 27.744c.065-1.3.728-2.564 2.022-4.148C4.068 25.2 5.898 26.64 8.3 27.81v.006c.166 2.813 1.917 4.762 4.045 5.357 2.11.591 4.525-.168 6.023-2.578 1.745.216 3.574.33 5.459.33 2.508 0 4.917-.202 7.159-.576 1.62 2.556 4.172 3.34 6.352 2.604 2.176-.734 3.858-2.94 3.858-6.087a.51.51 0 00-.006-.073c1.803-1.139 3.129-2.46 3.834-3.897 1.164.892 1.922 2.703 1.956 4.707.036 2.144-.764 4.335-2.58 5.594a.497.497 0 00-.218.375zM32.06 30.154c3.14-.614 5.912-1.569 8.117-2.768-.17 2.477-1.55 4.076-3.16 4.62-1.615.545-3.57.066-4.957-1.852zM9.354 28.29c2.263.965 4.95 1.707 7.911 2.154-1.267 1.734-3.087 2.204-4.65 1.767-1.576-.442-2.95-1.821-3.261-3.921zM38.42 24c-3.709 1.502-8.764 2.408-14.296 2.408S13.538 25.502 9.83 24c-1.851-.75-3.416-1.668-4.535-2.738-.847-.811-1.474-1.748-1.729-2.788-.343.674-.512 1.354-.512 2.028 0 2.273 1.958 4.625 5.81 6.469 3.777 1.808 9.067 2.955 14.964 2.955s11.187-1.147 14.965-2.955c3.851-1.844 5.81-4.197 5.81-6.47 0-.41-.063-.823-.19-1.235-.324.728-.83 1.396-1.456 1.996-1.118 1.07-2.683 1.988-4.535 2.738zM10.534 41.323c2.79 0 5.256-1.38 6.755-3.494a8.27 8.27 0 007.16 4.126 8.27 8.27 0 007.162-4.126 8.264 8.264 0 006.754 3.494 8.24 8.24 0 004.227-1.16c-.137.154-.294.31-.472.468-.9.797-2.26 1.562-4.025 2.224-3.524 1.32-8.46 2.159-13.961 2.159-5.502 0-10.438-.838-13.962-2.16-1.766-.661-3.125-1.426-4.025-2.224-.534-.473-.876-.928-1.065-1.358a8.245 8.245 0 005.452 2.05zm3.563-26.101a.5.5 0 10-.781-.625l-3.68 4.599a.5.5 0 00.78.625l3.68-4.6zm5.13-.094a.5.5 0 01.088.702l-4.294 5.519a.5.5 0 11-.79-.614l4.295-5.52a.5.5 0 01.701-.087zm14.412-2.454a.5.5 0 01.092.7l-6.134 7.972a.5.5 0 11-.793-.61l6.134-7.971a.5.5 0 01.701-.091zm3.775 2.536a.5.5 0 00-.8-.6l-3.68 4.905a.5.5 0 10.8.6l3.68-4.905z" fill="#fff"/></svg>