<svg width="52" height="57" fill="none" xmlns="http://www.w3.org/2000/svg"><path fill-rule="evenodd" clip-rule="evenodd" d="M23.82 23.358l-.164-1.258-1.185.453a8.915 8.915 0 01-3.196.589 8.901 8.901 0 01-4.144-1.017l-.586-.307-.512.42a7.859 7.859 0 01-3.252 1.59l-.816.184.003.066a8.077 8.077 0 01-3.853-.532l-.004-.002a8.133 8.133 0 01-2.407-1.494l.03-.038-.557-.619a8.008 8.008 0 01-2.053-5.372c0-3.458 2.173-6.4 5.209-7.517a8 8 0 01.477-.15l.006-.002a8.047 8.047 0 013.951-.096l.007.002a8.127 8.127 0 013.539 1.803l.604-.691a9.065 9.065 0 00-3.939-2.01h-.006a8.98 8.98 0 00-3.587-.084c.56-2.103 2.461-3.642 4.709-3.642 1.36 0 2.59.56 3.476 1.472l.43.44.587-.184a8.93 8.93 0 012.688-.412c1.679 0 3.248.463 4.592 1.268l.854.512.515-.85C27.014 2.947 30.212 1 33.856 1c5.128 0 9.374 3.861 10.015 8.873l.096.751.038.006a10.118 10.118 0 01-.353 3.205l-.002.004a10.174 10.174 0 01-1.982 3.787l-.005.006a10.277 10.277 0 01-3.375 2.65l-.005.003a10.359 10.359 0 01-4.178 1.047l.032.902a11.29 11.29 0 004.544-1.137l.005-.003a11.187 11.187 0 003.674-2.882l.005-.006a11.075 11.075 0 002.162-4.124l.002-.004c.299-1.08.43-2.195.394-3.31 3.401.607 5.996 3.608 5.996 7.229 0 2.105-.876 4-2.28 5.338l-.81.771.857.719a6.252 6.252 0 012.233 4.804c0 1.877-.82 3.559-2.117 4.703l-.474.418.174.607a6.3 6.3 0 01.241 1.734c0 3.281-2.504 5.961-5.673 6.221l-.644.053-.216.609c-.872 2.45-3.18 4.188-5.873 4.188-3.435 0-6.243-2.828-6.243-6.344 0-3.374 2.586-6.115 5.829-6.33l.64-.043.228-.598a6.257 6.257 0 011.706-2.46l.474-.418-.174-.607a6.25 6.25 0 01-.129-.543l-.126-.661-.66-.132a7.183 7.183 0 01-2.546-1.045l-.488-.321-.52.268a7.18 7.18 0 01-3.3.798c-3.683 0-6.737-2.768-7.208-6.368zM9.153 25.045c.284 0 .568-.015.852-.044v.019c0 .24-.021.473-.062.699l-.22 1.2 1.22-.02.062-.001c2.043 0 3.788 1.761 3.788 4.047 0 2.286-1.745 4.048-3.788 4.048-2.042 0-3.787-1.762-3.787-4.048 0-.307.032-.606.092-.892l.26-1.236-1.262.03-.09.001c-2.084 0-3.788-1.706-3.788-3.828 0-.838.265-1.61.714-2.239a9.069 9.069 0 002.625 1.617l.005.002a9.015 9.015 0 003.379.645zM6.32 7.451a8.93 8.93 0 00-4.114 2.793 8.86 8.86 0 00-1.738 3.17l-.001.005a8.935 8.935 0 00-.203 4.397l.001.007A9.038 9.038 0 002.188 21.8l.001.001c.077.092.156.183.236.271a4.834 4.834 0 00-.995 2.948c0 2.36 1.679 4.324 3.898 4.745a4.777 4.777 0 001.003.082 5.32 5.32 0 00-.113 1.098c0 2.788 2.143 5.048 4.787 5.048.4 0 .787-.051 1.158-.148l.172.642a.5.5 0 01-.05.378L7.862 44.58a5.5 5.5 0 001.982 7.476l6.066 3.569a5.5 5.5 0 007.52-1.935l3.145-5.304 4.039-2.068c1.325 1.73 3.396 2.844 5.724 2.844 3.137 0 5.809-2.023 6.815-4.853 3.69-.303 6.591-3.419 6.591-7.218a7.32 7.32 0 00-.28-2.009 7.251 7.251 0 002.456-5.453 7.25 7.25 0 00-2.59-5.57 8.349 8.349 0 002.59-6.062c0-4.19-3.064-7.659-7.056-8.251C44.16 4.248 39.5 0 33.856 0c-4.01 0-7.525 2.146-9.475 5.36a9.901 9.901 0 00-5.106-1.41 9.93 9.93 0 00-2.988.458 5.834 5.834 0 00-4.193-1.774c-2.87 0-5.26 2.074-5.774 4.817zm23.523 38.137l-3.845 1.97-4.357 2.028a.5.5 0 00.422.907l2.9-1.35-2.394 4.037a4.5 4.5 0 01-6.153 1.583l-6.066-3.569a4.5 4.5 0 01-1.621-6.117l4.424-7.714a1.5 1.5 0 00.148-1.134l-.115-.43a5.35 5.35 0 002.95-4.778c0-2.813-2.176-5.116-4.94-5.336a5.36 5.36 0 00.064-.667 9.563 9.563 0 003.289-1.605c.972.466 2.026.79 3.134.945l1.588 9.013-3.692 7.352a.5.5 0 00.894.449l3.758-7.483 3.742-6.21a8.917 8.917 0 007.344 3.599l-4.509 8.558c-.602 1.143.426 2.462 1.681 2.157l.384-.093v.13c0 1.363.351 2.644.97 3.758zm-9.79-13.542l-1.338-7.594a10.727 10.727 0 003.688-.482c.187.918.516 1.785.964 2.577l-3.314 5.499zm7.64 8.056l4.807-9.124a8.916 8.916 0 002.442-.741c.783.473 1.644.83 2.56 1.046l.012.047a7.788 7.788 0 00-1.895 2.792c-3.42.465-6.139 3.135-6.657 6.527l-.709.172a.5.5 0 01-.56-.719z" fill="#D9D9D9"/></svg>