<svg viewBox="0 0 121 137" fill="none" xmlns="http://www.w3.org/2000/svg"><path d="M33.245 63.486L47.832 136M33.245 63.486h69.865m-69.865 0h-2.374a3 3 0 01-3-3v-5.497a2.303 2.303 0 012.303-2.303v0M47.832 136h42.226m-42.226 0h-5.054c-5.26 0-10.485-1.169-15.102-3.689-11.494-6.272-16.012-10.58-20.567-16.632-.881-1.172-.745-2.812.29-3.851l10.491-10.542M47.832 136c2.494-3.484 3.656-6.453 3.99-10.411.448-5.314-1.591-10.487-4.397-15.022-7.523-12.16-12.566-19.378-17.65-20.042-.727-.096-1.422.248-1.94.767l-9.945 9.994M90.058 136c10.968-3.788 16.828-6.786 24.527-12.786 1.307-1.018 1.497-2.912.451-4.196l-6.273-7.704M90.058 136l5.415-30.086m7.637-42.428l-7.637 42.428m7.637-42.428h1.606a3 3 0 003-3v-7.8m-12.243 53.228c2.534-.986 4.11-1.364 6.185-1.491.915-.057 1.79.363 2.369 1.075l4.736 5.816m.489-10.8l-.489 10.8m0 0l8.166-7.714m-8.166 7.714H120m-12.284-58.628H30.174m77.542 0c-1.488-7.01-3.219-12.528-5.386-16.972M30.174 52.686c.72-3.386 1.466-6.46 2.281-9.257m27.661-27V1m0 15.429c-16.462 4.484-23.14 11.49-27.66 27m27.66-27h15.355m-15.355 0l15.355 9.257m-15.355-9.257v10.8m0-26.229h15.355v15.429M60.116 1l15.355 15.429m0 0c13.066 4.078 21.621 8.545 26.859 19.285M75.471 16.43v9.257M60.116 38.029l15.355 5.4m-15.355-5.4c-11.801-7.18-17.72-4.738-27.66 5.4m27.66-5.4v-10.8m15.355 16.2c12.202.37 18.061-1.363 26.859-7.715M75.471 43.43v-6.172m0-11.571v11.571M60.116 27.23l15.355 10.028M9.445 92.8l8.445 8.486m0 0l2.303-16.972m-2.303 16.972L1 103.6m82.077-23.143h1.678a3 3 0 003-3v-1.714a3 3 0 00-3-3h-1.678a3 3 0 00-3 3v1.714a3 3 0 003 3zm-14.74 24.588l1.219-3.672a3 3 0 00-2.847-3.944h-2.437a3 3 0 00-2.847 3.944l1.218 3.672c.91 2.741 4.786 2.741 5.695 0zm34.005 12.441v0a.772.772 0 00.768-.772v0a.77.77 0 00-.768-.771v0a.77.77 0 00-.768.771v0c0 .424.344.772.768.772zM20.194 114.4v0a.77.77 0 00-.768-.771v0a.77.77 0 00-.768.771v0a.77.77 0 00.768.771v0a.77.77 0 00.768-.771zm17.658 6.943v0a.771.771 0 00.767-.772v0a.77.77 0 00-.767-.771v0a.77.77 0 00-.768.771v0c0 .424.344.772.768.772zM27.87 119.8v0a.77.77 0 00.768-.771v0a.771.771 0 00-.768-.772v0a.771.771 0 00-.768.772v0a.77.77 0 00.768.771zm7.677-6.943v0a.77.77 0 00.768-.771v0a.771.771 0 00-.768-.772v0a.771.771 0 00-.767.772v0a.77.77 0 00.767.771zm-9.213-1.543v0a.767.767 0 00.768-.767v-.779a.768.768 0 00-.768-.768v0a.768.768 0 00-.767.768v.779c0 .424.343.767.767.767zm4.98-6.943v0c.63 0 1.14-.51 1.14-1.14v-.033c0-.63-.51-1.141-1.14-1.141v0c-.63 0-1.14.511-1.14 1.141v.033c0 .63.51 1.14 1.14 1.14z" stroke="#fff" stroke-width="2" stroke-linecap="round" stroke-linejoin="round"/></svg>