<svg viewBox="0 0 116 135" fill="none" xmlns="http://www.w3.org/2000/svg"><path fill-rule="evenodd" clip-rule="evenodd" d="M26.881 12.878C32.644 5.883 37.19 2.592 41.925 2.074c4.759-.521 10.023 1.719 17.335 6.692a1 1 0 00.9.114c4.342-1.553 7.268-2.162 9.602-1.516 2.258.625 4.226 2.515 6.385 6.766a1 1 0 001.33.445c3.865-1.892 6.403-2.55 8.444-2.043 1.989.494 3.805 2.179 5.984 5.868 1.057 3.132 1.1 5.303.36 7.27-.744 1.977-2.323 3.882-4.873 6.374H77.038a1 1 0 00-.997 1.07l.11 1.578c.507 7.16.904 12.789.438 17.11-.476 4.403-1.823 7.203-4.688 8.857-1.065-.336-1.897-.775-2.55-1.345-.722-.631-1.28-1.47-1.671-2.64-.804-2.399-.881-6.09-.252-11.879.328-3.024-.053-6.413-2.16-8.953-1.285-1.55-2.741-2.684-4.703-3.328-1.933-.633-4.277-.764-7.296-.465a1 1 0 00-.592.271c-4.37 4.163-7.652 5.488-10.864 5.226-3.325-.271-6.801-2.24-11.572-5.34a1 1 0 00-1.433.38c-2.038 3.939-3.862 6.4-6.237 7.931-2.368 1.527-5.42 2.214-10.106 2.287a1 1 0 00-.985 1v27.237c-2.035.606-3.457.815-4.64.462-2.425-.723-3.676-2.835-4.298-5.83-.557-2.685-.548-5.809-.54-8.682l.002-1.001V40.059c0-7.022.521-14.113 4.371-19.56 2.047-2.897 4.443-4.706 7.549-5.8 3.144-1.107 7.062-1.498 12.177-1.457a1 1 0 00.78-.364zm51.23 21.166h8.687v87.664H13.48V44.779c4.332-.154 7.542-.884 10.175-2.58 2.59-1.67 4.506-4.202 6.415-7.723 4.292 2.752 7.929 4.766 11.581 5.063 3.95.322 7.7-1.359 12.152-5.531 2.708-.242 4.64-.084 6.139.407 1.53.502 2.688 1.378 3.787 2.704 1.615 1.946 2.011 4.691 1.71 7.46-.63 5.797-.61 9.879.344 12.73.488 1.457 1.226 2.614 2.252 3.511.843.736 1.844 1.265 2.982 1.654v46.605a1 1 0 002 0V62.324c3.553-2.106 5.054-5.625 5.56-10.308.487-4.507.076-10.314-.424-17.376l-.042-.596zm-64.63 89.664h73.317v8.759H13.48v-8.759zm75.317-80.904v-9.337c2.568-2.51 4.43-4.678 5.338-7.092.968-2.571.806-5.274-.37-8.717a1 1 0 00-.085-.183c-2.254-3.839-4.442-6.18-7.278-6.884-2.585-.643-5.448.147-8.927 1.768-2.098-3.873-4.302-6.126-7.18-6.922-2.898-.803-6.235-.045-10.331 1.39C52.822 2.02 47.138-.509 41.707.086 36.242.684 31.335 4.405 25.64 11.24c-4.97-.015-9.015.387-12.382 1.573-3.512 1.237-6.24 3.31-8.517 6.531C.49 25.36.004 33.044.004 40.06v15.93l-.003 1c-.009 2.84-.02 6.186.583 9.09.677 3.26 2.2 6.302 5.684 7.34 1.606.48 3.339.224 5.212-.296v60.344a1 1 0 001 1h75.318a1 1 0 001-1v-20.519h21.54a5 5 0 005-5V47.804a5 5 0 00-5-5h-21.54zm21.54 68.144h-21.54v-9.477h11.498a5 5 0 005-5V59.998a5 5 0 00-5-5H88.798V44.804h21.54a3 3 0 013 3v60.144a3 3 0 01-3 3zm-10.042-11.477H88.798V56.998h11.498a3 3 0 013 3v36.473a3 3 0 01-3 3zM29.261 53.13a1 1 0 10-2 0v55.95a1 1 0 002 0V53.13zm21.52 0a1 1 0 10-2 0v55.95a1 1 0 002 0V53.13z" fill="#fff"/></svg>