<svg viewBox="0 0 105 150" fill="none" xmlns="http://www.w3.org/2000/svg"><path fill-rule="evenodd" clip-rule="evenodd" d="M64.674 3.52C65.5 2.533 66.805 2 68.196 2h16.17c1.524 0 2.944.643 3.75 1.79.791 1.126.877 1.654.719 2.21-.098.344-.315.772-.723 1.364-.32.463-.731.992-1.248 1.626-1.84-.649-3.436-1.03-5.105-1.05-1.758-.02-3.525.361-5.677 1.141-1.828-.925-3.42-1.432-5.11-1.429-1.598.004-3.186.465-5.043 1.287a28.934 28.934 0 01-1.365-1.812c-.441-.654-.666-1.115-.76-1.473a1.334 1.334 0 01.039-.867c.121-.323.37-.717.83-1.267zm17.062 6.42c1.503.017 3 .39 4.99 1.128.249.169.475.336.681.502 2.434 1.954 1.684 6-1.303 6.968-.252.082-.52.166-.808.255a1 1 0 00-.705.956v7.778H68.236v-7.778a1 1 0 00-.754-.97c-.931-.236-1.608-.408-2.15-.593-.911-.31-1.51-1.16-1.683-2.337-.175-1.183.124-2.506.816-3.436.319-.428.799-.87 1.638-1.353 2.061-.973 3.521-1.405 4.873-1.408 1.347-.003 2.709.42 4.571 1.404a1 1 0 00.82.052c2.223-.838 3.841-1.186 5.37-1.168zm-13.5 19.587h16.355v3.788a1 1 0 00.247.659l15.307 17.494H51.953l16.02-17.477a1 1 0 00.263-.676v-3.788zM50.68 53.467h50.669v25.931H63.246a1 1 0 100 2h38.103v1.316c-1.866 11.76-2.825 19.126-3.998 29.114-.541 4.613.251 9.235 1.921 13.507 3.303 8.45 3.908 13.769.373 18.931-1.374 2.006-3.894 2.964-6.561 2.964H61.53c-3.083 0-6.044-.265-8.262-1.866-.938-.677-1.733-1.549-2.561-2.942 2.788-27.235 3.522-44.868 4.76-76.349a1 1 0 00-1-1.04H50.68V53.468zm12.227-45.22c.342.506.764 1.064 1.26 1.69-.54.402-.965.823-1.306 1.282-1.037 1.394-1.436 3.262-1.19 4.922.245 1.668 1.184 3.314 3.015 3.938.45.154.966.295 1.55.447v12.4L48.942 51.792a1 1 0 00-.262.675v12.567H1a1 1 0 00-.997 1.077l.86 11.172 4.726 61.448a.997.997 0 00.01.087l1.597 9.577a1 1 0 00.986.835h39.103a1 1 0 00.97-.757l1.107-4.428c.824 1.262 1.691 2.187 2.736 2.941 2.787 2.011 6.344 2.244 9.433 2.244h31.553c3.074 0 6.341-1.104 8.211-3.834 4.133-6.035 3.19-12.219-.16-20.789-1.572-4.022-2.294-8.313-1.797-12.545 1.173-9.989 2.13-17.338 3.999-29.113.008-.052.012-.104.012-.157V52.468c0-.243-.088-.477-.247-.659l-16.511-18.87V20.483l.13-.042c4.482-1.453 5.627-7.47 1.938-10.43l-.029-.024a24.95 24.95 0 001.128-1.488c.46-.666.816-1.302 1-1.952.409-1.433-.096-2.614-1.005-3.906C88.506.865 86.416 0 84.366 0h-16.17C66.32 0 64.41.72 63.14 2.236c-.509.608-.93 1.209-1.17 1.85a3.328 3.328 0 00-.1 2.075c.177.68.547 1.36 1.037 2.085zM49.175 137.653c2.052-20.996 2.877-36.674 3.797-59.194-2.443.712-4.531 1.145-6.692 1.18-2.456.041-4.938-.43-8.09-1.486a.988.988 0 01-.088-.034c-3.695-1.638-6.465-2.457-9.18-2.481-2.707-.025-5.469.74-9.14 2.472a1 1 0 01-.087.035c-3.454 1.25-6.244 1.972-9.077 2.004-2.427.027-4.823-.453-7.641-1.454l4.535 58.958h41.663zm3.883-61.306c.12-2.975.242-6.07.37-9.314H2.08l.728 9.468c3.064 1.167 5.444 1.674 7.788 1.648 2.488-.028 5.019-.656 8.375-1.868 3.788-1.784 6.852-2.671 9.97-2.643 3.108.028 6.162.967 9.928 2.634 2.999 1 5.233 1.404 7.378 1.368 2.081-.035 4.142-.484 6.81-1.293zm11.188 22.405a1 1 0 10-2 0v31.921a1 1 0 002 0v-31.92zm12.768 0a1 1 0 10-2 0v31.921a1 1 0 002 0v-31.92zm10.97-1a1 1 0 011 1v31.921a1 1 0 01-2 0v-31.92a1 1 0 011-1zM12.172 47.477a1 1 0 00-1 1v2.395a1 1 0 001 1h2.394a1 1 0 001-1v-2.395a1 1 0 00-1-1h-2.394zm1 2.395v-.395h.394v.395h-.394zm21.345 0a1 1 0 00-1 1v3.191a1 1 0 001 1h3.192a1 1 0 001-1v-3.192a1 1 0 00-1-1h-3.192zm1 3.191v-1.192h1.192v1.192h-1.192zM21.749 54.66a1 1 0 00-1 1v2.394a1 1 0 001 1h2.394a1 1 0 001-1V55.66a1 1 0 00-1-1h-2.394zm1 2.394v-.394h.394v.394h-.394zM9.029 147.23l-1.262-7.576h40.632l-.488 1.95-1.407 5.626H9.03zm1.547-63.044a1 1 0 00-1 1V96.36a1 1 0 001 1H21.75a1 1 0 001-1V85.186a1 1 0 00-1-1H10.576zm1 11.173v-9.173h9.173v9.173h-9.173zm29.325-11.173a1 1 0 00-1 1v2.394a1 1 0 001 1h2.394a1 1 0 001-1v-2.394a1 1 0 00-1-1h-2.394zm1 2.394v-.394h.394v.394h-.394zm-3.485 8.274a1 1 0 00-1.414 0l-7.182 7.182a1 1 0 000 1.414l7.182 7.182a.998.998 0 001.414 0l7.182-7.182a1 1 0 000-1.414l-7.182-7.182zm-.707 13.657l-5.768-5.768 5.768-5.768 5.768 5.768-5.768 5.768zm-24.739-5.97a1 1 0 00-1 1v1.596a1 1 0 001 1h1.596a1 1 0 001-1v-1.596a1 1 0 00-1-1H12.97zm3.99 10.374a1 1 0 00-1 1v11.173a1 1 0 001 1h11.173a1 1 0 001-1v-11.173a1 1 0 00-1-1H16.96zm1 11.173v-9.173h9.173v9.173H17.96zm22.941-4.789a1 1 0 00-1 1v2.394a1 1 0 001 1h2.394a1 1 0 001-1v-2.394a1 1 0 00-1-1h-2.394zm1 2.394v-.394h.394v.394h-.394z" fill="#fff"/></svg>