<svg viewBox="0 0 77 135" fill="none" xmlns="http://www.w3.org/2000/svg"><path fill-rule="evenodd" clip-rule="evenodd" d="M21.163.227a1 1 0 00-1.29.018c-2.65 2.303-4.153 4.381-4.332 6.765-.137 1.82.517 3.648 1.659 5.673a15.813 15.813 0 00-2.061-.02c-.331-4.064-1.086-6.99-2.794-8.936C10.453 1.571 7.6.841 3.727.702a1 1 0 00-1.035.994c-.021 3.49.23 6.383 1.913 8.598 1.22 1.607 3.102 2.743 5.845 3.587-1.226.587-2.452 1.383-3.774 2.395-.387.181-.739.34-1.062.486l-.072.032c-.32.145-.616.279-.882.405-.56.264-1.074.534-1.487.88-.855.719-1.1 1.619-1.166 2.796a3.999 3.999 0 00-2.005 3.62l.751 20.039 3.233 86.209a4 4 0 003.997 3.85h40.523a4 4 0 003.998-3.85l3.233-86.21.125-3.342c8.034-.867 13.235-2.047 16.947-7.708 3.11-4.741 3.975-10.648 3.195-16.155-.733-5.174-2.717-8.537-6.061-11.129C64.502 1.982 57.036.186 50.346 2.085c-5.143 1.459-7.998 4.955-10.828 10.602a38.526 38.526 0 00-3.325.569c-2.53-1.855-4.767-3.07-7.213-3.158-1.725-.063-3.45.435-5.355 1.477.86-2.104 1.27-3.867 1.163-5.442-.163-2.42-1.518-4.178-3.625-5.906zM55.938 39.17c7.828-.864 12.072-2.017 15.199-6.785 2.786-4.25 3.615-9.64 2.887-14.777-.668-4.716-2.416-7.59-5.306-9.83-4.996-3.871-11.813-5.476-17.826-3.77-4.041 1.146-6.498 3.725-9.032 8.498 3.164-.078 5.402.62 7.23 1.97 1.815 1.34 3.16 3.293 4.616 5.406a196.938 196.938 0 00.631.913 4 4 0 012.15 3.699l-.55 14.676zm-4.346-18.826c-1.272-1.83-2.326-3.252-3.689-4.258-1.641-1.212-3.821-1.864-7.629-1.473-1.197.123-2.552.349-4.094.691a1 1 0 01-.816-.175c-2.642-1.977-4.55-2.965-6.457-3.034-1.892-.068-4.014.762-7.081 3.037a1 1 0 01-.812.173 36.837 36.837 0 00-2.049-.398c-1.806-.293-3.276-.35-4.609-.16-2.136.305-4.057 1.262-6.546 3.18a.998.998 0 01-.186.113c-.44.207-.836.386-1.187.544l-.067.03c-.325.147-.606.274-.855.392-.546.258-.856.436-1.055.603-.17.143-.304.299-.386.735h47.518zM20.686 13.19a37.336 37.336 0 00-.957-.182c-1.616-2.55-2.31-4.308-2.194-5.85.108-1.428.936-2.904 3.008-4.828 1.478 1.342 2.154 2.517 2.25 3.937.108 1.606-.506 3.712-2.107 6.923zm-9.844-8.144c1.231 1.402 1.94 3.68 2.277 7.467-3.817-.851-5.818-1.977-6.922-3.43s-1.455-3.41-1.501-6.328c3.104.223 4.951.93 6.146 2.29zm45.764 4.372a1 1 0 10-2 0v4.34a1 1 0 002 0v-4.34zm8.76 4.276a1 1 0 00-1.28-1.537l-4.21 3.508a1 1 0 101.281 1.536l4.21-3.507zm-2.744 6.65a1 1 0 000 2h5.612a1 1 0 100-2h-5.612zm-1.465 5.143a1 1 0 10-1.28 1.536l4.21 3.508a1 1 0 101.28-1.537l-4.21-3.507zM2 24.42a2 2 0 012-2.075h48.49a2 2 0 012 2.075l-.716 19.076H2.716L2 24.42zm.79 21.076H53.7l-3.194 85.172a2 2 0 01-1.999 1.925H7.983a2 2 0 01-1.998-1.925L2.79 45.496zm9.32 77.977a1 1 0 100 2h32.27a1 1 0 000-2H12.11z" fill="#fff"/></svg>