<svg width="166" height="150" fill="none" xmlns="http://www.w3.org/2000/svg"><g filter="url(#filter0_f_38_1616)"><path d="M29.84 74.558V53.667a3 3 0 013-3h99.32a3 3 0 013 3v10.936m0 41.809c-7.982 19.422-16.905 25.717-38.617 30.97m38.617-30.97V78.539m0 27.873h14.92c19.308 0 20.186-41.809 0-41.809h-14.92m-38.617 72.779H2.26c-.868 0-1.324 1.03-.74 1.673l7.836 8.618c.19.208.458.327.74.327h145.656c.298 0 .58-.133.77-.363l7.124-8.618a1 1 0 00-.771-1.637H96.543zM50.027 78.097l85.133.442m0 0V64.603M76.356 2c-6.012 7.568-6.438 11.99-.063 20.27.041.053.08.114.109.175 3.848 7.897 4.112 12.185-.046 19.373m14.92-28.315c-4.786 4.83-5.927 7.767-.086 14.064.056.061.108.132.147.204 3.191 5.839 2.994 8.908-.06 14.047m-70.3 87.524c7.876-.842 11.51-3.863 15.865-11.565.393-.694 1.405-.694 1.802-.003 4.544 7.915 8.527 10.607 16.68 11.554a.974.974 0 001.056-.737c2.136-8.789-.01-13.204-7.352-18.244-.86-.59-.41-2.05.633-2.057 9.626-.069 13.966-2.941 17.616-11.748a.983.983 0 00-.37-1.195c-8.132-5.32-13.528-5.737-21.994.27-.878.623-2.158-.385-1.745-1.378 3.786-9.1 2.956-14.031-4.886-19.322a.98.98 0 00-1.085-.006c-6.349 4.215-8.397 8.46-5.509 20.504.227.947-.904 1.697-1.694 1.13-7.39-5.307-12.576-5.385-21.169-1.21a.979.979 0 00-.423 1.363c4.606 8.141 8.541 11.469 17.018 10.502 1.062-.121 1.762 1.364.96 2.07-7.065 6.218-8.97 11-6.433 19.388a.97.97 0 001.03.684z" stroke="#fff" stroke-width="2" stroke-linecap="round" stroke-linejoin="round"/></g><defs><filter id="filter0_f_38_1616" x=".19" y=".933" width="165.769" height="148.133" filterUnits="userSpaceOnUse" color-interpolation-filters="sRGB"><feFlood flood-opacity="0" result="BackgroundImageFix"/><feBlend in="SourceGraphic" in2="BackgroundImageFix" result="shape"/><feGaussianBlur stdDeviation=".033" result="effect1_foregroundBlur_38_1616"/></filter></defs></svg>