<svg viewBox="0 0 101 146" fill="none" xmlns="http://www.w3.org/2000/svg"><path d="M9.526 70.463h58.46m-58.46 0C-.218 70.463-1.61 59.705 5.35 57.4m4.176 13.063l9.757 65.316m48.703-65.316c9.743-.768 11.831-11.526 3.48-13.063m-3.48 13.063L66.264 81.99M5.35 57.4h66.116m-66.116 0c3.507-21.324 8.465-31.654 24.591-36.966a29.034 29.034 0 0117.655-.135c4.227 1.316 7.73 3.002 10.647 5.26M71.466 57.4c-2.142-16.58-5.775-26.074-13.223-31.84m8.021 56.43H45.932a3 3 0 00-3 3v29.347a3 3 0 003 3h15.051m5.281-35.347l-5.28 35.347m0 0l-2.756 18.442m-38.945 0l1.25 8.369a1 1 0 00.99.852h34.466a1 1 0 00.989-.852l1.25-8.369m-38.945 0h38.945M100 15.905L81.137 2.02a5 5 0 00-7.046 1.14l-15.848 22.4M31.796 28.2c-10.446 2.535-14.04 7.034-17.399 19.21" stroke="#fff" stroke-width="2" stroke-linecap="round" stroke-linejoin="round"/></svg>