<svg viewBox="0 0 120 139" fill="none" xmlns="http://www.w3.org/2000/svg"><g filter="url(#filter0_f_38_1588)"><path d="M28.025 2.33l-.47.17.47-.17zm11.227 31.178v.5a.5.5 0 00.47-.669l-.47.17zm-10.648 0l-.468.175a.5.5 0 00.468.325v-.5zm-7.997-21.47l.468-.174-.468.175zm-.938.35l-.468.174.468-.174zm7.868 21.12v.5a.5.5 0 00.469-.674l-.469.174zm-14.78 1.573l.5-.024-.5.024zm1.647 33.782l-.5.025.5-.025zm3.273 67.162l-.499.024.5-.024zm66.305-.012l-.5-.02.5.02zm.382-9.404l-.084-.493a.5.5 0 00-.416.472l.5.021zm.04-.977l-.5-.021a.5.5 0 00.376.505l.124-.484zm2.305-56.773l-.5-.02.5.02zm.28-6.887l-.089-.492a.5.5 0 00-.41.471l.5.02zm28.592-14.9l-.449-.219.449.22zm-3.921-32.689l.388-.315-.388.315zM96.364 6.221l-.08.494.08-.494zm-26.613 4.82l.26.428-.26-.427zm-8.676 9.091l.448.222-.448-.222zM57.9 33.508v.5a.5.5 0 00.498-.456l-.498-.044zm-17.584 0l-.47.17a.5.5 0 00.47.33v-.5zM28.965 1.992l.471-.17-.47.17zm29.407 32.517v-.5h-.013l.013.5zm-.027 0l.014-.5h-.014v.5zm10.034 0l.014-.5h-.014v.5zm.028 0v-.5h-.014l.014.5zm18.675.52l.5.02-.5-.02zm-.734 18.092l.44.238a.5.5 0 00.06-.218l-.5-.02zm-.057.3l.497-.062-.497.061zm.039.14l.5.02a.5.5 0 00-.042-.222l-.458.201zm-.6 14.778v.5a.5.5 0 00.5-.48l-.5-.02zm-.041 1l.5.02a.5.5 0 00-.5-.52v.5zm-2.285 56.277v.5a.5.5 0 00.5-.48l-.5-.02zm-65.233.002l-.499.025a.502.502 0 00.55.473l-.05-.498zM15.43 69.339v-.5a.5.5 0 00-.5.524l.5-.024zm-.05-1l-.498.024a.5.5 0 00.499.476v-.5zm-1.622-33.306l.5-.025-.5.025zm14.14-.525l.474-.158a.5.5 0 00-.474-.342v.5zm7.411 22.106l.474-.16-.474.16zm.633.315l-.159-.474.16.474zm.316-.633l-.474.159.474-.16zm-7.305-21.788v-.5a.5.5 0 00-.474.66l.474-.16zm10.667 0l.467-.178a.5.5 0 00-.467-.322v.5zm4.894 12.837l.467-.178-.467.178zm.645.289l-.178-.467.178.467zm.29-.645l.467-.179-.468.179zm-4.759-12.48v-.5a.5.5 0 00-.467.678l.467-.178zm-22.47 92.106v-.5a.5.5 0 00-.5.524l.5-.024zm.456 9.36l-.5.025.5-.025zm64.307-.004l.5.021-.5-.021zm.38-9.356l.5.02a.498.498 0 00-.5-.52v.5zm3.958-72.82l-.063-.496a.5.5 0 00-.436.476l.5.02zm-.29 7.152l-.5-.02a.5.5 0 00.589.512l-.09-.492zm27.651-14.314l-.449-.219.449.22zm-3.798-31.62l-.387.316.387-.316zm-14.68-7.806l-.08.494.08-.494zm-25.934 4.69l.259.428-.26-.428zm-8.298 8.679l.448.222-.449-.222zm-3.07 12.932l-.497-.044a.5.5 0 00.498.544v-.5zm9.04 0v.5a.5.5 0 00.497-.445l-.497-.055zm5.453-13.8l-.339-.366.34.367zm12.12-5.293l.107.488-.107-.488zm2.506-.148l.049-.497-.049.497zm16.264 5.45l.347-.361-.347.36zm4.664 13.302l-.499.026.499-.026zm-.481 5.113l-.485-.122.485.122zm-4.591 9.406l-.366-.34.366.34zm-34.929-14.03l-.496-.055a.5.5 0 00.496.555v-.5zm17.662 0l-.009.5a.5.5 0 00.324-.111l-.315-.388zm.597-.484l.315.388a.5.5 0 00.022-.758l-.337.37zM73.743 20.76l.337-.37a.5.5 0 00-.69.015l.353.355zm13.906 13.193l-.315-.388a.5.5 0 00-.04.74l.355-.352zm.433 1.116l.5.02-.5-.02zm-.72 17.713l-.5-.02a.5.5 0 00.564.516l-.064-.496zm15.431-5.562l.353.355a.5.5 0 00-.016-.725l-.337.37zM87.955 33.705l.336-.37a.5.5 0 00-.652-.018l.316.388zm-.482-18.472h.5a.5.5 0 00-.483-.5l-.017.5zm-1.744.159l-.107-.489.107.489zm1.744 16.522l-.336.37a.5.5 0 00.836-.37h-.5zm-12.99-11.832l-.323-.382a.5.5 0 00-.014.751l.337-.37zm13.99-4.765l.052-.497a.5.5 0 00-.552.497h.5zm0 16.678h-.5a.5.5 0 00.816.388l-.316-.388zm14.7-11.942l.315.389a.497.497 0 00.014-.765l-.329.376zm.73.696l.361-.347a.5.5 0 00-.676-.041l.315.388zM89.382 32.545l-.315-.388a.5.5 0 00.315.888v-.5zm18.538 0v.5a.502.502 0 00.499-.531l-.499.031zm.049 1l.5-.012a.5.5 0 00-.5-.488v.5zm-18.704 0v-.5a.5.5 0 00-.337.87l.337-.37zm18.233 4.342l.485.123-.485-.123zm-4.023 8.601l-.337.37a.5.5 0 00.715-.043l-.378-.327zM36.122 76.801l.34-.367-.34.367zm-.68 0l.34.367-.34-.367zm9.206 7.893l-.34.367.34-.367zm-.016.748l-.323-.381.323.381zm-8.527 7.235l-.323-.381.323.381zm-.647 0l.324-.381-.324.381zm-8.526-7.235l.323-.381-.323.381zm-.016-.748l.34.367-.34-.367zm7.847-8.627l-.34-.367.34.367zm2.038 0l.34-.367-.34.367zM26.236 83.96l.34.367-.34-.367zm.049 2.245l-.324.38.324-.38zm8.526 7.235l.324-.382-.324.382zm1.941 0l-.323-.382.323.382zm8.527-7.236l.324.382-.324-.382zm.049-2.244l-.34.367.34-.367zm18.387 2.13l-.34.366.34-.367zm-.68 0l.34.366-.34-.367zm8.367 7.115l-.34.367.34-.367zm-.018.75l.322.382-.322-.383zm-7.687 6.468l-.322-.382.322.382zm-.644 0l.322-.382-.322.382zm-7.687-6.469l-.322.383.322-.383zm-.018-.75l-.34-.366.34.367zm7.008-7.849l-.34-.367.34.367zm2.038 0l.34-.367-.34.367zm-9.725 7.116l-.34-.367.34.367zm.053 2.248l-.322.383.322-.383zm7.687 6.469l-.322.383.322-.383zm1.932 0l.322.383-.322-.383zm7.687-6.469l-.322-.382.322.382zm.053-2.248l.34-.367-.34.367zM50.51 58.159l.324.381-.324-.38zm.647 0l-.323.381.323-.38zm-9.135 7.203l-.324-.381.324.38zm0 .762l.323-.38-.323.38zm8.488 7.203l.324-.381-.324.381zm.647 0l-.323-.381.323.381zm8.489-7.203l-.324-.38.324.38zm0-.762l.323-.381-.324.38zm-7.842-7.965l-.323.38.323-.38zm-1.94 0l.323.38-.324-.38zm10.428 7.202l.324-.38-.324.38zm0 2.288l.324.381-.324-.381zm-8.488 7.202l-.323-.38.323.38zm-1.94 0l.323-.38-.324.38zm-8.49-7.202l-.323.381.324-.381zm0-2.288l-.323-.38.324.38zM1.5 1.5v-1a1 1 0 00-1 1h1zm0 0h-1a1 1 0 001 1v-1zm26.054 0H1.5v1h26.054v-1zm.941.661a1 1 0 00-.94-.661v1l.94-.339zM39.722 33.34L28.495 2.161l-.94.339L38.78 33.678l.941-.339zm-11.118.67h10.648v-1H28.604v1zm-8.466-21.796l7.998 21.47.937-.349-7.998-21.47-.937.35zm-.937-.65a1 1 0 01.937.65l.937-.349a2 2 0 00-1.874-1.302v1zm-17.701 0h17.7v-1H1.5v1zm0 0v-1a1 1 0 00-1 1h1zm0 0h-1a1 1 0 001 1v-1zm17.7 0H1.5v1h17.7v-1zm.938.65a1 1 0 00-.937-.65v1l.937-.35zm7.868 21.121l-7.868-21.12-.937.348 7.868 21.121.937-.349zm-13.75.674h13.281v-1h-13.28v1zm-.999 1.05a1 1 0 011-1.05v-1a2 2 0 00-1.998 2.098l.998-.049zm1.647 33.781l-1.647-33.782-.998.049 1.646 33.782.999-.049zm3.273 67.162L14.904 68.84l-1 .049 3.274 67.161.999-.048zm.999.951a1 1 0 01-1-.951l-.998.048a2 2 0 001.998 1.903v-1zm63.307 0H19.176v1h63.307v-1zm1-.959a1 1 0 01-1 .959v1a2 2 0 001.999-1.919l-1-.04zm.381-9.405l-.382 9.405 1 .04.382-9.404-1-.041zm.415-.472l.17.986a1 1 0 00.83-.986h-1zm0 0h1a1 1 0 00-.751-.969l-.249.969zm1.93-57.277l-2.305 56.772 1 .041 2.305-56.772-1-.041zm.28-6.888l-.28 6.888 1 .04.28-6.887-1-.04zm28.643-15.098c-4.86 9.978-14.624 12.166-28.232 14.627l.178.984c13.507-2.443 23.838-4.671 28.953-15.173l-.899-.438zm-3.86-32.154c7.177 8.82 8.839 21.932 3.86 32.154l.899.438c5.154-10.581 3.433-24.11-3.983-33.223l-.776.63zM96.284 6.715c6.735 1.086 11.409 3.586 14.988 7.984l.776-.631c-3.763-4.624-8.677-7.223-15.605-8.34l-.159.987zm-26.273 4.754c7.778-4.713 17.295-6.202 26.273-4.754l.16-.987c-9.185-1.482-18.947.036-26.952 4.886l.519.855zm-8.487 8.885c1.795-3.625 4.478-6.456 8.487-8.885l-.519-.855c-4.147 2.513-6.973 5.478-8.865 9.296l.896.444zm-3.127 13.198c.472-5.393 1.38-9.672 3.127-13.198l-.897-.444c-1.826 3.688-2.75 8.108-3.226 13.555l.996.087zm-18.082.456h17.584v-1H40.315v1zM28.495 2.161l11.35 31.517.94-.339L29.436 1.822l-.94.34zm-.94-.661a1 1 0 01.94.661l.941-.339A2 2 0 0027.554.5v1zM1.5 1.5h26.054v-1H1.5v1zm56.859 32.509l-.027 1h.054l-.027-1zm10.02 0H58.372v1H68.38v-1zm-.014 1h.056l-.028-1-.028 1zm18.218-1H68.407v1h18.176v-1zm.999 1.04a1 1 0 00-1-1.04v1l1 .04zm-.735 18.092l.735-18.092-1-.04-.734 18.092 1 .04zm-.939-.258a.998.998 0 00-.113.598l.993-.122-.88-.476zm-.113.598a.998.998 0 00.077.28l.916-.402-.993.122zm.434 14.878l.6-14.778-.999-.041-.6 14.779 1 .04zm-17 .48h16.5v-1h-16.5v1zm0 0v-1a1 1 0 00-1 1h1zm0 0h-1a1 1 0 001 1v-1zm16.46 0h-16.46v1h16.46v-1zm-1.786 56.797l2.286-56.277-1-.04-2.285 56.277 1 .04zm-65.68.48h65.18v-1h-65.18v1zm0 0v-1a1.15 1.15 0 00-.102.005l.101.995zm-3.294-56.753l2.743 56.28.999-.049-2.743-56.28-.999.05zm16.673-.524H15.429v1h16.173v-1zm0 0v1a1 1 0 001-1h-1zm0 0h1a1 1 0 00-1-1v1zm-16.222 0h16.222v-1H15.38v1zm-2.123-33.782l1.623 33.306 1-.048-1.624-33.306-.999.048zm1-1.049a1 1 0 00-1 1.05l1-.05v-1zm13.64 0h-13.64v1h13.64v-1zm7.886 22.447L28.37 34.35l-.948.317 7.411 22.106.948-.318zm0 0l-.949.318a1 1 0 001.266.63l-.318-.948zm0 0l.317.948a1 1 0 00.63-1.266l-.947.318zm-7.305-21.788l7.304 21.788.949-.318-7.305-21.787-.948.317zm11.14-.659H28.953v1H39.62v-1zm5.362 13.159L40.086 34.33l-.934.357 4.894 12.836.934-.356zm0 0l-.934.356a1 1 0 001.29.578l-.356-.934zm0 0l.357.934a1 1 0 00.578-1.29l-.935.356zm-4.758-12.48l4.758 12.48.935-.357-4.759-12.48-.934.357zm18.123-.678H40.69v1h17.656v-1zM17.721 126.64l.456 9.361.999-.049-.457-9.36-.998.048zm.456 9.361a1 1 0 00.999.951v-1l-1 .049zm.999.951h63.307v-1H19.176v1zm63.307 0a1 1 0 001-.959l-1-.041v1zm1-.959l.38-9.357-1-.04-.38 9.356 1 .041zm-.12-9.877h-65.14v1h65.14v-1zm-65.14 0s.001 0 0 0h-.003v1s-.002 0 0 0h.003v-1zm68.599-72.34l-.29 7.152.998.04.29-7.152-.998-.04zm.298 7.664c13.492-2.445 23.177-4.662 28.012-14.587l-.899-.438c-4.58 9.403-13.703 11.578-27.291 14.04l.178.985zm28.012-14.587c4.979-10.222 3.317-23.335-3.86-32.154l-.775.631c6.937 8.525 8.54 21.222 3.736 31.085l.899.438zm-3.86-32.154c-3.579-4.398-8.253-6.898-14.988-7.984l-.16.987c6.544 1.055 10.978 3.456 14.373 7.628l.775-.631zM96.284 6.715c-8.978-1.448-18.496.041-26.273 4.754l.518.856c7.552-4.576 16.823-6.038 25.596-4.623l.16-.987zm-26.273 4.754c-4.009 2.43-6.691 5.26-8.487 8.885l.896.444c1.7-3.433 4.24-6.13 8.109-8.473l-.518-.856zm-8.487 8.885c-1.738 3.508-2.645 7.76-3.12 13.11l.997.089c.469-5.298 1.36-9.408 3.019-12.755l-.897-.444zm-2.621 13.654h9.04v-1h-9.04v1zm14.153-14.667c-3.471 3.205-4.91 7.715-5.61 14.113l.993.109c.693-6.327 2.096-10.533 5.296-13.487l-.679-.735zm12.352-5.415c-5.586 1.224-9.565 2.843-12.352 5.415l.679.735c2.591-2.392 6.361-3.962 11.887-5.173l-.214-.977zm2.662-.156a8.584 8.584 0 00-2.662.156l.214.977a7.582 7.582 0 012.351-.138l.097-.995zm16.562 5.586c-3.377-3.252-8.697-4.827-16.563-5.587l-.096.996c7.83.756 12.848 2.31 15.965 5.311l.694-.72zm4.817 13.637c-.319-6.074-1.59-10.53-4.817-13.637l-.694.72c2.952 2.842 4.198 6.982 4.512 12.97l.999-.053zm-.496 5.26c.434-1.723.588-3.499.496-5.26l-.999.052a16.722 16.722 0 01-.467 4.965l.97.244zm-4.71 9.626c2.17-2.332 3.657-5.448 4.71-9.625l-.97-.244c-1.028 4.08-2.456 7.021-4.472 9.187l.732.682zm-16.859 6.413c7.734-.986 13.176-2.457 16.859-6.413l-.732-.682c-3.418 3.673-8.528 5.118-16.253 6.103l.126.992zM68.948 34.008h17.635v-1H68.948v1zm17.635 0h.018l.018-1h-.036v1zm.309-1.372l-.597.485.63.776.597-.485-.63-.776zM73.406 21.13L86.87 33.393l.674-.739L74.08 20.391l-.674.739zm-3.96 12.434c.663-5.965 1.956-9.776 4.65-12.449l-.705-.71c-2.942 2.92-4.269 7.015-4.94 13.048l.994.11zm17.847.74c.19.192.3.456.289.745l1 .04a1.995 1.995 0 00-.578-1.487l-.71.703zm.289.745l-.72 17.713 1 .04.72-17.712-1-.04zm14.859 11.817c-3.132 3.115-7.795 4.472-15.143 5.42l.128.992c7.359-.95 12.33-2.332 15.72-5.703l-.705-.71zM87.618 34.074l14.839 13.516.673-.74-14.839-13.515-.673.74zm.346.267l.306-.248-.63-.776-.306.248.63.776zm-.474-19.608a7.548 7.548 0 00-1.868.17l.214.977a6.551 6.551 0 011.62-.147l.034-1zm.483 17.18v-16.68h-1v16.68h1zM74.146 20.452l12.99 11.832.674-.739-12.99-11.832-.674.74zm11.476-5.548C80.39 16.05 76.733 17.518 74.16 19.7l.646.763c2.389-2.025 5.857-3.45 11.03-4.583l-.214-.977zm2.351.414v16.678h1V15.317h-1zm15.529 4.36c-3.065-2.674-7.812-4.117-14.977-4.857l-.103.995c7.122.735 11.603 2.156 14.423 4.615l.657-.753zM88.789 32.383l14.699-11.942-.63-.776-14.7 11.942.63.776zm14.799-12.022L89.067 32.157l.63.777 14.521-11.797-.63-.776zm4.831 12.153c-.345-5.48-1.52-9.368-4.155-12.112l-.721.693c2.391 2.49 3.539 6.091 3.878 11.482l.998-.063zm-19.037.531h18.538v-1H89.382v1zm18.587 0H89.265v1h18.704v-1zm.014 4.965a16.59 16.59 0 00.486-4.477l-1 .025a15.597 15.597 0 01-.455 4.207l.969.245zm-4.13 8.805c1.838-2.127 3.161-4.961 4.13-8.805l-.969-.245c-.946 3.753-2.216 6.426-3.917 8.397l.756.653zm-14.925-12.9l14.21 12.943.674-.74-14.21-12.942-.674.74zM36.461 76.434a1 1 0 00-1.358 0l.679.734.68-.734zm8.527 7.893l-8.527-7.893-.68.734 8.528 7.893.679-.734zm-.032 1.496a1 1 0 00.032-1.496l-.68.734.648.762zm-8.527 7.235l8.527-7.235-.647-.762-8.527 7.235.647.762zm-1.294 0a1 1 0 001.294 0l-.647-.762-.647.762zm-8.527-7.235l8.527 7.235.647-.762-8.527-7.235-.647.762zm-.032-1.496a1 1 0 00.032 1.496l.647-.762-.679-.734zm8.527-7.893l-8.527 7.893.68.734 8.526-7.893-.68-.734zm0 0a1 1 0 011.358 0l.68-.734a2 2 0 00-2.718 0l.68.734zm-8.527 7.893l8.527-7.893-.68-.734-8.526 7.893.679.734zm.032 1.496a1 1 0 01-.032-1.496l-.68-.734a2 2 0 00.065 2.993l.647-.763zm8.527 7.235l-8.527-7.235-.647.763 8.527 7.235.647-.763zm1.294 0a1 1 0 01-1.294 0l-.647.763a2 2 0 002.588 0l-.647-.763zm8.527-7.235l-8.527 7.235.647.763 8.527-7.235-.647-.763zm.032-1.496a1 1 0 01-.032 1.496l.647.763a2 2 0 00.064-2.993l-.68.734zm-8.527-7.893l8.527 7.893.68-.734L37.14 75.7l-.68.734zm27.594 9.288a1 1 0 00-1.36 0l.68.734.68-.734zm7.687 7.116l-7.688-7.116-.679.734 7.687 7.116.68-.734zm-.036 1.499a1 1 0 00.035-1.5l-.679.735.644.765zm-7.687 6.469l7.687-6.47-.644-.764-7.687 6.469.644.765zm-1.288 0a1 1 0 001.288 0l-.644-.765-.644.765zm-7.687-6.47l7.687 6.47.644-.765-7.687-6.47-.644.766zm-.035-1.498a1 1 0 00.035 1.499l.644-.765-.68-.734zm7.687-7.116l-7.687 7.116.68.734 7.686-7.116-.68-.734zm0 0a1 1 0 011.359 0l.679-.734a2 2 0 00-2.717 0l.679.734zm-7.687 7.116l7.687-7.116-.68-.734-7.686 7.116.679.734zm.035 1.499a1 1 0 01-.035-1.5l-.68-.733a2 2 0 00.071 2.998l.644-.765zm7.687 6.469l-7.687-6.47-.644.766 7.687 6.469.644-.765zm1.288 0a1 1 0 01-1.288 0l-.644.765a2 2 0 002.576 0l-.644-.765zm7.687-6.47l-7.687 6.47.644.765 7.687-6.469-.644-.765zm.036-1.498a1 1 0 01-.036 1.499l.644.765a2 2 0 00.07-2.998l-.678.734zm-7.688-7.116l7.688 7.116.679-.734-7.687-7.116-.68.734zM50.834 58.54l.647-.762a1 1 0 00-1.294 0l.647.762zm-8.489 7.203l8.489-7.203-.647-.762-8.489 7.203.647.762zm0 0l-.647-.762a1 1 0 000 1.525l.647-.763zm8.489 7.203l-8.489-7.203-.647.763 8.489 7.202.647-.762zm0 0l-.647.762a1 1 0 001.294 0l-.647-.762zm8.488-7.203l-8.488 7.203.647.762 8.488-7.202-.647-.763zm0 0l.647.763a1 1 0 000-1.525l-.647.762zm-8.488-7.203l8.488 7.203.647-.762-8.488-7.203-.647.762zm1.294-1.524a2 2 0 00-2.588 0l.647.762a1 1 0 011.294 0l.647-.762zm8.488 7.202l-8.488-7.203-.647.763 8.488 7.203.647-.763zm0 3.05a2 2 0 000-3.05l-.647.763a1 1 0 010 1.525l.647.762zm-8.488 7.203l8.488-7.203-.647-.762-8.488 7.202.647.763zm-2.588 0a2 2 0 002.588 0l-.647-.763a1 1 0 01-1.294 0l-.647.763zm-8.489-7.203l8.489 7.203.647-.763-8.489-7.202-.647.762zm0-3.05a2 2 0 000 3.05l.647-.762a1 1 0 010-1.525l-.647-.763zm8.489-7.203l-8.489 7.203.647.763 8.489-7.203-.647-.762z" fill="#fff"/></g><defs><filter id="filter0_f_38_1588" x=".278" y=".278" width="118.938" height="137.896" filterUnits="userSpaceOnUse" color-interpolation-filters="sRGB"><feFlood flood-opacity="0" result="BackgroundImageFix"/><feBlend in="SourceGraphic" in2="BackgroundImageFix" result="shape"/><feGaussianBlur stdDeviation=".111" result="effect1_foregroundBlur_38_1588"/></filter></defs></svg>