<svg width="25" height="29" fill="none" xmlns="http://www.w3.org/2000/svg"><path fill-rule="evenodd" clip-rule="evenodd" d="M5.5 0a1 1 0 011 1v2.5h12V1a1 1 0 112 0v2.5H22a3 3 0 013 3v19a3 3 0 01-3 3H3a3 3 0 01-3-3v-19a3 3 0 013-3h1.5V1a1 1 0 011-1zM3 5.5a1 1 0 00-1 1V9h21V6.5a1 1 0 00-1-1H3zM23 11H2v14.5a1 1 0 001 1h19a1 1 0 001-1V11zm-3 4.5a1.5 1.5 0 11-3 0 1.5 1.5 0 013 0zM18.5 23a1.5 1.5 0 100-3 1.5 1.5 0 000 3zM14 15.5a1.5 1.5 0 11-3 0 1.5 1.5 0 013 0zM12.5 23a1.5 1.5 0 100-3 1.5 1.5 0 000 3zM8 15.5a1.5 1.5 0 11-3 0 1.5 1.5 0 013 0zM6.5 23a1.5 1.5 0 100-3 1.5 1.5 0 000 3z" fill="#00A8A8"/></svg>