<svg id="tg" viewBox="0 0 103 98" fill="none" xmlns="http://www.w3.org/2000/svg"><g style="mix-blend-mode:hard-light" filter="url(#filter0_f_211_5712)"><ellipse cx="51.56" cy="49" rx="24.08" ry="22" fill="#33E9E9"/></g><g style="mix-blend-mode:hard-light" filter="url(#filter1_f_211_5712)"><mask id="path-2-inside-1_211_5712" fill="#fff"><path d="M71.069 31.068a1.579 1.579 0 00-1.641-.288l-36.31 14.54c-.515.205-.95.575-1.242 1.055a2.655 2.655 0 00.272 3.12c.37.42.863.706 1.405.814l9.408 1.89v10.734a2.966 2.966 0 00.488 1.642c.319.484.773.86 1.304 1.077a2.79 2.79 0 001.671.153 2.833 2.833 0 001.466-.837l4.536-4.814 7.198 6.446a2.808 2.808 0 002.779.589 2.832 2.832 0 001.233-.806 2.93 2.93 0 00.678-1.327l7.273-32.373a1.686 1.686 0 00-.04-.881 1.653 1.653 0 00-.478-.734zm-10.954 6.6L44.063 49.43l-8.887-1.784 24.939-9.98zM45.828 62.933V54.23l4.441 3.985-4.441 4.72zM61.51 64.4L46.697 51.108l21.32-15.636L61.51 64.4z"/></mask><path d="M71.069 31.068a1.579 1.579 0 00-1.641-.288l-36.31 14.54c-.515.205-.95.575-1.242 1.055a2.655 2.655 0 00.272 3.12c.37.42.863.706 1.405.814l9.408 1.89v10.734a2.966 2.966 0 00.488 1.642c.319.484.773.86 1.304 1.077a2.79 2.79 0 001.671.153 2.833 2.833 0 001.466-.837l4.536-4.814 7.198 6.446a2.808 2.808 0 002.779.589 2.832 2.832 0 001.233-.806 2.93 2.93 0 00.678-1.327l7.273-32.373a1.686 1.686 0 00-.04-.881 1.653 1.653 0 00-.478-.734zm-10.954 6.6L44.063 49.43l-8.887-1.784 24.939-9.98zM45.828 62.933V54.23l4.441 3.985-4.441 4.72zM61.51 64.4L46.697 51.108l21.32-15.636L61.51 64.4z" fill="#33E9E9"/><path d="M71.069 31.068l3.804-4.301-.002-.002-3.802 4.303zm-1.641-.288l-2.133-5.33h-.002l2.135 5.33zm-36.31 14.54l2.122 5.335.012-.005-2.134-5.33zm.435 4.989l1.13-5.63h-.006l-1.124 5.63zm9.408 1.89h5.742v-4.703l-4.611-.926-1.13 5.629zm0 10.734l5.742.019v-.019H42.96zm1.792 2.72l2.213-5.299-.018-.007-.018-.008-2.177 5.313zm3.137-.685l-4.179-3.937-.007.008-.008.008 4.194 3.921zm4.536-4.814l3.831-4.277-4.17-3.735-3.84 4.074 4.18 3.938zm7.198 6.446l3.859-4.252-.014-.012-.015-.013-3.83 4.277zm1.883.733l-.01 5.742h.015l-.005-5.742zm.896-.144l-1.773-5.461-.015.004-.015.005 1.803 5.452zm1.911-2.133l-5.602-1.258-.003.013-.003.013 5.608 1.232zm7.273-32.373l5.602 1.258.002-.01-5.604-1.248zm-11.472 4.985l3.393 4.631-5.526-9.962 2.133 5.33zM44.063 49.43l-1.13 5.63 2.482.497 2.042-1.496-3.394-4.631zm-8.887-1.784l-2.133-5.33-17.905 7.164 18.908 3.795 1.13-5.63zm10.652 15.286h-5.742V77.41l9.923-10.543-4.181-3.935zm0-8.704l3.834-4.274-9.576-8.593v12.867h5.742zm4.441 3.985l4.181 3.936 4.03-4.282-4.376-3.927-3.835 4.273zM61.51 64.4l-3.834 4.273 7.287 6.54 2.15-9.553-5.603-1.26zM46.697 51.108l-3.396-4.63L37.6 50.66l5.262 4.722 3.835-4.274zm21.32-15.636l5.603 1.26 3.364-14.956-12.362 9.066 3.396 4.63zm6.854-8.707a7.34 7.34 0 00-3.592-1.73l-1.983 11.31a4.144 4.144 0 01-2.029-.974l7.604-8.606zm-3.592-1.73a7.32 7.32 0 00-3.984.414l4.266 10.662c-.715.286-1.5.369-2.265.235l1.983-11.311zm-3.986.415l-36.31 14.54 4.269 10.66 36.31-14.54-4.269-10.66zM30.995 39.985a8.304 8.304 0 00-4.028 3.413l9.819 5.955a3.18 3.18 0 01-1.546 1.302l-4.245-10.67zm-4.028 3.413a8.397 8.397 0 00-1.184 5.083l11.44-.998c.056.645-.092 1.3-.438 1.87l-9.818-5.955zm-1.184 5.083a8.38 8.38 0 002.057 4.81l8.617-7.59c.45.51.71 1.137.766 1.782l-11.44.998zm2.057 4.81a8.276 8.276 0 004.589 2.648l2.248-11.26c.708.14 1.329.51 1.78 1.021l-8.617 7.59zm4.582 2.647l9.408 1.89 2.262-11.258-9.408-1.89-2.262 11.258zm4.797-3.739v10.734h11.484V52.2H37.219zm0 10.716a8.71 8.71 0 001.435 4.819l9.589-6.319c.306.465.461 1 .46 1.537l-11.484-.037zm1.435 4.819a8.608 8.608 0 003.921 3.23L46.93 60.34a2.876 2.876 0 011.313 1.075l-9.589 6.319zm3.885 3.216a8.532 8.532 0 005.108.465l-2.445-11.22a2.952 2.952 0 011.764.16L42.54 70.95zm5.108.465a8.576 8.576 0 004.437-2.525l-8.388-7.843a2.908 2.908 0 011.506-.852l2.445 11.22zm4.422-2.51l4.536-4.814-8.357-7.875-4.537 4.815 8.358 7.875zm-3.473-4.474l7.197 6.446 7.661-8.554-7.197-6.446-7.661 8.554zm7.169 6.42a8.55 8.55 0 005.732 2.224l.02-11.483a2.933 2.933 0 011.966.756l-7.718 8.504zm5.746 2.224a8.58 8.58 0 002.694-.435L60.6 61.737a2.88 2.88 0 01.902-.145l.01 11.483zm2.665-.425a8.575 8.575 0 003.735-2.434l-8.55-7.666c.333-.371.768-.66 1.269-.822l3.546 10.922zm3.735-2.434a8.671 8.671 0 002.011-3.927l-11.215-2.465c.101-.463.322-.903.654-1.274l8.55 7.666zm2.005-3.901l7.273-32.373-11.204-2.517-7.273 32.373 11.204 2.517zm7.275-32.383a7.43 7.43 0 00-.177-3.883L66.08 33.555a4.055 4.055 0 01-.096-2.12l11.208 2.497zm-.177-3.883a7.395 7.395 0 00-2.141-3.282l-7.608 8.602a4.088 4.088 0 01-1.186-1.814l10.935-3.506zm-20.293 2.988L40.669 44.799l6.788 9.263 16.051-11.763-6.787-9.262zM45.193 43.8l-8.887-1.784-2.26 11.26 8.887 1.783 2.26-11.259zm-7.884 9.177l24.939-9.98-4.266-10.66-24.939 9.978 4.266 10.662zm14.26 9.955V54.23H40.086v8.704H51.57zm-9.576-4.431l4.442 3.986 7.67-8.547-4.442-3.986-7.67 8.547zm4.095-4.223L41.647 59l8.362 7.87 4.441-4.72-8.362-7.87zm19.257 5.847L50.53 46.835l-7.669 8.547 14.814 13.292 7.669-8.548zm-15.253-4.388l21.321-15.636-6.79-9.26L43.3 46.478l6.791 9.26zm12.324-21.526L55.91 63.14l11.203 2.52 6.508-28.928-11.204-2.52z" fill="#33E9E9" mask="url(#path-2-inside-1_211_5712)"/></g><g style="mix-blend-mode:hard-light" filter="url(#filter2_f_211_5712)"><path d="M71.069 31.068a1.579 1.579 0 00-1.641-.288l-36.31 14.54c-.515.205-.95.575-1.242 1.055a2.655 2.655 0 00.272 3.12c.37.42.863.706 1.405.814l9.408 1.89v10.734a2.966 2.966 0 00.488 1.642c.319.484.773.86 1.304 1.077a2.79 2.79 0 001.671.153 2.833 2.833 0 001.466-.837l4.536-4.814 7.198 6.446a2.808 2.808 0 002.779.589 2.832 2.832 0 001.233-.806 2.93 2.93 0 00.678-1.327l7.273-32.373a1.686 1.686 0 00-.04-.881 1.653 1.653 0 00-.478-.734zm-10.954 6.6L44.063 49.43l-8.887-1.784 24.939-9.98zM45.828 62.933V54.23l4.441 3.985-4.441 4.72zM61.51 64.4L46.697 51.108l21.32-15.636L61.51 64.4z" fill="#33E9E9"/><path d="M66.43 31.98l-7.308 2.927.96 1.73 5.716-4.193.632-.464zM34.288 46.627l.004.001h-.004zm26.67-8.411l2.851-1.142-.4 1.777-1.492 1.095-.96-1.73zM45.84 62.998l-.025.016.025-.016z" stroke="#33E9E9" stroke-width="7.508"/></g><g style="mix-blend-mode:hard-light" filter="url(#filter3_ddi_211_5712)"><mask id="path-6-inside-2_211_5712" fill="#fff"><path d="M71.069 31.068a1.579 1.579 0 00-1.641-.288l-36.31 14.54c-.515.205-.95.575-1.242 1.055a2.655 2.655 0 00.272 3.12c.37.42.863.706 1.405.814l9.408 1.89v10.734a2.966 2.966 0 00.488 1.642c.319.484.773.86 1.304 1.077a2.79 2.79 0 001.671.153 2.833 2.833 0 001.466-.837l4.536-4.814 7.198 6.446a2.808 2.808 0 002.779.589 2.832 2.832 0 001.233-.806 2.93 2.93 0 00.678-1.327l7.273-32.373a1.686 1.686 0 00-.04-.881 1.653 1.653 0 00-.478-.734zm-10.954 6.6L44.063 49.43l-8.887-1.784 24.939-9.98zM45.828 62.933V54.23l4.441 3.985-4.441 4.72zM61.51 64.4L46.697 51.108l21.32-15.636L61.51 64.4z"/></mask><path d="M71.069 31.068a1.579 1.579 0 00-1.641-.288l-36.31 14.54c-.515.205-.95.575-1.242 1.055a2.655 2.655 0 00.272 3.12c.37.42.863.706 1.405.814l9.408 1.89v10.734a2.966 2.966 0 00.488 1.642c.319.484.773.86 1.304 1.077a2.79 2.79 0 001.671.153 2.833 2.833 0 001.466-.837l4.536-4.814 7.198 6.446a2.808 2.808 0 002.779.589 2.832 2.832 0 001.233-.806 2.93 2.93 0 00.678-1.327l7.273-32.373a1.686 1.686 0 00-.04-.881 1.653 1.653 0 00-.478-.734zm-10.954 6.6L44.063 49.43l-8.887-1.784 24.939-9.98zM45.828 62.933V54.23l4.441 3.985-4.441 4.72zM61.51 64.4L46.697 51.108l21.32-15.636L61.51 64.4z" fill="#33E9E9"/><path d="M71.069 31.068l3.804-4.301-.002-.002-3.802 4.303zm-1.641-.288l-2.133-5.33h-.002l2.135 5.33zm-36.31 14.54l2.122 5.335.012-.005-2.134-5.33zm.435 4.989l1.13-5.63h-.006l-1.124 5.63zm9.408 1.89h5.742v-4.703l-4.611-.926-1.13 5.629zm0 10.734l5.742.019v-.019H42.96zm1.792 2.72l2.213-5.299-.018-.007-.018-.008-2.177 5.313zm3.137-.685l-4.179-3.937-.007.008-.008.008 4.194 3.921zm4.536-4.814l3.831-4.277-4.17-3.735-3.84 4.074 4.18 3.938zm7.198 6.446l3.859-4.252-.014-.012-.015-.013-3.83 4.277zm1.883.733l-.01 5.742h.015l-.005-5.742zm.896-.144l-1.773-5.461-.015.004-.015.005 1.803 5.452zm1.911-2.133l-5.602-1.258-.003.013-.003.013 5.608 1.232zm7.273-32.373l5.602 1.258.002-.01-5.604-1.248zm-11.472 4.985l3.393 4.631-5.526-9.962 2.133 5.33zM44.063 49.43l-1.13 5.63 2.482.497 2.042-1.496-3.394-4.631zm-8.887-1.784l-2.133-5.33-17.905 7.164 18.908 3.795 1.13-5.63zm10.652 15.286h-5.742V77.41l9.923-10.543-4.181-3.935zm0-8.704l3.834-4.274-9.576-8.593v12.867h5.742zm4.441 3.985l4.181 3.936 4.03-4.282-4.376-3.927-3.835 4.273zM61.51 64.4l-3.834 4.273 7.287 6.54 2.15-9.553-5.603-1.26zM46.697 51.108l-3.396-4.63L37.6 50.66l5.262 4.722 3.835-4.274zm21.32-15.636l5.603 1.26 3.364-14.956-12.362 9.066 3.396 4.63zm6.854-8.707a7.34 7.34 0 00-3.592-1.73l-1.983 11.31a4.144 4.144 0 01-2.029-.974l7.604-8.606zm-3.592-1.73a7.32 7.32 0 00-3.984.414l4.266 10.662c-.715.286-1.5.369-2.265.235l1.983-11.311zm-3.986.415l-36.31 14.54 4.269 10.66 36.31-14.54-4.269-10.66zM30.995 39.985a8.304 8.304 0 00-4.028 3.413l9.819 5.955a3.18 3.18 0 01-1.546 1.302l-4.245-10.67zm-4.028 3.413a8.397 8.397 0 00-1.184 5.083l11.44-.998c.056.645-.092 1.3-.438 1.87l-9.818-5.955zm-1.184 5.083a8.38 8.38 0 002.057 4.81l8.617-7.59c.45.51.71 1.137.766 1.782l-11.44.998zm2.057 4.81a8.276 8.276 0 004.589 2.648l2.248-11.26c.708.14 1.329.51 1.78 1.021l-8.617 7.59zm4.582 2.647l9.408 1.89 2.262-11.258-9.408-1.89-2.262 11.258zm4.797-3.739v10.734h11.484V52.2H37.219zm0 10.716a8.71 8.71 0 001.435 4.819l9.589-6.319c.306.465.461 1 .46 1.537l-11.484-.037zm1.435 4.819a8.608 8.608 0 003.921 3.23L46.93 60.34a2.876 2.876 0 011.313 1.075l-9.589 6.319zm3.885 3.216a8.532 8.532 0 005.108.465l-2.445-11.22a2.952 2.952 0 011.764.16L42.54 70.95zm5.108.465a8.576 8.576 0 004.437-2.525l-8.388-7.843a2.908 2.908 0 011.506-.852l2.445 11.22zm4.422-2.51l4.536-4.814-8.357-7.875-4.537 4.815 8.358 7.875zm-3.473-4.474l7.197 6.446 7.661-8.554-7.197-6.446-7.661 8.554zm7.169 6.42a8.55 8.55 0 005.732 2.224l.02-11.483a2.933 2.933 0 011.966.756l-7.718 8.504zm5.746 2.224a8.58 8.58 0 002.694-.435L60.6 61.737a2.88 2.88 0 01.902-.145l.01 11.483zm2.665-.425a8.575 8.575 0 003.735-2.434l-8.55-7.666c.333-.371.768-.66 1.269-.822l3.546 10.922zm3.735-2.434a8.671 8.671 0 002.011-3.927l-11.215-2.465c.101-.463.322-.903.654-1.274l8.55 7.666zm2.005-3.901l7.273-32.373-11.204-2.517-7.273 32.373 11.204 2.517zm7.275-32.383a7.43 7.43 0 00-.177-3.883L66.08 33.555a4.055 4.055 0 01-.096-2.12l11.208 2.497zm-.177-3.883a7.395 7.395 0 00-2.141-3.282l-7.608 8.602a4.088 4.088 0 01-1.186-1.814l10.935-3.506zm-20.293 2.988L40.669 44.799l6.788 9.263 16.051-11.763-6.787-9.262zM45.193 43.8l-8.887-1.784-2.26 11.26 8.887 1.783 2.26-11.259zm-7.884 9.177l24.939-9.98-4.266-10.66-24.939 9.978 4.266 10.662zm14.26 9.955V54.23H40.086v8.704H51.57zm-9.576-4.431l4.442 3.986 7.67-8.547-4.442-3.986-7.67 8.547zm4.095-4.223L41.647 59l8.362 7.87 4.441-4.72-8.362-7.87zm19.257 5.847L50.53 46.835l-7.669 8.547 14.814 13.292 7.669-8.548zm-15.253-4.388l21.321-15.636-6.79-9.26L43.3 46.478l6.791 9.26zm12.324-21.526L55.91 63.14l11.203 2.52 6.508-28.928-11.204-2.52z" fill="#FB37FF" fill-opacity=".2" mask="url(#path-6-inside-2_211_5712)"/></g><g filter="url(#filter4_f_211_5712)"><path d="M71.069 31.068a1.579 1.579 0 00-1.641-.288l-36.31 14.54c-.515.205-.95.575-1.242 1.055a2.655 2.655 0 00.272 3.12c.37.42.863.706 1.405.814l9.408 1.89v10.734a2.966 2.966 0 00.488 1.642c.319.484.773.86 1.304 1.077a2.79 2.79 0 001.671.153 2.833 2.833 0 001.466-.837l4.536-4.814 7.198 6.446a2.808 2.808 0 002.779.589 2.832 2.832 0 001.233-.806 2.93 2.93 0 00.678-1.327l7.273-32.373a1.686 1.686 0 00-.04-.881 1.653 1.653 0 00-.478-.734zm-10.954 6.6L44.063 49.43l-8.887-1.784 24.939-9.98zM45.828 62.933V54.23l4.441 3.985-4.441 4.72zM61.51 64.4L46.697 51.108l21.32-15.636L61.51 64.4z" fill="#33E9E9"/><path d="M59.752 36.558l8.365-3.35-1.144.839-6.123 4.49-1.098-1.98z" stroke="#33E9E9" stroke-width="3.533"/></g><g filter="url(#filter5_f_211_5712)"><path d="M71.069 31.068a1.579 1.579 0 00-1.641-.288l-36.31 14.54c-.515.205-.95.575-1.242 1.055a2.655 2.655 0 00.272 3.12c.37.42.863.706 1.405.814l9.408 1.89v10.734a2.966 2.966 0 00.488 1.642c.319.484.773.86 1.304 1.077a2.79 2.79 0 001.671.153 2.833 2.833 0 001.466-.837l4.536-4.814 7.198 6.446a2.808 2.808 0 002.779.589 2.832 2.832 0 001.233-.806 2.93 2.93 0 00.678-1.327l7.273-32.373a1.687 1.687 0 00-.04-.881 1.653 1.653 0 00-.478-.734zm-10.954 6.6L44.063 49.43l-8.887-1.784 24.939-9.98zM45.828 62.933V54.23l4.441 3.985-4.441 4.72zM61.51 64.4L46.697 51.108l21.32-15.636L61.51 64.4z" fill="#33E9E9"/><path d="M33.118 45.32c-.515.205-.95.575-1.242 1.055a2.655 2.655 0 00.272 3.12c.37.42.863.706 1.405.814l9.408 1.89v10.734a2.966 2.966 0 00.488 1.642c.319.484.773.86 1.304 1.077a2.79 2.79 0 001.671.153 2.833 2.833 0 001.466-.837L33.118 45.32zm0 0l36.31-14.54a1.579 1.579 0 011.641.288L33.118 45.32zm.184.465h.002l36.31-14.54s0 0 0 0a1.078 1.078 0 011.124.197c.153.136.269.313.333.513s.073.414.028.619c0 0 0 0 0 0l-7.273 32.373v.002c-.09.412-.285.791-.562 1.1-.277.31-.628.538-1.016.664h-.002a2.308 2.308 0 01-2.286-.484l-.003-.001-7.197-6.446-.363-.326-.334.355-4.537 4.814-.001.002a2.34 2.34 0 01-1.207.69c-.46.1-.937.056-1.372-.126l-.004-.002a2.366 2.366 0 01-1.076-.89 2.467 2.467 0 01-.405-1.364V51.789l-.401-.08-9.409-1.89h0a2.034 2.034 0 01-1.127-.654 2.155 2.155 0 01-.22-2.53c.235-.389.586-.686.998-.85zM60.41 38.07l-.481-.867-24.939 9.979-1.559.623 1.647.331 8.887 1.784.216.043.178-.13L60.41 38.071zM45.328 62.933v1.261l.864-.918 4.441-4.72.351-.372-.38-.342-4.442-3.986-.834-.748v9.825zm15.848 1.84l.635.569.187-.832 6.508-28.929.293-1.302-1.077.79-21.321 15.636-.497.364.459.411 14.813 13.292z" stroke="#fff"/></g><defs><filter id="filter0_f_211_5712" x=".98" y=".5" width="101.161" height="97" filterUnits="userSpaceOnUse" color-interpolation-filters="sRGB"><feFlood flood-opacity="0" result="BackgroundImageFix"/><feBlend in="SourceGraphic" in2="BackgroundImageFix" result="shape"/><feGaussianBlur stdDeviation="13.25" result="effect1_foregroundBlur_211_5712"/></filter><filter id="filter1_f_211_5712" x="4.993" y="4.167" width="93.134" height="89.667" filterUnits="userSpaceOnUse" color-interpolation-filters="sRGB"><feFlood flood-opacity="0" result="BackgroundImageFix"/><feBlend in="SourceGraphic" in2="BackgroundImageFix" result="shape"/><feGaussianBlur stdDeviation="13.25" result="effect1_foregroundBlur_211_5712"/></filter><filter id="filter2_f_211_5712" x="22.66" y="21.833" width="57.801" height="54.333" filterUnits="userSpaceOnUse" color-interpolation-filters="sRGB"><feFlood flood-opacity="0" result="BackgroundImageFix"/><feBlend in="SourceGraphic" in2="BackgroundImageFix" result="shape"/><feGaussianBlur stdDeviation="4.417" result="effect1_foregroundBlur_211_5712"/></filter><filter id="filter3_ddi_211_5712" x="20.01" y="28.017" width="63.101" height="59.633" filterUnits="userSpaceOnUse" color-interpolation-filters="sRGB"><feFlood flood-opacity="0" result="BackgroundImageFix"/><feColorMatrix in="SourceAlpha" values="0 0 0 0 0 0 0 0 0 0 0 0 0 0 0 0 0 0 127 0" result="hardAlpha"/><feOffset dy="5.742"/><feGaussianBlur stdDeviation="2.208"/><feColorMatrix values="0 0 0 0 0.3 0 0 0 0 0 0 0 0 0 0.26 0 0 0 0.7 0"/><feBlend mode="multiply" in2="BackgroundImageFix" result="effect1_dropShadow_211_5712"/><feColorMatrix in="SourceAlpha" values="0 0 0 0 0 0 0 0 0 0 0 0 0 0 0 0 0 0 127 0" result="hardAlpha"/><feOffset dy="8.833"/><feGaussianBlur stdDeviation="5.742"/><feColorMatrix values="0 0 0 0 0.6 0 0 0 0 0 0 0 0 0 0.6 0 0 0 1 0"/><feBlend mode="color-dodge" in2="effect1_dropShadow_211_5712" result="effect2_dropShadow_211_5712"/><feBlend in="SourceGraphic" in2="effect2_dropShadow_211_5712" result="shape"/><feColorMatrix in="SourceAlpha" values="0 0 0 0 0 0 0 0 0 0 0 0 0 0 0 0 0 0 127 0" result="hardAlpha"/><feOffset dx="-.574" dy="1.148"/><feGaussianBlur stdDeviation=".287"/><feComposite in2="hardAlpha" operator="arithmetic" k2="-1" k3="1"/><feColorMatrix values="0 0 0 0 1 0 0 0 0 1 0 0 0 0 1 0 0 0 0.5 0"/><feBlend in2="shape" result="effect3_innerShadow_211_5712"/></filter><filter id="filter4_f_211_5712" x="30.61" y="29.783" width="41.901" height="38.433" filterUnits="userSpaceOnUse" color-interpolation-filters="sRGB"><feFlood flood-opacity="0" result="BackgroundImageFix"/><feBlend in="SourceGraphic" in2="BackgroundImageFix" result="shape"/><feGaussianBlur stdDeviation=".442" result="effect1_foregroundBlur_211_5712"/></filter><filter id="filter5_f_211_5712" x="30.904" y="30.078" width="41.312" height="37.844" filterUnits="userSpaceOnUse" color-interpolation-filters="sRGB"><feFlood flood-opacity="0" result="BackgroundImageFix"/><feBlend in="SourceGraphic" in2="BackgroundImageFix" result="shape"/><feGaussianBlur stdDeviation=".294" result="effect1_foregroundBlur_211_5712"/></filter></defs></svg>