<svg id="vk" viewBox="0 0 102 98" fill="none" xmlns="http://www.w3.org/2000/svg"><g style="mix-blend-mode:hard-light" filter="url(#filter0_f_211_5705)"><ellipse cx="51.132" cy="49" rx="24.08" ry="22" fill="#33E9E9"/></g><g style="mix-blend-mode:hard-light" filter="url(#filter1_f_211_5705)"><mask id="path-2-inside-1_211_5705" fill="#fff"><path fill-rule="evenodd" clip-rule="evenodd" d="M75.086 58.836a24.156 24.156 0 00-4.5-6.283 32.949 32.949 0 00-1.919-1.993l-.08-.079a39.71 39.71 0 01-.734-.729 63.005 63.005 0 006.381-11.104l.07-.157.049-.165c.23-.77.494-2.232-.44-3.555-.966-1.365-2.511-1.611-3.548-1.611h-4.763a4.732 4.732 0 00-4.643 3.057 37.107 37.107 0 01-3.828 6.934v-5.582c0-.72-.068-1.929-.842-2.947-.924-1.22-2.262-1.462-3.19-1.462h-7.56a3.844 3.844 0 00-3.922 3.566l-.006.095v.095c0 1.028.407 1.787.733 2.264.147.214.301.41.401.532l.021.028c.106.131.176.218.246.316.187.25.452.64.528 1.645v3.123a41.944 41.944 0 01-3.712-8.04l-.017-.046-.017-.044c-.258-.677-.672-1.66-1.5-2.41-.967-.88-2.112-1.124-3.153-1.124h-4.833c-1.054 0-2.324.246-3.271 1.244-.931.984-1.037 2.162-1.037 2.786v.284l.06.275a41.189 41.189 0 008.057 17.002 21.52 21.52 0 0016.732 9.947l.087.006h.09c1.538 0 3.143-.134 4.35-.937 1.625-1.086 1.755-2.75 1.755-3.58v-2.413c.417.34.935.793 1.568 1.403a51.684 51.684 0 011.902 2.014l.28.31c.407.453.807.9 1.172 1.267.458.46 1.024.967 1.732 1.342.77.405 1.577.59 2.434.59h4.835c1.02 0 2.48-.242 3.509-1.433 1.119-1.298 1.034-2.89.682-4.032l-.063-.206-.096-.193zm-12.126.225a55.49 55.49 0 00-2.028-2.15l-.007-.006c-2.876-2.773-4.218-3.254-5.168-3.254-.507 0-1.064.055-1.427.508a1.64 1.64 0 00-.311.738 5.206 5.206 0 00-.068.942v4.347c0 .541-.09.768-.34.933-.332.223-1.042.403-2.566.403a18.337 18.337 0 01-14.314-8.59l-.017-.028-.021-.025a38.011 38.011 0 01-7.513-15.74c.008-.276.068-.443.165-.545.1-.106.344-.254.963-.254h4.833c.536 0 .816.118 1.017.299.225.207.425.557.662 1.18 1.187 3.49 2.79 6.754 4.31 9.154.759 1.198 1.505 2.196 2.179 2.902.337.352.666.645.982.852.303.2.648.359 1.004.359.187 0 .405-.021.615-.113.227-.1.413-.273.53-.492.218-.398.28-.985.28-1.755v-7.15c-.112-1.734-.636-2.712-1.145-3.405a11.843 11.843 0 00-.318-.409l-.027-.034a5.67 5.67 0 01-.259-.339.826.826 0 01-.18-.454.664.664 0 01.687-.598h7.62c.437 0 .584.106.658.206.106.138.195.424.195 1.026v9.6c0 1.14.526 1.911 1.289 1.911.877 0 1.511-.532 2.618-1.638l.019-.022.017-.019a40.303 40.303 0 006.02-10.01l.009-.025a1.551 1.551 0 011.569-1.029h4.875c.662 0 .878.17.95.27.074.106.127.333 0 .778a59.813 59.813 0 01-6.421 11.023l-.017.026c-.244.375-.513.79-.551 1.265-.043.513.178.977.566 1.478.282.415.865.986 1.456 1.564l.055.055c.62.607 1.291 1.264 1.83 1.9l.015.015.014.017a20.973 20.973 0 013.954 5.482c.161.55.064.835-.064.981-.146.17-.474.329-1.098.329H66.22a1.929 1.929 0 01-.948-.223 4.156 4.156 0 01-.962-.771c-.303-.304-.632-.67-1.035-1.118l-.314-.347z"/></mask><path fill-rule="evenodd" clip-rule="evenodd" d="M75.086 58.836a24.156 24.156 0 00-4.5-6.283 32.949 32.949 0 00-1.919-1.993l-.08-.079a39.71 39.71 0 01-.734-.729 63.005 63.005 0 006.381-11.104l.07-.157.049-.165c.23-.77.494-2.232-.44-3.555-.966-1.365-2.511-1.611-3.548-1.611h-4.763a4.732 4.732 0 00-4.643 3.057 37.107 37.107 0 01-3.828 6.934v-5.582c0-.72-.068-1.929-.842-2.947-.924-1.22-2.262-1.462-3.19-1.462h-7.56a3.844 3.844 0 00-3.922 3.566l-.006.095v.095c0 1.028.407 1.787.733 2.264.147.214.301.41.401.532l.021.028c.106.131.176.218.246.316.187.25.452.64.528 1.645v3.123a41.944 41.944 0 01-3.712-8.04l-.017-.046-.017-.044c-.258-.677-.672-1.66-1.5-2.41-.967-.88-2.112-1.124-3.153-1.124h-4.833c-1.054 0-2.324.246-3.271 1.244-.931.984-1.037 2.162-1.037 2.786v.284l.06.275a41.189 41.189 0 008.057 17.002 21.52 21.52 0 0016.732 9.947l.087.006h.09c1.538 0 3.143-.134 4.35-.937 1.625-1.086 1.755-2.75 1.755-3.58v-2.413c.417.34.935.793 1.568 1.403a51.684 51.684 0 011.902 2.014l.28.31c.407.453.807.9 1.172 1.267.458.46 1.024.967 1.732 1.342.77.405 1.577.59 2.434.59h4.835c1.02 0 2.48-.242 3.509-1.433 1.119-1.298 1.034-2.89.682-4.032l-.063-.206-.096-.193zm-12.126.225a55.49 55.49 0 00-2.028-2.15l-.007-.006c-2.876-2.773-4.218-3.254-5.168-3.254-.507 0-1.064.055-1.427.508a1.64 1.64 0 00-.311.738 5.206 5.206 0 00-.068.942v4.347c0 .541-.09.768-.34.933-.332.223-1.042.403-2.566.403a18.337 18.337 0 01-14.314-8.59l-.017-.028-.021-.025a38.011 38.011 0 01-7.513-15.74c.008-.276.068-.443.165-.545.1-.106.344-.254.963-.254h4.833c.536 0 .816.118 1.017.299.225.207.425.557.662 1.18 1.187 3.49 2.79 6.754 4.31 9.154.759 1.198 1.505 2.196 2.179 2.902.337.352.666.645.982.852.303.2.648.359 1.004.359.187 0 .405-.021.615-.113.227-.1.413-.273.53-.492.218-.398.28-.985.28-1.755v-7.15c-.112-1.734-.636-2.712-1.145-3.405a11.843 11.843 0 00-.318-.409l-.027-.034a5.67 5.67 0 01-.259-.339.826.826 0 01-.18-.454.664.664 0 01.687-.598h7.62c.437 0 .584.106.658.206.106.138.195.424.195 1.026v9.6c0 1.14.526 1.911 1.289 1.911.877 0 1.511-.532 2.618-1.638l.019-.022.017-.019a40.303 40.303 0 006.02-10.01l.009-.025a1.551 1.551 0 011.569-1.029h4.875c.662 0 .878.17.95.27.074.106.127.333 0 .778a59.813 59.813 0 01-6.421 11.023l-.017.026c-.244.375-.513.79-.551 1.265-.043.513.178.977.566 1.478.282.415.865.986 1.456 1.564l.055.055c.62.607 1.291 1.264 1.83 1.9l.015.015.014.017a20.973 20.973 0 013.954 5.482c.161.55.064.835-.064.981-.146.17-.474.329-1.098.329H66.22a1.929 1.929 0 01-.948-.223 4.156 4.156 0 01-.962-.771c-.303-.304-.632-.67-1.035-1.118l-.314-.347z" stroke="#00A8A8" stroke-width="1.035" mask="url(#path-2-inside-1_211_5705)"/></g><g style="mix-blend-mode:hard-light" filter="url(#filter2_ddif_211_5705)"><mask id="path-3-inside-2_211_5705" fill="#fff"><path fill-rule="evenodd" clip-rule="evenodd" d="M75.086 58.836a24.156 24.156 0 00-4.5-6.283 32.949 32.949 0 00-1.919-1.993l-.08-.079a39.71 39.71 0 01-.734-.729 63.005 63.005 0 006.381-11.104l.07-.157.049-.165c.23-.77.494-2.232-.44-3.555-.966-1.365-2.511-1.611-3.548-1.611h-4.763a4.732 4.732 0 00-4.643 3.057 37.107 37.107 0 01-3.828 6.934v-5.582c0-.72-.068-1.929-.842-2.947-.924-1.22-2.262-1.462-3.19-1.462h-7.56a3.844 3.844 0 00-3.922 3.566l-.006.095v.095c0 1.028.407 1.787.733 2.264.147.214.301.41.401.532l.021.028c.106.131.176.218.246.316.187.25.452.64.528 1.645v3.123a41.944 41.944 0 01-3.712-8.04l-.017-.046-.017-.044c-.258-.677-.672-1.66-1.5-2.41-.967-.88-2.112-1.124-3.153-1.124h-4.833c-1.054 0-2.324.246-3.271 1.244-.931.984-1.037 2.162-1.037 2.786v.284l.06.275a41.189 41.189 0 008.057 17.002 21.52 21.52 0 0016.732 9.947l.087.006h.09c1.538 0 3.143-.134 4.35-.937 1.625-1.086 1.755-2.75 1.755-3.58v-2.413c.417.34.935.793 1.568 1.403a51.684 51.684 0 011.902 2.014l.28.31c.407.453.807.9 1.172 1.267.458.46 1.024.967 1.732 1.342.77.405 1.577.59 2.434.59h4.835c1.02 0 2.48-.242 3.509-1.433 1.119-1.298 1.034-2.89.682-4.032l-.063-.206-.096-.193zm-12.126.225a55.49 55.49 0 00-2.028-2.15l-.007-.006c-2.876-2.773-4.218-3.254-5.168-3.254-.507 0-1.064.055-1.427.508a1.64 1.64 0 00-.311.738 5.206 5.206 0 00-.068.942v4.347c0 .541-.09.768-.34.933-.332.223-1.042.403-2.566.403a18.337 18.337 0 01-14.314-8.59l-.017-.028-.021-.025a38.011 38.011 0 01-7.513-15.74c.008-.276.068-.443.165-.545.1-.106.344-.254.963-.254h4.833c.536 0 .816.118 1.017.299.225.207.425.557.662 1.18 1.187 3.49 2.79 6.754 4.31 9.154.759 1.198 1.505 2.196 2.179 2.902.337.352.666.645.982.852.303.2.648.359 1.004.359.187 0 .405-.021.615-.113.227-.1.413-.273.53-.492.218-.398.28-.985.28-1.755v-7.15c-.112-1.734-.636-2.712-1.145-3.405a11.843 11.843 0 00-.318-.409l-.027-.034a5.67 5.67 0 01-.259-.339.826.826 0 01-.18-.454.664.664 0 01.687-.598h7.62c.437 0 .584.106.658.206.106.138.195.424.195 1.026v9.6c0 1.14.526 1.911 1.289 1.911.877 0 1.511-.532 2.618-1.638l.019-.022.017-.019a40.303 40.303 0 006.02-10.01l.009-.025a1.551 1.551 0 011.569-1.029h4.875c.662 0 .878.17.95.27.074.106.127.333 0 .778a59.813 59.813 0 01-6.421 11.023l-.017.026c-.244.375-.513.79-.551 1.265-.043.513.178.977.566 1.478.282.415.865.986 1.456 1.564l.055.055c.62.607 1.291 1.264 1.83 1.9l.015.015.014.017a20.973 20.973 0 013.954 5.482c.161.55.064.835-.064.981-.146.17-.474.329-1.098.329H66.22a1.929 1.929 0 01-.948-.223 4.156 4.156 0 01-.962-.771c-.303-.304-.632-.67-1.035-1.118l-.314-.347z"/></mask><path fill-rule="evenodd" clip-rule="evenodd" d="M75.086 58.836a24.156 24.156 0 00-4.5-6.283 32.949 32.949 0 00-1.919-1.993l-.08-.079a39.71 39.71 0 01-.734-.729 63.005 63.005 0 006.381-11.104l.07-.157.049-.165c.23-.77.494-2.232-.44-3.555-.966-1.365-2.511-1.611-3.548-1.611h-4.763a4.732 4.732 0 00-4.643 3.057 37.107 37.107 0 01-3.828 6.934v-5.582c0-.72-.068-1.929-.842-2.947-.924-1.22-2.262-1.462-3.19-1.462h-7.56a3.844 3.844 0 00-3.922 3.566l-.006.095v.095c0 1.028.407 1.787.733 2.264.147.214.301.41.401.532l.021.028c.106.131.176.218.246.316.187.25.452.64.528 1.645v3.123a41.944 41.944 0 01-3.712-8.04l-.017-.046-.017-.044c-.258-.677-.672-1.66-1.5-2.41-.967-.88-2.112-1.124-3.153-1.124h-4.833c-1.054 0-2.324.246-3.271 1.244-.931.984-1.037 2.162-1.037 2.786v.284l.06.275a41.189 41.189 0 008.057 17.002 21.52 21.52 0 0016.732 9.947l.087.006h.09c1.538 0 3.143-.134 4.35-.937 1.625-1.086 1.755-2.75 1.755-3.58v-2.413c.417.34.935.793 1.568 1.403a51.684 51.684 0 011.902 2.014l.28.31c.407.453.807.9 1.172 1.267.458.46 1.024.967 1.732 1.342.77.405 1.577.59 2.434.59h4.835c1.02 0 2.48-.242 3.509-1.433 1.119-1.298 1.034-2.89.682-4.032l-.063-.206-.096-.193zm-12.126.225a55.49 55.49 0 00-2.028-2.15l-.007-.006c-2.876-2.773-4.218-3.254-5.168-3.254-.507 0-1.064.055-1.427.508a1.64 1.64 0 00-.311.738 5.206 5.206 0 00-.068.942v4.347c0 .541-.09.768-.34.933-.332.223-1.042.403-2.566.403a18.337 18.337 0 01-14.314-8.59l-.017-.028-.021-.025a38.011 38.011 0 01-7.513-15.74c.008-.276.068-.443.165-.545.1-.106.344-.254.963-.254h4.833c.536 0 .816.118 1.017.299.225.207.425.557.662 1.18 1.187 3.49 2.79 6.754 4.31 9.154.759 1.198 1.505 2.196 2.179 2.902.337.352.666.645.982.852.303.2.648.359 1.004.359.187 0 .405-.021.615-.113.227-.1.413-.273.53-.492.218-.398.28-.985.28-1.755v-7.15c-.112-1.734-.636-2.712-1.145-3.405a11.843 11.843 0 00-.318-.409l-.027-.034a5.67 5.67 0 01-.259-.339.826.826 0 01-.18-.454.664.664 0 01.687-.598h7.62c.437 0 .584.106.658.206.106.138.195.424.195 1.026v9.6c0 1.14.526 1.911 1.289 1.911.877 0 1.511-.532 2.618-1.638l.019-.022.017-.019a40.303 40.303 0 006.02-10.01l.009-.025a1.551 1.551 0 011.569-1.029h4.875c.662 0 .878.17.95.27.074.106.127.333 0 .778a59.813 59.813 0 01-6.421 11.023l-.017.026c-.244.375-.513.79-.551 1.265-.043.513.178.977.566 1.478.282.415.865.986 1.456 1.564l.055.055c.62.607 1.291 1.264 1.83 1.9l.015.015.014.017a20.973 20.973 0 013.954 5.482c.161.55.064.835-.064.981-.146.17-.474.329-1.098.329H66.22a1.929 1.929 0 01-.948-.223 4.156 4.156 0 01-.962-.771c-.303-.304-.632-.67-1.035-1.118l-.314-.347z" fill="#33E9E9"/><path fill-rule="evenodd" clip-rule="evenodd" d="M75.086 58.836a24.156 24.156 0 00-4.5-6.283 32.949 32.949 0 00-1.919-1.993l-.08-.079a39.71 39.71 0 01-.734-.729 63.005 63.005 0 006.381-11.104l.07-.157.049-.165c.23-.77.494-2.232-.44-3.555-.966-1.365-2.511-1.611-3.548-1.611h-4.763a4.732 4.732 0 00-4.643 3.057 37.107 37.107 0 01-3.828 6.934v-5.582c0-.72-.068-1.929-.842-2.947-.924-1.22-2.262-1.462-3.19-1.462h-7.56a3.844 3.844 0 00-3.922 3.566l-.006.095v.095c0 1.028.407 1.787.733 2.264.147.214.301.41.401.532l.021.028c.106.131.176.218.246.316.187.25.452.64.528 1.645v3.123a41.944 41.944 0 01-3.712-8.04l-.017-.046-.017-.044c-.258-.677-.672-1.66-1.5-2.41-.967-.88-2.112-1.124-3.153-1.124h-4.833c-1.054 0-2.324.246-3.271 1.244-.931.984-1.037 2.162-1.037 2.786v.284l.06.275a41.189 41.189 0 008.057 17.002 21.52 21.52 0 0016.732 9.947l.087.006h.09c1.538 0 3.143-.134 4.35-.937 1.625-1.086 1.755-2.75 1.755-3.58v-2.413c.417.34.935.793 1.568 1.403a51.684 51.684 0 011.902 2.014l.28.31c.407.453.807.9 1.172 1.267.458.46 1.024.967 1.732 1.342.77.405 1.577.59 2.434.59h4.835c1.02 0 2.48-.242 3.509-1.433 1.119-1.298 1.034-2.89.682-4.032l-.063-.206-.096-.193zm-12.126.225a55.49 55.49 0 00-2.028-2.15l-.007-.006c-2.876-2.773-4.218-3.254-5.168-3.254-.507 0-1.064.055-1.427.508a1.64 1.64 0 00-.311.738 5.206 5.206 0 00-.068.942v4.347c0 .541-.09.768-.34.933-.332.223-1.042.403-2.566.403a18.337 18.337 0 01-14.314-8.59l-.017-.028-.021-.025a38.011 38.011 0 01-7.513-15.74c.008-.276.068-.443.165-.545.1-.106.344-.254.963-.254h4.833c.536 0 .816.118 1.017.299.225.207.425.557.662 1.18 1.187 3.49 2.79 6.754 4.31 9.154.759 1.198 1.505 2.196 2.179 2.902.337.352.666.645.982.852.303.2.648.359 1.004.359.187 0 .405-.021.615-.113.227-.1.413-.273.53-.492.218-.398.28-.985.28-1.755v-7.15c-.112-1.734-.636-2.712-1.145-3.405a11.843 11.843 0 00-.318-.409l-.027-.034a5.67 5.67 0 01-.259-.339.826.826 0 01-.18-.454.664.664 0 01.687-.598h7.62c.437 0 .584.106.658.206.106.138.195.424.195 1.026v9.6c0 1.14.526 1.911 1.289 1.911.877 0 1.511-.532 2.618-1.638l.019-.022.017-.019a40.303 40.303 0 006.02-10.01l.009-.025a1.551 1.551 0 011.569-1.029h4.875c.662 0 .878.17.95.27.074.106.127.333 0 .778a59.813 59.813 0 01-6.421 11.023l-.017.026c-.244.375-.513.79-.551 1.265-.043.513.178.977.566 1.478.282.415.865.986 1.456 1.564l.055.055c.62.607 1.291 1.264 1.83 1.9l.015.015.014.017a20.973 20.973 0 013.954 5.482c.161.55.064.835-.064.981-.146.17-.474.329-1.098.329H66.22a1.929 1.929 0 01-.948-.223 4.156 4.156 0 01-.962-.771c-.303-.304-.632-.67-1.035-1.118l-.314-.347z" stroke="#FB37FF" stroke-opacity=".2" stroke-width="11.483" mask="url(#path-3-inside-2_211_5705)"/></g><g style="mix-blend-mode:hard-light" filter="url(#filter3_ddi_211_5705)"><mask id="path-4-inside-3_211_5705" fill="#fff"><path fill-rule="evenodd" clip-rule="evenodd" d="M75.086 58.836a24.156 24.156 0 00-4.5-6.283 32.949 32.949 0 00-1.919-1.993l-.08-.079a39.71 39.71 0 01-.734-.729 63.005 63.005 0 006.381-11.104l.07-.157.049-.165c.23-.77.494-2.232-.44-3.555-.966-1.365-2.511-1.611-3.548-1.611h-4.763a4.732 4.732 0 00-4.643 3.057 37.107 37.107 0 01-3.828 6.934v-5.582c0-.72-.068-1.929-.842-2.947-.924-1.22-2.262-1.462-3.19-1.462h-7.56a3.844 3.844 0 00-3.922 3.566l-.006.095v.095c0 1.028.407 1.787.733 2.264.147.214.301.41.401.532l.021.028c.106.131.176.218.246.316.187.25.452.64.528 1.645v3.123a41.944 41.944 0 01-3.712-8.04l-.017-.046-.017-.044c-.258-.677-.672-1.66-1.5-2.41-.967-.88-2.112-1.124-3.153-1.124h-4.833c-1.054 0-2.324.246-3.271 1.244-.931.984-1.037 2.162-1.037 2.786v.284l.06.275a41.189 41.189 0 008.057 17.002 21.52 21.52 0 0016.732 9.947l.087.006h.09c1.538 0 3.143-.134 4.35-.937 1.625-1.086 1.755-2.75 1.755-3.58v-2.413c.417.34.935.793 1.568 1.403a51.684 51.684 0 011.902 2.014l.28.31c.407.453.807.9 1.172 1.267.458.46 1.024.967 1.732 1.342.77.405 1.577.59 2.434.59h4.835c1.02 0 2.48-.242 3.509-1.433 1.119-1.298 1.034-2.89.682-4.032l-.063-.206-.096-.193zm-12.126.225a55.49 55.49 0 00-2.028-2.15l-.007-.006c-2.876-2.773-4.218-3.254-5.168-3.254-.507 0-1.064.055-1.427.508a1.64 1.64 0 00-.311.738 5.206 5.206 0 00-.068.942v4.347c0 .541-.09.768-.34.933-.332.223-1.042.403-2.566.403a18.337 18.337 0 01-14.314-8.59l-.017-.028-.021-.025a38.011 38.011 0 01-7.513-15.74c.008-.276.068-.443.165-.545.1-.106.344-.254.963-.254h4.833c.536 0 .816.118 1.017.299.225.207.425.557.662 1.18 1.187 3.49 2.79 6.754 4.31 9.154.759 1.198 1.505 2.196 2.179 2.902.337.352.666.645.982.852.303.2.648.359 1.004.359.187 0 .405-.021.615-.113.227-.1.413-.273.53-.492.218-.398.28-.985.28-1.755v-7.15c-.112-1.734-.636-2.712-1.145-3.405a11.843 11.843 0 00-.318-.409l-.027-.034a5.67 5.67 0 01-.259-.339.826.826 0 01-.18-.454.664.664 0 01.687-.598h7.62c.437 0 .584.106.658.206.106.138.195.424.195 1.026v9.6c0 1.14.526 1.911 1.289 1.911.877 0 1.511-.532 2.618-1.638l.019-.022.017-.019a40.303 40.303 0 006.02-10.01l.009-.025a1.551 1.551 0 011.569-1.029h4.875c.662 0 .878.17.95.27.074.106.127.333 0 .778a59.813 59.813 0 01-6.421 11.023l-.017.026c-.244.375-.513.79-.551 1.265-.043.513.178.977.566 1.478.282.415.865.986 1.456 1.564l.055.055c.62.607 1.291 1.264 1.83 1.9l.015.015.014.017a20.973 20.973 0 013.954 5.482c.161.55.064.835-.064.981-.146.17-.474.329-1.098.329H66.22a1.929 1.929 0 01-.948-.223 4.156 4.156 0 01-.962-.771c-.303-.304-.632-.67-1.035-1.118l-.314-.347z"/></mask><path fill-rule="evenodd" clip-rule="evenodd" d="M75.086 58.836a24.156 24.156 0 00-4.5-6.283 32.949 32.949 0 00-1.919-1.993l-.08-.079a39.71 39.71 0 01-.734-.729 63.005 63.005 0 006.381-11.104l.07-.157.049-.165c.23-.77.494-2.232-.44-3.555-.966-1.365-2.511-1.611-3.548-1.611h-4.763a4.732 4.732 0 00-4.643 3.057 37.107 37.107 0 01-3.828 6.934v-5.582c0-.72-.068-1.929-.842-2.947-.924-1.22-2.262-1.462-3.19-1.462h-7.56a3.844 3.844 0 00-3.922 3.566l-.006.095v.095c0 1.028.407 1.787.733 2.264.147.214.301.41.401.532l.021.028c.106.131.176.218.246.316.187.25.452.64.528 1.645v3.123a41.944 41.944 0 01-3.712-8.04l-.017-.046-.017-.044c-.258-.677-.672-1.66-1.5-2.41-.967-.88-2.112-1.124-3.153-1.124h-4.833c-1.054 0-2.324.246-3.271 1.244-.931.984-1.037 2.162-1.037 2.786v.284l.06.275a41.189 41.189 0 008.057 17.002 21.52 21.52 0 0016.732 9.947l.087.006h.09c1.538 0 3.143-.134 4.35-.937 1.625-1.086 1.755-2.75 1.755-3.58v-2.413c.417.34.935.793 1.568 1.403a51.684 51.684 0 011.902 2.014l.28.31c.407.453.807.9 1.172 1.267.458.46 1.024.967 1.732 1.342.77.405 1.577.59 2.434.59h4.835c1.02 0 2.48-.242 3.509-1.433 1.119-1.298 1.034-2.89.682-4.032l-.063-.206-.096-.193zm-12.126.225a55.49 55.49 0 00-2.028-2.15l-.007-.006c-2.876-2.773-4.218-3.254-5.168-3.254-.507 0-1.064.055-1.427.508a1.64 1.64 0 00-.311.738 5.206 5.206 0 00-.068.942v4.347c0 .541-.09.768-.34.933-.332.223-1.042.403-2.566.403a18.337 18.337 0 01-14.314-8.59l-.017-.028-.021-.025a38.011 38.011 0 01-7.513-15.74c.008-.276.068-.443.165-.545.1-.106.344-.254.963-.254h4.833c.536 0 .816.118 1.017.299.225.207.425.557.662 1.18 1.187 3.49 2.79 6.754 4.31 9.154.759 1.198 1.505 2.196 2.179 2.902.337.352.666.645.982.852.303.2.648.359 1.004.359.187 0 .405-.021.615-.113.227-.1.413-.273.53-.492.218-.398.28-.985.28-1.755v-7.15c-.112-1.734-.636-2.712-1.145-3.405a11.843 11.843 0 00-.318-.409l-.027-.034a5.67 5.67 0 01-.259-.339.826.826 0 01-.18-.454.664.664 0 01.687-.598h7.62c.437 0 .584.106.658.206.106.138.195.424.195 1.026v9.6c0 1.14.526 1.911 1.289 1.911.877 0 1.511-.532 2.618-1.638l.019-.022.017-.019a40.303 40.303 0 006.02-10.01l.009-.025a1.551 1.551 0 011.569-1.029h4.875c.662 0 .878.17.95.27.074.106.127.333 0 .778a59.813 59.813 0 01-6.421 11.023l-.017.026c-.244.375-.513.79-.551 1.265-.043.513.178.977.566 1.478.282.415.865.986 1.456 1.564l.055.055c.62.607 1.291 1.264 1.83 1.9l.015.015.014.017a20.973 20.973 0 013.954 5.482c.161.55.064.835-.064.981-.146.17-.474.329-1.098.329H66.22a1.929 1.929 0 01-.948-.223 4.156 4.156 0 01-.962-.771c-.303-.304-.632-.67-1.035-1.118l-.314-.347z" stroke="#33E9C6" stroke-opacity=".2" stroke-width="1.035" mask="url(#path-4-inside-3_211_5705)"/></g><g filter="url(#filter4_f_211_5705)"><mask id="path-5-inside-4_211_5705" fill="#fff"><path fill-rule="evenodd" clip-rule="evenodd" d="M75.086 58.836a24.156 24.156 0 00-4.5-6.283 32.949 32.949 0 00-1.919-1.993l-.08-.079a39.71 39.71 0 01-.734-.729 63.005 63.005 0 006.381-11.104l.07-.157.049-.165c.23-.77.494-2.232-.44-3.555-.966-1.365-2.511-1.611-3.548-1.611h-4.763a4.732 4.732 0 00-4.643 3.057 37.107 37.107 0 01-3.828 6.934v-5.582c0-.72-.068-1.929-.842-2.947-.924-1.22-2.262-1.462-3.19-1.462h-7.56a3.844 3.844 0 00-3.922 3.566l-.006.095v.095c0 1.028.407 1.787.733 2.264.147.214.301.41.401.532l.021.028c.106.131.176.218.246.316.187.25.452.64.528 1.645v3.123a41.944 41.944 0 01-3.712-8.04l-.017-.046-.017-.044c-.258-.677-.672-1.66-1.5-2.41-.967-.88-2.112-1.124-3.153-1.124h-4.833c-1.054 0-2.324.246-3.271 1.244-.931.984-1.037 2.162-1.037 2.786v.284l.06.275a41.189 41.189 0 008.057 17.002 21.52 21.52 0 0016.732 9.947l.087.006h.09c1.538 0 3.143-.134 4.35-.937 1.625-1.086 1.755-2.75 1.755-3.58v-2.413c.417.34.935.793 1.568 1.403a51.684 51.684 0 011.902 2.014l.28.31c.407.453.807.9 1.172 1.267.458.46 1.024.967 1.732 1.342.77.405 1.577.59 2.434.59h4.835c1.02 0 2.48-.242 3.509-1.433 1.119-1.298 1.034-2.89.682-4.032l-.063-.206-.096-.193zm-12.126.225a55.49 55.49 0 00-2.028-2.15l-.007-.006c-2.876-2.773-4.218-3.254-5.168-3.254-.507 0-1.064.055-1.427.508a1.64 1.64 0 00-.311.738 5.206 5.206 0 00-.068.942v4.347c0 .541-.09.768-.34.933-.332.223-1.042.403-2.566.403a18.337 18.337 0 01-14.314-8.59l-.017-.028-.021-.025a38.011 38.011 0 01-7.513-15.74c.008-.276.068-.443.165-.545.1-.106.344-.254.963-.254h4.833c.536 0 .816.118 1.017.299.225.207.425.557.662 1.18 1.187 3.49 2.79 6.754 4.31 9.154.759 1.198 1.505 2.196 2.179 2.902.337.352.666.645.982.852.303.2.648.359 1.004.359.187 0 .405-.021.615-.113.227-.1.413-.273.53-.492.218-.398.28-.985.28-1.755v-7.15c-.112-1.734-.636-2.712-1.145-3.405a11.843 11.843 0 00-.318-.409l-.027-.034a5.67 5.67 0 01-.259-.339.826.826 0 01-.18-.454.664.664 0 01.687-.598h7.62c.437 0 .584.106.658.206.106.138.195.424.195 1.026v9.6c0 1.14.526 1.911 1.289 1.911.877 0 1.511-.532 2.618-1.638l.019-.022.017-.019a40.303 40.303 0 006.02-10.01l.009-.025a1.551 1.551 0 011.569-1.029h4.875c.662 0 .878.17.95.27.074.106.127.333 0 .778a59.813 59.813 0 01-6.421 11.023l-.017.026c-.244.375-.513.79-.551 1.265-.043.513.178.977.566 1.478.282.415.865.986 1.456 1.564l.055.055c.62.607 1.291 1.264 1.83 1.9l.015.015.014.017a20.973 20.973 0 013.954 5.482c.161.55.064.835-.064.981-.146.17-.474.329-1.098.329H66.22a1.929 1.929 0 01-.948-.223 4.156 4.156 0 01-.962-.771c-.303-.304-.632-.67-1.035-1.118l-.314-.347z"/></mask><path fill-rule="evenodd" clip-rule="evenodd" d="M75.086 58.836a24.156 24.156 0 00-4.5-6.283 32.949 32.949 0 00-1.919-1.993l-.08-.079a39.71 39.71 0 01-.734-.729 63.005 63.005 0 006.381-11.104l.07-.157.049-.165c.23-.77.494-2.232-.44-3.555-.966-1.365-2.511-1.611-3.548-1.611h-4.763a4.732 4.732 0 00-4.643 3.057 37.107 37.107 0 01-3.828 6.934v-5.582c0-.72-.068-1.929-.842-2.947-.924-1.22-2.262-1.462-3.19-1.462h-7.56a3.844 3.844 0 00-3.922 3.566l-.006.095v.095c0 1.028.407 1.787.733 2.264.147.214.301.41.401.532l.021.028c.106.131.176.218.246.316.187.25.452.64.528 1.645v3.123a41.944 41.944 0 01-3.712-8.04l-.017-.046-.017-.044c-.258-.677-.672-1.66-1.5-2.41-.967-.88-2.112-1.124-3.153-1.124h-4.833c-1.054 0-2.324.246-3.271 1.244-.931.984-1.037 2.162-1.037 2.786v.284l.06.275a41.189 41.189 0 008.057 17.002 21.52 21.52 0 0016.732 9.947l.087.006h.09c1.538 0 3.143-.134 4.35-.937 1.625-1.086 1.755-2.75 1.755-3.58v-2.413c.417.34.935.793 1.568 1.403a51.684 51.684 0 011.902 2.014l.28.31c.407.453.807.9 1.172 1.267.458.46 1.024.967 1.732 1.342.77.405 1.577.59 2.434.59h4.835c1.02 0 2.48-.242 3.509-1.433 1.119-1.298 1.034-2.89.682-4.032l-.063-.206-.096-.193zm-12.126.225a55.49 55.49 0 00-2.028-2.15l-.007-.006c-2.876-2.773-4.218-3.254-5.168-3.254-.507 0-1.064.055-1.427.508a1.64 1.64 0 00-.311.738 5.206 5.206 0 00-.068.942v4.347c0 .541-.09.768-.34.933-.332.223-1.042.403-2.566.403a18.337 18.337 0 01-14.314-8.59l-.017-.028-.021-.025a38.011 38.011 0 01-7.513-15.74c.008-.276.068-.443.165-.545.1-.106.344-.254.963-.254h4.833c.536 0 .816.118 1.017.299.225.207.425.557.662 1.18 1.187 3.49 2.79 6.754 4.31 9.154.759 1.198 1.505 2.196 2.179 2.902.337.352.666.645.982.852.303.2.648.359 1.004.359.187 0 .405-.021.615-.113.227-.1.413-.273.53-.492.218-.398.28-.985.28-1.755v-7.15c-.112-1.734-.636-2.712-1.145-3.405a11.843 11.843 0 00-.318-.409l-.027-.034a5.67 5.67 0 01-.259-.339.826.826 0 01-.18-.454.664.664 0 01.687-.598h7.62c.437 0 .584.106.658.206.106.138.195.424.195 1.026v9.6c0 1.14.526 1.911 1.289 1.911.877 0 1.511-.532 2.618-1.638l.019-.022.017-.019a40.303 40.303 0 006.02-10.01l.009-.025a1.551 1.551 0 011.569-1.029h4.875c.662 0 .878.17.95.27.074.106.127.333 0 .778a59.813 59.813 0 01-6.421 11.023l-.017.026c-.244.375-.513.79-.551 1.265-.043.513.178.977.566 1.478.282.415.865.986 1.456 1.564l.055.055c.62.607 1.291 1.264 1.83 1.9l.015.015.014.017a20.973 20.973 0 013.954 5.482c.161.55.064.835-.064.981-.146.17-.474.329-1.098.329H66.22a1.929 1.929 0 01-.948-.223 4.156 4.156 0 01-.962-.771c-.303-.304-.632-.67-1.035-1.118l-.314-.347z" stroke="#33E9E9" stroke-width=".637" mask="url(#path-5-inside-4_211_5705)"/></g><g filter="url(#filter5_f_211_5705)"><mask id="path-6-inside-5_211_5705" fill="#fff"><path fill-rule="evenodd" clip-rule="evenodd" d="M75.086 58.836a24.156 24.156 0 00-4.5-6.283 32.949 32.949 0 00-1.919-1.993l-.08-.079a39.71 39.71 0 01-.734-.729 63.005 63.005 0 006.381-11.104l.07-.157.049-.165c.23-.77.494-2.232-.44-3.555-.966-1.365-2.511-1.611-3.548-1.611h-4.763a4.732 4.732 0 00-4.643 3.057 37.107 37.107 0 01-3.828 6.934v-5.582c0-.72-.068-1.929-.842-2.947-.924-1.22-2.262-1.462-3.19-1.462h-7.56a3.844 3.844 0 00-3.922 3.566l-.006.095v.095c0 1.028.407 1.787.733 2.264.147.214.301.41.401.532l.021.028c.106.131.176.218.246.316.187.25.452.64.528 1.645v3.123a41.944 41.944 0 01-3.712-8.04l-.017-.046-.017-.044c-.258-.677-.672-1.66-1.5-2.41-.967-.88-2.112-1.124-3.153-1.124h-4.833c-1.054 0-2.324.246-3.271 1.244-.931.984-1.037 2.162-1.037 2.786v.284l.06.275a41.189 41.189 0 008.057 17.002 21.52 21.52 0 0016.732 9.947l.087.006h.09c1.538 0 3.143-.134 4.35-.937 1.625-1.086 1.755-2.75 1.755-3.58v-2.413c.417.34.935.793 1.568 1.403a51.684 51.684 0 011.902 2.014l.28.31c.407.453.807.9 1.172 1.267.458.46 1.024.967 1.732 1.342.77.405 1.577.59 2.434.59h4.835c1.02 0 2.48-.242 3.509-1.433 1.119-1.298 1.034-2.89.682-4.032l-.063-.206-.096-.193zm-12.126.225a55.49 55.49 0 00-2.028-2.15l-.007-.006c-2.876-2.773-4.218-3.254-5.168-3.254-.507 0-1.064.055-1.427.508a1.64 1.64 0 00-.311.738 5.206 5.206 0 00-.068.942v4.347c0 .541-.09.768-.34.933-.332.223-1.042.403-2.566.403a18.337 18.337 0 01-14.314-8.59l-.017-.028-.021-.025a38.011 38.011 0 01-7.513-15.74c.008-.276.068-.443.165-.545.1-.106.344-.254.963-.254h4.833c.536 0 .816.118 1.017.299.225.207.425.557.662 1.18 1.187 3.49 2.79 6.754 4.31 9.154.759 1.198 1.505 2.196 2.179 2.902.337.352.666.645.982.852.303.2.648.359 1.004.359.187 0 .405-.021.615-.113.227-.1.413-.273.53-.492.218-.398.28-.985.28-1.755v-7.15c-.112-1.734-.636-2.712-1.145-3.405a11.843 11.843 0 00-.318-.409l-.027-.034a5.67 5.67 0 01-.259-.339.826.826 0 01-.18-.454.664.664 0 01.687-.598h7.62c.437 0 .584.106.658.206.106.138.195.424.195 1.026v9.6c0 1.14.526 1.911 1.289 1.911.877 0 1.511-.532 2.618-1.638l.019-.022.017-.019a40.303 40.303 0 006.02-10.01l.009-.025a1.551 1.551 0 011.569-1.029h4.875c.662 0 .878.17.95.27.074.106.127.333 0 .778a59.813 59.813 0 01-6.421 11.023l-.017.026c-.244.375-.513.79-.551 1.265-.043.513.178.977.566 1.478.282.415.865.986 1.456 1.564l.055.055c.62.607 1.291 1.264 1.83 1.9l.015.015.014.017a20.973 20.973 0 013.954 5.482c.161.55.064.835-.064.981-.146.17-.474.329-1.098.329H66.22a1.929 1.929 0 01-.948-.223 4.156 4.156 0 01-.962-.771c-.303-.304-.632-.67-1.035-1.118l-.314-.347z"/></mask><path fill-rule="evenodd" clip-rule="evenodd" d="M75.086 58.836a24.156 24.156 0 00-4.5-6.283 32.949 32.949 0 00-1.919-1.993l-.08-.079a39.71 39.71 0 01-.734-.729 63.005 63.005 0 006.381-11.104l.07-.157.049-.165c.23-.77.494-2.232-.44-3.555-.966-1.365-2.511-1.611-3.548-1.611h-4.763a4.732 4.732 0 00-4.643 3.057 37.107 37.107 0 01-3.828 6.934v-5.582c0-.72-.068-1.929-.842-2.947-.924-1.22-2.262-1.462-3.19-1.462h-7.56a3.844 3.844 0 00-3.922 3.566l-.006.095v.095c0 1.028.407 1.787.733 2.264.147.214.301.41.401.532l.021.028c.106.131.176.218.246.316.187.25.452.64.528 1.645v3.123a41.944 41.944 0 01-3.712-8.04l-.017-.046-.017-.044c-.258-.677-.672-1.66-1.5-2.41-.967-.88-2.112-1.124-3.153-1.124h-4.833c-1.054 0-2.324.246-3.271 1.244-.931.984-1.037 2.162-1.037 2.786v.284l.06.275a41.189 41.189 0 008.057 17.002 21.52 21.52 0 0016.732 9.947l.087.006h.09c1.538 0 3.143-.134 4.35-.937 1.625-1.086 1.755-2.75 1.755-3.58v-2.413c.417.34.935.793 1.568 1.403a51.684 51.684 0 011.902 2.014l.28.31c.407.453.807.9 1.172 1.267.458.46 1.024.967 1.732 1.342.77.405 1.577.59 2.434.59h4.835c1.02 0 2.48-.242 3.509-1.433 1.119-1.298 1.034-2.89.682-4.032l-.063-.206-.096-.193zm-12.126.225a55.49 55.49 0 00-2.028-2.15l-.007-.006c-2.876-2.773-4.218-3.254-5.168-3.254-.507 0-1.064.055-1.427.508a1.64 1.64 0 00-.311.738 5.206 5.206 0 00-.068.942v4.347c0 .541-.09.768-.34.933-.332.223-1.042.403-2.566.403a18.337 18.337 0 01-14.314-8.59l-.017-.028-.021-.025a38.011 38.011 0 01-7.513-15.74c.008-.276.068-.443.165-.545.1-.106.344-.254.963-.254h4.833c.536 0 .816.118 1.017.299.225.207.425.557.662 1.18 1.187 3.49 2.79 6.754 4.31 9.154.759 1.198 1.505 2.196 2.179 2.902.337.352.666.645.982.852.303.2.648.359 1.004.359.187 0 .405-.021.615-.113.227-.1.413-.273.53-.492.218-.398.28-.985.28-1.755v-7.15c-.112-1.734-.636-2.712-1.145-3.405a11.843 11.843 0 00-.318-.409l-.027-.034a5.67 5.67 0 01-.259-.339.826.826 0 01-.18-.454.664.664 0 01.687-.598h7.62c.437 0 .584.106.658.206.106.138.195.424.195 1.026v9.6c0 1.14.526 1.911 1.289 1.911.877 0 1.511-.532 2.618-1.638l.019-.022.017-.019a40.303 40.303 0 006.02-10.01l.009-.025a1.551 1.551 0 011.569-1.029h4.875c.662 0 .878.17.95.27.074.106.127.333 0 .778a59.813 59.813 0 01-6.421 11.023l-.017.026c-.244.375-.513.79-.551 1.265-.043.513.178.977.566 1.478.282.415.865.986 1.456 1.564l.055.055c.62.607 1.291 1.264 1.83 1.9l.015.015.014.017a20.973 20.973 0 013.954 5.482c.161.55.064.835-.064.981-.146.17-.474.329-1.098.329H66.22a1.929 1.929 0 01-.948-.223 4.156 4.156 0 01-.962-.771c-.303-.304-.632-.67-1.035-1.118l-.314-.347z" fill="#33E9E9"/><path fill-rule="evenodd" clip-rule="evenodd" d="M75.086 58.836a24.156 24.156 0 00-4.5-6.283 32.949 32.949 0 00-1.919-1.993l-.08-.079a39.71 39.71 0 01-.734-.729 63.005 63.005 0 006.381-11.104l.07-.157.049-.165c.23-.77.494-2.232-.44-3.555-.966-1.365-2.511-1.611-3.548-1.611h-4.763a4.732 4.732 0 00-4.643 3.057 37.107 37.107 0 01-3.828 6.934v-5.582c0-.72-.068-1.929-.842-2.947-.924-1.22-2.262-1.462-3.19-1.462h-7.56a3.844 3.844 0 00-3.922 3.566l-.006.095v.095c0 1.028.407 1.787.733 2.264.147.214.301.41.401.532l.021.028c.106.131.176.218.246.316.187.25.452.64.528 1.645v3.123a41.944 41.944 0 01-3.712-8.04l-.017-.046-.017-.044c-.258-.677-.672-1.66-1.5-2.41-.967-.88-2.112-1.124-3.153-1.124h-4.833c-1.054 0-2.324.246-3.271 1.244-.931.984-1.037 2.162-1.037 2.786v.284l.06.275a41.189 41.189 0 008.057 17.002 21.52 21.52 0 0016.732 9.947l.087.006h.09c1.538 0 3.143-.134 4.35-.937 1.625-1.086 1.755-2.75 1.755-3.58v-2.413c.417.34.935.793 1.568 1.403a51.684 51.684 0 011.902 2.014l.28.31c.407.453.807.9 1.172 1.267.458.46 1.024.967 1.732 1.342.77.405 1.577.59 2.434.59h4.835c1.02 0 2.48-.242 3.509-1.433 1.119-1.298 1.034-2.89.682-4.032l-.063-.206-.096-.193zm-12.126.225a55.49 55.49 0 00-2.028-2.15l-.007-.006c-2.876-2.773-4.218-3.254-5.168-3.254-.507 0-1.064.055-1.427.508a1.64 1.64 0 00-.311.738 5.206 5.206 0 00-.068.942v4.347c0 .541-.09.768-.34.933-.332.223-1.042.403-2.566.403a18.337 18.337 0 01-14.314-8.59l-.017-.028-.021-.025a38.011 38.011 0 01-7.513-15.74c.008-.276.068-.443.165-.545.1-.106.344-.254.963-.254h4.833c.536 0 .816.118 1.017.299.225.207.425.557.662 1.18 1.187 3.49 2.79 6.754 4.31 9.154.759 1.198 1.505 2.196 2.179 2.902.337.352.666.645.982.852.303.2.648.359 1.004.359.187 0 .405-.021.615-.113.227-.1.413-.273.53-.492.218-.398.28-.985.28-1.755v-7.15c-.112-1.734-.636-2.712-1.145-3.405a11.843 11.843 0 00-.318-.409l-.027-.034a5.67 5.67 0 01-.259-.339.826.826 0 01-.18-.454.664.664 0 01.687-.598h7.62c.437 0 .584.106.658.206.106.138.195.424.195 1.026v9.6c0 1.14.526 1.911 1.289 1.911.877 0 1.511-.532 2.618-1.638l.019-.022.017-.019a40.303 40.303 0 006.02-10.01l.009-.025a1.551 1.551 0 011.569-1.029h4.875c.662 0 .878.17.95.27.074.106.127.333 0 .778a59.813 59.813 0 01-6.421 11.023l-.017.026c-.244.375-.513.79-.551 1.265-.043.513.178.977.566 1.478.282.415.865.986 1.456 1.564l.055.055c.62.607 1.291 1.264 1.83 1.9l.015.015.014.017a20.973 20.973 0 013.954 5.482c.161.55.064.835-.064.981-.146.17-.474.329-1.098.329H66.22a1.929 1.929 0 01-.948-.223 4.156 4.156 0 01-.962-.771c-.303-.304-.632-.67-1.035-1.118l-.314-.347z" stroke="#fff" stroke-width="2" mask="url(#path-6-inside-5_211_5705)"/></g><defs><filter id="filter0_f_211_5705" x=".552" y=".5" width="101.161" height="97" filterUnits="userSpaceOnUse" color-interpolation-filters="sRGB"><feFlood flood-opacity="0" result="BackgroundImageFix"/><feBlend in="SourceGraphic" in2="BackgroundImageFix" result="shape"/><feGaussianBlur stdDeviation="13.25" result="effect1_foregroundBlur_211_5705"/></filter><filter id="filter1_f_211_5705" x="13.7" y="20.855" width="74.079" height="56.149" filterUnits="userSpaceOnUse" color-interpolation-filters="sRGB"><feFlood flood-opacity="0" result="BackgroundImageFix"/><feBlend in="SourceGraphic" in2="BackgroundImageFix" result="shape"/><feGaussianBlur stdDeviation="6.15" result="effect1_foregroundBlur_211_5705"/></filter><filter id="filter2_ddif_211_5705" x="14.517" y="27.755" width="72.446" height="57.266" filterUnits="userSpaceOnUse" color-interpolation-filters="sRGB"><feFlood flood-opacity="0" result="BackgroundImageFix"/><feColorMatrix in="SourceAlpha" values="0 0 0 0 0 0 0 0 0 0 0 0 0 0 0 0 0 0 127 0" result="hardAlpha"/><feOffset dy="5.742"/><feGaussianBlur stdDeviation="2.208"/><feColorMatrix values="0 0 0 0 0.3 0 0 0 0 0 0 0 0 0 0.26 0 0 0 0.7 0"/><feBlend mode="multiply" in2="BackgroundImageFix" result="effect1_dropShadow_211_5705"/><feColorMatrix in="SourceAlpha" values="0 0 0 0 0 0 0 0 0 0 0 0 0 0 0 0 0 0 127 0" result="hardAlpha"/><feOffset dy="8.833"/><feGaussianBlur stdDeviation="5.742"/><feColorMatrix values="0 0 0 0 0.6 0 0 0 0 0 0 0 0 0 0.6 0 0 0 1 0"/><feBlend mode="color-dodge" in2="effect1_dropShadow_211_5705" result="effect2_dropShadow_211_5705"/><feBlend in="SourceGraphic" in2="effect2_dropShadow_211_5705" result="shape"/><feColorMatrix in="SourceAlpha" values="0 0 0 0 0 0 0 0 0 0 0 0 0 0 0 0 0 0 127 0" result="hardAlpha"/><feOffset dx="-.574" dy="1.148"/><feGaussianBlur stdDeviation=".287"/><feComposite in2="hardAlpha" operator="arithmetic" k2="-1" k3="1"/><feColorMatrix values="0 0 0 0 1 0 0 0 0 1 0 0 0 0 1 0 0 0 0.5 0"/><feBlend in2="shape" result="effect3_innerShadow_211_5705"/><feGaussianBlur stdDeviation="2.7" result="effect4_foregroundBlur_211_5705"/></filter><filter id="filter3_ddi_211_5705" x="24.965" y="32.916" width="51.55" height="33.619" filterUnits="userSpaceOnUse" color-interpolation-filters="sRGB"><feFlood flood-opacity="0" result="BackgroundImageFix"/><feColorMatrix in="SourceAlpha" values="0 0 0 0 0 0 0 0 0 0 0 0 0 0 0 0 0 0 127 0" result="hardAlpha"/><feOffset dy=".518"/><feGaussianBlur stdDeviation=".199"/><feColorMatrix values="0 0 0 0 0 0 0 0 0 0.3 0 0 0 0 0.275 0 0 0 0.7 0"/><feBlend mode="multiply" in2="BackgroundImageFix" result="effect1_dropShadow_211_5705"/><feColorMatrix in="SourceAlpha" values="0 0 0 0 0 0 0 0 0 0 0 0 0 0 0 0 0 0 127 0" result="hardAlpha"/><feOffset dy=".796"/><feGaussianBlur stdDeviation=".518"/><feColorMatrix values="0 0 0 0 0 0 0 0 0 0.6 0 0 0 0 0.6 0 0 0 1 0"/><feBlend mode="color-dodge" in2="effect1_dropShadow_211_5705" result="effect2_dropShadow_211_5705"/><feBlend in="SourceGraphic" in2="effect2_dropShadow_211_5705" result="shape"/><feColorMatrix in="SourceAlpha" values="0 0 0 0 0 0 0 0 0 0 0 0 0 0 0 0 0 0 127 0" result="hardAlpha"/><feOffset dx="-.052" dy=".104"/><feGaussianBlur stdDeviation=".026"/><feComposite in2="hardAlpha" operator="arithmetic" k2="-1" k3="1"/><feColorMatrix values="0 0 0 0 1 0 0 0 0 1 0 0 0 0 1 0 0 0 0.5 0"/><feBlend in2="shape" result="effect3_innerShadow_211_5705"/></filter><filter id="filter4_f_211_5705" x="25.92" y="33.075" width="49.639" height="31.708" filterUnits="userSpaceOnUse" color-interpolation-filters="sRGB"><feFlood flood-opacity="0" result="BackgroundImageFix"/><feBlend in="SourceGraphic" in2="BackgroundImageFix" result="shape"/><feGaussianBlur stdDeviation=".04" result="effect1_foregroundBlur_211_5705"/></filter><filter id="filter5_f_211_5705" x="25.2" y="32.355" width="51.08" height="33.149" filterUnits="userSpaceOnUse" color-interpolation-filters="sRGB"><feFlood flood-opacity="0" result="BackgroundImageFix"/><feBlend in="SourceGraphic" in2="BackgroundImageFix" result="shape"/><feGaussianBlur stdDeviation=".4" result="effect1_foregroundBlur_211_5705"/></filter></defs></svg>